G75*
%MOIN*%
%OFA0B0*%
%FSLAX25Y25*%
%IPPOS*%
%LPD*%
%AMOC8*
5,1,8,0,0,1.08239X$1,22.5*
%
%ADD10R,0.03543X0.03346*%
%ADD11R,0.04724X0.05512*%
%ADD12R,0.16000X0.06000*%
%ADD13R,0.01969X0.09843*%
%ADD14R,0.07874X0.09843*%
%ADD15R,0.11811X0.06299*%
%ADD16R,0.21654X0.03937*%
%ADD17R,0.03346X0.03543*%
%ADD18R,0.03937X0.07874*%
D10*
X0039500Y0071217D03*
X0039500Y0075783D03*
D11*
X0114094Y0076000D03*
X0125906Y0076000D03*
D12*
X0311500Y0041500D03*
X0311500Y0021500D03*
D13*
X0167799Y0018657D03*
X0164650Y0018657D03*
X0161500Y0018657D03*
X0158350Y0018657D03*
X0155201Y0018657D03*
D14*
X0143783Y0018657D03*
X0179217Y0018657D03*
X0179217Y0040311D03*
X0143783Y0040311D03*
D15*
X0020437Y0044886D03*
X0020437Y0018114D03*
D16*
X0029374Y0027563D03*
X0029374Y0035437D03*
D17*
X0133717Y0076000D03*
X0138283Y0076000D03*
D18*
X0049925Y0016972D03*
X0055831Y0016972D03*
X0061736Y0016972D03*
X0067642Y0016972D03*
X0073547Y0016972D03*
X0079453Y0016972D03*
X0085358Y0016972D03*
X0091264Y0016972D03*
X0097169Y0016972D03*
X0103075Y0016972D03*
X0103075Y0076028D03*
X0097169Y0076028D03*
X0091264Y0076028D03*
X0085358Y0076028D03*
X0079453Y0076028D03*
X0073547Y0076028D03*
X0067642Y0076028D03*
X0061736Y0076028D03*
X0055831Y0076028D03*
X0049925Y0076028D03*
M02*
