G75*
%MOIN*%
%OFA0B0*%
%FSLAX25Y25*%
%IPPOS*%
%LPD*%
%AMOC8*
5,1,8,0,0,1.08239X$1,22.5*
%
%ADD10R,0.04331X0.03937*%
%ADD11R,0.03543X0.02756*%
%ADD12R,0.03346X0.03543*%
%ADD13R,0.03543X0.03346*%
%ADD14R,0.03937X0.04331*%
%ADD15R,0.02756X0.03543*%
%ADD16R,0.03600X0.01600*%
%ADD17R,0.16000X0.06000*%
%ADD18C,0.05315*%
%ADD19C,0.03937*%
%ADD20R,0.05000X0.02500*%
%ADD21C,0.02362*%
%ADD22C,0.01181*%
%ADD23R,0.13583X0.13583*%
%ADD24R,0.05906X0.01102*%
%ADD25R,0.04724X0.02165*%
%ADD26R,0.03937X0.07087*%
%ADD27R,0.07480X0.04331*%
%ADD28C,0.25000*%
%ADD29C,0.01600*%
%ADD30C,0.00600*%
%ADD31C,0.01000*%
%ADD32C,0.02178*%
%ADD33C,0.03200*%
%ADD34C,0.01200*%
D10*
G36*
X0100495Y0023288D02*
X0103556Y0020227D01*
X0100773Y0017444D01*
X0097712Y0020505D01*
X0100495Y0023288D01*
G37*
G36*
X0105227Y0018556D02*
X0108288Y0015495D01*
X0105505Y0012712D01*
X0102444Y0015773D01*
X0105227Y0018556D01*
G37*
X0034346Y0054000D03*
X0027654Y0054000D03*
D11*
X0140000Y0070441D03*
X0140000Y0075559D03*
X0179500Y0046559D03*
X0179500Y0041441D03*
X0180000Y0034059D03*
X0180000Y0028941D03*
X0184000Y0022059D03*
X0178000Y0021559D03*
X0184000Y0016941D03*
X0178000Y0016441D03*
X0144000Y0015441D03*
X0144000Y0020559D03*
X0144000Y0027941D03*
X0144000Y0033059D03*
X0211000Y0034059D03*
X0211000Y0028941D03*
X0235000Y0029059D03*
X0246500Y0029941D03*
X0246500Y0035059D03*
X0246500Y0023559D03*
X0235000Y0023941D03*
X0246500Y0018441D03*
X0250500Y0046941D03*
X0250500Y0052059D03*
X0039500Y0019559D03*
X0039500Y0014441D03*
D12*
X0206717Y0045000D03*
X0211283Y0045000D03*
X0211283Y0050000D03*
X0206717Y0050000D03*
X0206717Y0055000D03*
X0211283Y0055000D03*
X0256217Y0048000D03*
X0260783Y0048000D03*
X0269717Y0059000D03*
X0274283Y0059000D03*
X0262283Y0060500D03*
X0257717Y0060500D03*
X0257717Y0065500D03*
X0262283Y0065500D03*
X0256783Y0034000D03*
X0252217Y0034000D03*
X0264217Y0029500D03*
X0268783Y0029500D03*
X0262283Y0017500D03*
X0257717Y0017500D03*
X0240283Y0017500D03*
X0235717Y0017500D03*
D13*
X0251500Y0018717D03*
X0251500Y0023283D03*
X0240000Y0024217D03*
X0230000Y0024217D03*
X0222500Y0024217D03*
X0222500Y0028783D03*
X0230000Y0028783D03*
X0240000Y0028783D03*
X0284500Y0026783D03*
X0284500Y0022217D03*
X0272000Y0042717D03*
X0272000Y0047283D03*
X0251500Y0068217D03*
X0243000Y0072217D03*
X0238500Y0072217D03*
X0233500Y0072217D03*
X0226000Y0072217D03*
X0221500Y0072217D03*
X0211500Y0071717D03*
X0211500Y0076283D03*
X0221500Y0076783D03*
X0226000Y0076783D03*
X0233500Y0076783D03*
X0238500Y0076783D03*
X0243000Y0076783D03*
X0251500Y0072783D03*
X0181500Y0071717D03*
X0181500Y0076283D03*
D14*
X0061500Y0064846D03*
X0061500Y0058154D03*
X0187000Y0035346D03*
X0187000Y0028654D03*
D15*
X0255941Y0042500D03*
X0261059Y0042500D03*
X0263941Y0034000D03*
X0269059Y0034000D03*
X0275941Y0034000D03*
X0281059Y0034000D03*
X0287941Y0032500D03*
X0293059Y0032500D03*
X0273559Y0053000D03*
X0268441Y0053000D03*
X0261059Y0053000D03*
X0255941Y0053000D03*
X0211559Y0060500D03*
X0206441Y0060500D03*
G36*
X0129033Y0066964D02*
X0127084Y0068913D01*
X0129587Y0071416D01*
X0131536Y0069467D01*
X0129033Y0066964D01*
G37*
G36*
X0125413Y0070584D02*
X0123464Y0072533D01*
X0125967Y0075036D01*
X0127916Y0073087D01*
X0125413Y0070584D01*
G37*
G36*
X0099087Y0067416D02*
X0101036Y0065467D01*
X0098533Y0062964D01*
X0096584Y0064913D01*
X0099087Y0067416D01*
G37*
G36*
X0095467Y0071036D02*
X0097416Y0069087D01*
X0094913Y0066584D01*
X0092964Y0068533D01*
X0095467Y0071036D01*
G37*
G36*
X0091967Y0067536D02*
X0093916Y0065587D01*
X0091413Y0063084D01*
X0089464Y0065033D01*
X0091967Y0067536D01*
G37*
G36*
X0095587Y0063916D02*
X0097536Y0061967D01*
X0095033Y0059464D01*
X0093084Y0061413D01*
X0095587Y0063916D01*
G37*
X0059059Y0047500D03*
X0053941Y0047500D03*
X0053941Y0041500D03*
X0059059Y0041500D03*
G36*
X0079464Y0035467D02*
X0081413Y0037416D01*
X0083916Y0034913D01*
X0081967Y0032964D01*
X0079464Y0035467D01*
G37*
G36*
X0083084Y0039087D02*
X0085033Y0041036D01*
X0087536Y0038533D01*
X0085587Y0036584D01*
X0083084Y0039087D01*
G37*
X0060059Y0033000D03*
X0054941Y0033000D03*
G36*
X0092464Y0021467D02*
X0094413Y0023416D01*
X0096916Y0020913D01*
X0094967Y0018964D01*
X0092464Y0021467D01*
G37*
G36*
X0096084Y0025087D02*
X0098033Y0027036D01*
X0100536Y0024533D01*
X0098587Y0022584D01*
X0096084Y0025087D01*
G37*
G36*
X0106413Y0021084D02*
X0104464Y0023033D01*
X0106967Y0025536D01*
X0108916Y0023587D01*
X0106413Y0021084D01*
G37*
G36*
X0110033Y0017464D02*
X0108084Y0019413D01*
X0110587Y0021916D01*
X0112536Y0019967D01*
X0110033Y0017464D01*
G37*
D16*
X0150800Y0032750D03*
X0150800Y0035250D03*
X0150800Y0037750D03*
X0150800Y0040250D03*
X0150800Y0042750D03*
X0150800Y0045250D03*
X0150800Y0047750D03*
X0150800Y0050250D03*
X0172200Y0050250D03*
X0172200Y0047750D03*
X0172200Y0045250D03*
X0172200Y0042750D03*
X0172200Y0040250D03*
X0172200Y0037750D03*
X0172200Y0035250D03*
X0172200Y0032750D03*
D17*
X0311500Y0031500D03*
X0311500Y0041500D03*
X0311500Y0021500D03*
D18*
X0170161Y0028500D03*
X0152839Y0028500D03*
D19*
X0152000Y0071000D03*
X0147000Y0071000D03*
X0157000Y0071000D03*
X0162000Y0071000D03*
X0167000Y0071000D03*
X0167000Y0076000D03*
X0162000Y0076000D03*
X0157000Y0076000D03*
X0152000Y0076000D03*
X0147000Y0076000D03*
D20*
X0069311Y0029500D03*
X0069311Y0024500D03*
X0069311Y0019500D03*
X0069311Y0014500D03*
X0045689Y0014500D03*
X0045689Y0019500D03*
X0045689Y0024500D03*
X0045689Y0029500D03*
D21*
X0227563Y0047563D03*
X0231500Y0047563D03*
X0235437Y0047563D03*
X0235437Y0051500D03*
X0231500Y0051500D03*
X0227563Y0051500D03*
X0227563Y0055437D03*
X0231500Y0055437D03*
X0235437Y0055437D03*
D22*
X0239767Y0054453D02*
X0241933Y0054453D01*
X0239767Y0054453D02*
X0239767Y0054453D01*
X0241933Y0054453D01*
X0241933Y0054453D01*
X0241933Y0056421D02*
X0239767Y0056421D01*
X0239767Y0056421D01*
X0241933Y0056421D01*
X0241933Y0056421D01*
X0241933Y0058390D02*
X0239767Y0058390D01*
X0239767Y0058390D01*
X0241933Y0058390D01*
X0241933Y0058390D01*
X0238390Y0059767D02*
X0238390Y0059767D01*
X0238390Y0061933D01*
X0238390Y0061933D01*
X0238390Y0059767D01*
X0238390Y0060947D02*
X0238390Y0060947D01*
X0236421Y0059767D02*
X0236421Y0059767D01*
X0236421Y0061933D01*
X0236421Y0061933D01*
X0236421Y0059767D01*
X0236421Y0060947D02*
X0236421Y0060947D01*
X0234453Y0059767D02*
X0234453Y0059767D01*
X0234453Y0061933D01*
X0234453Y0061933D01*
X0234453Y0059767D01*
X0234453Y0060947D02*
X0234453Y0060947D01*
X0232484Y0059767D02*
X0232484Y0059767D01*
X0232484Y0061933D01*
X0232484Y0061933D01*
X0232484Y0059767D01*
X0232484Y0060947D02*
X0232484Y0060947D01*
X0230516Y0059767D02*
X0230516Y0059767D01*
X0230516Y0061933D01*
X0230516Y0061933D01*
X0230516Y0059767D01*
X0230516Y0060947D02*
X0230516Y0060947D01*
X0228547Y0059767D02*
X0228547Y0059767D01*
X0228547Y0061933D01*
X0228547Y0061933D01*
X0228547Y0059767D01*
X0228547Y0060947D02*
X0228547Y0060947D01*
X0226579Y0059767D02*
X0226579Y0059767D01*
X0226579Y0061933D01*
X0226579Y0061933D01*
X0226579Y0059767D01*
X0226579Y0060947D02*
X0226579Y0060947D01*
X0224610Y0059767D02*
X0224610Y0059767D01*
X0224610Y0061933D01*
X0224610Y0061933D01*
X0224610Y0059767D01*
X0224610Y0060947D02*
X0224610Y0060947D01*
X0223233Y0058390D02*
X0221067Y0058390D01*
X0221067Y0058390D01*
X0223233Y0058390D01*
X0223233Y0058390D01*
X0223233Y0056421D02*
X0221067Y0056421D01*
X0221067Y0056421D01*
X0223233Y0056421D01*
X0223233Y0056421D01*
X0223233Y0054453D02*
X0221067Y0054453D01*
X0221067Y0054453D01*
X0223233Y0054453D01*
X0223233Y0054453D01*
X0223233Y0052484D02*
X0221067Y0052484D01*
X0221067Y0052484D01*
X0223233Y0052484D01*
X0223233Y0052484D01*
X0223233Y0050516D02*
X0221067Y0050516D01*
X0221067Y0050516D01*
X0223233Y0050516D01*
X0223233Y0050516D01*
X0223233Y0048547D02*
X0221067Y0048547D01*
X0221067Y0048547D01*
X0223233Y0048547D01*
X0223233Y0048547D01*
X0223233Y0046579D02*
X0221067Y0046579D01*
X0221067Y0046579D01*
X0223233Y0046579D01*
X0223233Y0046579D01*
X0223233Y0044610D02*
X0221067Y0044610D01*
X0221067Y0044610D01*
X0223233Y0044610D01*
X0223233Y0044610D01*
X0224610Y0041067D02*
X0224610Y0041067D01*
X0224610Y0043233D01*
X0224610Y0043233D01*
X0224610Y0041067D01*
X0224610Y0042247D02*
X0224610Y0042247D01*
X0226579Y0041067D02*
X0226579Y0041067D01*
X0226579Y0043233D01*
X0226579Y0043233D01*
X0226579Y0041067D01*
X0226579Y0042247D02*
X0226579Y0042247D01*
X0228547Y0041067D02*
X0228547Y0041067D01*
X0228547Y0043233D01*
X0228547Y0043233D01*
X0228547Y0041067D01*
X0228547Y0042247D02*
X0228547Y0042247D01*
X0230516Y0041067D02*
X0230516Y0041067D01*
X0230516Y0043233D01*
X0230516Y0043233D01*
X0230516Y0041067D01*
X0230516Y0042247D02*
X0230516Y0042247D01*
X0232484Y0041067D02*
X0232484Y0041067D01*
X0232484Y0043233D01*
X0232484Y0043233D01*
X0232484Y0041067D01*
X0232484Y0042247D02*
X0232484Y0042247D01*
X0234453Y0041067D02*
X0234453Y0041067D01*
X0234453Y0043233D01*
X0234453Y0043233D01*
X0234453Y0041067D01*
X0234453Y0042247D02*
X0234453Y0042247D01*
X0236421Y0041067D02*
X0236421Y0041067D01*
X0236421Y0043233D01*
X0236421Y0043233D01*
X0236421Y0041067D01*
X0236421Y0042247D02*
X0236421Y0042247D01*
X0238390Y0041067D02*
X0238390Y0041067D01*
X0238390Y0043233D01*
X0238390Y0043233D01*
X0238390Y0041067D01*
X0238390Y0042247D02*
X0238390Y0042247D01*
X0239767Y0044610D02*
X0241933Y0044610D01*
X0239767Y0044610D02*
X0239767Y0044610D01*
X0241933Y0044610D01*
X0241933Y0044610D01*
X0241933Y0046579D02*
X0239767Y0046579D01*
X0239767Y0046579D01*
X0241933Y0046579D01*
X0241933Y0046579D01*
X0241933Y0048547D02*
X0239767Y0048547D01*
X0239767Y0048547D01*
X0241933Y0048547D01*
X0241933Y0048547D01*
X0241933Y0050516D02*
X0239767Y0050516D01*
X0239767Y0050516D01*
X0241933Y0050516D01*
X0241933Y0050516D01*
X0241933Y0052484D02*
X0239767Y0052484D01*
X0239767Y0052484D01*
X0241933Y0052484D01*
X0241933Y0052484D01*
D23*
X0231500Y0051500D03*
D24*
G36*
X0138464Y0052374D02*
X0134289Y0048199D01*
X0133510Y0048978D01*
X0137685Y0053153D01*
X0138464Y0052374D01*
G37*
G36*
X0137072Y0053766D02*
X0132897Y0049591D01*
X0132118Y0050370D01*
X0136293Y0054545D01*
X0137072Y0053766D01*
G37*
G36*
X0135680Y0055158D02*
X0131505Y0050983D01*
X0130726Y0051762D01*
X0134901Y0055937D01*
X0135680Y0055158D01*
G37*
G36*
X0134288Y0056550D02*
X0130113Y0052375D01*
X0129334Y0053154D01*
X0133509Y0057329D01*
X0134288Y0056550D01*
G37*
G36*
X0132896Y0057942D02*
X0128721Y0053767D01*
X0127942Y0054546D01*
X0132117Y0058721D01*
X0132896Y0057942D01*
G37*
G36*
X0131504Y0059334D02*
X0127329Y0055159D01*
X0126550Y0055938D01*
X0130725Y0060113D01*
X0131504Y0059334D01*
G37*
G36*
X0130113Y0060725D02*
X0125938Y0056550D01*
X0125159Y0057329D01*
X0129334Y0061504D01*
X0130113Y0060725D01*
G37*
G36*
X0128721Y0062117D02*
X0124546Y0057942D01*
X0123767Y0058721D01*
X0127942Y0062896D01*
X0128721Y0062117D01*
G37*
G36*
X0127329Y0063509D02*
X0123154Y0059334D01*
X0122375Y0060113D01*
X0126550Y0064288D01*
X0127329Y0063509D01*
G37*
G36*
X0125937Y0064901D02*
X0121762Y0060726D01*
X0120983Y0061505D01*
X0125158Y0065680D01*
X0125937Y0064901D01*
G37*
G36*
X0124545Y0066293D02*
X0120370Y0062118D01*
X0119591Y0062897D01*
X0123766Y0067072D01*
X0124545Y0066293D01*
G37*
G36*
X0123153Y0067685D02*
X0118978Y0063510D01*
X0118199Y0064289D01*
X0122374Y0068464D01*
X0123153Y0067685D01*
G37*
G36*
X0110626Y0068464D02*
X0114801Y0064289D01*
X0114022Y0063510D01*
X0109847Y0067685D01*
X0110626Y0068464D01*
G37*
G36*
X0109234Y0067072D02*
X0113409Y0062897D01*
X0112630Y0062118D01*
X0108455Y0066293D01*
X0109234Y0067072D01*
G37*
G36*
X0107842Y0065680D02*
X0112017Y0061505D01*
X0111238Y0060726D01*
X0107063Y0064901D01*
X0107842Y0065680D01*
G37*
G36*
X0106450Y0064288D02*
X0110625Y0060113D01*
X0109846Y0059334D01*
X0105671Y0063509D01*
X0106450Y0064288D01*
G37*
G36*
X0105058Y0062896D02*
X0109233Y0058721D01*
X0108454Y0057942D01*
X0104279Y0062117D01*
X0105058Y0062896D01*
G37*
G36*
X0103666Y0061504D02*
X0107841Y0057329D01*
X0107062Y0056550D01*
X0102887Y0060725D01*
X0103666Y0061504D01*
G37*
G36*
X0102275Y0060113D02*
X0106450Y0055938D01*
X0105671Y0055159D01*
X0101496Y0059334D01*
X0102275Y0060113D01*
G37*
G36*
X0100883Y0058721D02*
X0105058Y0054546D01*
X0104279Y0053767D01*
X0100104Y0057942D01*
X0100883Y0058721D01*
G37*
G36*
X0099491Y0057329D02*
X0103666Y0053154D01*
X0102887Y0052375D01*
X0098712Y0056550D01*
X0099491Y0057329D01*
G37*
G36*
X0098099Y0055937D02*
X0102274Y0051762D01*
X0101495Y0050983D01*
X0097320Y0055158D01*
X0098099Y0055937D01*
G37*
G36*
X0096707Y0054545D02*
X0100882Y0050370D01*
X0100103Y0049591D01*
X0095928Y0053766D01*
X0096707Y0054545D01*
G37*
G36*
X0095315Y0053153D02*
X0099490Y0048978D01*
X0098711Y0048199D01*
X0094536Y0052374D01*
X0095315Y0053153D01*
G37*
G36*
X0094536Y0040626D02*
X0098711Y0044801D01*
X0099490Y0044022D01*
X0095315Y0039847D01*
X0094536Y0040626D01*
G37*
G36*
X0095928Y0039234D02*
X0100103Y0043409D01*
X0100882Y0042630D01*
X0096707Y0038455D01*
X0095928Y0039234D01*
G37*
G36*
X0097320Y0037842D02*
X0101495Y0042017D01*
X0102274Y0041238D01*
X0098099Y0037063D01*
X0097320Y0037842D01*
G37*
G36*
X0098712Y0036450D02*
X0102887Y0040625D01*
X0103666Y0039846D01*
X0099491Y0035671D01*
X0098712Y0036450D01*
G37*
G36*
X0100104Y0035058D02*
X0104279Y0039233D01*
X0105058Y0038454D01*
X0100883Y0034279D01*
X0100104Y0035058D01*
G37*
G36*
X0101496Y0033666D02*
X0105671Y0037841D01*
X0106450Y0037062D01*
X0102275Y0032887D01*
X0101496Y0033666D01*
G37*
G36*
X0102887Y0032275D02*
X0107062Y0036450D01*
X0107841Y0035671D01*
X0103666Y0031496D01*
X0102887Y0032275D01*
G37*
G36*
X0104279Y0030883D02*
X0108454Y0035058D01*
X0109233Y0034279D01*
X0105058Y0030104D01*
X0104279Y0030883D01*
G37*
G36*
X0105671Y0029491D02*
X0109846Y0033666D01*
X0110625Y0032887D01*
X0106450Y0028712D01*
X0105671Y0029491D01*
G37*
G36*
X0107063Y0028099D02*
X0111238Y0032274D01*
X0112017Y0031495D01*
X0107842Y0027320D01*
X0107063Y0028099D01*
G37*
G36*
X0108455Y0026707D02*
X0112630Y0030882D01*
X0113409Y0030103D01*
X0109234Y0025928D01*
X0108455Y0026707D01*
G37*
G36*
X0109847Y0025315D02*
X0114022Y0029490D01*
X0114801Y0028711D01*
X0110626Y0024536D01*
X0109847Y0025315D01*
G37*
G36*
X0122374Y0024536D02*
X0118199Y0028711D01*
X0118978Y0029490D01*
X0123153Y0025315D01*
X0122374Y0024536D01*
G37*
G36*
X0123766Y0025928D02*
X0119591Y0030103D01*
X0120370Y0030882D01*
X0124545Y0026707D01*
X0123766Y0025928D01*
G37*
G36*
X0125158Y0027320D02*
X0120983Y0031495D01*
X0121762Y0032274D01*
X0125937Y0028099D01*
X0125158Y0027320D01*
G37*
G36*
X0126550Y0028712D02*
X0122375Y0032887D01*
X0123154Y0033666D01*
X0127329Y0029491D01*
X0126550Y0028712D01*
G37*
G36*
X0127942Y0030104D02*
X0123767Y0034279D01*
X0124546Y0035058D01*
X0128721Y0030883D01*
X0127942Y0030104D01*
G37*
G36*
X0129334Y0031496D02*
X0125159Y0035671D01*
X0125938Y0036450D01*
X0130113Y0032275D01*
X0129334Y0031496D01*
G37*
G36*
X0130725Y0032887D02*
X0126550Y0037062D01*
X0127329Y0037841D01*
X0131504Y0033666D01*
X0130725Y0032887D01*
G37*
G36*
X0132117Y0034279D02*
X0127942Y0038454D01*
X0128721Y0039233D01*
X0132896Y0035058D01*
X0132117Y0034279D01*
G37*
G36*
X0133509Y0035671D02*
X0129334Y0039846D01*
X0130113Y0040625D01*
X0134288Y0036450D01*
X0133509Y0035671D01*
G37*
G36*
X0134901Y0037063D02*
X0130726Y0041238D01*
X0131505Y0042017D01*
X0135680Y0037842D01*
X0134901Y0037063D01*
G37*
G36*
X0136293Y0038455D02*
X0132118Y0042630D01*
X0132897Y0043409D01*
X0137072Y0039234D01*
X0136293Y0038455D01*
G37*
G36*
X0137685Y0039847D02*
X0133510Y0044022D01*
X0134289Y0044801D01*
X0138464Y0040626D01*
X0137685Y0039847D01*
G37*
D25*
X0051619Y0057760D03*
X0041381Y0057760D03*
X0041381Y0061500D03*
X0041381Y0065240D03*
X0051619Y0065240D03*
D26*
G36*
X0088633Y0038376D02*
X0091416Y0035593D01*
X0086407Y0030584D01*
X0083624Y0033367D01*
X0088633Y0038376D01*
G37*
G36*
X0095593Y0031416D02*
X0098376Y0028633D01*
X0093367Y0023624D01*
X0090584Y0026407D01*
X0095593Y0031416D01*
G37*
D27*
X0189217Y0068472D03*
X0203783Y0068472D03*
X0203783Y0077528D03*
X0189217Y0077528D03*
D28*
X0308500Y0069000D03*
X0019000Y0069000D03*
D29*
X0041622Y0065000D02*
X0045000Y0065000D01*
X0046500Y0063500D01*
X0046500Y0059000D01*
X0045260Y0057760D01*
X0042510Y0057760D01*
X0040988Y0058154D02*
X0034346Y0054000D01*
X0051619Y0065240D02*
X0053859Y0063000D01*
X0056500Y0063000D01*
X0045689Y0014500D02*
X0045630Y0014441D01*
X0039500Y0014441D01*
D30*
X0039559Y0019500D02*
X0045689Y0019500D01*
X0039559Y0019500D02*
X0039500Y0019559D01*
X0053441Y0031500D02*
X0054941Y0033000D01*
X0059059Y0041500D02*
X0059059Y0047500D01*
X0053941Y0047500D02*
X0052770Y0047500D01*
X0042510Y0057760D02*
X0041381Y0057760D01*
X0040988Y0058154D01*
X0041622Y0065000D02*
X0041381Y0065240D01*
X0095310Y0061690D02*
X0095700Y0061690D01*
X0098810Y0062799D02*
X0098810Y0065190D01*
X0098810Y0062799D02*
X0103973Y0057636D01*
X0139324Y0042324D02*
X0147000Y0050000D01*
X0150550Y0050000D01*
X0150800Y0050250D01*
X0150800Y0047750D02*
X0148750Y0047750D01*
X0139000Y0038000D01*
X0137527Y0038000D01*
X0134595Y0040932D01*
X0135987Y0042324D02*
X0139324Y0042324D01*
X0119756Y0033500D02*
X0119500Y0033500D01*
X0120676Y0027013D02*
X0121000Y0026689D01*
X0129500Y0026540D02*
X0129500Y0026500D01*
X0126500Y0024000D02*
X0126473Y0024000D01*
X0144000Y0033059D02*
X0144309Y0032750D01*
X0150800Y0032750D01*
X0172200Y0032750D02*
X0172450Y0032500D01*
X0175500Y0032500D01*
X0177059Y0034059D01*
X0180000Y0034059D01*
X0180000Y0028941D02*
X0178000Y0021559D01*
X0096099Y0027520D02*
X0094480Y0027520D01*
X0089168Y0034480D02*
X0087520Y0034480D01*
D31*
X0008500Y0013500D02*
X0008500Y0059726D01*
X0008614Y0059587D01*
X0009587Y0058614D01*
X0010650Y0057742D01*
X0011794Y0056977D01*
X0013007Y0056329D01*
X0014278Y0055802D01*
X0015594Y0055403D01*
X0016943Y0055135D01*
X0018312Y0055000D01*
X0018500Y0055000D01*
X0018500Y0068500D01*
X0019500Y0068500D01*
X0019500Y0069500D01*
X0033000Y0069500D01*
X0033000Y0069688D01*
X0032865Y0071057D01*
X0032597Y0072406D01*
X0032198Y0073722D01*
X0031671Y0074993D01*
X0031023Y0076206D01*
X0030258Y0077350D01*
X0029386Y0078413D01*
X0028413Y0079386D01*
X0028029Y0079701D01*
X0122438Y0079701D01*
X0116400Y0073663D01*
X0116400Y0068663D01*
X0114900Y0067163D01*
X0114900Y0065746D01*
X0111082Y0069565D01*
X0111009Y0069565D01*
X0109600Y0070974D01*
X0109600Y0075504D01*
X0110189Y0076093D01*
X0110189Y0077907D01*
X0108907Y0079189D01*
X0107093Y0079189D01*
X0105811Y0077907D01*
X0105811Y0076093D01*
X0106400Y0075504D01*
X0106400Y0071100D01*
X0102996Y0071100D01*
X0102407Y0071689D01*
X0100593Y0071689D01*
X0099311Y0070407D01*
X0099311Y0068593D01*
X0099387Y0068518D01*
X0098818Y0068518D01*
X0098918Y0068890D01*
X0098918Y0069285D01*
X0098815Y0069667D01*
X0098618Y0070009D01*
X0097637Y0070989D01*
X0095458Y0068810D01*
X0095191Y0069077D01*
X0097370Y0071257D01*
X0096390Y0072237D01*
X0096048Y0072434D01*
X0095666Y0072537D01*
X0095271Y0072537D01*
X0094890Y0072434D01*
X0094548Y0072237D01*
X0093289Y0070978D01*
X0095190Y0069077D01*
X0094923Y0068810D01*
X0093022Y0070711D01*
X0091763Y0069452D01*
X0091566Y0069110D01*
X0091528Y0068972D01*
X0091390Y0068934D01*
X0091048Y0068737D01*
X0089789Y0067478D01*
X0091690Y0065577D01*
X0091423Y0065310D01*
X0089522Y0067211D01*
X0088263Y0065952D01*
X0088066Y0065610D01*
X0087963Y0065229D01*
X0087963Y0064834D01*
X0088066Y0064452D01*
X0088263Y0064110D01*
X0089243Y0063130D01*
X0091423Y0065309D01*
X0091690Y0065042D01*
X0089511Y0062862D01*
X0090491Y0061882D01*
X0090607Y0061815D01*
X0088571Y0061833D01*
X0083858Y0066546D01*
X0064568Y0066546D01*
X0064568Y0067467D01*
X0063924Y0068112D01*
X0059076Y0068112D01*
X0058431Y0067467D01*
X0058431Y0066446D01*
X0055081Y0066446D01*
X0055081Y0066778D01*
X0054436Y0067423D01*
X0053689Y0067423D01*
X0053689Y0068907D01*
X0052407Y0070189D01*
X0050593Y0070189D01*
X0049311Y0068907D01*
X0049311Y0067423D01*
X0048801Y0067423D01*
X0048156Y0066778D01*
X0048156Y0064531D01*
X0045787Y0066900D01*
X0044722Y0066900D01*
X0044199Y0067423D01*
X0038564Y0067423D01*
X0037919Y0066778D01*
X0037919Y0063702D01*
X0037968Y0063653D01*
X0037819Y0063504D01*
X0037622Y0063162D01*
X0037519Y0062780D01*
X0037519Y0061541D01*
X0041340Y0061541D01*
X0041340Y0061459D01*
X0037519Y0061459D01*
X0037519Y0060220D01*
X0037622Y0059838D01*
X0037819Y0059496D01*
X0037968Y0059347D01*
X0037919Y0059298D01*
X0037919Y0058475D01*
X0035670Y0057068D01*
X0031725Y0057068D01*
X0031212Y0056555D01*
X0031019Y0056890D01*
X0030740Y0057169D01*
X0030398Y0057366D01*
X0030016Y0057468D01*
X0028138Y0057468D01*
X0028138Y0054484D01*
X0027169Y0054484D01*
X0027169Y0053516D01*
X0023988Y0053516D01*
X0023988Y0051834D01*
X0024090Y0051453D01*
X0024288Y0051110D01*
X0024567Y0050831D01*
X0024909Y0050634D01*
X0025291Y0050531D01*
X0027169Y0050531D01*
X0027169Y0053516D01*
X0028138Y0053516D01*
X0028138Y0050531D01*
X0030016Y0050531D01*
X0030398Y0050634D01*
X0030740Y0050831D01*
X0031019Y0051110D01*
X0031212Y0051445D01*
X0031725Y0050931D01*
X0036613Y0050931D01*
X0035882Y0050200D01*
X0033463Y0050200D01*
X0032471Y0049789D01*
X0031711Y0049029D01*
X0031300Y0048037D01*
X0031300Y0046963D01*
X0031699Y0046000D01*
X0031300Y0045037D01*
X0031300Y0043963D01*
X0031711Y0042971D01*
X0032471Y0042211D01*
X0033463Y0041800D01*
X0037537Y0041800D01*
X0038529Y0042211D01*
X0039289Y0042971D01*
X0039700Y0043963D01*
X0039700Y0046382D01*
X0042029Y0048711D01*
X0042789Y0049471D01*
X0043200Y0050463D01*
X0043200Y0054807D01*
X0051463Y0046544D01*
X0051463Y0045273D01*
X0052049Y0044687D01*
X0051984Y0044669D01*
X0051642Y0044472D01*
X0051363Y0044193D01*
X0051165Y0043851D01*
X0051063Y0043469D01*
X0051063Y0041689D01*
X0053752Y0041689D01*
X0053752Y0041311D01*
X0054130Y0041311D01*
X0054130Y0038228D01*
X0055516Y0038228D01*
X0055898Y0038331D01*
X0056240Y0038528D01*
X0056519Y0038807D01*
X0056712Y0039142D01*
X0057225Y0038628D01*
X0060533Y0038628D01*
X0059584Y0037679D01*
X0059163Y0038100D01*
X0043837Y0038100D01*
X0039837Y0034100D01*
X0038900Y0033163D01*
X0038900Y0022037D01*
X0037273Y0022037D01*
X0036628Y0021393D01*
X0036628Y0017725D01*
X0037142Y0017212D01*
X0036807Y0017019D01*
X0036528Y0016740D01*
X0036331Y0016398D01*
X0036228Y0016016D01*
X0036228Y0014630D01*
X0039311Y0014630D01*
X0039311Y0014252D01*
X0036228Y0014252D01*
X0036228Y0013500D01*
X0008500Y0013500D01*
X0008500Y0014287D02*
X0039311Y0014287D01*
X0039500Y0014441D02*
X0038941Y0015000D01*
X0035000Y0015000D01*
X0034000Y0016000D01*
X0034000Y0021227D01*
X0033727Y0021500D01*
X0031500Y0021500D01*
X0031500Y0024000D01*
X0034000Y0024000D01*
X0036500Y0024000D01*
X0038900Y0024272D02*
X0008500Y0024272D01*
X0008500Y0023274D02*
X0038900Y0023274D01*
X0038900Y0022275D02*
X0008500Y0022275D01*
X0008500Y0021277D02*
X0036628Y0021277D01*
X0036628Y0020278D02*
X0008500Y0020278D01*
X0008500Y0019280D02*
X0036628Y0019280D01*
X0036628Y0018281D02*
X0008500Y0018281D01*
X0008500Y0017283D02*
X0037071Y0017283D01*
X0036300Y0016284D02*
X0008500Y0016284D01*
X0008500Y0015286D02*
X0036228Y0015286D01*
X0039689Y0014630D02*
X0041689Y0014630D01*
X0041689Y0014625D01*
X0045564Y0014625D01*
X0045564Y0014375D01*
X0041689Y0014375D01*
X0041689Y0014252D01*
X0039689Y0014252D01*
X0039689Y0014630D01*
X0039689Y0014287D02*
X0041689Y0014287D01*
X0045814Y0014375D02*
X0045814Y0014625D01*
X0049689Y0014625D01*
X0049689Y0015947D01*
X0049587Y0016329D01*
X0049389Y0016671D01*
X0049110Y0016950D01*
X0048768Y0017148D01*
X0048669Y0017174D01*
X0049289Y0017794D01*
X0049289Y0021206D01*
X0048645Y0021850D01*
X0042733Y0021850D01*
X0042324Y0021440D01*
X0042100Y0021664D01*
X0042100Y0022783D01*
X0042733Y0022150D01*
X0048645Y0022150D01*
X0049289Y0022794D01*
X0049289Y0022900D01*
X0062163Y0022900D01*
X0063074Y0023811D01*
X0063907Y0023811D01*
X0065189Y0025093D01*
X0065189Y0026907D01*
X0063907Y0028189D01*
X0062093Y0028189D01*
X0060811Y0026907D01*
X0060811Y0026100D01*
X0049289Y0026100D01*
X0049289Y0026206D01*
X0048645Y0026850D01*
X0042733Y0026850D01*
X0042100Y0026217D01*
X0042100Y0027783D01*
X0042733Y0027150D01*
X0048645Y0027150D01*
X0049289Y0027794D01*
X0049289Y0027900D01*
X0050163Y0027900D01*
X0051574Y0029311D01*
X0052407Y0029311D01*
X0052996Y0029900D01*
X0054104Y0029900D01*
X0054332Y0030128D01*
X0056775Y0030128D01*
X0057419Y0030773D01*
X0057419Y0034900D01*
X0057581Y0034900D01*
X0057581Y0030773D01*
X0058225Y0030128D01*
X0061893Y0030128D01*
X0062537Y0030773D01*
X0062537Y0031400D01*
X0065905Y0031400D01*
X0065711Y0031206D01*
X0065711Y0027794D01*
X0066355Y0027150D01*
X0067711Y0027150D01*
X0067711Y0026850D01*
X0066355Y0026850D01*
X0065711Y0026206D01*
X0065711Y0022794D01*
X0066355Y0022150D01*
X0072267Y0022150D01*
X0072911Y0022794D01*
X0072911Y0026206D01*
X0072267Y0026850D01*
X0070911Y0026850D01*
X0070911Y0027150D01*
X0072267Y0027150D01*
X0072911Y0027794D01*
X0072911Y0031206D01*
X0072267Y0031850D01*
X0070911Y0031850D01*
X0070911Y0031852D01*
X0069100Y0033663D01*
X0068163Y0034600D01*
X0062696Y0034600D01*
X0063689Y0035593D01*
X0063689Y0037407D01*
X0062407Y0038689D01*
X0060953Y0038689D01*
X0061537Y0039273D01*
X0061537Y0043727D01*
X0060893Y0044372D01*
X0060459Y0044372D01*
X0060459Y0044628D01*
X0060893Y0044628D01*
X0061537Y0045273D01*
X0061537Y0045900D01*
X0064109Y0045900D01*
X0064143Y0045869D01*
X0064765Y0045900D01*
X0065248Y0045900D01*
X0065248Y0042959D01*
X0066452Y0040053D01*
X0068675Y0037830D01*
X0071581Y0036626D01*
X0074726Y0036626D01*
X0077632Y0037830D01*
X0079855Y0040053D01*
X0081059Y0042959D01*
X0081059Y0046104D01*
X0079855Y0049010D01*
X0079789Y0049076D01*
X0096278Y0049076D01*
X0098255Y0047098D01*
X0099167Y0047098D01*
X0100590Y0048522D01*
X0100811Y0048743D01*
X0100811Y0048093D01*
X0102093Y0046811D01*
X0103907Y0046811D01*
X0105189Y0048093D01*
X0105189Y0049900D01*
X0111663Y0049900D01*
X0112600Y0050837D01*
X0117163Y0055400D01*
X0118100Y0056337D01*
X0118100Y0062663D01*
X0118192Y0062318D01*
X0118390Y0061976D01*
X0118919Y0061447D01*
X0122068Y0064595D01*
X0118919Y0061447D01*
X0119449Y0060917D01*
X0119791Y0060720D01*
X0120172Y0060618D01*
X0120314Y0060618D01*
X0121274Y0059658D01*
X0121274Y0059658D01*
X0122698Y0058234D01*
X0124090Y0056842D01*
X0125482Y0055450D01*
X0126874Y0054058D01*
X0128266Y0052666D01*
X0129658Y0051274D01*
X0131049Y0049882D01*
X0132441Y0048490D01*
X0133833Y0047098D01*
X0134745Y0047098D01*
X0136722Y0049076D01*
X0137828Y0049076D01*
X0139093Y0047811D01*
X0140907Y0047811D01*
X0142189Y0049093D01*
X0142189Y0050907D01*
X0140907Y0052189D01*
X0140074Y0052189D01*
X0139987Y0052276D01*
X0139565Y0052276D01*
X0139565Y0052830D01*
X0138994Y0053400D01*
X0185421Y0053400D01*
X0187400Y0051751D01*
X0187400Y0042996D01*
X0186811Y0042407D01*
X0186811Y0040593D01*
X0188093Y0039311D01*
X0189907Y0039311D01*
X0191189Y0040593D01*
X0191189Y0042407D01*
X0190600Y0042996D01*
X0190600Y0051921D01*
X0190653Y0051985D01*
X0190600Y0052573D01*
X0190600Y0053163D01*
X0190541Y0053222D01*
X0190533Y0053305D01*
X0190080Y0053683D01*
X0189663Y0054100D01*
X0189579Y0054100D01*
X0187080Y0056183D01*
X0186863Y0056400D01*
X0190337Y0056400D01*
X0192900Y0053837D01*
X0192900Y0044837D01*
X0205278Y0032459D01*
X0208128Y0032459D01*
X0208128Y0032225D01*
X0208642Y0031712D01*
X0208307Y0031519D01*
X0208028Y0031240D01*
X0207831Y0030898D01*
X0207728Y0030516D01*
X0207728Y0029130D01*
X0210811Y0029130D01*
X0210811Y0028752D01*
X0207728Y0028752D01*
X0207728Y0027366D01*
X0207831Y0026984D01*
X0208028Y0026642D01*
X0208307Y0026363D01*
X0208649Y0026165D01*
X0209031Y0026063D01*
X0210811Y0026063D01*
X0210811Y0028752D01*
X0211189Y0028752D01*
X0211189Y0029130D01*
X0214272Y0029130D01*
X0214272Y0030516D01*
X0214169Y0030898D01*
X0213972Y0031240D01*
X0213693Y0031519D01*
X0213358Y0031712D01*
X0213872Y0032225D01*
X0213872Y0032459D01*
X0216277Y0032459D01*
X0216718Y0032900D01*
X0223503Y0032900D01*
X0222239Y0031557D01*
X0220273Y0031557D01*
X0219628Y0030912D01*
X0219628Y0030383D01*
X0218257Y0030383D01*
X0217635Y0030415D01*
X0217601Y0030383D01*
X0217554Y0030383D01*
X0217114Y0029943D01*
X0216652Y0029526D01*
X0216650Y0029479D01*
X0216617Y0029446D01*
X0216617Y0028824D01*
X0216477Y0026073D01*
X0215811Y0025407D01*
X0215811Y0023593D01*
X0217093Y0022311D01*
X0218907Y0022311D01*
X0219228Y0022633D01*
X0219228Y0022346D01*
X0219331Y0021964D01*
X0219528Y0021622D01*
X0219807Y0021343D01*
X0220149Y0021146D01*
X0220531Y0021043D01*
X0222163Y0021043D01*
X0222163Y0023880D01*
X0222837Y0023880D01*
X0222837Y0021043D01*
X0224311Y0021043D01*
X0224311Y0020253D01*
X0225593Y0018971D01*
X0227407Y0018971D01*
X0228689Y0020253D01*
X0228689Y0021043D01*
X0229663Y0021043D01*
X0229663Y0023880D01*
X0230337Y0023880D01*
X0230337Y0024553D01*
X0231728Y0024553D01*
X0231728Y0024130D01*
X0234811Y0024130D01*
X0234811Y0023752D01*
X0233272Y0023752D01*
X0233272Y0023880D01*
X0230337Y0023880D01*
X0230337Y0021043D01*
X0231969Y0021043D01*
X0232351Y0021146D01*
X0232517Y0021242D01*
X0232649Y0021165D01*
X0233031Y0021063D01*
X0234811Y0021063D01*
X0234811Y0023752D01*
X0235189Y0023752D01*
X0235189Y0024130D01*
X0238272Y0024130D01*
X0238272Y0024553D01*
X0239663Y0024553D01*
X0239663Y0023880D01*
X0236728Y0023880D01*
X0236728Y0023752D01*
X0235189Y0023752D01*
X0235189Y0021063D01*
X0236969Y0021063D01*
X0237351Y0021165D01*
X0237483Y0021242D01*
X0237649Y0021146D01*
X0238031Y0021043D01*
X0239663Y0021043D01*
X0239663Y0023880D01*
X0240337Y0023880D01*
X0240337Y0024553D01*
X0243272Y0024553D01*
X0243272Y0026087D01*
X0243169Y0026469D01*
X0242972Y0026811D01*
X0242872Y0026911D01*
X0242872Y0030109D01*
X0243163Y0030400D01*
X0243628Y0030866D01*
X0243628Y0028107D01*
X0244273Y0027463D01*
X0244900Y0027463D01*
X0244900Y0026037D01*
X0244273Y0026037D01*
X0243628Y0025393D01*
X0243628Y0021725D01*
X0244273Y0021081D01*
X0248702Y0021081D01*
X0248783Y0021000D01*
X0248702Y0020919D01*
X0244273Y0020919D01*
X0243628Y0020275D01*
X0243628Y0019100D01*
X0243057Y0019100D01*
X0243057Y0019727D01*
X0242412Y0020372D01*
X0238411Y0020372D01*
X0238311Y0020472D01*
X0237969Y0020669D01*
X0237587Y0020772D01*
X0236053Y0020772D01*
X0236053Y0017837D01*
X0235380Y0017837D01*
X0235380Y0020772D01*
X0233846Y0020772D01*
X0233464Y0020669D01*
X0233122Y0020472D01*
X0232843Y0020193D01*
X0232646Y0019851D01*
X0232543Y0019469D01*
X0232543Y0017837D01*
X0235380Y0017837D01*
X0235380Y0017163D01*
X0236053Y0017163D01*
X0236053Y0014228D01*
X0237587Y0014228D01*
X0237969Y0014331D01*
X0238311Y0014528D01*
X0238411Y0014628D01*
X0242412Y0014628D01*
X0243057Y0015273D01*
X0243057Y0015900D01*
X0246337Y0015900D01*
X0246811Y0015426D01*
X0246811Y0014593D01*
X0247904Y0013500D01*
X0147174Y0013500D01*
X0147272Y0013866D01*
X0147272Y0015252D01*
X0144189Y0015252D01*
X0144189Y0015630D01*
X0147272Y0015630D01*
X0147272Y0017016D01*
X0147169Y0017398D01*
X0146972Y0017740D01*
X0146693Y0018019D01*
X0146358Y0018212D01*
X0146872Y0018725D01*
X0146872Y0022393D01*
X0146227Y0023037D01*
X0145600Y0023037D01*
X0145600Y0025463D01*
X0146227Y0025463D01*
X0146872Y0026107D01*
X0146872Y0029775D01*
X0146227Y0030419D01*
X0141773Y0030419D01*
X0141128Y0029775D01*
X0141128Y0029600D01*
X0139996Y0029600D01*
X0139407Y0030189D01*
X0137593Y0030189D01*
X0136311Y0028907D01*
X0136311Y0027093D01*
X0137593Y0025811D01*
X0139407Y0025811D01*
X0139996Y0026400D01*
X0141128Y0026400D01*
X0141128Y0026107D01*
X0141773Y0025463D01*
X0142400Y0025463D01*
X0142400Y0023037D01*
X0141773Y0023037D01*
X0141128Y0022393D01*
X0141128Y0018725D01*
X0141642Y0018212D01*
X0141307Y0018019D01*
X0141028Y0017740D01*
X0140831Y0017398D01*
X0140728Y0017016D01*
X0140728Y0015630D01*
X0143811Y0015630D01*
X0143811Y0015252D01*
X0140728Y0015252D01*
X0140728Y0013866D01*
X0140826Y0013500D01*
X0112096Y0013500D01*
X0112189Y0013593D01*
X0112189Y0015407D01*
X0111142Y0016453D01*
X0112211Y0017522D01*
X0110310Y0019423D01*
X0110577Y0019690D01*
X0112478Y0017789D01*
X0113737Y0019048D01*
X0113934Y0019390D01*
X0114037Y0019771D01*
X0114037Y0020166D01*
X0113934Y0020548D01*
X0113737Y0020890D01*
X0112757Y0021870D01*
X0110577Y0019691D01*
X0110310Y0019958D01*
X0112489Y0022137D01*
X0111509Y0023118D01*
X0111167Y0023315D01*
X0110785Y0023418D01*
X0110390Y0023418D01*
X0110018Y0023318D01*
X0110018Y0023588D01*
X0110170Y0023435D01*
X0111082Y0023435D01*
X0115902Y0028255D01*
X0115902Y0029167D01*
X0114478Y0030590D01*
X0113086Y0031982D01*
X0111726Y0033342D01*
X0111726Y0033342D01*
X0110302Y0034766D01*
X0108910Y0036158D01*
X0107518Y0037550D01*
X0106558Y0038510D01*
X0106558Y0038652D01*
X0106456Y0039034D01*
X0106259Y0039376D01*
X0105729Y0039905D01*
X0105200Y0040434D01*
X0104858Y0040632D01*
X0104476Y0040734D01*
X0104334Y0040734D01*
X0103342Y0041726D01*
X0101950Y0043118D01*
X0100559Y0044510D01*
X0099167Y0045902D01*
X0098255Y0045902D01*
X0093435Y0041082D01*
X0093435Y0041009D01*
X0090496Y0038070D01*
X0089089Y0039477D01*
X0088178Y0039477D01*
X0088162Y0039461D01*
X0085487Y0042137D01*
X0084575Y0042137D01*
X0081982Y0039544D01*
X0081982Y0038818D01*
X0081610Y0038918D01*
X0081215Y0038918D01*
X0080833Y0038815D01*
X0080491Y0038618D01*
X0079511Y0037637D01*
X0081690Y0035458D01*
X0081423Y0035191D01*
X0079243Y0037370D01*
X0078263Y0036390D01*
X0078066Y0036048D01*
X0077963Y0035666D01*
X0077963Y0035271D01*
X0078066Y0034890D01*
X0078263Y0034548D01*
X0079522Y0033289D01*
X0081423Y0035190D01*
X0081690Y0034923D01*
X0079789Y0033022D01*
X0081048Y0031763D01*
X0081390Y0031566D01*
X0081771Y0031463D01*
X0082166Y0031463D01*
X0082548Y0031566D01*
X0082890Y0031763D01*
X0083280Y0032153D01*
X0085951Y0029482D01*
X0086862Y0029482D01*
X0092518Y0035138D01*
X0092518Y0035566D01*
X0092880Y0035928D01*
X0092880Y0030260D01*
X0089482Y0026862D01*
X0089482Y0025951D01*
X0092153Y0023280D01*
X0091263Y0022390D01*
X0091066Y0022048D01*
X0090963Y0021666D01*
X0090963Y0021271D01*
X0091066Y0020890D01*
X0091263Y0020548D01*
X0092522Y0019289D01*
X0094423Y0021190D01*
X0094690Y0020923D01*
X0092789Y0019022D01*
X0094048Y0017763D01*
X0094390Y0017566D01*
X0094771Y0017463D01*
X0095166Y0017463D01*
X0095548Y0017566D01*
X0095890Y0017763D01*
X0096870Y0018743D01*
X0094691Y0020923D01*
X0094958Y0021190D01*
X0097137Y0019011D01*
X0097394Y0019267D01*
X0100317Y0016343D01*
X0101229Y0016343D01*
X0104657Y0019771D01*
X0104657Y0020683D01*
X0104262Y0021078D01*
X0104605Y0021334D01*
X0105956Y0019982D01*
X0106682Y0019982D01*
X0106582Y0019610D01*
X0106582Y0019215D01*
X0106685Y0018833D01*
X0106882Y0018491D01*
X0107862Y0017511D01*
X0110042Y0019690D01*
X0110309Y0019423D01*
X0108130Y0017243D01*
X0108889Y0016484D01*
X0108872Y0016468D01*
X0105683Y0019657D01*
X0104771Y0019657D01*
X0101343Y0016229D01*
X0101343Y0015317D01*
X0103160Y0013500D01*
X0074763Y0013500D01*
X0082074Y0020811D01*
X0082907Y0020811D01*
X0084189Y0022093D01*
X0084189Y0023907D01*
X0082907Y0025189D01*
X0082189Y0025189D01*
X0082189Y0026907D01*
X0080907Y0028189D01*
X0079093Y0028189D01*
X0077811Y0026907D01*
X0077811Y0026074D01*
X0072911Y0021174D01*
X0072911Y0021206D01*
X0072267Y0021850D01*
X0066355Y0021850D01*
X0065711Y0021206D01*
X0065711Y0017794D01*
X0066355Y0017150D01*
X0072267Y0017150D01*
X0072911Y0017794D01*
X0072911Y0017900D01*
X0074163Y0017900D01*
X0079811Y0023548D01*
X0079811Y0023074D01*
X0072911Y0016174D01*
X0072911Y0016206D01*
X0072267Y0016850D01*
X0066355Y0016850D01*
X0065711Y0016206D01*
X0065711Y0013500D01*
X0049689Y0013500D01*
X0049689Y0014375D01*
X0045814Y0014375D01*
X0049689Y0014287D02*
X0065711Y0014287D01*
X0065711Y0015286D02*
X0049689Y0015286D01*
X0049599Y0016284D02*
X0065790Y0016284D01*
X0066223Y0017283D02*
X0048777Y0017283D01*
X0049289Y0018281D02*
X0065711Y0018281D01*
X0065711Y0019280D02*
X0049289Y0019280D01*
X0049289Y0020278D02*
X0065711Y0020278D01*
X0065782Y0021277D02*
X0049218Y0021277D01*
X0048770Y0022275D02*
X0066230Y0022275D01*
X0065711Y0023274D02*
X0062536Y0023274D01*
X0064368Y0024272D02*
X0065711Y0024272D01*
X0065711Y0025271D02*
X0065189Y0025271D01*
X0065189Y0026269D02*
X0065775Y0026269D01*
X0066238Y0027268D02*
X0064828Y0027268D01*
X0065711Y0028266D02*
X0050529Y0028266D01*
X0051528Y0029265D02*
X0065711Y0029265D01*
X0065711Y0030263D02*
X0062028Y0030263D01*
X0062537Y0031262D02*
X0065767Y0031262D01*
X0067500Y0033000D02*
X0069311Y0031189D01*
X0069311Y0029500D01*
X0069311Y0024500D01*
X0072911Y0024272D02*
X0076010Y0024272D01*
X0077008Y0025271D02*
X0072911Y0025271D01*
X0072847Y0026269D02*
X0077811Y0026269D01*
X0078172Y0027268D02*
X0072384Y0027268D01*
X0072911Y0028266D02*
X0090886Y0028266D01*
X0089888Y0027268D02*
X0081828Y0027268D01*
X0082189Y0026269D02*
X0089482Y0026269D01*
X0090163Y0025271D02*
X0082189Y0025271D01*
X0083823Y0024272D02*
X0091161Y0024272D01*
X0092147Y0023274D02*
X0084189Y0023274D01*
X0084189Y0022275D02*
X0091197Y0022275D01*
X0090963Y0021277D02*
X0083372Y0021277D01*
X0081541Y0020278D02*
X0091533Y0020278D01*
X0093047Y0019280D02*
X0080542Y0019280D01*
X0079544Y0018281D02*
X0093530Y0018281D01*
X0094690Y0016810D02*
X0094690Y0021190D01*
X0092810Y0021690D01*
X0082000Y0032500D01*
X0082000Y0035000D01*
X0081690Y0035190D01*
X0081381Y0036000D01*
X0077000Y0036000D01*
X0078185Y0036254D02*
X0063689Y0036254D01*
X0063352Y0035256D02*
X0077968Y0035256D01*
X0078554Y0034257D02*
X0068505Y0034257D01*
X0069504Y0033259D02*
X0080026Y0033259D01*
X0080490Y0034257D02*
X0081025Y0034257D01*
X0081691Y0034923D02*
X0082657Y0033956D01*
X0082924Y0034224D01*
X0081958Y0035190D01*
X0081691Y0034923D01*
X0081488Y0035256D02*
X0081358Y0035256D01*
X0080894Y0036254D02*
X0080359Y0036254D01*
X0085810Y0036190D02*
X0085310Y0038810D01*
X0081982Y0039250D02*
X0079052Y0039250D01*
X0079936Y0040248D02*
X0082687Y0040248D01*
X0083686Y0041247D02*
X0080350Y0041247D01*
X0080763Y0042245D02*
X0094599Y0042245D01*
X0093600Y0041247D02*
X0086376Y0041247D01*
X0087375Y0040248D02*
X0092674Y0040248D01*
X0091676Y0039250D02*
X0089317Y0039250D01*
X0090315Y0038251D02*
X0090677Y0038251D01*
X0094480Y0037007D02*
X0098405Y0040932D01*
X0097013Y0042324D02*
X0089168Y0034480D01*
X0087520Y0034480D02*
X0085810Y0036190D01*
X0082891Y0034257D02*
X0082356Y0034257D01*
X0080551Y0032260D02*
X0070502Y0032260D01*
X0072855Y0031262D02*
X0084172Y0031262D01*
X0085170Y0030263D02*
X0072911Y0030263D01*
X0072911Y0029265D02*
X0091885Y0029265D01*
X0092880Y0030263D02*
X0087643Y0030263D01*
X0088642Y0031262D02*
X0092880Y0031262D01*
X0092880Y0032260D02*
X0089640Y0032260D01*
X0090639Y0033259D02*
X0092880Y0033259D01*
X0092880Y0034257D02*
X0091637Y0034257D01*
X0092518Y0035256D02*
X0092880Y0035256D01*
X0096080Y0035256D02*
X0098350Y0035256D01*
X0098603Y0035003D02*
X0098603Y0034861D01*
X0098705Y0034479D01*
X0098903Y0034137D01*
X0099432Y0033608D01*
X0102580Y0036756D01*
X0102581Y0036756D01*
X0102581Y0036757D01*
X0105729Y0039905D01*
X0102581Y0036756D01*
X0099432Y0033608D01*
X0099900Y0033140D01*
X0099900Y0030837D01*
X0105090Y0025647D01*
X0105090Y0025214D01*
X0104786Y0024910D01*
X0104692Y0024910D01*
X0104151Y0024988D01*
X0104046Y0024910D01*
X0103914Y0024910D01*
X0103527Y0024523D01*
X0101975Y0023364D01*
X0101450Y0023889D01*
X0101637Y0024075D01*
X0101637Y0024987D01*
X0098961Y0027662D01*
X0099477Y0028178D01*
X0099477Y0029089D01*
X0096080Y0032487D01*
X0096080Y0036345D01*
X0096670Y0036935D01*
X0097643Y0035963D01*
X0098603Y0035003D01*
X0098833Y0034257D02*
X0096080Y0034257D01*
X0096080Y0033259D02*
X0099781Y0033259D01*
X0099900Y0032260D02*
X0096306Y0032260D01*
X0097305Y0031262D02*
X0099900Y0031262D01*
X0100474Y0030263D02*
X0098303Y0030263D01*
X0099302Y0029265D02*
X0101472Y0029265D01*
X0102471Y0028266D02*
X0099477Y0028266D01*
X0099356Y0027268D02*
X0103469Y0027268D01*
X0104468Y0026269D02*
X0100354Y0026269D01*
X0101353Y0025271D02*
X0105090Y0025271D01*
X0106690Y0026310D02*
X0106690Y0023310D01*
X0104577Y0023310D01*
X0100634Y0020366D01*
X0104165Y0019280D02*
X0104394Y0019280D01*
X0104657Y0020278D02*
X0105661Y0020278D01*
X0106060Y0019280D02*
X0106582Y0019280D01*
X0107058Y0018281D02*
X0107092Y0018281D01*
X0108057Y0017283D02*
X0108169Y0017283D01*
X0108633Y0018281D02*
X0109167Y0018281D01*
X0109631Y0019280D02*
X0110166Y0019280D01*
X0110453Y0019280D02*
X0110988Y0019280D01*
X0110500Y0019500D02*
X0114500Y0019500D01*
X0113871Y0019280D02*
X0141128Y0019280D01*
X0141128Y0020278D02*
X0114007Y0020278D01*
X0113350Y0021277D02*
X0119628Y0021277D01*
X0120093Y0020811D02*
X0118811Y0022093D01*
X0118811Y0023907D01*
X0119400Y0024496D01*
X0119400Y0025953D01*
X0117098Y0028255D01*
X0117098Y0029167D01*
X0118490Y0030559D01*
X0118490Y0030559D01*
X0119243Y0031311D01*
X0118593Y0031311D01*
X0117311Y0032593D01*
X0117311Y0034407D01*
X0118593Y0035689D01*
X0120311Y0035689D01*
X0120311Y0036907D01*
X0121593Y0038189D01*
X0123407Y0038189D01*
X0124481Y0037115D01*
X0124487Y0037121D01*
X0127635Y0033973D01*
X0127635Y0033973D01*
X0124487Y0037121D01*
X0125016Y0037650D01*
X0125358Y0037848D01*
X0125740Y0037950D01*
X0125882Y0037950D01*
X0126842Y0038910D01*
X0128234Y0040302D01*
X0129658Y0041726D01*
X0129658Y0041726D01*
X0131018Y0043086D01*
X0132410Y0044478D01*
X0133833Y0045902D01*
X0134745Y0045902D01*
X0136922Y0043724D01*
X0138744Y0043724D01*
X0145600Y0050580D01*
X0146420Y0051400D01*
X0147900Y0051400D01*
X0147900Y0051506D01*
X0148544Y0052150D01*
X0153056Y0052150D01*
X0153700Y0051506D01*
X0153700Y0046600D01*
X0158663Y0046600D01*
X0164311Y0040952D01*
X0164311Y0042407D01*
X0165593Y0043689D01*
X0167407Y0043689D01*
X0168689Y0042407D01*
X0168689Y0041850D01*
X0168900Y0041850D01*
X0168900Y0042750D01*
X0172200Y0042750D01*
X0172450Y0043000D01*
X0175500Y0043000D01*
X0179059Y0046559D01*
X0179500Y0046559D01*
X0178941Y0047500D01*
X0183500Y0047500D01*
X0182772Y0047238D02*
X0187400Y0047238D01*
X0187400Y0048237D02*
X0182744Y0048237D01*
X0182772Y0048134D02*
X0182669Y0048516D01*
X0182472Y0048858D01*
X0182193Y0049137D01*
X0181851Y0049335D01*
X0181469Y0049437D01*
X0179689Y0049437D01*
X0179689Y0046748D01*
X0182772Y0046748D01*
X0182772Y0048134D01*
X0182023Y0049235D02*
X0187400Y0049235D01*
X0187400Y0050234D02*
X0175100Y0050234D01*
X0175100Y0051232D02*
X0187400Y0051232D01*
X0186824Y0052231D02*
X0140032Y0052231D01*
X0139165Y0053229D02*
X0185626Y0053229D01*
X0186000Y0055000D02*
X0189000Y0052500D01*
X0189000Y0041500D01*
X0191189Y0041247D02*
X0196490Y0041247D01*
X0195492Y0042245D02*
X0191189Y0042245D01*
X0190600Y0043244D02*
X0194493Y0043244D01*
X0193495Y0044242D02*
X0190600Y0044242D01*
X0190600Y0045241D02*
X0192900Y0045241D01*
X0192900Y0046239D02*
X0190600Y0046239D01*
X0190600Y0047238D02*
X0192900Y0047238D01*
X0192900Y0048237D02*
X0190600Y0048237D01*
X0190600Y0049235D02*
X0192900Y0049235D01*
X0192900Y0050234D02*
X0190600Y0050234D01*
X0190600Y0051232D02*
X0192900Y0051232D01*
X0192900Y0052231D02*
X0190631Y0052231D01*
X0190540Y0053229D02*
X0192900Y0053229D01*
X0192510Y0054228D02*
X0189426Y0054228D01*
X0188228Y0055226D02*
X0191511Y0055226D01*
X0190513Y0056225D02*
X0187038Y0056225D01*
X0186000Y0055000D02*
X0137527Y0055000D01*
X0134595Y0052068D01*
X0133203Y0053460D02*
X0137744Y0058000D01*
X0191000Y0058000D01*
X0194500Y0054500D01*
X0194500Y0045500D01*
X0205941Y0034059D01*
X0211000Y0034059D01*
X0215614Y0034059D01*
X0216055Y0034500D01*
X0223500Y0034500D01*
X0228547Y0039547D01*
X0228547Y0042150D01*
X0230500Y0042134D02*
X0230516Y0042150D01*
X0230500Y0042134D02*
X0230500Y0038000D01*
X0222500Y0029500D01*
X0222500Y0028783D01*
X0218217Y0028783D01*
X0218000Y0024500D01*
X0215811Y0024272D02*
X0188476Y0024272D01*
X0188600Y0024396D02*
X0188600Y0025388D01*
X0189424Y0025388D01*
X0189936Y0025900D01*
X0190504Y0025900D01*
X0191093Y0025311D01*
X0192907Y0025311D01*
X0194189Y0026593D01*
X0194189Y0028407D01*
X0192907Y0029689D01*
X0191093Y0029689D01*
X0190504Y0029100D01*
X0190068Y0029100D01*
X0190068Y0031275D01*
X0189424Y0031919D01*
X0184576Y0031919D01*
X0183931Y0031275D01*
X0183931Y0026033D01*
X0184576Y0025388D01*
X0185066Y0025388D01*
X0184215Y0024537D01*
X0181773Y0024537D01*
X0181128Y0023893D01*
X0181128Y0020225D01*
X0181642Y0019712D01*
X0181307Y0019519D01*
X0181028Y0019240D01*
X0180831Y0018898D01*
X0180827Y0018885D01*
X0180693Y0019019D01*
X0180358Y0019212D01*
X0180872Y0019725D01*
X0180872Y0023393D01*
X0180227Y0024037D01*
X0180122Y0024037D01*
X0180779Y0026463D01*
X0182227Y0026463D01*
X0182872Y0027107D01*
X0182872Y0030775D01*
X0182227Y0031419D01*
X0177773Y0031419D01*
X0177128Y0030775D01*
X0177128Y0027107D01*
X0177773Y0026463D01*
X0177878Y0026463D01*
X0177221Y0024037D01*
X0175773Y0024037D01*
X0175128Y0023393D01*
X0175128Y0023159D01*
X0170168Y0023159D01*
X0168429Y0025150D01*
X0169414Y0024743D01*
X0170909Y0024743D01*
X0172290Y0025315D01*
X0173347Y0026372D01*
X0173919Y0027753D01*
X0173919Y0029247D01*
X0173347Y0030628D01*
X0173125Y0030850D01*
X0174456Y0030850D01*
X0174706Y0031100D01*
X0176080Y0031100D01*
X0177167Y0032187D01*
X0177773Y0031581D01*
X0182227Y0031581D01*
X0182872Y0032225D01*
X0182872Y0035893D01*
X0182227Y0036537D01*
X0177800Y0036537D01*
X0178812Y0037549D01*
X0179016Y0037598D01*
X0179265Y0038002D01*
X0179600Y0038337D01*
X0179600Y0038548D01*
X0179855Y0038963D01*
X0181727Y0038963D01*
X0182372Y0039607D01*
X0182372Y0043275D01*
X0181858Y0043788D01*
X0182193Y0043981D01*
X0182472Y0044260D01*
X0182669Y0044602D01*
X0182772Y0044984D01*
X0182772Y0046370D01*
X0179689Y0046370D01*
X0179689Y0046748D01*
X0179311Y0046748D01*
X0179311Y0046370D01*
X0176228Y0046370D01*
X0176228Y0044984D01*
X0176331Y0044602D01*
X0176528Y0044260D01*
X0176807Y0043981D01*
X0177142Y0043788D01*
X0176628Y0043275D01*
X0176628Y0039891D01*
X0176337Y0039600D01*
X0175100Y0039600D01*
X0175100Y0040929D01*
X0175200Y0041029D01*
X0175398Y0041371D01*
X0175500Y0041753D01*
X0175500Y0042750D01*
X0175500Y0043747D01*
X0175398Y0044129D01*
X0175200Y0044471D01*
X0175100Y0044571D01*
X0175100Y0051506D01*
X0174456Y0052150D01*
X0169944Y0052150D01*
X0169300Y0051506D01*
X0169300Y0044571D01*
X0169200Y0044471D01*
X0169002Y0044129D01*
X0168900Y0043747D01*
X0168900Y0042750D01*
X0172200Y0042750D01*
X0175500Y0042750D01*
X0172200Y0042750D01*
X0172200Y0042750D01*
X0172200Y0042750D01*
X0175500Y0043244D02*
X0176628Y0043244D01*
X0176628Y0042245D02*
X0175500Y0042245D01*
X0175326Y0041247D02*
X0176628Y0041247D01*
X0176628Y0040248D02*
X0175100Y0040248D01*
X0172200Y0040250D02*
X0167750Y0040250D01*
X0166500Y0041500D01*
X0164311Y0041247D02*
X0164016Y0041247D01*
X0164311Y0042245D02*
X0163017Y0042245D01*
X0162019Y0043244D02*
X0165148Y0043244D01*
X0167852Y0043244D02*
X0168900Y0043244D01*
X0168900Y0042245D02*
X0168689Y0042245D01*
X0169068Y0044242D02*
X0161020Y0044242D01*
X0160022Y0045241D02*
X0169300Y0045241D01*
X0169300Y0046239D02*
X0159023Y0046239D01*
X0153700Y0047238D02*
X0169300Y0047238D01*
X0169300Y0048237D02*
X0153700Y0048237D01*
X0153700Y0049235D02*
X0169300Y0049235D01*
X0169300Y0050234D02*
X0153700Y0050234D01*
X0153700Y0051232D02*
X0169300Y0051232D01*
X0175100Y0049235D02*
X0176977Y0049235D01*
X0176807Y0049137D02*
X0176528Y0048858D01*
X0176331Y0048516D01*
X0176228Y0048134D01*
X0176228Y0046748D01*
X0179311Y0046748D01*
X0179311Y0049437D01*
X0177531Y0049437D01*
X0177149Y0049335D01*
X0176807Y0049137D01*
X0176256Y0048237D02*
X0175100Y0048237D01*
X0175100Y0047238D02*
X0176228Y0047238D01*
X0176228Y0046239D02*
X0175100Y0046239D01*
X0175100Y0045241D02*
X0176228Y0045241D01*
X0176546Y0044242D02*
X0175332Y0044242D01*
X0182372Y0043244D02*
X0187400Y0043244D01*
X0187400Y0044242D02*
X0182454Y0044242D01*
X0182772Y0045241D02*
X0187400Y0045241D01*
X0187400Y0046239D02*
X0182772Y0046239D01*
X0179689Y0047238D02*
X0179311Y0047238D01*
X0179311Y0048237D02*
X0179689Y0048237D01*
X0179689Y0049235D02*
X0179311Y0049235D01*
X0165250Y0037750D02*
X0158000Y0045000D01*
X0151050Y0045000D01*
X0150800Y0045250D01*
X0147900Y0044920D02*
X0147900Y0042071D01*
X0147800Y0041971D01*
X0147602Y0041629D01*
X0147500Y0041247D01*
X0144227Y0041247D01*
X0145225Y0042245D02*
X0147900Y0042245D01*
X0147900Y0043244D02*
X0146224Y0043244D01*
X0147222Y0044242D02*
X0147900Y0044242D01*
X0147900Y0044920D02*
X0139580Y0036600D01*
X0136948Y0036600D01*
X0136471Y0037077D01*
X0135357Y0035963D01*
X0135357Y0035963D01*
X0133965Y0034571D01*
X0132573Y0033179D01*
X0131613Y0032219D01*
X0131613Y0032077D01*
X0131511Y0031695D01*
X0131313Y0031353D01*
X0130784Y0030824D01*
X0127636Y0033972D01*
X0127636Y0033972D01*
X0130784Y0030824D01*
X0130255Y0030295D01*
X0129913Y0030097D01*
X0129531Y0029995D01*
X0129389Y0029995D01*
X0128849Y0029454D01*
X0129614Y0028689D01*
X0130407Y0028689D01*
X0131689Y0027407D01*
X0131689Y0025593D01*
X0130407Y0024311D01*
X0128689Y0024311D01*
X0128689Y0023093D01*
X0127407Y0021811D01*
X0125593Y0021811D01*
X0124311Y0023093D01*
X0124311Y0023899D01*
X0123802Y0024408D01*
X0123189Y0023794D01*
X0123189Y0022093D01*
X0121907Y0020811D01*
X0120093Y0020811D01*
X0118811Y0022275D02*
X0112352Y0022275D01*
X0112163Y0021277D02*
X0111628Y0021277D01*
X0111165Y0020278D02*
X0110630Y0020278D01*
X0110310Y0019690D02*
X0110500Y0019500D01*
X0111452Y0018281D02*
X0111986Y0018281D01*
X0112970Y0018281D02*
X0141573Y0018281D01*
X0140800Y0017283D02*
X0111972Y0017283D01*
X0111312Y0016284D02*
X0140728Y0016284D01*
X0142941Y0016500D02*
X0136500Y0016500D01*
X0137000Y0017000D01*
X0137000Y0018000D01*
X0137000Y0024608D01*
X0127636Y0033973D01*
X0127351Y0034257D02*
X0127351Y0034257D01*
X0128349Y0033259D02*
X0128349Y0033259D01*
X0129348Y0032260D02*
X0129348Y0032260D01*
X0130346Y0031262D02*
X0130346Y0031262D01*
X0131222Y0031262D02*
X0141128Y0031262D01*
X0141128Y0031225D02*
X0141773Y0030581D01*
X0146227Y0030581D01*
X0146872Y0031225D01*
X0146872Y0031350D01*
X0148044Y0031350D01*
X0148544Y0030850D01*
X0149875Y0030850D01*
X0149653Y0030628D01*
X0149081Y0029247D01*
X0149081Y0027753D01*
X0149653Y0026372D01*
X0150710Y0025315D01*
X0152091Y0024743D01*
X0153586Y0024743D01*
X0154967Y0025315D01*
X0156024Y0026372D01*
X0156596Y0027753D01*
X0156596Y0029247D01*
X0156024Y0030628D01*
X0154967Y0031685D01*
X0153700Y0032210D01*
X0153700Y0038429D01*
X0153800Y0038529D01*
X0153998Y0038871D01*
X0154100Y0039253D01*
X0154100Y0040250D01*
X0154100Y0041247D01*
X0159490Y0041247D01*
X0158492Y0042245D02*
X0153700Y0042245D01*
X0153700Y0042071D02*
X0153700Y0043400D01*
X0157337Y0043400D01*
X0163650Y0037087D01*
X0164587Y0036150D01*
X0169300Y0036150D01*
X0169300Y0032210D01*
X0168033Y0031685D01*
X0166976Y0030628D01*
X0166404Y0029247D01*
X0166404Y0027753D01*
X0166682Y0027080D01*
X0166663Y0027100D01*
X0166054Y0027100D01*
X0165447Y0027141D01*
X0165400Y0027100D01*
X0159996Y0027100D01*
X0159407Y0027689D01*
X0157593Y0027689D01*
X0156311Y0026407D01*
X0156311Y0024593D01*
X0157593Y0023311D01*
X0159407Y0023311D01*
X0159996Y0023900D01*
X0165273Y0023900D01*
X0167841Y0020959D01*
X0167841Y0020896D01*
X0168271Y0020466D01*
X0168591Y0020100D01*
X0152996Y0020100D01*
X0152407Y0020689D01*
X0150593Y0020689D01*
X0149311Y0019407D01*
X0149311Y0017593D01*
X0150593Y0016311D01*
X0152407Y0016311D01*
X0152996Y0016900D01*
X0170004Y0016900D01*
X0171093Y0015811D01*
X0172907Y0015811D01*
X0174189Y0017093D01*
X0174189Y0018907D01*
X0173137Y0019959D01*
X0175128Y0019959D01*
X0175128Y0019725D01*
X0175642Y0019212D01*
X0175307Y0019019D01*
X0175028Y0018740D01*
X0174831Y0018398D01*
X0174728Y0018016D01*
X0174728Y0016630D01*
X0177811Y0016630D01*
X0177811Y0016252D01*
X0174728Y0016252D01*
X0174728Y0014866D01*
X0174831Y0014484D01*
X0175028Y0014142D01*
X0175307Y0013863D01*
X0175649Y0013665D01*
X0176031Y0013563D01*
X0177811Y0013563D01*
X0177811Y0016252D01*
X0178189Y0016252D01*
X0178189Y0013563D01*
X0179969Y0013563D01*
X0180351Y0013665D01*
X0180693Y0013863D01*
X0180972Y0014142D01*
X0181169Y0014484D01*
X0181173Y0014497D01*
X0181307Y0014363D01*
X0181649Y0014165D01*
X0182031Y0014063D01*
X0183811Y0014063D01*
X0183811Y0016752D01*
X0184189Y0016752D01*
X0184189Y0017130D01*
X0187272Y0017130D01*
X0187272Y0018516D01*
X0187169Y0018898D01*
X0186972Y0019240D01*
X0186693Y0019519D01*
X0186358Y0019712D01*
X0186872Y0020225D01*
X0186872Y0022668D01*
X0188600Y0024396D01*
X0188600Y0025271D02*
X0215811Y0025271D01*
X0216487Y0026269D02*
X0213531Y0026269D01*
X0213693Y0026363D02*
X0213972Y0026642D01*
X0214169Y0026984D01*
X0214272Y0027366D01*
X0214272Y0028752D01*
X0211189Y0028752D01*
X0211189Y0026063D01*
X0212969Y0026063D01*
X0213351Y0026165D01*
X0213693Y0026363D01*
X0214245Y0027268D02*
X0216538Y0027268D01*
X0216588Y0028266D02*
X0214272Y0028266D01*
X0214272Y0029265D02*
X0216617Y0029265D01*
X0217434Y0030263D02*
X0214272Y0030263D01*
X0213950Y0031262D02*
X0219978Y0031262D01*
X0222901Y0032260D02*
X0213872Y0032260D01*
X0208128Y0032260D02*
X0193356Y0032260D01*
X0192907Y0031811D02*
X0194189Y0033093D01*
X0194189Y0034907D01*
X0192907Y0036189D01*
X0192074Y0036189D01*
X0191316Y0036946D01*
X0190068Y0036946D01*
X0190068Y0037967D01*
X0189424Y0038612D01*
X0184576Y0038612D01*
X0183931Y0037967D01*
X0183931Y0032725D01*
X0184576Y0032081D01*
X0189424Y0032081D01*
X0190068Y0032725D01*
X0190068Y0032836D01*
X0191093Y0031811D01*
X0192907Y0031811D01*
X0194189Y0033259D02*
X0204478Y0033259D01*
X0203480Y0034257D02*
X0194189Y0034257D01*
X0193840Y0035256D02*
X0202481Y0035256D01*
X0201483Y0036254D02*
X0192008Y0036254D01*
X0190654Y0035346D02*
X0192000Y0034000D01*
X0190654Y0035346D02*
X0187000Y0035346D01*
X0183931Y0035256D02*
X0182872Y0035256D01*
X0182872Y0034257D02*
X0183931Y0034257D01*
X0183931Y0033259D02*
X0182872Y0033259D01*
X0182872Y0032260D02*
X0184397Y0032260D01*
X0183931Y0031262D02*
X0182384Y0031262D01*
X0182872Y0030263D02*
X0183931Y0030263D01*
X0183931Y0029265D02*
X0182872Y0029265D01*
X0182872Y0028266D02*
X0183931Y0028266D01*
X0183931Y0027268D02*
X0182872Y0027268D01*
X0183931Y0026269D02*
X0180727Y0026269D01*
X0180456Y0025271D02*
X0184949Y0025271D01*
X0187000Y0025059D02*
X0184000Y0022059D01*
X0186872Y0022275D02*
X0219247Y0022275D01*
X0219922Y0021277D02*
X0186872Y0021277D01*
X0186872Y0020278D02*
X0224311Y0020278D01*
X0225285Y0019280D02*
X0186932Y0019280D01*
X0187272Y0018281D02*
X0232543Y0018281D01*
X0232543Y0019280D02*
X0227715Y0019280D01*
X0228689Y0020278D02*
X0232929Y0020278D01*
X0234811Y0021277D02*
X0235189Y0021277D01*
X0235000Y0021500D02*
X0231000Y0017500D01*
X0235717Y0017500D01*
X0235380Y0017283D02*
X0187272Y0017283D01*
X0187272Y0016752D02*
X0184189Y0016752D01*
X0184189Y0014063D01*
X0185969Y0014063D01*
X0186351Y0014165D01*
X0186693Y0014363D01*
X0186972Y0014642D01*
X0187169Y0014984D01*
X0187272Y0015366D01*
X0187272Y0016752D01*
X0187272Y0016284D02*
X0232543Y0016284D01*
X0232543Y0015531D02*
X0232646Y0015149D01*
X0232843Y0014807D01*
X0233122Y0014528D01*
X0233464Y0014331D01*
X0233846Y0014228D01*
X0235380Y0014228D01*
X0235380Y0017163D01*
X0232543Y0017163D01*
X0232543Y0015531D01*
X0232609Y0015286D02*
X0187250Y0015286D01*
X0186562Y0014287D02*
X0233626Y0014287D01*
X0235380Y0014287D02*
X0236053Y0014287D01*
X0236053Y0015286D02*
X0235380Y0015286D01*
X0235380Y0016284D02*
X0236053Y0016284D01*
X0231000Y0017500D02*
X0230000Y0018500D01*
X0230000Y0024217D01*
X0230337Y0024272D02*
X0231728Y0024272D01*
X0230337Y0023274D02*
X0229663Y0023274D01*
X0229663Y0022275D02*
X0230337Y0022275D01*
X0230337Y0021277D02*
X0229663Y0021277D01*
X0226500Y0021160D02*
X0226500Y0021000D01*
X0226500Y0021160D02*
X0226500Y0028500D01*
X0226783Y0028783D01*
X0230000Y0028783D01*
X0230000Y0034000D01*
X0232500Y0036500D01*
X0232500Y0042134D01*
X0232484Y0042150D01*
X0234453Y0042150D02*
X0234453Y0029606D01*
X0235000Y0029059D01*
X0240000Y0028783D02*
X0240000Y0029500D01*
X0242500Y0032000D01*
X0242500Y0034500D01*
X0244100Y0032754D02*
X0244273Y0032581D01*
X0248727Y0032581D01*
X0249118Y0032972D01*
X0249443Y0032914D01*
X0249443Y0031773D01*
X0250088Y0031128D01*
X0254345Y0031128D01*
X0254500Y0031283D01*
X0254655Y0031128D01*
X0258912Y0031128D01*
X0259557Y0031773D01*
X0259557Y0032400D01*
X0261463Y0032400D01*
X0261463Y0031773D01*
X0261476Y0031760D01*
X0261443Y0031727D01*
X0261443Y0027273D01*
X0262088Y0026628D01*
X0266345Y0026628D01*
X0266500Y0026783D01*
X0266655Y0026628D01*
X0270912Y0026628D01*
X0271557Y0027273D01*
X0271557Y0031727D01*
X0271524Y0031760D01*
X0271537Y0031773D01*
X0271537Y0032400D01*
X0273463Y0032400D01*
X0273463Y0031773D01*
X0274107Y0031128D01*
X0277775Y0031128D01*
X0278419Y0031773D01*
X0278419Y0036227D01*
X0277775Y0036872D01*
X0274107Y0036872D01*
X0273949Y0036713D01*
X0273763Y0039943D01*
X0274227Y0039943D01*
X0274872Y0040588D01*
X0274872Y0044845D01*
X0274717Y0045000D01*
X0274872Y0045155D01*
X0274872Y0048609D01*
X0275600Y0049337D01*
X0275600Y0050336D01*
X0276037Y0050773D01*
X0276037Y0055227D01*
X0275536Y0055728D01*
X0276154Y0055728D01*
X0276536Y0055831D01*
X0276878Y0056028D01*
X0277157Y0056307D01*
X0277354Y0056649D01*
X0277457Y0057031D01*
X0277457Y0058663D01*
X0274620Y0058663D01*
X0274620Y0059337D01*
X0273947Y0059337D01*
X0273947Y0062272D01*
X0272413Y0062272D01*
X0272031Y0062169D01*
X0271689Y0061972D01*
X0271589Y0061872D01*
X0267588Y0061872D01*
X0266943Y0061227D01*
X0266943Y0059074D01*
X0266232Y0058600D01*
X0265457Y0058600D01*
X0265457Y0060163D01*
X0262620Y0060163D01*
X0262620Y0060837D01*
X0261947Y0060837D01*
X0261947Y0065163D01*
X0262620Y0065163D01*
X0262620Y0062228D01*
X0262620Y0060837D01*
X0265457Y0060837D01*
X0265457Y0062469D01*
X0265354Y0062851D01*
X0265268Y0063000D01*
X0265354Y0063149D01*
X0265457Y0063531D01*
X0265457Y0065163D01*
X0262620Y0065163D01*
X0262620Y0065837D01*
X0261947Y0065837D01*
X0261947Y0068772D01*
X0260413Y0068772D01*
X0260031Y0068669D01*
X0259689Y0068472D01*
X0259600Y0068383D01*
X0259600Y0068504D01*
X0260189Y0069093D01*
X0260189Y0070907D01*
X0258907Y0072189D01*
X0257093Y0072189D01*
X0255811Y0070907D01*
X0255811Y0069093D01*
X0256400Y0068504D01*
X0256400Y0068372D01*
X0255588Y0068372D01*
X0254943Y0067727D01*
X0254943Y0066732D01*
X0254372Y0066389D01*
X0254372Y0070345D01*
X0254217Y0070500D01*
X0254372Y0070655D01*
X0254372Y0074912D01*
X0253727Y0075557D01*
X0249273Y0075557D01*
X0248628Y0074912D01*
X0248628Y0073600D01*
X0247837Y0073600D01*
X0246900Y0072663D01*
X0246400Y0072163D01*
X0246400Y0066163D01*
X0240318Y0060080D01*
X0240080Y0060080D01*
X0240080Y0062633D01*
X0239990Y0062724D01*
X0239990Y0063727D01*
X0241834Y0065571D01*
X0242593Y0064811D01*
X0244407Y0064811D01*
X0245689Y0066093D01*
X0245689Y0067907D01*
X0245100Y0068496D01*
X0245100Y0069163D01*
X0244819Y0069443D01*
X0245227Y0069443D01*
X0245872Y0070088D01*
X0245872Y0074089D01*
X0245972Y0074189D01*
X0246169Y0074531D01*
X0246272Y0074913D01*
X0246272Y0076447D01*
X0243337Y0076447D01*
X0243337Y0077120D01*
X0246272Y0077120D01*
X0246272Y0078654D01*
X0246169Y0079036D01*
X0245972Y0079378D01*
X0245693Y0079657D01*
X0245617Y0079701D01*
X0299471Y0079701D01*
X0299087Y0079386D01*
X0298114Y0078413D01*
X0297242Y0077350D01*
X0296477Y0076206D01*
X0295829Y0074993D01*
X0295302Y0073722D01*
X0294903Y0072406D01*
X0294635Y0071057D01*
X0294500Y0069688D01*
X0294500Y0069500D01*
X0308000Y0069500D01*
X0308000Y0068500D01*
X0309000Y0068500D01*
X0309000Y0055000D01*
X0309188Y0055000D01*
X0310557Y0055135D01*
X0311906Y0055403D01*
X0313222Y0055802D01*
X0314493Y0056329D01*
X0315706Y0056977D01*
X0316850Y0057742D01*
X0317913Y0058614D01*
X0318886Y0059587D01*
X0319421Y0060239D01*
X0319421Y0046000D01*
X0312000Y0046000D01*
X0312000Y0042000D01*
X0311000Y0042000D01*
X0311000Y0046000D01*
X0303303Y0046000D01*
X0302921Y0045898D01*
X0302579Y0045700D01*
X0302300Y0045421D01*
X0302102Y0045079D01*
X0302000Y0044697D01*
X0302000Y0042000D01*
X0311000Y0042000D01*
X0311000Y0041000D01*
X0312000Y0041000D01*
X0312000Y0037000D01*
X0319421Y0037000D01*
X0319421Y0035600D01*
X0303044Y0035600D01*
X0302400Y0034956D01*
X0302400Y0033100D01*
X0301697Y0033100D01*
X0298318Y0033945D01*
X0298163Y0034100D01*
X0297697Y0034100D01*
X0297245Y0034213D01*
X0297057Y0034100D01*
X0295537Y0034100D01*
X0295537Y0034727D01*
X0294893Y0035372D01*
X0291225Y0035372D01*
X0290581Y0034727D01*
X0290581Y0030273D01*
X0291225Y0029628D01*
X0294893Y0029628D01*
X0295537Y0030273D01*
X0295537Y0030900D01*
X0297303Y0030900D01*
X0300682Y0030055D01*
X0300837Y0029900D01*
X0301303Y0029900D01*
X0301755Y0029787D01*
X0301943Y0029900D01*
X0302400Y0029900D01*
X0302400Y0028044D01*
X0303044Y0027400D01*
X0319421Y0027400D01*
X0319421Y0026000D01*
X0312000Y0026000D01*
X0312000Y0022000D01*
X0311000Y0022000D01*
X0311000Y0026000D01*
X0303303Y0026000D01*
X0302921Y0025898D01*
X0302579Y0025700D01*
X0302300Y0025421D01*
X0302102Y0025079D01*
X0302000Y0024697D01*
X0302000Y0022000D01*
X0311000Y0022000D01*
X0311000Y0021000D01*
X0312000Y0021000D01*
X0312000Y0017000D01*
X0319421Y0017000D01*
X0319421Y0013500D01*
X0250096Y0013500D01*
X0251189Y0014593D01*
X0251189Y0015730D01*
X0251402Y0015943D01*
X0253727Y0015943D01*
X0254372Y0016588D01*
X0254372Y0020845D01*
X0254217Y0021000D01*
X0254372Y0021155D01*
X0254372Y0025412D01*
X0253727Y0026057D01*
X0249273Y0026057D01*
X0248990Y0025774D01*
X0248727Y0026037D01*
X0248100Y0026037D01*
X0248100Y0027463D01*
X0248727Y0027463D01*
X0249372Y0028107D01*
X0249372Y0031775D01*
X0248727Y0032419D01*
X0244273Y0032419D01*
X0244100Y0032246D01*
X0244100Y0032754D01*
X0244100Y0032260D02*
X0244114Y0032260D01*
X0248886Y0032260D02*
X0249443Y0032260D01*
X0249372Y0031262D02*
X0249954Y0031262D01*
X0249372Y0030263D02*
X0261443Y0030263D01*
X0261443Y0029265D02*
X0249372Y0029265D01*
X0249372Y0028266D02*
X0261443Y0028266D01*
X0261448Y0027268D02*
X0248100Y0027268D01*
X0248100Y0026269D02*
X0281628Y0026269D01*
X0281628Y0025271D02*
X0254372Y0025271D01*
X0254372Y0024272D02*
X0281278Y0024272D01*
X0281228Y0024087D02*
X0281228Y0022553D01*
X0284163Y0022553D01*
X0284163Y0021880D01*
X0281228Y0021880D01*
X0281228Y0020346D01*
X0281331Y0019964D01*
X0281528Y0019622D01*
X0281807Y0019343D01*
X0282149Y0019146D01*
X0282531Y0019043D01*
X0284163Y0019043D01*
X0284163Y0021880D01*
X0284837Y0021880D01*
X0284837Y0022553D01*
X0287772Y0022553D01*
X0287772Y0024087D01*
X0287669Y0024469D01*
X0287472Y0024811D01*
X0287372Y0024911D01*
X0287372Y0028912D01*
X0286994Y0029290D01*
X0287332Y0029628D01*
X0289775Y0029628D01*
X0290419Y0030273D01*
X0290419Y0034727D01*
X0289775Y0035372D01*
X0287332Y0035372D01*
X0287104Y0035600D01*
X0283537Y0035600D01*
X0283537Y0036227D01*
X0282893Y0036872D01*
X0279225Y0036872D01*
X0278581Y0036227D01*
X0278581Y0031773D01*
X0279225Y0031128D01*
X0282893Y0031128D01*
X0283537Y0031773D01*
X0283537Y0032400D01*
X0285463Y0032400D01*
X0285463Y0032285D01*
X0282900Y0029722D01*
X0282900Y0029557D01*
X0282273Y0029557D01*
X0281628Y0028912D01*
X0281628Y0024911D01*
X0281528Y0024811D01*
X0281331Y0024469D01*
X0281228Y0024087D01*
X0281228Y0023274D02*
X0254372Y0023274D01*
X0254372Y0022275D02*
X0284163Y0022275D01*
X0284500Y0022217D02*
X0284500Y0017500D01*
X0285000Y0017000D01*
X0284837Y0019043D02*
X0286469Y0019043D01*
X0286851Y0019146D01*
X0287193Y0019343D01*
X0287472Y0019622D01*
X0287669Y0019964D01*
X0287772Y0020346D01*
X0287772Y0021880D01*
X0284837Y0021880D01*
X0284837Y0019043D01*
X0284837Y0019280D02*
X0284163Y0019280D01*
X0284163Y0020278D02*
X0284837Y0020278D01*
X0284837Y0021277D02*
X0284163Y0021277D01*
X0284837Y0022275D02*
X0302000Y0022275D01*
X0302000Y0023274D02*
X0287772Y0023274D01*
X0287722Y0024272D02*
X0302000Y0024272D01*
X0302213Y0025271D02*
X0287372Y0025271D01*
X0287372Y0026269D02*
X0319421Y0026269D01*
X0319421Y0027268D02*
X0287372Y0027268D01*
X0287372Y0028266D02*
X0302400Y0028266D01*
X0302400Y0029265D02*
X0287019Y0029265D01*
X0284500Y0029059D02*
X0287941Y0032500D01*
X0286441Y0034000D01*
X0281059Y0034000D01*
X0278581Y0034257D02*
X0278419Y0034257D01*
X0278419Y0033259D02*
X0278581Y0033259D01*
X0278581Y0032260D02*
X0278419Y0032260D01*
X0277908Y0031262D02*
X0279092Y0031262D01*
X0283026Y0031262D02*
X0284440Y0031262D01*
X0283537Y0032260D02*
X0285439Y0032260D01*
X0283442Y0030263D02*
X0271557Y0030263D01*
X0271557Y0029265D02*
X0281981Y0029265D01*
X0281628Y0028266D02*
X0271557Y0028266D01*
X0271552Y0027268D02*
X0281628Y0027268D01*
X0284500Y0026783D02*
X0284500Y0029059D01*
X0290409Y0030263D02*
X0290591Y0030263D01*
X0290581Y0031262D02*
X0290419Y0031262D01*
X0290419Y0032260D02*
X0290581Y0032260D01*
X0290581Y0033259D02*
X0290419Y0033259D01*
X0290419Y0034257D02*
X0290581Y0034257D01*
X0291110Y0035256D02*
X0289890Y0035256D01*
X0295008Y0035256D02*
X0302700Y0035256D01*
X0302400Y0034257D02*
X0295537Y0034257D01*
X0297500Y0032500D02*
X0293059Y0032500D01*
X0297500Y0032500D02*
X0301500Y0031500D01*
X0311500Y0031500D01*
X0302400Y0033259D02*
X0301062Y0033259D01*
X0299850Y0030263D02*
X0295528Y0030263D01*
X0311000Y0025271D02*
X0312000Y0025271D01*
X0312000Y0024272D02*
X0311000Y0024272D01*
X0311000Y0023274D02*
X0312000Y0023274D01*
X0312000Y0022275D02*
X0311000Y0022275D01*
X0311500Y0021500D02*
X0301000Y0022000D01*
X0301000Y0019500D01*
X0302000Y0019280D02*
X0287083Y0019280D01*
X0287754Y0020278D02*
X0302000Y0020278D01*
X0302000Y0021000D02*
X0302000Y0018303D01*
X0302102Y0017921D01*
X0302300Y0017579D01*
X0302579Y0017300D01*
X0302921Y0017102D01*
X0303303Y0017000D01*
X0311000Y0017000D01*
X0311000Y0021000D01*
X0302000Y0021000D01*
X0302006Y0018281D02*
X0268189Y0018281D01*
X0268189Y0018407D02*
X0266907Y0019689D01*
X0265093Y0019689D01*
X0265057Y0019652D01*
X0265057Y0019727D01*
X0264412Y0020372D01*
X0260411Y0020372D01*
X0260311Y0020472D01*
X0259969Y0020669D01*
X0259587Y0020772D01*
X0258053Y0020772D01*
X0258053Y0017837D01*
X0257380Y0017837D01*
X0257380Y0020772D01*
X0255846Y0020772D01*
X0255464Y0020669D01*
X0255122Y0020472D01*
X0254843Y0020193D01*
X0254646Y0019851D01*
X0254543Y0019469D01*
X0254543Y0017837D01*
X0257380Y0017837D01*
X0257380Y0017163D01*
X0258053Y0017163D01*
X0258053Y0014228D01*
X0259587Y0014228D01*
X0259969Y0014331D01*
X0260311Y0014528D01*
X0260411Y0014628D01*
X0264412Y0014628D01*
X0265057Y0015273D01*
X0265057Y0015348D01*
X0265093Y0015311D01*
X0266907Y0015311D01*
X0268189Y0016593D01*
X0268189Y0018407D01*
X0268189Y0017283D02*
X0302609Y0017283D01*
X0311000Y0017283D02*
X0312000Y0017283D01*
X0312000Y0018281D02*
X0311000Y0018281D01*
X0311000Y0019280D02*
X0312000Y0019280D01*
X0312000Y0020278D02*
X0311000Y0020278D01*
X0311000Y0021277D02*
X0287772Y0021277D01*
X0281917Y0019280D02*
X0267316Y0019280D01*
X0264506Y0020278D02*
X0281246Y0020278D01*
X0281228Y0021277D02*
X0254372Y0021277D01*
X0254372Y0020278D02*
X0254929Y0020278D01*
X0254543Y0019280D02*
X0254372Y0019280D01*
X0254372Y0018281D02*
X0254543Y0018281D01*
X0254372Y0017283D02*
X0257380Y0017283D01*
X0257380Y0017163D02*
X0254543Y0017163D01*
X0254543Y0015531D01*
X0254646Y0015149D01*
X0254843Y0014807D01*
X0255122Y0014528D01*
X0255464Y0014331D01*
X0255846Y0014228D01*
X0257380Y0014228D01*
X0257380Y0017163D01*
X0257717Y0017500D02*
X0257717Y0020783D01*
X0257500Y0021000D01*
X0257380Y0020278D02*
X0258053Y0020278D01*
X0258053Y0019280D02*
X0257380Y0019280D01*
X0257380Y0018281D02*
X0258053Y0018281D01*
X0262283Y0017500D02*
X0266000Y0017500D01*
X0267880Y0016284D02*
X0319421Y0016284D01*
X0319421Y0015286D02*
X0265057Y0015286D01*
X0259807Y0014287D02*
X0319421Y0014287D01*
X0268783Y0029500D02*
X0268783Y0033724D01*
X0269059Y0034000D01*
X0272448Y0034000D01*
X0272500Y0034052D01*
X0272000Y0042717D01*
X0274872Y0042245D02*
X0302000Y0042245D01*
X0302000Y0043244D02*
X0274872Y0043244D01*
X0274872Y0044242D02*
X0302000Y0044242D01*
X0302196Y0045241D02*
X0274872Y0045241D01*
X0274872Y0046239D02*
X0319421Y0046239D01*
X0319421Y0047238D02*
X0274872Y0047238D01*
X0274872Y0048237D02*
X0319421Y0048237D01*
X0319421Y0049235D02*
X0275498Y0049235D01*
X0275600Y0050234D02*
X0319421Y0050234D01*
X0319421Y0051232D02*
X0276037Y0051232D01*
X0276037Y0052231D02*
X0319421Y0052231D01*
X0319421Y0053229D02*
X0276037Y0053229D01*
X0276037Y0054228D02*
X0319421Y0054228D01*
X0319421Y0055226D02*
X0311015Y0055226D01*
X0309000Y0055226D02*
X0308000Y0055226D01*
X0308000Y0055000D02*
X0308000Y0068500D01*
X0294500Y0068500D01*
X0294500Y0068312D01*
X0294635Y0066943D01*
X0294903Y0065594D01*
X0295302Y0064278D01*
X0295829Y0063007D01*
X0296477Y0061794D01*
X0297242Y0060650D01*
X0298114Y0059587D01*
X0299087Y0058614D01*
X0300150Y0057742D01*
X0301294Y0056977D01*
X0302507Y0056329D01*
X0303778Y0055802D01*
X0305094Y0055403D01*
X0306443Y0055135D01*
X0307812Y0055000D01*
X0308000Y0055000D01*
X0308000Y0056225D02*
X0309000Y0056225D01*
X0309000Y0057223D02*
X0308000Y0057223D01*
X0308000Y0058222D02*
X0309000Y0058222D01*
X0309000Y0059220D02*
X0308000Y0059220D01*
X0308000Y0060219D02*
X0309000Y0060219D01*
X0309000Y0061217D02*
X0308000Y0061217D01*
X0308000Y0062216D02*
X0309000Y0062216D01*
X0309000Y0063214D02*
X0308000Y0063214D01*
X0308000Y0064213D02*
X0309000Y0064213D01*
X0309000Y0065211D02*
X0308000Y0065211D01*
X0308000Y0066210D02*
X0309000Y0066210D01*
X0309000Y0067208D02*
X0308000Y0067208D01*
X0308000Y0068207D02*
X0309000Y0068207D01*
X0308000Y0069205D02*
X0260189Y0069205D01*
X0260189Y0070204D02*
X0294551Y0070204D01*
X0294664Y0071202D02*
X0259893Y0071202D01*
X0258000Y0070000D02*
X0258000Y0065783D01*
X0257717Y0065500D01*
X0256000Y0065500D01*
X0253500Y0064000D01*
X0253500Y0061500D01*
X0250000Y0058000D01*
X0247500Y0058000D01*
X0244000Y0054500D01*
X0240898Y0054500D01*
X0240850Y0054453D01*
X0240850Y0056421D02*
X0242921Y0056421D01*
X0251500Y0064000D01*
X0251500Y0068217D01*
X0254372Y0068207D02*
X0255423Y0068207D01*
X0255811Y0069205D02*
X0254372Y0069205D01*
X0254372Y0070204D02*
X0255811Y0070204D01*
X0256107Y0071202D02*
X0254372Y0071202D01*
X0254372Y0072201D02*
X0294862Y0072201D01*
X0295144Y0073199D02*
X0254372Y0073199D01*
X0254372Y0074198D02*
X0295500Y0074198D01*
X0295938Y0075196D02*
X0254088Y0075196D01*
X0251500Y0072783D02*
X0250717Y0072000D01*
X0248500Y0072000D01*
X0248000Y0071500D01*
X0248000Y0065500D01*
X0240890Y0058390D01*
X0240850Y0058390D01*
X0240456Y0060219D02*
X0240080Y0060219D01*
X0240080Y0061217D02*
X0241454Y0061217D01*
X0242453Y0062216D02*
X0240080Y0062216D01*
X0239990Y0063214D02*
X0243451Y0063214D01*
X0244450Y0064213D02*
X0240475Y0064213D01*
X0241474Y0065211D02*
X0242193Y0065211D01*
X0244807Y0065211D02*
X0245448Y0065211D01*
X0245689Y0066210D02*
X0246400Y0066210D01*
X0246400Y0067208D02*
X0245689Y0067208D01*
X0245389Y0068207D02*
X0246400Y0068207D01*
X0246400Y0069205D02*
X0245057Y0069205D01*
X0245872Y0070204D02*
X0246400Y0070204D01*
X0246400Y0071202D02*
X0245872Y0071202D01*
X0245872Y0072201D02*
X0246438Y0072201D01*
X0245872Y0073199D02*
X0247437Y0073199D01*
X0248628Y0074198D02*
X0245977Y0074198D01*
X0246272Y0075196D02*
X0248912Y0075196D01*
X0246272Y0076195D02*
X0296471Y0076195D01*
X0297137Y0077193D02*
X0246272Y0077193D01*
X0246272Y0078192D02*
X0297933Y0078192D01*
X0298891Y0079190D02*
X0246080Y0079190D01*
X0248000Y0077000D02*
X0247783Y0076783D01*
X0243000Y0076783D01*
X0238500Y0076783D01*
X0233500Y0076783D01*
X0232283Y0078000D01*
X0228500Y0078000D01*
X0227283Y0076783D01*
X0226000Y0076783D01*
X0221500Y0076783D01*
X0218217Y0076783D01*
X0218000Y0077000D01*
X0218228Y0077120D02*
X0221163Y0077120D01*
X0221163Y0076447D01*
X0218228Y0076447D01*
X0218228Y0074913D01*
X0218330Y0074532D01*
X0218284Y0074662D01*
X0217935Y0074827D01*
X0216100Y0076663D01*
X0215163Y0077600D01*
X0214372Y0077600D01*
X0214372Y0078412D01*
X0213727Y0079057D01*
X0209273Y0079057D01*
X0208628Y0078412D01*
X0208628Y0077883D01*
X0208624Y0077883D01*
X0208624Y0079701D01*
X0218883Y0079701D01*
X0218807Y0079657D01*
X0218528Y0079378D01*
X0218331Y0079036D01*
X0218228Y0078654D01*
X0218228Y0077120D01*
X0218228Y0077193D02*
X0215569Y0077193D01*
X0216568Y0076195D02*
X0218228Y0076195D01*
X0218228Y0075196D02*
X0217566Y0075196D01*
X0217000Y0073500D02*
X0214500Y0076000D01*
X0211783Y0076000D01*
X0211500Y0076283D01*
X0205028Y0076283D01*
X0203783Y0077528D01*
X0208624Y0078192D02*
X0208628Y0078192D01*
X0208624Y0079190D02*
X0218420Y0079190D01*
X0218228Y0078192D02*
X0214372Y0078192D01*
X0221837Y0077120D02*
X0224772Y0077120D01*
X0225663Y0077120D01*
X0225663Y0076447D01*
X0221837Y0076447D01*
X0221837Y0077120D01*
X0226337Y0077120D02*
X0229272Y0077120D01*
X0229272Y0078654D01*
X0229169Y0079036D01*
X0228972Y0079378D01*
X0228693Y0079657D01*
X0228617Y0079701D01*
X0230883Y0079701D01*
X0230807Y0079657D01*
X0230528Y0079378D01*
X0230331Y0079036D01*
X0230228Y0078654D01*
X0230228Y0077120D01*
X0233163Y0077120D01*
X0233163Y0076447D01*
X0230740Y0076447D01*
X0230657Y0076530D01*
X0228843Y0076530D01*
X0228760Y0076447D01*
X0226337Y0076447D01*
X0226337Y0077120D01*
X0229272Y0077193D02*
X0230228Y0077193D01*
X0230228Y0078192D02*
X0229272Y0078192D01*
X0229080Y0079190D02*
X0230420Y0079190D01*
X0233837Y0077120D02*
X0236772Y0077120D01*
X0238163Y0077120D01*
X0238163Y0076447D01*
X0233837Y0076447D01*
X0233837Y0077120D01*
X0238837Y0077120D02*
X0241772Y0077120D01*
X0242663Y0077120D01*
X0242663Y0076447D01*
X0238837Y0076447D01*
X0238837Y0077120D01*
X0230000Y0074500D02*
X0230000Y0074091D01*
X0229750Y0074341D01*
X0230000Y0074091D02*
X0230000Y0073000D01*
X0229000Y0072000D01*
X0226500Y0072000D01*
X0226283Y0072217D01*
X0226000Y0072217D01*
X0227283Y0072217D01*
X0232500Y0067000D01*
X0232500Y0060866D01*
X0232484Y0060850D01*
X0230516Y0060850D02*
X0230516Y0065484D01*
X0227500Y0068500D01*
X0224000Y0068500D01*
X0222000Y0069500D01*
X0222000Y0071717D01*
X0221500Y0072217D01*
X0226000Y0072000D02*
X0226500Y0072000D01*
X0230000Y0073000D02*
X0231783Y0071217D01*
X0234500Y0071217D01*
X0233500Y0072217D01*
X0234500Y0071217D02*
X0234500Y0068500D01*
X0234453Y0068453D01*
X0234453Y0060850D01*
X0236421Y0060850D02*
X0236421Y0065421D01*
X0238500Y0067500D01*
X0238500Y0072217D01*
X0243000Y0072217D02*
X0243000Y0069000D01*
X0243500Y0068500D01*
X0243500Y0067000D01*
X0243000Y0069000D02*
X0238390Y0064390D01*
X0238390Y0060850D01*
X0231743Y0058118D02*
X0231500Y0058361D01*
X0231257Y0058118D01*
X0231500Y0058118D01*
X0231500Y0055437D01*
X0231500Y0052000D01*
X0231500Y0052000D01*
X0231500Y0054181D01*
X0231500Y0055437D01*
X0231500Y0055437D01*
X0231500Y0055437D01*
X0231500Y0058118D01*
X0231743Y0058118D01*
X0231640Y0058222D02*
X0231360Y0058222D01*
X0231500Y0057223D02*
X0231500Y0057223D01*
X0231500Y0056225D02*
X0231500Y0056225D01*
X0231500Y0055226D02*
X0231500Y0055226D01*
X0231500Y0054228D02*
X0231500Y0054228D01*
X0231500Y0053229D02*
X0231500Y0053229D01*
X0231500Y0052231D02*
X0231500Y0052231D01*
X0232000Y0051500D02*
X0235437Y0051500D01*
X0235437Y0051500D01*
X0232756Y0051500D01*
X0232000Y0051500D01*
X0232000Y0051500D01*
X0231500Y0051000D02*
X0231500Y0047563D01*
X0231500Y0047563D01*
X0231500Y0048819D01*
X0231500Y0051000D01*
X0231500Y0051000D01*
X0231000Y0051500D02*
X0228819Y0051500D01*
X0227563Y0051500D01*
X0231000Y0051500D01*
X0231000Y0051500D01*
X0231500Y0050234D02*
X0231500Y0050234D01*
X0231500Y0049235D02*
X0231500Y0049235D01*
X0231500Y0048237D02*
X0231500Y0048237D01*
X0231500Y0047563D02*
X0231500Y0044882D01*
X0231743Y0044882D01*
X0231500Y0044639D01*
X0231257Y0044882D01*
X0231500Y0044882D01*
X0231500Y0047563D01*
X0231500Y0047563D01*
X0231500Y0047238D02*
X0231500Y0047238D01*
X0231500Y0046239D02*
X0231500Y0046239D01*
X0231500Y0045241D02*
X0231500Y0045241D01*
X0236421Y0042150D02*
X0236500Y0042071D01*
X0236500Y0039500D01*
X0240000Y0038000D01*
X0240000Y0028783D01*
X0242872Y0029265D02*
X0243628Y0029265D01*
X0243628Y0030263D02*
X0243026Y0030263D01*
X0242872Y0028266D02*
X0243628Y0028266D01*
X0242872Y0027268D02*
X0244900Y0027268D01*
X0244900Y0026269D02*
X0243223Y0026269D01*
X0243272Y0025271D02*
X0243628Y0025271D01*
X0243628Y0024272D02*
X0240337Y0024272D01*
X0240000Y0024217D02*
X0235719Y0024217D01*
X0235000Y0023497D01*
X0235000Y0021500D01*
X0234811Y0022275D02*
X0235189Y0022275D01*
X0235189Y0023274D02*
X0234811Y0023274D01*
X0235000Y0023497D02*
X0235000Y0023941D01*
X0238272Y0024272D02*
X0239663Y0024272D01*
X0240337Y0023880D02*
X0240337Y0021043D01*
X0241969Y0021043D01*
X0242351Y0021146D01*
X0242693Y0021343D01*
X0242972Y0021622D01*
X0243169Y0021964D01*
X0243272Y0022346D01*
X0243272Y0023880D01*
X0240337Y0023880D01*
X0240337Y0023274D02*
X0239663Y0023274D01*
X0239663Y0022275D02*
X0240337Y0022275D01*
X0240337Y0021277D02*
X0239663Y0021277D01*
X0242578Y0021277D02*
X0244077Y0021277D01*
X0243632Y0020278D02*
X0242506Y0020278D01*
X0243057Y0019280D02*
X0243628Y0019280D01*
X0245858Y0017500D02*
X0246500Y0018142D01*
X0246500Y0018000D01*
X0248848Y0015652D01*
X0251500Y0018304D01*
X0251500Y0018717D01*
X0246500Y0018441D02*
X0246500Y0018142D01*
X0245858Y0017500D02*
X0240283Y0017500D01*
X0243057Y0015286D02*
X0246811Y0015286D01*
X0247117Y0014287D02*
X0237807Y0014287D01*
X0248848Y0015652D02*
X0249000Y0015500D01*
X0251189Y0015286D02*
X0254609Y0015286D01*
X0254543Y0016284D02*
X0254068Y0016284D01*
X0257380Y0016284D02*
X0258053Y0016284D01*
X0258053Y0015286D02*
X0257380Y0015286D01*
X0257380Y0014287D02*
X0258053Y0014287D01*
X0255626Y0014287D02*
X0250883Y0014287D01*
X0236053Y0018281D02*
X0235380Y0018281D01*
X0235380Y0019280D02*
X0236053Y0019280D01*
X0236053Y0020278D02*
X0235380Y0020278D01*
X0243253Y0022275D02*
X0243628Y0022275D01*
X0243628Y0023274D02*
X0243272Y0023274D01*
X0246500Y0023559D02*
X0251224Y0024059D01*
X0251500Y0023283D01*
X0246500Y0023559D02*
X0246500Y0029941D01*
X0254479Y0031262D02*
X0254521Y0031262D01*
X0259046Y0031262D02*
X0261443Y0031262D01*
X0261463Y0032260D02*
X0259557Y0032260D01*
X0256783Y0034000D02*
X0263941Y0034000D01*
X0263941Y0029776D01*
X0264217Y0029500D01*
X0271557Y0031262D02*
X0273974Y0031262D01*
X0273463Y0032260D02*
X0271537Y0032260D01*
X0272448Y0034000D02*
X0275941Y0034000D01*
X0278419Y0035256D02*
X0278581Y0035256D01*
X0278608Y0036254D02*
X0278392Y0036254D01*
X0273918Y0037253D02*
X0302660Y0037253D01*
X0302579Y0037300D02*
X0302921Y0037102D01*
X0303303Y0037000D01*
X0311000Y0037000D01*
X0311000Y0041000D01*
X0302000Y0041000D01*
X0302000Y0038303D01*
X0302102Y0037921D01*
X0302300Y0037579D01*
X0302579Y0037300D01*
X0302014Y0038251D02*
X0273860Y0038251D01*
X0273803Y0039250D02*
X0302000Y0039250D01*
X0302000Y0040248D02*
X0274532Y0040248D01*
X0274872Y0041247D02*
X0311000Y0041247D01*
X0311500Y0041500D02*
X0300500Y0041500D01*
X0311000Y0042245D02*
X0312000Y0042245D01*
X0312000Y0043244D02*
X0311000Y0043244D01*
X0311000Y0044242D02*
X0312000Y0044242D01*
X0312000Y0045241D02*
X0311000Y0045241D01*
X0311000Y0040248D02*
X0312000Y0040248D01*
X0312000Y0039250D02*
X0311000Y0039250D01*
X0311000Y0038251D02*
X0312000Y0038251D01*
X0312000Y0037253D02*
X0311000Y0037253D01*
X0319421Y0036254D02*
X0283510Y0036254D01*
X0267000Y0040000D02*
X0267000Y0045500D01*
X0269000Y0046500D01*
X0271217Y0046500D01*
X0272000Y0047283D01*
X0272000Y0048000D01*
X0274000Y0050000D01*
X0274000Y0052559D01*
X0273559Y0053000D01*
X0271081Y0053229D02*
X0270919Y0053229D01*
X0270919Y0052231D02*
X0271081Y0052231D01*
X0271081Y0051232D02*
X0270919Y0051232D01*
X0270919Y0050773D02*
X0270919Y0055227D01*
X0270275Y0055872D01*
X0267908Y0055872D01*
X0268293Y0056128D01*
X0271589Y0056128D01*
X0271689Y0056028D01*
X0271960Y0055872D01*
X0271725Y0055872D01*
X0271081Y0055227D01*
X0271081Y0050773D01*
X0271725Y0050128D01*
X0271866Y0050128D01*
X0271794Y0050057D01*
X0269773Y0050057D01*
X0269128Y0049412D01*
X0269128Y0048144D01*
X0268877Y0048227D01*
X0268622Y0048100D01*
X0268337Y0048100D01*
X0268052Y0047815D01*
X0266622Y0047100D01*
X0266337Y0047100D01*
X0266052Y0046815D01*
X0265692Y0046635D01*
X0265602Y0046364D01*
X0265400Y0046163D01*
X0265400Y0045760D01*
X0265273Y0045377D01*
X0265400Y0045122D01*
X0265400Y0040663D01*
X0264337Y0039600D01*
X0263430Y0039600D01*
X0263637Y0039807D01*
X0263835Y0040149D01*
X0263937Y0040531D01*
X0263937Y0042311D01*
X0261248Y0042311D01*
X0261248Y0042689D01*
X0263937Y0042689D01*
X0263937Y0044469D01*
X0263835Y0044851D01*
X0263637Y0045193D01*
X0263358Y0045472D01*
X0263293Y0045509D01*
X0263557Y0045773D01*
X0263557Y0050227D01*
X0263274Y0050510D01*
X0263537Y0050773D01*
X0263537Y0051400D01*
X0265963Y0051400D01*
X0265963Y0050773D01*
X0266607Y0050128D01*
X0270275Y0050128D01*
X0270919Y0050773D01*
X0270380Y0050234D02*
X0271620Y0050234D01*
X0269128Y0049235D02*
X0263557Y0049235D01*
X0263557Y0048237D02*
X0269128Y0048237D01*
X0266898Y0047238D02*
X0263557Y0047238D01*
X0263557Y0046239D02*
X0265477Y0046239D01*
X0265341Y0045241D02*
X0263589Y0045241D01*
X0263937Y0044242D02*
X0265400Y0044242D01*
X0265400Y0043244D02*
X0263937Y0043244D01*
X0264500Y0042500D02*
X0261059Y0042500D01*
X0263937Y0042245D02*
X0265400Y0042245D01*
X0265400Y0041247D02*
X0263937Y0041247D01*
X0263861Y0040248D02*
X0264986Y0040248D01*
X0267000Y0040000D02*
X0265000Y0038000D01*
X0252000Y0038000D01*
X0243421Y0046579D01*
X0240850Y0046579D01*
X0240957Y0048441D02*
X0240850Y0048547D01*
X0246953Y0048547D01*
X0247500Y0048000D01*
X0249441Y0048000D01*
X0250500Y0046941D01*
X0255776Y0048441D01*
X0256217Y0048000D01*
X0255941Y0047724D01*
X0255941Y0042500D01*
X0246500Y0038961D02*
X0240850Y0044610D01*
X0224610Y0042150D02*
X0224610Y0042110D01*
X0220500Y0038000D01*
X0206000Y0038000D01*
X0198000Y0046000D01*
X0198000Y0056000D01*
X0193500Y0060500D01*
X0142500Y0060500D01*
X0141500Y0061500D01*
X0138460Y0061500D01*
X0131811Y0054852D01*
X0127702Y0053229D02*
X0114992Y0053229D01*
X0115990Y0054228D02*
X0126704Y0054228D01*
X0125705Y0055226D02*
X0116989Y0055226D01*
X0117987Y0056225D02*
X0124707Y0056225D01*
X0123708Y0057223D02*
X0118100Y0057223D01*
X0118100Y0058222D02*
X0122710Y0058222D01*
X0121711Y0059220D02*
X0118100Y0059220D01*
X0118100Y0060219D02*
X0120713Y0060219D01*
X0119149Y0061217D02*
X0118100Y0061217D01*
X0118100Y0062216D02*
X0118251Y0062216D01*
X0119688Y0062216D02*
X0119688Y0062216D01*
X0120687Y0063214D02*
X0120687Y0063214D01*
X0121685Y0064213D02*
X0121685Y0064213D01*
X0122068Y0064595D02*
X0122068Y0064595D01*
X0122068Y0064595D01*
X0125216Y0067744D01*
X0124687Y0068273D01*
X0124345Y0068471D01*
X0123963Y0068573D01*
X0123822Y0068573D01*
X0122995Y0069399D01*
X0124017Y0070422D01*
X0124956Y0069482D01*
X0125682Y0069482D01*
X0125582Y0069110D01*
X0125582Y0068715D01*
X0125685Y0068333D01*
X0125882Y0067991D01*
X0126862Y0067011D01*
X0129042Y0069190D01*
X0129309Y0068923D01*
X0127130Y0066743D01*
X0128110Y0065763D01*
X0128452Y0065566D01*
X0128834Y0065463D01*
X0129229Y0065463D01*
X0129610Y0065566D01*
X0129952Y0065763D01*
X0131211Y0067022D01*
X0129310Y0068923D01*
X0129577Y0069190D01*
X0131478Y0067289D01*
X0132737Y0068548D01*
X0132934Y0068890D01*
X0133037Y0069271D01*
X0133037Y0069666D01*
X0132934Y0070048D01*
X0132737Y0070390D01*
X0131757Y0071370D01*
X0129577Y0069191D01*
X0129310Y0069458D01*
X0131489Y0071637D01*
X0131227Y0071900D01*
X0132837Y0071900D01*
X0134959Y0069778D01*
X0135896Y0068841D01*
X0137128Y0068841D01*
X0137128Y0068607D01*
X0137773Y0067963D01*
X0141672Y0067963D01*
X0141672Y0065739D01*
X0141584Y0065615D01*
X0141672Y0065094D01*
X0141672Y0064566D01*
X0141779Y0064458D01*
X0141805Y0064308D01*
X0142235Y0064002D01*
X0142609Y0063628D01*
X0142761Y0063628D01*
X0142811Y0063593D01*
X0142811Y0063093D01*
X0143804Y0062100D01*
X0143163Y0062100D01*
X0142163Y0063100D01*
X0137797Y0063100D01*
X0136860Y0062163D01*
X0133546Y0058849D01*
X0132605Y0059789D01*
X0131213Y0061181D01*
X0129821Y0062573D01*
X0128429Y0063965D01*
X0127037Y0065357D01*
X0126045Y0066349D01*
X0126045Y0066491D01*
X0125943Y0066872D01*
X0125746Y0067214D01*
X0125216Y0067744D01*
X0122068Y0064595D01*
X0124473Y0067000D01*
X0127000Y0067000D01*
X0127310Y0067190D01*
X0129310Y0069190D01*
X0129500Y0069000D01*
X0133500Y0069000D01*
X0133019Y0069205D02*
X0135532Y0069205D01*
X0134534Y0070204D02*
X0132844Y0070204D01*
X0133535Y0071202D02*
X0131924Y0071202D01*
X0131589Y0071202D02*
X0131054Y0071202D01*
X0130590Y0070204D02*
X0130056Y0070204D01*
X0129592Y0069205D02*
X0129562Y0069205D01*
X0130026Y0068207D02*
X0130561Y0068207D01*
X0131024Y0067208D02*
X0141672Y0067208D01*
X0141672Y0066210D02*
X0130399Y0066210D01*
X0127663Y0066210D02*
X0126185Y0066210D01*
X0125749Y0067208D02*
X0126665Y0067208D01*
X0127060Y0067208D02*
X0127595Y0067208D01*
X0128059Y0068207D02*
X0128593Y0068207D01*
X0125758Y0068207D02*
X0124753Y0068207D01*
X0124681Y0067208D02*
X0124681Y0067208D01*
X0123682Y0066210D02*
X0123682Y0066210D01*
X0122684Y0065211D02*
X0122684Y0065211D01*
X0120676Y0065987D02*
X0120676Y0070176D01*
X0122000Y0071500D01*
X0125690Y0072810D01*
X0126381Y0073500D01*
X0133500Y0073500D01*
X0136559Y0070441D01*
X0140000Y0070441D01*
X0144872Y0068789D02*
X0145262Y0068399D01*
X0146390Y0067931D01*
X0147610Y0067931D01*
X0148738Y0068399D01*
X0149500Y0069160D01*
X0150262Y0068399D01*
X0151390Y0067931D01*
X0152610Y0067931D01*
X0153738Y0068399D01*
X0154235Y0068895D01*
X0154306Y0068789D01*
X0154789Y0068306D01*
X0155357Y0067926D01*
X0155988Y0067665D01*
X0156658Y0067531D01*
X0157000Y0067531D01*
X0157342Y0067531D01*
X0158012Y0067665D01*
X0158643Y0067926D01*
X0159211Y0068306D01*
X0159500Y0068595D01*
X0159789Y0068306D01*
X0160357Y0067926D01*
X0160988Y0067665D01*
X0161658Y0067531D01*
X0162000Y0067531D01*
X0162342Y0067531D01*
X0163012Y0067665D01*
X0163643Y0067926D01*
X0164211Y0068306D01*
X0164694Y0068789D01*
X0164765Y0068895D01*
X0165262Y0068399D01*
X0166390Y0067931D01*
X0167610Y0067931D01*
X0168738Y0068399D01*
X0169601Y0069262D01*
X0170068Y0070390D01*
X0170068Y0071610D01*
X0169601Y0072738D01*
X0168840Y0073500D01*
X0169601Y0074262D01*
X0170068Y0075390D01*
X0170068Y0076610D01*
X0169601Y0077738D01*
X0168738Y0078601D01*
X0167610Y0079068D01*
X0166390Y0079068D01*
X0165262Y0078601D01*
X0164500Y0077840D01*
X0163738Y0078601D01*
X0163600Y0078659D01*
X0163600Y0078663D01*
X0162663Y0079600D01*
X0162562Y0079701D01*
X0184376Y0079701D01*
X0184376Y0078973D01*
X0184193Y0079157D01*
X0183851Y0079354D01*
X0183469Y0079457D01*
X0181837Y0079457D01*
X0181837Y0076620D01*
X0181163Y0076620D01*
X0181163Y0075947D01*
X0178228Y0075947D01*
X0178228Y0074413D01*
X0178331Y0074031D01*
X0178528Y0073689D01*
X0178628Y0073589D01*
X0178628Y0069588D01*
X0179273Y0068943D01*
X0182010Y0068943D01*
X0184081Y0066872D01*
X0184376Y0066872D01*
X0184376Y0065851D01*
X0185021Y0065207D01*
X0190219Y0065207D01*
X0193026Y0062400D01*
X0203563Y0062400D01*
X0203563Y0060689D01*
X0206252Y0060689D01*
X0206252Y0060311D01*
X0206630Y0060311D01*
X0206630Y0057228D01*
X0207053Y0057228D01*
X0207053Y0055337D01*
X0206380Y0055337D01*
X0206380Y0058272D01*
X0206252Y0058272D01*
X0206252Y0060311D01*
X0203563Y0060311D01*
X0203563Y0058531D01*
X0203665Y0058149D01*
X0203863Y0057807D01*
X0203910Y0057760D01*
X0203843Y0057693D01*
X0203646Y0057351D01*
X0203543Y0056969D01*
X0203543Y0055337D01*
X0206380Y0055337D01*
X0206380Y0054663D01*
X0207053Y0054663D01*
X0207053Y0050337D01*
X0206380Y0050337D01*
X0206380Y0053272D01*
X0206380Y0054663D01*
X0203543Y0054663D01*
X0203543Y0053031D01*
X0203646Y0052649D01*
X0203732Y0052500D01*
X0203646Y0052351D01*
X0203543Y0051969D01*
X0203543Y0050337D01*
X0206380Y0050337D01*
X0206380Y0049663D01*
X0207053Y0049663D01*
X0207053Y0045337D01*
X0206380Y0045337D01*
X0206380Y0048272D01*
X0206380Y0049663D01*
X0203543Y0049663D01*
X0203543Y0048031D01*
X0203646Y0047649D01*
X0203732Y0047500D01*
X0203646Y0047351D01*
X0203543Y0046969D01*
X0203543Y0045337D01*
X0206380Y0045337D01*
X0206380Y0044663D01*
X0207053Y0044663D01*
X0207053Y0041728D01*
X0208587Y0041728D01*
X0208969Y0041831D01*
X0209311Y0042028D01*
X0209411Y0042128D01*
X0213412Y0042128D01*
X0214057Y0042773D01*
X0214057Y0043400D01*
X0214163Y0043400D01*
X0215663Y0044900D01*
X0215834Y0045071D01*
X0217093Y0043811D01*
X0218907Y0043811D01*
X0219376Y0044281D01*
X0219376Y0044100D01*
X0218966Y0043689D01*
X0218093Y0043689D01*
X0216811Y0042407D01*
X0216811Y0040593D01*
X0217804Y0039600D01*
X0206663Y0039600D01*
X0204388Y0041875D01*
X0204464Y0041831D01*
X0204846Y0041728D01*
X0206380Y0041728D01*
X0206380Y0044663D01*
X0203543Y0044663D01*
X0203543Y0043031D01*
X0203646Y0042649D01*
X0203690Y0042573D01*
X0199600Y0046663D01*
X0199600Y0056663D01*
X0198663Y0057600D01*
X0194163Y0062100D01*
X0146196Y0062100D01*
X0147189Y0063093D01*
X0147189Y0064907D01*
X0145907Y0066189D01*
X0144872Y0066189D01*
X0144872Y0068789D01*
X0144872Y0068207D02*
X0145725Y0068207D01*
X0144872Y0067208D02*
X0183746Y0067208D01*
X0184376Y0066210D02*
X0144872Y0066210D01*
X0143272Y0065228D02*
X0143272Y0072233D01*
X0140500Y0075005D01*
X0140000Y0075559D01*
X0146559Y0075559D01*
X0147000Y0076000D01*
X0160500Y0079500D02*
X0124500Y0079500D01*
X0118000Y0073000D01*
X0118000Y0068000D01*
X0116500Y0066500D01*
X0116500Y0057000D01*
X0111000Y0051500D01*
X0104540Y0051500D01*
X0101189Y0054852D01*
X0099797Y0053460D02*
X0103000Y0050256D01*
X0103000Y0049000D01*
X0105189Y0049235D02*
X0131697Y0049235D01*
X0132695Y0048237D02*
X0105189Y0048237D01*
X0104334Y0047238D02*
X0133694Y0047238D01*
X0134884Y0047238D02*
X0142258Y0047238D01*
X0141332Y0048237D02*
X0143257Y0048237D01*
X0144255Y0049235D02*
X0142189Y0049235D01*
X0142189Y0050234D02*
X0145254Y0050234D01*
X0146252Y0051232D02*
X0141864Y0051232D01*
X0140000Y0050000D02*
X0139324Y0050676D01*
X0135987Y0050676D01*
X0130698Y0050234D02*
X0111996Y0050234D01*
X0112995Y0051232D02*
X0129700Y0051232D01*
X0129658Y0051274D02*
X0129658Y0051274D01*
X0128701Y0052231D02*
X0113993Y0052231D01*
X0110466Y0053229D02*
X0105297Y0053229D01*
X0105186Y0053117D02*
X0105203Y0053100D01*
X0110337Y0053100D01*
X0114048Y0056811D01*
X0112593Y0056811D01*
X0112004Y0057400D01*
X0110297Y0057400D01*
X0109883Y0057814D01*
X0109342Y0057274D01*
X0109342Y0057132D01*
X0109240Y0056750D01*
X0109042Y0056408D01*
X0108513Y0055879D01*
X0105365Y0059027D01*
X0105364Y0059027D01*
X0108513Y0055879D01*
X0107984Y0055350D01*
X0107642Y0055152D01*
X0107260Y0055050D01*
X0107118Y0055050D01*
X0106158Y0054090D01*
X0105186Y0053117D01*
X0106296Y0054228D02*
X0111465Y0054228D01*
X0112463Y0055226D02*
X0107770Y0055226D01*
X0108167Y0056225D02*
X0108167Y0056225D01*
X0108859Y0056225D02*
X0113462Y0056225D01*
X0112181Y0057223D02*
X0109342Y0057223D01*
X0107169Y0057223D02*
X0107169Y0057223D01*
X0106170Y0058222D02*
X0106170Y0058222D01*
X0105364Y0059027D02*
X0102500Y0061892D01*
X0102500Y0063500D01*
X0102745Y0062705D02*
X0103087Y0062903D01*
X0103469Y0063005D01*
X0103611Y0063005D01*
X0104571Y0063965D01*
X0104571Y0063965D01*
X0104917Y0064311D01*
X0104093Y0064311D01*
X0102811Y0065593D01*
X0102811Y0067407D01*
X0103304Y0067900D01*
X0102996Y0067900D01*
X0102407Y0067311D01*
X0100750Y0067311D01*
X0102137Y0065924D01*
X0102137Y0065013D01*
X0100356Y0063232D01*
X0101814Y0061774D01*
X0102216Y0062176D01*
X0105364Y0059028D01*
X0105364Y0059027D01*
X0102216Y0062176D01*
X0102745Y0062705D01*
X0102256Y0062216D02*
X0101372Y0062216D01*
X0100374Y0063214D02*
X0103820Y0063214D01*
X0104818Y0064213D02*
X0101336Y0064213D01*
X0102137Y0065211D02*
X0103193Y0065211D01*
X0102811Y0066210D02*
X0101851Y0066210D01*
X0102811Y0067208D02*
X0100853Y0067208D01*
X0105000Y0066500D02*
X0106244Y0066500D01*
X0109540Y0063203D01*
X0108148Y0061811D02*
X0110960Y0059000D01*
X0113500Y0059000D01*
X0105172Y0059220D02*
X0105172Y0059220D01*
X0104173Y0060219D02*
X0104173Y0060219D01*
X0103175Y0061217D02*
X0103175Y0061217D01*
X0096593Y0056811D02*
X0095311Y0058093D01*
X0095311Y0058363D01*
X0094575Y0058363D01*
X0094528Y0058411D01*
X0094499Y0058382D01*
X0093830Y0058387D01*
X0093162Y0058365D01*
X0093132Y0058393D01*
X0087854Y0058439D01*
X0087157Y0058439D01*
X0087151Y0058445D01*
X0087142Y0058445D01*
X0086654Y0058942D01*
X0082449Y0063146D01*
X0064568Y0063146D01*
X0064568Y0062225D01*
X0064055Y0061712D01*
X0064390Y0061519D01*
X0064669Y0061240D01*
X0064866Y0060898D01*
X0064968Y0060516D01*
X0064968Y0058638D01*
X0061984Y0058638D01*
X0061984Y0057669D01*
X0061984Y0054488D01*
X0063666Y0054488D01*
X0064047Y0054590D01*
X0064390Y0054788D01*
X0064669Y0055067D01*
X0064866Y0055409D01*
X0064968Y0055791D01*
X0064968Y0057669D01*
X0061984Y0057669D01*
X0061016Y0057669D01*
X0061016Y0054488D01*
X0059334Y0054488D01*
X0058953Y0054590D01*
X0058610Y0054788D01*
X0058331Y0055067D01*
X0058134Y0055409D01*
X0058031Y0055791D01*
X0058031Y0057669D01*
X0061016Y0057669D01*
X0061016Y0058638D01*
X0058031Y0058638D01*
X0058031Y0060516D01*
X0058134Y0060898D01*
X0058331Y0061240D01*
X0058610Y0061519D01*
X0058945Y0061712D01*
X0058626Y0062031D01*
X0057407Y0060811D01*
X0055593Y0060811D01*
X0055304Y0061100D01*
X0053072Y0061100D01*
X0051959Y0062213D01*
X0051114Y0063057D01*
X0048801Y0063057D01*
X0048400Y0063458D01*
X0048400Y0059542D01*
X0048801Y0059943D01*
X0054436Y0059943D01*
X0055081Y0059298D01*
X0055081Y0056222D01*
X0054436Y0055577D01*
X0048801Y0055577D01*
X0048156Y0056222D01*
X0048156Y0057969D01*
X0047287Y0057100D01*
X0046360Y0056173D01*
X0052161Y0050372D01*
X0055775Y0050372D01*
X0056419Y0049727D01*
X0056419Y0045273D01*
X0055833Y0044687D01*
X0055898Y0044669D01*
X0056240Y0044472D01*
X0056519Y0044193D01*
X0056712Y0043858D01*
X0057225Y0044372D01*
X0057659Y0044372D01*
X0057659Y0044628D01*
X0057225Y0044628D01*
X0056581Y0045273D01*
X0056581Y0049727D01*
X0057225Y0050372D01*
X0060893Y0050372D01*
X0061537Y0049727D01*
X0061537Y0049100D01*
X0064015Y0049100D01*
X0067862Y0053353D01*
X0067862Y0053400D01*
X0068302Y0053840D01*
X0068720Y0054302D01*
X0068766Y0054304D01*
X0068799Y0054337D01*
X0069422Y0054337D01*
X0070044Y0054368D01*
X0070078Y0054337D01*
X0077508Y0054337D01*
X0079569Y0052276D01*
X0093435Y0052276D01*
X0093435Y0052830D01*
X0094859Y0054253D01*
X0096251Y0055645D01*
X0097417Y0056811D01*
X0096593Y0056811D01*
X0096181Y0057223D02*
X0064968Y0057223D01*
X0065500Y0057000D02*
X0062654Y0057000D01*
X0061500Y0058154D01*
X0061984Y0058222D02*
X0095311Y0058222D01*
X0096830Y0056225D02*
X0064968Y0056225D01*
X0064761Y0055226D02*
X0095832Y0055226D01*
X0094833Y0054228D02*
X0077617Y0054228D01*
X0078616Y0053229D02*
X0093835Y0053229D01*
X0097013Y0050676D02*
X0078906Y0050676D01*
X0076845Y0052737D01*
X0069462Y0052737D01*
X0064725Y0047500D01*
X0059059Y0047500D01*
X0056581Y0047238D02*
X0056419Y0047238D01*
X0056419Y0048237D02*
X0056581Y0048237D01*
X0056581Y0049235D02*
X0056419Y0049235D01*
X0055913Y0050234D02*
X0057087Y0050234D01*
X0061031Y0050234D02*
X0065040Y0050234D01*
X0065943Y0051232D02*
X0051301Y0051232D01*
X0050302Y0052231D02*
X0066846Y0052231D01*
X0067749Y0053229D02*
X0049304Y0053229D01*
X0048305Y0054228D02*
X0068653Y0054228D01*
X0061984Y0055226D02*
X0061016Y0055226D01*
X0061016Y0056225D02*
X0061984Y0056225D01*
X0061984Y0057223D02*
X0061016Y0057223D01*
X0061016Y0058222D02*
X0055081Y0058222D01*
X0055081Y0059220D02*
X0058031Y0059220D01*
X0058031Y0060219D02*
X0048400Y0060219D01*
X0048400Y0061217D02*
X0052955Y0061217D01*
X0051956Y0062216D02*
X0048400Y0062216D01*
X0048400Y0063214D02*
X0048644Y0063214D01*
X0048156Y0065211D02*
X0047476Y0065211D01*
X0048156Y0066210D02*
X0046477Y0066210D01*
X0044414Y0067208D02*
X0048586Y0067208D01*
X0049311Y0068207D02*
X0032990Y0068207D01*
X0033000Y0068312D02*
X0033000Y0068500D01*
X0019500Y0068500D01*
X0019500Y0055000D01*
X0019688Y0055000D01*
X0021057Y0055135D01*
X0022406Y0055403D01*
X0023722Y0055802D01*
X0023988Y0055913D01*
X0023988Y0054484D01*
X0027169Y0054484D01*
X0027169Y0057468D01*
X0026941Y0057468D01*
X0027350Y0057742D01*
X0028413Y0058614D01*
X0029386Y0059587D01*
X0030258Y0060650D01*
X0031023Y0061794D01*
X0031671Y0063007D01*
X0032198Y0064278D01*
X0032597Y0065594D01*
X0032865Y0066943D01*
X0033000Y0068312D01*
X0032891Y0067208D02*
X0038349Y0067208D01*
X0037919Y0066210D02*
X0032719Y0066210D01*
X0032481Y0065211D02*
X0037919Y0065211D01*
X0037919Y0064213D02*
X0032171Y0064213D01*
X0031757Y0063214D02*
X0037652Y0063214D01*
X0037519Y0062216D02*
X0031248Y0062216D01*
X0030637Y0061217D02*
X0037519Y0061217D01*
X0037520Y0060219D02*
X0029904Y0060219D01*
X0029019Y0059220D02*
X0037919Y0059220D01*
X0037513Y0058222D02*
X0027935Y0058222D01*
X0028138Y0057223D02*
X0027169Y0057223D01*
X0027654Y0056654D02*
X0029000Y0058000D01*
X0019000Y0069000D01*
X0019500Y0069205D02*
X0049610Y0069205D01*
X0051500Y0068000D02*
X0051500Y0065359D01*
X0051619Y0065240D01*
X0052012Y0064846D01*
X0061500Y0064846D01*
X0058431Y0067208D02*
X0054651Y0067208D01*
X0053689Y0068207D02*
X0090518Y0068207D01*
X0090059Y0067208D02*
X0089524Y0067208D01*
X0089519Y0067208D02*
X0064568Y0067208D01*
X0053390Y0069205D02*
X0091621Y0069205D01*
X0091690Y0068310D02*
X0091690Y0065310D01*
X0091521Y0065211D02*
X0091325Y0065211D01*
X0091691Y0065577D02*
X0092931Y0066818D01*
X0094923Y0068809D01*
X0095190Y0068542D01*
X0093635Y0066986D01*
X0091958Y0065310D01*
X0091691Y0065577D01*
X0092323Y0066210D02*
X0092858Y0066210D01*
X0093322Y0067208D02*
X0093856Y0067208D01*
X0094320Y0068207D02*
X0094855Y0068207D01*
X0095190Y0068810D02*
X0094000Y0070000D01*
X0090000Y0070000D01*
X0091690Y0068310D01*
X0094527Y0069205D02*
X0095062Y0069205D01*
X0095319Y0069205D02*
X0095853Y0069205D01*
X0096317Y0070204D02*
X0096852Y0070204D01*
X0097316Y0071202D02*
X0100107Y0071202D01*
X0099311Y0070204D02*
X0098423Y0070204D01*
X0098918Y0069205D02*
X0099311Y0069205D01*
X0101500Y0069500D02*
X0106027Y0069500D01*
X0110932Y0064595D01*
X0112324Y0065987D02*
X0108000Y0070311D01*
X0108000Y0077000D01*
X0110189Y0077193D02*
X0119931Y0077193D01*
X0120929Y0078192D02*
X0109904Y0078192D01*
X0110189Y0076195D02*
X0118932Y0076195D01*
X0117934Y0075196D02*
X0109600Y0075196D01*
X0109600Y0074198D02*
X0116935Y0074198D01*
X0116400Y0073199D02*
X0109600Y0073199D01*
X0109600Y0072201D02*
X0116400Y0072201D01*
X0116400Y0071202D02*
X0109600Y0071202D01*
X0110370Y0070204D02*
X0116400Y0070204D01*
X0116400Y0069205D02*
X0111441Y0069205D01*
X0112440Y0068207D02*
X0115944Y0068207D01*
X0114945Y0067208D02*
X0113438Y0067208D01*
X0114437Y0066210D02*
X0114900Y0066210D01*
X0123189Y0069205D02*
X0125608Y0069205D01*
X0124235Y0070204D02*
X0123799Y0070204D01*
X0132396Y0068207D02*
X0137529Y0068207D01*
X0141652Y0065211D02*
X0127183Y0065211D01*
X0127037Y0065357D02*
X0127037Y0065357D01*
X0128182Y0064213D02*
X0141939Y0064213D01*
X0142811Y0063214D02*
X0129180Y0063214D01*
X0130179Y0062216D02*
X0136913Y0062216D01*
X0135914Y0061217D02*
X0131177Y0061217D01*
X0132176Y0060219D02*
X0134916Y0060219D01*
X0133917Y0059220D02*
X0133174Y0059220D01*
X0143047Y0062216D02*
X0143689Y0062216D01*
X0146311Y0062216D02*
X0203563Y0062216D01*
X0203563Y0061217D02*
X0195046Y0061217D01*
X0196044Y0060219D02*
X0203563Y0060219D01*
X0203563Y0059220D02*
X0197043Y0059220D01*
X0198041Y0058222D02*
X0203646Y0058222D01*
X0203611Y0057223D02*
X0199040Y0057223D01*
X0199600Y0056225D02*
X0203543Y0056225D01*
X0206380Y0056225D02*
X0207053Y0056225D01*
X0207053Y0057223D02*
X0206380Y0057223D01*
X0206380Y0058222D02*
X0206630Y0058222D01*
X0206630Y0059220D02*
X0206252Y0059220D01*
X0206252Y0060219D02*
X0206630Y0060219D01*
X0206441Y0060500D02*
X0206441Y0055276D01*
X0206717Y0055000D01*
X0200500Y0055000D01*
X0199600Y0055226D02*
X0206380Y0055226D01*
X0206380Y0054228D02*
X0207053Y0054228D01*
X0207053Y0053229D02*
X0206380Y0053229D01*
X0206380Y0052231D02*
X0207053Y0052231D01*
X0207053Y0051232D02*
X0206380Y0051232D01*
X0206380Y0050234D02*
X0199600Y0050234D01*
X0199600Y0051232D02*
X0203543Y0051232D01*
X0203613Y0052231D02*
X0199600Y0052231D01*
X0199600Y0053229D02*
X0203543Y0053229D01*
X0203543Y0054228D02*
X0199600Y0054228D01*
X0201000Y0050000D02*
X0206717Y0050000D01*
X0206717Y0045000D01*
X0206380Y0045241D02*
X0201022Y0045241D01*
X0202020Y0044242D02*
X0203543Y0044242D01*
X0203543Y0043244D02*
X0203019Y0043244D01*
X0206380Y0043244D02*
X0207053Y0043244D01*
X0207053Y0044242D02*
X0206380Y0044242D01*
X0206380Y0042245D02*
X0207053Y0042245D01*
X0205016Y0041247D02*
X0216811Y0041247D01*
X0216811Y0042245D02*
X0213529Y0042245D01*
X0214057Y0043244D02*
X0217648Y0043244D01*
X0216662Y0044242D02*
X0215005Y0044242D01*
X0213500Y0045000D02*
X0215000Y0046500D01*
X0215000Y0048000D01*
X0215589Y0048589D01*
X0218865Y0048589D01*
X0218907Y0048547D01*
X0222150Y0048547D01*
X0222150Y0046579D02*
X0222071Y0046500D01*
X0219500Y0046500D01*
X0218000Y0046000D01*
X0219338Y0044242D02*
X0219376Y0044242D01*
X0219500Y0041961D02*
X0222150Y0044610D01*
X0213500Y0045000D02*
X0211283Y0045000D01*
X0207053Y0046239D02*
X0206380Y0046239D01*
X0206380Y0047238D02*
X0207053Y0047238D01*
X0207053Y0048237D02*
X0206380Y0048237D01*
X0206380Y0049235D02*
X0207053Y0049235D01*
X0203543Y0049235D02*
X0199600Y0049235D01*
X0199600Y0048237D02*
X0203543Y0048237D01*
X0203615Y0047238D02*
X0199600Y0047238D01*
X0200023Y0046239D02*
X0203543Y0046239D01*
X0211283Y0050000D02*
X0211283Y0055000D01*
X0213283Y0053000D01*
X0216830Y0053000D01*
X0216500Y0053330D01*
X0216500Y0056500D01*
X0218390Y0058390D01*
X0222150Y0058390D01*
X0224610Y0060850D02*
X0211909Y0060850D01*
X0211559Y0060500D01*
X0226000Y0064000D02*
X0193689Y0064000D01*
X0189217Y0068472D01*
X0184744Y0068472D01*
X0181500Y0071717D01*
X0184372Y0072201D02*
X0208228Y0072201D01*
X0208228Y0072053D02*
X0211163Y0072053D01*
X0211163Y0071380D01*
X0208337Y0071380D01*
X0207979Y0071738D01*
X0199588Y0071738D01*
X0198943Y0071093D01*
X0198943Y0065851D01*
X0199195Y0065600D01*
X0194352Y0065600D01*
X0194057Y0065895D01*
X0194057Y0071093D01*
X0193412Y0071738D01*
X0185021Y0071738D01*
X0184381Y0071098D01*
X0184372Y0071108D01*
X0184372Y0073589D01*
X0184472Y0073689D01*
X0184669Y0074031D01*
X0184772Y0074413D01*
X0184772Y0074511D01*
X0185021Y0074262D01*
X0193412Y0074262D01*
X0194057Y0074907D01*
X0194057Y0079701D01*
X0198943Y0079701D01*
X0198943Y0074907D01*
X0199588Y0074262D01*
X0207979Y0074262D01*
X0208401Y0074683D01*
X0208628Y0074683D01*
X0208628Y0074411D01*
X0208528Y0074311D01*
X0208331Y0073969D01*
X0208228Y0073587D01*
X0208228Y0072053D01*
X0208228Y0073199D02*
X0184372Y0073199D01*
X0184714Y0074198D02*
X0208463Y0074198D01*
X0211500Y0071717D02*
X0211500Y0067500D01*
X0211837Y0068543D02*
X0213469Y0068543D01*
X0213851Y0068646D01*
X0214193Y0068843D01*
X0214472Y0069122D01*
X0214669Y0069464D01*
X0214772Y0069846D01*
X0214772Y0071380D01*
X0211837Y0071380D01*
X0211837Y0072053D01*
X0214772Y0072053D01*
X0214772Y0073466D01*
X0215614Y0072623D01*
X0217900Y0066223D01*
X0217900Y0065837D01*
X0218114Y0065623D01*
X0218122Y0065600D01*
X0208372Y0065600D01*
X0208624Y0065851D01*
X0208624Y0069027D01*
X0208807Y0068843D01*
X0209149Y0068646D01*
X0209531Y0068543D01*
X0211163Y0068543D01*
X0211163Y0071380D01*
X0211837Y0071380D01*
X0211837Y0068543D01*
X0211837Y0069205D02*
X0211163Y0069205D01*
X0211163Y0070204D02*
X0211837Y0070204D01*
X0211837Y0071202D02*
X0211163Y0071202D01*
X0214772Y0071202D02*
X0216122Y0071202D01*
X0216478Y0070204D02*
X0214772Y0070204D01*
X0214520Y0069205D02*
X0216835Y0069205D01*
X0217191Y0068207D02*
X0208624Y0068207D01*
X0208624Y0067208D02*
X0217548Y0067208D01*
X0217900Y0066210D02*
X0208624Y0066210D01*
X0198943Y0066210D02*
X0194057Y0066210D01*
X0194057Y0067208D02*
X0198943Y0067208D01*
X0198943Y0068207D02*
X0194057Y0068207D01*
X0194057Y0069205D02*
X0198943Y0069205D01*
X0198943Y0070204D02*
X0194057Y0070204D01*
X0193948Y0071202D02*
X0199052Y0071202D01*
X0198943Y0075196D02*
X0194057Y0075196D01*
X0194057Y0076195D02*
X0198943Y0076195D01*
X0198943Y0077193D02*
X0194057Y0077193D01*
X0194057Y0078192D02*
X0198943Y0078192D01*
X0198943Y0079190D02*
X0194057Y0079190D01*
X0184376Y0079190D02*
X0184135Y0079190D01*
X0181837Y0079190D02*
X0181163Y0079190D01*
X0181163Y0079457D02*
X0179531Y0079457D01*
X0179149Y0079354D01*
X0178807Y0079157D01*
X0178528Y0078878D01*
X0178331Y0078536D01*
X0178228Y0078154D01*
X0178228Y0076620D01*
X0181163Y0076620D01*
X0181163Y0079457D01*
X0178865Y0079190D02*
X0163072Y0079190D01*
X0164148Y0078192D02*
X0164852Y0078192D01*
X0162000Y0078000D02*
X0162000Y0076000D01*
X0162000Y0078000D02*
X0160500Y0079500D01*
X0169148Y0078192D02*
X0178238Y0078192D01*
X0178228Y0077193D02*
X0169827Y0077193D01*
X0170068Y0076195D02*
X0181163Y0076195D01*
X0181283Y0076500D02*
X0181500Y0076283D01*
X0181283Y0076500D02*
X0177500Y0076500D01*
X0181163Y0077193D02*
X0181837Y0077193D01*
X0181837Y0078192D02*
X0181163Y0078192D01*
X0178228Y0075196D02*
X0169988Y0075196D01*
X0169537Y0074198D02*
X0178286Y0074198D01*
X0178628Y0073199D02*
X0169140Y0073199D01*
X0169824Y0072201D02*
X0178628Y0072201D01*
X0178628Y0071202D02*
X0170068Y0071202D01*
X0169991Y0070204D02*
X0178628Y0070204D01*
X0179011Y0069205D02*
X0169545Y0069205D01*
X0168275Y0068207D02*
X0182747Y0068207D01*
X0184372Y0071202D02*
X0184485Y0071202D01*
X0185017Y0065211D02*
X0146884Y0065211D01*
X0147189Y0064213D02*
X0191214Y0064213D01*
X0192212Y0063214D02*
X0147189Y0063214D01*
X0145000Y0064000D02*
X0143272Y0065228D01*
X0148275Y0068207D02*
X0150725Y0068207D01*
X0153275Y0068207D02*
X0154937Y0068207D01*
X0157000Y0068207D02*
X0157000Y0068207D01*
X0157000Y0067531D02*
X0157000Y0071000D01*
X0162000Y0071000D01*
X0162000Y0067531D01*
X0162000Y0071000D01*
X0162000Y0071000D01*
X0162000Y0071000D01*
X0158531Y0071000D01*
X0157000Y0071000D01*
X0157000Y0071000D01*
X0157000Y0071000D01*
X0157000Y0067531D01*
X0159063Y0068207D02*
X0159937Y0068207D01*
X0162000Y0068207D02*
X0162000Y0068207D01*
X0162000Y0069205D02*
X0162000Y0069205D01*
X0162000Y0070204D02*
X0162000Y0070204D01*
X0157000Y0070204D02*
X0157000Y0070204D01*
X0157000Y0069205D02*
X0157000Y0069205D01*
X0164063Y0068207D02*
X0165725Y0068207D01*
X0121928Y0079190D02*
X0028609Y0079190D01*
X0029567Y0078192D02*
X0106096Y0078192D01*
X0105811Y0077193D02*
X0030363Y0077193D01*
X0031029Y0076195D02*
X0105811Y0076195D01*
X0106400Y0075196D02*
X0031562Y0075196D01*
X0032000Y0074198D02*
X0106400Y0074198D01*
X0106400Y0073199D02*
X0032356Y0073199D01*
X0032638Y0072201D02*
X0094512Y0072201D01*
X0093513Y0071202D02*
X0032836Y0071202D01*
X0032949Y0070204D02*
X0092515Y0070204D01*
X0093529Y0070204D02*
X0094063Y0070204D01*
X0096426Y0072201D02*
X0106400Y0072201D01*
X0106400Y0071202D02*
X0102893Y0071202D01*
X0091058Y0066210D02*
X0090523Y0066210D01*
X0088521Y0066210D02*
X0084194Y0066210D01*
X0085193Y0065211D02*
X0087963Y0065211D01*
X0088204Y0064213D02*
X0086191Y0064213D01*
X0087190Y0063214D02*
X0089159Y0063214D01*
X0089328Y0063214D02*
X0089862Y0063214D01*
X0090158Y0062216D02*
X0088188Y0062216D01*
X0084379Y0061217D02*
X0064682Y0061217D01*
X0064559Y0062216D02*
X0083380Y0062216D01*
X0085377Y0060219D02*
X0064968Y0060219D01*
X0064968Y0059220D02*
X0086376Y0059220D01*
X0090326Y0064213D02*
X0090861Y0064213D01*
X0058318Y0061217D02*
X0057813Y0061217D01*
X0058031Y0057223D02*
X0055081Y0057223D01*
X0055081Y0056225D02*
X0058031Y0056225D01*
X0058239Y0055226D02*
X0047307Y0055226D01*
X0048156Y0056225D02*
X0046412Y0056225D01*
X0047410Y0057223D02*
X0048156Y0057223D01*
X0042510Y0057760D02*
X0052770Y0047500D01*
X0051463Y0046239D02*
X0039700Y0046239D01*
X0039700Y0045241D02*
X0051495Y0045241D01*
X0051412Y0044242D02*
X0039700Y0044242D01*
X0039402Y0043244D02*
X0051063Y0043244D01*
X0051063Y0042245D02*
X0038564Y0042245D01*
X0032436Y0042245D02*
X0008500Y0042245D01*
X0008500Y0041247D02*
X0051063Y0041247D01*
X0051063Y0041311D02*
X0051063Y0039531D01*
X0051165Y0039149D01*
X0051363Y0038807D01*
X0051642Y0038528D01*
X0051984Y0038331D01*
X0052366Y0038228D01*
X0053752Y0038228D01*
X0053752Y0041311D01*
X0051063Y0041311D01*
X0051063Y0040248D02*
X0008500Y0040248D01*
X0008500Y0039250D02*
X0051138Y0039250D01*
X0052280Y0038251D02*
X0008500Y0038251D01*
X0008500Y0037253D02*
X0042990Y0037253D01*
X0044500Y0036500D02*
X0040500Y0032500D01*
X0040500Y0020441D01*
X0039559Y0019500D01*
X0034000Y0021227D02*
X0034000Y0021500D01*
X0034000Y0024000D01*
X0038900Y0025271D02*
X0008500Y0025271D01*
X0008500Y0026269D02*
X0038900Y0026269D01*
X0038900Y0027268D02*
X0008500Y0027268D01*
X0008500Y0028266D02*
X0038900Y0028266D01*
X0038900Y0029265D02*
X0008500Y0029265D01*
X0008500Y0030263D02*
X0038900Y0030263D01*
X0038900Y0031262D02*
X0008500Y0031262D01*
X0008500Y0032260D02*
X0038900Y0032260D01*
X0038996Y0033259D02*
X0008500Y0033259D01*
X0008500Y0034257D02*
X0039995Y0034257D01*
X0040993Y0035256D02*
X0008500Y0035256D01*
X0008500Y0036254D02*
X0041992Y0036254D01*
X0044500Y0036500D02*
X0058500Y0036500D01*
X0060059Y0034941D01*
X0061500Y0036382D01*
X0061500Y0036500D01*
X0063689Y0037253D02*
X0070068Y0037253D01*
X0068254Y0038251D02*
X0062844Y0038251D01*
X0061514Y0039250D02*
X0067255Y0039250D01*
X0066371Y0040248D02*
X0061537Y0040248D01*
X0061537Y0041247D02*
X0065957Y0041247D01*
X0065544Y0042245D02*
X0061537Y0042245D01*
X0061537Y0043244D02*
X0065248Y0043244D01*
X0065248Y0044242D02*
X0061022Y0044242D01*
X0061505Y0045241D02*
X0065248Y0045241D01*
X0057096Y0044242D02*
X0056469Y0044242D01*
X0056387Y0045241D02*
X0056613Y0045241D01*
X0056581Y0046239D02*
X0056419Y0046239D01*
X0050769Y0047238D02*
X0040556Y0047238D01*
X0041555Y0048237D02*
X0049771Y0048237D01*
X0048772Y0049235D02*
X0042553Y0049235D01*
X0043105Y0050234D02*
X0047774Y0050234D01*
X0046775Y0051232D02*
X0043200Y0051232D01*
X0043200Y0052231D02*
X0045777Y0052231D01*
X0044778Y0053229D02*
X0043200Y0053229D01*
X0043200Y0054228D02*
X0043780Y0054228D01*
X0040500Y0056000D02*
X0040500Y0056878D01*
X0041381Y0057760D01*
X0038500Y0061500D02*
X0035000Y0058000D01*
X0029000Y0058000D01*
X0030646Y0057223D02*
X0035917Y0057223D01*
X0028138Y0056225D02*
X0027169Y0056225D01*
X0027654Y0056654D02*
X0027654Y0054000D01*
X0027169Y0054228D02*
X0008500Y0054228D01*
X0008500Y0055226D02*
X0016485Y0055226D01*
X0018500Y0055226D02*
X0019500Y0055226D01*
X0019500Y0056225D02*
X0018500Y0056225D01*
X0018500Y0057223D02*
X0019500Y0057223D01*
X0019500Y0058222D02*
X0018500Y0058222D01*
X0018500Y0059220D02*
X0019500Y0059220D01*
X0019500Y0060219D02*
X0018500Y0060219D01*
X0018500Y0061217D02*
X0019500Y0061217D01*
X0019500Y0062216D02*
X0018500Y0062216D01*
X0018500Y0063214D02*
X0019500Y0063214D01*
X0019500Y0064213D02*
X0018500Y0064213D01*
X0018500Y0065211D02*
X0019500Y0065211D01*
X0019500Y0066210D02*
X0018500Y0066210D01*
X0018500Y0067208D02*
X0019500Y0067208D01*
X0019500Y0068207D02*
X0018500Y0068207D01*
X0038500Y0061500D02*
X0041381Y0061500D01*
X0028138Y0055226D02*
X0027169Y0055226D01*
X0023988Y0055226D02*
X0021515Y0055226D01*
X0023988Y0053229D02*
X0008500Y0053229D01*
X0008500Y0052231D02*
X0023988Y0052231D01*
X0024218Y0051232D02*
X0008500Y0051232D01*
X0008500Y0050234D02*
X0035915Y0050234D01*
X0031917Y0049235D02*
X0008500Y0049235D01*
X0008500Y0048237D02*
X0031383Y0048237D01*
X0031300Y0047238D02*
X0008500Y0047238D01*
X0008500Y0046239D02*
X0031600Y0046239D01*
X0031384Y0045241D02*
X0008500Y0045241D01*
X0008500Y0044242D02*
X0031300Y0044242D01*
X0031598Y0043244D02*
X0008500Y0043244D01*
X0027169Y0051232D02*
X0028138Y0051232D01*
X0028138Y0052231D02*
X0027169Y0052231D01*
X0027169Y0053229D02*
X0028138Y0053229D01*
X0031089Y0051232D02*
X0031425Y0051232D01*
X0013259Y0056225D02*
X0008500Y0056225D01*
X0008500Y0057223D02*
X0011426Y0057223D01*
X0010065Y0058222D02*
X0008500Y0058222D01*
X0008500Y0059220D02*
X0008981Y0059220D01*
X0061537Y0049235D02*
X0064137Y0049235D01*
X0080176Y0048237D02*
X0097117Y0048237D01*
X0098115Y0047238D02*
X0080589Y0047238D01*
X0081003Y0046239D02*
X0141260Y0046239D01*
X0140261Y0045241D02*
X0135405Y0045241D01*
X0136404Y0044242D02*
X0139263Y0044242D01*
X0133173Y0045241D02*
X0099827Y0045241D01*
X0100826Y0044242D02*
X0132174Y0044242D01*
X0131176Y0043244D02*
X0101824Y0043244D01*
X0102823Y0042245D02*
X0130177Y0042245D01*
X0129178Y0041247D02*
X0103821Y0041247D01*
X0103342Y0041726D02*
X0103342Y0041726D01*
X0105386Y0040248D02*
X0128180Y0040248D01*
X0127181Y0039250D02*
X0106331Y0039250D01*
X0106817Y0038251D02*
X0126183Y0038251D01*
X0124619Y0037253D02*
X0124343Y0037253D01*
X0120657Y0037253D02*
X0107816Y0037253D01*
X0104076Y0038251D02*
X0104075Y0038251D01*
X0103077Y0037253D02*
X0103077Y0037253D01*
X0102581Y0036756D02*
X0110824Y0045000D01*
X0115000Y0045000D01*
X0101666Y0047238D02*
X0099306Y0047238D01*
X0100305Y0048237D02*
X0100811Y0048237D01*
X0097594Y0045241D02*
X0081059Y0045241D01*
X0081059Y0044242D02*
X0096596Y0044242D01*
X0095597Y0043244D02*
X0081059Y0043244D01*
X0080125Y0038251D02*
X0078054Y0038251D01*
X0079126Y0037253D02*
X0076239Y0037253D01*
X0079361Y0037253D02*
X0079895Y0037253D01*
X0067500Y0033000D02*
X0060059Y0033000D01*
X0060059Y0034941D01*
X0057581Y0034257D02*
X0057419Y0034257D01*
X0057419Y0033259D02*
X0057581Y0033259D01*
X0057581Y0032260D02*
X0057419Y0032260D01*
X0057419Y0031262D02*
X0057581Y0031262D01*
X0058091Y0030263D02*
X0056909Y0030263D01*
X0053441Y0031500D02*
X0051500Y0031500D01*
X0049500Y0029500D01*
X0045689Y0029500D01*
X0048762Y0027268D02*
X0061172Y0027268D01*
X0060811Y0026269D02*
X0049225Y0026269D01*
X0045689Y0024500D02*
X0061500Y0024500D01*
X0063000Y0026000D01*
X0072911Y0023274D02*
X0075011Y0023274D01*
X0074012Y0022275D02*
X0072392Y0022275D01*
X0072840Y0021277D02*
X0073014Y0021277D01*
X0076541Y0020278D02*
X0077015Y0020278D01*
X0077539Y0021277D02*
X0078014Y0021277D01*
X0078538Y0022275D02*
X0079012Y0022275D01*
X0079536Y0023274D02*
X0079811Y0023274D01*
X0082000Y0023000D02*
X0073500Y0014500D01*
X0069311Y0014500D01*
X0072833Y0016284D02*
X0073021Y0016284D01*
X0072399Y0017283D02*
X0074020Y0017283D01*
X0074544Y0018281D02*
X0075018Y0018281D01*
X0075542Y0019280D02*
X0076017Y0019280D01*
X0073500Y0019500D02*
X0080000Y0026000D01*
X0094480Y0027520D02*
X0094480Y0037007D01*
X0096080Y0036254D02*
X0097351Y0036254D01*
X0097643Y0035963D02*
X0097643Y0035963D01*
X0101080Y0035256D02*
X0101080Y0035256D01*
X0102078Y0036254D02*
X0102079Y0036254D01*
X0103973Y0035364D02*
X0101500Y0032892D01*
X0101500Y0031500D01*
X0106690Y0026310D01*
X0112917Y0025271D02*
X0119400Y0025271D01*
X0119177Y0024272D02*
X0111919Y0024272D01*
X0111239Y0023274D02*
X0118811Y0023274D01*
X0121000Y0023000D02*
X0121000Y0026689D01*
X0119084Y0026269D02*
X0113916Y0026269D01*
X0114914Y0027268D02*
X0118086Y0027268D01*
X0117098Y0028266D02*
X0115902Y0028266D01*
X0115804Y0029265D02*
X0117196Y0029265D01*
X0118195Y0030263D02*
X0114805Y0030263D01*
X0113807Y0031262D02*
X0119193Y0031262D01*
X0117644Y0032260D02*
X0112808Y0032260D01*
X0111810Y0033259D02*
X0117311Y0033259D01*
X0117311Y0034257D02*
X0110811Y0034257D01*
X0109813Y0035256D02*
X0118160Y0035256D01*
X0120311Y0036254D02*
X0108814Y0036254D01*
X0100082Y0034257D02*
X0100081Y0034257D01*
X0119756Y0033500D02*
X0123460Y0029797D01*
X0124852Y0031189D02*
X0129500Y0026540D01*
X0130829Y0028266D02*
X0136311Y0028266D01*
X0136311Y0027268D02*
X0131689Y0027268D01*
X0131689Y0026269D02*
X0137135Y0026269D01*
X0139865Y0026269D02*
X0141128Y0026269D01*
X0142400Y0025271D02*
X0131366Y0025271D01*
X0128689Y0024272D02*
X0142400Y0024272D01*
X0142400Y0023274D02*
X0128689Y0023274D01*
X0127871Y0022275D02*
X0141128Y0022275D01*
X0141128Y0021277D02*
X0122372Y0021277D01*
X0123189Y0022275D02*
X0125129Y0022275D01*
X0124311Y0023274D02*
X0123189Y0023274D01*
X0123667Y0024272D02*
X0123938Y0024272D01*
X0126473Y0024000D02*
X0122068Y0028405D01*
X0129038Y0029265D02*
X0136669Y0029265D01*
X0138500Y0028000D02*
X0143556Y0028000D01*
X0144000Y0027556D01*
X0144000Y0020559D01*
X0146872Y0020278D02*
X0150183Y0020278D01*
X0149311Y0019280D02*
X0146872Y0019280D01*
X0146427Y0018281D02*
X0149311Y0018281D01*
X0149622Y0017283D02*
X0147200Y0017283D01*
X0147272Y0016284D02*
X0170620Y0016284D01*
X0173380Y0016284D02*
X0177811Y0016284D01*
X0178000Y0016441D02*
X0183500Y0016441D01*
X0184000Y0016941D01*
X0188559Y0016941D01*
X0189000Y0016500D01*
X0184189Y0016284D02*
X0183811Y0016284D01*
X0183811Y0015286D02*
X0184189Y0015286D01*
X0184189Y0014287D02*
X0183811Y0014287D01*
X0181438Y0014287D02*
X0181056Y0014287D01*
X0178189Y0014287D02*
X0177811Y0014287D01*
X0177811Y0015286D02*
X0178189Y0015286D01*
X0174944Y0014287D02*
X0147272Y0014287D01*
X0144189Y0015286D02*
X0174728Y0015286D01*
X0174728Y0017283D02*
X0174189Y0017283D01*
X0174189Y0018281D02*
X0174799Y0018281D01*
X0175574Y0019280D02*
X0173816Y0019280D01*
X0172000Y0018000D02*
X0171500Y0018500D01*
X0151500Y0018500D01*
X0152817Y0020278D02*
X0168435Y0020278D01*
X0167563Y0021277D02*
X0146872Y0021277D01*
X0146872Y0022275D02*
X0166692Y0022275D01*
X0165820Y0023274D02*
X0145600Y0023274D01*
X0145600Y0024272D02*
X0156632Y0024272D01*
X0156311Y0025271D02*
X0154861Y0025271D01*
X0155922Y0026269D02*
X0156311Y0026269D01*
X0156395Y0027268D02*
X0157172Y0027268D01*
X0156596Y0028266D02*
X0166404Y0028266D01*
X0166411Y0029265D02*
X0156589Y0029265D01*
X0156175Y0030263D02*
X0166825Y0030263D01*
X0167609Y0031262D02*
X0155391Y0031262D01*
X0153700Y0032260D02*
X0169300Y0032260D01*
X0169300Y0033259D02*
X0153700Y0033259D01*
X0153700Y0034257D02*
X0169300Y0034257D01*
X0169300Y0035256D02*
X0153700Y0035256D01*
X0153700Y0036254D02*
X0164483Y0036254D01*
X0163484Y0037253D02*
X0153700Y0037253D01*
X0153700Y0038251D02*
X0162486Y0038251D01*
X0161487Y0039250D02*
X0154099Y0039250D01*
X0154100Y0040248D02*
X0160489Y0040248D01*
X0156000Y0040000D02*
X0155750Y0040250D01*
X0150800Y0040250D01*
X0154100Y0040250D01*
X0150800Y0040250D01*
X0150800Y0040250D01*
X0150800Y0040250D01*
X0147500Y0040250D01*
X0147500Y0041247D01*
X0147500Y0040250D02*
X0147500Y0039253D01*
X0147602Y0038871D01*
X0147800Y0038529D01*
X0147900Y0038429D01*
X0147900Y0034150D01*
X0146872Y0034150D01*
X0146872Y0034893D01*
X0146227Y0035537D01*
X0141773Y0035537D01*
X0141128Y0034893D01*
X0141128Y0031225D01*
X0141128Y0032260D02*
X0131655Y0032260D01*
X0132653Y0033259D02*
X0141128Y0033259D01*
X0141128Y0034257D02*
X0133652Y0034257D01*
X0134650Y0035256D02*
X0141492Y0035256D01*
X0146508Y0035256D02*
X0147900Y0035256D01*
X0147900Y0036254D02*
X0135649Y0036254D01*
X0140233Y0037253D02*
X0147900Y0037253D01*
X0147900Y0038251D02*
X0141231Y0038251D01*
X0142230Y0039250D02*
X0147501Y0039250D01*
X0147500Y0040248D02*
X0143228Y0040248D01*
X0147500Y0040250D02*
X0150800Y0040250D01*
X0153700Y0042071D02*
X0153800Y0041971D01*
X0153998Y0041629D01*
X0154100Y0041247D01*
X0153700Y0043244D02*
X0157493Y0043244D01*
X0165250Y0037750D02*
X0172200Y0037750D01*
X0172450Y0038000D01*
X0173031Y0038000D01*
X0173031Y0036081D01*
X0172200Y0035250D01*
X0173031Y0038000D02*
X0177000Y0038000D01*
X0178000Y0039000D01*
X0179500Y0041441D01*
X0182372Y0041247D02*
X0186811Y0041247D01*
X0186811Y0042245D02*
X0182372Y0042245D01*
X0182372Y0040248D02*
X0187156Y0040248D01*
X0190844Y0040248D02*
X0197489Y0040248D01*
X0198487Y0039250D02*
X0182014Y0039250D01*
X0184215Y0038251D02*
X0179514Y0038251D01*
X0178516Y0037253D02*
X0183931Y0037253D01*
X0189785Y0038251D02*
X0199486Y0038251D01*
X0200484Y0037253D02*
X0190068Y0037253D01*
X0183931Y0036254D02*
X0182510Y0036254D01*
X0189603Y0032260D02*
X0190644Y0032260D01*
X0190068Y0031262D02*
X0208050Y0031262D01*
X0207728Y0030263D02*
X0190068Y0030263D01*
X0190068Y0029265D02*
X0190669Y0029265D01*
X0192000Y0027500D02*
X0188154Y0027500D01*
X0187000Y0028654D01*
X0187000Y0025059D01*
X0187477Y0023274D02*
X0216131Y0023274D01*
X0216500Y0019000D02*
X0211559Y0023941D01*
X0211000Y0028941D01*
X0210811Y0028266D02*
X0211189Y0028266D01*
X0211189Y0027268D02*
X0210811Y0027268D01*
X0210811Y0026269D02*
X0211189Y0026269D01*
X0208469Y0026269D02*
X0193865Y0026269D01*
X0194189Y0027268D02*
X0207755Y0027268D01*
X0207728Y0028266D02*
X0194189Y0028266D01*
X0193331Y0029265D02*
X0207728Y0029265D01*
X0221500Y0023217D02*
X0222500Y0024217D01*
X0222163Y0023274D02*
X0222837Y0023274D01*
X0222837Y0022275D02*
X0222163Y0022275D01*
X0222163Y0021277D02*
X0222837Y0021277D01*
X0221500Y0023217D02*
X0221500Y0019000D01*
X0181508Y0024272D02*
X0180186Y0024272D01*
X0180872Y0023274D02*
X0181128Y0023274D01*
X0181128Y0022275D02*
X0180872Y0022275D01*
X0180872Y0021277D02*
X0181128Y0021277D01*
X0181128Y0020278D02*
X0180872Y0020278D01*
X0181068Y0019280D02*
X0180426Y0019280D01*
X0178000Y0021559D02*
X0169441Y0021559D01*
X0166000Y0025500D01*
X0158500Y0025500D01*
X0159828Y0027268D02*
X0166605Y0027268D01*
X0172184Y0025271D02*
X0177555Y0025271D01*
X0177826Y0026269D02*
X0173245Y0026269D01*
X0173718Y0027268D02*
X0177128Y0027268D01*
X0177128Y0028266D02*
X0173919Y0028266D01*
X0173912Y0029265D02*
X0177128Y0029265D01*
X0177128Y0030263D02*
X0173498Y0030263D01*
X0176242Y0031262D02*
X0177616Y0031262D01*
X0177285Y0024272D02*
X0169196Y0024272D01*
X0170068Y0023274D02*
X0175128Y0023274D01*
X0150816Y0025271D02*
X0145600Y0025271D01*
X0146872Y0026269D02*
X0149755Y0026269D01*
X0149282Y0027268D02*
X0146872Y0027268D01*
X0146872Y0028266D02*
X0149081Y0028266D01*
X0149088Y0029265D02*
X0146872Y0029265D01*
X0146383Y0030263D02*
X0149502Y0030263D01*
X0148133Y0031262D02*
X0146872Y0031262D01*
X0141617Y0030263D02*
X0130201Y0030263D01*
X0126244Y0032581D02*
X0122824Y0036000D01*
X0122500Y0036000D01*
X0125354Y0036254D02*
X0125354Y0036254D01*
X0126352Y0035256D02*
X0126352Y0035256D01*
X0105074Y0039250D02*
X0105074Y0039250D01*
X0135883Y0048237D02*
X0138668Y0048237D01*
X0146872Y0034257D02*
X0147900Y0034257D01*
X0144000Y0027941D02*
X0144000Y0027556D01*
X0142941Y0016500D02*
X0144000Y0015441D01*
X0143811Y0015286D02*
X0112189Y0015286D01*
X0112189Y0014287D02*
X0140728Y0014287D01*
X0110000Y0014500D02*
X0105500Y0014500D01*
X0105366Y0015634D01*
X0102373Y0014287D02*
X0075550Y0014287D01*
X0076548Y0015286D02*
X0101375Y0015286D01*
X0101399Y0016284D02*
X0077547Y0016284D01*
X0078545Y0017283D02*
X0099378Y0017283D01*
X0098379Y0018281D02*
X0096408Y0018281D01*
X0096334Y0019280D02*
X0096868Y0019280D01*
X0095870Y0020278D02*
X0095335Y0020278D01*
X0094045Y0020278D02*
X0093511Y0020278D01*
X0103166Y0018281D02*
X0103396Y0018281D01*
X0102397Y0017283D02*
X0102168Y0017283D01*
X0097000Y0014500D02*
X0094690Y0016810D01*
X0104528Y0021277D02*
X0104662Y0021277D01*
X0103192Y0024272D02*
X0101637Y0024272D01*
X0098310Y0024810D02*
X0096099Y0027520D01*
X0073500Y0019500D02*
X0069311Y0019500D01*
X0042608Y0022275D02*
X0042100Y0022275D01*
X0042100Y0026269D02*
X0042153Y0026269D01*
X0042100Y0027268D02*
X0042616Y0027268D01*
X0053752Y0038251D02*
X0054130Y0038251D01*
X0054130Y0039250D02*
X0053752Y0039250D01*
X0053752Y0040248D02*
X0054130Y0040248D01*
X0054130Y0041247D02*
X0053752Y0041247D01*
X0053941Y0041500D02*
X0049500Y0041500D01*
X0055602Y0038251D02*
X0060156Y0038251D01*
X0206014Y0040248D02*
X0217156Y0040248D01*
X0219000Y0041500D02*
X0219500Y0041500D01*
X0219500Y0041961D01*
X0222150Y0050516D02*
X0211799Y0050516D01*
X0211283Y0050000D01*
X0216830Y0053000D02*
X0217500Y0053000D01*
X0224639Y0051500D02*
X0224882Y0051743D01*
X0224882Y0051500D01*
X0224882Y0051257D01*
X0224639Y0051500D01*
X0224882Y0051500D02*
X0227563Y0051500D01*
X0227563Y0051500D01*
X0227563Y0051500D01*
X0224882Y0051500D01*
X0235437Y0051500D02*
X0238118Y0051500D01*
X0238118Y0051743D01*
X0238361Y0051500D01*
X0238118Y0051257D01*
X0238118Y0051500D01*
X0235437Y0051500D01*
X0235437Y0051500D01*
X0240850Y0050516D02*
X0246516Y0050516D01*
X0248000Y0052000D01*
X0250441Y0052000D01*
X0250500Y0052059D01*
X0255382Y0053559D01*
X0255941Y0053000D01*
X0255941Y0055941D01*
X0257000Y0057000D01*
X0266717Y0057000D01*
X0269717Y0059000D01*
X0266943Y0059220D02*
X0265457Y0059220D01*
X0266943Y0060219D02*
X0262620Y0060219D01*
X0262283Y0060500D02*
X0262283Y0065500D01*
X0267000Y0065500D01*
X0265457Y0065837D02*
X0265457Y0067469D01*
X0265354Y0067851D01*
X0265157Y0068193D01*
X0264878Y0068472D01*
X0264536Y0068669D01*
X0264154Y0068772D01*
X0262620Y0068772D01*
X0262620Y0065837D01*
X0265457Y0065837D01*
X0265457Y0066210D02*
X0294781Y0066210D01*
X0294609Y0067208D02*
X0265457Y0067208D01*
X0265143Y0068207D02*
X0294510Y0068207D01*
X0295019Y0065211D02*
X0262620Y0065211D01*
X0262620Y0064213D02*
X0261947Y0064213D01*
X0261947Y0063214D02*
X0262620Y0063214D01*
X0262620Y0062216D02*
X0261947Y0062216D01*
X0261947Y0061217D02*
X0262620Y0061217D01*
X0265457Y0061217D02*
X0266943Y0061217D01*
X0265457Y0062216D02*
X0272204Y0062216D01*
X0273947Y0062216D02*
X0274620Y0062216D01*
X0274620Y0062272D02*
X0274620Y0059337D01*
X0277457Y0059337D01*
X0277457Y0060969D01*
X0277354Y0061351D01*
X0277157Y0061693D01*
X0276878Y0061972D01*
X0276536Y0062169D01*
X0276154Y0062272D01*
X0274620Y0062272D01*
X0274620Y0061217D02*
X0273947Y0061217D01*
X0273947Y0060219D02*
X0274620Y0060219D01*
X0274620Y0059220D02*
X0298481Y0059220D01*
X0297596Y0060219D02*
X0277457Y0060219D01*
X0277390Y0061217D02*
X0296863Y0061217D01*
X0296252Y0062216D02*
X0276363Y0062216D01*
X0274283Y0059000D02*
X0278500Y0059000D01*
X0277457Y0058222D02*
X0299565Y0058222D01*
X0300926Y0057223D02*
X0277457Y0057223D01*
X0277074Y0056225D02*
X0302759Y0056225D01*
X0305985Y0055226D02*
X0276037Y0055226D01*
X0271081Y0055226D02*
X0270919Y0055226D01*
X0270919Y0054228D02*
X0271081Y0054228D01*
X0268441Y0053000D02*
X0261059Y0053000D01*
X0260783Y0052724D01*
X0260783Y0048000D01*
X0263550Y0050234D02*
X0266502Y0050234D01*
X0265963Y0051232D02*
X0263537Y0051232D01*
X0252500Y0055000D02*
X0252500Y0057500D01*
X0254000Y0059000D01*
X0256217Y0059000D01*
X0257717Y0060500D01*
X0265372Y0063214D02*
X0295743Y0063214D01*
X0295329Y0064213D02*
X0265457Y0064213D01*
X0262620Y0066210D02*
X0261947Y0066210D01*
X0261947Y0067208D02*
X0262620Y0067208D01*
X0262620Y0068207D02*
X0261947Y0068207D01*
X0254943Y0067208D02*
X0254372Y0067208D01*
X0228547Y0064453D02*
X0228547Y0060850D01*
X0226579Y0060850D02*
X0226579Y0063421D01*
X0226000Y0064000D01*
X0226500Y0066500D02*
X0228547Y0064453D01*
X0226500Y0066500D02*
X0219500Y0066500D01*
X0217000Y0073500D01*
X0215038Y0073199D02*
X0214772Y0073199D01*
X0214772Y0072201D02*
X0215765Y0072201D01*
X0244984Y0052484D02*
X0247500Y0055000D01*
X0252500Y0055000D01*
X0244984Y0052484D02*
X0240850Y0052484D01*
X0246500Y0038961D02*
X0246500Y0035059D01*
X0252157Y0034059D01*
X0252217Y0034000D01*
X0314241Y0056225D02*
X0319421Y0056225D01*
X0319421Y0057223D02*
X0316074Y0057223D01*
X0317435Y0058222D02*
X0319421Y0058222D01*
X0319421Y0059220D02*
X0318519Y0059220D01*
X0319404Y0060219D02*
X0319421Y0060219D01*
D32*
X0278500Y0059000D03*
X0267000Y0065500D03*
X0258000Y0070000D03*
X0243500Y0067000D03*
X0229750Y0074341D03*
X0218000Y0077000D03*
X0248000Y0077000D03*
X0211500Y0067500D03*
X0177500Y0076500D03*
X0145000Y0064000D03*
X0133500Y0069000D03*
X0122000Y0071500D03*
X0105000Y0066500D03*
X0102500Y0063500D03*
X0097500Y0059000D03*
X0113500Y0059000D03*
X0140000Y0050000D03*
X0118000Y0048500D03*
X0115000Y0048500D03*
X0115000Y0045000D03*
X0118500Y0045000D03*
X0103000Y0049000D03*
X0065500Y0057000D03*
X0056500Y0063000D03*
X0051500Y0068000D03*
X0044000Y0070500D03*
X0062000Y0070500D03*
X0090000Y0070000D03*
X0101500Y0069500D03*
X0108000Y0077000D03*
X0200500Y0055000D03*
X0201000Y0050000D03*
X0217500Y0053000D03*
X0218000Y0046000D03*
X0219000Y0041500D03*
X0242500Y0034500D03*
X0264500Y0042500D03*
X0300500Y0041500D03*
X0301000Y0022000D03*
X0301000Y0019500D03*
X0285000Y0017000D03*
X0266000Y0017500D03*
X0257500Y0021000D03*
X0249000Y0015500D03*
X0231000Y0017500D03*
X0221500Y0019000D03*
X0216500Y0019000D03*
X0226500Y0021160D03*
X0218000Y0024500D03*
X0192000Y0027500D03*
X0192000Y0034000D03*
X0189000Y0041500D03*
X0183500Y0047500D03*
X0166500Y0041500D03*
X0156000Y0040000D03*
X0165500Y0032500D03*
X0158500Y0025500D03*
X0138500Y0028000D03*
X0129500Y0026500D03*
X0126500Y0024000D03*
X0121000Y0023000D03*
X0114500Y0019500D03*
X0110000Y0014500D03*
X0097000Y0014500D03*
X0082000Y0023000D03*
X0080000Y0026000D03*
X0063000Y0026000D03*
X0051500Y0031500D03*
X0061500Y0036500D03*
X0049500Y0041500D03*
X0037000Y0044500D03*
X0034000Y0044500D03*
X0034000Y0047500D03*
X0037000Y0047500D03*
X0077000Y0036000D03*
X0119500Y0033500D03*
X0122500Y0036000D03*
X0137000Y0018000D03*
X0151500Y0018500D03*
X0172000Y0018000D03*
X0189000Y0016500D03*
X0036500Y0024000D03*
X0034000Y0024000D03*
X0031500Y0024000D03*
X0031500Y0021500D03*
X0034000Y0021500D03*
D33*
X0034000Y0044500D02*
X0037000Y0044500D01*
X0037000Y0047500D01*
X0034000Y0047500D01*
X0037000Y0047500D02*
X0040500Y0051000D01*
X0040500Y0056000D01*
D34*
X0061500Y0064846D02*
X0083154Y0064846D01*
X0087861Y0060139D01*
X0093810Y0060088D01*
X0095310Y0061690D01*
X0095700Y0061690D02*
X0096672Y0060719D01*
X0098105Y0060719D01*
X0102581Y0056244D01*
M02*
