G75*
%MOIN*%
%OFA0B0*%
%FSLAX25Y25*%
%IPPOS*%
%LPD*%
%AMOC8*
5,1,8,0,0,1.08239X$1,22.5*
%
%ADD10R,0.04831X0.04437*%
%ADD11R,0.04043X0.03256*%
%ADD12R,0.03846X0.04043*%
%ADD13R,0.04043X0.03846*%
%ADD14R,0.04437X0.04831*%
%ADD15R,0.03256X0.04043*%
%ADD16R,0.04100X0.02100*%
%ADD17R,0.16500X0.06500*%
%ADD18C,0.04437*%
%ADD19R,0.05500X0.03000*%
%ADD20C,0.01378*%
%ADD21R,0.13780X0.13780*%
%ADD22R,0.06406X0.01602*%
%ADD23R,0.05224X0.02665*%
%ADD24C,0.12311*%
%ADD25R,0.04437X0.07587*%
%ADD26R,0.07980X0.04831*%
%ADD27C,0.25500*%
D10*
G36*
X0100495Y0023642D02*
X0103910Y0020227D01*
X0100773Y0017090D01*
X0097358Y0020505D01*
X0100495Y0023642D01*
G37*
G36*
X0105227Y0018910D02*
X0108642Y0015495D01*
X0105505Y0012358D01*
X0102090Y0015773D01*
X0105227Y0018910D01*
G37*
X0034346Y0054000D03*
X0027654Y0054000D03*
D11*
X0039500Y0014441D03*
X0039500Y0019559D03*
X0144000Y0020559D03*
X0144000Y0015441D03*
X0178000Y0016441D03*
X0184000Y0016941D03*
X0178000Y0021559D03*
X0184000Y0022059D03*
X0180000Y0028941D03*
X0180000Y0034059D03*
X0179500Y0041441D03*
X0179500Y0046559D03*
X0211000Y0034059D03*
X0211000Y0028941D03*
X0235000Y0029059D03*
X0246500Y0029941D03*
X0246500Y0035059D03*
X0246500Y0023559D03*
X0235000Y0023941D03*
X0246500Y0018441D03*
X0250500Y0046941D03*
X0250500Y0052059D03*
X0144000Y0033059D03*
X0144000Y0027941D03*
X0140000Y0070441D03*
X0140000Y0075559D03*
D12*
X0206717Y0055000D03*
X0211283Y0055000D03*
X0211283Y0050000D03*
X0206717Y0050000D03*
X0206717Y0045000D03*
X0211283Y0045000D03*
X0252217Y0034000D03*
X0256783Y0034000D03*
X0264217Y0029500D03*
X0268783Y0029500D03*
X0262283Y0017500D03*
X0257717Y0017500D03*
X0240283Y0017500D03*
X0235717Y0017500D03*
X0256217Y0048000D03*
X0260783Y0048000D03*
X0269717Y0059000D03*
X0274283Y0059000D03*
X0262283Y0060500D03*
X0257717Y0060500D03*
X0257717Y0065500D03*
X0262283Y0065500D03*
D13*
X0251500Y0068217D03*
X0243000Y0072217D03*
X0238500Y0072217D03*
X0233500Y0072217D03*
X0226000Y0072217D03*
X0221500Y0072217D03*
X0211500Y0071717D03*
X0211500Y0076283D03*
X0221500Y0076783D03*
X0226000Y0076783D03*
X0233500Y0076783D03*
X0238500Y0076783D03*
X0243000Y0076783D03*
X0251500Y0072783D03*
X0181500Y0071717D03*
X0181500Y0076283D03*
X0272000Y0047283D03*
X0272000Y0042717D03*
X0240000Y0028783D03*
X0230000Y0028783D03*
X0222500Y0028783D03*
X0222500Y0024217D03*
X0230000Y0024217D03*
X0240000Y0024217D03*
X0251500Y0023283D03*
X0251500Y0018717D03*
X0284500Y0022217D03*
X0284500Y0026783D03*
D14*
X0187000Y0028654D03*
X0187000Y0035346D03*
X0061500Y0058154D03*
X0061500Y0064846D03*
D15*
G36*
X0091967Y0067890D02*
X0094270Y0065587D01*
X0091413Y0062730D01*
X0089110Y0065033D01*
X0091967Y0067890D01*
G37*
G36*
X0095467Y0071390D02*
X0097770Y0069087D01*
X0094913Y0066230D01*
X0092610Y0068533D01*
X0095467Y0071390D01*
G37*
G36*
X0099087Y0067770D02*
X0101390Y0065467D01*
X0098533Y0062610D01*
X0096230Y0064913D01*
X0099087Y0067770D01*
G37*
G36*
X0095587Y0064270D02*
X0097890Y0061967D01*
X0095033Y0059110D01*
X0092730Y0061413D01*
X0095587Y0064270D01*
G37*
G36*
X0125413Y0070230D02*
X0123110Y0072533D01*
X0125967Y0075390D01*
X0128270Y0073087D01*
X0125413Y0070230D01*
G37*
G36*
X0129033Y0066610D02*
X0126730Y0068913D01*
X0129587Y0071770D01*
X0131890Y0069467D01*
X0129033Y0066610D01*
G37*
X0059059Y0047500D03*
X0053941Y0047500D03*
X0053941Y0041500D03*
X0059059Y0041500D03*
G36*
X0079110Y0035467D02*
X0081413Y0037770D01*
X0084270Y0034913D01*
X0081967Y0032610D01*
X0079110Y0035467D01*
G37*
G36*
X0082730Y0039087D02*
X0085033Y0041390D01*
X0087890Y0038533D01*
X0085587Y0036230D01*
X0082730Y0039087D01*
G37*
X0060059Y0033000D03*
X0054941Y0033000D03*
G36*
X0092110Y0021467D02*
X0094413Y0023770D01*
X0097270Y0020913D01*
X0094967Y0018610D01*
X0092110Y0021467D01*
G37*
G36*
X0095730Y0025087D02*
X0098033Y0027390D01*
X0100890Y0024533D01*
X0098587Y0022230D01*
X0095730Y0025087D01*
G37*
G36*
X0106413Y0020730D02*
X0104110Y0023033D01*
X0106967Y0025890D01*
X0109270Y0023587D01*
X0106413Y0020730D01*
G37*
G36*
X0110033Y0017110D02*
X0107730Y0019413D01*
X0110587Y0022270D01*
X0112890Y0019967D01*
X0110033Y0017110D01*
G37*
X0255941Y0042500D03*
X0261059Y0042500D03*
X0263941Y0034000D03*
X0269059Y0034000D03*
X0275941Y0034000D03*
X0281059Y0034000D03*
X0287941Y0032500D03*
X0293059Y0032500D03*
X0273559Y0053000D03*
X0268441Y0053000D03*
X0261059Y0053000D03*
X0255941Y0053000D03*
X0211559Y0060500D03*
X0206441Y0060500D03*
D16*
X0172200Y0050250D03*
X0172200Y0047750D03*
X0172200Y0045250D03*
X0172200Y0042750D03*
X0172200Y0040250D03*
X0172200Y0037750D03*
X0172200Y0035250D03*
X0172200Y0032750D03*
X0150800Y0032750D03*
X0150800Y0035250D03*
X0150800Y0037750D03*
X0150800Y0040250D03*
X0150800Y0042750D03*
X0150800Y0045250D03*
X0150800Y0047750D03*
X0150800Y0050250D03*
D17*
X0311500Y0041500D03*
X0311500Y0031500D03*
X0311500Y0021500D03*
D18*
X0167000Y0071000D03*
X0162000Y0071000D03*
X0157000Y0071000D03*
X0152000Y0071000D03*
X0147000Y0071000D03*
X0147000Y0076000D03*
X0152000Y0076000D03*
X0157000Y0076000D03*
X0162000Y0076000D03*
X0167000Y0076000D03*
D19*
X0069311Y0029500D03*
X0069311Y0024500D03*
X0069311Y0019500D03*
X0069311Y0014500D03*
X0045689Y0014500D03*
X0045689Y0019500D03*
X0045689Y0024500D03*
X0045689Y0029500D03*
D20*
X0221067Y0044610D02*
X0223232Y0044610D01*
X0224610Y0043232D02*
X0224610Y0041067D01*
X0226579Y0041067D02*
X0226579Y0043232D01*
X0228547Y0043232D02*
X0228547Y0041067D01*
X0230516Y0041067D02*
X0230516Y0043232D01*
X0232484Y0043232D02*
X0232484Y0041067D01*
X0234453Y0041067D02*
X0234453Y0043232D01*
X0236421Y0043232D02*
X0236421Y0041067D01*
X0238390Y0041067D02*
X0238390Y0043232D01*
X0239768Y0044610D02*
X0241933Y0044610D01*
X0241933Y0046579D02*
X0239768Y0046579D01*
X0239768Y0048547D02*
X0241933Y0048547D01*
X0241933Y0050516D02*
X0239768Y0050516D01*
X0239768Y0052484D02*
X0241933Y0052484D01*
X0241933Y0054453D02*
X0239768Y0054453D01*
X0239768Y0056421D02*
X0241933Y0056421D01*
X0241933Y0058390D02*
X0239768Y0058390D01*
X0238390Y0059768D02*
X0238390Y0061933D01*
X0236421Y0061933D02*
X0236421Y0059768D01*
X0234453Y0059768D02*
X0234453Y0061933D01*
X0232484Y0061933D02*
X0232484Y0059768D01*
X0230516Y0059768D02*
X0230516Y0061933D01*
X0228547Y0061933D02*
X0228547Y0059768D01*
X0226579Y0059768D02*
X0226579Y0061933D01*
X0224610Y0061933D02*
X0224610Y0059768D01*
X0223232Y0058390D02*
X0221067Y0058390D01*
X0221067Y0056421D02*
X0223232Y0056421D01*
X0223232Y0054453D02*
X0221067Y0054453D01*
X0221067Y0052484D02*
X0223232Y0052484D01*
X0223232Y0050516D02*
X0221067Y0050516D01*
X0221067Y0048547D02*
X0223232Y0048547D01*
X0223232Y0046579D02*
X0221067Y0046579D01*
D21*
X0231500Y0051500D03*
D22*
G36*
X0138818Y0052374D02*
X0134289Y0047845D01*
X0133156Y0048978D01*
X0137685Y0053507D01*
X0138818Y0052374D01*
G37*
G36*
X0137426Y0053766D02*
X0132897Y0049237D01*
X0131764Y0050370D01*
X0136293Y0054899D01*
X0137426Y0053766D01*
G37*
G36*
X0136034Y0055158D02*
X0131505Y0050629D01*
X0130372Y0051762D01*
X0134901Y0056291D01*
X0136034Y0055158D01*
G37*
G36*
X0134642Y0056550D02*
X0130113Y0052021D01*
X0128980Y0053154D01*
X0133509Y0057683D01*
X0134642Y0056550D01*
G37*
G36*
X0133250Y0057942D02*
X0128721Y0053413D01*
X0127588Y0054546D01*
X0132117Y0059075D01*
X0133250Y0057942D01*
G37*
G36*
X0131858Y0059334D02*
X0127329Y0054805D01*
X0126196Y0055938D01*
X0130725Y0060467D01*
X0131858Y0059334D01*
G37*
G36*
X0130467Y0060725D02*
X0125938Y0056196D01*
X0124805Y0057329D01*
X0129334Y0061858D01*
X0130467Y0060725D01*
G37*
G36*
X0129075Y0062117D02*
X0124546Y0057588D01*
X0123413Y0058721D01*
X0127942Y0063250D01*
X0129075Y0062117D01*
G37*
G36*
X0127683Y0063509D02*
X0123154Y0058980D01*
X0122021Y0060113D01*
X0126550Y0064642D01*
X0127683Y0063509D01*
G37*
G36*
X0126291Y0064901D02*
X0121762Y0060372D01*
X0120629Y0061505D01*
X0125158Y0066034D01*
X0126291Y0064901D01*
G37*
G36*
X0124899Y0066293D02*
X0120370Y0061764D01*
X0119237Y0062897D01*
X0123766Y0067426D01*
X0124899Y0066293D01*
G37*
G36*
X0123507Y0067685D02*
X0118978Y0063156D01*
X0117845Y0064289D01*
X0122374Y0068818D01*
X0123507Y0067685D01*
G37*
G36*
X0110626Y0068818D02*
X0115155Y0064289D01*
X0114022Y0063156D01*
X0109493Y0067685D01*
X0110626Y0068818D01*
G37*
G36*
X0109234Y0067426D02*
X0113763Y0062897D01*
X0112630Y0061764D01*
X0108101Y0066293D01*
X0109234Y0067426D01*
G37*
G36*
X0107842Y0066034D02*
X0112371Y0061505D01*
X0111238Y0060372D01*
X0106709Y0064901D01*
X0107842Y0066034D01*
G37*
G36*
X0106450Y0064642D02*
X0110979Y0060113D01*
X0109846Y0058980D01*
X0105317Y0063509D01*
X0106450Y0064642D01*
G37*
G36*
X0105058Y0063250D02*
X0109587Y0058721D01*
X0108454Y0057588D01*
X0103925Y0062117D01*
X0105058Y0063250D01*
G37*
G36*
X0103666Y0061858D02*
X0108195Y0057329D01*
X0107062Y0056196D01*
X0102533Y0060725D01*
X0103666Y0061858D01*
G37*
G36*
X0102275Y0060467D02*
X0106804Y0055938D01*
X0105671Y0054805D01*
X0101142Y0059334D01*
X0102275Y0060467D01*
G37*
G36*
X0100883Y0059075D02*
X0105412Y0054546D01*
X0104279Y0053413D01*
X0099750Y0057942D01*
X0100883Y0059075D01*
G37*
G36*
X0099491Y0057683D02*
X0104020Y0053154D01*
X0102887Y0052021D01*
X0098358Y0056550D01*
X0099491Y0057683D01*
G37*
G36*
X0098099Y0056291D02*
X0102628Y0051762D01*
X0101495Y0050629D01*
X0096966Y0055158D01*
X0098099Y0056291D01*
G37*
G36*
X0096707Y0054899D02*
X0101236Y0050370D01*
X0100103Y0049237D01*
X0095574Y0053766D01*
X0096707Y0054899D01*
G37*
G36*
X0095315Y0053507D02*
X0099844Y0048978D01*
X0098711Y0047845D01*
X0094182Y0052374D01*
X0095315Y0053507D01*
G37*
G36*
X0094182Y0040626D02*
X0098711Y0045155D01*
X0099844Y0044022D01*
X0095315Y0039493D01*
X0094182Y0040626D01*
G37*
G36*
X0095574Y0039234D02*
X0100103Y0043763D01*
X0101236Y0042630D01*
X0096707Y0038101D01*
X0095574Y0039234D01*
G37*
G36*
X0096966Y0037842D02*
X0101495Y0042371D01*
X0102628Y0041238D01*
X0098099Y0036709D01*
X0096966Y0037842D01*
G37*
G36*
X0098358Y0036450D02*
X0102887Y0040979D01*
X0104020Y0039846D01*
X0099491Y0035317D01*
X0098358Y0036450D01*
G37*
G36*
X0099750Y0035058D02*
X0104279Y0039587D01*
X0105412Y0038454D01*
X0100883Y0033925D01*
X0099750Y0035058D01*
G37*
G36*
X0101142Y0033666D02*
X0105671Y0038195D01*
X0106804Y0037062D01*
X0102275Y0032533D01*
X0101142Y0033666D01*
G37*
G36*
X0102533Y0032275D02*
X0107062Y0036804D01*
X0108195Y0035671D01*
X0103666Y0031142D01*
X0102533Y0032275D01*
G37*
G36*
X0103925Y0030883D02*
X0108454Y0035412D01*
X0109587Y0034279D01*
X0105058Y0029750D01*
X0103925Y0030883D01*
G37*
G36*
X0105317Y0029491D02*
X0109846Y0034020D01*
X0110979Y0032887D01*
X0106450Y0028358D01*
X0105317Y0029491D01*
G37*
G36*
X0106709Y0028099D02*
X0111238Y0032628D01*
X0112371Y0031495D01*
X0107842Y0026966D01*
X0106709Y0028099D01*
G37*
G36*
X0108101Y0026707D02*
X0112630Y0031236D01*
X0113763Y0030103D01*
X0109234Y0025574D01*
X0108101Y0026707D01*
G37*
G36*
X0109493Y0025315D02*
X0114022Y0029844D01*
X0115155Y0028711D01*
X0110626Y0024182D01*
X0109493Y0025315D01*
G37*
G36*
X0122374Y0024182D02*
X0117845Y0028711D01*
X0118978Y0029844D01*
X0123507Y0025315D01*
X0122374Y0024182D01*
G37*
G36*
X0123766Y0025574D02*
X0119237Y0030103D01*
X0120370Y0031236D01*
X0124899Y0026707D01*
X0123766Y0025574D01*
G37*
G36*
X0125158Y0026966D02*
X0120629Y0031495D01*
X0121762Y0032628D01*
X0126291Y0028099D01*
X0125158Y0026966D01*
G37*
G36*
X0126550Y0028358D02*
X0122021Y0032887D01*
X0123154Y0034020D01*
X0127683Y0029491D01*
X0126550Y0028358D01*
G37*
G36*
X0127942Y0029750D02*
X0123413Y0034279D01*
X0124546Y0035412D01*
X0129075Y0030883D01*
X0127942Y0029750D01*
G37*
G36*
X0129334Y0031142D02*
X0124805Y0035671D01*
X0125938Y0036804D01*
X0130467Y0032275D01*
X0129334Y0031142D01*
G37*
G36*
X0130725Y0032533D02*
X0126196Y0037062D01*
X0127329Y0038195D01*
X0131858Y0033666D01*
X0130725Y0032533D01*
G37*
G36*
X0132117Y0033925D02*
X0127588Y0038454D01*
X0128721Y0039587D01*
X0133250Y0035058D01*
X0132117Y0033925D01*
G37*
G36*
X0133509Y0035317D02*
X0128980Y0039846D01*
X0130113Y0040979D01*
X0134642Y0036450D01*
X0133509Y0035317D01*
G37*
G36*
X0134901Y0036709D02*
X0130372Y0041238D01*
X0131505Y0042371D01*
X0136034Y0037842D01*
X0134901Y0036709D01*
G37*
G36*
X0136293Y0038101D02*
X0131764Y0042630D01*
X0132897Y0043763D01*
X0137426Y0039234D01*
X0136293Y0038101D01*
G37*
G36*
X0137685Y0039493D02*
X0133156Y0044022D01*
X0134289Y0045155D01*
X0138818Y0040626D01*
X0137685Y0039493D01*
G37*
D23*
X0051619Y0057760D03*
X0041381Y0057760D03*
X0041381Y0061500D03*
X0041381Y0065240D03*
X0051619Y0065240D03*
D24*
X0073154Y0044531D03*
D25*
G36*
X0088633Y0038730D02*
X0091770Y0035593D01*
X0086407Y0030230D01*
X0083270Y0033367D01*
X0088633Y0038730D01*
G37*
G36*
X0095593Y0031770D02*
X0098730Y0028633D01*
X0093367Y0023270D01*
X0090230Y0026407D01*
X0095593Y0031770D01*
G37*
D26*
X0189217Y0068472D03*
X0203783Y0068472D03*
X0203783Y0077528D03*
X0189217Y0077528D03*
D27*
X0308500Y0069000D03*
X0019000Y0069000D03*
M02*
