%
M48
M72
T01C0.0118
T02C0.0138
T03C0.0200
T04C0.0354
T05C0.1181
T06C0.1260
%
T01
X22756Y4756
X23150Y4756
X23544Y4756
X23544Y5150
X23150Y5150
X22756Y5150
X22756Y5544
X23150Y5544
X23544Y5544
T02
X3150Y2150
X3400Y2150
X3400Y2400
X3650Y2400
X3150Y2400
X5150Y3150
X6150Y3650
X4950Y4150
X3700Y4450
X3400Y4450
X3400Y4750
X3700Y4750
X6550Y5700
X5650Y6300
X5150Y6800
X4400Y7050
X6200Y7050
X9000Y7000
X10150Y6950
X10500Y6650
X10250Y6350
X9750Y5900
X11350Y5900
X14000Y5000
X11800Y4850
X11500Y4850
X11500Y4500
X11850Y4500
X10300Y4900
X12250Y3600
X11950Y3350
X13850Y2800
X12950Y2650
X12650Y2400
X12100Y2300
X11450Y1950
X11000Y1450
X9700Y1450
X8200Y2300
X8000Y2600
X6300Y2600
X7700Y3600
X13700Y1800
X15150Y1850
X17200Y1800
X18900Y1650
X21650Y1900
X22150Y1900
X22650Y2116
X23100Y1750
X24900Y1550
X26600Y1750
X25750Y2100
X28500Y1700
X30100Y1950
X30100Y2200
X24250Y3450
X21900Y4150
X21800Y4600
X20100Y5000
X20050Y5500
X21750Y5300
X18350Y4750
X18900Y4150
X16650Y4150
X15600Y4000
X16550Y3250
X15850Y2550
X19200Y2750
X19200Y3400
X21800Y2450
X26450Y4250
X30050Y4150
X27850Y5900
X26700Y6550
X25800Y7000
X24350Y6700
X22975Y7434
X21800Y7700
X24800Y7700
X21150Y6750
X17750Y7650
X14500Y6400
X13350Y6900
X12200Y7150
X10800Y7700
T03
X14700Y7600
X15200Y7600
X15700Y7600
X16200Y7600
X16700Y7600
X16700Y7100
X16200Y7100
X15700Y7100
X15200Y7100
X14700Y7100
T04
X15284Y2850
X17016Y2850
T05
X7315Y4453
T06
X1900Y6900
X30850Y6900
M30
