G75*
%MOIN*%
%OFA0B0*%
%FSLAX25Y25*%
%IPPOS*%
%LPD*%
%AMOC8*
5,1,8,0,0,1.08239X$1,22.5*
%
%ADD10C,0.05315*%
%ADD11C,0.03000*%
%ADD12C,0.01981*%
%ADD13C,0.16598*%
%ADD14C,0.02178*%
%ADD15C,0.01000*%
D10*
X0152839Y0028500D03*
X0170161Y0028500D03*
D11*
X0167000Y0071000D03*
X0162000Y0071000D03*
X0157000Y0071000D03*
X0152000Y0071000D03*
X0147000Y0071000D03*
X0147000Y0076000D03*
X0152000Y0076000D03*
X0157000Y0076000D03*
X0162000Y0076000D03*
X0167000Y0076000D03*
D12*
X0227563Y0055437D03*
X0231500Y0055437D03*
X0235437Y0055437D03*
X0235437Y0051500D03*
X0231500Y0051500D03*
X0227563Y0051500D03*
X0227563Y0047563D03*
X0231500Y0047563D03*
X0235437Y0047563D03*
D13*
X0308500Y0069000D03*
X0019000Y0069000D03*
D14*
X0044000Y0070500D03*
X0051500Y0068000D03*
X0062000Y0070500D03*
X0056500Y0063000D03*
X0065500Y0057000D03*
X0037000Y0047500D03*
X0034000Y0047500D03*
X0034000Y0044500D03*
X0037000Y0044500D03*
X0049500Y0041500D03*
X0061500Y0036500D03*
X0051500Y0031500D03*
X0063000Y0026000D03*
X0080000Y0026000D03*
X0082000Y0023000D03*
X0097000Y0014500D03*
X0110000Y0014500D03*
X0114500Y0019500D03*
X0121000Y0023000D03*
X0126500Y0024000D03*
X0129500Y0026500D03*
X0138500Y0028000D03*
X0119500Y0033500D03*
X0122500Y0036000D03*
X0118500Y0045000D03*
X0115000Y0045000D03*
X0115000Y0048500D03*
X0118000Y0048500D03*
X0103000Y0049000D03*
X0097500Y0059000D03*
X0102500Y0063500D03*
X0105000Y0066500D03*
X0101500Y0069500D03*
X0090000Y0070000D03*
X0108000Y0077000D03*
X0122000Y0071500D03*
X0133500Y0069000D03*
X0145000Y0064000D03*
X0113500Y0059000D03*
X0140000Y0050000D03*
X0166500Y0041500D03*
X0156000Y0040000D03*
X0165500Y0032500D03*
X0158500Y0025500D03*
X0151500Y0018500D03*
X0137000Y0018000D03*
X0172000Y0018000D03*
X0189000Y0016500D03*
X0216500Y0019000D03*
X0221500Y0019000D03*
X0226500Y0021160D03*
X0231000Y0017500D03*
X0249000Y0015500D03*
X0266000Y0017500D03*
X0257500Y0021000D03*
X0285000Y0017000D03*
X0301000Y0019500D03*
X0301000Y0022000D03*
X0242500Y0034500D03*
X0219000Y0041500D03*
X0218000Y0046000D03*
X0201000Y0050000D03*
X0200500Y0055000D03*
X0217500Y0053000D03*
X0183500Y0047500D03*
X0189000Y0041500D03*
X0192000Y0034000D03*
X0192000Y0027500D03*
X0218000Y0024500D03*
X0264500Y0042500D03*
X0300500Y0041500D03*
X0278500Y0059000D03*
X0267000Y0065500D03*
X0258000Y0070000D03*
X0243500Y0067000D03*
X0229750Y0074341D03*
X0218000Y0077000D03*
X0248000Y0077000D03*
X0211500Y0067500D03*
X0177500Y0076500D03*
X0077000Y0036000D03*
X0036500Y0024000D03*
X0034000Y0024000D03*
X0031500Y0024000D03*
X0031500Y0021500D03*
X0034000Y0021500D03*
D15*
X0008500Y0013500D02*
X0008500Y0079701D01*
X0319421Y0079701D01*
X0319421Y0013500D01*
X0250096Y0013500D01*
X0251189Y0014593D01*
X0251189Y0016407D01*
X0249907Y0017689D01*
X0248093Y0017689D01*
X0246811Y0016407D01*
X0246811Y0014593D01*
X0247904Y0013500D01*
X0112096Y0013500D01*
X0112189Y0013593D01*
X0112189Y0015407D01*
X0110907Y0016689D01*
X0109093Y0016689D01*
X0107811Y0015407D01*
X0107811Y0013593D01*
X0107904Y0013500D01*
X0008500Y0013500D01*
X0008500Y0014287D02*
X0107811Y0014287D01*
X0107811Y0015286D02*
X0008500Y0015286D01*
X0008500Y0016284D02*
X0108688Y0016284D01*
X0111312Y0016284D02*
X0170620Y0016284D01*
X0171093Y0015811D02*
X0172907Y0015811D01*
X0174189Y0017093D01*
X0174189Y0018907D01*
X0172907Y0020189D01*
X0171093Y0020189D01*
X0169811Y0018907D01*
X0169811Y0017093D01*
X0171093Y0015811D01*
X0169811Y0017283D02*
X0153378Y0017283D01*
X0153689Y0017593D02*
X0152407Y0016311D01*
X0150593Y0016311D01*
X0149311Y0017593D01*
X0149311Y0019407D01*
X0150593Y0020689D01*
X0152407Y0020689D01*
X0153689Y0019407D01*
X0153689Y0017593D01*
X0153689Y0018281D02*
X0169811Y0018281D01*
X0170184Y0019280D02*
X0153689Y0019280D01*
X0152817Y0020278D02*
X0224311Y0020278D01*
X0224311Y0020253D02*
X0225593Y0018971D01*
X0227407Y0018971D01*
X0228689Y0020253D01*
X0228689Y0022067D01*
X0227407Y0023349D01*
X0225593Y0023349D01*
X0224311Y0022067D01*
X0224311Y0020253D01*
X0224311Y0021277D02*
X0122372Y0021277D01*
X0121907Y0020811D02*
X0123189Y0022093D01*
X0123189Y0023907D01*
X0121907Y0025189D01*
X0120093Y0025189D01*
X0118811Y0023907D01*
X0118811Y0022093D01*
X0120093Y0020811D01*
X0121907Y0020811D01*
X0123189Y0022275D02*
X0125129Y0022275D01*
X0125593Y0021811D02*
X0127407Y0021811D01*
X0128689Y0023093D01*
X0128689Y0024311D01*
X0130407Y0024311D01*
X0131689Y0025593D01*
X0131689Y0027407D01*
X0130407Y0028689D01*
X0128593Y0028689D01*
X0127311Y0027407D01*
X0127311Y0026189D01*
X0125593Y0026189D01*
X0124311Y0024907D01*
X0124311Y0023093D01*
X0125593Y0021811D01*
X0124311Y0023274D02*
X0123189Y0023274D01*
X0122823Y0024272D02*
X0124311Y0024272D01*
X0124675Y0025271D02*
X0082189Y0025271D01*
X0082189Y0025189D02*
X0082189Y0026907D01*
X0080907Y0028189D01*
X0079093Y0028189D01*
X0077811Y0026907D01*
X0077811Y0025093D01*
X0079093Y0023811D01*
X0079811Y0023811D01*
X0079811Y0022093D01*
X0081093Y0020811D01*
X0082907Y0020811D01*
X0084189Y0022093D01*
X0084189Y0023907D01*
X0082907Y0025189D01*
X0082189Y0025189D01*
X0082189Y0026269D02*
X0127311Y0026269D01*
X0127311Y0027268D02*
X0081828Y0027268D01*
X0078172Y0027268D02*
X0064828Y0027268D01*
X0065189Y0026907D02*
X0063907Y0028189D01*
X0062093Y0028189D01*
X0060811Y0026907D01*
X0060811Y0025093D01*
X0062093Y0023811D01*
X0063907Y0023811D01*
X0065189Y0025093D01*
X0065189Y0026907D01*
X0065189Y0026269D02*
X0077811Y0026269D01*
X0077811Y0025271D02*
X0065189Y0025271D01*
X0064368Y0024272D02*
X0078632Y0024272D01*
X0079811Y0023274D02*
X0008500Y0023274D01*
X0008500Y0024272D02*
X0061632Y0024272D01*
X0060811Y0025271D02*
X0008500Y0025271D01*
X0008500Y0026269D02*
X0060811Y0026269D01*
X0061172Y0027268D02*
X0008500Y0027268D01*
X0008500Y0028266D02*
X0128171Y0028266D01*
X0130829Y0028266D02*
X0136311Y0028266D01*
X0136311Y0028907D02*
X0136311Y0027093D01*
X0137593Y0025811D01*
X0139407Y0025811D01*
X0140689Y0027093D01*
X0140689Y0028907D01*
X0139407Y0030189D01*
X0137593Y0030189D01*
X0136311Y0028907D01*
X0136669Y0029265D02*
X0008500Y0029265D01*
X0008500Y0030263D02*
X0049641Y0030263D01*
X0049311Y0030593D02*
X0050593Y0029311D01*
X0052407Y0029311D01*
X0053689Y0030593D01*
X0053689Y0032407D01*
X0052407Y0033689D01*
X0050593Y0033689D01*
X0049311Y0032407D01*
X0049311Y0030593D01*
X0049311Y0031262D02*
X0008500Y0031262D01*
X0008500Y0032260D02*
X0049311Y0032260D01*
X0050163Y0033259D02*
X0008500Y0033259D01*
X0008500Y0034257D02*
X0117311Y0034257D01*
X0117311Y0034407D02*
X0117311Y0032593D01*
X0118593Y0031311D01*
X0120407Y0031311D01*
X0121689Y0032593D01*
X0121689Y0033811D01*
X0123407Y0033811D01*
X0124689Y0035093D01*
X0124689Y0036907D01*
X0123407Y0038189D01*
X0121593Y0038189D01*
X0120311Y0036907D01*
X0120311Y0035689D01*
X0118593Y0035689D01*
X0117311Y0034407D01*
X0118160Y0035256D02*
X0063352Y0035256D01*
X0063689Y0035593D02*
X0062407Y0034311D01*
X0060593Y0034311D01*
X0059311Y0035593D01*
X0059311Y0037407D01*
X0060593Y0038689D01*
X0062407Y0038689D01*
X0063689Y0037407D01*
X0063689Y0035593D01*
X0063689Y0036254D02*
X0120311Y0036254D01*
X0124689Y0036254D02*
X0241159Y0036254D01*
X0241593Y0036689D02*
X0240311Y0035407D01*
X0240311Y0033593D01*
X0241593Y0032311D01*
X0243407Y0032311D01*
X0244689Y0033593D01*
X0244689Y0035407D01*
X0243407Y0036689D01*
X0241593Y0036689D01*
X0243841Y0036254D02*
X0319421Y0036254D01*
X0319421Y0035256D02*
X0244689Y0035256D01*
X0244689Y0034257D02*
X0319421Y0034257D01*
X0319421Y0033259D02*
X0244355Y0033259D01*
X0240645Y0033259D02*
X0194189Y0033259D01*
X0194189Y0033093D02*
X0192907Y0031811D01*
X0191093Y0031811D01*
X0189811Y0033093D01*
X0189811Y0034907D01*
X0191093Y0036189D01*
X0192907Y0036189D01*
X0194189Y0034907D01*
X0194189Y0033093D01*
X0194189Y0034257D02*
X0240311Y0034257D01*
X0240311Y0035256D02*
X0193840Y0035256D01*
X0190160Y0035256D02*
X0124689Y0035256D01*
X0123853Y0034257D02*
X0189811Y0034257D01*
X0189811Y0033259D02*
X0121689Y0033259D01*
X0121356Y0032260D02*
X0190644Y0032260D01*
X0193356Y0032260D02*
X0319421Y0032260D01*
X0319421Y0031262D02*
X0172713Y0031262D01*
X0172290Y0031685D02*
X0170909Y0032257D01*
X0169414Y0032257D01*
X0168033Y0031685D01*
X0166976Y0030628D01*
X0166404Y0029247D01*
X0166404Y0027753D01*
X0166976Y0026372D01*
X0168033Y0025315D01*
X0169414Y0024743D01*
X0170909Y0024743D01*
X0172290Y0025315D01*
X0173347Y0026372D01*
X0173919Y0027753D01*
X0173919Y0029247D01*
X0173347Y0030628D01*
X0172290Y0031685D01*
X0167609Y0031262D02*
X0155391Y0031262D01*
X0154967Y0031685D02*
X0156024Y0030628D01*
X0156596Y0029247D01*
X0156596Y0027753D01*
X0156024Y0026372D01*
X0154967Y0025315D01*
X0153586Y0024743D01*
X0152091Y0024743D01*
X0150710Y0025315D01*
X0149653Y0026372D01*
X0149081Y0027753D01*
X0149081Y0029247D01*
X0149653Y0030628D01*
X0150710Y0031685D01*
X0152091Y0032257D01*
X0153586Y0032257D01*
X0154967Y0031685D01*
X0150287Y0031262D02*
X0053689Y0031262D01*
X0053689Y0032260D02*
X0117644Y0032260D01*
X0117311Y0033259D02*
X0052837Y0033259D01*
X0059648Y0035256D02*
X0008500Y0035256D01*
X0008500Y0036254D02*
X0059311Y0036254D01*
X0059311Y0037253D02*
X0008500Y0037253D01*
X0008500Y0038251D02*
X0060156Y0038251D01*
X0062844Y0038251D02*
X0068254Y0038251D01*
X0068675Y0037830D02*
X0066452Y0040053D01*
X0065248Y0042959D01*
X0065248Y0046104D01*
X0066452Y0049010D01*
X0068675Y0051233D01*
X0071581Y0052437D01*
X0074726Y0052437D01*
X0077632Y0051233D01*
X0079855Y0049010D01*
X0081059Y0046104D01*
X0081059Y0042959D01*
X0079855Y0040053D01*
X0077632Y0037830D01*
X0074726Y0036626D01*
X0071581Y0036626D01*
X0068675Y0037830D01*
X0070068Y0037253D02*
X0063689Y0037253D01*
X0067255Y0039250D02*
X0008500Y0039250D01*
X0008500Y0040248D02*
X0066371Y0040248D01*
X0065957Y0041247D02*
X0008500Y0041247D01*
X0008500Y0042245D02*
X0065544Y0042245D01*
X0065248Y0043244D02*
X0038840Y0043244D01*
X0039189Y0043593D02*
X0039189Y0045407D01*
X0038596Y0046000D01*
X0039189Y0046593D01*
X0039189Y0048407D01*
X0037907Y0049689D01*
X0036093Y0049689D01*
X0035500Y0049096D01*
X0034907Y0049689D01*
X0033093Y0049689D01*
X0031811Y0048407D01*
X0031811Y0046593D01*
X0032404Y0046000D01*
X0031811Y0045407D01*
X0031811Y0043593D01*
X0033093Y0042311D01*
X0034907Y0042311D01*
X0035500Y0042904D01*
X0036093Y0042311D01*
X0037907Y0042311D01*
X0039189Y0043593D01*
X0039189Y0044242D02*
X0065248Y0044242D01*
X0065248Y0045241D02*
X0039189Y0045241D01*
X0038835Y0046239D02*
X0065304Y0046239D01*
X0065718Y0047238D02*
X0039189Y0047238D01*
X0039189Y0048237D02*
X0066131Y0048237D01*
X0066677Y0049235D02*
X0038361Y0049235D01*
X0035639Y0049235D02*
X0035361Y0049235D01*
X0032639Y0049235D02*
X0008500Y0049235D01*
X0008500Y0048237D02*
X0031811Y0048237D01*
X0031811Y0047238D02*
X0008500Y0047238D01*
X0008500Y0046239D02*
X0032165Y0046239D01*
X0031811Y0045241D02*
X0008500Y0045241D01*
X0008500Y0044242D02*
X0031811Y0044242D01*
X0032160Y0043244D02*
X0008500Y0043244D01*
X0008500Y0050234D02*
X0067676Y0050234D01*
X0068674Y0051232D02*
X0008500Y0051232D01*
X0008500Y0052231D02*
X0071083Y0052231D01*
X0075224Y0052231D02*
X0215311Y0052231D01*
X0215311Y0052093D02*
X0216593Y0050811D01*
X0218407Y0050811D01*
X0219689Y0052093D01*
X0219689Y0053907D01*
X0218407Y0055189D01*
X0216593Y0055189D01*
X0215311Y0053907D01*
X0215311Y0052093D01*
X0215311Y0053229D02*
X0008500Y0053229D01*
X0008500Y0054228D02*
X0215632Y0054228D01*
X0219368Y0054228D02*
X0225376Y0054228D01*
X0225356Y0054257D02*
X0225628Y0053849D01*
X0225975Y0053502D01*
X0226026Y0053468D01*
X0225975Y0053435D01*
X0225628Y0053088D01*
X0225356Y0052680D01*
X0225168Y0052226D01*
X0225072Y0051745D01*
X0225072Y0051500D01*
X0225072Y0051255D01*
X0225168Y0050774D01*
X0225356Y0050320D01*
X0225628Y0049912D01*
X0225975Y0049565D01*
X0226026Y0049531D01*
X0225975Y0049498D01*
X0225628Y0049151D01*
X0225356Y0048743D01*
X0225168Y0048289D01*
X0225072Y0047808D01*
X0225072Y0047563D01*
X0225072Y0047318D01*
X0225168Y0046837D01*
X0225356Y0046383D01*
X0225628Y0045975D01*
X0225975Y0045628D01*
X0226383Y0045356D01*
X0226837Y0045168D01*
X0227318Y0045072D01*
X0227563Y0045072D01*
X0227808Y0045072D01*
X0228289Y0045168D01*
X0228743Y0045356D01*
X0229151Y0045628D01*
X0229498Y0045975D01*
X0229531Y0046026D01*
X0229565Y0045975D01*
X0229912Y0045628D01*
X0230320Y0045356D01*
X0230774Y0045168D01*
X0231255Y0045072D01*
X0231500Y0045072D01*
X0231745Y0045072D01*
X0232226Y0045168D01*
X0232680Y0045356D01*
X0233088Y0045628D01*
X0233435Y0045975D01*
X0233468Y0046026D01*
X0233502Y0045975D01*
X0233849Y0045628D01*
X0234257Y0045356D01*
X0234711Y0045168D01*
X0235192Y0045072D01*
X0235437Y0045072D01*
X0235682Y0045072D01*
X0236163Y0045168D01*
X0236617Y0045356D01*
X0237025Y0045628D01*
X0237372Y0045975D01*
X0237644Y0046383D01*
X0237832Y0046837D01*
X0237928Y0047318D01*
X0237928Y0047563D01*
X0237928Y0047808D01*
X0237832Y0048289D01*
X0237644Y0048743D01*
X0237372Y0049151D01*
X0237025Y0049498D01*
X0236974Y0049531D01*
X0237025Y0049565D01*
X0237372Y0049912D01*
X0237644Y0050320D01*
X0237832Y0050774D01*
X0237928Y0051255D01*
X0237928Y0051500D01*
X0237928Y0051745D01*
X0237832Y0052226D01*
X0237644Y0052680D01*
X0237372Y0053088D01*
X0237025Y0053435D01*
X0236974Y0053468D01*
X0237025Y0053502D01*
X0237372Y0053849D01*
X0237644Y0054257D01*
X0237832Y0054711D01*
X0237928Y0055192D01*
X0237928Y0055437D01*
X0237928Y0055682D01*
X0237832Y0056163D01*
X0237644Y0056617D01*
X0237372Y0057025D01*
X0237025Y0057372D01*
X0236617Y0057644D01*
X0236163Y0057832D01*
X0235682Y0057928D01*
X0235437Y0057928D01*
X0235192Y0057928D01*
X0234711Y0057832D01*
X0234257Y0057644D01*
X0233849Y0057372D01*
X0233502Y0057025D01*
X0233468Y0056974D01*
X0233435Y0057025D01*
X0233088Y0057372D01*
X0232680Y0057644D01*
X0232226Y0057832D01*
X0231745Y0057928D01*
X0231500Y0057928D01*
X0231255Y0057928D01*
X0230774Y0057832D01*
X0230320Y0057644D01*
X0229912Y0057372D01*
X0229565Y0057025D01*
X0229531Y0056974D01*
X0229498Y0057025D01*
X0229151Y0057372D01*
X0228743Y0057644D01*
X0228289Y0057832D01*
X0227808Y0057928D01*
X0227563Y0057928D01*
X0227318Y0057928D01*
X0226837Y0057832D01*
X0226383Y0057644D01*
X0225975Y0057372D01*
X0225628Y0057025D01*
X0225356Y0056617D01*
X0225168Y0056163D01*
X0225072Y0055682D01*
X0225072Y0055437D01*
X0225072Y0055192D01*
X0225168Y0054711D01*
X0225356Y0054257D01*
X0225072Y0055226D02*
X0008500Y0055226D01*
X0008500Y0056225D02*
X0225193Y0056225D01*
X0225072Y0055437D02*
X0227563Y0055437D01*
X0231500Y0055437D01*
X0231500Y0051500D01*
X0231500Y0051500D01*
X0235437Y0051500D01*
X0235437Y0051500D01*
X0237928Y0051500D01*
X0235437Y0051500D01*
X0235437Y0051500D01*
X0235437Y0052946D01*
X0235437Y0055437D01*
X0232946Y0055437D01*
X0231500Y0055437D01*
X0231500Y0055437D01*
X0231500Y0055437D01*
X0231500Y0057928D01*
X0231500Y0055437D01*
X0235437Y0055437D01*
X0235437Y0055437D01*
X0235437Y0051500D01*
X0235437Y0051500D01*
X0232946Y0051500D01*
X0231500Y0051500D01*
X0231500Y0051500D01*
X0231500Y0047563D01*
X0231500Y0047563D01*
X0235437Y0047563D01*
X0235437Y0047563D01*
X0235437Y0050054D01*
X0235437Y0051500D01*
X0235437Y0047563D01*
X0235437Y0047563D01*
X0237928Y0047563D01*
X0235437Y0047563D01*
X0235437Y0047563D01*
X0232946Y0047563D01*
X0231500Y0047563D01*
X0231500Y0047563D01*
X0231500Y0050054D01*
X0231500Y0051500D01*
X0231500Y0051500D01*
X0231500Y0052946D01*
X0231500Y0055437D01*
X0231500Y0055437D01*
X0229009Y0055437D01*
X0227563Y0055437D01*
X0227563Y0055437D01*
X0227563Y0051500D01*
X0231500Y0051500D01*
X0231500Y0051500D01*
X0229009Y0051500D01*
X0227563Y0051500D01*
X0227563Y0051500D01*
X0227563Y0051500D01*
X0227563Y0047563D01*
X0231500Y0047563D01*
X0231500Y0047563D01*
X0231500Y0045072D01*
X0231500Y0047563D01*
X0231500Y0047563D01*
X0229009Y0047563D01*
X0227563Y0047563D01*
X0227563Y0047563D01*
X0227563Y0047563D01*
X0227563Y0050054D01*
X0227563Y0051500D01*
X0227563Y0051500D01*
X0227563Y0051500D01*
X0225072Y0051500D01*
X0227563Y0051500D01*
X0227563Y0052946D01*
X0227563Y0055437D01*
X0227563Y0055437D01*
X0227563Y0055437D01*
X0227563Y0057928D01*
X0227563Y0055437D01*
X0225072Y0055437D01*
X0227563Y0055437D02*
X0227563Y0055437D01*
X0227563Y0055226D02*
X0227563Y0055226D01*
X0227563Y0054228D02*
X0227563Y0054228D01*
X0227563Y0053229D02*
X0227563Y0053229D01*
X0227563Y0052231D02*
X0227563Y0052231D01*
X0227563Y0051232D02*
X0227563Y0051232D01*
X0227563Y0050234D02*
X0227563Y0050234D01*
X0227563Y0049235D02*
X0227563Y0049235D01*
X0227563Y0048237D02*
X0227563Y0048237D01*
X0227563Y0047563D02*
X0225072Y0047563D01*
X0227563Y0047563D01*
X0227563Y0047563D01*
X0227563Y0045072D01*
X0227563Y0047563D01*
X0227563Y0047563D01*
X0227563Y0047238D02*
X0227563Y0047238D01*
X0227563Y0046239D02*
X0227563Y0046239D01*
X0227563Y0045241D02*
X0227563Y0045241D01*
X0228465Y0045241D02*
X0230598Y0045241D01*
X0231500Y0045241D02*
X0231500Y0045241D01*
X0232402Y0045241D02*
X0234535Y0045241D01*
X0235437Y0045241D02*
X0235437Y0045241D01*
X0235437Y0045072D02*
X0235437Y0047563D01*
X0235437Y0047563D01*
X0235437Y0045072D01*
X0236339Y0045241D02*
X0319421Y0045241D01*
X0319421Y0046239D02*
X0237548Y0046239D01*
X0237912Y0047238D02*
X0319421Y0047238D01*
X0319421Y0048237D02*
X0237842Y0048237D01*
X0237287Y0049235D02*
X0319421Y0049235D01*
X0319421Y0050234D02*
X0237586Y0050234D01*
X0237923Y0051232D02*
X0319421Y0051232D01*
X0319421Y0052231D02*
X0237830Y0052231D01*
X0237230Y0053229D02*
X0319421Y0053229D01*
X0319421Y0054228D02*
X0237624Y0054228D01*
X0237928Y0055226D02*
X0319421Y0055226D01*
X0319421Y0056225D02*
X0237807Y0056225D01*
X0237928Y0055437D02*
X0235437Y0055437D01*
X0235437Y0055437D01*
X0235437Y0057928D01*
X0235437Y0055437D01*
X0235437Y0055437D01*
X0235437Y0055437D01*
X0237928Y0055437D01*
X0235437Y0055226D02*
X0235437Y0055226D01*
X0235437Y0054228D02*
X0235437Y0054228D01*
X0235437Y0053229D02*
X0235437Y0053229D01*
X0235437Y0052231D02*
X0235437Y0052231D01*
X0235437Y0051500D02*
X0235437Y0051500D01*
X0235437Y0051232D02*
X0235437Y0051232D01*
X0235437Y0050234D02*
X0235437Y0050234D01*
X0235437Y0049235D02*
X0235437Y0049235D01*
X0235437Y0048237D02*
X0235437Y0048237D01*
X0235437Y0047238D02*
X0235437Y0047238D01*
X0235437Y0046239D02*
X0235437Y0046239D01*
X0231500Y0046239D02*
X0231500Y0046239D01*
X0231500Y0047238D02*
X0231500Y0047238D01*
X0231500Y0048237D02*
X0231500Y0048237D01*
X0231500Y0049235D02*
X0231500Y0049235D01*
X0231500Y0050234D02*
X0231500Y0050234D01*
X0231500Y0051232D02*
X0231500Y0051232D01*
X0231500Y0052231D02*
X0231500Y0052231D01*
X0231500Y0053229D02*
X0231500Y0053229D01*
X0231500Y0054228D02*
X0231500Y0054228D01*
X0231500Y0055226D02*
X0231500Y0055226D01*
X0231500Y0055437D02*
X0231500Y0055437D01*
X0231500Y0056225D02*
X0231500Y0056225D01*
X0231500Y0057223D02*
X0231500Y0057223D01*
X0233236Y0057223D02*
X0233701Y0057223D01*
X0235437Y0057223D02*
X0235437Y0057223D01*
X0235437Y0056225D02*
X0235437Y0056225D01*
X0237173Y0057223D02*
X0319421Y0057223D01*
X0319421Y0058222D02*
X0115689Y0058222D01*
X0115689Y0058093D02*
X0114407Y0056811D01*
X0112593Y0056811D01*
X0111311Y0058093D01*
X0111311Y0059907D01*
X0112593Y0061189D01*
X0114407Y0061189D01*
X0115689Y0059907D01*
X0115689Y0058093D01*
X0115689Y0059220D02*
X0307778Y0059220D01*
X0307950Y0059201D02*
X0308000Y0059201D01*
X0308000Y0068500D01*
X0309000Y0068500D01*
X0309000Y0069500D01*
X0318299Y0069500D01*
X0318299Y0069550D01*
X0318176Y0070644D01*
X0317931Y0071717D01*
X0317568Y0072756D01*
X0317090Y0073748D01*
X0316504Y0074679D01*
X0315818Y0075540D01*
X0315040Y0076318D01*
X0314179Y0077004D01*
X0313248Y0077590D01*
X0312256Y0078068D01*
X0311217Y0078431D01*
X0310144Y0078676D01*
X0309050Y0078799D01*
X0309000Y0078799D01*
X0309000Y0069500D01*
X0308000Y0069500D01*
X0308000Y0078799D01*
X0307950Y0078799D01*
X0306856Y0078676D01*
X0305783Y0078431D01*
X0304744Y0078068D01*
X0303752Y0077590D01*
X0302821Y0077004D01*
X0301960Y0076318D01*
X0301182Y0075540D01*
X0300496Y0074679D01*
X0299910Y0073748D01*
X0299432Y0072756D01*
X0299069Y0071717D01*
X0298824Y0070644D01*
X0298701Y0069550D01*
X0298701Y0069500D01*
X0308000Y0069500D01*
X0308000Y0068500D01*
X0298701Y0068500D01*
X0298701Y0068450D01*
X0298824Y0067356D01*
X0299069Y0066283D01*
X0299432Y0065244D01*
X0299910Y0064252D01*
X0300496Y0063321D01*
X0301182Y0062460D01*
X0301960Y0061682D01*
X0302821Y0060996D01*
X0303752Y0060410D01*
X0304744Y0059932D01*
X0305783Y0059569D01*
X0306856Y0059324D01*
X0307950Y0059201D01*
X0308000Y0059220D02*
X0309000Y0059220D01*
X0309000Y0059201D02*
X0309050Y0059201D01*
X0310144Y0059324D01*
X0311217Y0059569D01*
X0312256Y0059932D01*
X0313248Y0060410D01*
X0314179Y0060996D01*
X0315040Y0061682D01*
X0315818Y0062460D01*
X0316504Y0063321D01*
X0317090Y0064252D01*
X0317568Y0065244D01*
X0317931Y0066283D01*
X0318176Y0067356D01*
X0318299Y0068450D01*
X0318299Y0068500D01*
X0309000Y0068500D01*
X0309000Y0059201D01*
X0309222Y0059220D02*
X0319421Y0059220D01*
X0319421Y0060219D02*
X0312850Y0060219D01*
X0314457Y0061217D02*
X0319421Y0061217D01*
X0319421Y0062216D02*
X0315574Y0062216D01*
X0316420Y0063214D02*
X0319421Y0063214D01*
X0319421Y0064213D02*
X0317065Y0064213D01*
X0317552Y0065211D02*
X0319421Y0065211D01*
X0319421Y0066210D02*
X0317905Y0066210D01*
X0318142Y0067208D02*
X0319421Y0067208D01*
X0319421Y0068207D02*
X0318272Y0068207D01*
X0319421Y0069205D02*
X0309000Y0069205D01*
X0309000Y0068207D02*
X0308000Y0068207D01*
X0308000Y0069205D02*
X0260189Y0069205D01*
X0260189Y0069093D02*
X0258907Y0067811D01*
X0257093Y0067811D01*
X0255811Y0069093D01*
X0255811Y0070907D01*
X0257093Y0072189D01*
X0258907Y0072189D01*
X0260189Y0070907D01*
X0260189Y0069093D01*
X0260189Y0070204D02*
X0298774Y0070204D01*
X0298951Y0071202D02*
X0259893Y0071202D01*
X0256107Y0071202D02*
X0169600Y0071202D01*
X0169600Y0071517D02*
X0169204Y0072473D01*
X0168473Y0073204D01*
X0167759Y0073500D01*
X0168473Y0073796D01*
X0169204Y0074527D01*
X0169600Y0075483D01*
X0169600Y0076517D01*
X0169204Y0077473D01*
X0168473Y0078204D01*
X0167517Y0078600D01*
X0166483Y0078600D01*
X0165527Y0078204D01*
X0164796Y0077473D01*
X0164500Y0076759D01*
X0164204Y0077473D01*
X0163473Y0078204D01*
X0162517Y0078600D01*
X0161483Y0078600D01*
X0160527Y0078204D01*
X0159796Y0077473D01*
X0159500Y0076759D01*
X0159204Y0077473D01*
X0158473Y0078204D01*
X0157517Y0078600D01*
X0156483Y0078600D01*
X0155527Y0078204D01*
X0154796Y0077473D01*
X0154500Y0076759D01*
X0154204Y0077473D01*
X0153473Y0078204D01*
X0152517Y0078600D01*
X0151483Y0078600D01*
X0150527Y0078204D01*
X0149796Y0077473D01*
X0149500Y0076759D01*
X0149204Y0077473D01*
X0148473Y0078204D01*
X0147517Y0078600D01*
X0146483Y0078600D01*
X0145527Y0078204D01*
X0144796Y0077473D01*
X0144400Y0076517D01*
X0144400Y0075483D01*
X0144796Y0074527D01*
X0145527Y0073796D01*
X0146241Y0073500D01*
X0145527Y0073204D01*
X0144796Y0072473D01*
X0144400Y0071517D01*
X0144400Y0070483D01*
X0144796Y0069527D01*
X0145527Y0068796D01*
X0146483Y0068400D01*
X0147517Y0068400D01*
X0148473Y0068796D01*
X0149204Y0069527D01*
X0149500Y0070241D01*
X0149796Y0069527D01*
X0150527Y0068796D01*
X0151483Y0068400D01*
X0152517Y0068400D01*
X0153473Y0068796D01*
X0154204Y0069527D01*
X0154284Y0069719D01*
X0154341Y0069579D01*
X0154670Y0069088D01*
X0155088Y0068670D01*
X0155579Y0068341D01*
X0156125Y0068115D01*
X0156705Y0068000D01*
X0157000Y0068000D01*
X0157295Y0068000D01*
X0157875Y0068115D01*
X0158421Y0068341D01*
X0158912Y0068670D01*
X0159330Y0069088D01*
X0159500Y0069342D01*
X0159670Y0069088D01*
X0160088Y0068670D01*
X0160579Y0068341D01*
X0161125Y0068115D01*
X0161705Y0068000D01*
X0162000Y0068000D01*
X0162295Y0068000D01*
X0162875Y0068115D01*
X0163421Y0068341D01*
X0163912Y0068670D01*
X0164330Y0069088D01*
X0164659Y0069579D01*
X0164716Y0069719D01*
X0164796Y0069527D01*
X0165527Y0068796D01*
X0166483Y0068400D01*
X0167517Y0068400D01*
X0168473Y0068796D01*
X0169204Y0069527D01*
X0169600Y0070483D01*
X0169600Y0071517D01*
X0169317Y0072201D02*
X0228795Y0072201D01*
X0228843Y0072152D02*
X0230657Y0072152D01*
X0231939Y0073435D01*
X0231939Y0075248D01*
X0230657Y0076530D01*
X0228843Y0076530D01*
X0227561Y0075248D01*
X0227561Y0073435D01*
X0228843Y0072152D01*
X0227796Y0073199D02*
X0168478Y0073199D01*
X0168875Y0074198D02*
X0227561Y0074198D01*
X0227561Y0075196D02*
X0169481Y0075196D01*
X0169600Y0076195D02*
X0228508Y0076195D01*
X0230992Y0076195D02*
X0301837Y0076195D01*
X0300908Y0075196D02*
X0231939Y0075196D01*
X0231939Y0074198D02*
X0300193Y0074198D01*
X0299646Y0073199D02*
X0231704Y0073199D01*
X0230705Y0072201D02*
X0299238Y0072201D01*
X0308000Y0072201D02*
X0309000Y0072201D01*
X0309000Y0073199D02*
X0308000Y0073199D01*
X0308000Y0074198D02*
X0309000Y0074198D01*
X0309000Y0075196D02*
X0308000Y0075196D01*
X0308000Y0076195D02*
X0309000Y0076195D01*
X0309000Y0077193D02*
X0308000Y0077193D01*
X0308000Y0078192D02*
X0309000Y0078192D01*
X0311901Y0078192D02*
X0319421Y0078192D01*
X0319421Y0079190D02*
X0008500Y0079190D01*
X0008500Y0078192D02*
X0015599Y0078192D01*
X0015244Y0078068D02*
X0014252Y0077590D01*
X0013321Y0077004D01*
X0012460Y0076318D01*
X0011682Y0075540D01*
X0010996Y0074679D01*
X0010410Y0073748D01*
X0009932Y0072756D01*
X0009569Y0071717D01*
X0009324Y0070644D01*
X0009201Y0069550D01*
X0009201Y0069500D01*
X0018500Y0069500D01*
X0018500Y0078799D01*
X0018450Y0078799D01*
X0017356Y0078676D01*
X0016283Y0078431D01*
X0015244Y0078068D01*
X0013621Y0077193D02*
X0008500Y0077193D01*
X0008500Y0076195D02*
X0012337Y0076195D01*
X0011408Y0075196D02*
X0008500Y0075196D01*
X0008500Y0074198D02*
X0010693Y0074198D01*
X0010146Y0073199D02*
X0008500Y0073199D01*
X0008500Y0072201D02*
X0009738Y0072201D01*
X0009451Y0071202D02*
X0008500Y0071202D01*
X0008500Y0070204D02*
X0009274Y0070204D01*
X0008500Y0069205D02*
X0018500Y0069205D01*
X0018500Y0069500D02*
X0018500Y0068500D01*
X0019500Y0068500D01*
X0019500Y0069500D01*
X0028799Y0069500D01*
X0028799Y0069550D01*
X0028676Y0070644D01*
X0028431Y0071717D01*
X0028068Y0072756D01*
X0027590Y0073748D01*
X0027004Y0074679D01*
X0026318Y0075540D01*
X0025540Y0076318D01*
X0024679Y0077004D01*
X0023748Y0077590D01*
X0022756Y0078068D01*
X0021717Y0078431D01*
X0020644Y0078676D01*
X0019550Y0078799D01*
X0019500Y0078799D01*
X0019500Y0069500D01*
X0018500Y0069500D01*
X0018500Y0070204D02*
X0019500Y0070204D01*
X0019500Y0071202D02*
X0018500Y0071202D01*
X0018500Y0072201D02*
X0019500Y0072201D01*
X0019500Y0073199D02*
X0018500Y0073199D01*
X0018500Y0074198D02*
X0019500Y0074198D01*
X0019500Y0075196D02*
X0018500Y0075196D01*
X0018500Y0076195D02*
X0019500Y0076195D01*
X0019500Y0077193D02*
X0018500Y0077193D01*
X0018500Y0078192D02*
X0019500Y0078192D01*
X0022401Y0078192D02*
X0106096Y0078192D01*
X0105811Y0077907D02*
X0105811Y0076093D01*
X0107093Y0074811D01*
X0108907Y0074811D01*
X0110189Y0076093D01*
X0110189Y0077907D01*
X0108907Y0079189D01*
X0107093Y0079189D01*
X0105811Y0077907D01*
X0105811Y0077193D02*
X0024379Y0077193D01*
X0025663Y0076195D02*
X0105811Y0076195D01*
X0106708Y0075196D02*
X0026592Y0075196D01*
X0027307Y0074198D02*
X0145125Y0074198D01*
X0145522Y0073199D02*
X0123396Y0073199D01*
X0122907Y0073689D02*
X0121093Y0073689D01*
X0119811Y0072407D01*
X0119811Y0070593D01*
X0121093Y0069311D01*
X0122907Y0069311D01*
X0124189Y0070593D01*
X0124189Y0072407D01*
X0122907Y0073689D01*
X0120604Y0073199D02*
X0027854Y0073199D01*
X0028262Y0072201D02*
X0119811Y0072201D01*
X0119811Y0071202D02*
X0102893Y0071202D01*
X0102407Y0071689D02*
X0100593Y0071689D01*
X0099311Y0070407D01*
X0099311Y0068593D01*
X0100593Y0067311D01*
X0102407Y0067311D01*
X0103689Y0068593D01*
X0103689Y0070407D01*
X0102407Y0071689D01*
X0100107Y0071202D02*
X0028549Y0071202D01*
X0028726Y0070204D02*
X0099311Y0070204D01*
X0099311Y0069205D02*
X0053390Y0069205D01*
X0053689Y0068907D02*
X0052407Y0070189D01*
X0050593Y0070189D01*
X0049311Y0068907D01*
X0049311Y0067093D01*
X0050593Y0065811D01*
X0052407Y0065811D01*
X0053689Y0067093D01*
X0053689Y0068907D01*
X0053689Y0068207D02*
X0099698Y0068207D01*
X0102811Y0067407D02*
X0102811Y0065593D01*
X0104093Y0064311D01*
X0105907Y0064311D01*
X0107189Y0065593D01*
X0107189Y0067407D01*
X0105907Y0068689D01*
X0104093Y0068689D01*
X0102811Y0067407D01*
X0102811Y0067208D02*
X0053689Y0067208D01*
X0052805Y0066210D02*
X0102811Y0066210D01*
X0103193Y0065211D02*
X0028052Y0065211D01*
X0028068Y0065244D02*
X0028431Y0066283D01*
X0028676Y0067356D01*
X0028799Y0068450D01*
X0028799Y0068500D01*
X0019500Y0068500D01*
X0019500Y0059201D01*
X0019550Y0059201D01*
X0020644Y0059324D01*
X0021717Y0059569D01*
X0022756Y0059932D01*
X0023748Y0060410D01*
X0024679Y0060996D01*
X0025540Y0061682D01*
X0026318Y0062460D01*
X0027004Y0063321D01*
X0027590Y0064252D01*
X0028068Y0065244D01*
X0028405Y0066210D02*
X0050195Y0066210D01*
X0049311Y0067208D02*
X0028642Y0067208D01*
X0028772Y0068207D02*
X0049311Y0068207D01*
X0049610Y0069205D02*
X0019500Y0069205D01*
X0019500Y0068207D02*
X0018500Y0068207D01*
X0018500Y0068500D02*
X0018500Y0059201D01*
X0018450Y0059201D01*
X0017356Y0059324D01*
X0016283Y0059569D01*
X0015244Y0059932D01*
X0014252Y0060410D01*
X0013321Y0060996D01*
X0012460Y0061682D01*
X0011682Y0062460D01*
X0010996Y0063321D01*
X0010410Y0064252D01*
X0009932Y0065244D01*
X0009569Y0066283D01*
X0009324Y0067356D01*
X0009201Y0068450D01*
X0009201Y0068500D01*
X0018500Y0068500D01*
X0018500Y0067208D02*
X0019500Y0067208D01*
X0019500Y0066210D02*
X0018500Y0066210D01*
X0018500Y0065211D02*
X0019500Y0065211D01*
X0019500Y0064213D02*
X0018500Y0064213D01*
X0018500Y0063214D02*
X0019500Y0063214D01*
X0019500Y0062216D02*
X0018500Y0062216D01*
X0018500Y0061217D02*
X0019500Y0061217D01*
X0019500Y0060219D02*
X0018500Y0060219D01*
X0018500Y0059220D02*
X0019500Y0059220D01*
X0019722Y0059220D02*
X0095311Y0059220D01*
X0095311Y0059907D02*
X0095311Y0058093D01*
X0096593Y0056811D01*
X0098407Y0056811D01*
X0099689Y0058093D01*
X0099689Y0059907D01*
X0098407Y0061189D01*
X0096593Y0061189D01*
X0095311Y0059907D01*
X0095623Y0060219D02*
X0023350Y0060219D01*
X0024957Y0061217D02*
X0055187Y0061217D01*
X0055593Y0060811D02*
X0057407Y0060811D01*
X0058689Y0062093D01*
X0058689Y0063907D01*
X0057407Y0065189D01*
X0055593Y0065189D01*
X0054311Y0063907D01*
X0054311Y0062093D01*
X0055593Y0060811D01*
X0054311Y0062216D02*
X0026074Y0062216D01*
X0026920Y0063214D02*
X0054311Y0063214D01*
X0054617Y0064213D02*
X0027565Y0064213D01*
X0014650Y0060219D02*
X0008500Y0060219D01*
X0008500Y0061217D02*
X0013043Y0061217D01*
X0011926Y0062216D02*
X0008500Y0062216D01*
X0008500Y0063214D02*
X0011080Y0063214D01*
X0010435Y0064213D02*
X0008500Y0064213D01*
X0008500Y0065211D02*
X0009948Y0065211D01*
X0009595Y0066210D02*
X0008500Y0066210D01*
X0008500Y0067208D02*
X0009358Y0067208D01*
X0009228Y0068207D02*
X0008500Y0068207D01*
X0008500Y0059220D02*
X0018278Y0059220D01*
X0008500Y0058222D02*
X0095311Y0058222D01*
X0096181Y0057223D02*
X0008500Y0057223D01*
X0057813Y0061217D02*
X0302543Y0061217D01*
X0301426Y0062216D02*
X0146311Y0062216D01*
X0145907Y0061811D02*
X0147189Y0063093D01*
X0147189Y0064907D01*
X0145907Y0066189D01*
X0144093Y0066189D01*
X0142811Y0064907D01*
X0142811Y0063093D01*
X0144093Y0061811D01*
X0145907Y0061811D01*
X0147189Y0063214D02*
X0300580Y0063214D01*
X0299935Y0064213D02*
X0147189Y0064213D01*
X0146884Y0065211D02*
X0242193Y0065211D01*
X0242593Y0064811D02*
X0244407Y0064811D01*
X0245689Y0066093D01*
X0245689Y0067907D01*
X0244407Y0069189D01*
X0242593Y0069189D01*
X0241311Y0067907D01*
X0241311Y0066093D01*
X0242593Y0064811D01*
X0241311Y0066210D02*
X0107189Y0066210D01*
X0107189Y0067208D02*
X0241311Y0067208D01*
X0241611Y0068207D02*
X0163096Y0068207D01*
X0162000Y0068207D02*
X0162000Y0068207D01*
X0162000Y0068000D02*
X0162000Y0071000D01*
X0162000Y0071000D01*
X0162000Y0071000D01*
X0157000Y0071000D01*
X0157000Y0071000D01*
X0157000Y0068000D01*
X0157000Y0071000D01*
X0157000Y0071000D01*
X0159000Y0071000D01*
X0162000Y0071000D01*
X0162000Y0068000D01*
X0160904Y0068207D02*
X0158096Y0068207D01*
X0157000Y0068207D02*
X0157000Y0068207D01*
X0157000Y0069205D02*
X0157000Y0069205D01*
X0157000Y0070204D02*
X0157000Y0070204D01*
X0159409Y0069205D02*
X0159591Y0069205D01*
X0162000Y0069205D02*
X0162000Y0069205D01*
X0162000Y0070204D02*
X0162000Y0070204D01*
X0164409Y0069205D02*
X0165118Y0069205D01*
X0168882Y0069205D02*
X0255811Y0069205D01*
X0255811Y0070204D02*
X0169484Y0070204D01*
X0155904Y0068207D02*
X0106389Y0068207D01*
X0103611Y0068207D02*
X0103302Y0068207D01*
X0103689Y0069205D02*
X0145118Y0069205D01*
X0144516Y0070204D02*
X0123799Y0070204D01*
X0124189Y0071202D02*
X0144400Y0071202D01*
X0144683Y0072201D02*
X0124189Y0072201D01*
X0120201Y0070204D02*
X0103689Y0070204D01*
X0106807Y0065211D02*
X0143116Y0065211D01*
X0142811Y0064213D02*
X0058383Y0064213D01*
X0058689Y0063214D02*
X0142811Y0063214D01*
X0143689Y0062216D02*
X0058689Y0062216D01*
X0077633Y0051232D02*
X0138136Y0051232D01*
X0137811Y0050907D02*
X0137811Y0049093D01*
X0139093Y0047811D01*
X0140907Y0047811D01*
X0142189Y0049093D01*
X0142189Y0050907D01*
X0140907Y0052189D01*
X0139093Y0052189D01*
X0137811Y0050907D01*
X0137811Y0050234D02*
X0104862Y0050234D01*
X0105189Y0049907D02*
X0103907Y0051189D01*
X0102093Y0051189D01*
X0100811Y0049907D01*
X0100811Y0048093D01*
X0102093Y0046811D01*
X0103907Y0046811D01*
X0105189Y0048093D01*
X0105189Y0049907D01*
X0105189Y0049235D02*
X0137811Y0049235D01*
X0138668Y0048237D02*
X0105189Y0048237D01*
X0104334Y0047238D02*
X0216142Y0047238D01*
X0215811Y0046907D02*
X0215811Y0045093D01*
X0217093Y0043811D01*
X0218907Y0043811D01*
X0220189Y0045093D01*
X0220189Y0046907D01*
X0218907Y0048189D01*
X0217093Y0048189D01*
X0215811Y0046907D01*
X0215811Y0046239D02*
X0081003Y0046239D01*
X0081059Y0045241D02*
X0215811Y0045241D01*
X0216662Y0044242D02*
X0081059Y0044242D01*
X0081059Y0043244D02*
X0165148Y0043244D01*
X0165593Y0043689D02*
X0164311Y0042407D01*
X0164311Y0040593D01*
X0165593Y0039311D01*
X0167407Y0039311D01*
X0168689Y0040593D01*
X0168689Y0042407D01*
X0167407Y0043689D01*
X0165593Y0043689D01*
X0164311Y0042245D02*
X0080763Y0042245D01*
X0080350Y0041247D02*
X0164311Y0041247D01*
X0164656Y0040248D02*
X0079936Y0040248D01*
X0079052Y0039250D02*
X0319421Y0039250D01*
X0319421Y0040248D02*
X0220844Y0040248D01*
X0221189Y0040593D02*
X0219907Y0039311D01*
X0218093Y0039311D01*
X0216811Y0040593D01*
X0216811Y0042407D01*
X0218093Y0043689D01*
X0219907Y0043689D01*
X0221189Y0042407D01*
X0221189Y0040593D01*
X0221189Y0041247D02*
X0319421Y0041247D01*
X0319421Y0042245D02*
X0221189Y0042245D01*
X0220352Y0043244D02*
X0319421Y0043244D01*
X0319421Y0044242D02*
X0219338Y0044242D01*
X0220189Y0045241D02*
X0226661Y0045241D01*
X0225452Y0046239D02*
X0220189Y0046239D01*
X0219858Y0047238D02*
X0225088Y0047238D01*
X0225158Y0048237D02*
X0141332Y0048237D01*
X0142189Y0049235D02*
X0225713Y0049235D01*
X0225414Y0050234D02*
X0142189Y0050234D01*
X0141864Y0051232D02*
X0216172Y0051232D01*
X0218828Y0051232D02*
X0225077Y0051232D01*
X0225170Y0052231D02*
X0219689Y0052231D01*
X0219689Y0053229D02*
X0225770Y0053229D01*
X0227563Y0056225D02*
X0227563Y0056225D01*
X0227563Y0057223D02*
X0227563Y0057223D01*
X0229299Y0057223D02*
X0229764Y0057223D01*
X0225827Y0057223D02*
X0114819Y0057223D01*
X0112181Y0057223D02*
X0098819Y0057223D01*
X0099689Y0058222D02*
X0111311Y0058222D01*
X0111311Y0059220D02*
X0099689Y0059220D01*
X0099377Y0060219D02*
X0111623Y0060219D01*
X0115377Y0060219D02*
X0304150Y0060219D01*
X0308000Y0060219D02*
X0309000Y0060219D01*
X0309000Y0061217D02*
X0308000Y0061217D01*
X0308000Y0062216D02*
X0309000Y0062216D01*
X0309000Y0063214D02*
X0308000Y0063214D01*
X0308000Y0064213D02*
X0309000Y0064213D01*
X0309000Y0065211D02*
X0308000Y0065211D01*
X0308000Y0066210D02*
X0309000Y0066210D01*
X0309000Y0067208D02*
X0308000Y0067208D01*
X0308000Y0070204D02*
X0309000Y0070204D01*
X0309000Y0071202D02*
X0308000Y0071202D01*
X0316807Y0074198D02*
X0319421Y0074198D01*
X0319421Y0075196D02*
X0316092Y0075196D01*
X0315163Y0076195D02*
X0319421Y0076195D01*
X0319421Y0077193D02*
X0313879Y0077193D01*
X0305099Y0078192D02*
X0168485Y0078192D01*
X0169320Y0077193D02*
X0303121Y0077193D01*
X0317354Y0073199D02*
X0319421Y0073199D01*
X0319421Y0072201D02*
X0317762Y0072201D01*
X0318049Y0071202D02*
X0319421Y0071202D01*
X0319421Y0070204D02*
X0318226Y0070204D01*
X0299448Y0065211D02*
X0244807Y0065211D01*
X0245689Y0066210D02*
X0299095Y0066210D01*
X0298858Y0067208D02*
X0245689Y0067208D01*
X0245389Y0068207D02*
X0256698Y0068207D01*
X0259302Y0068207D02*
X0298728Y0068207D01*
X0217648Y0043244D02*
X0190352Y0043244D01*
X0189907Y0043689D02*
X0188093Y0043689D01*
X0186811Y0042407D01*
X0186811Y0040593D01*
X0188093Y0039311D01*
X0189907Y0039311D01*
X0191189Y0040593D01*
X0191189Y0042407D01*
X0189907Y0043689D01*
X0191189Y0042245D02*
X0216811Y0042245D01*
X0216811Y0041247D02*
X0191189Y0041247D01*
X0190844Y0040248D02*
X0217156Y0040248D01*
X0187648Y0043244D02*
X0167852Y0043244D01*
X0168689Y0042245D02*
X0186811Y0042245D01*
X0186811Y0041247D02*
X0168689Y0041247D01*
X0168344Y0040248D02*
X0187156Y0040248D01*
X0191093Y0029689D02*
X0189811Y0028407D01*
X0189811Y0026593D01*
X0191093Y0025311D01*
X0192907Y0025311D01*
X0194189Y0026593D01*
X0194189Y0028407D01*
X0192907Y0029689D01*
X0191093Y0029689D01*
X0190669Y0029265D02*
X0173912Y0029265D01*
X0173919Y0028266D02*
X0189811Y0028266D01*
X0189811Y0027268D02*
X0173718Y0027268D01*
X0173245Y0026269D02*
X0190135Y0026269D01*
X0193865Y0026269D02*
X0216674Y0026269D01*
X0217093Y0026689D02*
X0215811Y0025407D01*
X0215811Y0023593D01*
X0217093Y0022311D01*
X0218907Y0022311D01*
X0220189Y0023593D01*
X0220189Y0025407D01*
X0218907Y0026689D01*
X0217093Y0026689D01*
X0219326Y0026269D02*
X0319421Y0026269D01*
X0319421Y0025271D02*
X0220189Y0025271D01*
X0220189Y0024272D02*
X0319421Y0024272D01*
X0319421Y0023274D02*
X0227482Y0023274D01*
X0228481Y0022275D02*
X0319421Y0022275D01*
X0319421Y0021277D02*
X0228689Y0021277D01*
X0228689Y0020278D02*
X0319421Y0020278D01*
X0319421Y0019280D02*
X0267316Y0019280D01*
X0266907Y0019689D02*
X0265093Y0019689D01*
X0263811Y0018407D01*
X0263811Y0016593D01*
X0265093Y0015311D01*
X0266907Y0015311D01*
X0268189Y0016593D01*
X0268189Y0018407D01*
X0266907Y0019689D01*
X0264684Y0019280D02*
X0227715Y0019280D01*
X0225285Y0019280D02*
X0173816Y0019280D01*
X0174189Y0018281D02*
X0263811Y0018281D01*
X0263811Y0017283D02*
X0250313Y0017283D01*
X0251189Y0016284D02*
X0264120Y0016284D01*
X0267880Y0016284D02*
X0319421Y0016284D01*
X0319421Y0015286D02*
X0251189Y0015286D01*
X0250883Y0014287D02*
X0319421Y0014287D01*
X0319421Y0017283D02*
X0268189Y0017283D01*
X0268189Y0018281D02*
X0319421Y0018281D01*
X0319421Y0027268D02*
X0194189Y0027268D01*
X0194189Y0028266D02*
X0319421Y0028266D01*
X0319421Y0029265D02*
X0193331Y0029265D01*
X0173498Y0030263D02*
X0319421Y0030263D01*
X0319421Y0037253D02*
X0124343Y0037253D01*
X0120657Y0037253D02*
X0076239Y0037253D01*
X0078054Y0038251D02*
X0319421Y0038251D01*
X0247687Y0017283D02*
X0174189Y0017283D01*
X0173380Y0016284D02*
X0246811Y0016284D01*
X0246811Y0015286D02*
X0112189Y0015286D01*
X0112189Y0014287D02*
X0247117Y0014287D01*
X0224519Y0022275D02*
X0127871Y0022275D01*
X0128689Y0023274D02*
X0216131Y0023274D01*
X0215811Y0024272D02*
X0160368Y0024272D01*
X0160689Y0024593D02*
X0159407Y0023311D01*
X0157593Y0023311D01*
X0156311Y0024593D01*
X0156311Y0026407D01*
X0157593Y0027689D01*
X0159407Y0027689D01*
X0160689Y0026407D01*
X0160689Y0024593D01*
X0160689Y0025271D02*
X0168139Y0025271D01*
X0167078Y0026269D02*
X0160689Y0026269D01*
X0159828Y0027268D02*
X0166605Y0027268D01*
X0166404Y0028266D02*
X0156596Y0028266D01*
X0156589Y0029265D02*
X0166411Y0029265D01*
X0166825Y0030263D02*
X0156175Y0030263D01*
X0149502Y0030263D02*
X0053359Y0030263D01*
X0079811Y0022275D02*
X0008500Y0022275D01*
X0008500Y0021277D02*
X0080628Y0021277D01*
X0083372Y0021277D02*
X0119628Y0021277D01*
X0118811Y0022275D02*
X0084189Y0022275D01*
X0084189Y0023274D02*
X0118811Y0023274D01*
X0119177Y0024272D02*
X0083823Y0024272D01*
X0128689Y0024272D02*
X0156632Y0024272D01*
X0156311Y0025271D02*
X0154861Y0025271D01*
X0155922Y0026269D02*
X0156311Y0026269D01*
X0156395Y0027268D02*
X0157172Y0027268D01*
X0150816Y0025271D02*
X0131366Y0025271D01*
X0131689Y0026269D02*
X0137135Y0026269D01*
X0136311Y0027268D02*
X0131689Y0027268D01*
X0139865Y0026269D02*
X0149755Y0026269D01*
X0149282Y0027268D02*
X0140689Y0027268D01*
X0140689Y0028266D02*
X0149081Y0028266D01*
X0149088Y0029265D02*
X0140331Y0029265D01*
X0150183Y0020278D02*
X0008500Y0020278D01*
X0008500Y0019280D02*
X0149311Y0019280D01*
X0149311Y0018281D02*
X0008500Y0018281D01*
X0008500Y0017283D02*
X0149622Y0017283D01*
X0172184Y0025271D02*
X0215811Y0025271D01*
X0219869Y0023274D02*
X0225518Y0023274D01*
X0101666Y0047238D02*
X0080589Y0047238D01*
X0080176Y0048237D02*
X0100811Y0048237D01*
X0100811Y0049235D02*
X0079630Y0049235D01*
X0078632Y0050234D02*
X0101138Y0050234D01*
X0148882Y0069205D02*
X0150118Y0069205D01*
X0149516Y0070204D02*
X0149484Y0070204D01*
X0153882Y0069205D02*
X0154591Y0069205D01*
X0144519Y0075196D02*
X0109292Y0075196D01*
X0110189Y0076195D02*
X0144400Y0076195D01*
X0144680Y0077193D02*
X0110189Y0077193D01*
X0109904Y0078192D02*
X0145515Y0078192D01*
X0148485Y0078192D02*
X0150515Y0078192D01*
X0149680Y0077193D02*
X0149320Y0077193D01*
X0153485Y0078192D02*
X0155515Y0078192D01*
X0154680Y0077193D02*
X0154320Y0077193D01*
X0158485Y0078192D02*
X0160515Y0078192D01*
X0159680Y0077193D02*
X0159320Y0077193D01*
X0163485Y0078192D02*
X0165515Y0078192D01*
X0164680Y0077193D02*
X0164320Y0077193D01*
M02*
