G75*
%MOIN*%
%OFA0B0*%
%FSLAX25Y25*%
%IPPOS*%
%LPD*%
%AMOC8*
5,1,8,0,0,1.08239X$1,22.5*
%
%ADD10C,0.00500*%
%ADD11C,0.00100*%
%ADD12C,0.00800*%
%ADD13C,0.00300*%
%ADD14C,0.01000*%
%ADD15R,0.02800X0.01600*%
%ADD16C,0.03200*%
%ADD17C,0.00600*%
%ADD18C,0.00200*%
D10*
X0149337Y0020004D02*
X0151306Y0020004D01*
X0149337Y0020004D02*
X0149337Y0082996D01*
X0122739Y0082087D02*
X0122739Y0075307D01*
X0118802Y0075307D01*
X0114865Y0075307D02*
X0110928Y0075307D01*
X0110928Y0082087D01*
X0111623Y0079394D02*
X0111625Y0079453D01*
X0111631Y0079511D01*
X0111641Y0079569D01*
X0111654Y0079626D01*
X0111672Y0079683D01*
X0111693Y0079738D01*
X0111718Y0079791D01*
X0111746Y0079842D01*
X0111777Y0079892D01*
X0111812Y0079939D01*
X0111850Y0079984D01*
X0111891Y0080027D01*
X0111935Y0080066D01*
X0111981Y0080102D01*
X0112029Y0080136D01*
X0112080Y0080166D01*
X0112133Y0080192D01*
X0112187Y0080215D01*
X0112242Y0080234D01*
X0112299Y0080250D01*
X0112357Y0080262D01*
X0112415Y0080270D01*
X0112474Y0080274D01*
X0112532Y0080274D01*
X0112591Y0080270D01*
X0112649Y0080262D01*
X0112707Y0080250D01*
X0112764Y0080234D01*
X0112819Y0080215D01*
X0112873Y0080192D01*
X0112926Y0080166D01*
X0112977Y0080136D01*
X0113025Y0080102D01*
X0113071Y0080066D01*
X0113115Y0080027D01*
X0113156Y0079984D01*
X0113194Y0079939D01*
X0113229Y0079892D01*
X0113260Y0079842D01*
X0113288Y0079791D01*
X0113313Y0079738D01*
X0113334Y0079683D01*
X0113352Y0079626D01*
X0113365Y0079569D01*
X0113375Y0079511D01*
X0113381Y0079453D01*
X0113383Y0079394D01*
X0113381Y0079335D01*
X0113375Y0079277D01*
X0113365Y0079219D01*
X0113352Y0079162D01*
X0113334Y0079105D01*
X0113313Y0079050D01*
X0113288Y0078997D01*
X0113260Y0078946D01*
X0113229Y0078896D01*
X0113194Y0078849D01*
X0113156Y0078804D01*
X0113115Y0078761D01*
X0113071Y0078722D01*
X0113025Y0078686D01*
X0112977Y0078652D01*
X0112926Y0078622D01*
X0112873Y0078596D01*
X0112819Y0078573D01*
X0112764Y0078554D01*
X0112707Y0078538D01*
X0112649Y0078526D01*
X0112591Y0078518D01*
X0112532Y0078514D01*
X0112474Y0078514D01*
X0112415Y0078518D01*
X0112357Y0078526D01*
X0112299Y0078538D01*
X0112242Y0078554D01*
X0112187Y0078573D01*
X0112133Y0078596D01*
X0112080Y0078622D01*
X0112029Y0078652D01*
X0111981Y0078686D01*
X0111935Y0078722D01*
X0111891Y0078761D01*
X0111850Y0078804D01*
X0111812Y0078849D01*
X0111777Y0078896D01*
X0111746Y0078946D01*
X0111718Y0078997D01*
X0111693Y0079050D01*
X0111672Y0079105D01*
X0111654Y0079162D01*
X0111641Y0079219D01*
X0111631Y0079277D01*
X0111625Y0079335D01*
X0111623Y0079394D01*
X0115849Y0082299D02*
X0117818Y0082299D01*
X0212329Y0082996D02*
X0212329Y0020004D01*
X0210361Y0020004D01*
X0204455Y0020004D02*
X0157211Y0020004D01*
X0296164Y0022000D02*
X0296166Y0022112D01*
X0296172Y0022225D01*
X0296182Y0022337D01*
X0296196Y0022448D01*
X0296214Y0022560D01*
X0296236Y0022670D01*
X0296261Y0022779D01*
X0296291Y0022888D01*
X0296324Y0022995D01*
X0296362Y0023101D01*
X0296403Y0023206D01*
X0296447Y0023309D01*
X0296495Y0023411D01*
X0296547Y0023511D01*
X0296603Y0023609D01*
X0296662Y0023705D01*
X0296724Y0023798D01*
X0296789Y0023890D01*
X0296858Y0023979D01*
X0296930Y0024066D01*
X0297005Y0024150D01*
X0297082Y0024231D01*
X0297163Y0024309D01*
X0297246Y0024385D01*
X0297332Y0024457D01*
X0297421Y0024527D01*
X0297511Y0024593D01*
X0297605Y0024656D01*
X0297700Y0024716D01*
X0297797Y0024772D01*
X0297897Y0024825D01*
X0297998Y0024874D01*
X0298101Y0024920D01*
X0298205Y0024962D01*
X0298311Y0025000D01*
X0298418Y0025034D01*
X0298526Y0025065D01*
X0298636Y0025091D01*
X0298746Y0025114D01*
X0298857Y0025133D01*
X0298968Y0025148D01*
X0299080Y0025159D01*
X0299192Y0025166D01*
X0299305Y0025169D01*
X0299417Y0025168D01*
X0299530Y0025163D01*
X0299642Y0025154D01*
X0299754Y0025141D01*
X0299865Y0025124D01*
X0299975Y0025103D01*
X0300085Y0025078D01*
X0300194Y0025050D01*
X0300302Y0025017D01*
X0300408Y0024981D01*
X0300513Y0024941D01*
X0300617Y0024897D01*
X0300719Y0024850D01*
X0300819Y0024799D01*
X0300917Y0024744D01*
X0301014Y0024686D01*
X0301108Y0024625D01*
X0301200Y0024560D01*
X0301290Y0024493D01*
X0301377Y0024422D01*
X0301462Y0024347D01*
X0301544Y0024270D01*
X0301623Y0024191D01*
X0301699Y0024108D01*
X0301773Y0024023D01*
X0301843Y0023935D01*
X0301910Y0023844D01*
X0301974Y0023752D01*
X0302034Y0023657D01*
X0302091Y0023560D01*
X0302145Y0023461D01*
X0302195Y0023360D01*
X0302242Y0023258D01*
X0302284Y0023154D01*
X0302324Y0023049D01*
X0302359Y0022942D01*
X0302390Y0022834D01*
X0302418Y0022725D01*
X0302442Y0022615D01*
X0302462Y0022504D01*
X0302478Y0022393D01*
X0302490Y0022281D01*
X0302498Y0022169D01*
X0302502Y0022056D01*
X0302502Y0021944D01*
X0302498Y0021831D01*
X0302490Y0021719D01*
X0302478Y0021607D01*
X0302462Y0021496D01*
X0302442Y0021385D01*
X0302418Y0021275D01*
X0302390Y0021166D01*
X0302359Y0021058D01*
X0302324Y0020951D01*
X0302284Y0020846D01*
X0302242Y0020742D01*
X0302195Y0020640D01*
X0302145Y0020539D01*
X0302091Y0020440D01*
X0302034Y0020343D01*
X0301974Y0020248D01*
X0301910Y0020156D01*
X0301843Y0020065D01*
X0301773Y0019977D01*
X0301699Y0019892D01*
X0301623Y0019809D01*
X0301544Y0019730D01*
X0301462Y0019653D01*
X0301377Y0019578D01*
X0301290Y0019507D01*
X0301200Y0019440D01*
X0301108Y0019375D01*
X0301014Y0019314D01*
X0300918Y0019256D01*
X0300819Y0019201D01*
X0300719Y0019150D01*
X0300617Y0019103D01*
X0300513Y0019059D01*
X0300408Y0019019D01*
X0300302Y0018983D01*
X0300194Y0018950D01*
X0300085Y0018922D01*
X0299975Y0018897D01*
X0299865Y0018876D01*
X0299754Y0018859D01*
X0299642Y0018846D01*
X0299530Y0018837D01*
X0299417Y0018832D01*
X0299305Y0018831D01*
X0299192Y0018834D01*
X0299080Y0018841D01*
X0298968Y0018852D01*
X0298857Y0018867D01*
X0298746Y0018886D01*
X0298636Y0018909D01*
X0298526Y0018935D01*
X0298418Y0018966D01*
X0298311Y0019000D01*
X0298205Y0019038D01*
X0298101Y0019080D01*
X0297998Y0019126D01*
X0297897Y0019175D01*
X0297797Y0019228D01*
X0297700Y0019284D01*
X0297605Y0019344D01*
X0297511Y0019407D01*
X0297421Y0019473D01*
X0297332Y0019543D01*
X0297246Y0019615D01*
X0297163Y0019691D01*
X0297082Y0019769D01*
X0297005Y0019850D01*
X0296930Y0019934D01*
X0296858Y0020021D01*
X0296789Y0020110D01*
X0296724Y0020202D01*
X0296662Y0020295D01*
X0296603Y0020391D01*
X0296547Y0020489D01*
X0296495Y0020589D01*
X0296447Y0020691D01*
X0296403Y0020794D01*
X0296362Y0020899D01*
X0296324Y0021005D01*
X0296291Y0021112D01*
X0296261Y0021221D01*
X0296236Y0021330D01*
X0296214Y0021440D01*
X0296196Y0021552D01*
X0296182Y0021663D01*
X0296172Y0021775D01*
X0296166Y0021888D01*
X0296164Y0022000D01*
D11*
X0308533Y0027630D02*
X0310035Y0027630D01*
X0310035Y0028381D01*
X0309784Y0028631D01*
X0309284Y0028631D01*
X0309034Y0028381D01*
X0309034Y0027630D01*
X0309034Y0028131D02*
X0308533Y0028631D01*
X0308533Y0029103D02*
X0308533Y0030104D01*
X0308533Y0029604D02*
X0310035Y0029604D01*
X0309534Y0029103D01*
X0309784Y0030577D02*
X0310035Y0030827D01*
X0310035Y0031327D01*
X0309784Y0031578D01*
X0309534Y0031578D01*
X0309284Y0031327D01*
X0309034Y0031578D01*
X0308784Y0031578D01*
X0308533Y0031327D01*
X0308533Y0030827D01*
X0308784Y0030577D01*
X0309284Y0031077D02*
X0309284Y0031327D01*
X0301783Y0087050D02*
X0301783Y0088551D01*
X0300782Y0088551D01*
X0300310Y0088051D02*
X0299810Y0088551D01*
X0299810Y0087050D01*
X0300310Y0087050D02*
X0299309Y0087050D01*
X0301283Y0087801D02*
X0301783Y0087801D01*
X0109555Y0077785D02*
X0107553Y0077785D01*
X0107803Y0077535D02*
X0107803Y0078035D01*
X0108053Y0078285D01*
X0108303Y0078285D01*
X0108554Y0078035D01*
X0108554Y0077535D01*
X0108804Y0077285D01*
X0109054Y0077285D01*
X0109304Y0077535D01*
X0109304Y0078035D01*
X0109054Y0078285D01*
X0109054Y0078758D02*
X0109304Y0079008D01*
X0109304Y0079508D01*
X0109054Y0079759D01*
X0108804Y0079759D01*
X0107803Y0078758D01*
X0107803Y0079759D01*
X0107803Y0077535D02*
X0108053Y0077285D01*
X0108053Y0076812D02*
X0109304Y0076812D01*
X0109304Y0075811D02*
X0108053Y0075811D01*
X0107803Y0076062D01*
X0107803Y0076562D01*
X0108053Y0076812D01*
X0095285Y0058077D02*
X0093783Y0058077D01*
X0093783Y0057577D02*
X0093783Y0058578D01*
X0094784Y0057577D02*
X0095285Y0058077D01*
X0095285Y0057104D02*
X0095285Y0056604D01*
X0095285Y0056854D02*
X0094034Y0056854D01*
X0093783Y0056604D01*
X0093783Y0056354D01*
X0094034Y0056103D01*
D12*
X0104270Y0038252D02*
X0118050Y0038252D01*
X0118050Y0041402D01*
X0108207Y0041402D01*
X0108207Y0046126D01*
X0123928Y0046295D02*
X0123928Y0023657D01*
X0145581Y0023657D01*
X0145581Y0046295D01*
X0123928Y0046295D01*
X0088522Y0046126D02*
X0088522Y0061874D01*
X0104270Y0069748D02*
X0118050Y0069748D01*
X0118050Y0066598D01*
X0108207Y0066598D01*
X0108207Y0061874D01*
X0125585Y0059705D02*
X0147239Y0059705D01*
X0147239Y0082343D01*
X0125585Y0082343D01*
X0125585Y0059705D01*
X0125585Y0082343D02*
X0125585Y0085295D01*
X0147239Y0085295D01*
X0147239Y0082343D01*
X0253298Y0030201D02*
X0253471Y0029777D01*
X0253654Y0029358D01*
X0253847Y0028943D01*
X0254050Y0028533D01*
X0254262Y0028127D01*
X0254485Y0027727D01*
X0254717Y0027333D01*
X0254958Y0026944D01*
X0255208Y0026561D01*
X0255468Y0026184D01*
X0255736Y0025813D01*
X0256014Y0025449D01*
X0256300Y0025092D01*
X0256594Y0024741D01*
X0256897Y0024398D01*
X0257208Y0024062D01*
X0257527Y0023734D01*
X0257854Y0023414D01*
X0258188Y0023101D01*
X0258530Y0022797D01*
X0258879Y0022500D01*
X0259235Y0022213D01*
X0259597Y0021934D01*
X0259597Y0021933D02*
X0259597Y0012878D01*
X0280070Y0012878D01*
X0280070Y0022327D01*
X0291066Y0022512D02*
X0291066Y0021488D01*
X0294066Y0016488D02*
X0304601Y0016488D01*
X0307601Y0021488D02*
X0307601Y0022512D01*
X0304601Y0027512D02*
X0294066Y0027512D01*
X0282834Y0024500D02*
X0282580Y0024255D01*
X0282321Y0024016D01*
X0282057Y0023783D01*
X0281787Y0023556D01*
X0281513Y0023335D01*
X0281234Y0023120D01*
X0280949Y0022912D01*
X0280661Y0022710D01*
X0280367Y0022515D01*
X0280070Y0022326D01*
X0253333Y0043000D02*
X0253494Y0043388D01*
X0253663Y0043772D01*
X0253842Y0044151D01*
X0254030Y0044527D01*
X0254226Y0044897D01*
X0254432Y0045263D01*
X0254646Y0045624D01*
X0254868Y0045980D01*
X0255098Y0046331D01*
X0255337Y0046676D01*
X0255584Y0047015D01*
X0255839Y0047348D01*
X0256102Y0047675D01*
X0256372Y0047996D01*
X0256650Y0048311D01*
X0256935Y0048619D01*
X0257227Y0048920D01*
X0257527Y0049214D01*
X0257833Y0049501D01*
X0264834Y0053500D02*
X0265244Y0053617D01*
X0265657Y0053725D01*
X0266073Y0053822D01*
X0266491Y0053909D01*
X0266911Y0053986D01*
X0267333Y0054053D01*
X0267756Y0054110D01*
X0268180Y0054156D01*
X0268606Y0054192D01*
X0269032Y0054218D01*
X0269459Y0054233D01*
X0269885Y0054238D01*
X0270312Y0054233D01*
X0270739Y0054217D01*
X0271165Y0054191D01*
X0271591Y0054155D01*
X0272015Y0054108D01*
X0272438Y0054051D01*
X0272860Y0053984D01*
X0273280Y0053906D01*
X0273697Y0053819D01*
X0274113Y0053721D01*
X0274526Y0053613D01*
X0274937Y0053496D01*
X0275344Y0053368D01*
X0275748Y0053231D01*
X0276149Y0053083D01*
X0276546Y0052926D01*
X0276939Y0052760D01*
X0277328Y0052584D01*
X0277713Y0052399D01*
X0278093Y0052204D01*
X0278468Y0052000D01*
X0278838Y0051788D01*
X0279203Y0051566D01*
X0279562Y0051335D01*
X0279916Y0051096D01*
X0280264Y0050849D01*
X0280606Y0050593D01*
X0280941Y0050328D01*
X0281270Y0050056D01*
X0281592Y0049776D01*
X0281907Y0049488D01*
X0282215Y0049193D01*
X0282516Y0048890D01*
X0282810Y0048580D01*
X0283096Y0048263D01*
X0283374Y0047939D01*
X0283644Y0047608D01*
X0283906Y0047271D01*
X0284160Y0046928D01*
X0284406Y0046579D01*
X0284643Y0046223D01*
X0284871Y0045863D01*
X0285090Y0045496D01*
X0285301Y0045125D01*
X0285502Y0044748D01*
X0285694Y0044367D01*
X0285877Y0043981D01*
X0286051Y0043591D01*
X0286215Y0043197D01*
X0286369Y0042799D01*
X0316448Y0070280D02*
X0321172Y0070280D01*
X0321172Y0075791D01*
X0338495Y0075791D01*
X0338495Y0070280D01*
X0343219Y0070280D01*
X0343219Y0076579D01*
X0316448Y0076579D02*
X0316448Y0070280D01*
X0298333Y0079000D02*
X0293333Y0079000D01*
X0293333Y0085000D02*
X0298333Y0085000D01*
X0316448Y0087209D02*
X0343219Y0087209D01*
X0145581Y0023657D02*
X0145581Y0020705D01*
X0123928Y0020705D01*
X0123928Y0023657D01*
D13*
X0290195Y0015369D02*
X0290195Y0014885D01*
X0292130Y0012950D01*
X0290195Y0012950D01*
X0293141Y0013434D02*
X0293141Y0013917D01*
X0293625Y0014401D01*
X0294593Y0014401D01*
X0295076Y0014885D01*
X0295076Y0015369D01*
X0294593Y0015852D01*
X0293625Y0015852D01*
X0293141Y0015369D01*
X0292130Y0015369D02*
X0291646Y0015852D01*
X0290679Y0015852D01*
X0290195Y0015369D01*
X0293141Y0013434D02*
X0293625Y0012950D01*
X0294593Y0012950D01*
X0295076Y0013434D01*
X0247200Y0083150D02*
X0246716Y0083150D01*
X0246232Y0083634D01*
X0246232Y0086052D01*
X0246716Y0086052D02*
X0245748Y0086052D01*
X0244737Y0086052D02*
X0243286Y0086052D01*
X0242802Y0085569D01*
X0242802Y0084601D01*
X0243286Y0084117D01*
X0244737Y0084117D01*
X0244737Y0083150D02*
X0244737Y0086052D01*
X0241790Y0085085D02*
X0240823Y0086052D01*
X0240823Y0083150D01*
X0241790Y0083150D02*
X0239855Y0083150D01*
X0247200Y0083150D02*
X0247683Y0083634D01*
D14*
X0249231Y0076480D02*
X0249231Y0073480D01*
D15*
X0312833Y0028500D03*
D16*
X0146517Y0087327D02*
X0146519Y0087397D01*
X0146525Y0087468D01*
X0146535Y0087537D01*
X0146549Y0087606D01*
X0146567Y0087675D01*
X0146588Y0087742D01*
X0146613Y0087808D01*
X0146642Y0087872D01*
X0146675Y0087934D01*
X0146711Y0087995D01*
X0146751Y0088053D01*
X0146793Y0088109D01*
X0146839Y0088163D01*
X0146888Y0088214D01*
X0146939Y0088262D01*
X0146994Y0088307D01*
X0147050Y0088349D01*
X0147109Y0088387D01*
X0147170Y0088422D01*
X0147233Y0088454D01*
X0147298Y0088482D01*
X0147364Y0088507D01*
X0147431Y0088527D01*
X0147500Y0088544D01*
X0147569Y0088557D01*
X0147639Y0088566D01*
X0147709Y0088571D01*
X0147780Y0088572D01*
X0147850Y0088569D01*
X0147920Y0088562D01*
X0147990Y0088551D01*
X0148059Y0088536D01*
X0148127Y0088517D01*
X0148193Y0088495D01*
X0148259Y0088469D01*
X0148323Y0088439D01*
X0148385Y0088405D01*
X0148445Y0088368D01*
X0148502Y0088328D01*
X0148558Y0088284D01*
X0148611Y0088238D01*
X0148661Y0088188D01*
X0148708Y0088136D01*
X0148752Y0088081D01*
X0148793Y0088024D01*
X0148831Y0087965D01*
X0148866Y0087903D01*
X0148896Y0087840D01*
X0148924Y0087775D01*
X0148947Y0087708D01*
X0148967Y0087641D01*
X0148983Y0087572D01*
X0148995Y0087503D01*
X0149003Y0087433D01*
X0149007Y0087362D01*
X0149007Y0087292D01*
X0149003Y0087221D01*
X0148995Y0087151D01*
X0148983Y0087082D01*
X0148967Y0087013D01*
X0148947Y0086946D01*
X0148924Y0086879D01*
X0148896Y0086814D01*
X0148866Y0086751D01*
X0148831Y0086689D01*
X0148793Y0086630D01*
X0148752Y0086573D01*
X0148708Y0086518D01*
X0148661Y0086466D01*
X0148611Y0086416D01*
X0148558Y0086370D01*
X0148502Y0086326D01*
X0148445Y0086286D01*
X0148384Y0086249D01*
X0148323Y0086215D01*
X0148259Y0086185D01*
X0148193Y0086159D01*
X0148127Y0086137D01*
X0148059Y0086118D01*
X0147990Y0086103D01*
X0147920Y0086092D01*
X0147850Y0086085D01*
X0147780Y0086082D01*
X0147709Y0086083D01*
X0147639Y0086088D01*
X0147569Y0086097D01*
X0147500Y0086110D01*
X0147431Y0086127D01*
X0147364Y0086147D01*
X0147298Y0086172D01*
X0147233Y0086200D01*
X0147170Y0086232D01*
X0147109Y0086267D01*
X0147050Y0086305D01*
X0146994Y0086347D01*
X0146939Y0086392D01*
X0146888Y0086440D01*
X0146839Y0086491D01*
X0146793Y0086545D01*
X0146751Y0086601D01*
X0146711Y0086659D01*
X0146675Y0086720D01*
X0146642Y0086782D01*
X0146613Y0086846D01*
X0146588Y0086912D01*
X0146567Y0086979D01*
X0146549Y0087048D01*
X0146535Y0087117D01*
X0146525Y0087186D01*
X0146519Y0087257D01*
X0146517Y0087327D01*
D17*
X0145770Y0082084D02*
X0145770Y0080350D01*
X0147071Y0081651D01*
X0144469Y0081651D01*
X0144902Y0079138D02*
X0147071Y0079138D01*
X0147071Y0077403D02*
X0144902Y0077403D01*
X0144469Y0077837D01*
X0144469Y0078704D01*
X0144902Y0079138D01*
D18*
X0324328Y0081379D02*
X0326196Y0081379D01*
X0324795Y0082780D01*
X0324795Y0079978D01*
X0327091Y0081379D02*
X0327558Y0080912D01*
X0328959Y0080912D01*
X0328959Y0079978D02*
X0328959Y0082780D01*
X0327558Y0082780D01*
X0327091Y0082313D01*
X0327091Y0081379D01*
X0329853Y0082780D02*
X0330787Y0082780D01*
X0330320Y0082780D02*
X0330320Y0080445D01*
X0330787Y0079978D01*
X0331254Y0079978D01*
X0331721Y0080445D01*
M02*
