%
M48
M72
T01C0.0118
T02C0.0150
T03C0.0200
T04C0.0315
T05C0.0400
T06C0.1181
T07C0.1300
%
T01
X28990Y7606
X29383Y7606
X29777Y7606
X29777Y8000
X29383Y8000
X28990Y8000
X28990Y8394
X29383Y8394
X29777Y8394
T02
X27883Y8100
X26783Y8100
X26483Y8250
X25583Y8250
X24983Y8100
X25558Y7775
X24283Y7300
X23183Y7750
X21333Y7400
X20683Y7150
X20383Y7150
X20383Y6850
X20683Y6850
X19583Y7000
X19633Y7400
X20933Y7850
X21833Y8850
X22283Y8800
X21133Y9400
X20233Y9200
X19633Y9150
X18833Y9400
X17833Y9650
X16633Y9550
X15933Y9150
X14983Y8500
X13483Y7900
X14033Y7500
X14033Y7250
X13783Y7250
X14283Y7250
X14283Y7500
X14533Y7500
X15133Y7750
X15783Y7650
X16433Y7500
X15833Y6900
X14283Y7000
X14033Y7000
X13783Y7000
X12933Y7250
X11033Y8100
X10783Y8000
X10533Y8000
X10283Y8000
X11233Y8300
X12583Y8700
X13283Y8650
X11083Y9100
X11833Y10400
X15083Y10400
X18033Y8400
X19683Y6250
X20083Y6150
X20583Y5650
X18983Y5200
X19133Y4850
X20233Y4700
X21483Y4650
X21933Y3850
X23983Y3700
X25333Y3900
X26283Y3850
X26883Y4150
X24183Y4300
X23833Y5100
X24983Y5200
X24983Y5750
X23383Y5900
X24983Y6500
X26733Y6100
X28183Y6550
X28683Y6600
X29383Y6400
X30533Y6400
X32383Y6050
X34333Y5650
X32633Y7150
X32833Y8600
X33833Y8900
X31883Y9600
X29683Y9550
X28533Y10250
X27433Y9900
X25033Y10400
X24933Y8550
X24483Y8550
X27033Y7200
X27033Y5200
X18633Y5800
X17183Y4900
X16083Y4850
X14983Y4500
X14383Y3900
X12533Y4050
X12333Y4850
X11083Y5900
X10883Y6400
X9233Y7150
X8883Y6100
X15083Y5900
X16033Y5450
X30583Y10550
T03
X24333Y10250
X23833Y10250
X23333Y10250
X22833Y10250
X22333Y10250
X22333Y9750
X22833Y9750
X23333Y9750
X23833Y9750
X24333Y9750
T04
X30798Y7085
X33219Y4664
T05
X14183Y4850
X13183Y4850
X13183Y9650
X14183Y9650
T06
X17749Y6953
T07
X9583Y4450
X9583Y10050
X36033Y10050
X36033Y4450
M30
