G75*
%MOIN*%
%OFA0B0*%
%FSLAX25Y25*%
%IPPOS*%
%LPD*%
%AMOC8*
5,1,8,0,0,1.08239X$1,22.5*
%
%ADD10R,0.02700X0.05200*%
%ADD11C,0.04137*%
%ADD12R,0.06200X0.06200*%
%ADD13R,0.16200X0.06200*%
%ADD14R,0.04137X0.08074*%
%ADD15C,0.12011*%
%ADD16R,0.01578X0.05712*%
%ADD17R,0.07287X0.07680*%
%ADD18R,0.07680X0.07680*%
%ADD19R,0.04137X0.03743*%
%ADD20C,0.13200*%
%ADD21R,0.12798X0.10043*%
%ADD22C,0.03350*%
%ADD23R,0.12011X0.06499*%
%ADD24R,0.21854X0.04137*%
%ADD25R,0.02720X0.06106*%
%ADD26R,0.06106X0.02720*%
%ADD27R,0.05200X0.02720*%
%ADD28R,0.05712X0.04924*%
%ADD29R,0.03743X0.03546*%
%ADD30R,0.03743X0.02956*%
D10*
X0112093Y0094776D03*
X0119573Y0094776D03*
X0115833Y0104224D03*
D11*
X0223333Y0102500D03*
X0228333Y0102500D03*
X0233333Y0102500D03*
X0238333Y0102500D03*
X0243333Y0102500D03*
X0243333Y0097500D03*
X0238333Y0097500D03*
X0233333Y0097500D03*
X0228333Y0097500D03*
X0223333Y0097500D03*
D12*
X0141833Y0096500D03*
X0131833Y0096500D03*
X0131833Y0048500D03*
X0141833Y0048500D03*
D13*
X0361333Y0063500D03*
X0361333Y0083500D03*
D14*
X0207408Y0101028D03*
X0201503Y0101028D03*
X0195597Y0101028D03*
X0189692Y0101028D03*
X0183786Y0101028D03*
X0177881Y0101028D03*
X0171975Y0101028D03*
X0166070Y0101028D03*
X0160164Y0101028D03*
X0154259Y0101028D03*
X0154259Y0041972D03*
X0160164Y0041972D03*
X0166070Y0041972D03*
X0171975Y0041972D03*
X0177881Y0041972D03*
X0183786Y0041972D03*
X0189692Y0041972D03*
X0195597Y0041972D03*
X0201503Y0041972D03*
X0207408Y0041972D03*
D15*
X0177487Y0069531D03*
D16*
X0321715Y0092567D03*
X0324274Y0092567D03*
X0326833Y0092567D03*
X0329392Y0092567D03*
X0331951Y0092567D03*
D17*
X0342581Y0103000D03*
X0311085Y0103000D03*
D18*
X0321833Y0103000D03*
X0331833Y0103000D03*
D19*
X0113684Y0040929D03*
X0119983Y0040929D03*
X0119983Y0057071D03*
X0113684Y0057071D03*
D20*
X0095833Y0044500D03*
X0095833Y0100500D03*
X0360333Y0100500D03*
X0360333Y0044500D03*
D21*
X0332581Y0055500D03*
X0301085Y0055500D03*
D22*
X0332188Y0046642D03*
X0307975Y0070854D03*
D23*
X0099770Y0059114D03*
X0099770Y0085886D03*
D24*
X0108707Y0076437D03*
X0108707Y0068563D03*
D25*
X0223373Y0054217D03*
X0228333Y0054217D03*
X0233294Y0054217D03*
X0233294Y0038783D03*
X0228333Y0038783D03*
X0223373Y0038783D03*
D26*
X0220617Y0046500D03*
D27*
X0235814Y0046539D03*
D28*
X0223833Y0065094D03*
X0223833Y0076906D03*
D29*
X0229833Y0072283D03*
X0229833Y0067717D03*
D30*
X0243333Y0056559D03*
X0243333Y0051441D03*
M02*
