G75*
%MOIN*%
%OFA0B0*%
%FSLAX25Y25*%
%IPPOS*%
%LPD*%
%AMOC8*
5,1,8,0,0,1.08239X$1,22.5*
%
%ADD10R,0.05906X0.01102*%
%ADD11R,0.04724X0.02165*%
%ADD12R,0.04331X0.03937*%
%ADD13R,0.03937X0.02756*%
%ADD14R,0.03898X0.01594*%
%ADD15R,0.02756X0.03543*%
%ADD16R,0.03543X0.02756*%
%ADD17R,0.03937X0.07087*%
%ADD18R,0.05000X0.02500*%
%ADD19R,0.04724X0.01969*%
%ADD20R,0.01969X0.04724*%
%ADD21C,0.01102*%
%ADD22R,0.05709X0.05709*%
%ADD23R,0.03346X0.03543*%
%ADD24R,0.03543X0.03346*%
%ADD25R,0.07480X0.04331*%
%ADD26C,0.01181*%
%ADD27R,0.01594X0.03898*%
D10*
G36*
X0183369Y0064126D02*
X0187544Y0068301D01*
X0188323Y0067522D01*
X0184148Y0063347D01*
X0183369Y0064126D01*
G37*
G36*
X0184761Y0062734D02*
X0188936Y0066909D01*
X0189715Y0066130D01*
X0185540Y0061955D01*
X0184761Y0062734D01*
G37*
G36*
X0186153Y0061342D02*
X0190328Y0065517D01*
X0191107Y0064738D01*
X0186932Y0060563D01*
X0186153Y0061342D01*
G37*
G36*
X0187545Y0059950D02*
X0191720Y0064125D01*
X0192499Y0063346D01*
X0188324Y0059171D01*
X0187545Y0059950D01*
G37*
G36*
X0188937Y0058558D02*
X0193112Y0062733D01*
X0193891Y0061954D01*
X0189716Y0057779D01*
X0188937Y0058558D01*
G37*
G36*
X0190329Y0057166D02*
X0194504Y0061341D01*
X0195283Y0060562D01*
X0191108Y0056387D01*
X0190329Y0057166D01*
G37*
G36*
X0191721Y0055775D02*
X0195896Y0059950D01*
X0196675Y0059171D01*
X0192500Y0054996D01*
X0191721Y0055775D01*
G37*
G36*
X0193113Y0054383D02*
X0197288Y0058558D01*
X0198067Y0057779D01*
X0193892Y0053604D01*
X0193113Y0054383D01*
G37*
G36*
X0194505Y0052991D02*
X0198680Y0057166D01*
X0199459Y0056387D01*
X0195284Y0052212D01*
X0194505Y0052991D01*
G37*
G36*
X0195897Y0051599D02*
X0200072Y0055774D01*
X0200851Y0054995D01*
X0196676Y0050820D01*
X0195897Y0051599D01*
G37*
G36*
X0197289Y0050207D02*
X0201464Y0054382D01*
X0202243Y0053603D01*
X0198068Y0049428D01*
X0197289Y0050207D01*
G37*
G36*
X0198680Y0048815D02*
X0202855Y0052990D01*
X0203634Y0052211D01*
X0199459Y0048036D01*
X0198680Y0048815D01*
G37*
G36*
X0211207Y0048036D02*
X0207032Y0052211D01*
X0207811Y0052990D01*
X0211986Y0048815D01*
X0211207Y0048036D01*
G37*
G36*
X0212599Y0049428D02*
X0208424Y0053603D01*
X0209203Y0054382D01*
X0213378Y0050207D01*
X0212599Y0049428D01*
G37*
G36*
X0213991Y0050820D02*
X0209816Y0054995D01*
X0210595Y0055774D01*
X0214770Y0051599D01*
X0213991Y0050820D01*
G37*
G36*
X0215383Y0052212D02*
X0211208Y0056387D01*
X0211987Y0057166D01*
X0216162Y0052991D01*
X0215383Y0052212D01*
G37*
G36*
X0216775Y0053604D02*
X0212600Y0057779D01*
X0213379Y0058558D01*
X0217554Y0054383D01*
X0216775Y0053604D01*
G37*
G36*
X0218167Y0054996D02*
X0213992Y0059171D01*
X0214771Y0059950D01*
X0218946Y0055775D01*
X0218167Y0054996D01*
G37*
G36*
X0219559Y0056387D02*
X0215384Y0060562D01*
X0216163Y0061341D01*
X0220338Y0057166D01*
X0219559Y0056387D01*
G37*
G36*
X0220951Y0057779D02*
X0216776Y0061954D01*
X0217555Y0062733D01*
X0221730Y0058558D01*
X0220951Y0057779D01*
G37*
G36*
X0222343Y0059171D02*
X0218168Y0063346D01*
X0218947Y0064125D01*
X0223122Y0059950D01*
X0222343Y0059171D01*
G37*
G36*
X0223735Y0060563D02*
X0219560Y0064738D01*
X0220339Y0065517D01*
X0224514Y0061342D01*
X0223735Y0060563D01*
G37*
G36*
X0225127Y0061955D02*
X0220952Y0066130D01*
X0221731Y0066909D01*
X0225906Y0062734D01*
X0225127Y0061955D01*
G37*
G36*
X0226519Y0063347D02*
X0222344Y0067522D01*
X0223123Y0068301D01*
X0227298Y0064126D01*
X0226519Y0063347D01*
G37*
G36*
X0227298Y0075874D02*
X0223123Y0071699D01*
X0222344Y0072478D01*
X0226519Y0076653D01*
X0227298Y0075874D01*
G37*
G36*
X0225906Y0077266D02*
X0221731Y0073091D01*
X0220952Y0073870D01*
X0225127Y0078045D01*
X0225906Y0077266D01*
G37*
G36*
X0224514Y0078658D02*
X0220339Y0074483D01*
X0219560Y0075262D01*
X0223735Y0079437D01*
X0224514Y0078658D01*
G37*
G36*
X0223122Y0080050D02*
X0218947Y0075875D01*
X0218168Y0076654D01*
X0222343Y0080829D01*
X0223122Y0080050D01*
G37*
G36*
X0221730Y0081442D02*
X0217555Y0077267D01*
X0216776Y0078046D01*
X0220951Y0082221D01*
X0221730Y0081442D01*
G37*
G36*
X0220338Y0082834D02*
X0216163Y0078659D01*
X0215384Y0079438D01*
X0219559Y0083613D01*
X0220338Y0082834D01*
G37*
G36*
X0218946Y0084225D02*
X0214771Y0080050D01*
X0213992Y0080829D01*
X0218167Y0085004D01*
X0218946Y0084225D01*
G37*
G36*
X0217554Y0085617D02*
X0213379Y0081442D01*
X0212600Y0082221D01*
X0216775Y0086396D01*
X0217554Y0085617D01*
G37*
G36*
X0216162Y0087009D02*
X0211987Y0082834D01*
X0211208Y0083613D01*
X0215383Y0087788D01*
X0216162Y0087009D01*
G37*
G36*
X0214770Y0088401D02*
X0210595Y0084226D01*
X0209816Y0085005D01*
X0213991Y0089180D01*
X0214770Y0088401D01*
G37*
G36*
X0213378Y0089793D02*
X0209203Y0085618D01*
X0208424Y0086397D01*
X0212599Y0090572D01*
X0213378Y0089793D01*
G37*
G36*
X0211986Y0091185D02*
X0207811Y0087010D01*
X0207032Y0087789D01*
X0211207Y0091964D01*
X0211986Y0091185D01*
G37*
G36*
X0199459Y0091964D02*
X0203634Y0087789D01*
X0202855Y0087010D01*
X0198680Y0091185D01*
X0199459Y0091964D01*
G37*
G36*
X0198068Y0090572D02*
X0202243Y0086397D01*
X0201464Y0085618D01*
X0197289Y0089793D01*
X0198068Y0090572D01*
G37*
G36*
X0196676Y0089180D02*
X0200851Y0085005D01*
X0200072Y0084226D01*
X0195897Y0088401D01*
X0196676Y0089180D01*
G37*
G36*
X0195284Y0087788D02*
X0199459Y0083613D01*
X0198680Y0082834D01*
X0194505Y0087009D01*
X0195284Y0087788D01*
G37*
G36*
X0193892Y0086396D02*
X0198067Y0082221D01*
X0197288Y0081442D01*
X0193113Y0085617D01*
X0193892Y0086396D01*
G37*
G36*
X0192500Y0085004D02*
X0196675Y0080829D01*
X0195896Y0080050D01*
X0191721Y0084225D01*
X0192500Y0085004D01*
G37*
G36*
X0191108Y0083613D02*
X0195283Y0079438D01*
X0194504Y0078659D01*
X0190329Y0082834D01*
X0191108Y0083613D01*
G37*
G36*
X0189716Y0082221D02*
X0193891Y0078046D01*
X0193112Y0077267D01*
X0188937Y0081442D01*
X0189716Y0082221D01*
G37*
G36*
X0188324Y0080829D02*
X0192499Y0076654D01*
X0191720Y0075875D01*
X0187545Y0080050D01*
X0188324Y0080829D01*
G37*
G36*
X0186932Y0079437D02*
X0191107Y0075262D01*
X0190328Y0074483D01*
X0186153Y0078658D01*
X0186932Y0079437D01*
G37*
G36*
X0185540Y0078045D02*
X0189715Y0073870D01*
X0188936Y0073091D01*
X0184761Y0077266D01*
X0185540Y0078045D01*
G37*
G36*
X0184148Y0076653D02*
X0188323Y0072478D01*
X0187544Y0071699D01*
X0183369Y0075874D01*
X0184148Y0076653D01*
G37*
D11*
X0132952Y0075740D03*
X0122715Y0075740D03*
X0122715Y0072000D03*
X0122715Y0068260D03*
X0132952Y0068260D03*
D12*
X0132180Y0060500D03*
X0125487Y0060500D03*
X0157987Y0072000D03*
X0164680Y0072000D03*
X0132680Y0083500D03*
X0125987Y0083500D03*
D13*
X0098558Y0075740D03*
X0089109Y0075740D03*
X0089109Y0072000D03*
X0089109Y0068260D03*
X0098558Y0068260D03*
X0098558Y0072000D03*
D14*
X0104833Y0070803D03*
X0104833Y0073402D03*
X0104833Y0076000D03*
X0116585Y0076000D03*
X0116585Y0073402D03*
X0116585Y0070803D03*
X0116585Y0068205D03*
X0104833Y0068205D03*
D15*
X0114274Y0041000D03*
X0119392Y0041000D03*
X0119392Y0045500D03*
X0114274Y0045500D03*
X0114274Y0050000D03*
X0119392Y0050000D03*
G36*
X0167798Y0055467D02*
X0169747Y0057416D01*
X0172250Y0054913D01*
X0170301Y0052964D01*
X0167798Y0055467D01*
G37*
G36*
X0171417Y0059087D02*
X0173366Y0061036D01*
X0175869Y0058533D01*
X0173920Y0056584D01*
X0171417Y0059087D01*
G37*
G36*
X0185417Y0046087D02*
X0187366Y0048036D01*
X0189869Y0045533D01*
X0187920Y0043584D01*
X0185417Y0046087D01*
G37*
G36*
X0181798Y0042467D02*
X0183747Y0044416D01*
X0186250Y0041913D01*
X0184301Y0039964D01*
X0181798Y0042467D01*
G37*
X0223774Y0042500D03*
X0228892Y0042500D03*
X0259774Y0063500D03*
X0264892Y0063500D03*
X0249892Y0068000D03*
X0244774Y0068000D03*
X0270774Y0087500D03*
X0275892Y0087500D03*
X0318774Y0080500D03*
X0323892Y0080500D03*
X0323892Y0071500D03*
X0318774Y0071500D03*
X0330774Y0066000D03*
X0335892Y0066000D03*
X0325392Y0052500D03*
X0320274Y0052500D03*
X0195892Y0101500D03*
X0190774Y0101500D03*
G36*
X0182801Y0095536D02*
X0184750Y0093587D01*
X0182247Y0091084D01*
X0180298Y0093033D01*
X0182801Y0095536D01*
G37*
G36*
X0186420Y0091916D02*
X0188369Y0089967D01*
X0185866Y0087464D01*
X0183917Y0089413D01*
X0186420Y0091916D01*
G37*
G36*
X0179301Y0092036D02*
X0181250Y0090087D01*
X0178747Y0087584D01*
X0176798Y0089533D01*
X0179301Y0092036D01*
G37*
G36*
X0182920Y0088416D02*
X0184869Y0086467D01*
X0182366Y0083964D01*
X0180417Y0085913D01*
X0182920Y0088416D01*
G37*
X0151892Y0072000D03*
X0146774Y0072000D03*
D16*
X0211833Y0096441D03*
X0216833Y0096441D03*
X0216833Y0101559D03*
X0211833Y0101559D03*
X0265333Y0077559D03*
X0265333Y0072441D03*
X0286833Y0061559D03*
X0276333Y0060059D03*
X0271333Y0060059D03*
X0271333Y0054941D03*
X0276333Y0054941D03*
X0286833Y0056441D03*
X0300833Y0056441D03*
X0300833Y0061559D03*
X0314333Y0058559D03*
X0314333Y0053441D03*
X0343833Y0070941D03*
X0348333Y0070941D03*
X0348333Y0076059D03*
X0343833Y0076059D03*
X0333833Y0077941D03*
X0333833Y0083059D03*
X0313333Y0081559D03*
X0313333Y0076441D03*
X0231833Y0057559D03*
X0231833Y0052441D03*
D17*
G36*
X0185426Y0052916D02*
X0188209Y0050133D01*
X0183200Y0045124D01*
X0180417Y0047907D01*
X0185426Y0052916D01*
G37*
G36*
X0178466Y0059876D02*
X0181249Y0057093D01*
X0176240Y0052084D01*
X0173457Y0054867D01*
X0178466Y0059876D01*
G37*
D18*
X0236022Y0072500D03*
X0236022Y0077500D03*
X0236022Y0082500D03*
X0236022Y0087500D03*
X0259644Y0087500D03*
X0259644Y0082500D03*
X0259644Y0077500D03*
X0259644Y0072500D03*
X0245164Y0057882D03*
X0236503Y0057882D03*
X0236503Y0052961D03*
X0245164Y0052961D03*
X0245164Y0048039D03*
X0236503Y0048039D03*
X0236503Y0043118D03*
X0245164Y0043118D03*
D19*
X0255503Y0042626D03*
X0255503Y0045776D03*
X0255503Y0048925D03*
X0255503Y0052075D03*
X0255503Y0055224D03*
X0255503Y0058374D03*
X0264164Y0058374D03*
X0264164Y0055224D03*
X0264164Y0052075D03*
X0264164Y0048925D03*
X0264164Y0045776D03*
X0264164Y0042626D03*
D20*
X0259833Y0042232D03*
X0259833Y0058768D03*
D21*
X0286944Y0069567D02*
X0286944Y0071732D01*
X0285566Y0073110D02*
X0283400Y0073110D01*
X0283400Y0075079D02*
X0285566Y0075079D01*
X0285566Y0077047D02*
X0283400Y0077047D01*
X0283400Y0079016D02*
X0285566Y0079016D01*
X0285566Y0080984D02*
X0283400Y0080984D01*
X0283400Y0082953D02*
X0285566Y0082953D01*
X0285566Y0084921D02*
X0283400Y0084921D01*
X0283400Y0086890D02*
X0285566Y0086890D01*
X0286944Y0088268D02*
X0286944Y0090433D01*
X0288912Y0090433D02*
X0288912Y0088268D01*
X0290881Y0088268D02*
X0290881Y0090433D01*
X0292849Y0090433D02*
X0292849Y0088268D01*
X0294818Y0088268D02*
X0294818Y0090433D01*
X0296786Y0090433D02*
X0296786Y0088268D01*
X0298755Y0088268D02*
X0298755Y0090433D01*
X0300723Y0090433D02*
X0300723Y0088268D01*
X0302101Y0086890D02*
X0304266Y0086890D01*
X0304266Y0084921D02*
X0302101Y0084921D01*
X0302101Y0082953D02*
X0304266Y0082953D01*
X0304266Y0080984D02*
X0302101Y0080984D01*
X0302101Y0079016D02*
X0304266Y0079016D01*
X0304266Y0077047D02*
X0302101Y0077047D01*
X0302101Y0075079D02*
X0304266Y0075079D01*
X0304266Y0073110D02*
X0302101Y0073110D01*
X0300723Y0071732D02*
X0300723Y0069567D01*
X0298755Y0069567D02*
X0298755Y0071732D01*
X0296786Y0071732D02*
X0296786Y0069567D01*
X0294818Y0069567D02*
X0294818Y0071732D01*
X0292849Y0071732D02*
X0292849Y0069567D01*
X0290881Y0069567D02*
X0290881Y0071732D01*
X0288912Y0071732D02*
X0288912Y0069567D01*
D22*
X0290388Y0076555D03*
X0297278Y0076555D03*
X0297278Y0083445D03*
X0290388Y0083445D03*
D23*
X0275617Y0083000D03*
X0271050Y0083000D03*
X0271050Y0078500D03*
X0275617Y0078500D03*
X0275617Y0074000D03*
X0271050Y0074000D03*
X0319050Y0076000D03*
X0323617Y0076000D03*
X0333550Y0072500D03*
X0338117Y0072500D03*
X0323117Y0064500D03*
X0318550Y0064500D03*
X0331050Y0061500D03*
X0335617Y0061500D03*
X0333550Y0057000D03*
X0338117Y0057000D03*
X0338117Y0052500D03*
X0333550Y0052500D03*
X0325117Y0057000D03*
X0320550Y0057000D03*
X0319050Y0085000D03*
X0323617Y0085000D03*
X0323617Y0089500D03*
X0319050Y0089500D03*
X0319050Y0094000D03*
X0323617Y0094000D03*
X0317617Y0100000D03*
X0313050Y0100000D03*
X0216617Y0042500D03*
X0212050Y0042500D03*
X0156117Y0048000D03*
X0151550Y0048000D03*
X0151550Y0053500D03*
X0156117Y0053500D03*
X0157617Y0059000D03*
X0153050Y0059000D03*
X0153050Y0064500D03*
X0157617Y0064500D03*
X0156117Y0080500D03*
X0151550Y0080500D03*
X0151550Y0086000D03*
X0156117Y0086000D03*
X0156117Y0091500D03*
X0151550Y0091500D03*
X0151550Y0097000D03*
X0156117Y0097000D03*
D24*
X0250333Y0095717D03*
X0250333Y0100283D03*
X0280833Y0101783D03*
X0289333Y0102283D03*
X0293833Y0102783D03*
X0298333Y0102283D03*
X0302833Y0102283D03*
X0307333Y0102283D03*
X0307333Y0097717D03*
X0302833Y0097717D03*
X0298333Y0097717D03*
X0293833Y0098217D03*
X0289333Y0097717D03*
X0280833Y0097217D03*
X0343833Y0087783D03*
X0343833Y0083217D03*
X0305333Y0061283D03*
X0305333Y0056717D03*
X0296333Y0056717D03*
X0291833Y0056717D03*
X0291833Y0061283D03*
X0296333Y0061283D03*
D25*
X0274117Y0094472D03*
X0259550Y0094472D03*
X0259550Y0103528D03*
X0274117Y0103528D03*
D26*
X0183408Y0102878D02*
X0183408Y0100122D01*
X0183408Y0102878D02*
X0186164Y0102878D01*
X0186164Y0100122D01*
X0183408Y0100122D01*
X0183408Y0101302D02*
X0186164Y0101302D01*
X0186164Y0102482D02*
X0183408Y0102482D01*
X0176503Y0102878D02*
X0176503Y0100122D01*
X0176503Y0102878D02*
X0179259Y0102878D01*
X0179259Y0100122D01*
X0176503Y0100122D01*
X0176503Y0101302D02*
X0179259Y0101302D01*
X0179259Y0102482D02*
X0176503Y0102482D01*
D27*
X0145629Y0090252D03*
X0143030Y0090252D03*
X0140432Y0090252D03*
X0137833Y0090252D03*
X0137833Y0078500D03*
X0140432Y0078500D03*
X0143030Y0078500D03*
X0145629Y0078500D03*
X0145833Y0066500D03*
X0143235Y0066500D03*
X0140636Y0066500D03*
X0138038Y0066500D03*
X0138038Y0054748D03*
X0140636Y0054748D03*
X0143235Y0054748D03*
X0145833Y0054748D03*
M02*
