G75*
%MOIN*%
%OFA0B0*%
%FSLAX25Y25*%
%IPPOS*%
%LPD*%
%AMOC8*
5,1,8,0,0,1.08239X$1,22.5*
%
%ADD10R,0.05906X0.01102*%
%ADD11R,0.04724X0.02165*%
%ADD12R,0.04331X0.03937*%
%ADD13R,0.03937X0.02756*%
%ADD14R,0.03898X0.01594*%
%ADD15R,0.06791X0.08799*%
%ADD16R,0.02756X0.03543*%
%ADD17R,0.03543X0.02756*%
%ADD18R,0.03937X0.07087*%
%ADD19C,0.03937*%
%ADD20R,0.05000X0.02500*%
%ADD21R,0.04724X0.01969*%
%ADD22R,0.01969X0.04724*%
%ADD23R,0.06000X0.06000*%
%ADD24C,0.02362*%
%ADD25C,0.01181*%
%ADD26R,0.13583X0.13583*%
%ADD27R,0.03346X0.03543*%
%ADD28R,0.03543X0.03346*%
%ADD29R,0.07480X0.04331*%
%ADD30R,0.16000X0.06000*%
%ADD31R,0.01594X0.03898*%
%ADD32R,0.08799X0.06791*%
%ADD33C,0.01000*%
%ADD34C,0.02300*%
%ADD35C,0.06600*%
%ADD36C,0.02400*%
%ADD37C,0.04000*%
D10*
G36*
X0183369Y0064126D02*
X0187544Y0068301D01*
X0188323Y0067522D01*
X0184148Y0063347D01*
X0183369Y0064126D01*
G37*
G36*
X0184761Y0062734D02*
X0188936Y0066909D01*
X0189715Y0066130D01*
X0185540Y0061955D01*
X0184761Y0062734D01*
G37*
G36*
X0186153Y0061342D02*
X0190328Y0065517D01*
X0191107Y0064738D01*
X0186932Y0060563D01*
X0186153Y0061342D01*
G37*
G36*
X0187545Y0059950D02*
X0191720Y0064125D01*
X0192499Y0063346D01*
X0188324Y0059171D01*
X0187545Y0059950D01*
G37*
G36*
X0188937Y0058558D02*
X0193112Y0062733D01*
X0193891Y0061954D01*
X0189716Y0057779D01*
X0188937Y0058558D01*
G37*
G36*
X0190329Y0057166D02*
X0194504Y0061341D01*
X0195283Y0060562D01*
X0191108Y0056387D01*
X0190329Y0057166D01*
G37*
G36*
X0191721Y0055775D02*
X0195896Y0059950D01*
X0196675Y0059171D01*
X0192500Y0054996D01*
X0191721Y0055775D01*
G37*
G36*
X0193113Y0054383D02*
X0197288Y0058558D01*
X0198067Y0057779D01*
X0193892Y0053604D01*
X0193113Y0054383D01*
G37*
G36*
X0194505Y0052991D02*
X0198680Y0057166D01*
X0199459Y0056387D01*
X0195284Y0052212D01*
X0194505Y0052991D01*
G37*
G36*
X0195897Y0051599D02*
X0200072Y0055774D01*
X0200851Y0054995D01*
X0196676Y0050820D01*
X0195897Y0051599D01*
G37*
G36*
X0197289Y0050207D02*
X0201464Y0054382D01*
X0202243Y0053603D01*
X0198068Y0049428D01*
X0197289Y0050207D01*
G37*
G36*
X0198680Y0048815D02*
X0202855Y0052990D01*
X0203634Y0052211D01*
X0199459Y0048036D01*
X0198680Y0048815D01*
G37*
G36*
X0211207Y0048036D02*
X0207032Y0052211D01*
X0207811Y0052990D01*
X0211986Y0048815D01*
X0211207Y0048036D01*
G37*
G36*
X0212599Y0049428D02*
X0208424Y0053603D01*
X0209203Y0054382D01*
X0213378Y0050207D01*
X0212599Y0049428D01*
G37*
G36*
X0213991Y0050820D02*
X0209816Y0054995D01*
X0210595Y0055774D01*
X0214770Y0051599D01*
X0213991Y0050820D01*
G37*
G36*
X0215383Y0052212D02*
X0211208Y0056387D01*
X0211987Y0057166D01*
X0216162Y0052991D01*
X0215383Y0052212D01*
G37*
G36*
X0216775Y0053604D02*
X0212600Y0057779D01*
X0213379Y0058558D01*
X0217554Y0054383D01*
X0216775Y0053604D01*
G37*
G36*
X0218167Y0054996D02*
X0213992Y0059171D01*
X0214771Y0059950D01*
X0218946Y0055775D01*
X0218167Y0054996D01*
G37*
G36*
X0219559Y0056387D02*
X0215384Y0060562D01*
X0216163Y0061341D01*
X0220338Y0057166D01*
X0219559Y0056387D01*
G37*
G36*
X0220951Y0057779D02*
X0216776Y0061954D01*
X0217555Y0062733D01*
X0221730Y0058558D01*
X0220951Y0057779D01*
G37*
G36*
X0222343Y0059171D02*
X0218168Y0063346D01*
X0218947Y0064125D01*
X0223122Y0059950D01*
X0222343Y0059171D01*
G37*
G36*
X0223735Y0060563D02*
X0219560Y0064738D01*
X0220339Y0065517D01*
X0224514Y0061342D01*
X0223735Y0060563D01*
G37*
G36*
X0225127Y0061955D02*
X0220952Y0066130D01*
X0221731Y0066909D01*
X0225906Y0062734D01*
X0225127Y0061955D01*
G37*
G36*
X0226519Y0063347D02*
X0222344Y0067522D01*
X0223123Y0068301D01*
X0227298Y0064126D01*
X0226519Y0063347D01*
G37*
G36*
X0227298Y0075874D02*
X0223123Y0071699D01*
X0222344Y0072478D01*
X0226519Y0076653D01*
X0227298Y0075874D01*
G37*
G36*
X0225906Y0077266D02*
X0221731Y0073091D01*
X0220952Y0073870D01*
X0225127Y0078045D01*
X0225906Y0077266D01*
G37*
G36*
X0224514Y0078658D02*
X0220339Y0074483D01*
X0219560Y0075262D01*
X0223735Y0079437D01*
X0224514Y0078658D01*
G37*
G36*
X0223122Y0080050D02*
X0218947Y0075875D01*
X0218168Y0076654D01*
X0222343Y0080829D01*
X0223122Y0080050D01*
G37*
G36*
X0221730Y0081442D02*
X0217555Y0077267D01*
X0216776Y0078046D01*
X0220951Y0082221D01*
X0221730Y0081442D01*
G37*
G36*
X0220338Y0082834D02*
X0216163Y0078659D01*
X0215384Y0079438D01*
X0219559Y0083613D01*
X0220338Y0082834D01*
G37*
G36*
X0218946Y0084225D02*
X0214771Y0080050D01*
X0213992Y0080829D01*
X0218167Y0085004D01*
X0218946Y0084225D01*
G37*
G36*
X0217554Y0085617D02*
X0213379Y0081442D01*
X0212600Y0082221D01*
X0216775Y0086396D01*
X0217554Y0085617D01*
G37*
G36*
X0216162Y0087009D02*
X0211987Y0082834D01*
X0211208Y0083613D01*
X0215383Y0087788D01*
X0216162Y0087009D01*
G37*
G36*
X0214770Y0088401D02*
X0210595Y0084226D01*
X0209816Y0085005D01*
X0213991Y0089180D01*
X0214770Y0088401D01*
G37*
G36*
X0213378Y0089793D02*
X0209203Y0085618D01*
X0208424Y0086397D01*
X0212599Y0090572D01*
X0213378Y0089793D01*
G37*
G36*
X0211986Y0091185D02*
X0207811Y0087010D01*
X0207032Y0087789D01*
X0211207Y0091964D01*
X0211986Y0091185D01*
G37*
G36*
X0199459Y0091964D02*
X0203634Y0087789D01*
X0202855Y0087010D01*
X0198680Y0091185D01*
X0199459Y0091964D01*
G37*
G36*
X0198068Y0090572D02*
X0202243Y0086397D01*
X0201464Y0085618D01*
X0197289Y0089793D01*
X0198068Y0090572D01*
G37*
G36*
X0196676Y0089180D02*
X0200851Y0085005D01*
X0200072Y0084226D01*
X0195897Y0088401D01*
X0196676Y0089180D01*
G37*
G36*
X0195284Y0087788D02*
X0199459Y0083613D01*
X0198680Y0082834D01*
X0194505Y0087009D01*
X0195284Y0087788D01*
G37*
G36*
X0193892Y0086396D02*
X0198067Y0082221D01*
X0197288Y0081442D01*
X0193113Y0085617D01*
X0193892Y0086396D01*
G37*
G36*
X0192500Y0085004D02*
X0196675Y0080829D01*
X0195896Y0080050D01*
X0191721Y0084225D01*
X0192500Y0085004D01*
G37*
G36*
X0191108Y0083613D02*
X0195283Y0079438D01*
X0194504Y0078659D01*
X0190329Y0082834D01*
X0191108Y0083613D01*
G37*
G36*
X0189716Y0082221D02*
X0193891Y0078046D01*
X0193112Y0077267D01*
X0188937Y0081442D01*
X0189716Y0082221D01*
G37*
G36*
X0188324Y0080829D02*
X0192499Y0076654D01*
X0191720Y0075875D01*
X0187545Y0080050D01*
X0188324Y0080829D01*
G37*
G36*
X0186932Y0079437D02*
X0191107Y0075262D01*
X0190328Y0074483D01*
X0186153Y0078658D01*
X0186932Y0079437D01*
G37*
G36*
X0185540Y0078045D02*
X0189715Y0073870D01*
X0188936Y0073091D01*
X0184761Y0077266D01*
X0185540Y0078045D01*
G37*
G36*
X0184148Y0076653D02*
X0188323Y0072478D01*
X0187544Y0071699D01*
X0183369Y0075874D01*
X0184148Y0076653D01*
G37*
D11*
X0132952Y0075740D03*
X0122715Y0075740D03*
X0122715Y0072000D03*
X0122715Y0068260D03*
X0132952Y0068260D03*
D12*
X0132180Y0060500D03*
X0125487Y0060500D03*
X0157987Y0072000D03*
X0164680Y0072000D03*
X0132680Y0083500D03*
X0125987Y0083500D03*
D13*
X0098558Y0075740D03*
X0089109Y0075740D03*
X0089109Y0072000D03*
X0089109Y0068260D03*
X0098558Y0068260D03*
X0098558Y0072000D03*
D14*
X0104833Y0070803D03*
X0104833Y0073402D03*
X0104833Y0076000D03*
X0116585Y0076000D03*
X0116585Y0073402D03*
X0116585Y0070803D03*
X0116585Y0068205D03*
X0104833Y0068205D03*
D15*
X0112678Y0072093D03*
D16*
X0146774Y0072000D03*
X0151892Y0072000D03*
G36*
X0171417Y0059087D02*
X0173366Y0061036D01*
X0175869Y0058533D01*
X0173920Y0056584D01*
X0171417Y0059087D01*
G37*
G36*
X0167798Y0055467D02*
X0169747Y0057416D01*
X0172250Y0054913D01*
X0170301Y0052964D01*
X0167798Y0055467D01*
G37*
G36*
X0185417Y0046087D02*
X0187366Y0048036D01*
X0189869Y0045533D01*
X0187920Y0043584D01*
X0185417Y0046087D01*
G37*
G36*
X0181798Y0042467D02*
X0183747Y0044416D01*
X0186250Y0041913D01*
X0184301Y0039964D01*
X0181798Y0042467D01*
G37*
X0223774Y0042500D03*
X0228892Y0042500D03*
X0259774Y0063500D03*
X0264892Y0063500D03*
X0249892Y0068000D03*
X0244774Y0068000D03*
X0270774Y0087500D03*
X0275892Y0087500D03*
X0318774Y0080500D03*
X0323892Y0080500D03*
X0323892Y0071500D03*
X0318774Y0071500D03*
X0330774Y0066000D03*
X0335892Y0066000D03*
X0325392Y0052500D03*
X0320274Y0052500D03*
X0195892Y0101500D03*
X0190774Y0101500D03*
G36*
X0182801Y0095536D02*
X0184750Y0093587D01*
X0182247Y0091084D01*
X0180298Y0093033D01*
X0182801Y0095536D01*
G37*
G36*
X0186420Y0091916D02*
X0188369Y0089967D01*
X0185866Y0087464D01*
X0183917Y0089413D01*
X0186420Y0091916D01*
G37*
G36*
X0179301Y0092036D02*
X0181250Y0090087D01*
X0178747Y0087584D01*
X0176798Y0089533D01*
X0179301Y0092036D01*
G37*
G36*
X0182920Y0088416D02*
X0184869Y0086467D01*
X0182366Y0083964D01*
X0180417Y0085913D01*
X0182920Y0088416D01*
G37*
X0119392Y0050000D03*
X0114274Y0050000D03*
X0114274Y0045500D03*
X0119392Y0045500D03*
X0119392Y0041000D03*
X0114274Y0041000D03*
D17*
X0231833Y0052441D03*
X0231833Y0057559D03*
X0265333Y0072441D03*
X0265333Y0077559D03*
X0286833Y0061559D03*
X0276333Y0060059D03*
X0271333Y0060059D03*
X0271333Y0054941D03*
X0276333Y0054941D03*
X0286833Y0056441D03*
X0300833Y0056441D03*
X0300833Y0061559D03*
X0314333Y0058559D03*
X0314333Y0053441D03*
X0343833Y0070941D03*
X0348333Y0070941D03*
X0348333Y0076059D03*
X0343833Y0076059D03*
X0333833Y0077941D03*
X0333833Y0083059D03*
X0313333Y0081559D03*
X0313333Y0076441D03*
X0216833Y0096441D03*
X0211833Y0096441D03*
X0211833Y0101559D03*
X0216833Y0101559D03*
D18*
G36*
X0178466Y0059876D02*
X0181249Y0057093D01*
X0176240Y0052084D01*
X0173457Y0054867D01*
X0178466Y0059876D01*
G37*
G36*
X0185426Y0052916D02*
X0188209Y0050133D01*
X0183200Y0045124D01*
X0180417Y0047907D01*
X0185426Y0052916D01*
G37*
D19*
X0223333Y0097500D03*
X0228333Y0097500D03*
X0233333Y0097500D03*
X0238333Y0097500D03*
X0243333Y0097500D03*
X0243333Y0102500D03*
X0238333Y0102500D03*
X0233333Y0102500D03*
X0228333Y0102500D03*
X0223333Y0102500D03*
D20*
X0236022Y0087500D03*
X0236022Y0082500D03*
X0236022Y0077500D03*
X0236022Y0072500D03*
X0259644Y0072500D03*
X0259644Y0077500D03*
X0259644Y0082500D03*
X0259644Y0087500D03*
X0245164Y0057882D03*
X0236503Y0057882D03*
X0236503Y0052961D03*
X0245164Y0052961D03*
X0245164Y0048039D03*
X0236503Y0048039D03*
X0236503Y0043118D03*
X0245164Y0043118D03*
D21*
X0255503Y0042626D03*
X0255503Y0045776D03*
X0255503Y0048925D03*
X0255503Y0052075D03*
X0255503Y0055224D03*
X0255503Y0058374D03*
X0264164Y0058374D03*
X0264164Y0055224D03*
X0264164Y0052075D03*
X0264164Y0048925D03*
X0264164Y0045776D03*
X0264164Y0042626D03*
D22*
X0259833Y0042232D03*
X0259833Y0058768D03*
D23*
X0141833Y0048500D03*
X0131833Y0048500D03*
X0131833Y0096500D03*
X0141833Y0096500D03*
D24*
X0289896Y0083937D03*
X0293833Y0083937D03*
X0297770Y0083937D03*
X0297770Y0080000D03*
X0293833Y0080000D03*
X0289896Y0080000D03*
X0289896Y0076063D03*
X0293833Y0076063D03*
X0297770Y0076063D03*
D25*
X0302101Y0077047D02*
X0304267Y0077047D01*
X0302101Y0077047D02*
X0302101Y0077047D01*
X0304267Y0077047D01*
X0304267Y0077047D01*
X0304267Y0079016D02*
X0302101Y0079016D01*
X0302101Y0079016D01*
X0304267Y0079016D01*
X0304267Y0079016D01*
X0304267Y0080984D02*
X0302101Y0080984D01*
X0302101Y0080984D01*
X0304267Y0080984D01*
X0304267Y0080984D01*
X0304267Y0082953D02*
X0302101Y0082953D01*
X0302101Y0082953D01*
X0304267Y0082953D01*
X0304267Y0082953D01*
X0304267Y0084921D02*
X0302101Y0084921D01*
X0302101Y0084921D01*
X0304267Y0084921D01*
X0304267Y0084921D01*
X0304267Y0086890D02*
X0302101Y0086890D01*
X0302101Y0086890D01*
X0304267Y0086890D01*
X0304267Y0086890D01*
X0300723Y0088267D02*
X0300723Y0088267D01*
X0300723Y0090433D01*
X0300723Y0090433D01*
X0300723Y0088267D01*
X0300723Y0089447D02*
X0300723Y0089447D01*
X0298755Y0088267D02*
X0298755Y0088267D01*
X0298755Y0090433D01*
X0298755Y0090433D01*
X0298755Y0088267D01*
X0298755Y0089447D02*
X0298755Y0089447D01*
X0296786Y0088267D02*
X0296786Y0088267D01*
X0296786Y0090433D01*
X0296786Y0090433D01*
X0296786Y0088267D01*
X0296786Y0089447D02*
X0296786Y0089447D01*
X0294818Y0088267D02*
X0294818Y0088267D01*
X0294818Y0090433D01*
X0294818Y0090433D01*
X0294818Y0088267D01*
X0294818Y0089447D02*
X0294818Y0089447D01*
X0292849Y0088267D02*
X0292849Y0088267D01*
X0292849Y0090433D01*
X0292849Y0090433D01*
X0292849Y0088267D01*
X0292849Y0089447D02*
X0292849Y0089447D01*
X0290881Y0088267D02*
X0290881Y0088267D01*
X0290881Y0090433D01*
X0290881Y0090433D01*
X0290881Y0088267D01*
X0290881Y0089447D02*
X0290881Y0089447D01*
X0288912Y0088267D02*
X0288912Y0088267D01*
X0288912Y0090433D01*
X0288912Y0090433D01*
X0288912Y0088267D01*
X0288912Y0089447D02*
X0288912Y0089447D01*
X0286944Y0088267D02*
X0286944Y0088267D01*
X0286944Y0090433D01*
X0286944Y0090433D01*
X0286944Y0088267D01*
X0286944Y0089447D02*
X0286944Y0089447D01*
X0285566Y0086890D02*
X0283400Y0086890D01*
X0283400Y0086890D01*
X0285566Y0086890D01*
X0285566Y0086890D01*
X0285566Y0084921D02*
X0283400Y0084921D01*
X0283400Y0084921D01*
X0285566Y0084921D01*
X0285566Y0084921D01*
X0285566Y0082953D02*
X0283400Y0082953D01*
X0283400Y0082953D01*
X0285566Y0082953D01*
X0285566Y0082953D01*
X0285566Y0080984D02*
X0283400Y0080984D01*
X0283400Y0080984D01*
X0285566Y0080984D01*
X0285566Y0080984D01*
X0285566Y0079016D02*
X0283400Y0079016D01*
X0283400Y0079016D01*
X0285566Y0079016D01*
X0285566Y0079016D01*
X0285566Y0077047D02*
X0283400Y0077047D01*
X0283400Y0077047D01*
X0285566Y0077047D01*
X0285566Y0077047D01*
X0285566Y0075079D02*
X0283400Y0075079D01*
X0283400Y0075079D01*
X0285566Y0075079D01*
X0285566Y0075079D01*
X0285566Y0073110D02*
X0283400Y0073110D01*
X0283400Y0073110D01*
X0285566Y0073110D01*
X0285566Y0073110D01*
X0286944Y0069567D02*
X0286944Y0069567D01*
X0286944Y0071733D01*
X0286944Y0071733D01*
X0286944Y0069567D01*
X0286944Y0070747D02*
X0286944Y0070747D01*
X0288912Y0069567D02*
X0288912Y0069567D01*
X0288912Y0071733D01*
X0288912Y0071733D01*
X0288912Y0069567D01*
X0288912Y0070747D02*
X0288912Y0070747D01*
X0290881Y0069567D02*
X0290881Y0069567D01*
X0290881Y0071733D01*
X0290881Y0071733D01*
X0290881Y0069567D01*
X0290881Y0070747D02*
X0290881Y0070747D01*
X0292849Y0069567D02*
X0292849Y0069567D01*
X0292849Y0071733D01*
X0292849Y0071733D01*
X0292849Y0069567D01*
X0292849Y0070747D02*
X0292849Y0070747D01*
X0294818Y0069567D02*
X0294818Y0069567D01*
X0294818Y0071733D01*
X0294818Y0071733D01*
X0294818Y0069567D01*
X0294818Y0070747D02*
X0294818Y0070747D01*
X0296786Y0069567D02*
X0296786Y0069567D01*
X0296786Y0071733D01*
X0296786Y0071733D01*
X0296786Y0069567D01*
X0296786Y0070747D02*
X0296786Y0070747D01*
X0298755Y0069567D02*
X0298755Y0069567D01*
X0298755Y0071733D01*
X0298755Y0071733D01*
X0298755Y0069567D01*
X0298755Y0070747D02*
X0298755Y0070747D01*
X0300723Y0069567D02*
X0300723Y0069567D01*
X0300723Y0071733D01*
X0300723Y0071733D01*
X0300723Y0069567D01*
X0300723Y0070747D02*
X0300723Y0070747D01*
X0302101Y0073110D02*
X0304267Y0073110D01*
X0302101Y0073110D02*
X0302101Y0073110D01*
X0304267Y0073110D01*
X0304267Y0073110D01*
X0304267Y0075079D02*
X0302101Y0075079D01*
X0302101Y0075079D01*
X0304267Y0075079D01*
X0304267Y0075079D01*
X0183408Y0100122D02*
X0183408Y0102878D01*
X0186164Y0102878D01*
X0186164Y0100122D01*
X0183408Y0100122D01*
X0183408Y0101302D02*
X0186164Y0101302D01*
X0186164Y0102482D02*
X0183408Y0102482D01*
X0176503Y0102878D02*
X0176503Y0100122D01*
X0176503Y0102878D02*
X0179259Y0102878D01*
X0179259Y0100122D01*
X0176503Y0100122D01*
X0176503Y0101302D02*
X0179259Y0101302D01*
X0179259Y0102482D02*
X0176503Y0102482D01*
D26*
X0293833Y0080000D03*
D27*
X0275617Y0078500D03*
X0271050Y0078500D03*
X0271050Y0083000D03*
X0275617Y0083000D03*
X0275617Y0074000D03*
X0271050Y0074000D03*
X0319050Y0076000D03*
X0323617Y0076000D03*
X0333550Y0072500D03*
X0338117Y0072500D03*
X0323117Y0064500D03*
X0318550Y0064500D03*
X0331050Y0061500D03*
X0335617Y0061500D03*
X0333550Y0057000D03*
X0338117Y0057000D03*
X0338117Y0052500D03*
X0333550Y0052500D03*
X0325117Y0057000D03*
X0320550Y0057000D03*
X0319050Y0085000D03*
X0323617Y0085000D03*
X0323617Y0089500D03*
X0319050Y0089500D03*
X0319050Y0094000D03*
X0323617Y0094000D03*
X0317617Y0100000D03*
X0313050Y0100000D03*
X0216617Y0042500D03*
X0212050Y0042500D03*
X0156117Y0048000D03*
X0151550Y0048000D03*
X0151550Y0053500D03*
X0156117Y0053500D03*
X0157617Y0059000D03*
X0153050Y0059000D03*
X0153050Y0064500D03*
X0157617Y0064500D03*
X0156117Y0080500D03*
X0151550Y0080500D03*
X0151550Y0086000D03*
X0156117Y0086000D03*
X0156117Y0091500D03*
X0151550Y0091500D03*
X0151550Y0097000D03*
X0156117Y0097000D03*
D28*
X0250333Y0095717D03*
X0250333Y0100283D03*
X0280833Y0101783D03*
X0289333Y0102283D03*
X0293833Y0102783D03*
X0298333Y0102283D03*
X0302833Y0102283D03*
X0307333Y0102283D03*
X0307333Y0097717D03*
X0302833Y0097717D03*
X0298333Y0097717D03*
X0293833Y0098217D03*
X0289333Y0097717D03*
X0280833Y0097217D03*
X0343833Y0087783D03*
X0343833Y0083217D03*
X0305333Y0061283D03*
X0305333Y0056717D03*
X0296333Y0056717D03*
X0291833Y0056717D03*
X0291833Y0061283D03*
X0296333Y0061283D03*
D29*
X0274117Y0094472D03*
X0259550Y0094472D03*
X0259550Y0103528D03*
X0274117Y0103528D03*
D30*
X0361333Y0083500D03*
X0361333Y0073500D03*
X0361333Y0063500D03*
D31*
X0145833Y0066500D03*
X0143235Y0066500D03*
X0140636Y0066500D03*
X0138038Y0066500D03*
X0138038Y0054748D03*
X0140636Y0054748D03*
X0143235Y0054748D03*
X0145833Y0054748D03*
X0145629Y0078500D03*
X0143030Y0078500D03*
X0140432Y0078500D03*
X0137833Y0078500D03*
X0137833Y0090252D03*
X0140432Y0090252D03*
X0143030Y0090252D03*
X0145629Y0090252D03*
D32*
X0141741Y0086344D03*
X0141926Y0058656D03*
D33*
X0086833Y0059252D02*
X0086833Y0035503D01*
X0230034Y0035754D01*
X0229533Y0036254D01*
X0229533Y0036254D01*
X0227533Y0038254D01*
X0227533Y0039428D01*
X0226976Y0039428D01*
X0226333Y0040071D01*
X0225691Y0039428D01*
X0221858Y0039428D01*
X0221096Y0040190D01*
X0221096Y0040700D01*
X0219590Y0040700D01*
X0219590Y0040190D01*
X0218828Y0039428D01*
X0214405Y0039428D01*
X0213644Y0040190D01*
X0213644Y0040228D01*
X0212386Y0040228D01*
X0212386Y0042163D01*
X0211713Y0042163D01*
X0211713Y0040228D01*
X0210277Y0040228D01*
X0210093Y0040304D01*
X0209953Y0040445D01*
X0209877Y0040629D01*
X0209877Y0042163D01*
X0211713Y0042163D01*
X0211713Y0042837D01*
X0211713Y0044772D01*
X0210277Y0044772D01*
X0210093Y0044696D01*
X0209953Y0044555D01*
X0209877Y0044371D01*
X0209877Y0042837D01*
X0211713Y0042837D01*
X0212386Y0042837D01*
X0212386Y0044772D01*
X0212814Y0044772D01*
X0212587Y0044999D01*
X0212183Y0045973D01*
X0212183Y0047027D01*
X0212286Y0047276D01*
X0211746Y0046735D01*
X0210669Y0046735D01*
X0205731Y0051672D01*
X0205731Y0052541D01*
X0204935Y0051745D01*
X0204935Y0051672D01*
X0199998Y0046735D01*
X0198921Y0046735D01*
X0198031Y0047625D01*
X0197106Y0046700D01*
X0193281Y0046700D01*
X0192834Y0046253D01*
X0191860Y0045850D01*
X0191170Y0045850D01*
X0191170Y0044993D01*
X0188460Y0042282D01*
X0187383Y0042282D01*
X0184790Y0044875D01*
X0184393Y0044477D01*
X0185218Y0043652D01*
X0184024Y0042458D01*
X0184291Y0042191D01*
X0185485Y0043385D01*
X0186675Y0042195D01*
X0186751Y0042012D01*
X0186751Y0041813D01*
X0186675Y0041629D01*
X0185764Y0040718D01*
X0184291Y0042190D01*
X0184024Y0041923D01*
X0185496Y0040451D01*
X0184585Y0039539D01*
X0184402Y0039463D01*
X0184203Y0039463D01*
X0184019Y0039539D01*
X0182830Y0040729D01*
X0184024Y0041923D01*
X0183756Y0042190D01*
X0182562Y0040996D01*
X0181373Y0042186D01*
X0181297Y0042369D01*
X0181297Y0042568D01*
X0181373Y0042752D01*
X0182284Y0043663D01*
X0183756Y0042191D01*
X0184024Y0042458D01*
X0182551Y0043930D01*
X0182552Y0043932D01*
X0179116Y0047368D01*
X0179116Y0048445D01*
X0181533Y0050863D01*
X0181533Y0055537D01*
X0176778Y0050782D01*
X0175701Y0050782D01*
X0172265Y0054219D01*
X0171764Y0053718D01*
X0170291Y0055190D01*
X0170024Y0054923D01*
X0171496Y0053451D01*
X0170585Y0052539D01*
X0170402Y0052463D01*
X0170203Y0052463D01*
X0170019Y0052539D01*
X0168830Y0053729D01*
X0170024Y0054923D01*
X0169756Y0055190D01*
X0168562Y0053996D01*
X0167373Y0055186D01*
X0167297Y0055369D01*
X0167297Y0055568D01*
X0167373Y0055752D01*
X0168284Y0056663D01*
X0169756Y0055191D01*
X0170024Y0055458D01*
X0171218Y0056652D01*
X0170029Y0057841D01*
X0169845Y0057918D01*
X0169646Y0057918D01*
X0169462Y0057841D01*
X0168551Y0056930D01*
X0170024Y0055458D01*
X0170291Y0055191D01*
X0171485Y0056385D01*
X0172311Y0055559D01*
X0172708Y0055957D01*
X0170116Y0058549D01*
X0170116Y0059626D01*
X0172826Y0062337D01*
X0173903Y0062337D01*
X0176495Y0059744D01*
X0177929Y0061177D01*
X0178654Y0061177D01*
X0179133Y0061656D01*
X0179059Y0061626D01*
X0175914Y0061626D01*
X0173009Y0062830D01*
X0170785Y0065053D01*
X0170389Y0066010D01*
X0167079Y0062700D01*
X0160590Y0062700D01*
X0160590Y0062190D01*
X0160150Y0061750D01*
X0160590Y0061310D01*
X0160590Y0057150D01*
X0160860Y0057150D01*
X0161834Y0056747D01*
X0162580Y0056001D01*
X0162983Y0055027D01*
X0162983Y0053973D01*
X0162580Y0052999D01*
X0161834Y0052253D01*
X0160860Y0051850D01*
X0159806Y0051850D01*
X0159090Y0052147D01*
X0159090Y0051190D01*
X0158650Y0050750D01*
X0159090Y0050310D01*
X0159090Y0045690D01*
X0158328Y0044928D01*
X0153905Y0044928D01*
X0153144Y0045690D01*
X0153144Y0045728D01*
X0151886Y0045728D01*
X0151886Y0047663D01*
X0151213Y0047663D01*
X0151213Y0045728D01*
X0149777Y0045728D01*
X0149593Y0045804D01*
X0149453Y0045945D01*
X0149377Y0046129D01*
X0149377Y0047663D01*
X0151213Y0047663D01*
X0151213Y0048337D01*
X0151213Y0050272D01*
X0149777Y0050272D01*
X0149593Y0050196D01*
X0149453Y0050055D01*
X0149377Y0049871D01*
X0149377Y0048337D01*
X0151213Y0048337D01*
X0151886Y0048337D01*
X0151886Y0050272D01*
X0153144Y0050272D01*
X0153144Y0050310D01*
X0153262Y0050428D01*
X0149338Y0050428D01*
X0148577Y0051190D01*
X0148577Y0052948D01*
X0147931Y0052948D01*
X0147931Y0052261D01*
X0147169Y0051499D01*
X0146658Y0051499D01*
X0146133Y0050240D01*
X0146133Y0044962D01*
X0145372Y0044200D01*
X0138295Y0044200D01*
X0137533Y0044962D01*
X0137533Y0049985D01*
X0136845Y0051499D01*
X0136702Y0051499D01*
X0135941Y0052261D01*
X0135941Y0057235D01*
X0136226Y0057521D01*
X0136226Y0062590D01*
X0136988Y0063351D01*
X0144398Y0063351D01*
X0143736Y0064013D01*
X0143736Y0064051D01*
X0143235Y0064051D01*
X0143235Y0066500D01*
X0143333Y0066598D01*
X0143333Y0071000D01*
X0144333Y0072000D01*
X0146774Y0072000D01*
X0145629Y0073146D01*
X0145629Y0078500D01*
X0146926Y0078500D01*
X0146926Y0080548D01*
X0146850Y0080732D01*
X0146709Y0080873D01*
X0146525Y0080949D01*
X0145629Y0080949D01*
X0145629Y0078500D01*
X0145629Y0078500D01*
X0146926Y0078500D01*
X0146926Y0076452D01*
X0146850Y0076268D01*
X0146709Y0076127D01*
X0146525Y0076051D01*
X0145629Y0076051D01*
X0145629Y0078500D01*
X0145629Y0078500D01*
X0145629Y0078500D01*
X0145833Y0078500D01*
X0147833Y0080500D01*
X0147833Y0082000D01*
X0148333Y0083000D01*
X0148833Y0083283D01*
X0151550Y0086000D01*
X0150550Y0085000D01*
X0149833Y0085000D01*
X0149377Y0084924D02*
X0147440Y0084924D01*
X0147440Y0083926D02*
X0149472Y0083926D01*
X0149453Y0083945D02*
X0149593Y0083804D01*
X0149777Y0083728D01*
X0151213Y0083728D01*
X0151213Y0085663D01*
X0151886Y0085663D01*
X0151886Y0083728D01*
X0153144Y0083728D01*
X0153144Y0083690D01*
X0153262Y0083572D01*
X0149338Y0083572D01*
X0148577Y0082810D01*
X0148577Y0078190D01*
X0148700Y0078067D01*
X0148683Y0078027D01*
X0148683Y0076973D01*
X0149087Y0075999D01*
X0149832Y0075253D01*
X0150271Y0075072D01*
X0149976Y0075072D01*
X0149214Y0074310D01*
X0149214Y0069690D01*
X0149976Y0068928D01*
X0153809Y0068928D01*
X0154522Y0069641D01*
X0154522Y0069493D01*
X0155283Y0068731D01*
X0155683Y0068731D01*
X0155683Y0068473D01*
X0156057Y0067572D01*
X0155405Y0067572D01*
X0155333Y0067500D01*
X0155262Y0067572D01*
X0151302Y0067572D01*
X0150652Y0067943D01*
X0150295Y0068300D01*
X0150028Y0068300D01*
X0149796Y0068433D01*
X0149309Y0068300D01*
X0147931Y0068300D01*
X0147931Y0068987D01*
X0147189Y0069728D01*
X0148252Y0069728D01*
X0148435Y0069804D01*
X0148576Y0069945D01*
X0148652Y0070129D01*
X0148652Y0071811D01*
X0146963Y0071811D01*
X0146963Y0072189D01*
X0146585Y0072189D01*
X0146585Y0071811D01*
X0144896Y0071811D01*
X0144896Y0070129D01*
X0144972Y0069945D01*
X0145113Y0069804D01*
X0145247Y0069749D01*
X0144498Y0069749D01*
X0143736Y0068987D01*
X0143736Y0068949D01*
X0143235Y0068949D01*
X0143235Y0066500D01*
X0140636Y0066500D01*
X0139339Y0066500D01*
X0139339Y0064452D01*
X0139415Y0064268D01*
X0139556Y0064127D01*
X0139740Y0064051D01*
X0140636Y0064051D01*
X0140636Y0066500D01*
X0140636Y0066500D01*
X0139339Y0066500D01*
X0139339Y0068548D01*
X0139415Y0068732D01*
X0139556Y0068873D01*
X0139740Y0068949D01*
X0140636Y0068949D01*
X0140636Y0066500D01*
X0140637Y0066500D01*
X0141934Y0066500D01*
X0141934Y0064452D01*
X0141858Y0064268D01*
X0141717Y0064127D01*
X0141533Y0064051D01*
X0140637Y0064051D01*
X0140637Y0066500D01*
X0140637Y0066500D01*
X0141934Y0066500D01*
X0141934Y0068548D01*
X0141858Y0068732D01*
X0141717Y0068873D01*
X0141533Y0068949D01*
X0140637Y0068949D01*
X0140637Y0066500D01*
X0140636Y0066500D01*
X0138038Y0066500D01*
X0136538Y0065000D01*
X0135333Y0065000D01*
X0132180Y0061846D01*
X0132180Y0060500D01*
X0128333Y0065500D01*
X0127833Y0067500D01*
X0127833Y0071000D01*
X0126833Y0072000D01*
X0126833Y0073000D01*
X0127333Y0072500D01*
X0129333Y0072500D01*
X0130051Y0073357D02*
X0135853Y0073357D01*
X0136614Y0074119D01*
X0136614Y0075251D01*
X0139169Y0075251D01*
X0139931Y0076013D01*
X0139931Y0076051D01*
X0140432Y0076051D01*
X0141328Y0076051D01*
X0141512Y0076127D01*
X0141653Y0076268D01*
X0141729Y0076452D01*
X0141729Y0078500D01*
X0141729Y0080548D01*
X0141653Y0080732D01*
X0141512Y0080873D01*
X0141328Y0080949D01*
X0140432Y0080949D01*
X0140432Y0078500D01*
X0141729Y0078500D01*
X0140432Y0078500D01*
X0140432Y0078500D01*
X0140432Y0078500D01*
X0140432Y0076051D01*
X0140432Y0078500D01*
X0140432Y0078500D01*
X0143030Y0078500D01*
X0143030Y0078500D01*
X0141733Y0078500D01*
X0141733Y0080548D01*
X0141809Y0080732D01*
X0141950Y0080873D01*
X0142133Y0080949D01*
X0143030Y0080949D01*
X0143030Y0078500D01*
X0141733Y0078500D01*
X0141733Y0076452D01*
X0141809Y0076268D01*
X0141950Y0076127D01*
X0142133Y0076051D01*
X0143030Y0076051D01*
X0143030Y0078500D01*
X0143030Y0078500D01*
X0143030Y0078500D01*
X0145629Y0078500D01*
X0145629Y0080949D01*
X0144732Y0080949D01*
X0144548Y0080873D01*
X0144407Y0080732D01*
X0144331Y0080548D01*
X0144331Y0078500D01*
X0144331Y0076452D01*
X0144407Y0076268D01*
X0144548Y0076127D01*
X0144732Y0076051D01*
X0145629Y0076051D01*
X0145629Y0078500D01*
X0145628Y0078500D02*
X0144331Y0078500D01*
X0145628Y0078500D01*
X0145628Y0078500D01*
X0145629Y0078933D02*
X0145629Y0078933D01*
X0145629Y0077934D02*
X0145629Y0077934D01*
X0145629Y0076936D02*
X0145629Y0076936D01*
X0146926Y0076936D02*
X0148699Y0076936D01*
X0148683Y0077934D02*
X0146926Y0077934D01*
X0146926Y0078933D02*
X0148577Y0078933D01*
X0148577Y0079932D02*
X0146926Y0079932D01*
X0146571Y0080930D02*
X0148577Y0080930D01*
X0148577Y0081929D02*
X0146959Y0081929D01*
X0146679Y0081649D02*
X0147440Y0082410D01*
X0147440Y0087479D01*
X0147726Y0087765D01*
X0147726Y0088452D01*
X0149315Y0088452D01*
X0149338Y0088428D01*
X0153262Y0088428D01*
X0153144Y0088310D01*
X0153144Y0088272D01*
X0151886Y0088272D01*
X0151886Y0086337D01*
X0151213Y0086337D01*
X0151213Y0088272D01*
X0149777Y0088272D01*
X0149593Y0088196D01*
X0149453Y0088055D01*
X0149377Y0087871D01*
X0149377Y0086337D01*
X0151213Y0086337D01*
X0151213Y0085663D01*
X0149377Y0085663D01*
X0149377Y0084129D01*
X0149453Y0083945D01*
X0148694Y0082927D02*
X0147440Y0082927D01*
X0146679Y0081649D02*
X0139269Y0081649D01*
X0139931Y0080987D01*
X0139931Y0080949D01*
X0140432Y0080949D01*
X0140432Y0078500D01*
X0140432Y0078933D02*
X0140432Y0078933D01*
X0140432Y0077934D02*
X0140432Y0077934D01*
X0140432Y0076936D02*
X0140432Y0076936D01*
X0139855Y0075937D02*
X0149148Y0075937D01*
X0149843Y0074939D02*
X0136614Y0074939D01*
X0136435Y0073940D02*
X0144925Y0073940D01*
X0144896Y0073871D02*
X0144896Y0072189D01*
X0146585Y0072189D01*
X0146585Y0074272D01*
X0145297Y0074272D01*
X0145113Y0074196D01*
X0144972Y0074055D01*
X0144896Y0073871D01*
X0144896Y0072942D02*
X0125577Y0072942D01*
X0125577Y0073182D02*
X0125504Y0073357D01*
X0125616Y0073357D01*
X0126377Y0074119D01*
X0126377Y0077361D01*
X0125616Y0078123D01*
X0122933Y0078123D01*
X0122933Y0089595D01*
X0125239Y0091900D01*
X0132748Y0091900D01*
X0133473Y0092200D01*
X0135372Y0092200D01*
X0135736Y0092564D01*
X0135736Y0087765D01*
X0136041Y0087460D01*
X0136041Y0086111D01*
X0135483Y0086669D01*
X0135483Y0087027D01*
X0135080Y0088001D01*
X0134334Y0088747D01*
X0133360Y0089150D01*
X0132306Y0089150D01*
X0131332Y0088747D01*
X0130587Y0088001D01*
X0130183Y0087027D01*
X0130183Y0086768D01*
X0129976Y0086768D01*
X0129214Y0086007D01*
X0129214Y0080993D01*
X0129533Y0080674D01*
X0129533Y0077605D01*
X0129290Y0077361D01*
X0129290Y0074119D01*
X0130051Y0073357D01*
X0129468Y0073940D02*
X0126198Y0073940D01*
X0125577Y0073182D02*
X0125577Y0072041D01*
X0122756Y0072041D01*
X0122756Y0071959D01*
X0125577Y0071959D01*
X0125577Y0070818D01*
X0125504Y0070643D01*
X0125616Y0070643D01*
X0126377Y0069881D01*
X0126377Y0066639D01*
X0125616Y0065877D01*
X0120713Y0065877D01*
X0122822Y0063768D01*
X0128191Y0063768D01*
X0128952Y0063007D01*
X0128952Y0057993D01*
X0128775Y0057816D01*
X0133791Y0052800D01*
X0135372Y0052800D01*
X0136133Y0052038D01*
X0136133Y0050139D01*
X0136433Y0049415D01*
X0136433Y0047585D01*
X0136133Y0046861D01*
X0136133Y0044962D01*
X0135372Y0044200D01*
X0133473Y0044200D01*
X0132748Y0043900D01*
X0130670Y0043900D01*
X0130344Y0044035D01*
X0130579Y0043800D01*
X0164088Y0043800D01*
X0169183Y0048896D01*
X0169183Y0049527D01*
X0169587Y0050501D01*
X0170332Y0051247D01*
X0171306Y0051650D01*
X0172360Y0051650D01*
X0173334Y0051247D01*
X0174080Y0050501D01*
X0174483Y0049527D01*
X0174483Y0048473D01*
X0174080Y0047499D01*
X0173334Y0046753D01*
X0172360Y0046350D01*
X0171729Y0046350D01*
X0166633Y0041254D01*
X0165579Y0040200D01*
X0129088Y0040200D01*
X0127787Y0041501D01*
X0127983Y0041027D01*
X0127983Y0039973D01*
X0127580Y0038999D01*
X0126834Y0038253D01*
X0125860Y0037850D01*
X0124806Y0037850D01*
X0123832Y0038253D01*
X0123386Y0038700D01*
X0122070Y0038700D01*
X0122070Y0038690D01*
X0121309Y0037928D01*
X0117476Y0037928D01*
X0116714Y0038690D01*
X0116714Y0047452D01*
X0116191Y0046928D01*
X0116152Y0046928D01*
X0116152Y0045689D01*
X0114463Y0045689D01*
X0114463Y0045311D01*
X0114463Y0043228D01*
X0114463Y0041189D01*
X0114085Y0041189D01*
X0114085Y0040811D01*
X0112396Y0040811D01*
X0112396Y0039129D01*
X0112472Y0038945D01*
X0112613Y0038804D01*
X0112797Y0038728D01*
X0114085Y0038728D01*
X0114085Y0040811D01*
X0114463Y0040811D01*
X0114463Y0038728D01*
X0115752Y0038728D01*
X0115935Y0038804D01*
X0116076Y0038945D01*
X0116152Y0039129D01*
X0116152Y0040811D01*
X0114463Y0040811D01*
X0114463Y0041189D01*
X0116152Y0041189D01*
X0116152Y0042871D01*
X0116076Y0043055D01*
X0115935Y0043196D01*
X0115804Y0043250D01*
X0115935Y0043304D01*
X0116076Y0043445D01*
X0116152Y0043629D01*
X0116152Y0045311D01*
X0114463Y0045311D01*
X0114085Y0045311D01*
X0112396Y0045311D01*
X0112396Y0043629D01*
X0112472Y0043445D01*
X0112613Y0043304D01*
X0112745Y0043250D01*
X0112613Y0043196D01*
X0112472Y0043055D01*
X0112396Y0042871D01*
X0112396Y0041189D01*
X0114085Y0041189D01*
X0114085Y0045311D01*
X0114085Y0045689D01*
X0112396Y0045689D01*
X0112396Y0046928D01*
X0112358Y0046928D01*
X0111596Y0047690D01*
X0111596Y0050691D01*
X0105088Y0057200D01*
X0090088Y0057200D01*
X0088938Y0058350D01*
X0088306Y0058350D01*
X0087332Y0058753D01*
X0086833Y0059252D01*
X0086833Y0058963D02*
X0087123Y0058963D01*
X0086833Y0057964D02*
X0089323Y0057964D01*
X0090833Y0059000D02*
X0088833Y0061000D01*
X0091483Y0060960D02*
X0109045Y0060960D01*
X0109332Y0061247D02*
X0108587Y0060501D01*
X0108183Y0059527D01*
X0108183Y0059196D01*
X0107633Y0059746D01*
X0106579Y0060800D01*
X0091579Y0060800D01*
X0091483Y0060896D01*
X0091483Y0061527D01*
X0091080Y0062501D01*
X0090334Y0063247D01*
X0089360Y0063650D01*
X0088306Y0063650D01*
X0087332Y0063247D01*
X0086833Y0062748D01*
X0086833Y0065582D01*
X0091616Y0065582D01*
X0092033Y0065999D01*
X0092033Y0065754D01*
X0094033Y0063754D01*
X0095088Y0062700D01*
X0103079Y0062700D01*
X0104579Y0064200D01*
X0105633Y0065254D01*
X0105633Y0066107D01*
X0107321Y0066107D01*
X0108082Y0066869D01*
X0108082Y0067054D01*
X0108744Y0066393D01*
X0110733Y0066393D01*
X0110733Y0064085D01*
X0111434Y0062394D01*
X0112510Y0061318D01*
X0112685Y0060896D01*
X0112334Y0061247D01*
X0111360Y0061650D01*
X0110306Y0061650D01*
X0109332Y0061247D01*
X0108363Y0059961D02*
X0107418Y0059961D01*
X0105833Y0059000D02*
X0090833Y0059000D01*
X0086833Y0056966D02*
X0105322Y0056966D01*
X0106320Y0055967D02*
X0086833Y0055967D01*
X0086833Y0054969D02*
X0107319Y0054969D01*
X0108318Y0053970D02*
X0086833Y0053970D01*
X0086833Y0052972D02*
X0094074Y0052972D01*
X0094143Y0053000D02*
X0091018Y0051706D01*
X0088627Y0049315D01*
X0087333Y0046191D01*
X0087333Y0042809D01*
X0088627Y0039685D01*
X0091018Y0037294D01*
X0094143Y0036000D01*
X0097524Y0036000D01*
X0100648Y0037294D01*
X0103039Y0039685D01*
X0104333Y0042809D01*
X0104333Y0046191D01*
X0103039Y0049315D01*
X0100648Y0051706D01*
X0097524Y0053000D01*
X0094143Y0053000D01*
X0091664Y0051973D02*
X0086833Y0051973D01*
X0086833Y0050975D02*
X0090287Y0050975D01*
X0089289Y0049976D02*
X0086833Y0049976D01*
X0086833Y0048978D02*
X0088488Y0048978D01*
X0088074Y0047979D02*
X0086833Y0047979D01*
X0086833Y0046981D02*
X0087661Y0046981D01*
X0087333Y0045982D02*
X0086833Y0045982D01*
X0086833Y0044984D02*
X0087333Y0044984D01*
X0087333Y0043985D02*
X0086833Y0043985D01*
X0086833Y0042987D02*
X0087333Y0042987D01*
X0087673Y0041988D02*
X0086833Y0041988D01*
X0086833Y0040990D02*
X0088087Y0040990D01*
X0088501Y0039991D02*
X0086833Y0039991D01*
X0086833Y0038993D02*
X0089320Y0038993D01*
X0090318Y0037994D02*
X0086833Y0037994D01*
X0086833Y0036996D02*
X0091739Y0036996D01*
X0086833Y0035997D02*
X0229791Y0035997D01*
X0228792Y0036996D02*
X0099928Y0036996D01*
X0101348Y0037994D02*
X0117410Y0037994D01*
X0116714Y0038993D02*
X0116096Y0038993D01*
X0116152Y0039991D02*
X0116714Y0039991D01*
X0116714Y0040990D02*
X0114463Y0040990D01*
X0114274Y0041000D02*
X0113833Y0041000D01*
X0113333Y0041500D01*
X0113333Y0039000D01*
X0114833Y0037500D01*
X0142333Y0037500D01*
X0143833Y0039000D01*
X0129833Y0042000D02*
X0126333Y0045500D01*
X0119392Y0045500D01*
X0119392Y0050000D01*
X0122070Y0049976D02*
X0123604Y0049976D01*
X0124602Y0048978D02*
X0122070Y0048978D01*
X0122070Y0047979D02*
X0125601Y0047979D01*
X0126280Y0047300D02*
X0122070Y0047300D01*
X0122070Y0047810D01*
X0122070Y0051510D01*
X0126280Y0047300D01*
X0122605Y0050975D02*
X0122070Y0050975D01*
X0114274Y0050559D02*
X0114274Y0050000D01*
X0114274Y0050559D02*
X0105833Y0059000D01*
X0111870Y0061958D02*
X0091305Y0061958D01*
X0090624Y0062957D02*
X0094831Y0062957D01*
X0093832Y0063955D02*
X0086833Y0063955D01*
X0086833Y0062957D02*
X0087043Y0062957D01*
X0086833Y0064954D02*
X0092834Y0064954D01*
X0092033Y0065952D02*
X0091986Y0065952D01*
X0093833Y0066500D02*
X0095833Y0064500D01*
X0102333Y0064500D01*
X0103833Y0066000D01*
X0103833Y0067205D01*
X0104833Y0068205D01*
X0105633Y0065952D02*
X0110733Y0065952D01*
X0110733Y0064954D02*
X0105333Y0064954D01*
X0104334Y0063955D02*
X0110787Y0063955D01*
X0111201Y0062957D02*
X0103336Y0062957D01*
X0108082Y0066951D02*
X0108186Y0066951D01*
X0116585Y0068205D02*
X0116585Y0064252D01*
X0116333Y0064000D01*
X0116585Y0063500D02*
X0116585Y0068205D01*
X0116585Y0070803D01*
X0116585Y0073402D01*
X0116585Y0076000D01*
X0116845Y0075740D01*
X0122715Y0075740D01*
X0126377Y0075937D02*
X0129290Y0075937D01*
X0129290Y0074939D02*
X0126377Y0074939D01*
X0127833Y0074000D02*
X0126833Y0073000D01*
X0126833Y0072000D02*
X0122715Y0072000D01*
X0125577Y0071943D02*
X0146585Y0071943D01*
X0146963Y0071943D02*
X0149214Y0071943D01*
X0148652Y0072189D02*
X0148652Y0073871D01*
X0148576Y0074055D01*
X0148435Y0074196D01*
X0148252Y0074272D01*
X0146963Y0074272D01*
X0146963Y0072189D01*
X0148652Y0072189D01*
X0148652Y0072942D02*
X0149214Y0072942D01*
X0149214Y0073940D02*
X0148623Y0073940D01*
X0146963Y0073940D02*
X0146585Y0073940D01*
X0146585Y0072942D02*
X0146963Y0072942D01*
X0148652Y0070945D02*
X0149214Y0070945D01*
X0149214Y0069946D02*
X0148577Y0069946D01*
X0147931Y0068948D02*
X0149956Y0068948D01*
X0150646Y0067949D02*
X0155900Y0067949D01*
X0155067Y0068948D02*
X0153828Y0068948D01*
X0157987Y0069346D02*
X0157987Y0072000D01*
X0151892Y0072000D01*
X0157987Y0069346D02*
X0158333Y0069000D01*
X0157617Y0064500D02*
X0157617Y0059000D01*
X0160590Y0058963D02*
X0170116Y0058963D01*
X0170451Y0059961D02*
X0160590Y0059961D01*
X0160590Y0060960D02*
X0171449Y0060960D01*
X0172448Y0061958D02*
X0160358Y0061958D01*
X0167336Y0062957D02*
X0172881Y0062957D01*
X0171883Y0063955D02*
X0168334Y0063955D01*
X0169333Y0064954D02*
X0170884Y0064954D01*
X0170413Y0065952D02*
X0170331Y0065952D01*
X0168833Y0067000D02*
X0166333Y0064500D01*
X0157617Y0064500D01*
X0153050Y0064500D02*
X0149550Y0066500D01*
X0145833Y0066500D01*
X0143235Y0066500D02*
X0143235Y0066500D01*
X0143235Y0066500D01*
X0143235Y0064051D01*
X0142338Y0064051D01*
X0142154Y0064127D01*
X0142014Y0064268D01*
X0141938Y0064452D01*
X0141938Y0066500D01*
X0143235Y0066500D01*
X0143235Y0068949D01*
X0142338Y0068949D01*
X0142154Y0068873D01*
X0142014Y0068732D01*
X0141938Y0068548D01*
X0141938Y0066500D01*
X0143235Y0066500D01*
X0143235Y0066500D01*
X0143235Y0066951D02*
X0143235Y0066951D01*
X0143235Y0067949D02*
X0143235Y0067949D01*
X0143235Y0068948D02*
X0143235Y0068948D01*
X0142336Y0068948D02*
X0141535Y0068948D01*
X0140637Y0068948D02*
X0140636Y0068948D01*
X0139738Y0068948D02*
X0138937Y0068948D01*
X0138935Y0068949D02*
X0138038Y0068949D01*
X0137141Y0068949D01*
X0136958Y0068873D01*
X0136817Y0068732D01*
X0136741Y0068548D01*
X0136741Y0066500D01*
X0138038Y0066500D01*
X0138038Y0066500D01*
X0136741Y0066500D01*
X0136741Y0064452D01*
X0136817Y0064268D01*
X0136958Y0064127D01*
X0137141Y0064051D01*
X0138038Y0064051D01*
X0138038Y0066500D01*
X0138038Y0068949D01*
X0138038Y0066500D01*
X0138038Y0066500D01*
X0138038Y0066500D01*
X0138038Y0064051D01*
X0138935Y0064051D01*
X0139119Y0064127D01*
X0139259Y0064268D01*
X0139335Y0064452D01*
X0139335Y0066500D01*
X0139335Y0068548D01*
X0139259Y0068732D01*
X0139119Y0068873D01*
X0138935Y0068949D01*
X0138038Y0068948D02*
X0138038Y0068948D01*
X0137139Y0068948D02*
X0136614Y0068948D01*
X0136614Y0069881D02*
X0136614Y0066639D01*
X0135853Y0065877D01*
X0130051Y0065877D01*
X0129290Y0066639D01*
X0129290Y0069881D01*
X0130051Y0070643D01*
X0135853Y0070643D01*
X0136614Y0069881D01*
X0136549Y0069946D02*
X0144972Y0069946D01*
X0144896Y0070945D02*
X0125577Y0070945D01*
X0126312Y0069946D02*
X0129355Y0069946D01*
X0129290Y0068948D02*
X0126377Y0068948D01*
X0126377Y0067949D02*
X0129290Y0067949D01*
X0129290Y0066951D02*
X0126377Y0066951D01*
X0125691Y0065952D02*
X0129976Y0065952D01*
X0135928Y0065952D02*
X0136741Y0065952D01*
X0136741Y0064954D02*
X0121637Y0064954D01*
X0122635Y0063955D02*
X0143793Y0063955D01*
X0143235Y0064954D02*
X0143235Y0064954D01*
X0143235Y0065952D02*
X0143235Y0065952D01*
X0141938Y0065952D02*
X0141934Y0065952D01*
X0141934Y0064954D02*
X0141938Y0064954D01*
X0140637Y0064954D02*
X0140636Y0064954D01*
X0140636Y0065952D02*
X0140637Y0065952D01*
X0140636Y0066951D02*
X0140637Y0066951D01*
X0140636Y0067949D02*
X0140637Y0067949D01*
X0141934Y0067949D02*
X0141938Y0067949D01*
X0141934Y0066951D02*
X0141938Y0066951D01*
X0139339Y0066951D02*
X0139335Y0066951D01*
X0139335Y0066500D02*
X0138038Y0066500D01*
X0138038Y0066500D01*
X0139335Y0066500D01*
X0139335Y0065952D02*
X0139339Y0065952D01*
X0139335Y0064954D02*
X0139339Y0064954D01*
X0138038Y0064954D02*
X0138038Y0064954D01*
X0138038Y0065952D02*
X0138038Y0065952D01*
X0138038Y0066951D02*
X0138038Y0066951D01*
X0138038Y0067949D02*
X0138038Y0067949D01*
X0136741Y0067949D02*
X0136614Y0067949D01*
X0136614Y0066951D02*
X0136741Y0066951D01*
X0139335Y0067949D02*
X0139339Y0067949D01*
X0140333Y0070000D02*
X0137833Y0070000D01*
X0140333Y0070000D02*
X0142833Y0070000D01*
X0142833Y0072500D01*
X0140333Y0072500D01*
X0137833Y0072500D01*
X0140333Y0075000D02*
X0142833Y0075000D01*
X0145333Y0075000D01*
X0144111Y0076127D02*
X0144251Y0076268D01*
X0144327Y0076452D01*
X0144327Y0078500D01*
X0144327Y0080548D01*
X0144251Y0080732D01*
X0144111Y0080873D01*
X0143927Y0080949D01*
X0143030Y0080949D01*
X0143030Y0078500D01*
X0143030Y0076051D01*
X0143927Y0076051D01*
X0144111Y0076127D01*
X0144327Y0076936D02*
X0144331Y0076936D01*
X0144327Y0077934D02*
X0144331Y0077934D01*
X0144327Y0078500D02*
X0143030Y0078500D01*
X0144327Y0078500D01*
X0144327Y0078933D02*
X0144331Y0078933D01*
X0144327Y0079932D02*
X0144331Y0079932D01*
X0144687Y0080930D02*
X0143972Y0080930D01*
X0143030Y0080930D02*
X0143030Y0080930D01*
X0142088Y0080930D02*
X0141374Y0080930D01*
X0140432Y0080930D02*
X0140432Y0080930D01*
X0140432Y0079932D02*
X0140432Y0079932D01*
X0141729Y0079932D02*
X0141733Y0079932D01*
X0141729Y0078933D02*
X0141733Y0078933D01*
X0141729Y0077934D02*
X0141733Y0077934D01*
X0141729Y0076936D02*
X0141733Y0076936D01*
X0143030Y0076936D02*
X0143030Y0076936D01*
X0143030Y0077934D02*
X0143030Y0077934D01*
X0143030Y0078500D02*
X0143030Y0078500D01*
X0143030Y0078933D02*
X0143030Y0078933D01*
X0143030Y0079932D02*
X0143030Y0079932D01*
X0145629Y0079932D02*
X0145629Y0079932D01*
X0145629Y0080930D02*
X0145629Y0080930D01*
X0137833Y0078500D02*
X0135333Y0078500D01*
X0134833Y0079000D01*
X0132680Y0081846D02*
X0131333Y0080500D01*
X0131333Y0077359D01*
X0132952Y0075740D01*
X0129290Y0076936D02*
X0126377Y0076936D01*
X0125804Y0077934D02*
X0129533Y0077934D01*
X0129533Y0078933D02*
X0122933Y0078933D01*
X0122933Y0079932D02*
X0129533Y0079932D01*
X0129277Y0080930D02*
X0122933Y0080930D01*
X0123398Y0081248D02*
X0123538Y0081108D01*
X0123722Y0081031D01*
X0125503Y0081031D01*
X0125503Y0083016D01*
X0126471Y0083016D01*
X0126471Y0083984D01*
X0128652Y0083984D01*
X0128652Y0085568D01*
X0128576Y0085752D01*
X0128435Y0085892D01*
X0128252Y0085968D01*
X0126471Y0085968D01*
X0126471Y0083984D01*
X0125503Y0083984D01*
X0125503Y0083016D01*
X0123322Y0083016D01*
X0123322Y0081432D01*
X0123398Y0081248D01*
X0123322Y0081929D02*
X0122933Y0081929D01*
X0122933Y0082927D02*
X0123322Y0082927D01*
X0123322Y0083984D02*
X0125503Y0083984D01*
X0125503Y0085968D01*
X0123722Y0085968D01*
X0123538Y0085892D01*
X0123398Y0085752D01*
X0123322Y0085568D01*
X0123322Y0083984D01*
X0122933Y0083926D02*
X0125503Y0083926D01*
X0125833Y0083654D02*
X0125987Y0083500D01*
X0126833Y0081654D01*
X0126833Y0079000D01*
X0127833Y0078000D01*
X0127833Y0074000D01*
X0128252Y0081031D02*
X0128435Y0081108D01*
X0128576Y0081248D01*
X0128652Y0081432D01*
X0128652Y0083016D01*
X0126471Y0083016D01*
X0126471Y0081031D01*
X0128252Y0081031D01*
X0128652Y0081929D02*
X0129214Y0081929D01*
X0129214Y0082927D02*
X0128652Y0082927D01*
X0129214Y0083926D02*
X0126471Y0083926D01*
X0125833Y0083654D02*
X0125833Y0087000D01*
X0125503Y0085923D02*
X0126471Y0085923D01*
X0126471Y0084924D02*
X0125503Y0084924D01*
X0123611Y0085923D02*
X0122933Y0085923D01*
X0122933Y0086921D02*
X0130183Y0086921D01*
X0130553Y0087920D02*
X0122933Y0087920D01*
X0122933Y0088918D02*
X0131746Y0088918D01*
X0133920Y0088918D02*
X0135736Y0088918D01*
X0135736Y0087920D02*
X0135114Y0087920D01*
X0135483Y0086921D02*
X0136041Y0086921D01*
X0132833Y0086500D02*
X0132680Y0086346D01*
X0132680Y0083500D01*
X0132680Y0081846D01*
X0126471Y0081929D02*
X0125503Y0081929D01*
X0125503Y0082927D02*
X0126471Y0082927D01*
X0128652Y0084924D02*
X0129214Y0084924D01*
X0129214Y0085923D02*
X0128362Y0085923D01*
X0123322Y0084924D02*
X0122933Y0084924D01*
X0113733Y0085288D02*
X0112860Y0085650D01*
X0111806Y0085650D01*
X0110832Y0085247D01*
X0110087Y0084501D01*
X0109937Y0084139D01*
X0109298Y0083500D01*
X0108336Y0083500D01*
X0107417Y0083119D01*
X0106798Y0082500D01*
X0106223Y0082500D01*
X0105860Y0082650D01*
X0104806Y0082650D01*
X0104444Y0082500D01*
X0103723Y0082500D01*
X0103360Y0082650D01*
X0102306Y0082650D01*
X0101332Y0082247D01*
X0100587Y0081501D01*
X0100183Y0080527D01*
X0100183Y0079473D01*
X0100333Y0079111D01*
X0100333Y0078418D01*
X0096051Y0078418D01*
X0095289Y0077657D01*
X0095289Y0073001D01*
X0093088Y0070800D01*
X0092377Y0070090D01*
X0092377Y0070176D01*
X0091616Y0070938D01*
X0091577Y0070938D01*
X0091577Y0071811D01*
X0089298Y0071811D01*
X0089298Y0072189D01*
X0091577Y0072189D01*
X0091577Y0073062D01*
X0091616Y0073062D01*
X0092377Y0073824D01*
X0092377Y0076463D01*
X0092633Y0076719D01*
X0092633Y0080754D01*
X0096579Y0084700D01*
X0106579Y0084700D01*
X0110252Y0088373D01*
X0110306Y0088350D01*
X0111360Y0088350D01*
X0112334Y0088753D01*
X0113080Y0089499D01*
X0113483Y0090473D01*
X0113483Y0091527D01*
X0113080Y0092501D01*
X0112334Y0093247D01*
X0111360Y0093650D01*
X0110306Y0093650D01*
X0109332Y0093247D01*
X0108587Y0092501D01*
X0108183Y0091527D01*
X0108183Y0091396D01*
X0105088Y0088300D01*
X0095088Y0088300D01*
X0090088Y0083300D01*
X0090088Y0083300D01*
X0089033Y0082246D01*
X0089033Y0078418D01*
X0086833Y0078418D01*
X0086833Y0109461D01*
X0369034Y0109461D01*
X0369034Y0087000D01*
X0361833Y0087000D01*
X0361833Y0084000D01*
X0360833Y0084000D01*
X0360833Y0083000D01*
X0352833Y0083000D01*
X0352833Y0080401D01*
X0352909Y0080217D01*
X0353050Y0080076D01*
X0353234Y0080000D01*
X0360833Y0080000D01*
X0360833Y0083000D01*
X0361833Y0083000D01*
X0361833Y0080000D01*
X0369034Y0080000D01*
X0369034Y0077800D01*
X0352795Y0077800D01*
X0352033Y0077038D01*
X0352033Y0075300D01*
X0351405Y0075300D01*
X0351405Y0077975D01*
X0350643Y0078737D01*
X0345633Y0078737D01*
X0345633Y0080243D01*
X0346143Y0080243D01*
X0346905Y0081005D01*
X0346905Y0085428D01*
X0346143Y0086190D01*
X0346105Y0086190D01*
X0346105Y0087447D01*
X0344170Y0087447D01*
X0344170Y0088120D01*
X0346105Y0088120D01*
X0346105Y0089556D01*
X0346029Y0089740D01*
X0345888Y0089881D01*
X0345704Y0089957D01*
X0344170Y0089957D01*
X0344170Y0088120D01*
X0343497Y0088120D01*
X0343497Y0089957D01*
X0341962Y0089957D01*
X0341778Y0089881D01*
X0341638Y0089740D01*
X0341562Y0089556D01*
X0341562Y0088120D01*
X0343497Y0088120D01*
X0343497Y0087447D01*
X0341562Y0087447D01*
X0341562Y0086190D01*
X0341523Y0086190D01*
X0340762Y0085428D01*
X0340762Y0081005D01*
X0341523Y0080243D01*
X0342033Y0080243D01*
X0342033Y0078737D01*
X0341523Y0078737D01*
X0340762Y0077975D01*
X0340762Y0075138D01*
X0340328Y0075572D01*
X0336452Y0075572D01*
X0336905Y0076025D01*
X0336905Y0079857D01*
X0336262Y0080500D01*
X0336905Y0081143D01*
X0336905Y0084975D01*
X0336143Y0085737D01*
X0331523Y0085737D01*
X0330762Y0084975D01*
X0330762Y0084819D01*
X0329262Y0084800D01*
X0326588Y0084800D01*
X0325790Y0084002D01*
X0325790Y0084663D01*
X0323953Y0084663D01*
X0323953Y0085337D01*
X0323280Y0085337D01*
X0323280Y0089163D01*
X0323953Y0089163D01*
X0323953Y0087228D01*
X0323953Y0085337D01*
X0325790Y0085337D01*
X0325790Y0086871D01*
X0325714Y0087055D01*
X0325573Y0087196D01*
X0325442Y0087250D01*
X0325573Y0087304D01*
X0325714Y0087445D01*
X0325790Y0087629D01*
X0325790Y0089163D01*
X0323953Y0089163D01*
X0323953Y0089837D01*
X0323280Y0089837D01*
X0323280Y0093663D01*
X0323953Y0093663D01*
X0323953Y0091728D01*
X0323953Y0089837D01*
X0325790Y0089837D01*
X0325790Y0091371D01*
X0325714Y0091555D01*
X0325573Y0091696D01*
X0325442Y0091750D01*
X0325573Y0091804D01*
X0325714Y0091945D01*
X0325790Y0092129D01*
X0325790Y0093663D01*
X0323953Y0093663D01*
X0323953Y0094337D01*
X0323280Y0094337D01*
X0323280Y0096272D01*
X0322023Y0096272D01*
X0322023Y0096310D01*
X0321262Y0097072D01*
X0321258Y0097072D01*
X0321080Y0097501D01*
X0320590Y0097991D01*
X0320590Y0102310D01*
X0319828Y0103072D01*
X0315405Y0103072D01*
X0315333Y0103000D01*
X0315262Y0103072D01*
X0310838Y0103072D01*
X0310077Y0102310D01*
X0310077Y0100257D01*
X0309643Y0100690D01*
X0309605Y0100690D01*
X0309605Y0101947D01*
X0307670Y0101947D01*
X0307670Y0102620D01*
X0309605Y0102620D01*
X0309605Y0104056D01*
X0309529Y0104240D01*
X0309388Y0104381D01*
X0309204Y0104457D01*
X0307670Y0104457D01*
X0307670Y0102620D01*
X0306997Y0102620D01*
X0306997Y0104457D01*
X0305462Y0104457D01*
X0305278Y0104381D01*
X0305138Y0104240D01*
X0305083Y0104108D01*
X0305029Y0104240D01*
X0304888Y0104381D01*
X0304704Y0104457D01*
X0303170Y0104457D01*
X0303170Y0102620D01*
X0305105Y0102620D01*
X0306997Y0102620D01*
X0306997Y0101947D01*
X0303170Y0101947D01*
X0303170Y0102620D01*
X0302497Y0102620D01*
X0302497Y0104457D01*
X0300962Y0104457D01*
X0300778Y0104381D01*
X0300638Y0104240D01*
X0300583Y0104108D01*
X0300529Y0104240D01*
X0300388Y0104381D01*
X0300204Y0104457D01*
X0298670Y0104457D01*
X0298670Y0102620D01*
X0300605Y0102620D01*
X0302497Y0102620D01*
X0302497Y0101947D01*
X0298670Y0101947D01*
X0298670Y0102620D01*
X0297997Y0102620D01*
X0297997Y0104457D01*
X0296462Y0104457D01*
X0296278Y0104381D01*
X0296138Y0104240D01*
X0296105Y0104161D01*
X0296105Y0104556D01*
X0296029Y0104740D01*
X0295888Y0104881D01*
X0295704Y0104957D01*
X0294170Y0104957D01*
X0294170Y0103120D01*
X0296062Y0103120D01*
X0296062Y0102620D01*
X0297997Y0102620D01*
X0297997Y0101947D01*
X0296105Y0101947D01*
X0296105Y0102447D01*
X0294170Y0102447D01*
X0294170Y0103120D01*
X0293497Y0103120D01*
X0293497Y0104957D01*
X0291962Y0104957D01*
X0291778Y0104881D01*
X0291638Y0104740D01*
X0291562Y0104556D01*
X0291562Y0104161D01*
X0291529Y0104240D01*
X0291388Y0104381D01*
X0291204Y0104457D01*
X0289670Y0104457D01*
X0289670Y0102620D01*
X0291605Y0102620D01*
X0291605Y0103120D01*
X0293497Y0103120D01*
X0293497Y0102447D01*
X0291562Y0102447D01*
X0291562Y0101947D01*
X0289670Y0101947D01*
X0289670Y0102620D01*
X0288997Y0102620D01*
X0288997Y0104457D01*
X0287462Y0104457D01*
X0287278Y0104381D01*
X0287138Y0104240D01*
X0287062Y0104056D01*
X0287062Y0102620D01*
X0288997Y0102620D01*
X0288997Y0101947D01*
X0287062Y0101947D01*
X0287062Y0100690D01*
X0287023Y0100690D01*
X0286262Y0099928D01*
X0286262Y0096804D01*
X0286133Y0096900D01*
X0286133Y0100246D01*
X0285133Y0101246D01*
X0284079Y0102300D01*
X0283905Y0102300D01*
X0283905Y0103995D01*
X0283143Y0104757D01*
X0279157Y0104757D01*
X0279157Y0106231D01*
X0278395Y0106993D01*
X0269838Y0106993D01*
X0269077Y0106231D01*
X0269077Y0100824D01*
X0269838Y0100062D01*
X0275037Y0100062D01*
X0275115Y0099983D01*
X0277762Y0099983D01*
X0277762Y0099572D01*
X0278523Y0098810D01*
X0278562Y0098810D01*
X0278562Y0097772D01*
X0278395Y0097938D01*
X0269838Y0097938D01*
X0269077Y0097176D01*
X0269077Y0093302D01*
X0266106Y0096272D01*
X0264590Y0096272D01*
X0264590Y0097176D01*
X0263828Y0097938D01*
X0255271Y0097938D01*
X0254850Y0097517D01*
X0253405Y0097517D01*
X0253405Y0097928D01*
X0252643Y0098690D01*
X0252605Y0098690D01*
X0252605Y0099947D01*
X0250670Y0099947D01*
X0250670Y0100620D01*
X0252605Y0100620D01*
X0252605Y0102056D01*
X0252529Y0102240D01*
X0252388Y0102381D01*
X0252204Y0102457D01*
X0250670Y0102457D01*
X0250670Y0100620D01*
X0249997Y0100620D01*
X0249997Y0102457D01*
X0248462Y0102457D01*
X0248278Y0102381D01*
X0248138Y0102240D01*
X0248062Y0102056D01*
X0248062Y0100620D01*
X0249997Y0100620D01*
X0249997Y0099947D01*
X0248062Y0099947D01*
X0248062Y0098690D01*
X0248023Y0098690D01*
X0247262Y0097928D01*
X0247262Y0093505D01*
X0248023Y0092743D01*
X0252643Y0092743D01*
X0253405Y0093505D01*
X0253405Y0093917D01*
X0254510Y0093917D01*
X0254510Y0091769D01*
X0255271Y0091007D01*
X0263828Y0091007D01*
X0264590Y0091769D01*
X0264590Y0092672D01*
X0264615Y0092672D01*
X0267033Y0090254D01*
X0268088Y0089200D01*
X0268896Y0089200D01*
X0268896Y0087689D01*
X0270585Y0087689D01*
X0270585Y0087311D01*
X0268896Y0087311D01*
X0268896Y0085629D01*
X0268972Y0085445D01*
X0269113Y0085304D01*
X0269235Y0085254D01*
X0269093Y0085196D01*
X0268953Y0085055D01*
X0268877Y0084871D01*
X0268877Y0083337D01*
X0270713Y0083337D01*
X0270713Y0085272D01*
X0270585Y0085272D01*
X0270585Y0087311D01*
X0270963Y0087311D01*
X0270963Y0085228D01*
X0271386Y0085228D01*
X0271386Y0083337D01*
X0270713Y0083337D01*
X0270713Y0082663D01*
X0271386Y0082663D01*
X0271386Y0078837D01*
X0270713Y0078837D01*
X0270713Y0080772D01*
X0270713Y0082663D01*
X0268877Y0082663D01*
X0268877Y0081129D01*
X0268953Y0080945D01*
X0269093Y0080804D01*
X0269225Y0080750D01*
X0269093Y0080696D01*
X0268953Y0080555D01*
X0268877Y0080371D01*
X0268877Y0078837D01*
X0270713Y0078837D01*
X0270713Y0078163D01*
X0271386Y0078163D01*
X0271386Y0074337D01*
X0270713Y0074337D01*
X0270713Y0076272D01*
X0270713Y0078163D01*
X0268877Y0078163D01*
X0268877Y0076629D01*
X0268953Y0076445D01*
X0269093Y0076304D01*
X0269225Y0076250D01*
X0269093Y0076196D01*
X0268953Y0076055D01*
X0268877Y0075871D01*
X0268877Y0074337D01*
X0270713Y0074337D01*
X0270713Y0073663D01*
X0271386Y0073663D01*
X0271386Y0071728D01*
X0272644Y0071728D01*
X0272644Y0071690D01*
X0273405Y0070928D01*
X0275716Y0070928D01*
X0275588Y0070800D01*
X0268405Y0070800D01*
X0268405Y0074357D01*
X0267762Y0075000D01*
X0268405Y0075643D01*
X0268405Y0079475D01*
X0267643Y0080237D01*
X0267234Y0080237D01*
X0267128Y0080456D01*
X0266814Y0080565D01*
X0266730Y0080649D01*
X0267080Y0080999D01*
X0267483Y0081973D01*
X0267483Y0083027D01*
X0267080Y0084001D01*
X0266334Y0084747D01*
X0265360Y0085150D01*
X0264306Y0085150D01*
X0263332Y0084747D01*
X0263159Y0084574D01*
X0262683Y0085050D01*
X0256606Y0085050D01*
X0256605Y0085049D01*
X0256360Y0085150D01*
X0255306Y0085150D01*
X0254332Y0084747D01*
X0253587Y0084001D01*
X0253183Y0083027D01*
X0253183Y0081973D01*
X0253587Y0080999D01*
X0254332Y0080253D01*
X0254517Y0080177D01*
X0254082Y0079997D01*
X0253337Y0079251D01*
X0253129Y0078750D01*
X0252168Y0079711D01*
X0252483Y0080473D01*
X0252483Y0081527D01*
X0252080Y0082501D01*
X0251334Y0083247D01*
X0250976Y0083395D01*
X0251580Y0083999D01*
X0251983Y0084973D01*
X0251983Y0086027D01*
X0251580Y0087001D01*
X0250834Y0087747D01*
X0249860Y0088150D01*
X0249229Y0088150D01*
X0246133Y0091246D01*
X0245079Y0092300D01*
X0229962Y0092300D01*
X0229956Y0092306D01*
X0229218Y0092300D01*
X0228480Y0092300D01*
X0228474Y0092294D01*
X0228465Y0092294D01*
X0227948Y0091768D01*
X0227425Y0091246D01*
X0227425Y0091237D01*
X0225269Y0089045D01*
X0225080Y0089501D01*
X0224334Y0090247D01*
X0223563Y0090566D01*
X0223133Y0091425D01*
X0223133Y0091746D01*
X0222813Y0092066D01*
X0222610Y0092472D01*
X0222306Y0092573D01*
X0221579Y0093300D01*
X0216344Y0093300D01*
X0215290Y0092246D01*
X0213525Y0090481D01*
X0213453Y0090481D01*
X0213426Y0090454D01*
X0213343Y0090537D01*
X0210901Y0088095D01*
X0208460Y0085654D01*
X0208543Y0085571D01*
X0208515Y0085544D01*
X0208515Y0084467D01*
X0209907Y0083075D01*
X0209907Y0083075D01*
X0211448Y0081534D01*
X0212840Y0080142D01*
X0214232Y0078750D01*
X0214973Y0078009D01*
X0213614Y0076650D01*
X0212806Y0076650D01*
X0211832Y0076247D01*
X0211087Y0075501D01*
X0210683Y0074527D01*
X0210683Y0073473D01*
X0211087Y0072499D01*
X0211832Y0071753D01*
X0212806Y0071350D01*
X0213860Y0071350D01*
X0214834Y0071753D01*
X0215580Y0072499D01*
X0215983Y0073473D01*
X0215983Y0073929D01*
X0217518Y0075464D01*
X0217757Y0075225D01*
X0216533Y0074002D01*
X0216533Y0070254D01*
X0217588Y0069200D01*
X0218588Y0068200D01*
X0221182Y0068200D01*
X0221043Y0068061D01*
X0219651Y0066669D01*
X0218408Y0065426D01*
X0216867Y0063885D01*
X0215475Y0062493D01*
X0214083Y0061101D01*
X0214083Y0060024D01*
X0214110Y0059997D01*
X0214027Y0059914D01*
X0213944Y0059831D01*
X0213917Y0059858D01*
X0212840Y0059858D01*
X0211299Y0058317D01*
X0209907Y0056925D01*
X0208515Y0055533D01*
X0208150Y0055168D01*
X0208483Y0055973D01*
X0208483Y0057027D01*
X0208080Y0058001D01*
X0207334Y0058747D01*
X0206360Y0059150D01*
X0205306Y0059150D01*
X0204332Y0058747D01*
X0203587Y0058001D01*
X0203183Y0057027D01*
X0203183Y0055973D01*
X0203444Y0055344D01*
X0202892Y0054793D01*
X0202002Y0055682D01*
X0200759Y0056925D01*
X0200759Y0056925D01*
X0199870Y0057815D01*
X0200638Y0058583D01*
X0200721Y0058590D01*
X0200943Y0058850D01*
X0201360Y0058850D01*
X0202334Y0059253D01*
X0203080Y0059999D01*
X0203483Y0060973D01*
X0203483Y0062027D01*
X0203080Y0063001D01*
X0202334Y0063747D01*
X0201360Y0064150D01*
X0200306Y0064150D01*
X0199332Y0063747D01*
X0199228Y0063643D01*
X0199080Y0064001D01*
X0198334Y0064747D01*
X0197360Y0065150D01*
X0196306Y0065150D01*
X0195332Y0064747D01*
X0194587Y0064001D01*
X0194183Y0063027D01*
X0194183Y0062642D01*
X0193966Y0062642D01*
X0193938Y0062615D01*
X0193855Y0062698D01*
X0193772Y0062781D01*
X0193800Y0062808D01*
X0193800Y0063885D01*
X0192259Y0065426D01*
X0192259Y0065426D01*
X0190867Y0066818D01*
X0189475Y0068210D01*
X0188083Y0069602D01*
X0187006Y0069602D01*
X0185392Y0067988D01*
X0185392Y0071104D01*
X0184751Y0072653D01*
X0187006Y0070398D01*
X0188083Y0070398D01*
X0189624Y0071939D01*
X0190364Y0072680D01*
X0193183Y0069861D01*
X0193183Y0069473D01*
X0193587Y0068499D01*
X0194332Y0067753D01*
X0195306Y0067350D01*
X0196360Y0067350D01*
X0197334Y0067753D01*
X0198080Y0068499D01*
X0198483Y0069473D01*
X0198483Y0070527D01*
X0198080Y0071501D01*
X0197830Y0071751D01*
X0197834Y0071753D01*
X0198580Y0072499D01*
X0198983Y0073473D01*
X0198983Y0074527D01*
X0198580Y0075501D01*
X0197834Y0076247D01*
X0196860Y0076650D01*
X0195806Y0076650D01*
X0194832Y0076247D01*
X0194752Y0076167D01*
X0194302Y0076617D01*
X0195192Y0077507D01*
X0196583Y0078899D01*
X0196583Y0079976D01*
X0196556Y0080003D01*
X0196639Y0080086D01*
X0194198Y0082527D01*
X0194198Y0082527D01*
X0196639Y0080086D01*
X0196722Y0080169D01*
X0196749Y0080142D01*
X0197826Y0080142D01*
X0199367Y0081683D01*
X0200108Y0082423D01*
X0205831Y0076700D01*
X0207386Y0076700D01*
X0207832Y0076253D01*
X0208806Y0075850D01*
X0209860Y0075850D01*
X0210834Y0076253D01*
X0211580Y0076999D01*
X0211983Y0077973D01*
X0211983Y0079027D01*
X0211580Y0080001D01*
X0210834Y0080747D01*
X0209860Y0081150D01*
X0208806Y0081150D01*
X0207832Y0080747D01*
X0207386Y0080300D01*
X0207323Y0080300D01*
X0202654Y0084969D01*
X0203543Y0085859D01*
X0204935Y0087251D01*
X0204935Y0088327D01*
X0203604Y0089658D01*
X0203834Y0089753D01*
X0204580Y0090499D01*
X0204983Y0091473D01*
X0204983Y0092527D01*
X0204580Y0093501D01*
X0203834Y0094247D01*
X0202860Y0094650D01*
X0201806Y0094650D01*
X0201333Y0094454D01*
X0209562Y0102683D01*
X0209562Y0101748D01*
X0211644Y0101748D01*
X0211644Y0101370D01*
X0209562Y0101370D01*
X0209562Y0100082D01*
X0209638Y0099898D01*
X0209778Y0099757D01*
X0209962Y0099681D01*
X0211644Y0099681D01*
X0211644Y0101370D01*
X0212022Y0101370D01*
X0212022Y0099681D01*
X0213704Y0099681D01*
X0213762Y0099705D01*
X0213762Y0099643D01*
X0214404Y0099000D01*
X0214333Y0098929D01*
X0214143Y0099119D01*
X0209523Y0099119D01*
X0208762Y0098357D01*
X0208762Y0095915D01*
X0207709Y0094862D01*
X0207709Y0090305D01*
X0205731Y0088327D01*
X0205731Y0087251D01*
X0207273Y0085710D01*
X0208349Y0085710D01*
X0208377Y0085737D01*
X0208460Y0085654D01*
X0210901Y0088095D01*
X0210901Y0088095D01*
X0210901Y0088068D01*
X0207333Y0084500D01*
X0212333Y0079500D01*
X0212833Y0077500D01*
X0208833Y0073500D01*
X0206833Y0073500D01*
X0206333Y0073000D01*
X0206492Y0071573D01*
X0206565Y0071500D01*
X0206833Y0071500D01*
X0203833Y0071500D01*
X0206492Y0071573D02*
X0206833Y0068500D01*
X0206833Y0067108D01*
X0216469Y0057473D01*
X0216469Y0057473D01*
X0214027Y0059914D01*
X0216469Y0057473D01*
X0216469Y0057472D02*
X0218910Y0055031D01*
X0216469Y0057472D01*
X0216469Y0057472D01*
X0215977Y0057964D02*
X0215977Y0057964D01*
X0216976Y0056966D02*
X0216976Y0056966D01*
X0217974Y0055967D02*
X0217974Y0055967D01*
X0218910Y0055031D02*
X0218827Y0054948D01*
X0218855Y0054921D01*
X0218855Y0054848D01*
X0219079Y0054624D01*
X0220133Y0053570D01*
X0220133Y0048754D01*
X0217483Y0046104D01*
X0217483Y0045973D01*
X0217461Y0045918D01*
X0217633Y0045746D01*
X0217633Y0045572D01*
X0218828Y0045572D01*
X0219590Y0044810D01*
X0219590Y0044300D01*
X0221096Y0044300D01*
X0221096Y0044810D01*
X0221858Y0045572D01*
X0225216Y0045572D01*
X0222588Y0048200D01*
X0221533Y0049254D01*
X0221533Y0056523D01*
X0221489Y0056479D01*
X0220097Y0055087D01*
X0219020Y0055087D01*
X0218993Y0055114D01*
X0218910Y0055031D01*
X0218848Y0054969D02*
X0221533Y0054969D01*
X0221533Y0055967D02*
X0220978Y0055967D01*
X0221533Y0053970D02*
X0219733Y0053970D01*
X0220133Y0052972D02*
X0221533Y0052972D01*
X0221533Y0051973D02*
X0220133Y0051973D01*
X0220133Y0050975D02*
X0221533Y0050975D01*
X0221533Y0049976D02*
X0220133Y0049976D01*
X0220133Y0048978D02*
X0221810Y0048978D01*
X0222809Y0047979D02*
X0219358Y0047979D01*
X0218360Y0046981D02*
X0223807Y0046981D01*
X0224806Y0045982D02*
X0217483Y0045982D01*
X0215833Y0045000D02*
X0215833Y0043283D01*
X0216617Y0042500D01*
X0223774Y0042500D01*
X0221270Y0044984D02*
X0219417Y0044984D01*
X0215833Y0045000D02*
X0214833Y0046000D01*
X0214833Y0046500D01*
X0215333Y0046500D01*
X0218333Y0049500D01*
X0218333Y0052824D01*
X0215077Y0056081D01*
X0210946Y0057964D02*
X0208095Y0057964D01*
X0208483Y0056966D02*
X0209948Y0056966D01*
X0209907Y0056925D02*
X0209907Y0056925D01*
X0208949Y0055967D02*
X0208481Y0055967D01*
X0205833Y0056500D02*
X0205833Y0055189D01*
X0201157Y0050513D01*
X0202240Y0048978D02*
X0208426Y0048978D01*
X0207428Y0049976D02*
X0203239Y0049976D01*
X0204237Y0050975D02*
X0206429Y0050975D01*
X0205731Y0051973D02*
X0205163Y0051973D01*
X0199766Y0051905D02*
X0196361Y0048500D01*
X0191333Y0048500D01*
X0192179Y0045982D02*
X0212183Y0045982D01*
X0212183Y0046981D02*
X0211991Y0046981D01*
X0210423Y0046981D02*
X0200243Y0046981D01*
X0201242Y0047979D02*
X0209425Y0047979D01*
X0206833Y0042500D02*
X0202333Y0047000D01*
X0202333Y0044000D01*
X0200524Y0042190D01*
X0184024Y0042190D01*
X0183024Y0042190D01*
X0170024Y0055190D01*
X0163333Y0048500D01*
X0160833Y0048500D01*
X0159090Y0048978D02*
X0169183Y0048978D01*
X0169369Y0049976D02*
X0159090Y0049976D01*
X0158875Y0050975D02*
X0170060Y0050975D01*
X0169587Y0052972D02*
X0162553Y0052972D01*
X0162982Y0053970D02*
X0169071Y0053970D01*
X0169535Y0054969D02*
X0169978Y0054969D01*
X0170069Y0054969D02*
X0170513Y0054969D01*
X0170533Y0055967D02*
X0171068Y0055967D01*
X0171903Y0055967D02*
X0172698Y0055967D01*
X0171699Y0056966D02*
X0170904Y0056966D01*
X0170701Y0057964D02*
X0160590Y0057964D01*
X0161305Y0056966D02*
X0168587Y0056966D01*
X0168980Y0055967D02*
X0169514Y0055967D01*
X0167588Y0055967D02*
X0162594Y0055967D01*
X0162983Y0054969D02*
X0167590Y0054969D01*
X0170977Y0053970D02*
X0171511Y0053970D01*
X0172016Y0053970D02*
X0172514Y0053970D01*
X0173512Y0052972D02*
X0171018Y0052972D01*
X0173606Y0050975D02*
X0175509Y0050975D01*
X0174511Y0051973D02*
X0161158Y0051973D01*
X0159509Y0051973D02*
X0159090Y0051973D01*
X0160333Y0054500D02*
X0156617Y0054500D01*
X0156117Y0053500D01*
X0156117Y0048000D01*
X0159090Y0047979D02*
X0168267Y0047979D01*
X0167268Y0046981D02*
X0159090Y0046981D01*
X0159090Y0045982D02*
X0166270Y0045982D01*
X0165271Y0044984D02*
X0158384Y0044984D01*
X0153850Y0044984D02*
X0146133Y0044984D01*
X0146133Y0045982D02*
X0149437Y0045982D01*
X0149333Y0045783D02*
X0149833Y0045000D01*
X0149333Y0045783D02*
X0151550Y0048000D01*
X0151213Y0047979D02*
X0146133Y0047979D01*
X0146133Y0046981D02*
X0149377Y0046981D01*
X0151213Y0046981D02*
X0151886Y0046981D01*
X0151886Y0045982D02*
X0151213Y0045982D01*
X0151213Y0048978D02*
X0151886Y0048978D01*
X0151886Y0049976D02*
X0151213Y0049976D01*
X0149420Y0049976D02*
X0146133Y0049976D01*
X0146133Y0048978D02*
X0149377Y0048978D01*
X0148792Y0050975D02*
X0146439Y0050975D01*
X0147643Y0051973D02*
X0148577Y0051973D01*
X0150302Y0054748D02*
X0145833Y0054748D01*
X0143235Y0054748D01*
X0143235Y0049902D01*
X0141833Y0048500D01*
X0137533Y0048978D02*
X0136433Y0048978D01*
X0136433Y0047979D02*
X0137533Y0047979D01*
X0137533Y0046981D02*
X0136183Y0046981D01*
X0136133Y0045982D02*
X0137533Y0045982D01*
X0137533Y0044984D02*
X0136133Y0044984D01*
X0132954Y0043985D02*
X0164273Y0043985D01*
X0168366Y0042987D02*
X0181607Y0042987D01*
X0181570Y0041988D02*
X0167367Y0041988D01*
X0166368Y0040990D02*
X0183090Y0040990D01*
X0183554Y0041988D02*
X0183959Y0041988D01*
X0184089Y0041988D02*
X0184493Y0041988D01*
X0184553Y0042987D02*
X0185087Y0042987D01*
X0185883Y0042987D02*
X0186679Y0042987D01*
X0186751Y0041988D02*
X0209877Y0041988D01*
X0209877Y0040990D02*
X0186035Y0040990D01*
X0185492Y0040990D02*
X0184957Y0040990D01*
X0185037Y0039991D02*
X0213842Y0039991D01*
X0213833Y0038500D02*
X0212333Y0040000D01*
X0212333Y0042217D01*
X0212050Y0042500D01*
X0206833Y0042500D01*
X0209877Y0042987D02*
X0189164Y0042987D01*
X0190162Y0043985D02*
X0209877Y0043985D01*
X0211713Y0043985D02*
X0212386Y0043985D01*
X0212386Y0042987D02*
X0211713Y0042987D01*
X0211713Y0041988D02*
X0212386Y0041988D01*
X0212386Y0040990D02*
X0211713Y0040990D01*
X0213833Y0038500D02*
X0219333Y0038500D01*
X0219391Y0039991D02*
X0221295Y0039991D01*
X0226253Y0039991D02*
X0226413Y0039991D01*
X0227533Y0038993D02*
X0127574Y0038993D01*
X0127983Y0039991D02*
X0183567Y0039991D01*
X0183495Y0042987D02*
X0182960Y0042987D01*
X0182499Y0043985D02*
X0169364Y0043985D01*
X0170363Y0044984D02*
X0181500Y0044984D01*
X0180502Y0045982D02*
X0171361Y0045982D01*
X0173562Y0046981D02*
X0179503Y0046981D01*
X0179116Y0047979D02*
X0174279Y0047979D01*
X0174483Y0048978D02*
X0179648Y0048978D01*
X0180647Y0049976D02*
X0174297Y0049976D01*
X0171833Y0049000D02*
X0164833Y0042000D01*
X0129833Y0042000D01*
X0128298Y0040990D02*
X0127983Y0040990D01*
X0125333Y0040500D02*
X0119892Y0040500D01*
X0119392Y0041000D01*
X0116714Y0041988D02*
X0116152Y0041988D01*
X0116104Y0042987D02*
X0116714Y0042987D01*
X0116714Y0043985D02*
X0116152Y0043985D01*
X0116152Y0044984D02*
X0116714Y0044984D01*
X0116714Y0045982D02*
X0116152Y0045982D01*
X0116243Y0046981D02*
X0116714Y0046981D01*
X0114274Y0045500D02*
X0114274Y0041000D01*
X0114085Y0040990D02*
X0103580Y0040990D01*
X0103993Y0041988D02*
X0112396Y0041988D01*
X0112444Y0042987D02*
X0104333Y0042987D01*
X0104333Y0043985D02*
X0112396Y0043985D01*
X0112396Y0044984D02*
X0104333Y0044984D01*
X0104333Y0045982D02*
X0112396Y0045982D01*
X0112306Y0046981D02*
X0104006Y0046981D01*
X0103593Y0047979D02*
X0111596Y0047979D01*
X0111596Y0048978D02*
X0103179Y0048978D01*
X0102378Y0049976D02*
X0111596Y0049976D01*
X0111313Y0050975D02*
X0101379Y0050975D01*
X0100003Y0051973D02*
X0110315Y0051973D01*
X0109316Y0052972D02*
X0097592Y0052972D01*
X0112621Y0060960D02*
X0112658Y0060960D01*
X0116585Y0061598D02*
X0116585Y0063500D01*
X0116585Y0061598D02*
X0125487Y0060500D01*
X0128952Y0060960D02*
X0131695Y0060960D01*
X0131695Y0060984D02*
X0131695Y0060016D01*
X0129514Y0060016D01*
X0129514Y0058432D01*
X0129591Y0058248D01*
X0129731Y0058108D01*
X0129915Y0058031D01*
X0131696Y0058031D01*
X0131696Y0060016D01*
X0132664Y0060016D01*
X0132664Y0060984D01*
X0134845Y0060984D01*
X0134845Y0062568D01*
X0134769Y0062752D01*
X0134628Y0062892D01*
X0134445Y0062968D01*
X0132664Y0062968D01*
X0132664Y0060984D01*
X0131696Y0060984D01*
X0131696Y0062968D01*
X0129915Y0062968D01*
X0129731Y0062892D01*
X0129591Y0062752D01*
X0129514Y0062568D01*
X0129514Y0060984D01*
X0131695Y0060984D01*
X0132664Y0060960D02*
X0136226Y0060960D01*
X0136226Y0061958D02*
X0134845Y0061958D01*
X0134473Y0062957D02*
X0136593Y0062957D01*
X0132664Y0062957D02*
X0131696Y0062957D01*
X0131696Y0061958D02*
X0132664Y0061958D01*
X0132664Y0060016D02*
X0134845Y0060016D01*
X0134845Y0058432D01*
X0134769Y0058248D01*
X0134628Y0058108D01*
X0134445Y0058031D01*
X0132664Y0058031D01*
X0132664Y0060016D01*
X0132664Y0059961D02*
X0131696Y0059961D01*
X0131696Y0058963D02*
X0132664Y0058963D01*
X0134845Y0058963D02*
X0136226Y0058963D01*
X0136226Y0059961D02*
X0134845Y0059961D01*
X0129514Y0059961D02*
X0128952Y0059961D01*
X0128952Y0058963D02*
X0129514Y0058963D01*
X0128923Y0057964D02*
X0136226Y0057964D01*
X0135941Y0056966D02*
X0129625Y0056966D01*
X0130623Y0055967D02*
X0135941Y0055967D01*
X0135941Y0054969D02*
X0131622Y0054969D01*
X0132620Y0053970D02*
X0135941Y0053970D01*
X0135941Y0052972D02*
X0133619Y0052972D01*
X0136133Y0051973D02*
X0136228Y0051973D01*
X0136133Y0050975D02*
X0137084Y0050975D01*
X0137533Y0049976D02*
X0136201Y0049976D01*
X0138038Y0054748D02*
X0140636Y0054748D01*
X0143235Y0054748D01*
X0150302Y0054748D02*
X0151550Y0053500D01*
X0151277Y0056728D02*
X0152713Y0056728D01*
X0152713Y0058663D01*
X0153386Y0058663D01*
X0153386Y0056728D01*
X0154644Y0056728D01*
X0154644Y0056690D01*
X0154762Y0056572D01*
X0153905Y0056572D01*
X0153833Y0056500D01*
X0153762Y0056572D01*
X0149338Y0056572D01*
X0149315Y0056548D01*
X0147931Y0056548D01*
X0147931Y0057235D01*
X0147625Y0057540D01*
X0147625Y0062590D01*
X0146964Y0063251D01*
X0147169Y0063251D01*
X0147931Y0064013D01*
X0147931Y0064700D01*
X0149072Y0064700D01*
X0150077Y0064126D01*
X0150077Y0062190D01*
X0150838Y0061428D01*
X0154762Y0061428D01*
X0154644Y0061310D01*
X0154644Y0061272D01*
X0153386Y0061272D01*
X0153386Y0059337D01*
X0152713Y0059337D01*
X0152713Y0061272D01*
X0151277Y0061272D01*
X0151093Y0061196D01*
X0150953Y0061055D01*
X0150877Y0060871D01*
X0150877Y0059337D01*
X0152713Y0059337D01*
X0152713Y0058663D01*
X0150877Y0058663D01*
X0150877Y0057129D01*
X0150953Y0056945D01*
X0151093Y0056804D01*
X0151277Y0056728D01*
X0150944Y0056966D02*
X0147931Y0056966D01*
X0147625Y0057964D02*
X0150877Y0057964D01*
X0150833Y0059000D02*
X0153050Y0059000D01*
X0152713Y0058963D02*
X0147625Y0058963D01*
X0147625Y0059961D02*
X0150877Y0059961D01*
X0150913Y0060960D02*
X0147625Y0060960D01*
X0147625Y0061958D02*
X0150308Y0061958D01*
X0150077Y0062957D02*
X0147258Y0062957D01*
X0147873Y0063955D02*
X0150077Y0063955D01*
X0152713Y0060960D02*
X0153386Y0060960D01*
X0153386Y0059961D02*
X0152713Y0059961D01*
X0152713Y0057964D02*
X0153386Y0057964D01*
X0153386Y0056966D02*
X0152713Y0056966D01*
X0173643Y0058810D02*
X0176473Y0055980D01*
X0177353Y0055980D01*
X0177353Y0057332D01*
X0185846Y0065824D01*
X0187238Y0064432D02*
X0183333Y0060527D01*
X0183333Y0051500D01*
X0184313Y0050520D01*
X0184313Y0049020D01*
X0187524Y0045810D01*
X0187643Y0045810D01*
X0185680Y0043985D02*
X0184885Y0043985D01*
X0191161Y0044984D02*
X0212602Y0044984D01*
X0223333Y0050000D02*
X0223333Y0058960D01*
X0220645Y0061648D01*
X0222037Y0063040D02*
X0225333Y0059744D01*
X0225333Y0051500D01*
X0231833Y0045000D01*
X0231833Y0041000D01*
X0232833Y0040000D01*
X0249833Y0040000D01*
X0250833Y0041000D01*
X0250833Y0045776D01*
X0249058Y0045776D01*
X0248333Y0046500D01*
X0246703Y0046500D01*
X0245164Y0048039D01*
X0241364Y0047979D02*
X0236628Y0047979D01*
X0236628Y0047914D02*
X0236628Y0048164D01*
X0239503Y0048164D01*
X0239503Y0049389D01*
X0239426Y0049573D01*
X0239286Y0049713D01*
X0239102Y0049789D01*
X0236628Y0049789D01*
X0236628Y0048164D01*
X0236378Y0048164D01*
X0236378Y0047914D01*
X0236628Y0047914D01*
X0239503Y0047914D01*
X0239503Y0046690D01*
X0239426Y0046506D01*
X0239286Y0046365D01*
X0239102Y0046289D01*
X0236628Y0046289D01*
X0236628Y0047914D01*
X0236503Y0048039D02*
X0236833Y0048370D01*
X0238333Y0049870D01*
X0238333Y0051000D01*
X0238333Y0051500D02*
X0236924Y0051500D01*
X0236483Y0051941D01*
X0236424Y0052000D01*
X0232333Y0052000D01*
X0230833Y0050500D01*
X0230833Y0049000D01*
X0230401Y0048978D02*
X0233503Y0048978D01*
X0233503Y0049389D02*
X0233503Y0048164D01*
X0236378Y0048164D01*
X0236378Y0049789D01*
X0233903Y0049789D01*
X0233719Y0049713D01*
X0233579Y0049573D01*
X0233503Y0049389D01*
X0233704Y0050563D02*
X0232022Y0050563D01*
X0232022Y0052252D01*
X0231644Y0052252D01*
X0229562Y0052252D01*
X0229562Y0050964D01*
X0229638Y0050780D01*
X0229778Y0050639D01*
X0229962Y0050563D01*
X0231644Y0050563D01*
X0231644Y0052252D01*
X0231644Y0052630D01*
X0229562Y0052630D01*
X0229562Y0053918D01*
X0229638Y0054102D01*
X0229778Y0054243D01*
X0229962Y0054319D01*
X0231644Y0054319D01*
X0231644Y0052630D01*
X0232022Y0052630D01*
X0232022Y0054319D01*
X0233506Y0054319D01*
X0233579Y0054494D01*
X0233719Y0054634D01*
X0233903Y0054711D01*
X0236378Y0054711D01*
X0236378Y0053086D01*
X0236628Y0053086D01*
X0239503Y0053086D01*
X0239503Y0053260D01*
X0239630Y0053158D01*
X0240088Y0052700D01*
X0240200Y0052700D01*
X0241364Y0051765D01*
X0241364Y0051172D01*
X0242036Y0050500D01*
X0241364Y0049828D01*
X0241364Y0046251D01*
X0241965Y0045650D01*
X0241306Y0045650D01*
X0240332Y0045247D01*
X0240147Y0045062D01*
X0239541Y0045668D01*
X0233633Y0045668D01*
X0233633Y0045746D01*
X0232579Y0046800D01*
X0227133Y0052246D01*
X0227133Y0060200D01*
X0229486Y0060200D01*
X0228762Y0059475D01*
X0228762Y0055643D01*
X0229523Y0054881D01*
X0234143Y0054881D01*
X0234525Y0055263D01*
X0234529Y0055259D01*
X0235142Y0055259D01*
X0235749Y0055169D01*
X0235751Y0055171D01*
X0235753Y0055171D01*
X0235872Y0055259D01*
X0236149Y0055259D01*
X0236330Y0055142D01*
X0236871Y0055259D01*
X0237425Y0055259D01*
X0237498Y0055332D01*
X0239033Y0055332D01*
X0239033Y0055133D01*
X0238963Y0055046D01*
X0239000Y0054711D01*
X0236628Y0054711D01*
X0236628Y0053086D01*
X0236628Y0052836D01*
X0239503Y0052836D01*
X0239503Y0051611D01*
X0239426Y0051427D01*
X0239286Y0051287D01*
X0239102Y0051211D01*
X0236628Y0051211D01*
X0236628Y0052836D01*
X0236378Y0052836D01*
X0236378Y0051211D01*
X0234105Y0051211D01*
X0234105Y0050964D01*
X0234029Y0050780D01*
X0233888Y0050639D01*
X0233704Y0050563D01*
X0234105Y0050975D02*
X0241561Y0050975D01*
X0241512Y0049976D02*
X0229403Y0049976D01*
X0229562Y0050975D02*
X0228404Y0050975D01*
X0227406Y0051973D02*
X0229562Y0051973D01*
X0229562Y0052972D02*
X0227133Y0052972D01*
X0227133Y0053970D02*
X0229583Y0053970D01*
X0229436Y0054969D02*
X0227133Y0054969D01*
X0227133Y0055967D02*
X0228762Y0055967D01*
X0228762Y0056966D02*
X0227133Y0056966D01*
X0227133Y0057964D02*
X0228762Y0057964D01*
X0228762Y0058963D02*
X0227133Y0058963D01*
X0227133Y0059961D02*
X0229248Y0059961D01*
X0225861Y0062000D02*
X0238333Y0062000D01*
X0240833Y0059500D01*
X0240833Y0054500D01*
X0243373Y0052461D01*
X0245164Y0052961D01*
X0249373Y0052961D01*
X0249833Y0052000D01*
X0241105Y0051973D02*
X0239503Y0051973D01*
X0239816Y0052972D02*
X0236628Y0052972D01*
X0236503Y0052961D02*
X0236483Y0051941D01*
X0231833Y0052441D01*
X0231644Y0051973D02*
X0232022Y0051973D01*
X0232022Y0050975D02*
X0231644Y0050975D01*
X0231644Y0052972D02*
X0232022Y0052972D01*
X0232022Y0053970D02*
X0231644Y0053970D01*
X0234231Y0054969D02*
X0238971Y0054969D01*
X0236628Y0053970D02*
X0236378Y0053970D01*
X0236503Y0052961D02*
X0236503Y0048039D01*
X0236378Y0047979D02*
X0231400Y0047979D01*
X0232398Y0046981D02*
X0233503Y0046981D01*
X0233503Y0046690D02*
X0233579Y0046506D01*
X0233719Y0046365D01*
X0233903Y0046289D01*
X0236378Y0046289D01*
X0236378Y0047914D01*
X0233503Y0047914D01*
X0233503Y0046690D01*
X0233397Y0045982D02*
X0241633Y0045982D01*
X0241364Y0046981D02*
X0239503Y0046981D01*
X0236628Y0046981D02*
X0236378Y0046981D01*
X0236833Y0048370D02*
X0236833Y0051500D01*
X0236628Y0051973D02*
X0236378Y0051973D01*
X0236378Y0048978D02*
X0236628Y0048978D01*
X0239503Y0048978D02*
X0241364Y0048978D01*
X0250833Y0045776D02*
X0255503Y0045776D01*
X0259165Y0045894D02*
X0259165Y0047298D01*
X0259113Y0047350D01*
X0259165Y0047402D01*
X0259165Y0050448D01*
X0259113Y0050500D01*
X0259165Y0050552D01*
X0259165Y0053598D01*
X0259113Y0053650D01*
X0259165Y0053702D01*
X0259165Y0055106D01*
X0261302Y0055106D01*
X0261302Y0054141D01*
X0261378Y0053957D01*
X0261519Y0053816D01*
X0261702Y0053740D01*
X0264164Y0053740D01*
X0264164Y0055224D01*
X0264164Y0055224D01*
X0264164Y0053740D01*
X0266626Y0053740D01*
X0266809Y0053816D01*
X0266950Y0053957D01*
X0267026Y0054141D01*
X0267026Y0055224D01*
X0264164Y0055224D01*
X0264164Y0055224D01*
X0264164Y0052075D01*
X0264164Y0053559D01*
X0261702Y0053559D01*
X0261519Y0053483D01*
X0261378Y0053342D01*
X0261302Y0053159D01*
X0261302Y0052075D01*
X0264164Y0052075D01*
X0264164Y0052075D01*
X0264164Y0053559D01*
X0266626Y0053559D01*
X0266809Y0053483D01*
X0266950Y0053342D01*
X0267026Y0053159D01*
X0267026Y0052075D01*
X0264164Y0052075D01*
X0264164Y0052075D01*
X0264239Y0052000D01*
X0267333Y0052000D01*
X0269333Y0050000D01*
X0269333Y0046500D01*
X0268609Y0045776D01*
X0264164Y0045776D01*
X0267026Y0045776D01*
X0267026Y0046641D01*
X0267065Y0046641D01*
X0267826Y0047402D01*
X0267826Y0050448D01*
X0267065Y0051209D01*
X0267026Y0051209D01*
X0267026Y0052075D01*
X0264164Y0052075D01*
X0264164Y0052075D01*
X0261302Y0052075D01*
X0261302Y0051209D01*
X0261263Y0051209D01*
X0260502Y0050448D01*
X0260502Y0047402D01*
X0261263Y0046641D01*
X0261302Y0046641D01*
X0261302Y0045894D01*
X0259165Y0045894D01*
X0259165Y0045982D02*
X0261302Y0045982D01*
X0260924Y0046981D02*
X0259165Y0046981D01*
X0259165Y0047979D02*
X0260502Y0047979D01*
X0260502Y0048978D02*
X0259165Y0048978D01*
X0259165Y0049976D02*
X0260502Y0049976D01*
X0261029Y0050975D02*
X0259165Y0050975D01*
X0259165Y0051973D02*
X0261302Y0051973D01*
X0261302Y0052972D02*
X0259165Y0052972D01*
X0259165Y0053970D02*
X0261372Y0053970D01*
X0261302Y0054969D02*
X0259165Y0054969D01*
X0264164Y0054969D02*
X0264164Y0054969D01*
X0264164Y0055224D02*
X0264448Y0054941D01*
X0271333Y0054941D01*
X0270333Y0053941D01*
X0270333Y0052000D01*
X0271144Y0053063D02*
X0269462Y0053063D01*
X0269278Y0053139D01*
X0269138Y0053280D01*
X0269062Y0053464D01*
X0269062Y0054752D01*
X0271144Y0054752D01*
X0271144Y0055130D01*
X0269062Y0055130D01*
X0269062Y0056418D01*
X0269138Y0056602D01*
X0269278Y0056743D01*
X0269462Y0056819D01*
X0271144Y0056819D01*
X0271144Y0055130D01*
X0271522Y0055130D01*
X0271522Y0056819D01*
X0273204Y0056819D01*
X0273388Y0056743D01*
X0273529Y0056602D01*
X0273605Y0056418D01*
X0273605Y0055130D01*
X0271522Y0055130D01*
X0271522Y0054752D01*
X0271522Y0053063D01*
X0273204Y0053063D01*
X0273388Y0053139D01*
X0273529Y0053280D01*
X0273605Y0053464D01*
X0273605Y0054752D01*
X0271522Y0054752D01*
X0271144Y0054752D01*
X0271144Y0053063D01*
X0271144Y0053970D02*
X0271522Y0053970D01*
X0271333Y0054941D02*
X0276333Y0054941D01*
X0276392Y0055000D01*
X0279333Y0055000D01*
X0280774Y0056441D01*
X0286833Y0056441D01*
X0287109Y0056717D01*
X0291833Y0056717D01*
X0296333Y0056717D01*
X0296609Y0056441D01*
X0300833Y0056441D01*
X0301109Y0056717D01*
X0305333Y0056717D01*
X0304997Y0056966D02*
X0303105Y0056966D01*
X0303105Y0057053D02*
X0304997Y0057053D01*
X0304997Y0056380D01*
X0305670Y0056380D01*
X0305670Y0057053D01*
X0307605Y0057053D01*
X0307605Y0058310D01*
X0307643Y0058310D01*
X0308405Y0059072D01*
X0308405Y0062700D01*
X0312424Y0062700D01*
X0312533Y0062431D01*
X0312533Y0061237D01*
X0312023Y0061237D01*
X0311262Y0060475D01*
X0311262Y0056643D01*
X0311904Y0056000D01*
X0311262Y0055357D01*
X0311262Y0051525D01*
X0312023Y0050763D01*
X0314466Y0050763D01*
X0314529Y0050700D01*
X0317596Y0050700D01*
X0317596Y0050190D01*
X0318358Y0049428D01*
X0322191Y0049428D01*
X0322833Y0050071D01*
X0323476Y0049428D01*
X0327309Y0049428D01*
X0328070Y0050190D01*
X0328070Y0050700D01*
X0330577Y0050700D01*
X0330577Y0050190D01*
X0330821Y0049945D01*
X0330163Y0049672D01*
X0329157Y0048667D01*
X0328613Y0047353D01*
X0328613Y0045931D01*
X0329157Y0044617D01*
X0330163Y0043611D01*
X0331477Y0043067D01*
X0332899Y0043067D01*
X0334213Y0043611D01*
X0335218Y0044617D01*
X0335762Y0045931D01*
X0335762Y0047353D01*
X0335218Y0048667D01*
X0334457Y0049428D01*
X0335762Y0049428D01*
X0336523Y0050190D01*
X0336523Y0050228D01*
X0337780Y0050228D01*
X0337780Y0052163D01*
X0338453Y0052163D01*
X0338453Y0050228D01*
X0339889Y0050228D01*
X0340073Y0050304D01*
X0340214Y0050445D01*
X0340290Y0050629D01*
X0340290Y0052163D01*
X0338453Y0052163D01*
X0338453Y0052837D01*
X0337780Y0052837D01*
X0337780Y0056663D01*
X0338453Y0056663D01*
X0338453Y0054728D01*
X0338453Y0052837D01*
X0340290Y0052837D01*
X0340290Y0054371D01*
X0340214Y0054555D01*
X0340073Y0054696D01*
X0339942Y0054750D01*
X0340073Y0054804D01*
X0340214Y0054945D01*
X0340290Y0055129D01*
X0340290Y0056663D01*
X0338453Y0056663D01*
X0338453Y0057337D01*
X0340290Y0057337D01*
X0340290Y0058871D01*
X0340214Y0059055D01*
X0340073Y0059196D01*
X0339889Y0059272D01*
X0338590Y0059272D01*
X0338590Y0063810D01*
X0338570Y0063830D01*
X0338570Y0066554D01*
X0338912Y0067005D01*
X0339317Y0067324D01*
X0339347Y0067578D01*
X0339502Y0067783D01*
X0339431Y0068293D01*
X0339532Y0069141D01*
X0340762Y0069141D01*
X0340762Y0069025D01*
X0341523Y0068263D01*
X0350643Y0068263D01*
X0351405Y0069025D01*
X0351405Y0071467D01*
X0351638Y0071700D01*
X0352033Y0071700D01*
X0352033Y0069962D01*
X0352795Y0069200D01*
X0369034Y0069200D01*
X0369034Y0067000D01*
X0361833Y0067000D01*
X0361833Y0064000D01*
X0360833Y0064000D01*
X0360833Y0063000D01*
X0352833Y0063000D01*
X0352833Y0060401D01*
X0352909Y0060217D01*
X0353050Y0060076D01*
X0353234Y0060000D01*
X0360833Y0060000D01*
X0360833Y0063000D01*
X0361833Y0063000D01*
X0361833Y0060000D01*
X0369034Y0060000D01*
X0369034Y0035996D01*
X0242194Y0035775D01*
X0242483Y0036473D01*
X0242483Y0037527D01*
X0242205Y0038200D01*
X0250579Y0038200D01*
X0250733Y0038354D01*
X0251087Y0037499D01*
X0251832Y0036753D01*
X0252806Y0036350D01*
X0253860Y0036350D01*
X0254834Y0036753D01*
X0255580Y0037499D01*
X0255983Y0038473D01*
X0255983Y0039527D01*
X0255680Y0040258D01*
X0255764Y0040342D01*
X0257549Y0040342D01*
X0257549Y0039332D01*
X0258311Y0038570D01*
X0258533Y0038570D01*
X0258533Y0038254D01*
X0259588Y0037200D01*
X0260088Y0036700D01*
X0260886Y0036700D01*
X0261332Y0036253D01*
X0262306Y0035850D01*
X0263360Y0035850D01*
X0264334Y0036253D01*
X0265080Y0036999D01*
X0265483Y0037973D01*
X0265483Y0039027D01*
X0265205Y0039700D01*
X0266886Y0039700D01*
X0267332Y0039253D01*
X0268306Y0038850D01*
X0269360Y0038850D01*
X0270334Y0039253D01*
X0271080Y0039999D01*
X0271483Y0040973D01*
X0271483Y0042027D01*
X0271080Y0043001D01*
X0270334Y0043747D01*
X0269360Y0044150D01*
X0268306Y0044150D01*
X0267826Y0043951D01*
X0267826Y0044149D01*
X0267065Y0044910D01*
X0267026Y0044910D01*
X0267026Y0045776D01*
X0264164Y0045776D01*
X0264164Y0045776D01*
X0267026Y0045982D02*
X0328613Y0045982D01*
X0328613Y0046981D02*
X0267404Y0046981D01*
X0267826Y0047979D02*
X0328872Y0047979D01*
X0329468Y0048978D02*
X0267826Y0048978D01*
X0267826Y0049976D02*
X0317810Y0049976D01*
X0311811Y0050975D02*
X0267299Y0050975D01*
X0267026Y0051973D02*
X0311262Y0051973D01*
X0311262Y0052972D02*
X0267026Y0052972D01*
X0266956Y0053970D02*
X0269062Y0053970D01*
X0269062Y0055967D02*
X0267026Y0055967D01*
X0267026Y0056090D02*
X0267065Y0056090D01*
X0267826Y0056851D01*
X0267826Y0058259D01*
X0268262Y0058259D01*
X0268262Y0058143D01*
X0269023Y0057381D01*
X0273643Y0057381D01*
X0273833Y0057571D01*
X0274023Y0057381D01*
X0278643Y0057381D01*
X0279405Y0058143D01*
X0279405Y0061975D01*
X0278643Y0062737D01*
X0274023Y0062737D01*
X0273833Y0062547D01*
X0273643Y0062737D01*
X0269344Y0062737D01*
X0268834Y0063247D01*
X0267860Y0063650D01*
X0267570Y0063650D01*
X0267570Y0065200D01*
X0279183Y0065200D01*
X0279183Y0064973D01*
X0279587Y0063999D01*
X0280332Y0063253D01*
X0281306Y0062850D01*
X0282360Y0062850D01*
X0283334Y0063253D01*
X0284080Y0063999D01*
X0284437Y0064861D01*
X0284587Y0064499D01*
X0284849Y0064237D01*
X0284523Y0064237D01*
X0283762Y0063475D01*
X0283762Y0059643D01*
X0284523Y0058881D01*
X0288952Y0058881D01*
X0289523Y0058310D01*
X0289562Y0058310D01*
X0289562Y0057053D01*
X0291497Y0057053D01*
X0291497Y0056380D01*
X0292170Y0056380D01*
X0292170Y0057053D01*
X0294105Y0057053D01*
X0295997Y0057053D01*
X0295997Y0056380D01*
X0296670Y0056380D01*
X0296670Y0057053D01*
X0298562Y0057053D01*
X0298562Y0056630D01*
X0300644Y0056630D01*
X0300644Y0056252D01*
X0298605Y0056252D01*
X0298605Y0056380D01*
X0296670Y0056380D01*
X0296670Y0054543D01*
X0298204Y0054543D01*
X0298388Y0054619D01*
X0298529Y0054760D01*
X0298587Y0054901D01*
X0298638Y0054780D01*
X0298778Y0054639D01*
X0298962Y0054563D01*
X0300644Y0054563D01*
X0300644Y0056252D01*
X0301022Y0056252D01*
X0301022Y0054563D01*
X0302704Y0054563D01*
X0302888Y0054639D01*
X0303029Y0054780D01*
X0303079Y0054901D01*
X0303138Y0054760D01*
X0303278Y0054619D01*
X0303462Y0054543D01*
X0304997Y0054543D01*
X0304997Y0056380D01*
X0303062Y0056380D01*
X0303062Y0056252D01*
X0301022Y0056252D01*
X0301022Y0056630D01*
X0300644Y0056630D01*
X0300644Y0058319D01*
X0298962Y0058319D01*
X0298778Y0058243D01*
X0298638Y0058102D01*
X0298605Y0058023D01*
X0298605Y0058310D01*
X0298643Y0058310D01*
X0299214Y0058881D01*
X0302452Y0058881D01*
X0303023Y0058310D01*
X0303062Y0058310D01*
X0303062Y0058023D01*
X0303029Y0058102D01*
X0302888Y0058243D01*
X0302704Y0058319D01*
X0301022Y0058319D01*
X0301022Y0056630D01*
X0303105Y0056630D01*
X0303105Y0057053D01*
X0301022Y0056966D02*
X0300644Y0056966D01*
X0300644Y0057964D02*
X0301022Y0057964D01*
X0301022Y0055967D02*
X0300644Y0055967D01*
X0300644Y0054969D02*
X0301022Y0054969D01*
X0298562Y0056966D02*
X0296670Y0056966D01*
X0295997Y0056966D02*
X0292170Y0056966D01*
X0292170Y0056380D02*
X0295997Y0056380D01*
X0295997Y0054543D01*
X0294462Y0054543D01*
X0294278Y0054619D01*
X0294138Y0054760D01*
X0294083Y0054892D01*
X0294029Y0054760D01*
X0293888Y0054619D01*
X0293704Y0054543D01*
X0292170Y0054543D01*
X0292170Y0056380D01*
X0292170Y0055967D02*
X0291497Y0055967D01*
X0291497Y0056380D02*
X0291497Y0054543D01*
X0289962Y0054543D01*
X0289778Y0054619D01*
X0289638Y0054760D01*
X0289562Y0054944D01*
X0289562Y0056380D01*
X0291497Y0056380D01*
X0291497Y0056966D02*
X0289105Y0056966D01*
X0289105Y0056630D02*
X0289105Y0057918D01*
X0289029Y0058102D01*
X0288888Y0058243D01*
X0288704Y0058319D01*
X0287022Y0058319D01*
X0287022Y0056630D01*
X0286644Y0056630D01*
X0286644Y0056252D01*
X0284562Y0056252D01*
X0284562Y0054964D01*
X0284638Y0054780D01*
X0284778Y0054639D01*
X0284962Y0054563D01*
X0286644Y0054563D01*
X0286644Y0056252D01*
X0287022Y0056252D01*
X0287022Y0054563D01*
X0288704Y0054563D01*
X0288888Y0054639D01*
X0289029Y0054780D01*
X0289105Y0054964D01*
X0289105Y0056252D01*
X0287022Y0056252D01*
X0287022Y0056630D01*
X0289105Y0056630D01*
X0289105Y0055967D02*
X0289562Y0055967D01*
X0289562Y0054969D02*
X0289105Y0054969D01*
X0287022Y0054969D02*
X0286644Y0054969D01*
X0286644Y0055967D02*
X0287022Y0055967D01*
X0286644Y0056630D02*
X0284562Y0056630D01*
X0284562Y0057918D01*
X0284638Y0058102D01*
X0284778Y0058243D01*
X0284962Y0058319D01*
X0286644Y0058319D01*
X0286644Y0056630D01*
X0286644Y0056966D02*
X0287022Y0056966D01*
X0287022Y0057964D02*
X0286644Y0057964D01*
X0284581Y0057964D02*
X0279227Y0057964D01*
X0279405Y0058963D02*
X0284442Y0058963D01*
X0283762Y0059961D02*
X0279405Y0059961D01*
X0279405Y0060960D02*
X0283762Y0060960D01*
X0283762Y0061958D02*
X0279405Y0061958D01*
X0281048Y0062957D02*
X0269124Y0062957D01*
X0267570Y0063955D02*
X0279630Y0063955D01*
X0279191Y0064954D02*
X0267570Y0064954D01*
X0264892Y0063500D02*
X0264892Y0063441D01*
X0267333Y0061000D01*
X0268333Y0060059D02*
X0264892Y0063500D01*
X0264164Y0062772D01*
X0264164Y0058374D01*
X0267826Y0057964D02*
X0268440Y0057964D01*
X0267826Y0056966D02*
X0284562Y0056966D01*
X0284562Y0055967D02*
X0278605Y0055967D01*
X0278605Y0056418D02*
X0278529Y0056602D01*
X0278388Y0056743D01*
X0278204Y0056819D01*
X0276522Y0056819D01*
X0276522Y0055130D01*
X0276144Y0055130D01*
X0276144Y0054752D01*
X0274062Y0054752D01*
X0274062Y0053464D01*
X0274138Y0053280D01*
X0274278Y0053139D01*
X0274462Y0053063D01*
X0276144Y0053063D01*
X0276144Y0054752D01*
X0276522Y0054752D01*
X0276522Y0053063D01*
X0278204Y0053063D01*
X0278388Y0053139D01*
X0278529Y0053280D01*
X0278605Y0053464D01*
X0278605Y0054752D01*
X0276522Y0054752D01*
X0276522Y0055130D01*
X0278605Y0055130D01*
X0278605Y0056418D01*
X0276522Y0055967D02*
X0276144Y0055967D01*
X0276144Y0055130D02*
X0276144Y0056819D01*
X0274462Y0056819D01*
X0274278Y0056743D01*
X0274138Y0056602D01*
X0274062Y0056418D01*
X0274062Y0055130D01*
X0276144Y0055130D01*
X0276144Y0054969D02*
X0271522Y0054969D01*
X0271144Y0054969D02*
X0267026Y0054969D01*
X0267026Y0055224D02*
X0267026Y0056090D01*
X0267026Y0055224D02*
X0264164Y0055224D01*
X0264164Y0053970D02*
X0264164Y0053970D01*
X0264164Y0052972D02*
X0264164Y0052972D01*
X0271144Y0055967D02*
X0271522Y0055967D01*
X0273605Y0055967D02*
X0274062Y0055967D01*
X0274062Y0053970D02*
X0273605Y0053970D01*
X0276144Y0053970D02*
X0276522Y0053970D01*
X0276522Y0054969D02*
X0284562Y0054969D01*
X0289086Y0057964D02*
X0289562Y0057964D01*
X0291497Y0054969D02*
X0292170Y0054969D01*
X0295997Y0054969D02*
X0296670Y0054969D01*
X0296670Y0055967D02*
X0295997Y0055967D01*
X0304997Y0055967D02*
X0305670Y0055967D01*
X0305670Y0056380D02*
X0305670Y0054543D01*
X0307204Y0054543D01*
X0307388Y0054619D01*
X0307529Y0054760D01*
X0307605Y0054944D01*
X0307605Y0056380D01*
X0305670Y0056380D01*
X0305670Y0056966D02*
X0311262Y0056966D01*
X0311262Y0057964D02*
X0307605Y0057964D01*
X0308296Y0058963D02*
X0311262Y0058963D01*
X0311262Y0059961D02*
X0308405Y0059961D01*
X0308405Y0060960D02*
X0311746Y0060960D01*
X0312533Y0061958D02*
X0308405Y0061958D01*
X0305333Y0061283D02*
X0305333Y0064000D01*
X0303833Y0065500D01*
X0303833Y0066000D01*
X0301333Y0066000D01*
X0298755Y0068579D01*
X0298755Y0070650D01*
X0296786Y0070650D02*
X0296786Y0067047D01*
X0300833Y0063000D01*
X0300833Y0061559D01*
X0296333Y0061500D02*
X0293833Y0064000D01*
X0292849Y0065016D02*
X0291833Y0064000D01*
X0291833Y0061283D01*
X0296333Y0061283D01*
X0296333Y0061500D01*
X0296333Y0061283D02*
X0295833Y0061783D01*
X0295833Y0065000D01*
X0294818Y0066016D01*
X0294818Y0070650D01*
X0292849Y0070650D02*
X0292849Y0065016D01*
X0290833Y0067500D02*
X0290833Y0070602D01*
X0290881Y0070650D01*
X0293333Y0073623D02*
X0293333Y0074457D01*
X0293612Y0074382D01*
X0293833Y0074382D01*
X0293833Y0076063D01*
X0293833Y0077744D01*
X0293612Y0077744D01*
X0293333Y0077669D01*
X0293333Y0078394D01*
X0293612Y0078319D01*
X0293833Y0078319D01*
X0293833Y0079500D01*
X0293833Y0079500D01*
X0293833Y0078319D01*
X0294055Y0078319D01*
X0294333Y0078394D01*
X0294333Y0077669D01*
X0294055Y0077744D01*
X0293833Y0077744D01*
X0293833Y0076063D01*
X0293833Y0076063D01*
X0293833Y0076063D01*
X0293833Y0074382D01*
X0294055Y0074382D01*
X0294333Y0074457D01*
X0294333Y0073623D01*
X0294034Y0073623D01*
X0293833Y0073422D01*
X0293632Y0073623D01*
X0293333Y0073623D01*
X0293333Y0073940D02*
X0294333Y0073940D01*
X0293833Y0074939D02*
X0293833Y0074939D01*
X0293833Y0075937D02*
X0293833Y0075937D01*
X0293833Y0076936D02*
X0293833Y0076936D01*
X0293333Y0077934D02*
X0294333Y0077934D01*
X0293833Y0078933D02*
X0293833Y0078933D01*
X0293333Y0080000D02*
X0292152Y0080000D01*
X0292152Y0079779D01*
X0292227Y0079500D01*
X0291503Y0079500D01*
X0291577Y0079779D01*
X0291577Y0080000D01*
X0291577Y0080221D01*
X0291503Y0080500D01*
X0292227Y0080500D01*
X0292152Y0080221D01*
X0292152Y0080000D01*
X0293333Y0080000D01*
X0293333Y0080000D01*
X0293833Y0080500D02*
X0293833Y0081681D01*
X0293612Y0081681D01*
X0293333Y0081606D01*
X0293333Y0082331D01*
X0293612Y0082256D01*
X0293833Y0082256D01*
X0293833Y0083937D01*
X0293833Y0085618D01*
X0293612Y0085618D01*
X0293333Y0085543D01*
X0293333Y0086377D01*
X0293632Y0086377D01*
X0293833Y0086578D01*
X0294034Y0086377D01*
X0294333Y0086377D01*
X0294333Y0085543D01*
X0294055Y0085618D01*
X0293833Y0085618D01*
X0293833Y0083937D01*
X0293833Y0083937D01*
X0293833Y0083937D01*
X0293833Y0082256D01*
X0294055Y0082256D01*
X0294333Y0082331D01*
X0294333Y0081606D01*
X0294055Y0081681D01*
X0293833Y0081681D01*
X0293833Y0080500D01*
X0293833Y0080500D01*
X0293833Y0080930D02*
X0293833Y0080930D01*
X0294333Y0080000D02*
X0295514Y0080000D01*
X0295514Y0080221D01*
X0295440Y0080500D01*
X0296164Y0080500D01*
X0296089Y0080221D01*
X0296089Y0080000D01*
X0296089Y0079779D01*
X0296164Y0079500D01*
X0295440Y0079500D01*
X0295514Y0079779D01*
X0295514Y0080000D01*
X0294333Y0080000D01*
X0294333Y0080000D01*
X0295514Y0079932D02*
X0296089Y0079932D01*
X0296089Y0080000D02*
X0297770Y0080000D01*
X0297770Y0080000D01*
X0296089Y0080000D01*
X0297770Y0080000D02*
X0299451Y0080000D01*
X0299451Y0080221D01*
X0299377Y0080500D01*
X0300210Y0080500D01*
X0300210Y0080201D01*
X0300412Y0080000D01*
X0300210Y0079799D01*
X0300210Y0079500D01*
X0299377Y0079500D01*
X0299451Y0079779D01*
X0299451Y0080000D01*
X0297770Y0080000D01*
X0297770Y0080000D01*
X0299451Y0079932D02*
X0300343Y0079932D01*
X0303184Y0079016D02*
X0303199Y0079000D01*
X0308333Y0079000D01*
X0311392Y0082059D01*
X0313333Y0081559D01*
X0313892Y0080500D01*
X0318774Y0080500D01*
X0318550Y0080776D01*
X0319050Y0085000D01*
X0323280Y0085923D02*
X0323953Y0085923D01*
X0323617Y0085000D02*
X0323617Y0089500D01*
X0323617Y0094000D01*
X0323617Y0100717D01*
X0320833Y0103500D01*
X0307550Y0103500D01*
X0307333Y0102283D01*
X0304833Y0102283D01*
X0305833Y0105500D01*
X0306997Y0103896D02*
X0307670Y0103896D01*
X0307670Y0102897D02*
X0306997Y0102897D01*
X0304833Y0102283D02*
X0302833Y0102283D01*
X0298333Y0102283D01*
X0294333Y0102283D01*
X0293833Y0102783D01*
X0293333Y0102283D01*
X0289333Y0102283D01*
X0286050Y0102283D01*
X0285333Y0102500D01*
X0284480Y0101899D02*
X0287062Y0101899D01*
X0287062Y0102897D02*
X0283905Y0102897D01*
X0283905Y0103896D02*
X0287062Y0103896D01*
X0288997Y0103896D02*
X0289670Y0103896D01*
X0289670Y0102897D02*
X0288997Y0102897D01*
X0291605Y0102897D02*
X0293497Y0102897D01*
X0294170Y0102897D02*
X0296062Y0102897D01*
X0297997Y0102897D02*
X0298670Y0102897D01*
X0298670Y0103896D02*
X0297997Y0103896D01*
X0295855Y0104894D02*
X0352953Y0104894D01*
X0353127Y0105315D02*
X0351833Y0102191D01*
X0351833Y0098809D01*
X0353127Y0095685D01*
X0355518Y0093294D01*
X0358643Y0092000D01*
X0362024Y0092000D01*
X0365148Y0093294D01*
X0367539Y0095685D01*
X0368833Y0098809D01*
X0368833Y0102191D01*
X0367539Y0105315D01*
X0365148Y0107706D01*
X0362024Y0109000D01*
X0358643Y0109000D01*
X0355518Y0107706D01*
X0353127Y0105315D01*
X0353705Y0105893D02*
X0279157Y0105893D01*
X0279157Y0104894D02*
X0291812Y0104894D01*
X0293497Y0104894D02*
X0294170Y0104894D01*
X0294170Y0103896D02*
X0293497Y0103896D01*
X0287062Y0100900D02*
X0285479Y0100900D01*
X0286133Y0099902D02*
X0286262Y0099902D01*
X0286262Y0098903D02*
X0286133Y0098903D01*
X0286133Y0097905D02*
X0286262Y0097905D01*
X0286262Y0096906D02*
X0286133Y0096906D01*
X0284333Y0096000D02*
X0284333Y0099500D01*
X0283333Y0100500D01*
X0282117Y0100500D01*
X0280833Y0101783D01*
X0275861Y0101783D01*
X0274117Y0103528D01*
X0269077Y0103896D02*
X0264590Y0103896D01*
X0264590Y0104894D02*
X0269077Y0104894D01*
X0269077Y0105893D02*
X0264590Y0105893D01*
X0264590Y0106231D02*
X0263828Y0106993D01*
X0255271Y0106993D01*
X0254510Y0106231D01*
X0254510Y0100824D01*
X0255271Y0100062D01*
X0263828Y0100062D01*
X0264590Y0100824D01*
X0264590Y0106231D01*
X0263930Y0106891D02*
X0269737Y0106891D01*
X0278497Y0106891D02*
X0354704Y0106891D01*
X0355962Y0107890D02*
X0100204Y0107890D01*
X0100648Y0107706D02*
X0097524Y0109000D01*
X0094143Y0109000D01*
X0091018Y0107706D01*
X0088627Y0105315D01*
X0087333Y0102191D01*
X0087333Y0098809D01*
X0088627Y0095685D01*
X0091018Y0093294D01*
X0094143Y0092000D01*
X0097524Y0092000D01*
X0100648Y0093294D01*
X0103039Y0095685D01*
X0104333Y0098809D01*
X0104333Y0102191D01*
X0103039Y0105315D01*
X0100648Y0107706D01*
X0101463Y0106891D02*
X0255170Y0106891D01*
X0254510Y0105893D02*
X0216486Y0105893D01*
X0216079Y0106300D02*
X0208088Y0106300D01*
X0198088Y0096300D01*
X0194588Y0096300D01*
X0191588Y0093300D01*
X0190533Y0092246D01*
X0190533Y0089254D01*
X0191033Y0088754D01*
X0191033Y0088714D01*
X0192702Y0087046D01*
X0191812Y0086156D01*
X0191812Y0085079D01*
X0191839Y0085052D01*
X0191756Y0084969D01*
X0191673Y0084886D01*
X0191646Y0084913D01*
X0191574Y0084913D01*
X0190133Y0086354D01*
X0190133Y0088246D01*
X0189309Y0089070D01*
X0189670Y0089430D01*
X0189670Y0090507D01*
X0186960Y0093218D01*
X0185883Y0093218D01*
X0182616Y0089951D01*
X0182616Y0089718D01*
X0182383Y0089718D01*
X0179116Y0086451D01*
X0179116Y0086364D01*
X0178832Y0086247D01*
X0178087Y0085501D01*
X0177683Y0084527D01*
X0177683Y0083473D01*
X0178087Y0082499D01*
X0178286Y0082300D01*
X0159090Y0082300D01*
X0159090Y0082810D01*
X0158650Y0083250D01*
X0159090Y0083690D01*
X0159090Y0088310D01*
X0158650Y0088750D01*
X0158767Y0088866D01*
X0158806Y0088850D01*
X0159860Y0088850D01*
X0160834Y0089253D01*
X0161580Y0089999D01*
X0161983Y0090973D01*
X0161983Y0092027D01*
X0161580Y0093001D01*
X0160834Y0093747D01*
X0159860Y0094150D01*
X0158806Y0094150D01*
X0158767Y0094134D01*
X0158650Y0094250D01*
X0159090Y0094690D01*
X0159090Y0099310D01*
X0158328Y0100072D01*
X0153905Y0100072D01*
X0153144Y0099310D01*
X0153144Y0099272D01*
X0151886Y0099272D01*
X0151886Y0097337D01*
X0151213Y0097337D01*
X0151213Y0099272D01*
X0149777Y0099272D01*
X0149593Y0099196D01*
X0149453Y0099055D01*
X0149377Y0098871D01*
X0149377Y0097337D01*
X0151213Y0097337D01*
X0151213Y0096663D01*
X0151886Y0096663D01*
X0151886Y0094728D01*
X0153144Y0094728D01*
X0153144Y0094690D01*
X0153262Y0094572D01*
X0149338Y0094572D01*
X0148577Y0093810D01*
X0148577Y0092052D01*
X0147726Y0092052D01*
X0147726Y0092739D01*
X0146964Y0093501D01*
X0146523Y0093501D01*
X0146133Y0094513D01*
X0146133Y0100038D01*
X0145372Y0100800D01*
X0138295Y0100800D01*
X0137533Y0100038D01*
X0137533Y0094513D01*
X0137144Y0093501D01*
X0136498Y0093501D01*
X0136133Y0093136D01*
X0136133Y0094861D01*
X0136433Y0095585D01*
X0136433Y0097415D01*
X0136133Y0098139D01*
X0136133Y0100038D01*
X0135372Y0100800D01*
X0133473Y0100800D01*
X0132748Y0101100D01*
X0122418Y0101100D01*
X0120728Y0100400D01*
X0115728Y0095400D01*
X0114434Y0094106D01*
X0113733Y0092415D01*
X0113733Y0085288D01*
X0113733Y0085923D02*
X0107802Y0085923D01*
X0108800Y0086921D02*
X0113733Y0086921D01*
X0113733Y0087920D02*
X0109799Y0087920D01*
X0112499Y0088918D02*
X0113733Y0088918D01*
X0113733Y0089917D02*
X0113253Y0089917D01*
X0113483Y0090915D02*
X0113733Y0090915D01*
X0113733Y0091914D02*
X0113323Y0091914D01*
X0113939Y0092912D02*
X0112669Y0092912D01*
X0114353Y0093911D02*
X0101265Y0093911D01*
X0102263Y0094909D02*
X0115237Y0094909D01*
X0116236Y0095908D02*
X0103131Y0095908D01*
X0103545Y0096906D02*
X0117234Y0096906D01*
X0118233Y0097905D02*
X0103959Y0097905D01*
X0104333Y0098903D02*
X0119231Y0098903D01*
X0120230Y0099902D02*
X0104333Y0099902D01*
X0104333Y0100900D02*
X0121936Y0100900D01*
X0133231Y0100900D02*
X0174612Y0100900D01*
X0174612Y0099902D02*
X0158498Y0099902D01*
X0159090Y0098903D02*
X0175048Y0098903D01*
X0174612Y0099339D02*
X0175720Y0098231D01*
X0176081Y0098231D01*
X0176081Y0097986D01*
X0175683Y0097027D01*
X0175683Y0095973D01*
X0176087Y0094999D01*
X0176832Y0094253D01*
X0177806Y0093850D01*
X0178860Y0093850D01*
X0179834Y0094253D01*
X0180580Y0094999D01*
X0180983Y0095973D01*
X0180983Y0097027D01*
X0180580Y0098001D01*
X0180196Y0098385D01*
X0181149Y0099339D01*
X0181149Y0103661D01*
X0180042Y0104768D01*
X0175720Y0104768D01*
X0174612Y0103661D01*
X0174612Y0099339D01*
X0176047Y0097905D02*
X0159090Y0097905D01*
X0159090Y0096906D02*
X0175683Y0096906D01*
X0175710Y0095908D02*
X0159090Y0095908D01*
X0159090Y0094909D02*
X0176176Y0094909D01*
X0177660Y0093911D02*
X0160438Y0093911D01*
X0161617Y0092912D02*
X0179805Y0092912D01*
X0179797Y0092932D02*
X0179873Y0092748D01*
X0180784Y0091837D01*
X0182256Y0093309D01*
X0182524Y0093042D01*
X0182791Y0093309D01*
X0183985Y0092115D01*
X0185175Y0093305D01*
X0185251Y0093488D01*
X0185251Y0093687D01*
X0185175Y0093871D01*
X0184264Y0094782D01*
X0182791Y0093310D01*
X0182524Y0093577D01*
X0183996Y0095049D01*
X0183085Y0095960D01*
X0182902Y0096037D01*
X0182703Y0096037D01*
X0182519Y0095960D01*
X0181330Y0094771D01*
X0182524Y0093577D01*
X0182256Y0093310D01*
X0181062Y0094504D01*
X0179873Y0093314D01*
X0179797Y0093131D01*
X0179797Y0092932D01*
X0179585Y0092460D02*
X0179402Y0092537D01*
X0179203Y0092537D01*
X0179019Y0092460D01*
X0177830Y0091271D01*
X0179024Y0090077D01*
X0180496Y0091549D01*
X0179585Y0092460D01*
X0180132Y0091914D02*
X0180707Y0091914D01*
X0180861Y0091914D02*
X0181395Y0091914D01*
X0181051Y0091570D02*
X0181962Y0090659D01*
X0182146Y0090582D01*
X0182345Y0090582D01*
X0182529Y0090659D01*
X0183718Y0091848D01*
X0182524Y0093042D01*
X0181051Y0091570D01*
X0180764Y0091282D02*
X0179291Y0089810D01*
X0179024Y0090077D01*
X0178756Y0089810D01*
X0177562Y0091004D01*
X0176373Y0089814D01*
X0176297Y0089631D01*
X0176297Y0089432D01*
X0176373Y0089248D01*
X0177284Y0088337D01*
X0178756Y0089809D01*
X0179024Y0089542D01*
X0179291Y0089809D01*
X0180485Y0088615D01*
X0181675Y0089805D01*
X0181751Y0089988D01*
X0181751Y0090187D01*
X0181675Y0090371D01*
X0180764Y0091282D01*
X0181131Y0090915D02*
X0181706Y0090915D01*
X0181721Y0089917D02*
X0182616Y0089917D01*
X0182785Y0090915D02*
X0183580Y0090915D01*
X0183652Y0091914D02*
X0184579Y0091914D01*
X0184782Y0092912D02*
X0185577Y0092912D01*
X0185135Y0093911D02*
X0192198Y0093911D01*
X0191200Y0092912D02*
X0187265Y0092912D01*
X0188264Y0091914D02*
X0190533Y0091914D01*
X0190533Y0090915D02*
X0189262Y0090915D01*
X0189670Y0089917D02*
X0190533Y0089917D01*
X0190870Y0088918D02*
X0189461Y0088918D01*
X0190133Y0087920D02*
X0191828Y0087920D01*
X0192577Y0086921D02*
X0190133Y0086921D01*
X0190564Y0085923D02*
X0191812Y0085923D01*
X0191756Y0084969D02*
X0194198Y0082528D01*
X0194198Y0082527D01*
X0197725Y0079000D01*
X0198833Y0079000D01*
X0200833Y0079000D01*
X0206333Y0073500D01*
X0206833Y0073500D01*
X0210683Y0073940D02*
X0198983Y0073940D01*
X0198813Y0074939D02*
X0210854Y0074939D01*
X0211523Y0075937D02*
X0210072Y0075937D01*
X0208595Y0075937D02*
X0198144Y0075937D01*
X0196333Y0074000D02*
X0194374Y0074000D01*
X0190022Y0078352D01*
X0191414Y0079744D02*
X0187157Y0084000D01*
X0184333Y0084000D01*
X0182643Y0085690D01*
X0182643Y0086190D01*
X0182524Y0086190D01*
X0180333Y0084000D01*
X0177909Y0082927D02*
X0158973Y0082927D01*
X0159090Y0083926D02*
X0177683Y0083926D01*
X0177848Y0084924D02*
X0159090Y0084924D01*
X0159090Y0085923D02*
X0178508Y0085923D01*
X0178646Y0087082D02*
X0178845Y0087082D01*
X0179029Y0087159D01*
X0180218Y0088348D01*
X0179024Y0089542D01*
X0177551Y0088070D01*
X0178462Y0087159D01*
X0178646Y0087082D01*
X0179586Y0086921D02*
X0159090Y0086921D01*
X0159090Y0087920D02*
X0177701Y0087920D01*
X0177865Y0088918D02*
X0178400Y0088918D01*
X0178649Y0089917D02*
X0178864Y0089917D01*
X0179024Y0089810D02*
X0182524Y0093310D01*
X0182643Y0093310D01*
X0183333Y0094000D01*
X0188333Y0094000D01*
X0189333Y0094000D01*
X0191833Y0096500D01*
X0195333Y0096500D01*
X0195833Y0097000D01*
X0195833Y0101441D01*
X0195892Y0101500D01*
X0195703Y0101689D02*
X0195703Y0101311D01*
X0194014Y0101311D01*
X0194014Y0099629D01*
X0194091Y0099445D01*
X0194231Y0099304D01*
X0194415Y0099228D01*
X0195703Y0099228D01*
X0195703Y0101311D01*
X0196081Y0101311D01*
X0196081Y0099228D01*
X0197370Y0099228D01*
X0197554Y0099304D01*
X0197694Y0099445D01*
X0197770Y0099629D01*
X0197770Y0101311D01*
X0196081Y0101311D01*
X0196081Y0101689D01*
X0195703Y0101689D01*
X0194014Y0101689D01*
X0194014Y0103371D01*
X0194091Y0103555D01*
X0194231Y0103696D01*
X0194415Y0103772D01*
X0195703Y0103772D01*
X0195703Y0101689D01*
X0195703Y0101899D02*
X0196081Y0101899D01*
X0196081Y0101689D02*
X0196081Y0103772D01*
X0197370Y0103772D01*
X0197554Y0103696D01*
X0197694Y0103555D01*
X0197770Y0103371D01*
X0197770Y0101689D01*
X0196081Y0101689D01*
X0196081Y0100900D02*
X0195703Y0100900D01*
X0195703Y0099902D02*
X0196081Y0099902D01*
X0197770Y0099902D02*
X0201689Y0099902D01*
X0200691Y0098903D02*
X0193166Y0098903D01*
X0193452Y0099190D02*
X0193452Y0103810D01*
X0192691Y0104572D01*
X0188858Y0104572D01*
X0188096Y0103810D01*
X0188096Y0103300D01*
X0188055Y0103300D01*
X0188055Y0103661D01*
X0186947Y0104768D01*
X0182625Y0104768D01*
X0181518Y0103661D01*
X0181518Y0099339D01*
X0182625Y0098231D01*
X0186947Y0098231D01*
X0188055Y0099339D01*
X0188055Y0099700D01*
X0188096Y0099700D01*
X0188096Y0099190D01*
X0188858Y0098428D01*
X0192691Y0098428D01*
X0193452Y0099190D01*
X0193452Y0099902D02*
X0194014Y0099902D01*
X0194014Y0100900D02*
X0193452Y0100900D01*
X0193452Y0101899D02*
X0194014Y0101899D01*
X0194014Y0102897D02*
X0193452Y0102897D01*
X0193367Y0103896D02*
X0205684Y0103896D01*
X0206682Y0104894D02*
X0153331Y0104894D01*
X0153483Y0104527D02*
X0153080Y0105501D01*
X0152334Y0106247D01*
X0151360Y0106650D01*
X0150306Y0106650D01*
X0149332Y0106247D01*
X0148587Y0105501D01*
X0148183Y0104527D01*
X0148183Y0103473D01*
X0148587Y0102499D01*
X0149332Y0101753D01*
X0150306Y0101350D01*
X0151360Y0101350D01*
X0152334Y0101753D01*
X0153080Y0102499D01*
X0153483Y0103473D01*
X0153483Y0104527D01*
X0153483Y0103896D02*
X0174847Y0103896D01*
X0174612Y0102897D02*
X0153245Y0102897D01*
X0152480Y0101899D02*
X0174612Y0101899D01*
X0177881Y0101500D02*
X0177881Y0096953D01*
X0178333Y0096500D01*
X0180490Y0094909D02*
X0181468Y0094909D01*
X0181655Y0093911D02*
X0182190Y0093911D01*
X0182858Y0093911D02*
X0183392Y0093911D01*
X0183188Y0092912D02*
X0182654Y0092912D01*
X0182394Y0092912D02*
X0181859Y0092912D01*
X0180469Y0093911D02*
X0179007Y0093911D01*
X0178472Y0091914D02*
X0161983Y0091914D01*
X0161959Y0090915D02*
X0177474Y0090915D01*
X0177651Y0090915D02*
X0178185Y0090915D01*
X0179024Y0089810D02*
X0172024Y0089810D01*
X0166333Y0095500D01*
X0166333Y0097500D01*
X0162833Y0101000D01*
X0152333Y0101000D01*
X0151833Y0100500D01*
X0151833Y0097283D01*
X0151550Y0097000D01*
X0151213Y0096906D02*
X0146133Y0096906D01*
X0146133Y0095908D02*
X0149377Y0095908D01*
X0149377Y0096663D02*
X0149377Y0095129D01*
X0149453Y0094945D01*
X0149593Y0094804D01*
X0149777Y0094728D01*
X0151213Y0094728D01*
X0151213Y0096663D01*
X0149377Y0096663D01*
X0149377Y0097905D02*
X0146133Y0097905D01*
X0146133Y0098903D02*
X0149390Y0098903D01*
X0151213Y0098903D02*
X0151886Y0098903D01*
X0151886Y0097905D02*
X0151213Y0097905D01*
X0151213Y0095908D02*
X0151886Y0095908D01*
X0151886Y0094909D02*
X0151213Y0094909D01*
X0149489Y0094909D02*
X0146133Y0094909D01*
X0146365Y0093911D02*
X0148677Y0093911D01*
X0148577Y0092912D02*
X0147553Y0092912D01*
X0150302Y0090252D02*
X0151550Y0091500D01*
X0150302Y0090252D02*
X0145629Y0090252D01*
X0143030Y0090252D01*
X0143030Y0095303D01*
X0141833Y0096500D01*
X0137533Y0096906D02*
X0136433Y0096906D01*
X0136433Y0095908D02*
X0137533Y0095908D01*
X0137533Y0094909D02*
X0136153Y0094909D01*
X0136133Y0093911D02*
X0137302Y0093911D01*
X0135736Y0091914D02*
X0132781Y0091914D01*
X0135736Y0090915D02*
X0124254Y0090915D01*
X0123255Y0089917D02*
X0135736Y0089917D01*
X0137833Y0090252D02*
X0140432Y0090252D01*
X0143030Y0090252D01*
X0147726Y0087920D02*
X0149397Y0087920D01*
X0149377Y0086921D02*
X0147440Y0086921D01*
X0147440Y0085923D02*
X0151213Y0085923D01*
X0151213Y0086921D02*
X0151886Y0086921D01*
X0151886Y0087920D02*
X0151213Y0087920D01*
X0151213Y0084924D02*
X0151886Y0084924D01*
X0151886Y0083926D02*
X0151213Y0083926D01*
X0156117Y0086000D02*
X0156117Y0080500D01*
X0182306Y0080500D01*
X0187238Y0075568D01*
X0188630Y0076960D02*
X0195590Y0070000D01*
X0195833Y0070000D01*
X0193401Y0068948D02*
X0188737Y0068948D01*
X0189735Y0067949D02*
X0194136Y0067949D01*
X0194833Y0067000D02*
X0199333Y0067500D01*
X0200833Y0069000D01*
X0200833Y0077000D01*
X0198833Y0079000D01*
X0198615Y0080930D02*
X0201601Y0080930D01*
X0200603Y0081929D02*
X0199613Y0081929D01*
X0195795Y0080930D02*
X0195795Y0080930D01*
X0196583Y0079932D02*
X0202600Y0079932D01*
X0203598Y0078933D02*
X0196583Y0078933D01*
X0195619Y0077934D02*
X0204597Y0077934D01*
X0205595Y0076936D02*
X0194621Y0076936D01*
X0192806Y0081136D02*
X0188333Y0085608D01*
X0188333Y0087500D01*
X0186143Y0089690D01*
X0186143Y0089690D01*
X0181583Y0088918D02*
X0180788Y0088918D01*
X0180182Y0088918D02*
X0179648Y0088918D01*
X0179790Y0087920D02*
X0180585Y0087920D01*
X0179398Y0089917D02*
X0179184Y0089917D01*
X0179862Y0090915D02*
X0180397Y0090915D01*
X0176475Y0089917D02*
X0161498Y0089917D01*
X0160025Y0088918D02*
X0176703Y0088918D01*
X0191563Y0084924D02*
X0191711Y0084924D01*
X0191756Y0084969D02*
X0194198Y0082527D01*
X0193798Y0082927D02*
X0193798Y0082927D01*
X0192800Y0083926D02*
X0192800Y0083926D01*
X0191801Y0084924D02*
X0191801Y0084924D01*
X0192833Y0089460D02*
X0196982Y0085311D01*
X0198374Y0086703D02*
X0206577Y0078500D01*
X0209333Y0078500D01*
X0208275Y0080930D02*
X0206692Y0080930D01*
X0205694Y0081929D02*
X0211053Y0081929D01*
X0210391Y0080930D02*
X0212052Y0080930D01*
X0211609Y0079932D02*
X0213051Y0079932D01*
X0214049Y0078933D02*
X0211983Y0078933D01*
X0211967Y0077934D02*
X0214898Y0077934D01*
X0213900Y0076936D02*
X0211517Y0076936D01*
X0213509Y0074000D02*
X0219253Y0079744D01*
X0217861Y0081136D02*
X0220833Y0084000D01*
X0222725Y0083892D01*
X0229225Y0090500D01*
X0244333Y0090500D01*
X0249333Y0085500D01*
X0246683Y0085604D02*
X0246683Y0084973D01*
X0247087Y0083999D01*
X0247832Y0083253D01*
X0248191Y0083105D01*
X0247587Y0082501D01*
X0247233Y0081646D01*
X0240633Y0088246D01*
X0240179Y0088700D01*
X0243588Y0088700D01*
X0246683Y0085604D01*
X0246365Y0085923D02*
X0242956Y0085923D01*
X0241958Y0086921D02*
X0245367Y0086921D01*
X0244368Y0087920D02*
X0240959Y0087920D01*
X0238833Y0087500D02*
X0236022Y0087500D01*
X0229793Y0087500D01*
X0220645Y0078352D01*
X0222037Y0076960D02*
X0218333Y0073256D01*
X0218333Y0071000D01*
X0219333Y0070000D01*
X0225333Y0070000D01*
X0228333Y0067000D01*
X0239333Y0067000D01*
X0244333Y0062000D01*
X0258274Y0062000D01*
X0259774Y0063500D01*
X0259833Y0064441D01*
X0259833Y0058768D01*
X0268333Y0060059D02*
X0271333Y0060059D01*
X0276333Y0060059D01*
X0282618Y0062957D02*
X0283762Y0062957D01*
X0284036Y0063955D02*
X0284242Y0063955D01*
X0286833Y0063500D02*
X0290833Y0067500D01*
X0286833Y0066000D02*
X0286833Y0061559D01*
X0286833Y0063500D01*
X0281833Y0065500D02*
X0285833Y0069500D01*
X0285833Y0069539D01*
X0286944Y0070650D01*
X0284944Y0073110D02*
X0278833Y0067000D01*
X0256333Y0067000D01*
X0241333Y0082000D01*
X0236522Y0082000D01*
X0236022Y0082500D01*
X0230361Y0082500D01*
X0223429Y0075568D01*
X0224821Y0074176D02*
X0229996Y0069000D01*
X0238833Y0069000D01*
X0242833Y0073000D01*
X0245833Y0074000D02*
X0245833Y0069059D01*
X0244774Y0068000D01*
X0247452Y0067949D02*
X0249703Y0067949D01*
X0249703Y0067811D02*
X0248014Y0067811D01*
X0248014Y0066129D01*
X0248091Y0065945D01*
X0248231Y0065804D01*
X0248415Y0065728D01*
X0249703Y0065728D01*
X0249703Y0067811D01*
X0249703Y0068189D01*
X0248014Y0068189D01*
X0248014Y0069871D01*
X0248091Y0070055D01*
X0248231Y0070196D01*
X0248415Y0070272D01*
X0249703Y0070272D01*
X0249703Y0068189D01*
X0250081Y0068189D01*
X0250081Y0070272D01*
X0250516Y0070272D01*
X0247633Y0073154D01*
X0247633Y0068313D01*
X0247452Y0068132D01*
X0247452Y0065690D01*
X0246691Y0064928D01*
X0243951Y0064928D01*
X0245079Y0063800D01*
X0257096Y0063800D01*
X0257096Y0065200D01*
X0255588Y0065200D01*
X0251770Y0069017D01*
X0251770Y0068189D01*
X0250081Y0068189D01*
X0250081Y0067811D01*
X0250081Y0065728D01*
X0251370Y0065728D01*
X0251554Y0065804D01*
X0251694Y0065945D01*
X0251770Y0066129D01*
X0251770Y0067811D01*
X0250081Y0067811D01*
X0249703Y0067811D01*
X0249892Y0068000D02*
X0249892Y0065059D01*
X0249833Y0065000D01*
X0249703Y0065952D02*
X0250081Y0065952D01*
X0250081Y0066951D02*
X0249703Y0066951D01*
X0250081Y0067949D02*
X0252838Y0067949D01*
X0253837Y0066951D02*
X0251770Y0066951D01*
X0251697Y0065952D02*
X0254835Y0065952D01*
X0257096Y0064954D02*
X0246716Y0064954D01*
X0247452Y0065952D02*
X0248088Y0065952D01*
X0248014Y0066951D02*
X0247452Y0066951D01*
X0247633Y0068948D02*
X0248014Y0068948D01*
X0248046Y0069946D02*
X0247633Y0069946D01*
X0247633Y0070945D02*
X0249843Y0070945D01*
X0249703Y0069946D02*
X0250081Y0069946D01*
X0250081Y0068948D02*
X0249703Y0068948D01*
X0251770Y0068948D02*
X0251840Y0068948D01*
X0257333Y0069000D02*
X0238833Y0087500D01*
X0243955Y0084924D02*
X0246704Y0084924D01*
X0247160Y0083926D02*
X0244953Y0083926D01*
X0245952Y0082927D02*
X0248013Y0082927D01*
X0247350Y0081929D02*
X0246950Y0081929D01*
X0249833Y0081000D02*
X0250333Y0080500D01*
X0250333Y0079000D01*
X0256833Y0072500D01*
X0259644Y0072500D01*
X0259703Y0072441D01*
X0265333Y0072441D01*
X0268405Y0071943D02*
X0268954Y0071943D01*
X0268953Y0071945D02*
X0269093Y0071804D01*
X0269277Y0071728D01*
X0270713Y0071728D01*
X0270713Y0073663D01*
X0268877Y0073663D01*
X0268877Y0072129D01*
X0268953Y0071945D01*
X0268877Y0072942D02*
X0268405Y0072942D01*
X0268405Y0073940D02*
X0270713Y0073940D01*
X0271050Y0074000D02*
X0271050Y0072217D01*
X0270333Y0072000D01*
X0270713Y0071943D02*
X0271386Y0071943D01*
X0271386Y0072942D02*
X0270713Y0072942D01*
X0271050Y0074000D02*
X0271050Y0078500D01*
X0271050Y0083000D01*
X0271050Y0087224D01*
X0270774Y0087500D01*
X0259644Y0087500D01*
X0259519Y0087625D02*
X0259519Y0087375D01*
X0256644Y0087375D01*
X0256644Y0086151D01*
X0256720Y0085967D01*
X0256861Y0085826D01*
X0257045Y0085750D01*
X0259519Y0085750D01*
X0259519Y0087375D01*
X0259769Y0087375D01*
X0259769Y0085750D01*
X0262244Y0085750D01*
X0262428Y0085826D01*
X0262568Y0085967D01*
X0262644Y0086151D01*
X0262644Y0087375D01*
X0259769Y0087375D01*
X0259769Y0087625D01*
X0259519Y0087625D01*
X0256644Y0087625D01*
X0256644Y0088849D01*
X0256720Y0089033D01*
X0256861Y0089174D01*
X0257045Y0089250D01*
X0259519Y0089250D01*
X0259519Y0087625D01*
X0259769Y0087625D02*
X0259769Y0089250D01*
X0262244Y0089250D01*
X0262428Y0089174D01*
X0262568Y0089033D01*
X0262644Y0088849D01*
X0262644Y0087625D01*
X0259769Y0087625D01*
X0259769Y0087920D02*
X0259519Y0087920D01*
X0259519Y0088918D02*
X0259769Y0088918D01*
X0259769Y0086921D02*
X0259519Y0086921D01*
X0259519Y0085923D02*
X0259769Y0085923D01*
X0262524Y0085923D02*
X0268896Y0085923D01*
X0268896Y0086921D02*
X0262644Y0086921D01*
X0262644Y0087920D02*
X0268896Y0087920D01*
X0268896Y0088918D02*
X0262616Y0088918D01*
X0266373Y0090915D02*
X0246464Y0090915D01*
X0247462Y0089917D02*
X0267371Y0089917D01*
X0268833Y0091000D02*
X0278833Y0091000D01*
X0280833Y0092500D01*
X0287833Y0092500D01*
X0288912Y0091421D01*
X0288912Y0089350D01*
X0286944Y0089350D02*
X0280684Y0089350D01*
X0279333Y0088000D01*
X0276392Y0088000D01*
X0275892Y0087500D01*
X0273214Y0087920D02*
X0272652Y0087920D01*
X0272652Y0087689D02*
X0272652Y0089200D01*
X0273214Y0089200D01*
X0273214Y0085881D01*
X0272644Y0085310D01*
X0272644Y0085272D01*
X0272356Y0085272D01*
X0272435Y0085304D01*
X0272576Y0085445D01*
X0272652Y0085629D01*
X0272652Y0087311D01*
X0270963Y0087311D01*
X0270963Y0087689D01*
X0272652Y0087689D01*
X0272652Y0086921D02*
X0273214Y0086921D01*
X0273214Y0085923D02*
X0272652Y0085923D01*
X0271386Y0084924D02*
X0270713Y0084924D01*
X0270713Y0083926D02*
X0271386Y0083926D01*
X0270713Y0082927D02*
X0267483Y0082927D01*
X0267465Y0081929D02*
X0268877Y0081929D01*
X0268968Y0080930D02*
X0267011Y0080930D01*
X0267949Y0079932D02*
X0268877Y0079932D01*
X0268877Y0078933D02*
X0268405Y0078933D01*
X0268405Y0077934D02*
X0268877Y0077934D01*
X0268877Y0076936D02*
X0268405Y0076936D01*
X0268405Y0075937D02*
X0268904Y0075937D01*
X0268877Y0074939D02*
X0267823Y0074939D01*
X0270713Y0074939D02*
X0271386Y0074939D01*
X0271386Y0075937D02*
X0270713Y0075937D01*
X0270713Y0076936D02*
X0271386Y0076936D01*
X0271386Y0077934D02*
X0270713Y0077934D01*
X0270713Y0078933D02*
X0271386Y0078933D01*
X0271386Y0079932D02*
X0270713Y0079932D01*
X0270713Y0080930D02*
X0271386Y0080930D01*
X0271386Y0081929D02*
X0270713Y0081929D01*
X0268877Y0083926D02*
X0267111Y0083926D01*
X0265906Y0084924D02*
X0268899Y0084924D01*
X0270585Y0085923D02*
X0270963Y0085923D01*
X0270963Y0086921D02*
X0270585Y0086921D01*
X0272652Y0088918D02*
X0273214Y0088918D01*
X0268833Y0091000D02*
X0265361Y0094472D01*
X0259550Y0094472D01*
X0258306Y0095717D01*
X0250333Y0095717D01*
X0247262Y0095908D02*
X0246212Y0095908D01*
X0246104Y0095649D02*
X0246602Y0096850D01*
X0246602Y0098150D01*
X0246104Y0099351D01*
X0245456Y0100000D01*
X0246104Y0100649D01*
X0246602Y0101850D01*
X0246602Y0103150D01*
X0246104Y0104351D01*
X0245185Y0105271D01*
X0243983Y0105768D01*
X0242683Y0105768D01*
X0241482Y0105271D01*
X0240833Y0104622D01*
X0240185Y0105271D01*
X0238983Y0105768D01*
X0237683Y0105768D01*
X0236482Y0105271D01*
X0235833Y0104622D01*
X0235185Y0105271D01*
X0233983Y0105768D01*
X0232683Y0105768D01*
X0231482Y0105271D01*
X0230833Y0104622D01*
X0230185Y0105271D01*
X0228983Y0105768D01*
X0227683Y0105768D01*
X0226482Y0105271D01*
X0225833Y0104622D01*
X0225185Y0105271D01*
X0223983Y0105768D01*
X0222683Y0105768D01*
X0221482Y0105271D01*
X0220562Y0104351D01*
X0220151Y0103359D01*
X0219905Y0103359D01*
X0219905Y0103475D01*
X0219143Y0104237D01*
X0218142Y0104237D01*
X0217133Y0105246D01*
X0216079Y0106300D01*
X0215333Y0104500D02*
X0208833Y0104500D01*
X0198833Y0094500D01*
X0195333Y0094500D01*
X0192333Y0091500D01*
X0192333Y0090000D01*
X0192833Y0089500D01*
X0192833Y0089460D01*
X0196333Y0091500D02*
X0199738Y0088095D01*
X0199766Y0088095D01*
X0201157Y0089487D02*
X0201157Y0090824D01*
X0202333Y0092000D01*
X0204170Y0093911D02*
X0207709Y0093911D01*
X0207709Y0092912D02*
X0204824Y0092912D01*
X0204983Y0091914D02*
X0207709Y0091914D01*
X0207709Y0090915D02*
X0204752Y0090915D01*
X0203998Y0089917D02*
X0207321Y0089917D01*
X0206322Y0088918D02*
X0204345Y0088918D01*
X0204935Y0087920D02*
X0205731Y0087920D01*
X0206061Y0086921D02*
X0204606Y0086921D01*
X0203607Y0085923D02*
X0207059Y0085923D01*
X0207333Y0084500D02*
X0205833Y0084500D01*
X0205333Y0085000D01*
X0204333Y0085000D01*
X0205333Y0085000D02*
X0205333Y0096500D01*
X0209833Y0101000D01*
X0211274Y0101000D01*
X0211833Y0101559D01*
X0211644Y0100900D02*
X0212022Y0100900D01*
X0212022Y0099902D02*
X0211644Y0099902D01*
X0209636Y0099902D02*
X0206781Y0099902D01*
X0207779Y0100900D02*
X0209562Y0100900D01*
X0209562Y0101899D02*
X0208778Y0101899D01*
X0209308Y0098903D02*
X0205782Y0098903D01*
X0204784Y0097905D02*
X0208762Y0097905D01*
X0208762Y0096906D02*
X0203785Y0096906D01*
X0202787Y0095908D02*
X0208755Y0095908D01*
X0207756Y0094909D02*
X0201788Y0094909D01*
X0198694Y0096906D02*
X0180983Y0096906D01*
X0180956Y0095908D02*
X0182466Y0095908D01*
X0183138Y0095908D02*
X0194195Y0095908D01*
X0193197Y0094909D02*
X0183856Y0094909D01*
X0180620Y0097905D02*
X0199692Y0097905D01*
X0197770Y0100900D02*
X0202688Y0100900D01*
X0203687Y0101899D02*
X0197770Y0101899D01*
X0197770Y0102897D02*
X0204685Y0102897D01*
X0207681Y0105893D02*
X0152688Y0105893D01*
X0148978Y0105893D02*
X0102461Y0105893D01*
X0103213Y0104894D02*
X0148335Y0104894D01*
X0148183Y0103896D02*
X0103627Y0103896D01*
X0104041Y0102897D02*
X0148422Y0102897D01*
X0149187Y0101899D02*
X0104333Y0101899D01*
X0091462Y0107890D02*
X0086833Y0107890D01*
X0086833Y0108888D02*
X0093873Y0108888D01*
X0097794Y0108888D02*
X0358373Y0108888D01*
X0362294Y0108888D02*
X0369034Y0108888D01*
X0369034Y0107890D02*
X0364704Y0107890D01*
X0365963Y0106891D02*
X0369034Y0106891D01*
X0369034Y0105893D02*
X0366961Y0105893D01*
X0367713Y0104894D02*
X0369034Y0104894D01*
X0369034Y0103896D02*
X0368127Y0103896D01*
X0368541Y0102897D02*
X0369034Y0102897D01*
X0369034Y0101899D02*
X0368833Y0101899D01*
X0368833Y0100900D02*
X0369034Y0100900D01*
X0369034Y0099902D02*
X0368833Y0099902D01*
X0368833Y0098903D02*
X0369034Y0098903D01*
X0369034Y0097905D02*
X0368459Y0097905D01*
X0368045Y0096906D02*
X0369034Y0096906D01*
X0369034Y0095908D02*
X0367631Y0095908D01*
X0366763Y0094909D02*
X0369034Y0094909D01*
X0369034Y0093911D02*
X0365765Y0093911D01*
X0364226Y0092912D02*
X0369034Y0092912D01*
X0369034Y0091914D02*
X0325682Y0091914D01*
X0325790Y0092912D02*
X0356440Y0092912D01*
X0354902Y0093911D02*
X0323953Y0093911D01*
X0323953Y0094337D02*
X0325790Y0094337D01*
X0325790Y0095871D01*
X0325714Y0096055D01*
X0325573Y0096196D01*
X0325389Y0096272D01*
X0323953Y0096272D01*
X0323953Y0094337D01*
X0323953Y0094909D02*
X0323280Y0094909D01*
X0323280Y0095908D02*
X0323953Y0095908D01*
X0325775Y0095908D02*
X0353035Y0095908D01*
X0352622Y0096906D02*
X0321427Y0096906D01*
X0320676Y0097905D02*
X0352208Y0097905D01*
X0351833Y0098903D02*
X0320590Y0098903D01*
X0320590Y0099902D02*
X0351833Y0099902D01*
X0351833Y0100900D02*
X0320590Y0100900D01*
X0320590Y0101899D02*
X0351833Y0101899D01*
X0352126Y0102897D02*
X0320003Y0102897D01*
X0317617Y0100000D02*
X0316833Y0098717D01*
X0316833Y0098000D01*
X0314833Y0096500D01*
X0314833Y0094500D01*
X0305255Y0084921D01*
X0303184Y0084921D01*
X0303184Y0086890D02*
X0303723Y0086890D01*
X0311833Y0095000D01*
X0311833Y0098783D01*
X0313050Y0100000D01*
X0310077Y0100900D02*
X0309605Y0100900D01*
X0309605Y0101899D02*
X0310077Y0101899D01*
X0309605Y0102897D02*
X0310664Y0102897D01*
X0309605Y0103896D02*
X0352540Y0103896D01*
X0353903Y0094909D02*
X0325790Y0094909D01*
X0323953Y0092912D02*
X0323280Y0092912D01*
X0323280Y0091914D02*
X0323953Y0091914D01*
X0323953Y0090915D02*
X0323280Y0090915D01*
X0323280Y0089917D02*
X0323953Y0089917D01*
X0323953Y0088918D02*
X0323280Y0088918D01*
X0323280Y0087920D02*
X0323953Y0087920D01*
X0323953Y0086921D02*
X0323280Y0086921D01*
X0323617Y0085000D02*
X0326333Y0085000D01*
X0328333Y0086000D01*
X0325790Y0085923D02*
X0341256Y0085923D01*
X0341562Y0086921D02*
X0325769Y0086921D01*
X0325790Y0087920D02*
X0343497Y0087920D01*
X0343833Y0087783D02*
X0342617Y0089000D01*
X0338333Y0089000D01*
X0341562Y0088918D02*
X0325790Y0088918D01*
X0325790Y0089917D02*
X0341866Y0089917D01*
X0343497Y0089917D02*
X0344170Y0089917D01*
X0344170Y0088918D02*
X0343497Y0088918D01*
X0343833Y0087783D02*
X0344117Y0087500D01*
X0348333Y0087500D01*
X0352333Y0083500D01*
X0361333Y0083500D01*
X0360833Y0083926D02*
X0346905Y0083926D01*
X0346905Y0084924D02*
X0352833Y0084924D01*
X0352833Y0084000D02*
X0360833Y0084000D01*
X0360833Y0087000D01*
X0353234Y0087000D01*
X0353050Y0086924D01*
X0352909Y0086783D01*
X0352833Y0086599D01*
X0352833Y0084000D01*
X0352833Y0082927D02*
X0346905Y0082927D01*
X0346905Y0081929D02*
X0352833Y0081929D01*
X0352833Y0080930D02*
X0346830Y0080930D01*
X0345633Y0079932D02*
X0369034Y0079932D01*
X0369034Y0078933D02*
X0345633Y0078933D01*
X0342033Y0078933D02*
X0336905Y0078933D01*
X0336905Y0077934D02*
X0340762Y0077934D01*
X0340762Y0076936D02*
X0336905Y0076936D01*
X0336818Y0075937D02*
X0340762Y0075937D01*
X0343833Y0076059D02*
X0343833Y0083217D01*
X0340762Y0082927D02*
X0336905Y0082927D01*
X0336905Y0081929D02*
X0340762Y0081929D01*
X0340836Y0080930D02*
X0336692Y0080930D01*
X0336831Y0079932D02*
X0342033Y0079932D01*
X0343833Y0076059D02*
X0348333Y0076059D01*
X0351405Y0075937D02*
X0352033Y0075937D01*
X0352033Y0076936D02*
X0351405Y0076936D01*
X0351405Y0077934D02*
X0369034Y0077934D01*
X0361833Y0080930D02*
X0360833Y0080930D01*
X0360833Y0081929D02*
X0361833Y0081929D01*
X0361833Y0082927D02*
X0360833Y0082927D01*
X0360833Y0084924D02*
X0361833Y0084924D01*
X0361833Y0085923D02*
X0360833Y0085923D01*
X0360833Y0086921D02*
X0361833Y0086921D01*
X0369034Y0087920D02*
X0344170Y0087920D01*
X0346105Y0088918D02*
X0369034Y0088918D01*
X0369034Y0089917D02*
X0345801Y0089917D01*
X0346105Y0086921D02*
X0353047Y0086921D01*
X0352833Y0085923D02*
X0346411Y0085923D01*
X0340762Y0084924D02*
X0336905Y0084924D01*
X0336905Y0083926D02*
X0340762Y0083926D01*
X0333833Y0083059D02*
X0329274Y0083000D01*
X0327333Y0083000D01*
X0324833Y0080500D01*
X0323892Y0080500D01*
X0323117Y0080224D01*
X0323617Y0076000D01*
X0326590Y0075937D02*
X0327533Y0075937D01*
X0327533Y0076746D02*
X0327533Y0071246D01*
X0326088Y0069800D01*
X0325770Y0069800D01*
X0325770Y0071311D01*
X0324081Y0071311D01*
X0324081Y0071689D01*
X0325770Y0071689D01*
X0325770Y0072928D01*
X0325828Y0072928D01*
X0326590Y0073690D01*
X0326590Y0078310D01*
X0326570Y0078330D01*
X0326570Y0079691D01*
X0328079Y0081200D01*
X0328542Y0081200D01*
X0328552Y0081190D01*
X0329286Y0081200D01*
X0330020Y0081200D01*
X0330029Y0081210D01*
X0330762Y0081219D01*
X0330762Y0081143D01*
X0331404Y0080500D01*
X0330762Y0079857D01*
X0330762Y0079741D01*
X0330529Y0079741D01*
X0328588Y0077800D01*
X0327533Y0076746D01*
X0327724Y0076936D02*
X0326590Y0076936D01*
X0326590Y0077934D02*
X0328722Y0077934D01*
X0329721Y0078933D02*
X0326570Y0078933D01*
X0326810Y0079932D02*
X0330836Y0079932D01*
X0330974Y0080930D02*
X0327809Y0080930D01*
X0331274Y0077941D02*
X0329333Y0076000D01*
X0329333Y0070500D01*
X0326833Y0068000D01*
X0316333Y0068000D01*
X0309255Y0075079D01*
X0303184Y0075079D01*
X0303184Y0073110D02*
X0303184Y0070150D01*
X0308833Y0064500D01*
X0318550Y0064500D01*
X0314333Y0062783D01*
X0314333Y0058559D01*
X0320274Y0056724D02*
X0320274Y0052500D01*
X0315274Y0052500D01*
X0314333Y0053441D01*
X0311262Y0053970D02*
X0278605Y0053970D01*
X0269759Y0043985D02*
X0329789Y0043985D01*
X0329005Y0044984D02*
X0267026Y0044984D01*
X0267826Y0043985D02*
X0267908Y0043985D01*
X0271086Y0042987D02*
X0351833Y0042987D01*
X0351833Y0042809D02*
X0353127Y0039685D01*
X0355518Y0037294D01*
X0358643Y0036000D01*
X0362024Y0036000D01*
X0365148Y0037294D01*
X0367539Y0039685D01*
X0368833Y0042809D01*
X0368833Y0046191D01*
X0367539Y0049315D01*
X0365148Y0051706D01*
X0362024Y0053000D01*
X0358643Y0053000D01*
X0355518Y0051706D01*
X0353127Y0049315D01*
X0351833Y0046191D01*
X0351833Y0042809D01*
X0352173Y0041988D02*
X0271483Y0041988D01*
X0271483Y0040990D02*
X0352587Y0040990D01*
X0353001Y0039991D02*
X0271072Y0039991D01*
X0269705Y0038993D02*
X0353820Y0038993D01*
X0354818Y0037994D02*
X0265483Y0037994D01*
X0265483Y0038993D02*
X0267962Y0038993D01*
X0265077Y0036996D02*
X0356239Y0036996D01*
X0364428Y0036996D02*
X0369034Y0036996D01*
X0369034Y0037994D02*
X0365848Y0037994D01*
X0366847Y0038993D02*
X0369034Y0038993D01*
X0369034Y0039991D02*
X0367666Y0039991D01*
X0368080Y0040990D02*
X0369034Y0040990D01*
X0369034Y0041988D02*
X0368493Y0041988D01*
X0368833Y0042987D02*
X0369034Y0042987D01*
X0369034Y0043985D02*
X0368833Y0043985D01*
X0368833Y0044984D02*
X0369034Y0044984D01*
X0369034Y0045982D02*
X0368833Y0045982D01*
X0369034Y0046981D02*
X0368506Y0046981D01*
X0368093Y0047979D02*
X0369034Y0047979D01*
X0369034Y0048978D02*
X0367679Y0048978D01*
X0366878Y0049976D02*
X0369034Y0049976D01*
X0369034Y0050975D02*
X0365879Y0050975D01*
X0364503Y0051973D02*
X0369034Y0051973D01*
X0369034Y0052972D02*
X0362092Y0052972D01*
X0358574Y0052972D02*
X0340290Y0052972D01*
X0340290Y0053970D02*
X0369034Y0053970D01*
X0369034Y0054969D02*
X0340224Y0054969D01*
X0340290Y0055967D02*
X0369034Y0055967D01*
X0369034Y0056966D02*
X0338453Y0056966D01*
X0338117Y0057000D02*
X0338617Y0056500D01*
X0343333Y0056500D01*
X0354333Y0056500D01*
X0361333Y0063500D01*
X0360833Y0063955D02*
X0338570Y0063955D01*
X0338590Y0062957D02*
X0352833Y0062957D01*
X0352833Y0061958D02*
X0338590Y0061958D01*
X0338590Y0060960D02*
X0352833Y0060960D01*
X0360833Y0060960D02*
X0361833Y0060960D01*
X0361833Y0061958D02*
X0360833Y0061958D01*
X0360833Y0062957D02*
X0361833Y0062957D01*
X0360833Y0064000D02*
X0352833Y0064000D01*
X0352833Y0066599D01*
X0352909Y0066783D01*
X0353050Y0066924D01*
X0353234Y0067000D01*
X0360833Y0067000D01*
X0360833Y0064000D01*
X0360833Y0064954D02*
X0361833Y0064954D01*
X0361833Y0065952D02*
X0360833Y0065952D01*
X0360833Y0066951D02*
X0361833Y0066951D01*
X0369034Y0067949D02*
X0339479Y0067949D01*
X0339509Y0068948D02*
X0340838Y0068948D01*
X0338871Y0066951D02*
X0353115Y0066951D01*
X0352833Y0065952D02*
X0338570Y0065952D01*
X0338570Y0064954D02*
X0352833Y0064954D01*
X0351328Y0068948D02*
X0369034Y0068948D01*
X0361333Y0073500D02*
X0350892Y0073500D01*
X0348333Y0070941D01*
X0351405Y0070945D02*
X0352033Y0070945D01*
X0352048Y0069946D02*
X0351405Y0069946D01*
X0343833Y0070941D02*
X0336676Y0070941D01*
X0338117Y0072500D01*
X0337617Y0068276D01*
X0335892Y0066000D01*
X0335392Y0061724D01*
X0335617Y0061500D01*
X0338590Y0059961D02*
X0369034Y0059961D01*
X0369034Y0058963D02*
X0340252Y0058963D01*
X0340290Y0057964D02*
X0369034Y0057964D01*
X0356164Y0051973D02*
X0340290Y0051973D01*
X0340290Y0050975D02*
X0354787Y0050975D01*
X0353789Y0049976D02*
X0336309Y0049976D01*
X0334907Y0048978D02*
X0352988Y0048978D01*
X0352574Y0047979D02*
X0335503Y0047979D01*
X0335762Y0046981D02*
X0352161Y0046981D01*
X0351833Y0045982D02*
X0335762Y0045982D01*
X0335370Y0044984D02*
X0351833Y0044984D01*
X0351833Y0043985D02*
X0334587Y0043985D01*
X0330790Y0049976D02*
X0327857Y0049976D01*
X0322928Y0049976D02*
X0322739Y0049976D01*
X0325392Y0052500D02*
X0333550Y0052500D01*
X0333550Y0057000D01*
X0337780Y0055967D02*
X0338453Y0055967D01*
X0338453Y0054969D02*
X0337780Y0054969D01*
X0337780Y0053970D02*
X0338453Y0053970D01*
X0338453Y0052972D02*
X0337780Y0052972D01*
X0338117Y0052500D02*
X0338117Y0057000D01*
X0337780Y0051973D02*
X0338453Y0051973D01*
X0338453Y0050975D02*
X0337780Y0050975D01*
X0325392Y0052500D02*
X0325117Y0052776D01*
X0325117Y0057000D01*
X0323617Y0060500D01*
X0323833Y0060500D01*
X0330274Y0062276D02*
X0331050Y0061500D01*
X0330274Y0062276D02*
X0330774Y0066000D01*
X0329274Y0064500D01*
X0323117Y0064500D01*
X0322014Y0069800D02*
X0321452Y0069800D01*
X0321452Y0072928D01*
X0322014Y0072928D01*
X0322014Y0071689D01*
X0323703Y0071689D01*
X0323703Y0071311D01*
X0322014Y0071311D01*
X0322014Y0069800D01*
X0322014Y0069946D02*
X0321452Y0069946D01*
X0321452Y0070945D02*
X0322014Y0070945D01*
X0322014Y0071943D02*
X0321452Y0071943D01*
X0323892Y0071500D02*
X0324392Y0072500D01*
X0326333Y0071500D01*
X0325770Y0071943D02*
X0327533Y0071943D01*
X0327533Y0072942D02*
X0325842Y0072942D01*
X0326590Y0073940D02*
X0327533Y0073940D01*
X0327533Y0074939D02*
X0326590Y0074939D01*
X0319050Y0076000D02*
X0318550Y0071776D01*
X0318774Y0071500D01*
X0325770Y0070945D02*
X0327233Y0070945D01*
X0326234Y0069946D02*
X0325770Y0069946D01*
X0333550Y0072500D02*
X0333550Y0077224D01*
X0333833Y0077941D01*
X0331274Y0077941D01*
X0319050Y0076000D02*
X0317991Y0075441D01*
X0313333Y0076441D01*
X0311392Y0076441D01*
X0310833Y0077000D01*
X0303231Y0077000D01*
X0303184Y0077047D01*
X0303184Y0080984D02*
X0303199Y0081000D01*
X0307333Y0081000D01*
X0315833Y0089500D01*
X0319050Y0089500D01*
X0318333Y0093000D02*
X0315833Y0092500D01*
X0306333Y0083000D01*
X0303231Y0083000D01*
X0303184Y0082953D01*
X0294333Y0081929D02*
X0293333Y0081929D01*
X0293833Y0082927D02*
X0293833Y0082927D01*
X0293833Y0083926D02*
X0293833Y0083926D01*
X0293833Y0084924D02*
X0293833Y0084924D01*
X0293333Y0085923D02*
X0294333Y0085923D01*
X0294818Y0089350D02*
X0294818Y0094516D01*
X0293833Y0095500D01*
X0296833Y0095500D01*
X0296786Y0095453D01*
X0296786Y0089350D01*
X0296786Y0093453D01*
X0298333Y0095000D01*
X0298333Y0097717D01*
X0302833Y0097717D02*
X0302833Y0095500D01*
X0298755Y0091421D01*
X0298755Y0089350D01*
X0300723Y0089350D02*
X0305373Y0094000D01*
X0305833Y0094500D01*
X0307333Y0096000D01*
X0307333Y0097717D01*
X0303170Y0102897D02*
X0302497Y0102897D01*
X0302497Y0103896D02*
X0303170Y0103896D01*
X0293833Y0098217D02*
X0293833Y0095500D01*
X0292833Y0093500D02*
X0289333Y0097000D01*
X0289333Y0097717D01*
X0286333Y0094500D02*
X0284333Y0096000D01*
X0283151Y0094637D02*
X0283488Y0094300D01*
X0280961Y0094300D01*
X0280350Y0094387D01*
X0280233Y0094300D01*
X0280088Y0094300D01*
X0279651Y0093863D01*
X0279157Y0093493D01*
X0279157Y0095043D01*
X0280497Y0095043D01*
X0280497Y0096880D01*
X0281170Y0096880D01*
X0281170Y0095043D01*
X0282652Y0095043D01*
X0282657Y0095007D01*
X0283151Y0094637D01*
X0282788Y0094909D02*
X0279157Y0094909D01*
X0279157Y0093911D02*
X0279698Y0093911D01*
X0286333Y0094500D02*
X0288833Y0094500D01*
X0290881Y0092453D01*
X0290881Y0089350D01*
X0292833Y0089366D02*
X0292849Y0089350D01*
X0292833Y0089366D02*
X0292833Y0093500D01*
X0281170Y0095908D02*
X0280497Y0095908D01*
X0280833Y0097217D02*
X0277550Y0099000D01*
X0274333Y0099000D01*
X0253333Y0099000D01*
X0252050Y0100283D01*
X0250333Y0100283D01*
X0250333Y0104000D01*
X0246602Y0102897D02*
X0254510Y0102897D01*
X0254510Y0101899D02*
X0252605Y0101899D01*
X0252605Y0100900D02*
X0254510Y0100900D01*
X0252605Y0099902D02*
X0277762Y0099902D01*
X0278430Y0098903D02*
X0252605Y0098903D01*
X0253405Y0097905D02*
X0255238Y0097905D01*
X0250670Y0100900D02*
X0249997Y0100900D01*
X0249997Y0101899D02*
X0250670Y0101899D01*
X0248062Y0101899D02*
X0246602Y0101899D01*
X0246208Y0100900D02*
X0248062Y0100900D01*
X0248062Y0099902D02*
X0245554Y0099902D01*
X0246290Y0098903D02*
X0248062Y0098903D01*
X0247262Y0097905D02*
X0246602Y0097905D01*
X0246602Y0096906D02*
X0247262Y0096906D01*
X0246104Y0095649D02*
X0245185Y0094729D01*
X0243983Y0094231D01*
X0242683Y0094231D01*
X0241482Y0094729D01*
X0240562Y0095649D01*
X0240372Y0096108D01*
X0240251Y0095926D01*
X0239907Y0095583D01*
X0239503Y0095312D01*
X0239053Y0095126D01*
X0238576Y0095031D01*
X0238333Y0095031D01*
X0238333Y0097500D01*
X0238333Y0097500D01*
X0235865Y0097500D01*
X0235865Y0097743D01*
X0235960Y0098220D01*
X0236146Y0098669D01*
X0236416Y0099074D01*
X0236760Y0099417D01*
X0236941Y0099539D01*
X0236482Y0099729D01*
X0235833Y0100378D01*
X0235185Y0099729D01*
X0234725Y0099539D01*
X0234907Y0099417D01*
X0235251Y0099074D01*
X0235521Y0098669D01*
X0235707Y0098220D01*
X0235802Y0097743D01*
X0235802Y0097500D01*
X0233333Y0097500D01*
X0233333Y0097500D01*
X0233333Y0095031D01*
X0233090Y0095031D01*
X0232613Y0095126D01*
X0232164Y0095312D01*
X0231760Y0095583D01*
X0231416Y0095926D01*
X0231295Y0096108D01*
X0231104Y0095649D01*
X0230185Y0094729D01*
X0228983Y0094231D01*
X0227683Y0094231D01*
X0226482Y0094729D01*
X0225833Y0095378D01*
X0225185Y0094729D01*
X0223983Y0094231D01*
X0222683Y0094231D01*
X0221482Y0094729D01*
X0220562Y0095649D01*
X0220065Y0096850D01*
X0220065Y0098150D01*
X0220562Y0099351D01*
X0220970Y0099759D01*
X0219905Y0099759D01*
X0219905Y0099643D01*
X0219262Y0099000D01*
X0219905Y0098357D01*
X0219905Y0094525D01*
X0219143Y0093763D01*
X0214523Y0093763D01*
X0214333Y0093953D01*
X0214143Y0093763D01*
X0213983Y0093763D01*
X0213983Y0093473D01*
X0213580Y0092499D01*
X0213046Y0091965D01*
X0213287Y0091724D01*
X0213287Y0090647D01*
X0213260Y0090620D01*
X0213342Y0090537D01*
X0210901Y0088095D01*
X0210901Y0088095D01*
X0210726Y0087920D02*
X0210725Y0087920D01*
X0209727Y0086921D02*
X0209727Y0086921D01*
X0208729Y0085923D02*
X0208728Y0085923D01*
X0208515Y0084924D02*
X0202698Y0084924D01*
X0203697Y0083926D02*
X0209056Y0083926D01*
X0210055Y0082927D02*
X0204695Y0082927D01*
X0213685Y0085311D02*
X0216874Y0088500D01*
X0218333Y0088500D01*
X0217090Y0091500D02*
X0212293Y0086703D01*
X0211724Y0088918D02*
X0211724Y0088918D01*
X0212722Y0089917D02*
X0212723Y0089917D01*
X0213287Y0090915D02*
X0213959Y0090915D01*
X0213097Y0091914D02*
X0214958Y0091914D01*
X0215956Y0092912D02*
X0213751Y0092912D01*
X0214291Y0093911D02*
X0214376Y0093911D01*
X0212833Y0095441D02*
X0211333Y0094000D01*
X0209509Y0094117D02*
X0211833Y0096441D01*
X0212833Y0095441D01*
X0211833Y0096441D02*
X0216833Y0096441D01*
X0219905Y0096906D02*
X0220065Y0096906D01*
X0220065Y0097905D02*
X0219905Y0097905D01*
X0220377Y0098903D02*
X0219359Y0098903D01*
X0216833Y0101559D02*
X0216833Y0103000D01*
X0215333Y0104500D01*
X0217485Y0104894D02*
X0221105Y0104894D01*
X0220374Y0103896D02*
X0219485Y0103896D01*
X0222392Y0101559D02*
X0223333Y0102500D01*
X0222392Y0101559D02*
X0216833Y0101559D01*
X0225561Y0104894D02*
X0226105Y0104894D01*
X0230561Y0104894D02*
X0231105Y0104894D01*
X0235561Y0104894D02*
X0236105Y0104894D01*
X0240561Y0104894D02*
X0241105Y0104894D01*
X0245561Y0104894D02*
X0254510Y0104894D01*
X0254510Y0103896D02*
X0246293Y0103896D01*
X0236309Y0099902D02*
X0235357Y0099902D01*
X0235365Y0098903D02*
X0236302Y0098903D01*
X0235897Y0097905D02*
X0235770Y0097905D01*
X0235802Y0097500D02*
X0233333Y0097500D01*
X0238333Y0097500D01*
X0235865Y0097500D01*
X0235865Y0097257D01*
X0235960Y0096780D01*
X0236146Y0096331D01*
X0236416Y0095926D01*
X0236760Y0095583D01*
X0237164Y0095312D01*
X0237613Y0095126D01*
X0238090Y0095031D01*
X0238333Y0095031D01*
X0238333Y0097500D01*
X0238333Y0097500D01*
X0238333Y0096906D02*
X0238333Y0096906D01*
X0238333Y0095908D02*
X0238333Y0095908D01*
X0236435Y0095908D02*
X0235232Y0095908D01*
X0235251Y0095926D02*
X0235521Y0096331D01*
X0235707Y0096780D01*
X0235802Y0097257D01*
X0235802Y0097500D01*
X0235732Y0096906D02*
X0235935Y0096906D01*
X0235251Y0095926D02*
X0234907Y0095583D01*
X0234503Y0095312D01*
X0234053Y0095126D01*
X0233576Y0095031D01*
X0233333Y0095031D01*
X0233333Y0097500D01*
X0233333Y0097500D01*
X0233333Y0096906D02*
X0233333Y0096906D01*
X0233333Y0095908D02*
X0233333Y0095908D01*
X0231435Y0095908D02*
X0231212Y0095908D01*
X0230365Y0094909D02*
X0241302Y0094909D01*
X0240455Y0095908D02*
X0240232Y0095908D01*
X0245365Y0094909D02*
X0247262Y0094909D01*
X0247262Y0093911D02*
X0219291Y0093911D01*
X0219905Y0094909D02*
X0221302Y0094909D01*
X0220455Y0095908D02*
X0219905Y0095908D01*
X0225365Y0094909D02*
X0226302Y0094909D01*
X0221967Y0092912D02*
X0247854Y0092912D01*
X0245465Y0091914D02*
X0254510Y0091914D01*
X0254510Y0092912D02*
X0252812Y0092912D01*
X0253405Y0093911D02*
X0254510Y0093911D01*
X0264590Y0091914D02*
X0265374Y0091914D01*
X0268468Y0093911D02*
X0269077Y0093911D01*
X0269077Y0094909D02*
X0267470Y0094909D01*
X0266471Y0095908D02*
X0269077Y0095908D01*
X0269077Y0096906D02*
X0264590Y0096906D01*
X0263862Y0097905D02*
X0269805Y0097905D01*
X0269077Y0100900D02*
X0264590Y0100900D01*
X0264590Y0101899D02*
X0269077Y0101899D01*
X0269077Y0102897D02*
X0264590Y0102897D01*
X0278428Y0097905D02*
X0278562Y0097905D01*
X0256673Y0088918D02*
X0248461Y0088918D01*
X0250417Y0087920D02*
X0256644Y0087920D01*
X0256644Y0086921D02*
X0251613Y0086921D01*
X0251983Y0085923D02*
X0256765Y0085923D01*
X0254761Y0084924D02*
X0251963Y0084924D01*
X0251507Y0083926D02*
X0253555Y0083926D01*
X0253183Y0082927D02*
X0251654Y0082927D01*
X0252317Y0081929D02*
X0253202Y0081929D01*
X0253656Y0080930D02*
X0252483Y0080930D01*
X0252259Y0079932D02*
X0254017Y0079932D01*
X0253205Y0078933D02*
X0252946Y0078933D01*
X0255333Y0077500D02*
X0255583Y0077750D01*
X0255333Y0077500D02*
X0259644Y0077500D01*
X0265333Y0077559D02*
X0265833Y0079000D01*
X0264833Y0080000D01*
X0264833Y0082500D01*
X0264583Y0080250D01*
X0262333Y0082500D01*
X0259644Y0082500D01*
X0255833Y0082500D01*
X0262809Y0084924D02*
X0263761Y0084924D01*
X0264583Y0080250D02*
X0264833Y0080000D01*
X0275617Y0079531D02*
X0275617Y0083000D01*
X0277833Y0083000D01*
X0280833Y0086000D01*
X0280833Y0086500D01*
X0281223Y0086890D01*
X0284483Y0086890D01*
X0287456Y0080500D02*
X0288290Y0080500D01*
X0288215Y0080221D01*
X0288215Y0080000D01*
X0288215Y0079779D01*
X0288290Y0079500D01*
X0287456Y0079500D01*
X0287456Y0079799D01*
X0287255Y0080000D01*
X0287456Y0080201D01*
X0287456Y0080500D01*
X0287323Y0079932D02*
X0288215Y0079932D01*
X0288215Y0080000D02*
X0289896Y0080000D01*
X0289896Y0080000D01*
X0288215Y0080000D01*
X0289896Y0080000D02*
X0291577Y0080000D01*
X0289896Y0080000D01*
X0289896Y0080000D01*
X0291577Y0079932D02*
X0292152Y0079932D01*
X0284483Y0079016D02*
X0276133Y0079016D01*
X0275617Y0079531D01*
X0276133Y0079016D02*
X0275617Y0078500D01*
X0276333Y0078500D01*
X0278833Y0081000D01*
X0280881Y0077047D02*
X0277833Y0074000D01*
X0275617Y0074000D01*
X0276333Y0069000D02*
X0282412Y0075079D01*
X0284483Y0075079D01*
X0284483Y0073110D02*
X0284944Y0073110D01*
X0284483Y0077047D02*
X0280881Y0077047D01*
X0273389Y0070945D02*
X0268405Y0070945D01*
X0276333Y0069000D02*
X0257333Y0069000D01*
X0248844Y0071943D02*
X0247633Y0071943D01*
X0247633Y0072942D02*
X0247846Y0072942D01*
X0245833Y0074000D02*
X0242333Y0077500D01*
X0236022Y0077500D01*
X0231833Y0077500D01*
X0236022Y0077500D02*
X0236022Y0072500D01*
X0220931Y0067949D02*
X0197530Y0067949D01*
X0198266Y0068948D02*
X0217840Y0068948D01*
X0216841Y0069946D02*
X0198483Y0069946D01*
X0198310Y0070945D02*
X0216533Y0070945D01*
X0216533Y0071943D02*
X0215024Y0071943D01*
X0215763Y0072942D02*
X0216533Y0072942D01*
X0216533Y0073940D02*
X0215995Y0073940D01*
X0216994Y0074939D02*
X0217470Y0074939D01*
X0213509Y0074000D02*
X0213333Y0074000D01*
X0210903Y0072942D02*
X0198763Y0072942D01*
X0198024Y0071943D02*
X0211642Y0071943D01*
X0206833Y0068500D02*
X0203833Y0068500D01*
X0197834Y0064954D02*
X0217936Y0064954D01*
X0218408Y0065426D02*
X0218408Y0065426D01*
X0218934Y0065952D02*
X0191732Y0065952D01*
X0192731Y0064954D02*
X0195833Y0064954D01*
X0194568Y0063955D02*
X0193729Y0063955D01*
X0193800Y0062957D02*
X0194183Y0062957D01*
X0193855Y0062698D02*
X0191414Y0060256D01*
X0193833Y0062676D01*
X0194333Y0066500D01*
X0194833Y0067000D01*
X0190734Y0066951D02*
X0219933Y0066951D01*
X0223429Y0064432D02*
X0225861Y0062000D01*
X0227833Y0064500D02*
X0226509Y0065824D01*
X0224821Y0065824D01*
X0227833Y0064500D02*
X0239046Y0064500D01*
X0244333Y0059000D01*
X0245164Y0058169D01*
X0245164Y0057882D01*
X0249451Y0057882D01*
X0249833Y0057500D01*
X0236680Y0057059D02*
X0235274Y0057059D01*
X0233833Y0059000D01*
X0235274Y0057059D02*
X0231833Y0057559D01*
X0236503Y0057882D02*
X0236680Y0057059D01*
X0244924Y0063955D02*
X0257096Y0063955D01*
X0228892Y0044441D02*
X0223333Y0050000D01*
X0228892Y0044441D02*
X0228892Y0042500D01*
X0229333Y0042059D01*
X0229333Y0039000D01*
X0231333Y0037000D01*
X0239833Y0037000D01*
X0242286Y0035997D02*
X0261951Y0035997D01*
X0263715Y0035997D02*
X0369034Y0035997D01*
X0311872Y0055967D02*
X0307605Y0055967D01*
X0307605Y0054969D02*
X0311262Y0054969D01*
X0305670Y0054969D02*
X0304997Y0054969D01*
X0320274Y0056724D02*
X0320550Y0057000D01*
X0268833Y0041500D02*
X0265290Y0041500D01*
X0264164Y0042626D01*
X0260333Y0041732D02*
X0259833Y0042232D01*
X0260333Y0041732D02*
X0260333Y0039000D01*
X0260833Y0038500D01*
X0262833Y0038500D01*
X0259792Y0036996D02*
X0255077Y0036996D01*
X0255785Y0037994D02*
X0258794Y0037994D01*
X0257888Y0038993D02*
X0255983Y0038993D01*
X0255791Y0039991D02*
X0257549Y0039991D01*
X0255503Y0042626D02*
X0253333Y0040457D01*
X0253333Y0039000D01*
X0250882Y0037994D02*
X0242290Y0037994D01*
X0242483Y0036996D02*
X0251590Y0036996D01*
X0245164Y0043118D02*
X0236503Y0043118D01*
X0236885Y0042500D01*
X0241833Y0043000D01*
X0227794Y0037994D02*
X0126208Y0037994D01*
X0124458Y0037994D02*
X0121375Y0037994D01*
X0114463Y0038993D02*
X0114085Y0038993D01*
X0114085Y0039991D02*
X0114463Y0039991D01*
X0114463Y0041988D02*
X0114085Y0041988D01*
X0114085Y0042987D02*
X0114463Y0042987D01*
X0114463Y0043985D02*
X0114085Y0043985D01*
X0114085Y0044984D02*
X0114463Y0044984D01*
X0112396Y0039991D02*
X0103166Y0039991D01*
X0102347Y0038993D02*
X0112453Y0038993D01*
X0130394Y0043985D02*
X0130465Y0043985D01*
X0175280Y0060960D02*
X0177711Y0060960D01*
X0176713Y0059961D02*
X0176278Y0059961D01*
X0175112Y0061958D02*
X0174281Y0061958D01*
X0168833Y0067000D02*
X0168833Y0072500D01*
X0173833Y0077500D01*
X0182522Y0077500D01*
X0185846Y0074176D01*
X0185461Y0071943D02*
X0185045Y0071943D01*
X0185392Y0070945D02*
X0186459Y0070945D01*
X0185392Y0069946D02*
X0193098Y0069946D01*
X0192099Y0070945D02*
X0188630Y0070945D01*
X0189628Y0071943D02*
X0191101Y0071943D01*
X0186352Y0068948D02*
X0185392Y0068948D01*
X0199099Y0063955D02*
X0199836Y0063955D01*
X0201830Y0063955D02*
X0216937Y0063955D01*
X0215939Y0062957D02*
X0203098Y0062957D01*
X0203483Y0061958D02*
X0214940Y0061958D01*
X0214083Y0060960D02*
X0203478Y0060960D01*
X0203042Y0059961D02*
X0214075Y0059961D01*
X0214978Y0058963D02*
X0214979Y0058963D01*
X0211945Y0058963D02*
X0206812Y0058963D01*
X0204854Y0058963D02*
X0201633Y0058963D01*
X0200019Y0057964D02*
X0203572Y0057964D01*
X0203183Y0056966D02*
X0200719Y0056966D01*
X0201717Y0055967D02*
X0203186Y0055967D01*
X0203068Y0054969D02*
X0202716Y0054969D01*
X0198374Y0053297D02*
X0195577Y0050500D01*
X0193333Y0050500D01*
X0190833Y0052000D01*
X0189833Y0052000D01*
X0189941Y0056000D02*
X0187333Y0056000D01*
X0186333Y0057000D01*
X0186333Y0058000D01*
X0189941Y0056000D02*
X0192806Y0058864D01*
X0194198Y0057473D02*
X0197333Y0060608D01*
X0196833Y0062500D01*
X0193855Y0062698D02*
X0191414Y0060257D01*
X0191414Y0060256D01*
X0192117Y0060960D02*
X0192117Y0060960D01*
X0193116Y0061958D02*
X0193116Y0061958D01*
X0195590Y0056081D02*
X0199833Y0060324D01*
X0200833Y0061500D01*
X0181533Y0054969D02*
X0180965Y0054969D01*
X0181533Y0053970D02*
X0179966Y0053970D01*
X0178968Y0052972D02*
X0181533Y0052972D01*
X0181533Y0051973D02*
X0177969Y0051973D01*
X0176971Y0050975D02*
X0181533Y0050975D01*
X0197387Y0046981D02*
X0198675Y0046981D01*
X0164680Y0072000D02*
X0164333Y0072346D01*
X0164333Y0075000D01*
X0161683Y0074976D02*
X0161683Y0075527D01*
X0162087Y0076501D01*
X0162832Y0077247D01*
X0163806Y0077650D01*
X0164860Y0077650D01*
X0165834Y0077247D01*
X0166580Y0076501D01*
X0166983Y0075527D01*
X0166983Y0075268D01*
X0167384Y0075268D01*
X0168145Y0074507D01*
X0168145Y0074357D01*
X0172488Y0078700D01*
X0159090Y0078700D01*
X0159090Y0078190D01*
X0158328Y0077428D01*
X0153983Y0077428D01*
X0153983Y0076973D01*
X0153580Y0075999D01*
X0152834Y0075253D01*
X0152396Y0075072D01*
X0153809Y0075072D01*
X0154522Y0074359D01*
X0154522Y0074507D01*
X0155283Y0075268D01*
X0160691Y0075268D01*
X0161333Y0074626D01*
X0161683Y0074976D01*
X0161646Y0074939D02*
X0161020Y0074939D01*
X0161853Y0075937D02*
X0153518Y0075937D01*
X0153941Y0074939D02*
X0154954Y0074939D01*
X0153968Y0076936D02*
X0162522Y0076936D01*
X0166145Y0076936D02*
X0170724Y0076936D01*
X0171722Y0077934D02*
X0158835Y0077934D01*
X0151333Y0077500D02*
X0151333Y0080283D01*
X0151550Y0080500D01*
X0166813Y0075937D02*
X0169725Y0075937D01*
X0168727Y0074939D02*
X0167713Y0074939D01*
X0142833Y0075000D02*
X0142833Y0072500D01*
X0122715Y0068260D02*
X0122660Y0068205D01*
X0116585Y0068205D01*
X0104833Y0070803D02*
X0104833Y0073402D01*
X0104833Y0075500D01*
X0104833Y0076000D01*
X0105333Y0076500D01*
X0107833Y0079000D01*
X0107833Y0080000D01*
X0107225Y0082927D02*
X0094806Y0082927D01*
X0095804Y0083926D02*
X0109723Y0083926D01*
X0110510Y0084924D02*
X0106803Y0084924D01*
X0105833Y0086500D02*
X0095833Y0086500D01*
X0090833Y0081500D01*
X0090833Y0077465D01*
X0089109Y0075740D01*
X0092377Y0075937D02*
X0095289Y0075937D01*
X0095289Y0074939D02*
X0092377Y0074939D01*
X0092377Y0073940D02*
X0095289Y0073940D01*
X0095230Y0072942D02*
X0091577Y0072942D01*
X0091833Y0072000D02*
X0089109Y0072000D01*
X0089298Y0071943D02*
X0094231Y0071943D01*
X0093233Y0070945D02*
X0091577Y0070945D01*
X0092333Y0071500D02*
X0091833Y0072000D01*
X0093833Y0069000D02*
X0096833Y0072000D01*
X0098558Y0072000D01*
X0093833Y0069000D02*
X0093833Y0066500D01*
X0098558Y0075740D02*
X0098818Y0076000D01*
X0104833Y0076000D01*
X0100333Y0078933D02*
X0092633Y0078933D01*
X0092633Y0077934D02*
X0095567Y0077934D01*
X0095289Y0076936D02*
X0092633Y0076936D01*
X0092633Y0079932D02*
X0100183Y0079932D01*
X0100350Y0080930D02*
X0092809Y0080930D01*
X0093807Y0081929D02*
X0101014Y0081929D01*
X0092710Y0085923D02*
X0086833Y0085923D01*
X0086833Y0086921D02*
X0093709Y0086921D01*
X0094707Y0087920D02*
X0086833Y0087920D01*
X0086833Y0088918D02*
X0105706Y0088918D01*
X0106704Y0089917D02*
X0086833Y0089917D01*
X0086833Y0090915D02*
X0107703Y0090915D01*
X0108343Y0091914D02*
X0086833Y0091914D01*
X0086833Y0092912D02*
X0091940Y0092912D01*
X0090402Y0093911D02*
X0086833Y0093911D01*
X0086833Y0094909D02*
X0089403Y0094909D01*
X0088535Y0095908D02*
X0086833Y0095908D01*
X0086833Y0096906D02*
X0088122Y0096906D01*
X0087708Y0097905D02*
X0086833Y0097905D01*
X0086833Y0098903D02*
X0087333Y0098903D01*
X0087333Y0099902D02*
X0086833Y0099902D01*
X0086833Y0100900D02*
X0087333Y0100900D01*
X0087333Y0101899D02*
X0086833Y0101899D01*
X0086833Y0102897D02*
X0087626Y0102897D01*
X0088040Y0103896D02*
X0086833Y0103896D01*
X0086833Y0104894D02*
X0088453Y0104894D01*
X0089205Y0105893D02*
X0086833Y0105893D01*
X0086833Y0106891D02*
X0090204Y0106891D01*
X0099726Y0092912D02*
X0108998Y0092912D01*
X0110333Y0091000D02*
X0105833Y0086500D01*
X0110333Y0091000D02*
X0110833Y0091000D01*
X0091712Y0084924D02*
X0086833Y0084924D01*
X0086833Y0083926D02*
X0090713Y0083926D01*
X0089715Y0082927D02*
X0086833Y0082927D01*
X0086833Y0081929D02*
X0089033Y0081929D01*
X0089033Y0080930D02*
X0086833Y0080930D01*
X0086833Y0079932D02*
X0089033Y0079932D01*
X0089033Y0078933D02*
X0086833Y0078933D01*
X0128952Y0062957D02*
X0129887Y0062957D01*
X0129514Y0061958D02*
X0128952Y0061958D01*
X0194797Y0081929D02*
X0194797Y0081929D01*
X0209509Y0089487D02*
X0209509Y0094117D01*
X0217090Y0091500D02*
X0220833Y0091500D01*
X0221333Y0091000D01*
X0222833Y0088000D01*
X0224664Y0089917D02*
X0226127Y0089917D01*
X0227109Y0090915D02*
X0223388Y0090915D01*
X0222965Y0091914D02*
X0228091Y0091914D01*
X0196081Y0102897D02*
X0195703Y0102897D01*
X0190774Y0101500D02*
X0184786Y0101500D01*
X0181518Y0101899D02*
X0181149Y0101899D01*
X0181149Y0102897D02*
X0181518Y0102897D01*
X0181752Y0103896D02*
X0180914Y0103896D01*
X0187820Y0103896D02*
X0188182Y0103896D01*
X0181518Y0100900D02*
X0181149Y0100900D01*
X0181149Y0099902D02*
X0181518Y0099902D01*
X0181953Y0098903D02*
X0180713Y0098903D01*
X0187619Y0098903D02*
X0188383Y0098903D01*
X0159333Y0091500D02*
X0156117Y0091500D01*
X0156117Y0097000D01*
X0153735Y0099902D02*
X0146133Y0099902D01*
X0137533Y0099902D02*
X0136133Y0099902D01*
X0136133Y0098903D02*
X0137533Y0098903D01*
X0137533Y0097905D02*
X0136230Y0097905D01*
X0318333Y0093283D02*
X0319050Y0094000D01*
X0319050Y0095783D01*
X0318833Y0096000D01*
X0318833Y0094500D01*
X0318333Y0093283D02*
X0318333Y0093000D01*
X0325790Y0090915D02*
X0369034Y0090915D01*
X0330762Y0084924D02*
X0323953Y0084924D01*
D34*
X0328333Y0086000D03*
X0338333Y0089000D03*
X0318833Y0096000D03*
X0296833Y0095500D03*
X0285333Y0102500D03*
X0274333Y0099000D03*
X0250333Y0104000D03*
X0211333Y0094000D03*
X0202333Y0092000D03*
X0196333Y0091500D03*
X0188333Y0094000D03*
X0178333Y0096500D03*
X0166333Y0095500D03*
X0159333Y0091500D03*
X0149833Y0085000D03*
X0134833Y0079000D03*
X0140333Y0075000D03*
X0140333Y0072500D03*
X0137833Y0072500D03*
X0142833Y0072500D03*
X0142833Y0075000D03*
X0145333Y0075000D03*
X0151333Y0077500D03*
X0157833Y0076500D03*
X0164333Y0075000D03*
X0158333Y0069000D03*
X0142833Y0070000D03*
X0140333Y0070000D03*
X0137833Y0070000D03*
X0129333Y0072500D03*
X0110333Y0081000D03*
X0107833Y0080000D03*
X0105333Y0080000D03*
X0102833Y0080000D03*
X0112333Y0083000D03*
X0125833Y0087000D03*
X0132833Y0086500D03*
X0110833Y0091000D03*
X0118333Y0104000D03*
X0150833Y0104000D03*
X0180333Y0084000D03*
X0196333Y0074000D03*
X0203833Y0071500D03*
X0206833Y0071500D03*
X0206833Y0068500D03*
X0203833Y0068500D03*
X0195833Y0070000D03*
X0213333Y0074000D03*
X0209333Y0078500D03*
X0231833Y0077500D03*
X0242833Y0073000D03*
X0255583Y0077750D03*
X0249833Y0081000D03*
X0255833Y0082500D03*
X0249333Y0085500D03*
X0244833Y0085500D03*
X0264833Y0082500D03*
X0267833Y0081000D03*
X0278833Y0081000D03*
X0270333Y0072000D03*
X0281833Y0065500D03*
X0286833Y0066000D03*
X0293833Y0064000D03*
X0305333Y0064000D03*
X0323833Y0060500D03*
X0343333Y0056500D03*
X0326333Y0071500D03*
X0270333Y0052000D03*
X0249833Y0052000D03*
X0249833Y0057500D03*
X0238333Y0051000D03*
X0241833Y0043000D03*
X0253333Y0039000D03*
X0262833Y0038500D03*
X0268833Y0041500D03*
X0239833Y0037000D03*
X0219333Y0038500D03*
X0214833Y0046500D03*
X0202333Y0047000D03*
X0191333Y0048500D03*
X0189833Y0052000D03*
X0186333Y0058000D03*
X0196833Y0062500D03*
X0200833Y0061500D03*
X0205833Y0056500D03*
X0233833Y0059000D03*
X0249833Y0065000D03*
X0267333Y0061000D03*
X0222833Y0088000D03*
X0218333Y0088500D03*
X0150833Y0059000D03*
X0160333Y0054500D03*
X0171833Y0049000D03*
X0160833Y0048500D03*
X0149833Y0045000D03*
X0143833Y0039000D03*
X0125333Y0040500D03*
X0123333Y0048500D03*
X0110833Y0059000D03*
X0108833Y0064000D03*
X0092333Y0071500D03*
X0088833Y0061000D03*
X0305833Y0105500D03*
D35*
X0131833Y0096500D02*
X0123333Y0096500D01*
X0118333Y0091500D01*
X0118333Y0077748D01*
X0116585Y0076000D01*
X0115333Y0073500D02*
X0115333Y0065000D01*
X0116333Y0064000D01*
X0116585Y0063500D02*
X0131585Y0048500D01*
X0131833Y0048500D01*
D36*
X0105333Y0071500D02*
X0105333Y0075000D01*
X0104833Y0075500D01*
X0104833Y0079500D01*
X0105333Y0080000D01*
X0102833Y0080000D01*
X0102833Y0076500D01*
X0105333Y0076500D01*
X0105333Y0077000D01*
X0107333Y0079000D01*
X0105333Y0079000D01*
X0104333Y0078000D01*
X0104333Y0071500D01*
X0105333Y0071500D01*
X0105333Y0080000D02*
X0107833Y0080000D01*
X0109333Y0080000D01*
X0110333Y0081000D01*
X0108833Y0081000D01*
X0107833Y0080000D01*
X0110333Y0081000D02*
X0112333Y0083000D01*
D37*
X0139333Y0090000D02*
X0141833Y0096500D01*
X0144333Y0090000D01*
X0141833Y0090000D01*
X0139333Y0090000D01*
X0141833Y0090000D02*
X0141833Y0089500D01*
X0141833Y0090000D02*
X0141833Y0096500D01*
X0141833Y0054500D02*
X0144333Y0054500D01*
X0141833Y0048500D01*
X0139333Y0054000D01*
X0139333Y0054500D02*
X0141833Y0054500D01*
X0141833Y0048500D01*
M02*
