G75*
%MOIN*%
%OFA0B0*%
%FSLAX25Y25*%
%IPPOS*%
%LPD*%
%AMOC8*
5,1,8,0,0,1.08239X$1,22.5*
%
%ADD10R,0.06106X0.01302*%
%ADD11R,0.04924X0.02365*%
%ADD12R,0.04531X0.04137*%
%ADD13R,0.04137X0.02956*%
%ADD14R,0.04098X0.01794*%
%ADD15R,0.06791X0.08799*%
%ADD16R,0.02956X0.03743*%
%ADD17R,0.03743X0.02956*%
%ADD18R,0.04137X0.07287*%
%ADD19C,0.04137*%
%ADD20R,0.05200X0.02700*%
%ADD21R,0.04924X0.02169*%
%ADD22R,0.02169X0.04924*%
%ADD23R,0.06200X0.06200*%
%ADD24C,0.01378*%
%ADD25R,0.13780X0.13780*%
%ADD26R,0.03546X0.03743*%
%ADD27R,0.03743X0.03546*%
%ADD28R,0.07680X0.04531*%
%ADD29R,0.16200X0.06200*%
%ADD30C,0.12011*%
%ADD31C,0.01241*%
%ADD32C,0.13200*%
%ADD33C,0.03350*%
%ADD34R,0.01794X0.04098*%
%ADD35R,0.08799X0.06791*%
D10*
G36*
X0183227Y0064126D02*
X0187544Y0068443D01*
X0188465Y0067522D01*
X0184148Y0063205D01*
X0183227Y0064126D01*
G37*
G36*
X0184619Y0062734D02*
X0188936Y0067051D01*
X0189857Y0066130D01*
X0185540Y0061813D01*
X0184619Y0062734D01*
G37*
G36*
X0186011Y0061342D02*
X0190328Y0065659D01*
X0191249Y0064738D01*
X0186932Y0060421D01*
X0186011Y0061342D01*
G37*
G36*
X0187403Y0059950D02*
X0191720Y0064267D01*
X0192641Y0063346D01*
X0188324Y0059029D01*
X0187403Y0059950D01*
G37*
G36*
X0188795Y0058558D02*
X0193112Y0062875D01*
X0194033Y0061954D01*
X0189716Y0057637D01*
X0188795Y0058558D01*
G37*
G36*
X0190187Y0057166D02*
X0194504Y0061483D01*
X0195425Y0060562D01*
X0191108Y0056245D01*
X0190187Y0057166D01*
G37*
G36*
X0191579Y0055775D02*
X0195896Y0060092D01*
X0196817Y0059171D01*
X0192500Y0054854D01*
X0191579Y0055775D01*
G37*
G36*
X0192971Y0054383D02*
X0197288Y0058700D01*
X0198209Y0057779D01*
X0193892Y0053462D01*
X0192971Y0054383D01*
G37*
G36*
X0194363Y0052991D02*
X0198680Y0057308D01*
X0199601Y0056387D01*
X0195284Y0052070D01*
X0194363Y0052991D01*
G37*
G36*
X0195755Y0051599D02*
X0200072Y0055916D01*
X0200993Y0054995D01*
X0196676Y0050678D01*
X0195755Y0051599D01*
G37*
G36*
X0197147Y0050207D02*
X0201464Y0054524D01*
X0202385Y0053603D01*
X0198068Y0049286D01*
X0197147Y0050207D01*
G37*
G36*
X0198538Y0048815D02*
X0202855Y0053132D01*
X0203776Y0052211D01*
X0199459Y0047894D01*
X0198538Y0048815D01*
G37*
G36*
X0211207Y0047894D02*
X0206890Y0052211D01*
X0207811Y0053132D01*
X0212128Y0048815D01*
X0211207Y0047894D01*
G37*
G36*
X0212599Y0049286D02*
X0208282Y0053603D01*
X0209203Y0054524D01*
X0213520Y0050207D01*
X0212599Y0049286D01*
G37*
G36*
X0213991Y0050678D02*
X0209674Y0054995D01*
X0210595Y0055916D01*
X0214912Y0051599D01*
X0213991Y0050678D01*
G37*
G36*
X0215383Y0052070D02*
X0211066Y0056387D01*
X0211987Y0057308D01*
X0216304Y0052991D01*
X0215383Y0052070D01*
G37*
G36*
X0216775Y0053462D02*
X0212458Y0057779D01*
X0213379Y0058700D01*
X0217696Y0054383D01*
X0216775Y0053462D01*
G37*
G36*
X0218167Y0054854D02*
X0213850Y0059171D01*
X0214771Y0060092D01*
X0219088Y0055775D01*
X0218167Y0054854D01*
G37*
G36*
X0219559Y0056245D02*
X0215242Y0060562D01*
X0216163Y0061483D01*
X0220480Y0057166D01*
X0219559Y0056245D01*
G37*
G36*
X0220951Y0057637D02*
X0216634Y0061954D01*
X0217555Y0062875D01*
X0221872Y0058558D01*
X0220951Y0057637D01*
G37*
G36*
X0222343Y0059029D02*
X0218026Y0063346D01*
X0218947Y0064267D01*
X0223264Y0059950D01*
X0222343Y0059029D01*
G37*
G36*
X0223735Y0060421D02*
X0219418Y0064738D01*
X0220339Y0065659D01*
X0224656Y0061342D01*
X0223735Y0060421D01*
G37*
G36*
X0225127Y0061813D02*
X0220810Y0066130D01*
X0221731Y0067051D01*
X0226048Y0062734D01*
X0225127Y0061813D01*
G37*
G36*
X0226519Y0063205D02*
X0222202Y0067522D01*
X0223123Y0068443D01*
X0227440Y0064126D01*
X0226519Y0063205D01*
G37*
G36*
X0227440Y0075874D02*
X0223123Y0071557D01*
X0222202Y0072478D01*
X0226519Y0076795D01*
X0227440Y0075874D01*
G37*
G36*
X0226048Y0077266D02*
X0221731Y0072949D01*
X0220810Y0073870D01*
X0225127Y0078187D01*
X0226048Y0077266D01*
G37*
G36*
X0224656Y0078658D02*
X0220339Y0074341D01*
X0219418Y0075262D01*
X0223735Y0079579D01*
X0224656Y0078658D01*
G37*
G36*
X0223264Y0080050D02*
X0218947Y0075733D01*
X0218026Y0076654D01*
X0222343Y0080971D01*
X0223264Y0080050D01*
G37*
G36*
X0221872Y0081442D02*
X0217555Y0077125D01*
X0216634Y0078046D01*
X0220951Y0082363D01*
X0221872Y0081442D01*
G37*
G36*
X0220480Y0082834D02*
X0216163Y0078517D01*
X0215242Y0079438D01*
X0219559Y0083755D01*
X0220480Y0082834D01*
G37*
G36*
X0219088Y0084225D02*
X0214771Y0079908D01*
X0213850Y0080829D01*
X0218167Y0085146D01*
X0219088Y0084225D01*
G37*
G36*
X0217696Y0085617D02*
X0213379Y0081300D01*
X0212458Y0082221D01*
X0216775Y0086538D01*
X0217696Y0085617D01*
G37*
G36*
X0216304Y0087009D02*
X0211987Y0082692D01*
X0211066Y0083613D01*
X0215383Y0087930D01*
X0216304Y0087009D01*
G37*
G36*
X0214912Y0088401D02*
X0210595Y0084084D01*
X0209674Y0085005D01*
X0213991Y0089322D01*
X0214912Y0088401D01*
G37*
G36*
X0213520Y0089793D02*
X0209203Y0085476D01*
X0208282Y0086397D01*
X0212599Y0090714D01*
X0213520Y0089793D01*
G37*
G36*
X0212128Y0091185D02*
X0207811Y0086868D01*
X0206890Y0087789D01*
X0211207Y0092106D01*
X0212128Y0091185D01*
G37*
G36*
X0199459Y0092106D02*
X0203776Y0087789D01*
X0202855Y0086868D01*
X0198538Y0091185D01*
X0199459Y0092106D01*
G37*
G36*
X0198068Y0090714D02*
X0202385Y0086397D01*
X0201464Y0085476D01*
X0197147Y0089793D01*
X0198068Y0090714D01*
G37*
G36*
X0196676Y0089322D02*
X0200993Y0085005D01*
X0200072Y0084084D01*
X0195755Y0088401D01*
X0196676Y0089322D01*
G37*
G36*
X0195284Y0087930D02*
X0199601Y0083613D01*
X0198680Y0082692D01*
X0194363Y0087009D01*
X0195284Y0087930D01*
G37*
G36*
X0193892Y0086538D02*
X0198209Y0082221D01*
X0197288Y0081300D01*
X0192971Y0085617D01*
X0193892Y0086538D01*
G37*
G36*
X0192500Y0085146D02*
X0196817Y0080829D01*
X0195896Y0079908D01*
X0191579Y0084225D01*
X0192500Y0085146D01*
G37*
G36*
X0191108Y0083755D02*
X0195425Y0079438D01*
X0194504Y0078517D01*
X0190187Y0082834D01*
X0191108Y0083755D01*
G37*
G36*
X0189716Y0082363D02*
X0194033Y0078046D01*
X0193112Y0077125D01*
X0188795Y0081442D01*
X0189716Y0082363D01*
G37*
G36*
X0188324Y0080971D02*
X0192641Y0076654D01*
X0191720Y0075733D01*
X0187403Y0080050D01*
X0188324Y0080971D01*
G37*
G36*
X0186932Y0079579D02*
X0191249Y0075262D01*
X0190328Y0074341D01*
X0186011Y0078658D01*
X0186932Y0079579D01*
G37*
G36*
X0185540Y0078187D02*
X0189857Y0073870D01*
X0188936Y0072949D01*
X0184619Y0077266D01*
X0185540Y0078187D01*
G37*
G36*
X0184148Y0076795D02*
X0188465Y0072478D01*
X0187544Y0071557D01*
X0183227Y0075874D01*
X0184148Y0076795D01*
G37*
D11*
X0132952Y0075740D03*
X0122715Y0075740D03*
X0122715Y0072000D03*
X0122715Y0068260D03*
X0132952Y0068260D03*
D12*
X0132180Y0060500D03*
X0125487Y0060500D03*
X0157987Y0072000D03*
X0164680Y0072000D03*
X0132680Y0083500D03*
X0125987Y0083500D03*
D13*
X0098558Y0075740D03*
X0089109Y0075740D03*
X0089109Y0072000D03*
X0089109Y0068260D03*
X0098558Y0068260D03*
X0098558Y0072000D03*
D14*
X0104833Y0070803D03*
X0104833Y0073402D03*
X0104833Y0076000D03*
X0116585Y0076000D03*
X0116585Y0073402D03*
X0116585Y0070803D03*
X0116585Y0068205D03*
X0104833Y0068205D03*
D15*
X0112638Y0072093D03*
D16*
X0114274Y0041000D03*
X0119392Y0041000D03*
X0119392Y0045500D03*
X0114274Y0045500D03*
X0114274Y0050000D03*
X0119392Y0050000D03*
G36*
X0167656Y0055467D02*
X0169747Y0057558D01*
X0172392Y0054913D01*
X0170301Y0052822D01*
X0167656Y0055467D01*
G37*
G36*
X0171275Y0059087D02*
X0173366Y0061178D01*
X0176011Y0058533D01*
X0173920Y0056442D01*
X0171275Y0059087D01*
G37*
G36*
X0185275Y0046087D02*
X0187366Y0048178D01*
X0190011Y0045533D01*
X0187920Y0043442D01*
X0185275Y0046087D01*
G37*
G36*
X0181656Y0042467D02*
X0183747Y0044558D01*
X0186392Y0041913D01*
X0184301Y0039822D01*
X0181656Y0042467D01*
G37*
X0223774Y0042500D03*
X0228892Y0042500D03*
X0259774Y0063500D03*
X0264892Y0063500D03*
X0249892Y0068000D03*
X0244774Y0068000D03*
X0270774Y0087500D03*
X0275892Y0087500D03*
X0318774Y0080500D03*
X0323892Y0080500D03*
X0323892Y0071500D03*
X0318774Y0071500D03*
X0330774Y0066000D03*
X0335892Y0066000D03*
X0325392Y0052500D03*
X0320274Y0052500D03*
X0195892Y0101500D03*
X0190774Y0101500D03*
G36*
X0182801Y0095678D02*
X0184892Y0093587D01*
X0182247Y0090942D01*
X0180156Y0093033D01*
X0182801Y0095678D01*
G37*
G36*
X0186420Y0092058D02*
X0188511Y0089967D01*
X0185866Y0087322D01*
X0183775Y0089413D01*
X0186420Y0092058D01*
G37*
G36*
X0179301Y0092178D02*
X0181392Y0090087D01*
X0178747Y0087442D01*
X0176656Y0089533D01*
X0179301Y0092178D01*
G37*
G36*
X0182920Y0088558D02*
X0185011Y0086467D01*
X0182366Y0083822D01*
X0180275Y0085913D01*
X0182920Y0088558D01*
G37*
X0151892Y0072000D03*
X0146774Y0072000D03*
D17*
X0211833Y0096441D03*
X0216833Y0096441D03*
X0216833Y0101559D03*
X0211833Y0101559D03*
X0265333Y0077559D03*
X0265333Y0072441D03*
X0286833Y0061559D03*
X0276333Y0060059D03*
X0271333Y0060059D03*
X0271333Y0054941D03*
X0276333Y0054941D03*
X0286833Y0056441D03*
X0300833Y0056441D03*
X0300833Y0061559D03*
X0314333Y0058559D03*
X0314333Y0053441D03*
X0343833Y0070941D03*
X0348333Y0070941D03*
X0348333Y0076059D03*
X0343833Y0076059D03*
X0333833Y0077941D03*
X0333833Y0083059D03*
X0313333Y0081559D03*
X0313333Y0076441D03*
X0231833Y0057559D03*
X0231833Y0052441D03*
D18*
G36*
X0185426Y0053058D02*
X0188351Y0050133D01*
X0183200Y0044982D01*
X0180275Y0047907D01*
X0185426Y0053058D01*
G37*
G36*
X0178466Y0060018D02*
X0181391Y0057093D01*
X0176240Y0051942D01*
X0173315Y0054867D01*
X0178466Y0060018D01*
G37*
D19*
X0223333Y0097500D03*
X0228333Y0097500D03*
X0233333Y0097500D03*
X0238333Y0097500D03*
X0243333Y0097500D03*
X0243333Y0102500D03*
X0238333Y0102500D03*
X0233333Y0102500D03*
X0228333Y0102500D03*
X0223333Y0102500D03*
D20*
X0236022Y0087500D03*
X0236022Y0082500D03*
X0236022Y0077500D03*
X0236022Y0072500D03*
X0259644Y0072500D03*
X0259644Y0077500D03*
X0259644Y0082500D03*
X0259644Y0087500D03*
X0245164Y0057882D03*
X0236503Y0057882D03*
X0236503Y0052961D03*
X0245164Y0052961D03*
X0245164Y0048039D03*
X0236503Y0048039D03*
X0236503Y0043118D03*
X0245164Y0043118D03*
D21*
X0255503Y0042626D03*
X0255503Y0045776D03*
X0255503Y0048925D03*
X0255503Y0052075D03*
X0255503Y0055224D03*
X0255503Y0058374D03*
X0264164Y0058374D03*
X0264164Y0055224D03*
X0264164Y0052075D03*
X0264164Y0048925D03*
X0264164Y0045776D03*
X0264164Y0042626D03*
D22*
X0259833Y0042232D03*
X0259833Y0058768D03*
D23*
X0141833Y0048500D03*
X0131833Y0048500D03*
X0131833Y0096500D03*
X0141833Y0096500D03*
D24*
X0283400Y0086890D02*
X0285566Y0086890D01*
X0286944Y0088268D02*
X0286944Y0090433D01*
X0288912Y0090433D02*
X0288912Y0088268D01*
X0290881Y0088268D02*
X0290881Y0090433D01*
X0292849Y0090433D02*
X0292849Y0088268D01*
X0294818Y0088268D02*
X0294818Y0090433D01*
X0296786Y0090433D02*
X0296786Y0088268D01*
X0298755Y0088268D02*
X0298755Y0090433D01*
X0300723Y0090433D02*
X0300723Y0088268D01*
X0302101Y0086890D02*
X0304266Y0086890D01*
X0304266Y0084921D02*
X0302101Y0084921D01*
X0302101Y0082953D02*
X0304266Y0082953D01*
X0304266Y0080984D02*
X0302101Y0080984D01*
X0302101Y0079016D02*
X0304266Y0079016D01*
X0304266Y0077047D02*
X0302101Y0077047D01*
X0302101Y0075079D02*
X0304266Y0075079D01*
X0304266Y0073110D02*
X0302101Y0073110D01*
X0300723Y0071732D02*
X0300723Y0069567D01*
X0298755Y0069567D02*
X0298755Y0071732D01*
X0296786Y0071732D02*
X0296786Y0069567D01*
X0294818Y0069567D02*
X0294818Y0071732D01*
X0292849Y0071732D02*
X0292849Y0069567D01*
X0290881Y0069567D02*
X0290881Y0071732D01*
X0288912Y0071732D02*
X0288912Y0069567D01*
X0286944Y0069567D02*
X0286944Y0071732D01*
X0285566Y0073110D02*
X0283400Y0073110D01*
X0283400Y0075079D02*
X0285566Y0075079D01*
X0285566Y0077047D02*
X0283400Y0077047D01*
X0283400Y0079016D02*
X0285566Y0079016D01*
X0285566Y0080984D02*
X0283400Y0080984D01*
X0283400Y0082953D02*
X0285566Y0082953D01*
X0285566Y0084921D02*
X0283400Y0084921D01*
D25*
X0293833Y0080000D03*
D26*
X0275617Y0078500D03*
X0271050Y0078500D03*
X0271050Y0083000D03*
X0275617Y0083000D03*
X0275617Y0074000D03*
X0271050Y0074000D03*
X0319050Y0076000D03*
X0323617Y0076000D03*
X0333550Y0072500D03*
X0338117Y0072500D03*
X0323117Y0064500D03*
X0318550Y0064500D03*
X0331050Y0061500D03*
X0335617Y0061500D03*
X0333550Y0057000D03*
X0338117Y0057000D03*
X0338117Y0052500D03*
X0333550Y0052500D03*
X0325117Y0057000D03*
X0320550Y0057000D03*
X0319050Y0085000D03*
X0323617Y0085000D03*
X0323617Y0089500D03*
X0319050Y0089500D03*
X0319050Y0094000D03*
X0323617Y0094000D03*
X0317617Y0100000D03*
X0313050Y0100000D03*
X0216617Y0042500D03*
X0212050Y0042500D03*
X0156117Y0048000D03*
X0151550Y0048000D03*
X0151550Y0053500D03*
X0156117Y0053500D03*
X0157617Y0059000D03*
X0153050Y0059000D03*
X0153050Y0064500D03*
X0157617Y0064500D03*
X0156117Y0080500D03*
X0151550Y0080500D03*
X0151550Y0086000D03*
X0156117Y0086000D03*
X0156117Y0091500D03*
X0151550Y0091500D03*
X0151550Y0097000D03*
X0156117Y0097000D03*
D27*
X0250333Y0095717D03*
X0250333Y0100283D03*
X0280833Y0101783D03*
X0289333Y0102283D03*
X0293833Y0102783D03*
X0298333Y0102283D03*
X0302833Y0102283D03*
X0307333Y0102283D03*
X0307333Y0097717D03*
X0302833Y0097717D03*
X0298333Y0097717D03*
X0293833Y0098217D03*
X0289333Y0097717D03*
X0280833Y0097217D03*
X0343833Y0087783D03*
X0343833Y0083217D03*
X0305333Y0061283D03*
X0305333Y0056717D03*
X0296333Y0056717D03*
X0291833Y0056717D03*
X0291833Y0061283D03*
X0296333Y0061283D03*
D28*
X0274117Y0094472D03*
X0259550Y0094472D03*
X0259550Y0103528D03*
X0274117Y0103528D03*
D29*
X0361333Y0083500D03*
X0361333Y0073500D03*
X0361333Y0063500D03*
D30*
X0177487Y0069531D03*
D31*
X0176433Y0100052D02*
X0176433Y0102948D01*
X0179329Y0102948D01*
X0179329Y0100052D01*
X0176433Y0100052D01*
X0176433Y0101292D02*
X0179329Y0101292D01*
X0179329Y0102532D02*
X0176433Y0102532D01*
X0183338Y0102948D02*
X0183338Y0100052D01*
X0183338Y0102948D02*
X0186234Y0102948D01*
X0186234Y0100052D01*
X0183338Y0100052D01*
X0183338Y0101292D02*
X0186234Y0101292D01*
X0186234Y0102532D02*
X0183338Y0102532D01*
D32*
X0095833Y0100500D03*
X0095833Y0044500D03*
X0360333Y0044500D03*
X0360333Y0100500D03*
D33*
X0307975Y0070854D03*
X0332188Y0046642D03*
D34*
X0145833Y0054748D03*
X0143235Y0054748D03*
X0140636Y0054748D03*
X0138038Y0054748D03*
X0138038Y0066500D03*
X0140636Y0066500D03*
X0143235Y0066500D03*
X0145833Y0066500D03*
X0145629Y0078500D03*
X0143030Y0078500D03*
X0140432Y0078500D03*
X0137833Y0078500D03*
X0137833Y0090252D03*
X0140432Y0090252D03*
X0143030Y0090252D03*
X0145629Y0090252D03*
D35*
X0141741Y0086305D03*
X0141926Y0058695D03*
M02*
