G75*
%MOIN*%
%OFA0B0*%
%FSLAX25Y25*%
%IPPOS*%
%LPD*%
%AMOC8*
5,1,8,0,0,1.08239X$1,22.5*
%
%ADD10R,0.02500X0.05000*%
%ADD11C,0.03937*%
%ADD12R,0.06000X0.06000*%
%ADD13C,0.02362*%
%ADD14R,0.16000X0.06000*%
%ADD15R,0.03937X0.07874*%
%ADD16R,0.01378X0.05512*%
%ADD17R,0.07087X0.07480*%
%ADD18R,0.07480X0.07480*%
%ADD19R,0.03937X0.03543*%
%ADD20R,0.12598X0.09843*%
%ADD21R,0.11811X0.06299*%
%ADD22R,0.21654X0.03937*%
%ADD23R,0.02520X0.05906*%
%ADD24R,0.05906X0.02520*%
%ADD25R,0.05000X0.02520*%
%ADD26R,0.05512X0.04724*%
%ADD27R,0.03543X0.03346*%
%ADD28R,0.03543X0.02756*%
%ADD29C,0.01000*%
%ADD30C,0.02300*%
%ADD31C,0.04000*%
D10*
X0112093Y0094776D03*
X0119573Y0094776D03*
X0115833Y0104224D03*
D11*
X0223333Y0102500D03*
X0228333Y0102500D03*
X0233333Y0102500D03*
X0238333Y0102500D03*
X0243333Y0102500D03*
X0243333Y0097500D03*
X0238333Y0097500D03*
X0233333Y0097500D03*
X0228333Y0097500D03*
X0223333Y0097500D03*
D12*
X0141833Y0096500D03*
X0131833Y0096500D03*
X0131833Y0048500D03*
X0141833Y0048500D03*
D13*
X0289896Y0076063D03*
X0293833Y0076063D03*
X0297770Y0076063D03*
X0297770Y0080000D03*
X0293833Y0080000D03*
X0289896Y0080000D03*
X0289896Y0083937D03*
X0293833Y0083937D03*
X0297770Y0083937D03*
D14*
X0361333Y0083500D03*
X0361333Y0063500D03*
D15*
X0207408Y0041972D03*
X0201503Y0041972D03*
X0195597Y0041972D03*
X0189692Y0041972D03*
X0183786Y0041972D03*
X0177881Y0041972D03*
X0171975Y0041972D03*
X0166070Y0041972D03*
X0160164Y0041972D03*
X0154259Y0041972D03*
X0154259Y0101028D03*
X0160164Y0101028D03*
X0166070Y0101028D03*
X0171975Y0101028D03*
X0177881Y0101028D03*
X0183786Y0101028D03*
X0189692Y0101028D03*
X0195597Y0101028D03*
X0201503Y0101028D03*
X0207408Y0101028D03*
D16*
X0321715Y0092567D03*
X0324274Y0092567D03*
X0326833Y0092567D03*
X0329392Y0092567D03*
X0331951Y0092567D03*
D17*
X0342581Y0103000D03*
X0311085Y0103000D03*
D18*
X0321833Y0103000D03*
X0331833Y0103000D03*
D19*
X0119983Y0057071D03*
X0113684Y0057071D03*
X0113684Y0040929D03*
X0119983Y0040929D03*
D20*
X0301085Y0055500D03*
X0332581Y0055500D03*
D21*
X0099770Y0059114D03*
X0099770Y0085886D03*
D22*
X0108707Y0076437D03*
X0108707Y0068563D03*
D23*
X0223373Y0054217D03*
X0228333Y0054217D03*
X0233294Y0054217D03*
X0233294Y0038783D03*
X0228333Y0038783D03*
X0223373Y0038783D03*
D24*
X0220617Y0046500D03*
D25*
X0235814Y0046539D03*
D26*
X0223833Y0065094D03*
X0223833Y0076906D03*
D27*
X0229833Y0072283D03*
X0229833Y0067717D03*
D28*
X0243333Y0056559D03*
X0243333Y0051441D03*
D29*
X0086833Y0059252D02*
X0086833Y0035503D01*
X0221613Y0035739D01*
X0221613Y0038654D01*
X0223243Y0038654D01*
X0223243Y0038913D01*
X0221613Y0038913D01*
X0221613Y0041836D01*
X0221689Y0042019D01*
X0221830Y0042160D01*
X0222013Y0042236D01*
X0223243Y0042236D01*
X0223243Y0038913D01*
X0223503Y0038913D01*
X0225133Y0038913D01*
X0225133Y0041836D01*
X0225056Y0042019D01*
X0224916Y0042160D01*
X0224732Y0042236D01*
X0223503Y0042236D01*
X0223503Y0038913D01*
X0223503Y0038654D01*
X0225133Y0038654D01*
X0225133Y0035745D01*
X0225773Y0035746D01*
X0225773Y0042275D01*
X0226535Y0043036D01*
X0230132Y0043036D01*
X0230814Y0042354D01*
X0231496Y0043036D01*
X0235092Y0043036D01*
X0235854Y0042275D01*
X0235854Y0035764D01*
X0237476Y0035767D01*
X0237183Y0036473D01*
X0237183Y0037527D01*
X0237587Y0038501D01*
X0238332Y0039247D01*
X0239306Y0039650D01*
X0240033Y0039650D01*
X0240033Y0041052D01*
X0239587Y0041499D01*
X0239183Y0042473D01*
X0239183Y0043527D01*
X0239587Y0044501D01*
X0240332Y0045247D01*
X0241306Y0045650D01*
X0242360Y0045650D01*
X0243334Y0045247D01*
X0244080Y0044501D01*
X0244483Y0043527D01*
X0244483Y0042473D01*
X0244080Y0041499D01*
X0243633Y0041052D01*
X0243633Y0036754D01*
X0242655Y0035776D01*
X0369034Y0035996D01*
X0369034Y0060000D01*
X0361833Y0060000D01*
X0361833Y0063000D01*
X0360833Y0063000D01*
X0352833Y0063000D01*
X0352833Y0060401D01*
X0352909Y0060217D01*
X0353050Y0060076D01*
X0353234Y0060000D01*
X0360833Y0060000D01*
X0360833Y0063000D01*
X0360833Y0064000D01*
X0352833Y0064000D01*
X0352833Y0066599D01*
X0352909Y0066783D01*
X0353050Y0066924D01*
X0353234Y0067000D01*
X0360833Y0067000D01*
X0360833Y0064000D01*
X0361833Y0064000D01*
X0361833Y0067000D01*
X0369034Y0067000D01*
X0369034Y0080000D01*
X0361833Y0080000D01*
X0361833Y0083000D01*
X0360833Y0083000D01*
X0352833Y0083000D01*
X0352833Y0080401D01*
X0352909Y0080217D01*
X0353050Y0080076D01*
X0353234Y0080000D01*
X0360833Y0080000D01*
X0360833Y0083000D01*
X0360833Y0084000D01*
X0352833Y0084000D01*
X0352833Y0086599D01*
X0352909Y0086783D01*
X0353050Y0086924D01*
X0353234Y0087000D01*
X0360833Y0087000D01*
X0360833Y0084000D01*
X0361833Y0084000D01*
X0361833Y0087000D01*
X0369034Y0087000D01*
X0369034Y0109461D01*
X0086833Y0109461D01*
X0086833Y0062748D01*
X0087033Y0062948D01*
X0087033Y0075746D01*
X0092033Y0080746D01*
X0093025Y0081737D01*
X0092565Y0082198D01*
X0092565Y0089574D01*
X0093326Y0090335D01*
X0106214Y0090335D01*
X0106976Y0089574D01*
X0106976Y0082513D01*
X0107306Y0082650D01*
X0107316Y0082650D01*
X0109964Y0085298D01*
X0111177Y0085800D01*
X0112490Y0085800D01*
X0112852Y0085650D01*
X0112860Y0085650D01*
X0113834Y0085247D01*
X0114403Y0084678D01*
X0117773Y0088049D01*
X0117773Y0090987D01*
X0117023Y0091737D01*
X0117023Y0097814D01*
X0117785Y0098576D01*
X0121362Y0098576D01*
X0122123Y0097814D01*
X0122123Y0091737D01*
X0121373Y0090987D01*
X0121373Y0086558D01*
X0120319Y0085503D01*
X0120319Y0085503D01*
X0114521Y0079705D01*
X0120073Y0079705D01*
X0120834Y0078944D01*
X0120834Y0073930D01*
X0120073Y0073169D01*
X0097342Y0073169D01*
X0096581Y0073930D01*
X0096581Y0078200D01*
X0094579Y0078200D01*
X0090633Y0074254D01*
X0090633Y0062948D01*
X0091080Y0062501D01*
X0091483Y0061527D01*
X0091483Y0060473D01*
X0091080Y0059499D01*
X0090334Y0058753D01*
X0089360Y0058350D01*
X0088306Y0058350D01*
X0087332Y0058753D01*
X0086833Y0059252D01*
X0086833Y0058963D02*
X0087123Y0058963D01*
X0086833Y0057964D02*
X0092565Y0057964D01*
X0092565Y0056966D02*
X0086833Y0056966D01*
X0086833Y0055967D02*
X0092565Y0055967D01*
X0092565Y0055426D02*
X0093326Y0054665D01*
X0106214Y0054665D01*
X0106976Y0055426D01*
X0106976Y0062802D01*
X0106214Y0063564D01*
X0093326Y0063564D01*
X0092565Y0062802D01*
X0092565Y0055426D01*
X0093022Y0054969D02*
X0086833Y0054969D01*
X0086833Y0053970D02*
X0111884Y0053970D01*
X0111884Y0053999D02*
X0111884Y0044001D01*
X0111177Y0044001D01*
X0110415Y0043239D01*
X0110415Y0038619D01*
X0111177Y0037857D01*
X0116191Y0037857D01*
X0116833Y0038500D01*
X0117476Y0037857D01*
X0122490Y0037857D01*
X0123251Y0038619D01*
X0123251Y0038834D01*
X0123832Y0038253D01*
X0124806Y0037850D01*
X0125860Y0037850D01*
X0126834Y0038253D01*
X0127281Y0038700D01*
X0140579Y0038700D01*
X0141633Y0039754D01*
X0143579Y0041700D01*
X0147079Y0041700D01*
X0148133Y0042754D01*
X0148633Y0043254D01*
X0148633Y0046754D01*
X0151579Y0049700D01*
X0163079Y0049700D01*
X0163579Y0050200D01*
X0169462Y0050200D01*
X0169183Y0049527D01*
X0169183Y0048473D01*
X0169587Y0047499D01*
X0169876Y0047209D01*
X0169468Y0047209D01*
X0169022Y0046764D01*
X0168577Y0047209D01*
X0163563Y0047209D01*
X0162801Y0046448D01*
X0162801Y0037497D01*
X0163563Y0036735D01*
X0168577Y0036735D01*
X0169022Y0037181D01*
X0169468Y0036735D01*
X0174482Y0036735D01*
X0174928Y0037181D01*
X0175374Y0036735D01*
X0180388Y0036735D01*
X0180833Y0037181D01*
X0181279Y0036735D01*
X0186293Y0036735D01*
X0186739Y0037181D01*
X0187185Y0036735D01*
X0192199Y0036735D01*
X0192644Y0037181D01*
X0193090Y0036735D01*
X0198104Y0036735D01*
X0198866Y0037497D01*
X0198866Y0046448D01*
X0198104Y0047209D01*
X0193667Y0047209D01*
X0193983Y0047973D01*
X0193983Y0049027D01*
X0193580Y0050001D01*
X0192834Y0050747D01*
X0192278Y0050977D01*
X0192483Y0051473D01*
X0192483Y0052527D01*
X0192205Y0053200D01*
X0195079Y0053200D01*
X0200729Y0058850D01*
X0201360Y0058850D01*
X0202334Y0059253D01*
X0203080Y0059999D01*
X0203483Y0060973D01*
X0203483Y0062027D01*
X0203080Y0063001D01*
X0202334Y0063747D01*
X0201360Y0064150D01*
X0200306Y0064150D01*
X0199332Y0063747D01*
X0199228Y0063643D01*
X0199080Y0064001D01*
X0198334Y0064747D01*
X0197360Y0065150D01*
X0196933Y0065150D01*
X0195633Y0066666D01*
X0195633Y0066746D01*
X0195155Y0067224D01*
X0194904Y0067517D01*
X0195306Y0067350D01*
X0196360Y0067350D01*
X0197334Y0067753D01*
X0197781Y0068200D01*
X0198579Y0068200D01*
X0199633Y0069254D01*
X0201633Y0071254D01*
X0201633Y0073754D01*
X0206683Y0078804D01*
X0206683Y0077973D01*
X0207087Y0076999D01*
X0207533Y0076552D01*
X0207533Y0072754D01*
X0208588Y0071700D01*
X0211588Y0068700D01*
X0217228Y0068700D01*
X0219777Y0066367D01*
X0219777Y0062194D01*
X0220539Y0061432D01*
X0227128Y0061432D01*
X0227889Y0062194D01*
X0227889Y0065574D01*
X0227962Y0065543D01*
X0229497Y0065543D01*
X0229497Y0067380D01*
X0230170Y0067380D01*
X0230170Y0065543D01*
X0231704Y0065543D01*
X0231888Y0065619D01*
X0232028Y0065759D01*
X0232588Y0065200D01*
X0239429Y0058359D01*
X0236436Y0058359D01*
X0236483Y0058473D01*
X0236483Y0059527D01*
X0236080Y0060501D01*
X0235334Y0061247D01*
X0234360Y0061650D01*
X0233306Y0061650D01*
X0232332Y0061247D01*
X0231587Y0060501D01*
X0231183Y0059527D01*
X0231183Y0058473D01*
X0231276Y0058249D01*
X0230814Y0057787D01*
X0230132Y0058469D01*
X0228910Y0058469D01*
X0227633Y0059746D01*
X0226579Y0060800D01*
X0207588Y0060800D01*
X0205938Y0059150D01*
X0205306Y0059150D01*
X0204332Y0058747D01*
X0203587Y0058001D01*
X0203183Y0057027D01*
X0203183Y0055973D01*
X0203587Y0054999D01*
X0204332Y0054253D01*
X0205306Y0053850D01*
X0206360Y0053850D01*
X0207334Y0054253D01*
X0208080Y0054999D01*
X0208483Y0055973D01*
X0208483Y0056604D01*
X0209079Y0057200D01*
X0220813Y0057200D01*
X0220813Y0051300D01*
X0215588Y0051300D01*
X0214088Y0049800D01*
X0213033Y0048746D01*
X0213033Y0048448D01*
X0212587Y0048001D01*
X0212183Y0047027D01*
X0212183Y0045973D01*
X0212587Y0044999D01*
X0213332Y0044253D01*
X0214306Y0043850D01*
X0215360Y0043850D01*
X0216334Y0044253D01*
X0216573Y0044492D01*
X0217126Y0043940D01*
X0224108Y0043940D01*
X0224729Y0044562D01*
X0224810Y0044480D01*
X0225012Y0044073D01*
X0225314Y0043970D01*
X0225538Y0043744D01*
X0225993Y0043741D01*
X0226424Y0043595D01*
X0226710Y0043737D01*
X0232889Y0043702D01*
X0233166Y0043559D01*
X0233607Y0043698D01*
X0234069Y0043696D01*
X0234290Y0043915D01*
X0234494Y0043980D01*
X0238852Y0043980D01*
X0239614Y0044741D01*
X0239614Y0048338D01*
X0238852Y0049099D01*
X0235210Y0049099D01*
X0235110Y0049165D01*
X0235108Y0049979D01*
X0235854Y0050725D01*
X0235854Y0054231D01*
X0236382Y0054759D01*
X0240262Y0054759D01*
X0240262Y0054643D01*
X0241023Y0053881D01*
X0245643Y0053881D01*
X0246405Y0054643D01*
X0246405Y0058475D01*
X0245643Y0059237D01*
X0243419Y0059237D01*
X0242633Y0060162D01*
X0242633Y0060246D01*
X0242158Y0060721D01*
X0241722Y0061234D01*
X0241638Y0061241D01*
X0235133Y0067746D01*
X0235133Y0076746D01*
X0234483Y0077396D01*
X0234483Y0078027D01*
X0234080Y0079001D01*
X0233881Y0079200D01*
X0247886Y0079200D01*
X0248332Y0078753D01*
X0249306Y0078350D01*
X0250360Y0078350D01*
X0251334Y0078753D01*
X0252080Y0079499D01*
X0252483Y0080473D01*
X0252483Y0081527D01*
X0252080Y0082501D01*
X0251334Y0083247D01*
X0250976Y0083395D01*
X0251281Y0083700D01*
X0253462Y0083700D01*
X0253183Y0083027D01*
X0253183Y0081973D01*
X0253587Y0080999D01*
X0254332Y0080253D01*
X0254517Y0080177D01*
X0254082Y0079997D01*
X0253337Y0079251D01*
X0252933Y0078277D01*
X0252933Y0077646D01*
X0250088Y0074800D01*
X0244781Y0074800D01*
X0244334Y0075247D01*
X0243360Y0075650D01*
X0242306Y0075650D01*
X0241332Y0075247D01*
X0240587Y0074501D01*
X0240183Y0073527D01*
X0240183Y0072473D01*
X0240587Y0071499D01*
X0241332Y0070753D01*
X0242306Y0070350D01*
X0243360Y0070350D01*
X0244334Y0070753D01*
X0244781Y0071200D01*
X0251579Y0071200D01*
X0255479Y0075100D01*
X0256110Y0075100D01*
X0257084Y0075503D01*
X0257281Y0075700D01*
X0269088Y0075700D01*
X0279183Y0065604D01*
X0279183Y0064973D01*
X0279587Y0063999D01*
X0280332Y0063253D01*
X0281306Y0062850D01*
X0282360Y0062850D01*
X0283334Y0063253D01*
X0284080Y0063999D01*
X0284437Y0064861D01*
X0284587Y0064499D01*
X0285332Y0063753D01*
X0286306Y0063350D01*
X0287360Y0063350D01*
X0288334Y0063753D01*
X0289080Y0064499D01*
X0289483Y0065473D01*
X0289483Y0066527D01*
X0289080Y0067501D01*
X0288334Y0068247D01*
X0287360Y0068650D01*
X0286729Y0068650D01*
X0269133Y0086246D01*
X0268679Y0086700D01*
X0308088Y0086700D01*
X0309533Y0085254D01*
X0310588Y0084200D01*
X0324579Y0084200D01*
X0327579Y0087200D01*
X0328633Y0088254D01*
X0328633Y0088511D01*
X0330620Y0088511D01*
X0331381Y0089273D01*
X0331381Y0089311D01*
X0331951Y0089311D01*
X0331951Y0092567D01*
X0331951Y0095823D01*
X0331381Y0095823D01*
X0331381Y0095861D01*
X0330620Y0096623D01*
X0328165Y0096623D01*
X0328113Y0096571D01*
X0328061Y0096623D01*
X0325606Y0096623D01*
X0325554Y0096571D01*
X0325502Y0096623D01*
X0323047Y0096623D01*
X0322995Y0096571D01*
X0322943Y0096623D01*
X0321444Y0096623D01*
X0321080Y0097501D01*
X0320621Y0097960D01*
X0326112Y0097960D01*
X0326833Y0098681D01*
X0327555Y0097960D01*
X0336112Y0097960D01*
X0336873Y0098721D01*
X0336873Y0107279D01*
X0336112Y0108040D01*
X0327555Y0108040D01*
X0326833Y0107319D01*
X0326112Y0108040D01*
X0317555Y0108040D01*
X0316793Y0107279D01*
X0316793Y0098721D01*
X0317300Y0098214D01*
X0316587Y0097501D01*
X0316183Y0096527D01*
X0316183Y0095473D01*
X0316587Y0094499D01*
X0317332Y0093753D01*
X0318306Y0093350D01*
X0319360Y0093350D01*
X0319726Y0093502D01*
X0319726Y0089800D01*
X0313579Y0089800D01*
X0311633Y0091746D01*
X0310579Y0092800D01*
X0246679Y0092800D01*
X0249133Y0095254D01*
X0249133Y0101746D01*
X0248079Y0102800D01*
X0246579Y0104300D01*
X0246126Y0104300D01*
X0246104Y0104351D01*
X0245185Y0105271D01*
X0243983Y0105768D01*
X0242683Y0105768D01*
X0241482Y0105271D01*
X0240833Y0104622D01*
X0240185Y0105271D01*
X0240133Y0105292D01*
X0240133Y0105746D01*
X0238079Y0107800D01*
X0220588Y0107800D01*
X0218588Y0105800D01*
X0218588Y0105800D01*
X0217533Y0104746D01*
X0217533Y0097746D01*
X0213983Y0094196D01*
X0213983Y0094527D01*
X0213580Y0095501D01*
X0212834Y0096247D01*
X0211860Y0096650D01*
X0210806Y0096650D01*
X0210677Y0096596D01*
X0210677Y0105503D01*
X0209915Y0106265D01*
X0204901Y0106265D01*
X0204455Y0105819D01*
X0204010Y0106265D01*
X0198996Y0106265D01*
X0198234Y0105503D01*
X0198234Y0096946D01*
X0195767Y0094479D01*
X0195361Y0094277D01*
X0195260Y0093972D01*
X0195177Y0093889D01*
X0194832Y0093747D01*
X0194087Y0093001D01*
X0193683Y0092027D01*
X0193683Y0090973D01*
X0194087Y0089999D01*
X0194832Y0089253D01*
X0195806Y0088850D01*
X0196860Y0088850D01*
X0197834Y0089253D01*
X0198580Y0089999D01*
X0198983Y0090973D01*
X0198983Y0092027D01*
X0198814Y0092435D01*
X0202079Y0095700D01*
X0202169Y0095791D01*
X0204010Y0095791D01*
X0204455Y0096236D01*
X0204490Y0096202D01*
X0202915Y0094627D01*
X0202860Y0094650D01*
X0201806Y0094650D01*
X0200832Y0094247D01*
X0200087Y0093501D01*
X0199683Y0092527D01*
X0199683Y0091473D01*
X0200087Y0090499D01*
X0200832Y0089753D01*
X0201806Y0089350D01*
X0202860Y0089350D01*
X0203834Y0089753D01*
X0204580Y0090499D01*
X0204983Y0091473D01*
X0204983Y0091604D01*
X0207579Y0094200D01*
X0208633Y0095254D01*
X0208633Y0095791D01*
X0209376Y0095791D01*
X0209087Y0095501D01*
X0208683Y0094527D01*
X0208683Y0093473D01*
X0209087Y0092499D01*
X0209832Y0091753D01*
X0210806Y0091350D01*
X0211138Y0091350D01*
X0196438Y0076650D01*
X0195806Y0076650D01*
X0194832Y0076247D01*
X0194087Y0075501D01*
X0193683Y0074527D01*
X0193683Y0073473D01*
X0194087Y0072499D01*
X0194337Y0072249D01*
X0194332Y0072247D01*
X0193587Y0071501D01*
X0193183Y0070527D01*
X0193183Y0069473D01*
X0193379Y0068999D01*
X0182133Y0080246D01*
X0181079Y0081300D01*
X0176579Y0081300D01*
X0165633Y0092246D01*
X0164579Y0093300D01*
X0161281Y0093300D01*
X0160834Y0093747D01*
X0159860Y0094150D01*
X0158806Y0094150D01*
X0157832Y0093747D01*
X0157087Y0093001D01*
X0156683Y0092027D01*
X0156683Y0090973D01*
X0157087Y0089999D01*
X0157832Y0089253D01*
X0158806Y0088850D01*
X0159860Y0088850D01*
X0160834Y0089253D01*
X0161281Y0089700D01*
X0163088Y0089700D01*
X0175088Y0077700D01*
X0179588Y0077700D01*
X0180410Y0076877D01*
X0179059Y0077437D01*
X0175914Y0077437D01*
X0173009Y0076233D01*
X0170785Y0074010D01*
X0169581Y0071104D01*
X0169581Y0067959D01*
X0170785Y0065053D01*
X0172538Y0063300D01*
X0169079Y0063300D01*
X0162633Y0069746D01*
X0161579Y0070800D01*
X0160281Y0070800D01*
X0159834Y0071247D01*
X0158860Y0071650D01*
X0157806Y0071650D01*
X0156832Y0071247D01*
X0156087Y0070501D01*
X0155683Y0069527D01*
X0155683Y0068473D01*
X0156087Y0067499D01*
X0156832Y0066753D01*
X0157806Y0066350D01*
X0158860Y0066350D01*
X0159834Y0066753D01*
X0160184Y0067103D01*
X0167588Y0059700D01*
X0182088Y0059700D01*
X0183683Y0058104D01*
X0183683Y0057473D01*
X0183962Y0056800D01*
X0161705Y0056800D01*
X0160860Y0057150D01*
X0159806Y0057150D01*
X0158832Y0056747D01*
X0158087Y0056001D01*
X0157683Y0055027D01*
X0157683Y0053973D01*
X0157962Y0053300D01*
X0150088Y0053300D01*
X0146133Y0049346D01*
X0146133Y0052038D01*
X0145372Y0052800D01*
X0138295Y0052800D01*
X0137533Y0052038D01*
X0137533Y0044962D01*
X0138295Y0044200D01*
X0140988Y0044200D01*
X0139088Y0042300D01*
X0127281Y0042300D01*
X0126834Y0042747D01*
X0125860Y0043150D01*
X0124806Y0043150D01*
X0123832Y0042747D01*
X0123815Y0042729D01*
X0123251Y0042729D01*
X0123251Y0043239D01*
X0122490Y0044001D01*
X0121783Y0044001D01*
X0121783Y0053999D01*
X0122490Y0053999D01*
X0123251Y0054761D01*
X0123251Y0059381D01*
X0122490Y0060143D01*
X0117476Y0060143D01*
X0116833Y0059500D01*
X0116191Y0060143D01*
X0113228Y0060143D01*
X0113080Y0060501D01*
X0112334Y0061247D01*
X0111360Y0061650D01*
X0110306Y0061650D01*
X0109332Y0061247D01*
X0108587Y0060501D01*
X0108183Y0059527D01*
X0108183Y0058473D01*
X0108587Y0057499D01*
X0109332Y0056753D01*
X0110306Y0056350D01*
X0110415Y0056350D01*
X0110415Y0054761D01*
X0111177Y0053999D01*
X0111884Y0053999D01*
X0111884Y0052972D02*
X0097592Y0052972D01*
X0097524Y0053000D02*
X0094143Y0053000D01*
X0091018Y0051706D01*
X0088627Y0049315D01*
X0087333Y0046191D01*
X0087333Y0042809D01*
X0088627Y0039685D01*
X0091018Y0037294D01*
X0094143Y0036000D01*
X0097524Y0036000D01*
X0100648Y0037294D01*
X0103039Y0039685D01*
X0104333Y0042809D01*
X0104333Y0046191D01*
X0103039Y0049315D01*
X0100648Y0051706D01*
X0097524Y0053000D01*
X0100003Y0051973D02*
X0111884Y0051973D01*
X0111884Y0050975D02*
X0101379Y0050975D01*
X0102378Y0049976D02*
X0111884Y0049976D01*
X0111884Y0048978D02*
X0103179Y0048978D01*
X0103593Y0047979D02*
X0111884Y0047979D01*
X0111884Y0046981D02*
X0104006Y0046981D01*
X0104333Y0045982D02*
X0111884Y0045982D01*
X0111884Y0044984D02*
X0104333Y0044984D01*
X0104333Y0043985D02*
X0111161Y0043985D01*
X0110415Y0042987D02*
X0104333Y0042987D01*
X0103993Y0041988D02*
X0110415Y0041988D01*
X0110415Y0040990D02*
X0103580Y0040990D01*
X0103166Y0039991D02*
X0110415Y0039991D01*
X0110415Y0038993D02*
X0102347Y0038993D01*
X0101348Y0037994D02*
X0111040Y0037994D01*
X0113684Y0040929D02*
X0113684Y0057071D01*
X0111755Y0059000D01*
X0110833Y0059000D01*
X0108394Y0057964D02*
X0106976Y0057964D01*
X0106976Y0056966D02*
X0109120Y0056966D01*
X0110415Y0055967D02*
X0106976Y0055967D01*
X0106518Y0054969D02*
X0110415Y0054969D01*
X0108183Y0058963D02*
X0106976Y0058963D01*
X0106976Y0059961D02*
X0108363Y0059961D01*
X0109045Y0060960D02*
X0106976Y0060960D01*
X0106976Y0061958D02*
X0165329Y0061958D01*
X0164331Y0062957D02*
X0106821Y0062957D01*
X0108223Y0066094D02*
X0097781Y0066094D01*
X0097597Y0066171D01*
X0097457Y0066311D01*
X0097381Y0066495D01*
X0097381Y0068079D01*
X0108223Y0068079D01*
X0108223Y0069047D01*
X0097381Y0069047D01*
X0097381Y0070631D01*
X0097457Y0070815D01*
X0097597Y0070955D01*
X0097781Y0071031D01*
X0108223Y0071031D01*
X0108223Y0069047D01*
X0109192Y0069047D01*
X0120034Y0069047D01*
X0120034Y0070631D01*
X0119958Y0070815D01*
X0119817Y0070955D01*
X0119634Y0071031D01*
X0109192Y0071031D01*
X0109192Y0069047D01*
X0109192Y0068079D01*
X0120034Y0068079D01*
X0120034Y0066495D01*
X0119958Y0066311D01*
X0119817Y0066171D01*
X0119634Y0066094D01*
X0109192Y0066094D01*
X0109192Y0068079D01*
X0108223Y0068079D01*
X0108223Y0066094D01*
X0108223Y0066951D02*
X0109192Y0066951D01*
X0109192Y0067949D02*
X0108223Y0067949D01*
X0108707Y0068563D02*
X0105770Y0071500D01*
X0092333Y0071500D01*
X0090633Y0071943D02*
X0169929Y0071943D01*
X0169581Y0070945D02*
X0160136Y0070945D01*
X0162432Y0069946D02*
X0169581Y0069946D01*
X0169581Y0068948D02*
X0163431Y0068948D01*
X0164430Y0067949D02*
X0169585Y0067949D01*
X0169999Y0066951D02*
X0165428Y0066951D01*
X0166427Y0065952D02*
X0170413Y0065952D01*
X0170884Y0064954D02*
X0167425Y0064954D01*
X0168424Y0063955D02*
X0171883Y0063955D01*
X0168333Y0061500D02*
X0160833Y0069000D01*
X0158333Y0069000D01*
X0155900Y0067949D02*
X0120034Y0067949D01*
X0120034Y0066951D02*
X0156635Y0066951D01*
X0155683Y0068948D02*
X0109192Y0068948D01*
X0108707Y0068563D02*
X0125396Y0068563D01*
X0129333Y0072500D01*
X0133332Y0076753D02*
X0134306Y0076350D01*
X0135360Y0076350D01*
X0136334Y0076753D01*
X0136781Y0077200D01*
X0148683Y0077200D01*
X0148683Y0076973D01*
X0149087Y0075999D01*
X0149832Y0075253D01*
X0150806Y0074850D01*
X0151860Y0074850D01*
X0152834Y0075253D01*
X0153580Y0075999D01*
X0153983Y0076973D01*
X0153983Y0078027D01*
X0153580Y0079001D01*
X0152834Y0079747D01*
X0151860Y0080150D01*
X0151229Y0080150D01*
X0150579Y0080800D01*
X0136781Y0080800D01*
X0136334Y0081247D01*
X0135360Y0081650D01*
X0134306Y0081650D01*
X0133332Y0081247D01*
X0132587Y0080501D01*
X0132183Y0079527D01*
X0132183Y0078473D01*
X0132587Y0077499D01*
X0133332Y0076753D01*
X0133150Y0076936D02*
X0120834Y0076936D01*
X0120834Y0077934D02*
X0132406Y0077934D01*
X0132183Y0078933D02*
X0120834Y0078933D01*
X0120834Y0075937D02*
X0149148Y0075937D01*
X0148699Y0076936D02*
X0136517Y0076936D01*
X0134833Y0079000D02*
X0149833Y0079000D01*
X0151333Y0077500D01*
X0152388Y0079932D02*
X0172856Y0079932D01*
X0171858Y0080930D02*
X0136651Y0080930D01*
X0133016Y0080930D02*
X0115746Y0080930D01*
X0116744Y0081929D02*
X0170859Y0081929D01*
X0169861Y0082927D02*
X0117743Y0082927D01*
X0118741Y0083926D02*
X0132124Y0083926D01*
X0132306Y0083850D02*
X0133360Y0083850D01*
X0134334Y0084253D01*
X0135080Y0084999D01*
X0135483Y0085973D01*
X0135483Y0087027D01*
X0135080Y0088001D01*
X0134334Y0088747D01*
X0133360Y0089150D01*
X0132306Y0089150D01*
X0131332Y0088747D01*
X0130587Y0088001D01*
X0130183Y0087027D01*
X0130183Y0085973D01*
X0130587Y0084999D01*
X0131332Y0084253D01*
X0132306Y0083850D01*
X0133543Y0083926D02*
X0168862Y0083926D01*
X0167864Y0084924D02*
X0135005Y0084924D01*
X0135462Y0085923D02*
X0166865Y0085923D01*
X0165867Y0086921D02*
X0135483Y0086921D01*
X0135114Y0087920D02*
X0164868Y0087920D01*
X0163870Y0088918D02*
X0160025Y0088918D01*
X0158642Y0088918D02*
X0133920Y0088918D01*
X0131746Y0088918D02*
X0121373Y0088918D01*
X0121373Y0087920D02*
X0130553Y0087920D01*
X0130183Y0086921D02*
X0121373Y0086921D01*
X0120739Y0085923D02*
X0130204Y0085923D01*
X0130662Y0084924D02*
X0119740Y0084924D01*
X0119573Y0087303D02*
X0119573Y0094776D01*
X0117023Y0094909D02*
X0114643Y0094909D01*
X0114643Y0093911D02*
X0117023Y0093911D01*
X0117023Y0092912D02*
X0114643Y0092912D01*
X0114643Y0091914D02*
X0117023Y0091914D01*
X0117773Y0090915D02*
X0113483Y0090915D01*
X0113483Y0090976D02*
X0113483Y0090473D01*
X0113080Y0089499D01*
X0112334Y0088753D01*
X0111360Y0088350D01*
X0110306Y0088350D01*
X0109332Y0088753D01*
X0108587Y0089499D01*
X0108183Y0090473D01*
X0108183Y0091527D01*
X0108587Y0092501D01*
X0109332Y0093247D01*
X0109543Y0093334D01*
X0109543Y0097814D01*
X0110305Y0098576D01*
X0113882Y0098576D01*
X0114643Y0097814D01*
X0114643Y0091737D01*
X0113882Y0090976D01*
X0113483Y0090976D01*
X0113253Y0089917D02*
X0117773Y0089917D01*
X0117773Y0088918D02*
X0112499Y0088918D01*
X0109168Y0088918D02*
X0106976Y0088918D01*
X0106976Y0087920D02*
X0117644Y0087920D01*
X0116646Y0086921D02*
X0106976Y0086921D01*
X0106976Y0085923D02*
X0115647Y0085923D01*
X0114649Y0084924D02*
X0114157Y0084924D01*
X0109591Y0084924D02*
X0106976Y0084924D01*
X0106976Y0083926D02*
X0108592Y0083926D01*
X0107593Y0082927D02*
X0106976Y0082927D01*
X0107833Y0080000D02*
X0108707Y0079126D01*
X0108707Y0076437D01*
X0119573Y0087303D01*
X0121373Y0089917D02*
X0157169Y0089917D01*
X0156707Y0090915D02*
X0121373Y0090915D01*
X0122123Y0091914D02*
X0156683Y0091914D01*
X0157050Y0092912D02*
X0146084Y0092912D01*
X0146133Y0092962D02*
X0146133Y0100038D01*
X0145372Y0100800D01*
X0138295Y0100800D01*
X0137533Y0100038D01*
X0137533Y0092962D01*
X0138295Y0092200D01*
X0145372Y0092200D01*
X0146133Y0092962D01*
X0146133Y0093911D02*
X0158228Y0093911D01*
X0160438Y0093911D02*
X0177660Y0093911D01*
X0177806Y0093850D02*
X0178860Y0093850D01*
X0179834Y0094253D01*
X0180580Y0094999D01*
X0180983Y0095973D01*
X0180983Y0096086D01*
X0181279Y0095791D01*
X0186293Y0095791D01*
X0186739Y0096236D01*
X0187185Y0095791D01*
X0192199Y0095791D01*
X0192960Y0096552D01*
X0192960Y0105503D01*
X0192199Y0106265D01*
X0187185Y0106265D01*
X0186739Y0105819D01*
X0186293Y0106265D01*
X0181279Y0106265D01*
X0180833Y0105819D01*
X0180388Y0106265D01*
X0175374Y0106265D01*
X0174928Y0105819D01*
X0174482Y0106265D01*
X0169468Y0106265D01*
X0168707Y0105503D01*
X0168707Y0096552D01*
X0169468Y0095791D01*
X0174482Y0095791D01*
X0174928Y0096236D01*
X0175374Y0095791D01*
X0175759Y0095791D01*
X0176087Y0094999D01*
X0176832Y0094253D01*
X0177806Y0093850D01*
X0179007Y0093911D02*
X0195198Y0093911D01*
X0196197Y0094909D02*
X0180490Y0094909D01*
X0180956Y0095908D02*
X0181162Y0095908D01*
X0178333Y0096500D02*
X0178333Y0100575D01*
X0177881Y0101028D01*
X0168707Y0100900D02*
X0166554Y0100900D01*
X0166333Y0100764D02*
X0166333Y0095500D01*
X0166554Y0096591D02*
X0168138Y0096591D01*
X0168321Y0096667D01*
X0168462Y0096807D01*
X0168538Y0096991D01*
X0168538Y0100543D01*
X0166554Y0100543D01*
X0166554Y0096591D01*
X0166554Y0096906D02*
X0165585Y0096906D01*
X0165585Y0096591D02*
X0165585Y0100543D01*
X0166554Y0100543D01*
X0166554Y0101512D01*
X0165585Y0101512D01*
X0165585Y0100543D01*
X0163601Y0100543D01*
X0163601Y0096991D01*
X0163677Y0096807D01*
X0163818Y0096667D01*
X0164002Y0096591D01*
X0165585Y0096591D01*
X0165585Y0097905D02*
X0166554Y0097905D01*
X0166554Y0098903D02*
X0165585Y0098903D01*
X0165585Y0099902D02*
X0166554Y0099902D01*
X0166333Y0100764D02*
X0166070Y0101028D01*
X0165585Y0100900D02*
X0163433Y0100900D01*
X0163601Y0101512D02*
X0165585Y0101512D01*
X0165585Y0105465D01*
X0164002Y0105465D01*
X0163818Y0105388D01*
X0163677Y0105248D01*
X0163601Y0105064D01*
X0163601Y0101512D01*
X0163601Y0101899D02*
X0163433Y0101899D01*
X0163433Y0102897D02*
X0163601Y0102897D01*
X0163601Y0103896D02*
X0163433Y0103896D01*
X0163433Y0104894D02*
X0163601Y0104894D01*
X0163433Y0105503D02*
X0162671Y0106265D01*
X0157657Y0106265D01*
X0157211Y0105819D01*
X0156766Y0106265D01*
X0152291Y0106265D01*
X0151360Y0106650D01*
X0150306Y0106650D01*
X0149332Y0106247D01*
X0148587Y0105501D01*
X0148183Y0104527D01*
X0148183Y0103473D01*
X0148587Y0102499D01*
X0149332Y0101753D01*
X0150306Y0101350D01*
X0150990Y0101350D01*
X0150990Y0096552D01*
X0151752Y0095791D01*
X0156766Y0095791D01*
X0157211Y0096236D01*
X0157657Y0095791D01*
X0162671Y0095791D01*
X0163433Y0096552D01*
X0163433Y0105503D01*
X0163043Y0105893D02*
X0169096Y0105893D01*
X0168462Y0105248D02*
X0168321Y0105388D01*
X0168138Y0105465D01*
X0166554Y0105465D01*
X0166554Y0101512D01*
X0168538Y0101512D01*
X0168538Y0105064D01*
X0168462Y0105248D01*
X0168538Y0104894D02*
X0168707Y0104894D01*
X0168707Y0103896D02*
X0168538Y0103896D01*
X0168538Y0102897D02*
X0168707Y0102897D01*
X0168707Y0101899D02*
X0168538Y0101899D01*
X0166554Y0101899D02*
X0165585Y0101899D01*
X0165585Y0102897D02*
X0166554Y0102897D01*
X0166554Y0103896D02*
X0165585Y0103896D01*
X0165585Y0104894D02*
X0166554Y0104894D01*
X0174854Y0105893D02*
X0175002Y0105893D01*
X0180759Y0105893D02*
X0180907Y0105893D01*
X0186665Y0105893D02*
X0186813Y0105893D01*
X0192570Y0105893D02*
X0198624Y0105893D01*
X0197989Y0105248D02*
X0197849Y0105388D01*
X0197665Y0105465D01*
X0196081Y0105465D01*
X0196081Y0101512D01*
X0195113Y0101512D01*
X0195113Y0105465D01*
X0193529Y0105465D01*
X0193345Y0105388D01*
X0193205Y0105248D01*
X0193129Y0105064D01*
X0193129Y0101512D01*
X0195113Y0101512D01*
X0195113Y0100543D01*
X0196081Y0100543D01*
X0196081Y0096591D01*
X0197665Y0096591D01*
X0197849Y0096667D01*
X0197989Y0096807D01*
X0198066Y0096991D01*
X0198066Y0100543D01*
X0196081Y0100543D01*
X0196081Y0101512D01*
X0198066Y0101512D01*
X0198066Y0105064D01*
X0197989Y0105248D01*
X0198066Y0104894D02*
X0198234Y0104894D01*
X0198234Y0103896D02*
X0198066Y0103896D01*
X0198066Y0102897D02*
X0198234Y0102897D01*
X0198234Y0101899D02*
X0198066Y0101899D01*
X0198234Y0100900D02*
X0196081Y0100900D01*
X0195833Y0100791D02*
X0195833Y0096500D01*
X0193333Y0094000D01*
X0188333Y0094000D01*
X0187067Y0095908D02*
X0186410Y0095908D01*
X0192316Y0095908D02*
X0197195Y0095908D01*
X0198030Y0096906D02*
X0198194Y0096906D01*
X0198234Y0097905D02*
X0198066Y0097905D01*
X0198066Y0098903D02*
X0198234Y0098903D01*
X0198234Y0099902D02*
X0198066Y0099902D01*
X0196081Y0099902D02*
X0195113Y0099902D01*
X0195113Y0100543D02*
X0195113Y0096591D01*
X0193529Y0096591D01*
X0193345Y0096667D01*
X0193205Y0096807D01*
X0193129Y0096991D01*
X0193129Y0100543D01*
X0195113Y0100543D01*
X0195113Y0100900D02*
X0192960Y0100900D01*
X0192960Y0099902D02*
X0193129Y0099902D01*
X0193129Y0098903D02*
X0192960Y0098903D01*
X0192960Y0097905D02*
X0193129Y0097905D01*
X0193164Y0096906D02*
X0192960Y0096906D01*
X0195113Y0096906D02*
X0196081Y0096906D01*
X0196081Y0097905D02*
X0195113Y0097905D01*
X0195113Y0098903D02*
X0196081Y0098903D01*
X0195833Y0100791D02*
X0195597Y0101028D01*
X0195113Y0101899D02*
X0196081Y0101899D01*
X0196081Y0102897D02*
X0195113Y0102897D01*
X0195113Y0103896D02*
X0196081Y0103896D01*
X0196081Y0104894D02*
X0195113Y0104894D01*
X0193129Y0104894D02*
X0192960Y0104894D01*
X0192960Y0103896D02*
X0193129Y0103896D01*
X0193129Y0102897D02*
X0192960Y0102897D01*
X0192960Y0101899D02*
X0193129Y0101899D01*
X0201333Y0100858D02*
X0201333Y0097500D01*
X0196833Y0093000D01*
X0196333Y0091500D01*
X0194169Y0089917D02*
X0167962Y0089917D01*
X0166964Y0090915D02*
X0193707Y0090915D01*
X0193683Y0091914D02*
X0165965Y0091914D01*
X0164967Y0092912D02*
X0194050Y0092912D01*
X0198983Y0091914D02*
X0199683Y0091914D01*
X0199843Y0092912D02*
X0199291Y0092912D01*
X0200290Y0093911D02*
X0200496Y0093911D01*
X0201288Y0094909D02*
X0203197Y0094909D01*
X0204127Y0095908D02*
X0204195Y0095908D01*
X0206833Y0096000D02*
X0206833Y0100453D01*
X0207408Y0101028D01*
X0210677Y0100900D02*
X0217533Y0100900D01*
X0217533Y0099902D02*
X0210677Y0099902D01*
X0210677Y0098903D02*
X0217533Y0098903D01*
X0217533Y0097905D02*
X0210677Y0097905D01*
X0210677Y0096906D02*
X0216694Y0096906D01*
X0215695Y0095908D02*
X0213173Y0095908D01*
X0213825Y0094909D02*
X0214697Y0094909D01*
X0218833Y0093500D02*
X0199833Y0074500D01*
X0199833Y0072000D01*
X0197833Y0070000D01*
X0195833Y0070000D01*
X0193183Y0069946D02*
X0192432Y0069946D01*
X0193356Y0070945D02*
X0191434Y0070945D01*
X0190435Y0071943D02*
X0194029Y0071943D01*
X0193903Y0072942D02*
X0189437Y0072942D01*
X0188438Y0073940D02*
X0193683Y0073940D01*
X0193854Y0074939D02*
X0187440Y0074939D01*
X0186441Y0075937D02*
X0194523Y0075937D01*
X0196724Y0076936D02*
X0185443Y0076936D01*
X0184444Y0077934D02*
X0197722Y0077934D01*
X0198721Y0078933D02*
X0183446Y0078933D01*
X0182447Y0079932D02*
X0199719Y0079932D01*
X0200718Y0080930D02*
X0181449Y0080930D01*
X0180860Y0081350D02*
X0181834Y0081753D01*
X0182580Y0082499D01*
X0182983Y0083473D01*
X0182983Y0084527D01*
X0182580Y0085501D01*
X0181834Y0086247D01*
X0180860Y0086650D01*
X0179806Y0086650D01*
X0178832Y0086247D01*
X0178087Y0085501D01*
X0177683Y0084527D01*
X0177683Y0083473D01*
X0178087Y0082499D01*
X0178832Y0081753D01*
X0179806Y0081350D01*
X0180860Y0081350D01*
X0182010Y0081929D02*
X0201716Y0081929D01*
X0202715Y0082927D02*
X0182757Y0082927D01*
X0182983Y0083926D02*
X0203713Y0083926D01*
X0204712Y0084924D02*
X0182819Y0084924D01*
X0182158Y0085923D02*
X0205710Y0085923D01*
X0206709Y0086921D02*
X0170958Y0086921D01*
X0171956Y0085923D02*
X0178508Y0085923D01*
X0177848Y0084924D02*
X0172955Y0084924D01*
X0173953Y0083926D02*
X0177683Y0083926D01*
X0177909Y0082927D02*
X0174952Y0082927D01*
X0175950Y0081929D02*
X0178657Y0081929D01*
X0180333Y0079500D02*
X0175833Y0079500D01*
X0163833Y0091500D01*
X0159333Y0091500D01*
X0168961Y0088918D02*
X0195642Y0088918D01*
X0197025Y0088918D02*
X0208706Y0088918D01*
X0207707Y0087920D02*
X0169959Y0087920D01*
X0176176Y0094909D02*
X0146133Y0094909D01*
X0146133Y0095908D02*
X0151634Y0095908D01*
X0150990Y0096906D02*
X0146133Y0096906D01*
X0146133Y0097905D02*
X0150990Y0097905D01*
X0150990Y0098903D02*
X0146133Y0098903D01*
X0146133Y0099902D02*
X0150990Y0099902D01*
X0150990Y0100900D02*
X0104333Y0100900D01*
X0104333Y0099902D02*
X0127533Y0099902D01*
X0127533Y0100038D02*
X0128295Y0100800D01*
X0135372Y0100800D01*
X0136133Y0100038D01*
X0136133Y0092962D01*
X0135372Y0092200D01*
X0128295Y0092200D01*
X0127533Y0092962D01*
X0127533Y0100038D01*
X0127533Y0098903D02*
X0104333Y0098903D01*
X0104333Y0098809D02*
X0103039Y0095685D01*
X0100648Y0093294D01*
X0097524Y0092000D01*
X0094143Y0092000D01*
X0091018Y0093294D01*
X0088627Y0095685D01*
X0087333Y0098809D01*
X0087333Y0102191D01*
X0088627Y0105315D01*
X0091018Y0107706D01*
X0094143Y0109000D01*
X0097524Y0109000D01*
X0100648Y0107706D01*
X0103039Y0105315D01*
X0104333Y0102191D01*
X0104333Y0098809D01*
X0103959Y0097905D02*
X0109634Y0097905D01*
X0109543Y0096906D02*
X0103545Y0096906D01*
X0103131Y0095908D02*
X0109543Y0095908D01*
X0109543Y0094909D02*
X0102263Y0094909D01*
X0101265Y0093911D02*
X0109543Y0093911D01*
X0108998Y0092912D02*
X0099726Y0092912D01*
X0092908Y0089917D02*
X0086833Y0089917D01*
X0086833Y0090915D02*
X0108183Y0090915D01*
X0108343Y0091914D02*
X0086833Y0091914D01*
X0086833Y0092912D02*
X0091940Y0092912D01*
X0090402Y0093911D02*
X0086833Y0093911D01*
X0086833Y0094909D02*
X0089403Y0094909D01*
X0088535Y0095908D02*
X0086833Y0095908D01*
X0086833Y0096906D02*
X0088122Y0096906D01*
X0087708Y0097905D02*
X0086833Y0097905D01*
X0086833Y0098903D02*
X0087333Y0098903D01*
X0087333Y0099902D02*
X0086833Y0099902D01*
X0086833Y0100900D02*
X0087333Y0100900D01*
X0087333Y0101899D02*
X0086833Y0101899D01*
X0086833Y0102897D02*
X0087626Y0102897D01*
X0088040Y0103896D02*
X0086833Y0103896D01*
X0086833Y0104894D02*
X0088453Y0104894D01*
X0089205Y0105893D02*
X0086833Y0105893D01*
X0086833Y0106891D02*
X0090204Y0106891D01*
X0091462Y0107890D02*
X0086833Y0107890D01*
X0086833Y0108888D02*
X0093873Y0108888D01*
X0097794Y0108888D02*
X0358373Y0108888D01*
X0358643Y0109000D02*
X0355518Y0107706D01*
X0353127Y0105315D01*
X0351833Y0102191D01*
X0351833Y0098809D01*
X0353127Y0095685D01*
X0355518Y0093294D01*
X0358643Y0092000D01*
X0362024Y0092000D01*
X0365148Y0093294D01*
X0367539Y0095685D01*
X0368833Y0098809D01*
X0368833Y0102191D01*
X0367539Y0105315D01*
X0365148Y0107706D01*
X0362024Y0109000D01*
X0358643Y0109000D01*
X0355962Y0107890D02*
X0336262Y0107890D01*
X0336873Y0106891D02*
X0338559Y0106891D01*
X0338538Y0106840D02*
X0338538Y0103500D01*
X0342081Y0103500D01*
X0342081Y0102500D01*
X0338538Y0102500D01*
X0338538Y0099160D01*
X0338614Y0098977D01*
X0338755Y0098836D01*
X0338939Y0098760D01*
X0342081Y0098760D01*
X0342081Y0102500D01*
X0343081Y0102500D01*
X0343081Y0098760D01*
X0346224Y0098760D01*
X0346408Y0098836D01*
X0346549Y0098977D01*
X0346625Y0099160D01*
X0346625Y0102500D01*
X0343081Y0102500D01*
X0343081Y0103500D01*
X0342081Y0103500D01*
X0342081Y0107240D01*
X0338939Y0107240D01*
X0338755Y0107164D01*
X0338614Y0107023D01*
X0338538Y0106840D01*
X0338538Y0105893D02*
X0336873Y0105893D01*
X0336873Y0104894D02*
X0338538Y0104894D01*
X0338538Y0103896D02*
X0336873Y0103896D01*
X0336873Y0102897D02*
X0342081Y0102897D01*
X0342385Y0103000D02*
X0342581Y0103000D01*
X0342385Y0103000D02*
X0331951Y0092567D01*
X0331951Y0092567D01*
X0331951Y0092567D01*
X0331833Y0092449D01*
X0331833Y0086500D01*
X0330833Y0085500D01*
X0328333Y0086000D01*
X0327300Y0086921D02*
X0353047Y0086921D01*
X0352833Y0085923D02*
X0326302Y0085923D01*
X0325303Y0084924D02*
X0352833Y0084924D01*
X0360833Y0084924D02*
X0361833Y0084924D01*
X0361833Y0085923D02*
X0360833Y0085923D01*
X0360833Y0086921D02*
X0361833Y0086921D01*
X0369034Y0087920D02*
X0328299Y0087920D01*
X0326833Y0089000D02*
X0326833Y0092567D01*
X0324274Y0092567D02*
X0324274Y0089559D01*
X0324333Y0089500D01*
X0322833Y0088000D01*
X0312833Y0088000D01*
X0309833Y0091000D01*
X0221333Y0091000D01*
X0218333Y0088500D01*
X0220438Y0086857D02*
X0220587Y0086499D01*
X0221332Y0085753D01*
X0222306Y0085350D01*
X0223360Y0085350D01*
X0224334Y0085753D01*
X0225080Y0086499D01*
X0225163Y0086700D01*
X0246962Y0086700D01*
X0246683Y0086027D01*
X0246683Y0084973D01*
X0247087Y0083999D01*
X0247832Y0083253D01*
X0248191Y0083105D01*
X0247886Y0082800D01*
X0219588Y0082800D01*
X0218533Y0081746D01*
X0213438Y0076650D01*
X0212806Y0076650D01*
X0211832Y0076247D01*
X0211133Y0075548D01*
X0211133Y0076552D01*
X0211580Y0076999D01*
X0211983Y0077973D01*
X0211983Y0079027D01*
X0211580Y0080001D01*
X0210834Y0080747D01*
X0209860Y0081150D01*
X0209029Y0081150D01*
X0215733Y0087854D01*
X0216087Y0086999D01*
X0216832Y0086253D01*
X0217806Y0085850D01*
X0218860Y0085850D01*
X0219834Y0086253D01*
X0220438Y0086857D01*
X0221163Y0085923D02*
X0219036Y0085923D01*
X0217631Y0085923D02*
X0213801Y0085923D01*
X0212803Y0084924D02*
X0246704Y0084924D01*
X0246683Y0085923D02*
X0224504Y0085923D01*
X0222833Y0088000D02*
X0223333Y0088500D01*
X0308833Y0088500D01*
X0311333Y0086000D01*
X0323833Y0086000D01*
X0326833Y0089000D01*
X0331027Y0088918D02*
X0369034Y0088918D01*
X0369034Y0089917D02*
X0333140Y0089917D01*
X0333140Y0089712D02*
X0333140Y0092567D01*
X0333140Y0095422D01*
X0333064Y0095606D01*
X0332924Y0095747D01*
X0332740Y0095823D01*
X0331951Y0095823D01*
X0331951Y0092567D01*
X0331951Y0089311D01*
X0332740Y0089311D01*
X0332924Y0089387D01*
X0333064Y0089528D01*
X0333140Y0089712D01*
X0333140Y0090915D02*
X0369034Y0090915D01*
X0369034Y0091914D02*
X0333140Y0091914D01*
X0333140Y0092567D02*
X0331952Y0092567D01*
X0333140Y0092567D01*
X0333140Y0092912D02*
X0356440Y0092912D01*
X0354902Y0093911D02*
X0333140Y0093911D01*
X0333140Y0094909D02*
X0353903Y0094909D01*
X0353035Y0095908D02*
X0331335Y0095908D01*
X0331951Y0094909D02*
X0331951Y0094909D01*
X0331951Y0093911D02*
X0331951Y0093911D01*
X0331951Y0092912D02*
X0331951Y0092912D01*
X0331952Y0092567D02*
X0331952Y0092567D01*
X0331951Y0091914D02*
X0331951Y0091914D01*
X0331951Y0090915D02*
X0331951Y0090915D01*
X0331951Y0089917D02*
X0331951Y0089917D01*
X0319726Y0089917D02*
X0313462Y0089917D01*
X0312464Y0090915D02*
X0319726Y0090915D01*
X0319726Y0091914D02*
X0311465Y0091914D01*
X0311633Y0091746D02*
X0311633Y0091746D01*
X0317175Y0093911D02*
X0298992Y0093911D01*
X0299080Y0093999D02*
X0299483Y0094973D01*
X0299483Y0096027D01*
X0299080Y0097001D01*
X0298334Y0097747D01*
X0297360Y0098150D01*
X0296306Y0098150D01*
X0295332Y0097747D01*
X0294587Y0097001D01*
X0294183Y0096027D01*
X0294183Y0094973D01*
X0294587Y0093999D01*
X0295332Y0093253D01*
X0296306Y0092850D01*
X0297360Y0092850D01*
X0298334Y0093253D01*
X0299080Y0093999D01*
X0299457Y0094909D02*
X0316417Y0094909D01*
X0316183Y0095908D02*
X0299483Y0095908D01*
X0299119Y0096906D02*
X0316340Y0096906D01*
X0316990Y0097905D02*
X0297953Y0097905D01*
X0295714Y0097905D02*
X0249133Y0097905D01*
X0249133Y0098903D02*
X0307191Y0098903D01*
X0307259Y0098836D02*
X0307443Y0098760D01*
X0310585Y0098760D01*
X0310585Y0102500D01*
X0307042Y0102500D01*
X0307042Y0099160D01*
X0307118Y0098977D01*
X0307259Y0098836D01*
X0307042Y0099902D02*
X0249133Y0099902D01*
X0249133Y0100900D02*
X0307042Y0100900D01*
X0307042Y0101899D02*
X0248980Y0101899D01*
X0247982Y0102897D02*
X0310585Y0102897D01*
X0310585Y0102500D02*
X0310585Y0103500D01*
X0307042Y0103500D01*
X0307042Y0106840D01*
X0307118Y0107023D01*
X0307259Y0107164D01*
X0307443Y0107240D01*
X0310585Y0107240D01*
X0310585Y0103500D01*
X0311585Y0103500D01*
X0311585Y0107240D01*
X0314728Y0107240D01*
X0314912Y0107164D01*
X0315052Y0107023D01*
X0315129Y0106840D01*
X0315129Y0103500D01*
X0311585Y0103500D01*
X0311585Y0102500D01*
X0311585Y0098760D01*
X0314728Y0098760D01*
X0314912Y0098836D01*
X0315052Y0098977D01*
X0315129Y0099160D01*
X0315129Y0102500D01*
X0311585Y0102500D01*
X0310585Y0102500D01*
X0310585Y0101899D02*
X0311585Y0101899D01*
X0311585Y0102897D02*
X0316793Y0102897D01*
X0316793Y0101899D02*
X0315129Y0101899D01*
X0315129Y0100900D02*
X0316793Y0100900D01*
X0316793Y0099902D02*
X0315129Y0099902D01*
X0314979Y0098903D02*
X0316793Y0098903D01*
X0320676Y0097905D02*
X0352208Y0097905D01*
X0351833Y0098903D02*
X0346475Y0098903D01*
X0346625Y0099902D02*
X0351833Y0099902D01*
X0351833Y0100900D02*
X0346625Y0100900D01*
X0346625Y0101899D02*
X0351833Y0101899D01*
X0352126Y0102897D02*
X0343081Y0102897D01*
X0343081Y0103500D02*
X0346625Y0103500D01*
X0346625Y0106840D01*
X0346549Y0107023D01*
X0346408Y0107164D01*
X0346224Y0107240D01*
X0343081Y0107240D01*
X0343081Y0103500D01*
X0343081Y0103896D02*
X0342081Y0103896D01*
X0342081Y0104894D02*
X0343081Y0104894D01*
X0343081Y0105893D02*
X0342081Y0105893D01*
X0342081Y0106891D02*
X0343081Y0106891D01*
X0346603Y0106891D02*
X0354704Y0106891D01*
X0353705Y0105893D02*
X0346625Y0105893D01*
X0346625Y0104894D02*
X0352953Y0104894D01*
X0352540Y0103896D02*
X0346625Y0103896D01*
X0343081Y0101899D02*
X0342081Y0101899D01*
X0342081Y0100900D02*
X0343081Y0100900D01*
X0343081Y0099902D02*
X0342081Y0099902D01*
X0342081Y0098903D02*
X0343081Y0098903D01*
X0338688Y0098903D02*
X0336873Y0098903D01*
X0336873Y0099902D02*
X0338538Y0099902D01*
X0338538Y0100900D02*
X0336873Y0100900D01*
X0336873Y0101899D02*
X0338538Y0101899D01*
X0327404Y0107890D02*
X0326262Y0107890D01*
X0317404Y0107890D02*
X0100204Y0107890D01*
X0101463Y0106891D02*
X0114111Y0106891D01*
X0114083Y0106824D02*
X0114083Y0104349D01*
X0115708Y0104349D01*
X0115708Y0104099D01*
X0115958Y0104099D01*
X0115958Y0101224D01*
X0117183Y0101224D01*
X0117367Y0101301D01*
X0117507Y0101441D01*
X0117583Y0101625D01*
X0117583Y0104099D01*
X0115958Y0104099D01*
X0115958Y0104349D01*
X0117583Y0104349D01*
X0117583Y0106824D01*
X0117507Y0107008D01*
X0117367Y0107148D01*
X0117183Y0107224D01*
X0115958Y0107224D01*
X0115958Y0104349D01*
X0115708Y0104349D01*
X0115708Y0107224D01*
X0114484Y0107224D01*
X0114300Y0107148D01*
X0114159Y0107008D01*
X0114083Y0106824D01*
X0114083Y0105893D02*
X0102461Y0105893D01*
X0103213Y0104894D02*
X0114083Y0104894D01*
X0114083Y0104099D02*
X0114083Y0101625D01*
X0114159Y0101441D01*
X0114300Y0101301D01*
X0114484Y0101224D01*
X0115708Y0101224D01*
X0115708Y0104099D01*
X0114083Y0104099D01*
X0114083Y0103896D02*
X0103627Y0103896D01*
X0104041Y0102897D02*
X0114083Y0102897D01*
X0114083Y0101899D02*
X0104333Y0101899D01*
X0114552Y0097905D02*
X0117114Y0097905D01*
X0117023Y0096906D02*
X0114643Y0096906D01*
X0114643Y0095908D02*
X0117023Y0095908D01*
X0112093Y0094776D02*
X0112093Y0092260D01*
X0110833Y0091000D01*
X0108414Y0089917D02*
X0106633Y0089917D01*
X0092565Y0088918D02*
X0086833Y0088918D01*
X0086833Y0087920D02*
X0092565Y0087920D01*
X0092565Y0086921D02*
X0086833Y0086921D01*
X0086833Y0085923D02*
X0092565Y0085923D01*
X0092565Y0084924D02*
X0086833Y0084924D01*
X0086833Y0083926D02*
X0092565Y0083926D01*
X0092565Y0082927D02*
X0086833Y0082927D01*
X0086833Y0081929D02*
X0092834Y0081929D01*
X0092218Y0080930D02*
X0086833Y0080930D01*
X0086833Y0079932D02*
X0091219Y0079932D01*
X0090221Y0078933D02*
X0086833Y0078933D01*
X0086833Y0077934D02*
X0089222Y0077934D01*
X0088224Y0076936D02*
X0086833Y0076936D01*
X0086833Y0075937D02*
X0087225Y0075937D01*
X0087033Y0074939D02*
X0086833Y0074939D01*
X0086833Y0073940D02*
X0087033Y0073940D01*
X0087033Y0072942D02*
X0086833Y0072942D01*
X0086833Y0071943D02*
X0087033Y0071943D01*
X0087033Y0070945D02*
X0086833Y0070945D01*
X0086833Y0069946D02*
X0087033Y0069946D01*
X0087033Y0068948D02*
X0086833Y0068948D01*
X0086833Y0067949D02*
X0087033Y0067949D01*
X0087033Y0066951D02*
X0086833Y0066951D01*
X0086833Y0065952D02*
X0087033Y0065952D01*
X0087033Y0064954D02*
X0086833Y0064954D01*
X0086833Y0063955D02*
X0087033Y0063955D01*
X0087033Y0062957D02*
X0086833Y0062957D01*
X0090633Y0062957D02*
X0092719Y0062957D01*
X0092565Y0061958D02*
X0091305Y0061958D01*
X0091483Y0060960D02*
X0092565Y0060960D01*
X0092565Y0059961D02*
X0091271Y0059961D01*
X0090544Y0058963D02*
X0092565Y0058963D01*
X0088833Y0061000D02*
X0088833Y0075000D01*
X0093833Y0080000D01*
X0102833Y0080000D01*
X0096581Y0077934D02*
X0094313Y0077934D01*
X0093315Y0076936D02*
X0096581Y0076936D01*
X0096581Y0075937D02*
X0092316Y0075937D01*
X0091318Y0074939D02*
X0096581Y0074939D01*
X0096581Y0073940D02*
X0090633Y0073940D01*
X0090633Y0072942D02*
X0162644Y0072942D01*
X0162832Y0072753D02*
X0163806Y0072350D01*
X0164860Y0072350D01*
X0165834Y0072753D01*
X0166580Y0073499D01*
X0166983Y0074473D01*
X0166983Y0075527D01*
X0166580Y0076501D01*
X0165834Y0077247D01*
X0164860Y0077650D01*
X0163806Y0077650D01*
X0162832Y0077247D01*
X0162087Y0076501D01*
X0161683Y0075527D01*
X0161683Y0074473D01*
X0162087Y0073499D01*
X0162832Y0072753D01*
X0161904Y0073940D02*
X0120834Y0073940D01*
X0120834Y0074939D02*
X0150591Y0074939D01*
X0152075Y0074939D02*
X0161683Y0074939D01*
X0161853Y0075937D02*
X0153518Y0075937D01*
X0153968Y0076936D02*
X0162522Y0076936D01*
X0166145Y0076936D02*
X0174705Y0076936D01*
X0174853Y0077934D02*
X0153983Y0077934D01*
X0153608Y0078933D02*
X0173855Y0078933D01*
X0180333Y0079500D02*
X0193833Y0066000D01*
X0196833Y0062500D01*
X0199099Y0063955D02*
X0199836Y0063955D01*
X0201830Y0063955D02*
X0219777Y0063955D01*
X0219777Y0062957D02*
X0203098Y0062957D01*
X0203483Y0061958D02*
X0220013Y0061958D01*
X0227654Y0061958D02*
X0235829Y0061958D01*
X0235621Y0060960D02*
X0236828Y0060960D01*
X0236303Y0059961D02*
X0237826Y0059961D01*
X0238825Y0058963D02*
X0236483Y0058963D01*
X0235636Y0056559D02*
X0233333Y0054256D01*
X0233294Y0054217D01*
X0233314Y0048197D01*
X0235814Y0046539D01*
X0233873Y0046539D01*
X0233333Y0045500D01*
X0226294Y0045539D01*
X0224333Y0049500D01*
X0216333Y0049500D01*
X0214833Y0048000D01*
X0214833Y0046500D01*
X0213980Y0043985D02*
X0210677Y0043985D01*
X0210677Y0042987D02*
X0226485Y0042987D01*
X0225773Y0041988D02*
X0225069Y0041988D01*
X0225133Y0040990D02*
X0225773Y0040990D01*
X0225773Y0039991D02*
X0225133Y0039991D01*
X0225133Y0038993D02*
X0225773Y0038993D01*
X0225773Y0037994D02*
X0225133Y0037994D01*
X0225133Y0036996D02*
X0225773Y0036996D01*
X0225773Y0035997D02*
X0225133Y0035997D01*
X0221613Y0035997D02*
X0086833Y0035997D01*
X0086833Y0036996D02*
X0091739Y0036996D01*
X0090318Y0037994D02*
X0086833Y0037994D01*
X0086833Y0038993D02*
X0089320Y0038993D01*
X0088501Y0039991D02*
X0086833Y0039991D01*
X0086833Y0040990D02*
X0088087Y0040990D01*
X0087673Y0041988D02*
X0086833Y0041988D01*
X0086833Y0042987D02*
X0087333Y0042987D01*
X0087333Y0043985D02*
X0086833Y0043985D01*
X0086833Y0044984D02*
X0087333Y0044984D01*
X0087333Y0045982D02*
X0086833Y0045982D01*
X0086833Y0046981D02*
X0087661Y0046981D01*
X0088074Y0047979D02*
X0086833Y0047979D01*
X0086833Y0048978D02*
X0088488Y0048978D01*
X0089289Y0049976D02*
X0086833Y0049976D01*
X0086833Y0050975D02*
X0090287Y0050975D01*
X0091664Y0051973D02*
X0086833Y0051973D01*
X0086833Y0052972D02*
X0094074Y0052972D01*
X0112621Y0060960D02*
X0166328Y0060960D01*
X0167326Y0059961D02*
X0122671Y0059961D01*
X0123251Y0058963D02*
X0182825Y0058963D01*
X0183683Y0057964D02*
X0123251Y0057964D01*
X0123251Y0056966D02*
X0159361Y0056966D01*
X0158073Y0055967D02*
X0123251Y0055967D01*
X0123251Y0054969D02*
X0157683Y0054969D01*
X0157684Y0053970D02*
X0121783Y0053970D01*
X0121783Y0052972D02*
X0149759Y0052972D01*
X0148761Y0051973D02*
X0146133Y0051973D01*
X0146133Y0050975D02*
X0147762Y0050975D01*
X0146764Y0049976D02*
X0146133Y0049976D01*
X0146833Y0047500D02*
X0146833Y0044000D01*
X0146333Y0043500D01*
X0142833Y0043500D01*
X0139833Y0040500D01*
X0125333Y0040500D01*
X0124333Y0040500D01*
X0123904Y0040929D01*
X0119983Y0040929D01*
X0119983Y0057071D01*
X0117295Y0059961D02*
X0116372Y0059961D01*
X0121783Y0051973D02*
X0127533Y0051973D01*
X0127533Y0052038D02*
X0127533Y0044962D01*
X0128295Y0044200D01*
X0135372Y0044200D01*
X0136133Y0044962D01*
X0136133Y0052038D01*
X0135372Y0052800D01*
X0128295Y0052800D01*
X0127533Y0052038D01*
X0127533Y0050975D02*
X0121783Y0050975D01*
X0121783Y0049976D02*
X0127533Y0049976D01*
X0127533Y0048978D02*
X0121783Y0048978D01*
X0121783Y0047979D02*
X0127533Y0047979D01*
X0127533Y0046981D02*
X0121783Y0046981D01*
X0121783Y0045982D02*
X0127533Y0045982D01*
X0127533Y0044984D02*
X0121783Y0044984D01*
X0122506Y0043985D02*
X0140773Y0043985D01*
X0139774Y0042987D02*
X0126255Y0042987D01*
X0124412Y0042987D02*
X0123251Y0042987D01*
X0122626Y0037994D02*
X0124458Y0037994D01*
X0126208Y0037994D02*
X0150990Y0037994D01*
X0150990Y0037497D02*
X0151752Y0036735D01*
X0156766Y0036735D01*
X0157527Y0037497D01*
X0157527Y0046448D01*
X0156766Y0047209D01*
X0151752Y0047209D01*
X0150990Y0046448D01*
X0150990Y0037497D01*
X0151491Y0036996D02*
X0099928Y0036996D01*
X0116327Y0037994D02*
X0117339Y0037994D01*
X0136133Y0044984D02*
X0137533Y0044984D01*
X0137533Y0045982D02*
X0136133Y0045982D01*
X0136133Y0046981D02*
X0137533Y0046981D01*
X0137533Y0047979D02*
X0136133Y0047979D01*
X0136133Y0048978D02*
X0137533Y0048978D01*
X0137533Y0049976D02*
X0136133Y0049976D01*
X0136133Y0050975D02*
X0137533Y0050975D01*
X0137533Y0051973D02*
X0136133Y0051973D01*
X0146833Y0047500D02*
X0150833Y0051500D01*
X0162333Y0051500D01*
X0162833Y0052000D01*
X0189833Y0052000D01*
X0192483Y0051973D02*
X0220813Y0051973D01*
X0220813Y0052972D02*
X0192299Y0052972D01*
X0192284Y0050975D02*
X0215262Y0050975D01*
X0214264Y0049976D02*
X0193590Y0049976D01*
X0193983Y0048978D02*
X0213265Y0048978D01*
X0212578Y0047979D02*
X0193983Y0047979D01*
X0191333Y0048500D02*
X0190333Y0049000D01*
X0171833Y0049000D01*
X0169388Y0047979D02*
X0149858Y0047979D01*
X0148860Y0046981D02*
X0151523Y0046981D01*
X0150990Y0045982D02*
X0148633Y0045982D01*
X0148633Y0044984D02*
X0150990Y0044984D01*
X0150990Y0043985D02*
X0148633Y0043985D01*
X0148366Y0042987D02*
X0150990Y0042987D01*
X0150990Y0041988D02*
X0147367Y0041988D01*
X0150990Y0040990D02*
X0142868Y0040990D01*
X0141870Y0039991D02*
X0150990Y0039991D01*
X0150990Y0038993D02*
X0140871Y0038993D01*
X0157026Y0036996D02*
X0163302Y0036996D01*
X0162556Y0037752D02*
X0162416Y0037612D01*
X0162232Y0037535D01*
X0160648Y0037535D01*
X0160648Y0041488D01*
X0159680Y0041488D01*
X0159680Y0037535D01*
X0158096Y0037535D01*
X0157912Y0037612D01*
X0157772Y0037752D01*
X0157696Y0037936D01*
X0157696Y0041488D01*
X0159680Y0041488D01*
X0159680Y0042457D01*
X0159680Y0046409D01*
X0158096Y0046409D01*
X0157912Y0046333D01*
X0157772Y0046193D01*
X0157696Y0046009D01*
X0157696Y0042457D01*
X0159680Y0042457D01*
X0160648Y0042457D01*
X0160648Y0046409D01*
X0162232Y0046409D01*
X0162416Y0046333D01*
X0162556Y0046193D01*
X0162633Y0046009D01*
X0162633Y0042457D01*
X0160648Y0042457D01*
X0160648Y0041488D01*
X0162633Y0041488D01*
X0162633Y0037936D01*
X0162556Y0037752D01*
X0162633Y0037994D02*
X0162801Y0037994D01*
X0162801Y0038993D02*
X0162633Y0038993D01*
X0162633Y0039991D02*
X0162801Y0039991D01*
X0162801Y0040990D02*
X0162633Y0040990D01*
X0162801Y0041988D02*
X0160648Y0041988D01*
X0160164Y0041972D02*
X0160164Y0047831D01*
X0160833Y0048500D01*
X0160648Y0045982D02*
X0159680Y0045982D01*
X0159680Y0044984D02*
X0160648Y0044984D01*
X0160648Y0043985D02*
X0159680Y0043985D01*
X0159680Y0042987D02*
X0160648Y0042987D01*
X0159680Y0041988D02*
X0157527Y0041988D01*
X0157527Y0040990D02*
X0157696Y0040990D01*
X0157696Y0039991D02*
X0157527Y0039991D01*
X0157527Y0038993D02*
X0157696Y0038993D01*
X0157696Y0037994D02*
X0157527Y0037994D01*
X0159680Y0037994D02*
X0160648Y0037994D01*
X0160648Y0038993D02*
X0159680Y0038993D01*
X0159680Y0039991D02*
X0160648Y0039991D01*
X0160648Y0040990D02*
X0159680Y0040990D01*
X0157696Y0042987D02*
X0157527Y0042987D01*
X0157527Y0043985D02*
X0157696Y0043985D01*
X0157696Y0044984D02*
X0157527Y0044984D01*
X0157527Y0045982D02*
X0157696Y0045982D01*
X0156994Y0046981D02*
X0163334Y0046981D01*
X0162801Y0045982D02*
X0162633Y0045982D01*
X0162633Y0044984D02*
X0162801Y0044984D01*
X0162801Y0043985D02*
X0162633Y0043985D01*
X0162633Y0042987D02*
X0162801Y0042987D01*
X0168805Y0046981D02*
X0169239Y0046981D01*
X0169183Y0048978D02*
X0150857Y0048978D01*
X0163355Y0049976D02*
X0169369Y0049976D01*
X0160833Y0055000D02*
X0160333Y0054500D01*
X0160833Y0055000D02*
X0194333Y0055000D01*
X0200833Y0061500D01*
X0203042Y0059961D02*
X0206749Y0059961D01*
X0208333Y0059000D02*
X0205833Y0056500D01*
X0204854Y0058963D02*
X0201633Y0058963D01*
X0199843Y0057964D02*
X0203572Y0057964D01*
X0203183Y0056966D02*
X0198845Y0056966D01*
X0197846Y0055967D02*
X0203186Y0055967D01*
X0203617Y0054969D02*
X0196848Y0054969D01*
X0195849Y0053970D02*
X0205016Y0053970D01*
X0206651Y0053970D02*
X0220813Y0053970D01*
X0220813Y0054969D02*
X0208050Y0054969D01*
X0208481Y0055967D02*
X0220813Y0055967D01*
X0220813Y0056966D02*
X0208845Y0056966D01*
X0208333Y0059000D02*
X0225833Y0059000D01*
X0228333Y0056500D01*
X0228333Y0054217D01*
X0233333Y0054256D02*
X0233833Y0059000D01*
X0231183Y0058963D02*
X0228416Y0058963D01*
X0227418Y0059961D02*
X0231363Y0059961D01*
X0232045Y0060960D02*
X0203478Y0060960D01*
X0206833Y0068500D02*
X0214333Y0061000D01*
X0228333Y0061000D01*
X0229833Y0062500D01*
X0229833Y0067717D01*
X0229497Y0066951D02*
X0230170Y0066951D01*
X0230170Y0065952D02*
X0229497Y0065952D01*
X0227889Y0064954D02*
X0232834Y0064954D01*
X0233832Y0063955D02*
X0227889Y0063955D01*
X0227889Y0062957D02*
X0234831Y0062957D01*
X0237925Y0064954D02*
X0279191Y0064954D01*
X0278835Y0065952D02*
X0236927Y0065952D01*
X0235928Y0066951D02*
X0277837Y0066951D01*
X0276838Y0067949D02*
X0235133Y0067949D01*
X0235133Y0068948D02*
X0275840Y0068948D01*
X0274841Y0069946D02*
X0235133Y0069946D01*
X0235133Y0070945D02*
X0241141Y0070945D01*
X0240403Y0071943D02*
X0235133Y0071943D01*
X0235133Y0072942D02*
X0240183Y0072942D01*
X0240355Y0073940D02*
X0235133Y0073940D01*
X0235133Y0074939D02*
X0241025Y0074939D01*
X0242833Y0073000D02*
X0250833Y0073000D01*
X0255583Y0077750D01*
X0255333Y0077500D01*
X0269833Y0077500D01*
X0281833Y0065500D01*
X0281048Y0062957D02*
X0269124Y0062957D01*
X0268834Y0063247D02*
X0267860Y0063650D01*
X0266806Y0063650D01*
X0265832Y0063247D01*
X0265087Y0062501D01*
X0264683Y0061527D01*
X0264683Y0060473D01*
X0265087Y0059499D01*
X0265832Y0058753D01*
X0266806Y0058350D01*
X0267860Y0058350D01*
X0268834Y0058753D01*
X0269580Y0059499D01*
X0269983Y0060473D01*
X0269983Y0061527D01*
X0269580Y0062501D01*
X0268834Y0063247D01*
X0269805Y0061958D02*
X0292127Y0061958D01*
X0292332Y0061753D02*
X0293306Y0061350D01*
X0293876Y0061350D01*
X0293486Y0060960D01*
X0269983Y0060960D01*
X0269771Y0059961D02*
X0293486Y0059961D01*
X0293486Y0058963D02*
X0269044Y0058963D01*
X0265623Y0058963D02*
X0256916Y0058963D01*
X0256579Y0059300D02*
X0251781Y0059300D01*
X0251334Y0059747D01*
X0250360Y0060150D01*
X0249306Y0060150D01*
X0248332Y0059747D01*
X0247587Y0059001D01*
X0247183Y0058027D01*
X0247183Y0056973D01*
X0247587Y0055999D01*
X0248332Y0055253D01*
X0249306Y0054850D01*
X0250360Y0054850D01*
X0251334Y0055253D01*
X0251781Y0055700D01*
X0255088Y0055700D01*
X0258033Y0052754D01*
X0258033Y0040754D01*
X0260183Y0038604D01*
X0260183Y0037973D01*
X0260587Y0036999D01*
X0261332Y0036253D01*
X0262306Y0035850D01*
X0263360Y0035850D01*
X0264334Y0036253D01*
X0265080Y0036999D01*
X0265483Y0037973D01*
X0265483Y0039027D01*
X0265080Y0040001D01*
X0264334Y0040747D01*
X0263360Y0041150D01*
X0262729Y0041150D01*
X0261633Y0042246D01*
X0261633Y0054246D01*
X0256579Y0059300D01*
X0257915Y0057964D02*
X0293486Y0057964D01*
X0293486Y0056966D02*
X0258913Y0056966D01*
X0259912Y0055967D02*
X0293486Y0055967D01*
X0293486Y0054969D02*
X0260910Y0054969D01*
X0261633Y0053970D02*
X0293486Y0053970D01*
X0293486Y0052972D02*
X0261633Y0052972D01*
X0261633Y0051973D02*
X0293486Y0051973D01*
X0293486Y0050975D02*
X0261633Y0050975D01*
X0261633Y0049976D02*
X0293550Y0049976D01*
X0293486Y0050040D02*
X0294248Y0049279D01*
X0307923Y0049279D01*
X0308684Y0050040D01*
X0308684Y0060960D01*
X0321183Y0060960D01*
X0321183Y0061027D02*
X0321183Y0059973D01*
X0321587Y0058999D01*
X0322332Y0058253D01*
X0323306Y0057850D01*
X0324360Y0057850D01*
X0325334Y0058253D01*
X0325782Y0058701D01*
X0325782Y0056000D01*
X0332081Y0056000D01*
X0332081Y0055000D01*
X0325782Y0055000D01*
X0325782Y0050479D01*
X0325858Y0050296D01*
X0325999Y0050155D01*
X0326183Y0050079D01*
X0331144Y0050079D01*
X0330163Y0049672D01*
X0329157Y0048667D01*
X0328613Y0047353D01*
X0328613Y0045931D01*
X0329157Y0044617D01*
X0330163Y0043611D01*
X0331477Y0043067D01*
X0332899Y0043067D01*
X0334213Y0043611D01*
X0335218Y0044617D01*
X0335762Y0045931D01*
X0335762Y0047353D01*
X0335218Y0048667D01*
X0334213Y0049672D01*
X0333231Y0050079D01*
X0338980Y0050079D01*
X0339164Y0050155D01*
X0339304Y0050296D01*
X0339381Y0050479D01*
X0339381Y0055000D01*
X0333081Y0055000D01*
X0333081Y0056000D01*
X0332081Y0056000D01*
X0332081Y0060921D01*
X0326483Y0060921D01*
X0326483Y0061027D01*
X0326080Y0062001D01*
X0325334Y0062747D01*
X0324360Y0063150D01*
X0323306Y0063150D01*
X0322332Y0062747D01*
X0321587Y0062001D01*
X0321183Y0061027D01*
X0321569Y0061958D02*
X0307039Y0061958D01*
X0306834Y0061753D02*
X0307580Y0062499D01*
X0307983Y0063473D01*
X0307983Y0064527D01*
X0307580Y0065501D01*
X0306834Y0066247D01*
X0305860Y0066650D01*
X0304806Y0066650D01*
X0303832Y0066247D01*
X0303087Y0065501D01*
X0302683Y0064527D01*
X0302683Y0063473D01*
X0303087Y0062499D01*
X0303832Y0061753D01*
X0303910Y0061721D01*
X0295257Y0061721D01*
X0295334Y0061753D01*
X0296080Y0062499D01*
X0296483Y0063473D01*
X0296483Y0064527D01*
X0296080Y0065501D01*
X0295334Y0066247D01*
X0294360Y0066650D01*
X0293306Y0066650D01*
X0292332Y0066247D01*
X0291587Y0065501D01*
X0291183Y0064527D01*
X0291183Y0063473D01*
X0291587Y0062499D01*
X0292332Y0061753D01*
X0293486Y0060960D02*
X0293486Y0050040D01*
X0308620Y0049976D02*
X0330896Y0049976D01*
X0329468Y0048978D02*
X0261633Y0048978D01*
X0261633Y0047979D02*
X0328872Y0047979D01*
X0328613Y0046981D02*
X0261633Y0046981D01*
X0261633Y0045982D02*
X0328613Y0045982D01*
X0329005Y0044984D02*
X0261633Y0044984D01*
X0261633Y0043985D02*
X0267908Y0043985D01*
X0268306Y0044150D02*
X0267332Y0043747D01*
X0266587Y0043001D01*
X0266183Y0042027D01*
X0266183Y0040973D01*
X0266587Y0039999D01*
X0267332Y0039253D01*
X0268306Y0038850D01*
X0269360Y0038850D01*
X0270334Y0039253D01*
X0271080Y0039999D01*
X0271483Y0040973D01*
X0271483Y0042027D01*
X0271080Y0043001D01*
X0270334Y0043747D01*
X0269360Y0044150D01*
X0268306Y0044150D01*
X0269759Y0043985D02*
X0329789Y0043985D01*
X0334587Y0043985D02*
X0351833Y0043985D01*
X0351833Y0042987D02*
X0271086Y0042987D01*
X0271483Y0041988D02*
X0352173Y0041988D01*
X0351833Y0042809D02*
X0353127Y0039685D01*
X0355518Y0037294D01*
X0358643Y0036000D01*
X0362024Y0036000D01*
X0365148Y0037294D01*
X0367539Y0039685D01*
X0368833Y0042809D01*
X0368833Y0046191D01*
X0367539Y0049315D01*
X0365148Y0051706D01*
X0362024Y0053000D01*
X0358643Y0053000D01*
X0355518Y0051706D01*
X0353127Y0049315D01*
X0351833Y0046191D01*
X0351833Y0042809D01*
X0352587Y0040990D02*
X0271483Y0040990D01*
X0271072Y0039991D02*
X0353001Y0039991D01*
X0353820Y0038993D02*
X0269705Y0038993D01*
X0267962Y0038993D02*
X0265483Y0038993D01*
X0265483Y0037994D02*
X0354818Y0037994D01*
X0356239Y0036996D02*
X0265077Y0036996D01*
X0263715Y0035997D02*
X0369034Y0035997D01*
X0369034Y0036996D02*
X0364428Y0036996D01*
X0365848Y0037994D02*
X0369034Y0037994D01*
X0369034Y0038993D02*
X0366847Y0038993D01*
X0367666Y0039991D02*
X0369034Y0039991D01*
X0369034Y0040990D02*
X0368080Y0040990D01*
X0368493Y0041988D02*
X0369034Y0041988D01*
X0369034Y0042987D02*
X0368833Y0042987D01*
X0368833Y0043985D02*
X0369034Y0043985D01*
X0369034Y0044984D02*
X0368833Y0044984D01*
X0368833Y0045982D02*
X0369034Y0045982D01*
X0369034Y0046981D02*
X0368506Y0046981D01*
X0368093Y0047979D02*
X0369034Y0047979D01*
X0369034Y0048978D02*
X0367679Y0048978D01*
X0366878Y0049976D02*
X0369034Y0049976D01*
X0369034Y0050975D02*
X0365879Y0050975D01*
X0364503Y0051973D02*
X0369034Y0051973D01*
X0369034Y0052972D02*
X0362092Y0052972D01*
X0358574Y0052972D02*
X0339381Y0052972D01*
X0339381Y0053970D02*
X0369034Y0053970D01*
X0369034Y0054969D02*
X0339381Y0054969D01*
X0339381Y0056000D02*
X0339381Y0060521D01*
X0339304Y0060704D01*
X0339164Y0060845D01*
X0338980Y0060921D01*
X0333081Y0060921D01*
X0333081Y0056000D01*
X0339381Y0056000D01*
X0339381Y0056966D02*
X0369034Y0056966D01*
X0369034Y0057964D02*
X0339381Y0057964D01*
X0339381Y0058963D02*
X0369034Y0058963D01*
X0369034Y0059961D02*
X0339381Y0059961D01*
X0333081Y0059961D02*
X0332081Y0059961D01*
X0332081Y0058963D02*
X0333081Y0058963D01*
X0333081Y0057964D02*
X0332081Y0057964D01*
X0332081Y0056966D02*
X0333081Y0056966D01*
X0333581Y0056500D02*
X0343333Y0056500D01*
X0342333Y0055500D01*
X0332581Y0055500D01*
X0333581Y0056500D01*
X0333081Y0055967D02*
X0369034Y0055967D01*
X0361833Y0060960D02*
X0360833Y0060960D01*
X0360833Y0061958D02*
X0361833Y0061958D01*
X0361833Y0062957D02*
X0360833Y0062957D01*
X0360833Y0063955D02*
X0307983Y0063955D01*
X0307807Y0064954D02*
X0352833Y0064954D01*
X0352833Y0065952D02*
X0307129Y0065952D01*
X0307264Y0067280D02*
X0308686Y0067280D01*
X0310000Y0067824D01*
X0311006Y0068829D01*
X0311550Y0070143D01*
X0311550Y0071565D01*
X0311006Y0072879D01*
X0310000Y0073885D01*
X0308686Y0074429D01*
X0307264Y0074429D01*
X0305950Y0073885D01*
X0304944Y0072879D01*
X0304400Y0071565D01*
X0304400Y0070143D01*
X0304944Y0068829D01*
X0305950Y0067824D01*
X0307264Y0067280D01*
X0305824Y0067949D02*
X0288632Y0067949D01*
X0289308Y0066951D02*
X0353115Y0066951D01*
X0360833Y0066951D02*
X0361833Y0066951D01*
X0361833Y0065952D02*
X0360833Y0065952D01*
X0360833Y0064954D02*
X0361833Y0064954D01*
X0369034Y0067949D02*
X0310126Y0067949D01*
X0311055Y0068948D02*
X0369034Y0068948D01*
X0369034Y0069946D02*
X0311468Y0069946D01*
X0311550Y0070945D02*
X0369034Y0070945D01*
X0369034Y0071943D02*
X0311393Y0071943D01*
X0310943Y0072942D02*
X0369034Y0072942D01*
X0369034Y0073940D02*
X0309866Y0073940D01*
X0306084Y0073940D02*
X0281438Y0073940D01*
X0282437Y0072942D02*
X0305007Y0072942D01*
X0304557Y0071943D02*
X0283435Y0071943D01*
X0284434Y0070945D02*
X0304400Y0070945D01*
X0304482Y0069946D02*
X0285432Y0069946D01*
X0286431Y0068948D02*
X0304895Y0068948D01*
X0303538Y0065952D02*
X0295629Y0065952D01*
X0296307Y0064954D02*
X0302860Y0064954D01*
X0302683Y0063955D02*
X0296483Y0063955D01*
X0296270Y0062957D02*
X0302897Y0062957D01*
X0303627Y0061958D02*
X0295539Y0061958D01*
X0291397Y0062957D02*
X0282618Y0062957D01*
X0284036Y0063955D02*
X0285130Y0063955D01*
X0288536Y0063955D02*
X0291183Y0063955D01*
X0291360Y0064954D02*
X0289268Y0064954D01*
X0289483Y0065952D02*
X0292038Y0065952D01*
X0286833Y0066000D02*
X0267333Y0085500D01*
X0249333Y0085500D01*
X0247160Y0083926D02*
X0211804Y0083926D01*
X0210806Y0082927D02*
X0248013Y0082927D01*
X0249833Y0081000D02*
X0220333Y0081000D01*
X0213333Y0074000D01*
X0211523Y0075937D02*
X0211133Y0075937D01*
X0211517Y0076936D02*
X0213724Y0076936D01*
X0214722Y0077934D02*
X0211967Y0077934D01*
X0211983Y0078933D02*
X0215721Y0078933D01*
X0216719Y0079932D02*
X0211609Y0079932D01*
X0210391Y0080930D02*
X0217718Y0080930D01*
X0218716Y0081929D02*
X0209807Y0081929D01*
X0209333Y0078500D02*
X0209333Y0073500D01*
X0212333Y0070500D01*
X0217928Y0070500D01*
X0223833Y0065094D01*
X0219777Y0064954D02*
X0197834Y0064954D01*
X0196245Y0065952D02*
X0219777Y0065952D01*
X0219139Y0066951D02*
X0195428Y0066951D01*
X0197530Y0067949D02*
X0218048Y0067949D01*
X0211340Y0068948D02*
X0199327Y0068948D01*
X0200325Y0069946D02*
X0210341Y0069946D01*
X0209343Y0070945D02*
X0201324Y0070945D01*
X0201633Y0071943D02*
X0208344Y0071943D01*
X0207533Y0072942D02*
X0201633Y0072942D01*
X0201819Y0073940D02*
X0207533Y0073940D01*
X0207533Y0074939D02*
X0202818Y0074939D01*
X0203816Y0075937D02*
X0207533Y0075937D01*
X0207150Y0076936D02*
X0204815Y0076936D01*
X0205813Y0077934D02*
X0206699Y0077934D01*
X0196333Y0074000D02*
X0219333Y0097000D01*
X0219333Y0104000D01*
X0221333Y0106000D01*
X0237333Y0106000D01*
X0238333Y0105000D01*
X0238333Y0102500D01*
X0240561Y0104894D02*
X0241105Y0104894D01*
X0239986Y0105893D02*
X0307042Y0105893D01*
X0307063Y0106891D02*
X0238988Y0106891D01*
X0245561Y0104894D02*
X0307042Y0104894D01*
X0307042Y0103896D02*
X0246983Y0103896D01*
X0245833Y0102500D02*
X0243333Y0102500D01*
X0245833Y0102500D02*
X0247333Y0101000D01*
X0247333Y0096000D01*
X0244833Y0093500D01*
X0218833Y0093500D01*
X0210703Y0090915D02*
X0204752Y0090915D01*
X0205293Y0091914D02*
X0209672Y0091914D01*
X0208916Y0092912D02*
X0206291Y0092912D01*
X0207290Y0093911D02*
X0208683Y0093911D01*
X0208842Y0094909D02*
X0208288Y0094909D01*
X0206833Y0096000D02*
X0202833Y0092000D01*
X0202333Y0092000D01*
X0199914Y0090915D02*
X0198959Y0090915D01*
X0198498Y0089917D02*
X0200669Y0089917D01*
X0203998Y0089917D02*
X0209704Y0089917D01*
X0214800Y0086921D02*
X0216165Y0086921D01*
X0234108Y0078933D02*
X0248153Y0078933D01*
X0251514Y0078933D02*
X0253205Y0078933D01*
X0252933Y0077934D02*
X0234483Y0077934D01*
X0234943Y0076936D02*
X0252224Y0076936D01*
X0251225Y0075937D02*
X0235133Y0075937D01*
X0233333Y0076000D02*
X0231833Y0077500D01*
X0233333Y0076000D02*
X0233333Y0067000D01*
X0240833Y0059500D01*
X0243333Y0056559D01*
X0235636Y0056559D01*
X0230991Y0057964D02*
X0230637Y0057964D01*
X0235854Y0053970D02*
X0240934Y0053970D01*
X0241278Y0053243D02*
X0241138Y0053102D01*
X0241062Y0052918D01*
X0241062Y0051630D01*
X0243144Y0051630D01*
X0243144Y0051252D01*
X0241062Y0051252D01*
X0241062Y0049964D01*
X0241138Y0049780D01*
X0241278Y0049639D01*
X0241462Y0049563D01*
X0243144Y0049563D01*
X0243144Y0051252D01*
X0243522Y0051252D01*
X0243522Y0049563D01*
X0245204Y0049563D01*
X0245388Y0049639D01*
X0245529Y0049780D01*
X0245605Y0049964D01*
X0245605Y0051252D01*
X0243522Y0051252D01*
X0243522Y0051630D01*
X0243144Y0051630D01*
X0243144Y0053319D01*
X0241462Y0053319D01*
X0241278Y0053243D01*
X0241084Y0052972D02*
X0235854Y0052972D01*
X0235854Y0051973D02*
X0241062Y0051973D01*
X0241062Y0050975D02*
X0235854Y0050975D01*
X0235108Y0049976D02*
X0241062Y0049976D01*
X0243144Y0049976D02*
X0243522Y0049976D01*
X0243522Y0050975D02*
X0243144Y0050975D01*
X0243333Y0051441D02*
X0243392Y0051500D01*
X0244833Y0051500D01*
X0246833Y0053000D01*
X0246833Y0062500D01*
X0249333Y0065000D01*
X0249833Y0065000D01*
X0240921Y0061958D02*
X0264862Y0061958D01*
X0264683Y0060960D02*
X0241955Y0060960D01*
X0242804Y0059961D02*
X0248851Y0059961D01*
X0247571Y0058963D02*
X0245918Y0058963D01*
X0246405Y0057964D02*
X0247183Y0057964D01*
X0247186Y0056966D02*
X0246405Y0056966D01*
X0246405Y0055967D02*
X0247618Y0055967D01*
X0246405Y0054969D02*
X0249020Y0054969D01*
X0249306Y0054650D02*
X0248332Y0054247D01*
X0247587Y0053501D01*
X0247183Y0052527D01*
X0247183Y0051473D01*
X0247587Y0050499D01*
X0248033Y0050052D01*
X0248033Y0041754D01*
X0250683Y0039104D01*
X0250683Y0038473D01*
X0251087Y0037499D01*
X0251832Y0036753D01*
X0252806Y0036350D01*
X0253860Y0036350D01*
X0254834Y0036753D01*
X0255580Y0037499D01*
X0255983Y0038473D01*
X0255983Y0039527D01*
X0255580Y0040501D01*
X0254834Y0041247D01*
X0253860Y0041650D01*
X0253229Y0041650D01*
X0251633Y0043246D01*
X0251633Y0050052D01*
X0252080Y0050499D01*
X0252483Y0051473D01*
X0252483Y0052527D01*
X0252080Y0053501D01*
X0251334Y0054247D01*
X0250360Y0054650D01*
X0249306Y0054650D01*
X0250647Y0054969D02*
X0255819Y0054969D01*
X0256818Y0053970D02*
X0251611Y0053970D01*
X0252299Y0052972D02*
X0257816Y0052972D01*
X0258033Y0051973D02*
X0252483Y0051973D01*
X0252277Y0050975D02*
X0258033Y0050975D01*
X0258033Y0049976D02*
X0251633Y0049976D01*
X0251633Y0048978D02*
X0258033Y0048978D01*
X0258033Y0047979D02*
X0251633Y0047979D01*
X0251633Y0046981D02*
X0258033Y0046981D01*
X0258033Y0045982D02*
X0251633Y0045982D01*
X0251633Y0044984D02*
X0258033Y0044984D01*
X0258033Y0043985D02*
X0251633Y0043985D01*
X0251892Y0042987D02*
X0258033Y0042987D01*
X0258033Y0041988D02*
X0252891Y0041988D01*
X0255091Y0040990D02*
X0258033Y0040990D01*
X0258797Y0039991D02*
X0255791Y0039991D01*
X0255983Y0038993D02*
X0259795Y0038993D01*
X0260183Y0037994D02*
X0255785Y0037994D01*
X0255077Y0036996D02*
X0260590Y0036996D01*
X0261951Y0035997D02*
X0242876Y0035997D01*
X0243633Y0036996D02*
X0251590Y0036996D01*
X0250882Y0037994D02*
X0243633Y0037994D01*
X0243633Y0038993D02*
X0250683Y0038993D01*
X0249797Y0039991D02*
X0243633Y0039991D01*
X0243633Y0040990D02*
X0248798Y0040990D01*
X0248033Y0041988D02*
X0244283Y0041988D01*
X0244483Y0042987D02*
X0248033Y0042987D01*
X0248033Y0043985D02*
X0244294Y0043985D01*
X0243597Y0044984D02*
X0248033Y0044984D01*
X0248033Y0045982D02*
X0239614Y0045982D01*
X0240333Y0045500D02*
X0238833Y0043500D01*
X0224833Y0043500D01*
X0223333Y0041500D01*
X0222333Y0041500D01*
X0219333Y0038500D01*
X0221613Y0038993D02*
X0210677Y0038993D01*
X0210677Y0039991D02*
X0221613Y0039991D01*
X0221613Y0040990D02*
X0210677Y0040990D01*
X0210677Y0041988D02*
X0221676Y0041988D01*
X0223243Y0041988D02*
X0223503Y0041988D01*
X0223333Y0041500D02*
X0223333Y0038823D01*
X0223373Y0038783D01*
X0223243Y0038993D02*
X0223503Y0038993D01*
X0223503Y0039991D02*
X0223243Y0039991D01*
X0223243Y0040990D02*
X0223503Y0040990D01*
X0224153Y0043985D02*
X0225271Y0043985D01*
X0230181Y0042987D02*
X0231446Y0042987D01*
X0235142Y0042987D02*
X0239183Y0042987D01*
X0239373Y0043985D02*
X0238858Y0043985D01*
X0239614Y0044984D02*
X0240069Y0044984D01*
X0240333Y0045500D02*
X0243333Y0051441D01*
X0243522Y0051630D02*
X0243522Y0053319D01*
X0245204Y0053319D01*
X0245388Y0053243D01*
X0245529Y0053102D01*
X0245605Y0052918D01*
X0245605Y0051630D01*
X0243522Y0051630D01*
X0243522Y0051973D02*
X0243144Y0051973D01*
X0243144Y0052972D02*
X0243522Y0052972D01*
X0245583Y0052972D02*
X0247367Y0052972D01*
X0247183Y0051973D02*
X0245605Y0051973D01*
X0245605Y0050975D02*
X0247390Y0050975D01*
X0248033Y0049976D02*
X0245605Y0049976D01*
X0248033Y0048978D02*
X0238974Y0048978D01*
X0239614Y0047979D02*
X0248033Y0047979D01*
X0248033Y0046981D02*
X0239614Y0046981D01*
X0241833Y0043000D02*
X0241833Y0037500D01*
X0240333Y0037500D01*
X0239833Y0037000D01*
X0237183Y0036996D02*
X0235854Y0036996D01*
X0235854Y0037994D02*
X0237377Y0037994D01*
X0238078Y0038993D02*
X0235854Y0038993D01*
X0235854Y0039991D02*
X0240033Y0039991D01*
X0240033Y0040990D02*
X0235854Y0040990D01*
X0235854Y0041988D02*
X0239384Y0041988D01*
X0249833Y0042500D02*
X0253333Y0039000D01*
X0259833Y0041500D02*
X0262833Y0038500D01*
X0265084Y0039991D02*
X0266595Y0039991D01*
X0266183Y0040990D02*
X0263748Y0040990D01*
X0261891Y0041988D02*
X0266183Y0041988D01*
X0266581Y0042987D02*
X0261633Y0042987D01*
X0259833Y0041500D02*
X0259833Y0053500D01*
X0255833Y0057500D01*
X0249833Y0057500D01*
X0250816Y0059961D02*
X0264895Y0059961D01*
X0265542Y0062957D02*
X0239922Y0062957D01*
X0238924Y0063955D02*
X0279630Y0063955D01*
X0281729Y0068150D02*
X0270579Y0079300D01*
X0257781Y0079300D01*
X0257084Y0079997D01*
X0256899Y0080073D01*
X0257334Y0080253D01*
X0258080Y0080999D01*
X0258483Y0081973D01*
X0258483Y0083027D01*
X0258205Y0083700D01*
X0262462Y0083700D01*
X0262183Y0083027D01*
X0262183Y0081973D01*
X0262587Y0080999D01*
X0263332Y0080253D01*
X0264306Y0079850D01*
X0265360Y0079850D01*
X0266334Y0080253D01*
X0267080Y0080999D01*
X0267483Y0081973D01*
X0267483Y0082804D01*
X0282138Y0068150D01*
X0281729Y0068150D01*
X0281340Y0068948D02*
X0280931Y0068948D01*
X0280341Y0069946D02*
X0279932Y0069946D01*
X0279343Y0070945D02*
X0278934Y0070945D01*
X0278344Y0071943D02*
X0277935Y0071943D01*
X0277346Y0072942D02*
X0276937Y0072942D01*
X0276347Y0073940D02*
X0275938Y0073940D01*
X0275349Y0074939D02*
X0274940Y0074939D01*
X0274350Y0075937D02*
X0273941Y0075937D01*
X0273352Y0076936D02*
X0272943Y0076936D01*
X0272353Y0077934D02*
X0271944Y0077934D01*
X0271355Y0078933D02*
X0270946Y0078933D01*
X0270356Y0079932D02*
X0265557Y0079932D01*
X0264109Y0079932D02*
X0257149Y0079932D01*
X0258011Y0080930D02*
X0262656Y0080930D01*
X0262202Y0081929D02*
X0258465Y0081929D01*
X0258483Y0082927D02*
X0262183Y0082927D01*
X0253656Y0080930D02*
X0252483Y0080930D01*
X0252317Y0081929D02*
X0253202Y0081929D01*
X0253183Y0082927D02*
X0251654Y0082927D01*
X0252259Y0079932D02*
X0254017Y0079932D01*
X0255318Y0074939D02*
X0269849Y0074939D01*
X0270847Y0073940D02*
X0254319Y0073940D01*
X0253321Y0072942D02*
X0271846Y0072942D01*
X0272844Y0071943D02*
X0252322Y0071943D01*
X0250227Y0074939D02*
X0244642Y0074939D01*
X0244526Y0070945D02*
X0273843Y0070945D01*
X0280440Y0074939D02*
X0288643Y0074939D01*
X0288551Y0075031D02*
X0288864Y0074718D01*
X0289247Y0074496D01*
X0289675Y0074382D01*
X0289896Y0074382D01*
X0289896Y0076063D01*
X0289896Y0076063D01*
X0288215Y0076063D01*
X0288215Y0076284D01*
X0288330Y0076712D01*
X0288551Y0077095D01*
X0288864Y0077408D01*
X0289247Y0077630D01*
X0289675Y0077744D01*
X0289896Y0077744D01*
X0289896Y0076063D01*
X0288215Y0076063D01*
X0288215Y0075842D01*
X0288330Y0075414D01*
X0288551Y0075031D01*
X0288215Y0075937D02*
X0279441Y0075937D01*
X0278443Y0076936D02*
X0288459Y0076936D01*
X0289896Y0076936D02*
X0289896Y0076936D01*
X0289896Y0077744D02*
X0290118Y0077744D01*
X0290545Y0077630D01*
X0290929Y0077408D01*
X0291242Y0077095D01*
X0291463Y0076712D01*
X0291577Y0076284D01*
X0291577Y0076063D01*
X0289896Y0076063D01*
X0289896Y0076063D01*
X0289896Y0076063D01*
X0289896Y0077744D01*
X0289896Y0078319D02*
X0290118Y0078319D01*
X0290545Y0078433D01*
X0290929Y0078655D01*
X0291242Y0078968D01*
X0291463Y0079351D01*
X0291577Y0079779D01*
X0291577Y0080000D01*
X0291577Y0080221D01*
X0291463Y0080649D01*
X0291242Y0081032D01*
X0290929Y0081345D01*
X0290545Y0081567D01*
X0290118Y0081681D01*
X0289896Y0081681D01*
X0289675Y0081681D01*
X0289247Y0081567D01*
X0288864Y0081345D01*
X0288551Y0081032D01*
X0288330Y0080649D01*
X0288215Y0080221D01*
X0288215Y0080000D01*
X0288215Y0079779D01*
X0288330Y0079351D01*
X0288551Y0078968D01*
X0288864Y0078655D01*
X0289247Y0078433D01*
X0289675Y0078319D01*
X0289896Y0078319D01*
X0289896Y0080000D01*
X0289896Y0080000D01*
X0288215Y0080000D01*
X0289896Y0080000D01*
X0289896Y0080000D01*
X0289896Y0081681D01*
X0289896Y0080000D01*
X0289896Y0080000D01*
X0289896Y0078319D01*
X0289896Y0078933D02*
X0289896Y0078933D01*
X0289896Y0079932D02*
X0289896Y0079932D01*
X0289896Y0080000D02*
X0289896Y0080000D01*
X0291577Y0080000D01*
X0289896Y0080000D01*
X0289896Y0080930D02*
X0289896Y0080930D01*
X0289896Y0082256D02*
X0290118Y0082256D01*
X0290545Y0082370D01*
X0290929Y0082592D01*
X0291242Y0082905D01*
X0291463Y0083288D01*
X0291577Y0083716D01*
X0291577Y0083937D01*
X0291577Y0084158D01*
X0291463Y0084586D01*
X0291242Y0084969D01*
X0290929Y0085282D01*
X0290545Y0085504D01*
X0290118Y0085618D01*
X0289896Y0085618D01*
X0289675Y0085618D01*
X0289247Y0085504D01*
X0288864Y0085282D01*
X0288551Y0084969D01*
X0288330Y0084586D01*
X0288215Y0084158D01*
X0288215Y0083937D01*
X0288215Y0083716D01*
X0288330Y0083288D01*
X0288551Y0082905D01*
X0288864Y0082592D01*
X0289247Y0082370D01*
X0289675Y0082256D01*
X0289896Y0082256D01*
X0289896Y0083937D01*
X0288215Y0083937D01*
X0289896Y0083937D01*
X0289896Y0083937D01*
X0289896Y0083937D01*
X0289896Y0085618D01*
X0289896Y0083937D01*
X0289896Y0083937D01*
X0289896Y0082256D01*
X0289896Y0082927D02*
X0289896Y0082927D01*
X0289896Y0083926D02*
X0289896Y0083926D01*
X0289896Y0083937D02*
X0289896Y0083937D01*
X0291577Y0083937D01*
X0289896Y0083937D01*
X0289896Y0084924D02*
X0289896Y0084924D01*
X0288525Y0084924D02*
X0270455Y0084924D01*
X0271453Y0083926D02*
X0288215Y0083926D01*
X0288538Y0082927D02*
X0280654Y0082927D01*
X0280334Y0083247D02*
X0281080Y0082501D01*
X0281483Y0081527D01*
X0281483Y0080473D01*
X0281080Y0079499D01*
X0280334Y0078753D01*
X0279360Y0078350D01*
X0278306Y0078350D01*
X0277332Y0078753D01*
X0276587Y0079499D01*
X0276183Y0080473D01*
X0276183Y0081527D01*
X0276587Y0082501D01*
X0277332Y0083247D01*
X0278306Y0083650D01*
X0279360Y0083650D01*
X0280334Y0083247D01*
X0281317Y0081929D02*
X0352833Y0081929D01*
X0352833Y0082927D02*
X0299128Y0082927D01*
X0299116Y0082905D02*
X0299337Y0083288D01*
X0299451Y0083716D01*
X0299451Y0083937D01*
X0299451Y0084158D01*
X0299337Y0084586D01*
X0299116Y0084969D01*
X0298803Y0085282D01*
X0298419Y0085504D01*
X0297992Y0085618D01*
X0297770Y0085618D01*
X0297549Y0085618D01*
X0297121Y0085504D01*
X0296738Y0085282D01*
X0296425Y0084969D01*
X0296204Y0084586D01*
X0296089Y0084158D01*
X0296089Y0083937D01*
X0296089Y0083716D01*
X0296204Y0083288D01*
X0296425Y0082905D01*
X0296738Y0082592D01*
X0297121Y0082370D01*
X0297549Y0082256D01*
X0297770Y0082256D01*
X0297770Y0083937D01*
X0296089Y0083937D01*
X0297770Y0083937D01*
X0297770Y0083937D01*
X0297770Y0083937D01*
X0297770Y0085618D01*
X0297770Y0083937D01*
X0297770Y0083937D01*
X0297770Y0082256D01*
X0297992Y0082256D01*
X0298419Y0082370D01*
X0298803Y0082592D01*
X0299116Y0082905D01*
X0299451Y0083926D02*
X0360833Y0083926D01*
X0360833Y0082927D02*
X0361833Y0082927D01*
X0361833Y0081929D02*
X0360833Y0081929D01*
X0360833Y0080930D02*
X0361833Y0080930D01*
X0369034Y0079932D02*
X0299451Y0079932D01*
X0299451Y0080000D02*
X0299451Y0079779D01*
X0299337Y0079351D01*
X0299116Y0078968D01*
X0298803Y0078655D01*
X0298419Y0078433D01*
X0297992Y0078319D01*
X0297770Y0078319D01*
X0297770Y0080000D01*
X0297770Y0080000D01*
X0296089Y0080000D01*
X0296089Y0079779D01*
X0296204Y0079351D01*
X0296425Y0078968D01*
X0296738Y0078655D01*
X0297121Y0078433D01*
X0297549Y0078319D01*
X0297770Y0078319D01*
X0297770Y0080000D01*
X0296089Y0080000D01*
X0296089Y0080221D01*
X0296204Y0080649D01*
X0296425Y0081032D01*
X0296738Y0081345D01*
X0297121Y0081567D01*
X0297549Y0081681D01*
X0297770Y0081681D01*
X0297770Y0080000D01*
X0297770Y0080000D01*
X0297770Y0080000D01*
X0297770Y0081681D01*
X0297992Y0081681D01*
X0298419Y0081567D01*
X0298803Y0081345D01*
X0299116Y0081032D01*
X0299337Y0080649D01*
X0299451Y0080221D01*
X0299451Y0080000D01*
X0297770Y0080000D01*
X0297770Y0080000D01*
X0299451Y0080000D01*
X0299175Y0080930D02*
X0352833Y0080930D01*
X0369034Y0078933D02*
X0299081Y0078933D01*
X0297770Y0078933D02*
X0297770Y0078933D01*
X0297770Y0079932D02*
X0297770Y0079932D01*
X0297770Y0080930D02*
X0297770Y0080930D01*
X0296366Y0080930D02*
X0295238Y0080930D01*
X0295179Y0081032D02*
X0294866Y0081345D01*
X0294482Y0081567D01*
X0294055Y0081681D01*
X0293833Y0081681D01*
X0293612Y0081681D01*
X0293184Y0081567D01*
X0292801Y0081345D01*
X0292488Y0081032D01*
X0292267Y0080649D01*
X0292152Y0080221D01*
X0292152Y0080000D01*
X0292152Y0079779D01*
X0292267Y0079351D01*
X0292488Y0078968D01*
X0292801Y0078655D01*
X0293184Y0078433D01*
X0293612Y0078319D01*
X0293833Y0078319D01*
X0293833Y0080000D01*
X0293833Y0080000D01*
X0292152Y0080000D01*
X0293833Y0080000D01*
X0293833Y0080000D01*
X0293833Y0081681D01*
X0293833Y0080000D01*
X0293833Y0080000D01*
X0293833Y0078319D01*
X0294055Y0078319D01*
X0294482Y0078433D01*
X0294866Y0078655D01*
X0295179Y0078968D01*
X0295400Y0079351D01*
X0295514Y0079779D01*
X0295514Y0080000D01*
X0295514Y0080221D01*
X0295400Y0080649D01*
X0295179Y0081032D01*
X0295514Y0080000D02*
X0293833Y0080000D01*
X0293833Y0080000D01*
X0295514Y0080000D01*
X0295514Y0079932D02*
X0296089Y0079932D01*
X0296460Y0078933D02*
X0295144Y0078933D01*
X0293833Y0078933D02*
X0293833Y0078933D01*
X0293833Y0079932D02*
X0293833Y0079932D01*
X0293833Y0080930D02*
X0293833Y0080930D01*
X0293833Y0082256D02*
X0294055Y0082256D01*
X0294482Y0082370D01*
X0294866Y0082592D01*
X0295179Y0082905D01*
X0295400Y0083288D01*
X0295514Y0083716D01*
X0295514Y0083937D01*
X0295514Y0084158D01*
X0295400Y0084586D01*
X0295179Y0084969D01*
X0294866Y0085282D01*
X0294482Y0085504D01*
X0294055Y0085618D01*
X0293833Y0085618D01*
X0293612Y0085618D01*
X0293184Y0085504D01*
X0292801Y0085282D01*
X0292488Y0084969D01*
X0292267Y0084586D01*
X0292152Y0084158D01*
X0292152Y0083937D01*
X0292152Y0083716D01*
X0292267Y0083288D01*
X0292488Y0082905D01*
X0292801Y0082592D01*
X0293184Y0082370D01*
X0293612Y0082256D01*
X0293833Y0082256D01*
X0293833Y0083937D01*
X0292152Y0083937D01*
X0293833Y0083937D01*
X0293833Y0083937D01*
X0293833Y0083937D01*
X0293833Y0085618D01*
X0293833Y0083937D01*
X0293833Y0083937D01*
X0293833Y0082256D01*
X0293833Y0082927D02*
X0293833Y0082927D01*
X0293833Y0083926D02*
X0293833Y0083926D01*
X0293833Y0083937D02*
X0293833Y0083937D01*
X0295514Y0083937D01*
X0293833Y0083937D01*
X0293833Y0084924D02*
X0293833Y0084924D01*
X0292462Y0084924D02*
X0291268Y0084924D01*
X0291577Y0083926D02*
X0292152Y0083926D01*
X0292475Y0082927D02*
X0291254Y0082927D01*
X0291301Y0080930D02*
X0292429Y0080930D01*
X0292152Y0079932D02*
X0291577Y0079932D01*
X0291207Y0078933D02*
X0292523Y0078933D01*
X0293184Y0077630D02*
X0292801Y0077408D01*
X0292488Y0077095D01*
X0292267Y0076712D01*
X0292152Y0076284D01*
X0292152Y0076063D01*
X0293833Y0076063D01*
X0293833Y0076063D01*
X0292152Y0076063D01*
X0292152Y0075842D01*
X0292267Y0075414D01*
X0292488Y0075031D01*
X0292801Y0074718D01*
X0293184Y0074496D01*
X0293612Y0074382D01*
X0293833Y0074382D01*
X0293833Y0076063D01*
X0293833Y0077744D01*
X0293612Y0077744D01*
X0293184Y0077630D01*
X0293833Y0077744D02*
X0294055Y0077744D01*
X0294482Y0077630D01*
X0294866Y0077408D01*
X0295179Y0077095D01*
X0295400Y0076712D01*
X0295514Y0076284D01*
X0295514Y0076063D01*
X0293833Y0076063D01*
X0293833Y0076063D01*
X0293833Y0076063D01*
X0293833Y0077744D01*
X0293833Y0076936D02*
X0293833Y0076936D01*
X0293833Y0076063D02*
X0293833Y0076063D01*
X0293833Y0074382D01*
X0294055Y0074382D01*
X0294482Y0074496D01*
X0294866Y0074718D01*
X0295179Y0075031D01*
X0295400Y0075414D01*
X0295514Y0075842D01*
X0295514Y0076063D01*
X0293833Y0076063D01*
X0293833Y0075937D02*
X0293833Y0075937D01*
X0293833Y0074939D02*
X0293833Y0074939D01*
X0292580Y0074939D02*
X0291150Y0074939D01*
X0291242Y0075031D02*
X0291463Y0075414D01*
X0291577Y0075842D01*
X0291577Y0076063D01*
X0289896Y0076063D01*
X0289896Y0074382D01*
X0290118Y0074382D01*
X0290545Y0074496D01*
X0290929Y0074718D01*
X0291242Y0075031D01*
X0291577Y0075937D02*
X0292152Y0075937D01*
X0292396Y0076936D02*
X0291333Y0076936D01*
X0289896Y0076063D02*
X0289896Y0076063D01*
X0289896Y0075937D02*
X0289896Y0075937D01*
X0289896Y0074939D02*
X0289896Y0074939D01*
X0295087Y0074939D02*
X0296517Y0074939D01*
X0296425Y0075031D02*
X0296738Y0074718D01*
X0297121Y0074496D01*
X0297549Y0074382D01*
X0297770Y0074382D01*
X0297770Y0076063D01*
X0297770Y0076063D01*
X0296089Y0076063D01*
X0296089Y0076284D01*
X0296204Y0076712D01*
X0296425Y0077095D01*
X0296738Y0077408D01*
X0297121Y0077630D01*
X0297549Y0077744D01*
X0297770Y0077744D01*
X0297770Y0076063D01*
X0296089Y0076063D01*
X0296089Y0075842D01*
X0296204Y0075414D01*
X0296425Y0075031D01*
X0296089Y0075937D02*
X0295514Y0075937D01*
X0295270Y0076936D02*
X0296333Y0076936D01*
X0297770Y0076936D02*
X0297770Y0076936D01*
X0297770Y0077744D02*
X0297992Y0077744D01*
X0298419Y0077630D01*
X0298803Y0077408D01*
X0299116Y0077095D01*
X0299337Y0076712D01*
X0299451Y0076284D01*
X0299451Y0076063D01*
X0297770Y0076063D01*
X0297770Y0076063D01*
X0297770Y0076063D01*
X0297770Y0077744D01*
X0299207Y0076936D02*
X0369034Y0076936D01*
X0369034Y0077934D02*
X0277444Y0077934D01*
X0277153Y0078933D02*
X0276446Y0078933D01*
X0276408Y0079932D02*
X0275447Y0079932D01*
X0276183Y0080930D02*
X0274449Y0080930D01*
X0273450Y0081929D02*
X0276350Y0081929D01*
X0277013Y0082927D02*
X0272452Y0082927D01*
X0269358Y0080930D02*
X0267011Y0080930D01*
X0267465Y0081929D02*
X0268359Y0081929D01*
X0269456Y0085923D02*
X0308865Y0085923D01*
X0309864Y0084924D02*
X0299142Y0084924D01*
X0299451Y0083937D02*
X0297770Y0083937D01*
X0297770Y0083937D01*
X0299451Y0083937D01*
X0297770Y0083926D02*
X0297770Y0083926D01*
X0297770Y0084924D02*
X0297770Y0084924D01*
X0296399Y0084924D02*
X0295205Y0084924D01*
X0295514Y0083926D02*
X0296089Y0083926D01*
X0296412Y0082927D02*
X0295191Y0082927D01*
X0297770Y0082927D02*
X0297770Y0082927D01*
X0288492Y0080930D02*
X0281483Y0080930D01*
X0281259Y0079932D02*
X0288215Y0079932D01*
X0288586Y0078933D02*
X0280514Y0078933D01*
X0297770Y0076063D02*
X0297770Y0074382D01*
X0297992Y0074382D01*
X0298419Y0074496D01*
X0298803Y0074718D01*
X0299116Y0075031D01*
X0299337Y0075414D01*
X0299451Y0075842D01*
X0299451Y0076063D01*
X0297770Y0076063D01*
X0297770Y0076063D01*
X0297770Y0075937D02*
X0297770Y0075937D01*
X0297770Y0074939D02*
X0297770Y0074939D01*
X0299024Y0074939D02*
X0369034Y0074939D01*
X0369034Y0075937D02*
X0299451Y0075937D01*
X0307770Y0062957D02*
X0322840Y0062957D01*
X0324827Y0062957D02*
X0352833Y0062957D01*
X0352833Y0061958D02*
X0326098Y0061958D01*
X0326483Y0060960D02*
X0352833Y0060960D01*
X0356164Y0051973D02*
X0339381Y0051973D01*
X0339381Y0050975D02*
X0354787Y0050975D01*
X0353789Y0049976D02*
X0333479Y0049976D01*
X0334907Y0048978D02*
X0352988Y0048978D01*
X0352574Y0047979D02*
X0335503Y0047979D01*
X0335762Y0046981D02*
X0352161Y0046981D01*
X0351833Y0045982D02*
X0335762Y0045982D01*
X0335370Y0044984D02*
X0351833Y0044984D01*
X0325782Y0050975D02*
X0308684Y0050975D01*
X0308684Y0051973D02*
X0325782Y0051973D01*
X0325782Y0052972D02*
X0308684Y0052972D01*
X0308684Y0053970D02*
X0325782Y0053970D01*
X0325782Y0054969D02*
X0308684Y0054969D01*
X0308684Y0055967D02*
X0332081Y0055967D01*
X0325782Y0056966D02*
X0308684Y0056966D01*
X0308684Y0057964D02*
X0323030Y0057964D01*
X0324636Y0057964D02*
X0325782Y0057964D01*
X0321623Y0058963D02*
X0308684Y0058963D01*
X0308684Y0059961D02*
X0321188Y0059961D01*
X0308684Y0060960D02*
X0307923Y0061721D01*
X0306757Y0061721D01*
X0306834Y0061753D01*
X0249833Y0052000D02*
X0249833Y0042500D01*
X0237380Y0035997D02*
X0235854Y0035997D01*
X0221613Y0036996D02*
X0210175Y0036996D01*
X0209915Y0036735D02*
X0210677Y0037497D01*
X0210677Y0046448D01*
X0209915Y0047209D01*
X0204901Y0047209D01*
X0204140Y0046448D01*
X0204140Y0037497D01*
X0204901Y0036735D01*
X0209915Y0036735D01*
X0210677Y0037994D02*
X0221613Y0037994D01*
X0217081Y0043985D02*
X0215687Y0043985D01*
X0212602Y0044984D02*
X0210677Y0044984D01*
X0210677Y0045982D02*
X0212183Y0045982D01*
X0212183Y0046981D02*
X0210144Y0046981D01*
X0204672Y0046981D02*
X0198333Y0046981D01*
X0199110Y0046193D02*
X0199034Y0046009D01*
X0199034Y0042457D01*
X0201018Y0042457D01*
X0201018Y0046409D01*
X0199435Y0046409D01*
X0199251Y0046333D01*
X0199110Y0046193D01*
X0199034Y0045982D02*
X0198866Y0045982D01*
X0198866Y0044984D02*
X0199034Y0044984D01*
X0199034Y0043985D02*
X0198866Y0043985D01*
X0198866Y0042987D02*
X0199034Y0042987D01*
X0198866Y0041988D02*
X0201018Y0041988D01*
X0201018Y0042457D02*
X0201018Y0041488D01*
X0199034Y0041488D01*
X0199034Y0037936D01*
X0199110Y0037752D01*
X0199251Y0037612D01*
X0199435Y0037535D01*
X0201018Y0037535D01*
X0201018Y0041488D01*
X0201987Y0041488D01*
X0201987Y0037535D01*
X0203571Y0037535D01*
X0203754Y0037612D01*
X0203895Y0037752D01*
X0203971Y0037936D01*
X0203971Y0041488D01*
X0201987Y0041488D01*
X0201987Y0042457D01*
X0201018Y0042457D01*
X0201018Y0042987D02*
X0201987Y0042987D01*
X0202333Y0042803D02*
X0201503Y0041972D01*
X0201987Y0041988D02*
X0204140Y0041988D01*
X0203971Y0042457D02*
X0201987Y0042457D01*
X0201987Y0046409D01*
X0203571Y0046409D01*
X0203754Y0046333D01*
X0203895Y0046193D01*
X0203971Y0046009D01*
X0203971Y0042457D01*
X0203971Y0042987D02*
X0204140Y0042987D01*
X0204140Y0043985D02*
X0203971Y0043985D01*
X0203971Y0044984D02*
X0204140Y0044984D01*
X0204140Y0045982D02*
X0203971Y0045982D01*
X0202333Y0047000D02*
X0202333Y0042803D01*
X0201987Y0043985D02*
X0201018Y0043985D01*
X0201018Y0044984D02*
X0201987Y0044984D01*
X0201987Y0045982D02*
X0201018Y0045982D01*
X0201018Y0040990D02*
X0201987Y0040990D01*
X0201987Y0039991D02*
X0201018Y0039991D01*
X0201018Y0038993D02*
X0201987Y0038993D01*
X0201987Y0037994D02*
X0201018Y0037994D01*
X0199034Y0037994D02*
X0198866Y0037994D01*
X0198866Y0038993D02*
X0199034Y0038993D01*
X0199034Y0039991D02*
X0198866Y0039991D01*
X0198866Y0040990D02*
X0199034Y0040990D01*
X0203971Y0040990D02*
X0204140Y0040990D01*
X0204140Y0039991D02*
X0203971Y0039991D01*
X0203971Y0038993D02*
X0204140Y0038993D01*
X0204140Y0037994D02*
X0203971Y0037994D01*
X0204641Y0036996D02*
X0198364Y0036996D01*
X0192830Y0036996D02*
X0192459Y0036996D01*
X0186925Y0036996D02*
X0186553Y0036996D01*
X0181019Y0036996D02*
X0180648Y0036996D01*
X0175113Y0036996D02*
X0174742Y0036996D01*
X0169208Y0036996D02*
X0168837Y0036996D01*
X0161305Y0056966D02*
X0183893Y0056966D01*
X0186333Y0058000D02*
X0182833Y0061500D01*
X0168333Y0061500D01*
X0163332Y0063955D02*
X0090633Y0063955D01*
X0090633Y0064954D02*
X0162334Y0064954D01*
X0161335Y0065952D02*
X0090633Y0065952D01*
X0090633Y0066951D02*
X0097381Y0066951D01*
X0097381Y0067949D02*
X0090633Y0067949D01*
X0090633Y0068948D02*
X0108223Y0068948D01*
X0108223Y0069946D02*
X0109192Y0069946D01*
X0109192Y0070945D02*
X0108223Y0070945D01*
X0119828Y0070945D02*
X0156531Y0070945D01*
X0155857Y0069946D02*
X0120034Y0069946D01*
X0097587Y0070945D02*
X0090633Y0070945D01*
X0090633Y0069946D02*
X0097381Y0069946D01*
X0114747Y0079932D02*
X0132351Y0079932D01*
X0160032Y0066951D02*
X0160337Y0066951D01*
X0166023Y0072942D02*
X0170343Y0072942D01*
X0170756Y0073940D02*
X0166763Y0073940D01*
X0166983Y0074939D02*
X0171714Y0074939D01*
X0172713Y0075937D02*
X0166813Y0075937D01*
X0180269Y0076936D02*
X0180352Y0076936D01*
X0137583Y0092912D02*
X0136084Y0092912D01*
X0136133Y0093911D02*
X0137533Y0093911D01*
X0137533Y0094909D02*
X0136133Y0094909D01*
X0136133Y0095908D02*
X0137533Y0095908D01*
X0137533Y0096906D02*
X0136133Y0096906D01*
X0136133Y0097905D02*
X0137533Y0097905D01*
X0137533Y0098903D02*
X0136133Y0098903D01*
X0136133Y0099902D02*
X0137533Y0099902D01*
X0127533Y0097905D02*
X0122033Y0097905D01*
X0122123Y0096906D02*
X0127533Y0096906D01*
X0127533Y0095908D02*
X0122123Y0095908D01*
X0122123Y0094909D02*
X0127533Y0094909D01*
X0127533Y0093911D02*
X0122123Y0093911D01*
X0122123Y0092912D02*
X0127583Y0092912D01*
X0117583Y0101899D02*
X0149187Y0101899D01*
X0148422Y0102897D02*
X0117583Y0102897D01*
X0117583Y0103896D02*
X0148183Y0103896D01*
X0148335Y0104894D02*
X0117583Y0104894D01*
X0117583Y0105893D02*
X0148978Y0105893D01*
X0150833Y0104000D02*
X0151286Y0104000D01*
X0154259Y0101028D01*
X0157137Y0105893D02*
X0157285Y0105893D01*
X0163433Y0099902D02*
X0163601Y0099902D01*
X0163601Y0098903D02*
X0163433Y0098903D01*
X0163433Y0097905D02*
X0163601Y0097905D01*
X0163636Y0096906D02*
X0163433Y0096906D01*
X0162788Y0095908D02*
X0169351Y0095908D01*
X0168707Y0096906D02*
X0168503Y0096906D01*
X0168538Y0097905D02*
X0168707Y0097905D01*
X0168707Y0098903D02*
X0168538Y0098903D01*
X0168538Y0099902D02*
X0168707Y0099902D01*
X0174599Y0095908D02*
X0175256Y0095908D01*
X0157540Y0095908D02*
X0156883Y0095908D01*
X0118333Y0104000D02*
X0115833Y0104000D01*
X0115833Y0104224D01*
X0115708Y0103896D02*
X0115958Y0103896D01*
X0115958Y0104894D02*
X0115708Y0104894D01*
X0115708Y0105893D02*
X0115958Y0105893D01*
X0115958Y0106891D02*
X0115708Y0106891D01*
X0117555Y0106891D02*
X0219679Y0106891D01*
X0218681Y0105893D02*
X0210287Y0105893D01*
X0210677Y0104894D02*
X0217682Y0104894D01*
X0217533Y0103896D02*
X0210677Y0103896D01*
X0210677Y0102897D02*
X0217533Y0102897D01*
X0217533Y0101899D02*
X0210677Y0101899D01*
X0204529Y0105893D02*
X0204381Y0105893D01*
X0201503Y0101028D02*
X0201333Y0100858D01*
X0233333Y0097500D02*
X0235802Y0097500D01*
X0235802Y0097743D01*
X0235707Y0098220D01*
X0235521Y0098669D01*
X0235251Y0099074D01*
X0234907Y0099417D01*
X0234725Y0099539D01*
X0235185Y0099729D01*
X0235833Y0100378D01*
X0236482Y0099729D01*
X0236941Y0099539D01*
X0236760Y0099417D01*
X0236416Y0099074D01*
X0236146Y0098669D01*
X0235960Y0098220D01*
X0235865Y0097743D01*
X0235865Y0097500D01*
X0238333Y0097500D01*
X0238333Y0097500D01*
X0235865Y0097500D01*
X0235865Y0097257D01*
X0235960Y0096780D01*
X0236146Y0096331D01*
X0236416Y0095926D01*
X0236760Y0095583D01*
X0237164Y0095312D01*
X0237194Y0095300D01*
X0234473Y0095300D01*
X0234503Y0095312D01*
X0234907Y0095583D01*
X0235251Y0095926D01*
X0235521Y0096331D01*
X0235707Y0096780D01*
X0235802Y0097257D01*
X0235802Y0097500D01*
X0233333Y0097500D01*
X0233333Y0097500D01*
X0235365Y0098903D02*
X0236302Y0098903D01*
X0236309Y0099902D02*
X0235357Y0099902D01*
X0235770Y0097905D02*
X0235897Y0097905D01*
X0235935Y0096906D02*
X0235732Y0096906D01*
X0235232Y0095908D02*
X0236435Y0095908D01*
X0246791Y0092912D02*
X0296156Y0092912D01*
X0297511Y0092912D02*
X0319726Y0092912D01*
X0321326Y0096906D02*
X0352622Y0096906D01*
X0364226Y0092912D02*
X0369034Y0092912D01*
X0369034Y0093911D02*
X0365765Y0093911D01*
X0366763Y0094909D02*
X0369034Y0094909D01*
X0369034Y0095908D02*
X0367631Y0095908D01*
X0368045Y0096906D02*
X0369034Y0096906D01*
X0369034Y0097905D02*
X0368459Y0097905D01*
X0368833Y0098903D02*
X0369034Y0098903D01*
X0369034Y0099902D02*
X0368833Y0099902D01*
X0368833Y0100900D02*
X0369034Y0100900D01*
X0369034Y0101899D02*
X0368833Y0101899D01*
X0369034Y0102897D02*
X0368541Y0102897D01*
X0368127Y0103896D02*
X0369034Y0103896D01*
X0369034Y0104894D02*
X0367713Y0104894D01*
X0366961Y0105893D02*
X0369034Y0105893D01*
X0369034Y0106891D02*
X0365963Y0106891D01*
X0364704Y0107890D02*
X0369034Y0107890D01*
X0369034Y0108888D02*
X0362294Y0108888D01*
X0316793Y0106891D02*
X0315107Y0106891D01*
X0315129Y0105893D02*
X0316793Y0105893D01*
X0316793Y0104894D02*
X0315129Y0104894D01*
X0315129Y0103896D02*
X0316793Y0103896D01*
X0311585Y0103896D02*
X0310585Y0103896D01*
X0310585Y0104894D02*
X0311585Y0104894D01*
X0311585Y0105893D02*
X0310585Y0105893D01*
X0310585Y0106891D02*
X0311585Y0106891D01*
X0308585Y0105500D02*
X0305833Y0105500D01*
X0308585Y0105500D02*
X0311085Y0103000D01*
X0310585Y0100900D02*
X0311585Y0100900D01*
X0311585Y0099902D02*
X0310585Y0099902D01*
X0310585Y0098903D02*
X0311585Y0098903D01*
X0294547Y0096906D02*
X0249133Y0096906D01*
X0249133Y0095908D02*
X0294183Y0095908D01*
X0294210Y0094909D02*
X0248788Y0094909D01*
X0247790Y0093911D02*
X0294675Y0093911D01*
X0274333Y0099000D02*
X0274333Y0100000D01*
X0225711Y0076406D02*
X0223833Y0076906D01*
X0225711Y0076406D02*
X0229833Y0072283D01*
X0245733Y0053970D02*
X0248056Y0053970D01*
X0115958Y0101899D02*
X0115708Y0101899D01*
X0115708Y0102897D02*
X0115958Y0102897D01*
D30*
X0118333Y0104000D03*
X0110833Y0091000D03*
X0125833Y0087000D03*
X0132833Y0086500D03*
X0149833Y0085000D03*
X0159333Y0091500D03*
X0166333Y0095500D03*
X0178333Y0096500D03*
X0188333Y0094000D03*
X0196333Y0091500D03*
X0202333Y0092000D03*
X0211333Y0094000D03*
X0218333Y0088500D03*
X0222833Y0088000D03*
X0244833Y0085500D03*
X0249333Y0085500D03*
X0255833Y0082500D03*
X0249833Y0081000D03*
X0255583Y0077750D03*
X0264833Y0082500D03*
X0267833Y0081000D03*
X0278833Y0081000D03*
X0270333Y0072000D03*
X0281833Y0065500D03*
X0286833Y0066000D03*
X0293833Y0064000D03*
X0305333Y0064000D03*
X0323833Y0060500D03*
X0343333Y0056500D03*
X0326333Y0071500D03*
X0328333Y0086000D03*
X0338333Y0089000D03*
X0318833Y0096000D03*
X0296833Y0095500D03*
X0285333Y0102500D03*
X0274333Y0099000D03*
X0250333Y0104000D03*
X0305833Y0105500D03*
X0231833Y0077500D03*
X0242833Y0073000D03*
X0249833Y0065000D03*
X0233833Y0059000D03*
X0249833Y0057500D03*
X0249833Y0052000D03*
X0238333Y0051000D03*
X0241833Y0043000D03*
X0253333Y0039000D03*
X0262833Y0038500D03*
X0268833Y0041500D03*
X0270333Y0052000D03*
X0267333Y0061000D03*
X0214833Y0046500D03*
X0202333Y0047000D03*
X0191333Y0048500D03*
X0189833Y0052000D03*
X0186333Y0058000D03*
X0196833Y0062500D03*
X0200833Y0061500D03*
X0205833Y0056500D03*
X0206833Y0068500D03*
X0203833Y0068500D03*
X0203833Y0071500D03*
X0206833Y0071500D03*
X0213333Y0074000D03*
X0209333Y0078500D03*
X0196333Y0074000D03*
X0195833Y0070000D03*
X0164333Y0075000D03*
X0157833Y0076500D03*
X0151333Y0077500D03*
X0145333Y0075000D03*
X0142833Y0075000D03*
X0140333Y0075000D03*
X0140333Y0072500D03*
X0137833Y0072500D03*
X0142833Y0072500D03*
X0142833Y0070000D03*
X0140333Y0070000D03*
X0137833Y0070000D03*
X0129333Y0072500D03*
X0134833Y0079000D03*
X0112333Y0083000D03*
X0110333Y0081000D03*
X0107833Y0080000D03*
X0105333Y0080000D03*
X0102833Y0080000D03*
X0092333Y0071500D03*
X0108833Y0064000D03*
X0110833Y0059000D03*
X0088833Y0061000D03*
X0123333Y0048500D03*
X0125333Y0040500D03*
X0143833Y0039000D03*
X0149833Y0045000D03*
X0160833Y0048500D03*
X0171833Y0049000D03*
X0160333Y0054500D03*
X0150833Y0059000D03*
X0158333Y0069000D03*
X0180333Y0084000D03*
X0150833Y0104000D03*
X0219333Y0038500D03*
X0239833Y0037000D03*
D31*
X0111833Y0082500D02*
X0108333Y0079000D01*
X0103333Y0079000D01*
M02*
