G75*
%MOIN*%
%OFA0B0*%
%FSLAX25Y25*%
%IPPOS*%
%LPD*%
%AMOC8*
5,1,8,0,0,1.08239X$1,22.5*
%
%ADD10C,0.03000*%
%ADD11C,0.06000*%
%ADD12C,0.01981*%
%ADD13C,0.02300*%
%ADD14C,0.01000*%
D10*
X0223333Y0097500D03*
X0228333Y0097500D03*
X0233333Y0097500D03*
X0238333Y0097500D03*
X0243333Y0097500D03*
X0243333Y0102500D03*
X0238333Y0102500D03*
X0233333Y0102500D03*
X0228333Y0102500D03*
X0223333Y0102500D03*
D11*
X0141833Y0096500D03*
X0131833Y0096500D03*
X0131833Y0048500D03*
X0141833Y0048500D03*
D12*
X0289896Y0076063D03*
X0293833Y0076063D03*
X0297770Y0076063D03*
X0297770Y0080000D03*
X0293833Y0080000D03*
X0289896Y0080000D03*
X0289896Y0083937D03*
X0293833Y0083937D03*
X0297770Y0083937D03*
D13*
X0278833Y0081000D03*
X0267833Y0081000D03*
X0264833Y0082500D03*
X0255833Y0082500D03*
X0249833Y0081000D03*
X0255583Y0077750D03*
X0242833Y0073000D03*
X0231833Y0077500D03*
X0213333Y0074000D03*
X0206833Y0071500D03*
X0203833Y0071500D03*
X0203833Y0068500D03*
X0206833Y0068500D03*
X0195833Y0070000D03*
X0196333Y0074000D03*
X0209333Y0078500D03*
X0218333Y0088500D03*
X0222833Y0088000D03*
X0211333Y0094000D03*
X0202333Y0092000D03*
X0196333Y0091500D03*
X0188333Y0094000D03*
X0178333Y0096500D03*
X0166333Y0095500D03*
X0159333Y0091500D03*
X0149833Y0085000D03*
X0134833Y0079000D03*
X0140333Y0075000D03*
X0140333Y0072500D03*
X0137833Y0072500D03*
X0142833Y0072500D03*
X0142833Y0075000D03*
X0145333Y0075000D03*
X0151333Y0077500D03*
X0157833Y0076500D03*
X0164333Y0075000D03*
X0158333Y0069000D03*
X0142833Y0070000D03*
X0140333Y0070000D03*
X0137833Y0070000D03*
X0129333Y0072500D03*
X0110333Y0081000D03*
X0107833Y0080000D03*
X0105333Y0080000D03*
X0102833Y0080000D03*
X0112333Y0083000D03*
X0125833Y0087000D03*
X0132833Y0086500D03*
X0110833Y0091000D03*
X0118333Y0104000D03*
X0150833Y0104000D03*
X0180333Y0084000D03*
X0196833Y0062500D03*
X0200833Y0061500D03*
X0205833Y0056500D03*
X0189833Y0052000D03*
X0191333Y0048500D03*
X0202333Y0047000D03*
X0214833Y0046500D03*
X0219333Y0038500D03*
X0239833Y0037000D03*
X0253333Y0039000D03*
X0262833Y0038500D03*
X0268833Y0041500D03*
X0241833Y0043000D03*
X0238333Y0051000D03*
X0249833Y0052000D03*
X0249833Y0057500D03*
X0233833Y0059000D03*
X0249833Y0065000D03*
X0267333Y0061000D03*
X0281833Y0065500D03*
X0286833Y0066000D03*
X0293833Y0064000D03*
X0305333Y0064000D03*
X0323833Y0060500D03*
X0343333Y0056500D03*
X0326333Y0071500D03*
X0328333Y0086000D03*
X0338333Y0089000D03*
X0318833Y0096000D03*
X0296833Y0095500D03*
X0285333Y0102500D03*
X0274333Y0099000D03*
X0250333Y0104000D03*
X0249333Y0085500D03*
X0244833Y0085500D03*
X0270333Y0072000D03*
X0270333Y0052000D03*
X0186333Y0058000D03*
X0171833Y0049000D03*
X0160833Y0048500D03*
X0149833Y0045000D03*
X0143833Y0039000D03*
X0125333Y0040500D03*
X0123333Y0048500D03*
X0110833Y0059000D03*
X0108833Y0064000D03*
X0092333Y0071500D03*
X0088833Y0061000D03*
X0150833Y0059000D03*
X0160333Y0054500D03*
X0305833Y0105500D03*
D14*
X0086833Y0059252D02*
X0086833Y0035503D01*
X0237476Y0035767D01*
X0237183Y0036473D01*
X0237183Y0037527D01*
X0237587Y0038501D01*
X0238332Y0039247D01*
X0239306Y0039650D01*
X0240360Y0039650D01*
X0241334Y0039247D01*
X0242080Y0038501D01*
X0242483Y0037527D01*
X0242483Y0036473D01*
X0242194Y0035775D01*
X0369034Y0035996D01*
X0369034Y0109461D01*
X0086833Y0109461D01*
X0086833Y0062748D01*
X0087332Y0063247D01*
X0088306Y0063650D01*
X0089360Y0063650D01*
X0090334Y0063247D01*
X0091080Y0062501D01*
X0091483Y0061527D01*
X0091483Y0060473D01*
X0091080Y0059499D01*
X0090334Y0058753D01*
X0089360Y0058350D01*
X0088306Y0058350D01*
X0087332Y0058753D01*
X0086833Y0059252D01*
X0086833Y0058963D02*
X0087123Y0058963D01*
X0086833Y0057964D02*
X0148394Y0057964D01*
X0148587Y0057499D02*
X0149332Y0056753D01*
X0150306Y0056350D01*
X0151360Y0056350D01*
X0152334Y0056753D01*
X0153080Y0057499D01*
X0153483Y0058473D01*
X0153483Y0059527D01*
X0153080Y0060501D01*
X0152334Y0061247D01*
X0151360Y0061650D01*
X0150306Y0061650D01*
X0149332Y0061247D01*
X0148587Y0060501D01*
X0148183Y0059527D01*
X0148183Y0058473D01*
X0148587Y0057499D01*
X0149120Y0056966D02*
X0086833Y0056966D01*
X0086833Y0055967D02*
X0158073Y0055967D01*
X0158087Y0056001D02*
X0157683Y0055027D01*
X0157683Y0053973D01*
X0158087Y0052999D01*
X0158832Y0052253D01*
X0159806Y0051850D01*
X0160860Y0051850D01*
X0161834Y0052253D01*
X0162580Y0052999D01*
X0162983Y0053973D01*
X0162983Y0055027D01*
X0162580Y0056001D01*
X0161834Y0056747D01*
X0160860Y0057150D01*
X0159806Y0057150D01*
X0158832Y0056747D01*
X0158087Y0056001D01*
X0157683Y0054969D02*
X0086833Y0054969D01*
X0086833Y0053970D02*
X0157684Y0053970D01*
X0158114Y0052972D02*
X0097592Y0052972D01*
X0097524Y0053000D02*
X0094143Y0053000D01*
X0091018Y0051706D01*
X0088627Y0049315D01*
X0087333Y0046191D01*
X0087333Y0042809D01*
X0088627Y0039685D01*
X0091018Y0037294D01*
X0094143Y0036000D01*
X0097524Y0036000D01*
X0100648Y0037294D01*
X0103039Y0039685D01*
X0104333Y0042809D01*
X0104333Y0046191D01*
X0103039Y0049315D01*
X0100648Y0051706D01*
X0097524Y0053000D01*
X0100003Y0051973D02*
X0129225Y0051973D01*
X0129398Y0052145D02*
X0128188Y0050936D01*
X0127533Y0049355D01*
X0127533Y0047645D01*
X0128188Y0046064D01*
X0129398Y0044855D01*
X0130978Y0044200D01*
X0132689Y0044200D01*
X0134269Y0044855D01*
X0135479Y0046064D01*
X0136133Y0047645D01*
X0136133Y0049355D01*
X0135479Y0050936D01*
X0134269Y0052145D01*
X0132689Y0052800D01*
X0130978Y0052800D01*
X0129398Y0052145D01*
X0128227Y0050975D02*
X0124284Y0050975D01*
X0123860Y0051150D02*
X0122806Y0051150D01*
X0121832Y0050747D01*
X0121087Y0050001D01*
X0120683Y0049027D01*
X0120683Y0047973D01*
X0121087Y0046999D01*
X0121832Y0046253D01*
X0122806Y0045850D01*
X0123860Y0045850D01*
X0124834Y0046253D01*
X0125580Y0046999D01*
X0125983Y0047973D01*
X0125983Y0049027D01*
X0125580Y0050001D01*
X0124834Y0050747D01*
X0123860Y0051150D01*
X0122383Y0050975D02*
X0101379Y0050975D01*
X0102378Y0049976D02*
X0121076Y0049976D01*
X0120683Y0048978D02*
X0103179Y0048978D01*
X0103593Y0047979D02*
X0120683Y0047979D01*
X0121105Y0046981D02*
X0104006Y0046981D01*
X0104333Y0045982D02*
X0122487Y0045982D01*
X0124179Y0045982D02*
X0128270Y0045982D01*
X0127808Y0046981D02*
X0125562Y0046981D01*
X0125983Y0047979D02*
X0127533Y0047979D01*
X0127533Y0048978D02*
X0125983Y0048978D01*
X0125590Y0049976D02*
X0127791Y0049976D01*
X0134441Y0051973D02*
X0139225Y0051973D01*
X0139398Y0052145D02*
X0138188Y0050936D01*
X0137533Y0049355D01*
X0137533Y0047645D01*
X0138188Y0046064D01*
X0139398Y0044855D01*
X0140978Y0044200D01*
X0142689Y0044200D01*
X0144269Y0044855D01*
X0145479Y0046064D01*
X0146133Y0047645D01*
X0146133Y0049355D01*
X0145479Y0050936D01*
X0144269Y0052145D01*
X0142689Y0052800D01*
X0140978Y0052800D01*
X0139398Y0052145D01*
X0138227Y0050975D02*
X0135440Y0050975D01*
X0135876Y0049976D02*
X0137791Y0049976D01*
X0137533Y0048978D02*
X0136133Y0048978D01*
X0136133Y0047979D02*
X0137533Y0047979D01*
X0137808Y0046981D02*
X0135858Y0046981D01*
X0135397Y0045982D02*
X0138270Y0045982D01*
X0139269Y0044984D02*
X0134398Y0044984D01*
X0129269Y0044984D02*
X0104333Y0044984D01*
X0104333Y0043985D02*
X0147385Y0043985D01*
X0147587Y0043499D02*
X0147183Y0044473D01*
X0147183Y0045527D01*
X0147587Y0046501D01*
X0148332Y0047247D01*
X0149306Y0047650D01*
X0150360Y0047650D01*
X0151334Y0047247D01*
X0152080Y0046501D01*
X0152483Y0045527D01*
X0152483Y0044473D01*
X0152080Y0043499D01*
X0151334Y0042753D01*
X0150360Y0042350D01*
X0149306Y0042350D01*
X0148332Y0042753D01*
X0147587Y0043499D01*
X0148099Y0042987D02*
X0126255Y0042987D01*
X0125860Y0043150D02*
X0124806Y0043150D01*
X0123832Y0042747D01*
X0123087Y0042001D01*
X0122683Y0041027D01*
X0122683Y0039973D01*
X0123087Y0038999D01*
X0123832Y0038253D01*
X0124806Y0037850D01*
X0125860Y0037850D01*
X0126834Y0038253D01*
X0127580Y0038999D01*
X0127983Y0039973D01*
X0127983Y0041027D01*
X0127580Y0042001D01*
X0126834Y0042747D01*
X0125860Y0043150D01*
X0124412Y0042987D02*
X0104333Y0042987D01*
X0103993Y0041988D02*
X0123081Y0041988D01*
X0122683Y0040990D02*
X0103580Y0040990D01*
X0103166Y0039991D02*
X0122683Y0039991D01*
X0123093Y0038993D02*
X0102347Y0038993D01*
X0101348Y0037994D02*
X0124458Y0037994D01*
X0126208Y0037994D02*
X0141382Y0037994D01*
X0141183Y0038473D02*
X0141587Y0037499D01*
X0142332Y0036753D01*
X0143306Y0036350D01*
X0144360Y0036350D01*
X0145334Y0036753D01*
X0146080Y0037499D01*
X0146483Y0038473D01*
X0146483Y0039527D01*
X0146080Y0040501D01*
X0145334Y0041247D01*
X0144360Y0041650D01*
X0143306Y0041650D01*
X0142332Y0041247D01*
X0141587Y0040501D01*
X0141183Y0039527D01*
X0141183Y0038473D01*
X0141183Y0038993D02*
X0127574Y0038993D01*
X0127983Y0039991D02*
X0141376Y0039991D01*
X0142075Y0040990D02*
X0127983Y0040990D01*
X0127585Y0041988D02*
X0239384Y0041988D01*
X0239183Y0042473D02*
X0239587Y0041499D01*
X0240332Y0040753D01*
X0241306Y0040350D01*
X0242360Y0040350D01*
X0243334Y0040753D01*
X0244080Y0041499D01*
X0244483Y0042473D01*
X0244483Y0043527D01*
X0244080Y0044501D01*
X0243334Y0045247D01*
X0242360Y0045650D01*
X0241306Y0045650D01*
X0240332Y0045247D01*
X0239587Y0044501D01*
X0239183Y0043527D01*
X0239183Y0042473D01*
X0239183Y0042987D02*
X0151568Y0042987D01*
X0152281Y0043985D02*
X0239373Y0043985D01*
X0240069Y0044984D02*
X0204065Y0044984D01*
X0203834Y0044753D02*
X0204580Y0045499D01*
X0204983Y0046473D01*
X0204983Y0047527D01*
X0204580Y0048501D01*
X0203834Y0049247D01*
X0202860Y0049650D01*
X0201806Y0049650D01*
X0200832Y0049247D01*
X0200087Y0048501D01*
X0199683Y0047527D01*
X0199683Y0046473D01*
X0200087Y0045499D01*
X0200832Y0044753D01*
X0201806Y0044350D01*
X0202860Y0044350D01*
X0203834Y0044753D01*
X0204780Y0045982D02*
X0328613Y0045982D01*
X0328613Y0045931D02*
X0329157Y0044617D01*
X0330163Y0043611D01*
X0331477Y0043067D01*
X0332899Y0043067D01*
X0334213Y0043611D01*
X0335218Y0044617D01*
X0335762Y0045931D01*
X0335762Y0047353D01*
X0335218Y0048667D01*
X0334213Y0049672D01*
X0332899Y0050217D01*
X0331477Y0050217D01*
X0330163Y0049672D01*
X0329157Y0048667D01*
X0328613Y0047353D01*
X0328613Y0045931D01*
X0329005Y0044984D02*
X0243597Y0044984D01*
X0244294Y0043985D02*
X0329789Y0043985D01*
X0328613Y0046981D02*
X0204983Y0046981D01*
X0204796Y0047979D02*
X0328872Y0047979D01*
X0329468Y0048978D02*
X0240059Y0048978D01*
X0239834Y0048753D02*
X0240580Y0049499D01*
X0240983Y0050473D01*
X0240983Y0051527D01*
X0240580Y0052501D01*
X0239834Y0053247D01*
X0238860Y0053650D01*
X0237806Y0053650D01*
X0236832Y0053247D01*
X0236087Y0052501D01*
X0235683Y0051527D01*
X0235683Y0050473D01*
X0236087Y0049499D01*
X0236832Y0048753D01*
X0237806Y0048350D01*
X0238860Y0048350D01*
X0239834Y0048753D01*
X0240778Y0049976D02*
X0248109Y0049976D01*
X0248332Y0049753D02*
X0249306Y0049350D01*
X0250360Y0049350D01*
X0251334Y0049753D01*
X0252080Y0050499D01*
X0252483Y0051473D01*
X0252483Y0052527D01*
X0252080Y0053501D01*
X0251334Y0054247D01*
X0250360Y0054650D01*
X0249306Y0054650D01*
X0248332Y0054247D01*
X0247587Y0053501D01*
X0247183Y0052527D01*
X0247183Y0051473D01*
X0247587Y0050499D01*
X0248332Y0049753D01*
X0247390Y0050975D02*
X0240983Y0050975D01*
X0240799Y0051973D02*
X0247183Y0051973D01*
X0247367Y0052972D02*
X0240109Y0052972D01*
X0236557Y0052972D02*
X0192299Y0052972D01*
X0192483Y0052527D02*
X0192080Y0053501D01*
X0191334Y0054247D01*
X0190360Y0054650D01*
X0189306Y0054650D01*
X0188332Y0054247D01*
X0187587Y0053501D01*
X0187183Y0052527D01*
X0187183Y0051473D01*
X0187587Y0050499D01*
X0188332Y0049753D01*
X0188889Y0049523D01*
X0188683Y0049027D01*
X0188683Y0047973D01*
X0189087Y0046999D01*
X0189832Y0046253D01*
X0190806Y0045850D01*
X0191860Y0045850D01*
X0192834Y0046253D01*
X0193580Y0046999D01*
X0193983Y0047973D01*
X0193983Y0049027D01*
X0193580Y0050001D01*
X0192834Y0050747D01*
X0192278Y0050977D01*
X0192483Y0051473D01*
X0192483Y0052527D01*
X0192483Y0051973D02*
X0235868Y0051973D01*
X0235683Y0050975D02*
X0192284Y0050975D01*
X0193590Y0049976D02*
X0235889Y0049976D01*
X0236608Y0048978D02*
X0204103Y0048978D01*
X0200563Y0048978D02*
X0193983Y0048978D01*
X0193983Y0047979D02*
X0199871Y0047979D01*
X0199683Y0046981D02*
X0193562Y0046981D01*
X0192179Y0045982D02*
X0199887Y0045982D01*
X0200602Y0044984D02*
X0152483Y0044984D01*
X0152295Y0045982D02*
X0159987Y0045982D01*
X0160306Y0045850D02*
X0161360Y0045850D01*
X0162334Y0046253D01*
X0163080Y0046999D01*
X0163483Y0047973D01*
X0163483Y0049027D01*
X0163080Y0050001D01*
X0162334Y0050747D01*
X0161360Y0051150D01*
X0160306Y0051150D01*
X0159332Y0050747D01*
X0158587Y0050001D01*
X0158183Y0049027D01*
X0158183Y0047973D01*
X0158587Y0046999D01*
X0159332Y0046253D01*
X0160306Y0045850D01*
X0161679Y0045982D02*
X0190487Y0045982D01*
X0189105Y0046981D02*
X0173562Y0046981D01*
X0173334Y0046753D02*
X0174080Y0047499D01*
X0174483Y0048473D01*
X0174483Y0049527D01*
X0174080Y0050501D01*
X0173334Y0051247D01*
X0172360Y0051650D01*
X0171306Y0051650D01*
X0170332Y0051247D01*
X0169587Y0050501D01*
X0169183Y0049527D01*
X0169183Y0048473D01*
X0169587Y0047499D01*
X0170332Y0046753D01*
X0171306Y0046350D01*
X0172360Y0046350D01*
X0173334Y0046753D01*
X0174279Y0047979D02*
X0188683Y0047979D01*
X0188683Y0048978D02*
X0174483Y0048978D01*
X0174297Y0049976D02*
X0188109Y0049976D01*
X0187390Y0050975D02*
X0173606Y0050975D01*
X0170060Y0050975D02*
X0161784Y0050975D01*
X0161158Y0051973D02*
X0187183Y0051973D01*
X0187367Y0052972D02*
X0162553Y0052972D01*
X0162982Y0053970D02*
X0188056Y0053970D01*
X0187834Y0055753D02*
X0188580Y0056499D01*
X0188983Y0057473D01*
X0188983Y0058527D01*
X0188580Y0059501D01*
X0187834Y0060247D01*
X0186860Y0060650D01*
X0185806Y0060650D01*
X0184832Y0060247D01*
X0184087Y0059501D01*
X0183683Y0058527D01*
X0183683Y0057473D01*
X0184087Y0056499D01*
X0184832Y0055753D01*
X0185806Y0055350D01*
X0186860Y0055350D01*
X0187834Y0055753D01*
X0188048Y0055967D02*
X0203186Y0055967D01*
X0203183Y0055973D02*
X0203587Y0054999D01*
X0204332Y0054253D01*
X0205306Y0053850D01*
X0206360Y0053850D01*
X0207334Y0054253D01*
X0208080Y0054999D01*
X0208483Y0055973D01*
X0208483Y0057027D01*
X0208080Y0058001D01*
X0207334Y0058747D01*
X0206360Y0059150D01*
X0205306Y0059150D01*
X0204332Y0058747D01*
X0203587Y0058001D01*
X0203183Y0057027D01*
X0203183Y0055973D01*
X0203183Y0056966D02*
X0188773Y0056966D01*
X0188983Y0057964D02*
X0203572Y0057964D01*
X0204854Y0058963D02*
X0201633Y0058963D01*
X0201360Y0058850D02*
X0202334Y0059253D01*
X0203080Y0059999D01*
X0203483Y0060973D01*
X0203483Y0062027D01*
X0203080Y0063001D01*
X0202334Y0063747D01*
X0201360Y0064150D01*
X0200306Y0064150D01*
X0199332Y0063747D01*
X0199228Y0063643D01*
X0199080Y0064001D01*
X0198334Y0064747D01*
X0197360Y0065150D01*
X0196306Y0065150D01*
X0195332Y0064747D01*
X0194587Y0064001D01*
X0194183Y0063027D01*
X0194183Y0061973D01*
X0194587Y0060999D01*
X0195332Y0060253D01*
X0196306Y0059850D01*
X0197360Y0059850D01*
X0198334Y0060253D01*
X0198438Y0060357D01*
X0198587Y0059999D01*
X0199332Y0059253D01*
X0200306Y0058850D01*
X0201360Y0058850D01*
X0200034Y0058963D02*
X0188803Y0058963D01*
X0188120Y0059961D02*
X0196037Y0059961D01*
X0197629Y0059961D02*
X0198624Y0059961D01*
X0194626Y0060960D02*
X0152621Y0060960D01*
X0153303Y0059961D02*
X0184547Y0059961D01*
X0183864Y0058963D02*
X0153483Y0058963D01*
X0153273Y0057964D02*
X0183683Y0057964D01*
X0183893Y0056966D02*
X0161305Y0056966D01*
X0162594Y0055967D02*
X0184618Y0055967D01*
X0191611Y0053970D02*
X0205016Y0053970D01*
X0206651Y0053970D02*
X0248056Y0053970D01*
X0248332Y0055253D02*
X0249306Y0054850D01*
X0250360Y0054850D01*
X0251334Y0055253D01*
X0252080Y0055999D01*
X0252483Y0056973D01*
X0252483Y0058027D01*
X0252080Y0059001D01*
X0251334Y0059747D01*
X0250360Y0060150D01*
X0249306Y0060150D01*
X0248332Y0059747D01*
X0247587Y0059001D01*
X0247183Y0058027D01*
X0247183Y0056973D01*
X0247587Y0055999D01*
X0248332Y0055253D01*
X0249020Y0054969D02*
X0208050Y0054969D01*
X0208481Y0055967D02*
X0247618Y0055967D01*
X0247186Y0056966D02*
X0208483Y0056966D01*
X0208095Y0057964D02*
X0247183Y0057964D01*
X0247571Y0058963D02*
X0206812Y0058963D01*
X0203478Y0060960D02*
X0369034Y0060960D01*
X0369034Y0061958D02*
X0203483Y0061958D01*
X0203098Y0062957D02*
X0248129Y0062957D01*
X0248332Y0062753D02*
X0249306Y0062350D01*
X0250360Y0062350D01*
X0251334Y0062753D01*
X0252080Y0063499D01*
X0252483Y0064473D01*
X0252483Y0065527D01*
X0252080Y0066501D01*
X0251334Y0067247D01*
X0250360Y0067650D01*
X0249306Y0067650D01*
X0248332Y0067247D01*
X0247587Y0066501D01*
X0247183Y0065527D01*
X0247183Y0064473D01*
X0247587Y0063499D01*
X0248332Y0062753D01*
X0247398Y0063955D02*
X0201830Y0063955D01*
X0199836Y0063955D02*
X0199099Y0063955D01*
X0197834Y0064954D02*
X0247183Y0064954D01*
X0247359Y0065952D02*
X0207608Y0065952D01*
X0207360Y0065850D02*
X0208334Y0066253D01*
X0209080Y0066999D01*
X0209483Y0067973D01*
X0209483Y0069027D01*
X0209080Y0070000D01*
X0209483Y0070973D01*
X0209483Y0072027D01*
X0209080Y0073001D01*
X0208334Y0073747D01*
X0207360Y0074150D01*
X0206306Y0074150D01*
X0205333Y0073747D01*
X0204360Y0074150D01*
X0203306Y0074150D01*
X0202332Y0073747D01*
X0201587Y0073001D01*
X0201183Y0072027D01*
X0201183Y0070973D01*
X0201586Y0070000D01*
X0201183Y0069027D01*
X0201183Y0067973D01*
X0201587Y0066999D01*
X0202332Y0066253D01*
X0203306Y0065850D01*
X0204360Y0065850D01*
X0205333Y0066253D01*
X0206306Y0065850D01*
X0207360Y0065850D01*
X0206059Y0065952D02*
X0204608Y0065952D01*
X0203059Y0065952D02*
X0184561Y0065952D01*
X0184189Y0065053D02*
X0185392Y0067959D01*
X0185392Y0071104D01*
X0184189Y0074010D01*
X0181965Y0076233D01*
X0179059Y0077437D01*
X0175914Y0077437D01*
X0173009Y0076233D01*
X0170785Y0074010D01*
X0169581Y0071104D01*
X0169581Y0067959D01*
X0170785Y0065053D01*
X0173009Y0062830D01*
X0175914Y0061626D01*
X0179059Y0061626D01*
X0181965Y0062830D01*
X0184189Y0065053D01*
X0184089Y0064954D02*
X0195833Y0064954D01*
X0194568Y0063955D02*
X0183091Y0063955D01*
X0182092Y0062957D02*
X0194183Y0062957D01*
X0194189Y0061958D02*
X0179862Y0061958D01*
X0175112Y0061958D02*
X0110539Y0061958D01*
X0110334Y0061753D02*
X0111080Y0062499D01*
X0111483Y0063473D01*
X0111483Y0064527D01*
X0111080Y0065501D01*
X0110334Y0066247D01*
X0109360Y0066650D01*
X0108306Y0066650D01*
X0107332Y0066247D01*
X0106587Y0065501D01*
X0106183Y0064527D01*
X0106183Y0063473D01*
X0106587Y0062499D01*
X0107332Y0061753D01*
X0108306Y0061350D01*
X0109360Y0061350D01*
X0110334Y0061753D01*
X0111270Y0062957D02*
X0172881Y0062957D01*
X0171883Y0063955D02*
X0111483Y0063955D01*
X0111307Y0064954D02*
X0170884Y0064954D01*
X0170413Y0065952D02*
X0110629Y0065952D01*
X0107038Y0065952D02*
X0086833Y0065952D01*
X0086833Y0064954D02*
X0106360Y0064954D01*
X0106183Y0063955D02*
X0086833Y0063955D01*
X0086833Y0062957D02*
X0087043Y0062957D01*
X0090624Y0062957D02*
X0106397Y0062957D01*
X0107127Y0061958D02*
X0091305Y0061958D01*
X0091483Y0060960D02*
X0149045Y0060960D01*
X0148363Y0059961D02*
X0091271Y0059961D01*
X0090544Y0058963D02*
X0148183Y0058963D01*
X0152547Y0056966D02*
X0159361Y0056966D01*
X0162983Y0054969D02*
X0203617Y0054969D01*
X0203042Y0059961D02*
X0248851Y0059961D01*
X0250816Y0059961D02*
X0369034Y0059961D01*
X0369034Y0058963D02*
X0344312Y0058963D01*
X0343860Y0059150D02*
X0344834Y0058747D01*
X0345580Y0058001D01*
X0345983Y0057027D01*
X0345983Y0055973D01*
X0345580Y0054999D01*
X0344834Y0054253D01*
X0343860Y0053850D01*
X0342806Y0053850D01*
X0341832Y0054253D01*
X0341087Y0054999D01*
X0340683Y0055973D01*
X0340683Y0057027D01*
X0341087Y0058001D01*
X0341832Y0058747D01*
X0342806Y0059150D01*
X0343860Y0059150D01*
X0342354Y0058963D02*
X0252096Y0058963D01*
X0252483Y0057964D02*
X0341072Y0057964D01*
X0340683Y0056966D02*
X0252480Y0056966D01*
X0252048Y0055967D02*
X0340686Y0055967D01*
X0341117Y0054969D02*
X0250647Y0054969D01*
X0251611Y0053970D02*
X0268556Y0053970D01*
X0268832Y0054247D02*
X0268087Y0053501D01*
X0267683Y0052527D01*
X0267683Y0051473D01*
X0268087Y0050499D01*
X0268832Y0049753D01*
X0269806Y0049350D01*
X0270860Y0049350D01*
X0271834Y0049753D01*
X0272580Y0050499D01*
X0272983Y0051473D01*
X0272983Y0052527D01*
X0272580Y0053501D01*
X0271834Y0054247D01*
X0270860Y0054650D01*
X0269806Y0054650D01*
X0268832Y0054247D01*
X0267867Y0052972D02*
X0252299Y0052972D01*
X0252483Y0051973D02*
X0267683Y0051973D01*
X0267890Y0050975D02*
X0252277Y0050975D01*
X0251557Y0049976D02*
X0268609Y0049976D01*
X0272057Y0049976D02*
X0330896Y0049976D01*
X0333479Y0049976D02*
X0353789Y0049976D01*
X0353127Y0049315D02*
X0351833Y0046191D01*
X0351833Y0042809D01*
X0353127Y0039685D01*
X0355518Y0037294D01*
X0358643Y0036000D01*
X0362024Y0036000D01*
X0365148Y0037294D01*
X0367539Y0039685D01*
X0368833Y0042809D01*
X0368833Y0046191D01*
X0367539Y0049315D01*
X0365148Y0051706D01*
X0362024Y0053000D01*
X0358643Y0053000D01*
X0355518Y0051706D01*
X0353127Y0049315D01*
X0352988Y0048978D02*
X0334907Y0048978D01*
X0335503Y0047979D02*
X0352574Y0047979D01*
X0352161Y0046981D02*
X0335762Y0046981D01*
X0335762Y0045982D02*
X0351833Y0045982D01*
X0351833Y0044984D02*
X0335370Y0044984D01*
X0334587Y0043985D02*
X0351833Y0043985D01*
X0351833Y0042987D02*
X0244483Y0042987D01*
X0244283Y0041988D02*
X0352173Y0041988D01*
X0352587Y0040990D02*
X0263748Y0040990D01*
X0263360Y0041150D02*
X0262306Y0041150D01*
X0261332Y0040747D01*
X0260587Y0040001D01*
X0260183Y0039027D01*
X0260183Y0037973D01*
X0260587Y0036999D01*
X0261332Y0036253D01*
X0262306Y0035850D01*
X0263360Y0035850D01*
X0264334Y0036253D01*
X0265080Y0036999D01*
X0265483Y0037973D01*
X0265483Y0039027D01*
X0265080Y0040001D01*
X0264334Y0040747D01*
X0263360Y0041150D01*
X0261919Y0040990D02*
X0255091Y0040990D01*
X0254834Y0041247D02*
X0253860Y0041650D01*
X0252806Y0041650D01*
X0251832Y0041247D01*
X0251087Y0040501D01*
X0250683Y0039527D01*
X0250683Y0038473D01*
X0251087Y0037499D01*
X0251832Y0036753D01*
X0252806Y0036350D01*
X0253860Y0036350D01*
X0254834Y0036753D01*
X0255580Y0037499D01*
X0255983Y0038473D01*
X0255983Y0039527D01*
X0255580Y0040501D01*
X0254834Y0041247D01*
X0255791Y0039991D02*
X0260583Y0039991D01*
X0260183Y0038993D02*
X0255983Y0038993D01*
X0255785Y0037994D02*
X0260183Y0037994D01*
X0260590Y0036996D02*
X0255077Y0036996D01*
X0251590Y0036996D02*
X0242483Y0036996D01*
X0242290Y0037994D02*
X0250882Y0037994D01*
X0250683Y0038993D02*
X0241588Y0038993D01*
X0238078Y0038993D02*
X0221983Y0038993D01*
X0221983Y0039027D02*
X0221580Y0040001D01*
X0220834Y0040747D01*
X0219860Y0041150D01*
X0218806Y0041150D01*
X0217832Y0040747D01*
X0217087Y0040001D01*
X0216683Y0039027D01*
X0216683Y0037973D01*
X0217087Y0036999D01*
X0217832Y0036253D01*
X0218806Y0035850D01*
X0219860Y0035850D01*
X0220834Y0036253D01*
X0221580Y0036999D01*
X0221983Y0037973D01*
X0221983Y0039027D01*
X0221983Y0037994D02*
X0237377Y0037994D01*
X0237183Y0036996D02*
X0221577Y0036996D01*
X0220215Y0035997D02*
X0237380Y0035997D01*
X0242286Y0035997D02*
X0261951Y0035997D01*
X0263715Y0035997D02*
X0369034Y0035997D01*
X0369034Y0036996D02*
X0364428Y0036996D01*
X0365848Y0037994D02*
X0369034Y0037994D01*
X0369034Y0038993D02*
X0366847Y0038993D01*
X0367666Y0039991D02*
X0369034Y0039991D01*
X0369034Y0040990D02*
X0368080Y0040990D01*
X0368493Y0041988D02*
X0369034Y0041988D01*
X0369034Y0042987D02*
X0368833Y0042987D01*
X0368833Y0043985D02*
X0369034Y0043985D01*
X0369034Y0044984D02*
X0368833Y0044984D01*
X0368833Y0045982D02*
X0369034Y0045982D01*
X0369034Y0046981D02*
X0368506Y0046981D01*
X0368093Y0047979D02*
X0369034Y0047979D01*
X0369034Y0048978D02*
X0367679Y0048978D01*
X0366878Y0049976D02*
X0369034Y0049976D01*
X0369034Y0050975D02*
X0365879Y0050975D01*
X0364503Y0051973D02*
X0369034Y0051973D01*
X0369034Y0052972D02*
X0362092Y0052972D01*
X0358574Y0052972D02*
X0272799Y0052972D01*
X0272983Y0051973D02*
X0356164Y0051973D01*
X0354787Y0050975D02*
X0272777Y0050975D01*
X0272111Y0053970D02*
X0342516Y0053970D01*
X0344151Y0053970D02*
X0369034Y0053970D01*
X0369034Y0054969D02*
X0345550Y0054969D01*
X0345981Y0055967D02*
X0369034Y0055967D01*
X0369034Y0056966D02*
X0345983Y0056966D01*
X0345595Y0057964D02*
X0369034Y0057964D01*
X0369034Y0062957D02*
X0282618Y0062957D01*
X0282360Y0062850D02*
X0283334Y0063253D01*
X0284080Y0063999D01*
X0284437Y0064861D01*
X0284587Y0064499D01*
X0285332Y0063753D01*
X0286306Y0063350D01*
X0287360Y0063350D01*
X0288334Y0063753D01*
X0289080Y0064499D01*
X0289483Y0065473D01*
X0289483Y0066527D01*
X0289080Y0067501D01*
X0288334Y0068247D01*
X0287360Y0068650D01*
X0286306Y0068650D01*
X0285332Y0068247D01*
X0284587Y0067501D01*
X0284230Y0066639D01*
X0284080Y0067001D01*
X0283334Y0067747D01*
X0282360Y0068150D01*
X0281306Y0068150D01*
X0280332Y0067747D01*
X0279587Y0067001D01*
X0279183Y0066027D01*
X0279183Y0064973D01*
X0279587Y0063999D01*
X0280332Y0063253D01*
X0281306Y0062850D01*
X0282360Y0062850D01*
X0281048Y0062957D02*
X0251538Y0062957D01*
X0252269Y0063955D02*
X0279630Y0063955D01*
X0279191Y0064954D02*
X0252483Y0064954D01*
X0252307Y0065952D02*
X0279183Y0065952D01*
X0279566Y0066951D02*
X0251630Y0066951D01*
X0248037Y0066951D02*
X0209032Y0066951D01*
X0209474Y0067949D02*
X0280822Y0067949D01*
X0282845Y0067949D02*
X0285035Y0067949D01*
X0284359Y0066951D02*
X0284101Y0066951D01*
X0288632Y0067949D02*
X0305824Y0067949D01*
X0305950Y0067824D02*
X0307264Y0067280D01*
X0308686Y0067280D01*
X0310000Y0067824D01*
X0311006Y0068829D01*
X0311550Y0070143D01*
X0311550Y0071565D01*
X0311006Y0072879D01*
X0310000Y0073885D01*
X0308686Y0074429D01*
X0307264Y0074429D01*
X0305950Y0073885D01*
X0304944Y0072879D01*
X0304400Y0071565D01*
X0304400Y0070143D01*
X0304944Y0068829D01*
X0305950Y0067824D01*
X0304895Y0068948D02*
X0209483Y0068948D01*
X0209103Y0069946D02*
X0268639Y0069946D01*
X0268832Y0069753D02*
X0269806Y0069350D01*
X0270860Y0069350D01*
X0271834Y0069753D01*
X0272580Y0070499D01*
X0272983Y0071473D01*
X0272983Y0072527D01*
X0272580Y0073501D01*
X0271834Y0074247D01*
X0270860Y0074650D01*
X0269806Y0074650D01*
X0268832Y0074247D01*
X0268087Y0073501D01*
X0267683Y0072527D01*
X0267683Y0071473D01*
X0268087Y0070499D01*
X0268832Y0069753D01*
X0267902Y0070945D02*
X0244526Y0070945D01*
X0244334Y0070753D02*
X0245080Y0071499D01*
X0245483Y0072473D01*
X0245483Y0073527D01*
X0245080Y0074501D01*
X0244334Y0075247D01*
X0243360Y0075650D01*
X0242306Y0075650D01*
X0241332Y0075247D01*
X0240587Y0074501D01*
X0240183Y0073527D01*
X0240183Y0072473D01*
X0240587Y0071499D01*
X0241332Y0070753D01*
X0242306Y0070350D01*
X0243360Y0070350D01*
X0244334Y0070753D01*
X0245264Y0071943D02*
X0267683Y0071943D01*
X0267855Y0072942D02*
X0245483Y0072942D01*
X0245312Y0073940D02*
X0268526Y0073940D01*
X0272141Y0073940D02*
X0288780Y0073940D01*
X0288948Y0073772D02*
X0290845Y0073772D01*
X0291865Y0074792D01*
X0292885Y0073772D01*
X0294782Y0073772D01*
X0295802Y0074792D01*
X0296822Y0073772D01*
X0298719Y0073772D01*
X0300061Y0075114D01*
X0300061Y0077012D01*
X0299041Y0078031D01*
X0300061Y0079051D01*
X0300061Y0080949D01*
X0299041Y0081969D01*
X0300061Y0082988D01*
X0300061Y0084886D01*
X0298719Y0086228D01*
X0296822Y0086228D01*
X0295802Y0085208D01*
X0294782Y0086228D01*
X0292885Y0086228D01*
X0291865Y0085208D01*
X0290845Y0086228D01*
X0288948Y0086228D01*
X0287606Y0084886D01*
X0287606Y0082988D01*
X0288626Y0081969D01*
X0287606Y0080949D01*
X0287606Y0079051D01*
X0288626Y0078031D01*
X0287606Y0077012D01*
X0287606Y0075114D01*
X0288948Y0073772D01*
X0287781Y0074939D02*
X0244642Y0074939D01*
X0241025Y0074939D02*
X0215813Y0074939D01*
X0215983Y0074527D02*
X0215580Y0075501D01*
X0214834Y0076247D01*
X0213860Y0076650D01*
X0212806Y0076650D01*
X0211832Y0076247D01*
X0211087Y0075501D01*
X0210683Y0074527D01*
X0210683Y0073473D01*
X0211087Y0072499D01*
X0211832Y0071753D01*
X0212806Y0071350D01*
X0213860Y0071350D01*
X0214834Y0071753D01*
X0215580Y0072499D01*
X0215983Y0073473D01*
X0215983Y0074527D01*
X0215983Y0073940D02*
X0240355Y0073940D01*
X0240183Y0072942D02*
X0215763Y0072942D01*
X0215024Y0071943D02*
X0240403Y0071943D01*
X0241141Y0070945D02*
X0209472Y0070945D01*
X0209483Y0071943D02*
X0211642Y0071943D01*
X0210903Y0072942D02*
X0209104Y0072942D01*
X0207866Y0073940D02*
X0210683Y0073940D01*
X0210854Y0074939D02*
X0198813Y0074939D01*
X0198983Y0074527D02*
X0198580Y0075501D01*
X0197834Y0076247D01*
X0196860Y0076650D01*
X0195806Y0076650D01*
X0194832Y0076247D01*
X0194087Y0075501D01*
X0193683Y0074527D01*
X0193683Y0073473D01*
X0194087Y0072499D01*
X0194337Y0072249D01*
X0194332Y0072247D01*
X0193587Y0071501D01*
X0193183Y0070527D01*
X0193183Y0069473D01*
X0193587Y0068499D01*
X0194332Y0067753D01*
X0195306Y0067350D01*
X0196360Y0067350D01*
X0197334Y0067753D01*
X0198080Y0068499D01*
X0198483Y0069473D01*
X0198483Y0070527D01*
X0198080Y0071501D01*
X0197830Y0071751D01*
X0197834Y0071753D01*
X0198580Y0072499D01*
X0198983Y0073473D01*
X0198983Y0074527D01*
X0198983Y0073940D02*
X0202800Y0073940D01*
X0201562Y0072942D02*
X0198763Y0072942D01*
X0198024Y0071943D02*
X0201183Y0071943D01*
X0201195Y0070945D02*
X0198310Y0070945D01*
X0198483Y0069946D02*
X0201564Y0069946D01*
X0201183Y0068948D02*
X0198266Y0068948D01*
X0197530Y0067949D02*
X0201193Y0067949D01*
X0201635Y0066951D02*
X0184975Y0066951D01*
X0185388Y0067949D02*
X0194136Y0067949D01*
X0193401Y0068948D02*
X0185392Y0068948D01*
X0185392Y0069946D02*
X0193183Y0069946D01*
X0193356Y0070945D02*
X0185392Y0070945D01*
X0185045Y0071943D02*
X0194029Y0071943D01*
X0193903Y0072942D02*
X0184631Y0072942D01*
X0184217Y0073940D02*
X0193683Y0073940D01*
X0193854Y0074939D02*
X0183259Y0074939D01*
X0182261Y0075937D02*
X0194523Y0075937D01*
X0198144Y0075937D02*
X0208595Y0075937D01*
X0208806Y0075850D02*
X0209860Y0075850D01*
X0210834Y0076253D01*
X0211580Y0076999D01*
X0211983Y0077973D01*
X0211983Y0079027D01*
X0211580Y0080001D01*
X0210834Y0080747D01*
X0209860Y0081150D01*
X0208806Y0081150D01*
X0207832Y0080747D01*
X0207087Y0080001D01*
X0206683Y0079027D01*
X0206683Y0077973D01*
X0207087Y0076999D01*
X0207832Y0076253D01*
X0208806Y0075850D01*
X0210072Y0075937D02*
X0211523Y0075937D01*
X0211517Y0076936D02*
X0253052Y0076936D01*
X0252933Y0077223D02*
X0253337Y0076249D01*
X0254082Y0075503D01*
X0255056Y0075100D01*
X0256110Y0075100D01*
X0257084Y0075503D01*
X0257830Y0076249D01*
X0258233Y0077223D01*
X0258233Y0078277D01*
X0257830Y0079251D01*
X0257084Y0079997D01*
X0256110Y0080400D01*
X0255056Y0080400D01*
X0254082Y0079997D01*
X0253337Y0079251D01*
X0252933Y0078277D01*
X0252933Y0077223D01*
X0252933Y0077934D02*
X0211967Y0077934D01*
X0211983Y0078933D02*
X0248153Y0078933D01*
X0248332Y0078753D02*
X0249306Y0078350D01*
X0250360Y0078350D01*
X0251334Y0078753D01*
X0252080Y0079499D01*
X0252483Y0080473D01*
X0252483Y0081527D01*
X0252080Y0082501D01*
X0251334Y0083247D01*
X0250976Y0083395D01*
X0251580Y0083999D01*
X0251983Y0084973D01*
X0251983Y0086027D01*
X0251580Y0087001D01*
X0250834Y0087747D01*
X0249860Y0088150D01*
X0248806Y0088150D01*
X0247832Y0087747D01*
X0247087Y0087001D01*
X0247083Y0086993D01*
X0247080Y0087001D01*
X0246334Y0087747D01*
X0245360Y0088150D01*
X0244306Y0088150D01*
X0243332Y0087747D01*
X0242587Y0087001D01*
X0242183Y0086027D01*
X0242183Y0084973D01*
X0242587Y0083999D01*
X0243332Y0083253D01*
X0244306Y0082850D01*
X0245360Y0082850D01*
X0246334Y0083253D01*
X0247080Y0083999D01*
X0247083Y0084007D01*
X0247087Y0083999D01*
X0247832Y0083253D01*
X0248191Y0083105D01*
X0247587Y0082501D01*
X0247183Y0081527D01*
X0247183Y0080473D01*
X0247587Y0079499D01*
X0248332Y0078753D01*
X0247408Y0079932D02*
X0211609Y0079932D01*
X0210391Y0080930D02*
X0247183Y0080930D01*
X0247350Y0081929D02*
X0114758Y0081929D01*
X0114580Y0081499D02*
X0114983Y0082473D01*
X0114983Y0083527D01*
X0114580Y0084501D01*
X0113834Y0085247D01*
X0112860Y0085650D01*
X0111806Y0085650D01*
X0110832Y0085247D01*
X0110087Y0084501D01*
X0109719Y0083614D01*
X0108832Y0083247D01*
X0108236Y0082650D01*
X0107306Y0082650D01*
X0106583Y0082351D01*
X0105860Y0082650D01*
X0104806Y0082650D01*
X0104083Y0082351D01*
X0103360Y0082650D01*
X0102306Y0082650D01*
X0101332Y0082247D01*
X0100587Y0081501D01*
X0100183Y0080527D01*
X0100183Y0079473D01*
X0100587Y0078499D01*
X0101332Y0077753D01*
X0102306Y0077350D01*
X0103360Y0077350D01*
X0104083Y0077649D01*
X0104806Y0077350D01*
X0105860Y0077350D01*
X0106583Y0077649D01*
X0107306Y0077350D01*
X0108360Y0077350D01*
X0109334Y0077753D01*
X0109931Y0078350D01*
X0110860Y0078350D01*
X0111834Y0078753D01*
X0112580Y0079499D01*
X0112947Y0080386D01*
X0113834Y0080753D01*
X0114580Y0081499D01*
X0114011Y0080930D02*
X0133016Y0080930D01*
X0133332Y0081247D02*
X0132587Y0080501D01*
X0132183Y0079527D01*
X0132183Y0078473D01*
X0132587Y0077499D01*
X0133332Y0076753D01*
X0134306Y0076350D01*
X0135360Y0076350D01*
X0136334Y0076753D01*
X0137080Y0077499D01*
X0137483Y0078473D01*
X0137483Y0079527D01*
X0137080Y0080501D01*
X0136334Y0081247D01*
X0135360Y0081650D01*
X0134306Y0081650D01*
X0133332Y0081247D01*
X0132833Y0082000D02*
X0132833Y0086500D01*
X0144333Y0086500D01*
X0149333Y0089000D01*
X0155333Y0089000D01*
X0164333Y0075000D01*
X0173333Y0084000D01*
X0180333Y0084000D01*
X0203333Y0084000D01*
X0211333Y0094000D01*
X0214333Y0092000D01*
X0226833Y0092000D01*
X0231833Y0089500D01*
X0239333Y0086000D01*
X0237833Y0092000D01*
X0242333Y0092000D01*
X0243833Y0093500D01*
X0248333Y0089000D01*
X0253333Y0089000D01*
X0255833Y0086500D01*
X0255833Y0082500D01*
X0252317Y0081929D02*
X0265350Y0081929D01*
X0265183Y0081527D02*
X0265587Y0082501D01*
X0266332Y0083247D01*
X0267306Y0083650D01*
X0268360Y0083650D01*
X0269334Y0083247D01*
X0270080Y0082501D01*
X0270483Y0081527D01*
X0270483Y0080473D01*
X0270080Y0079499D01*
X0269334Y0078753D01*
X0268360Y0078350D01*
X0267306Y0078350D01*
X0266332Y0078753D01*
X0265587Y0079499D01*
X0265183Y0080473D01*
X0265183Y0081527D01*
X0265183Y0080930D02*
X0252483Y0080930D01*
X0252259Y0079932D02*
X0254017Y0079932D01*
X0253205Y0078933D02*
X0251514Y0078933D01*
X0257149Y0079932D02*
X0265408Y0079932D01*
X0266153Y0078933D02*
X0257962Y0078933D01*
X0258233Y0077934D02*
X0288529Y0077934D01*
X0287724Y0078933D02*
X0269514Y0078933D01*
X0270259Y0079932D02*
X0287606Y0079932D01*
X0287606Y0080930D02*
X0270483Y0080930D01*
X0270317Y0081929D02*
X0288586Y0081929D01*
X0287667Y0082927D02*
X0269654Y0082927D01*
X0266013Y0082927D02*
X0251654Y0082927D01*
X0251507Y0083926D02*
X0287606Y0083926D01*
X0287644Y0084924D02*
X0251963Y0084924D01*
X0251983Y0085923D02*
X0288643Y0085923D01*
X0291150Y0085923D02*
X0292580Y0085923D01*
X0295087Y0085923D02*
X0296517Y0085923D01*
X0299024Y0085923D02*
X0325683Y0085923D01*
X0325683Y0085473D02*
X0326087Y0084499D01*
X0326832Y0083753D01*
X0327806Y0083350D01*
X0328860Y0083350D01*
X0329834Y0083753D01*
X0330580Y0084499D01*
X0330983Y0085473D01*
X0330983Y0086527D01*
X0330580Y0087501D01*
X0329834Y0088247D01*
X0328860Y0088650D01*
X0327806Y0088650D01*
X0326832Y0088247D01*
X0326087Y0087501D01*
X0325683Y0086527D01*
X0325683Y0085473D01*
X0325911Y0084924D02*
X0300023Y0084924D01*
X0300061Y0083926D02*
X0326660Y0083926D01*
X0330007Y0083926D02*
X0369034Y0083926D01*
X0369034Y0084924D02*
X0330756Y0084924D01*
X0330983Y0085923D02*
X0369034Y0085923D01*
X0369034Y0086921D02*
X0340002Y0086921D01*
X0339834Y0086753D02*
X0340580Y0087499D01*
X0340983Y0088473D01*
X0340983Y0089527D01*
X0340580Y0090501D01*
X0339834Y0091247D01*
X0338860Y0091650D01*
X0337806Y0091650D01*
X0336832Y0091247D01*
X0336087Y0090501D01*
X0335683Y0089527D01*
X0335683Y0088473D01*
X0336087Y0087499D01*
X0336832Y0086753D01*
X0337806Y0086350D01*
X0338860Y0086350D01*
X0339834Y0086753D01*
X0340754Y0087920D02*
X0369034Y0087920D01*
X0369034Y0088918D02*
X0340983Y0088918D01*
X0340822Y0089917D02*
X0369034Y0089917D01*
X0369034Y0090915D02*
X0340166Y0090915D01*
X0336501Y0090915D02*
X0219427Y0090915D01*
X0219834Y0090747D02*
X0218860Y0091150D01*
X0217806Y0091150D01*
X0216832Y0090747D01*
X0216087Y0090001D01*
X0215683Y0089027D01*
X0215683Y0087973D01*
X0216087Y0086999D01*
X0216832Y0086253D01*
X0217806Y0085850D01*
X0218860Y0085850D01*
X0219834Y0086253D01*
X0220438Y0086857D01*
X0220587Y0086499D01*
X0221332Y0085753D01*
X0222306Y0085350D01*
X0223360Y0085350D01*
X0224334Y0085753D01*
X0225080Y0086499D01*
X0225483Y0087473D01*
X0225483Y0088527D01*
X0225080Y0089501D01*
X0224334Y0090247D01*
X0223360Y0090650D01*
X0222306Y0090650D01*
X0221332Y0090247D01*
X0220728Y0089643D01*
X0220580Y0090001D01*
X0219834Y0090747D01*
X0220615Y0089917D02*
X0221002Y0089917D01*
X0224664Y0089917D02*
X0335845Y0089917D01*
X0335683Y0088918D02*
X0225321Y0088918D01*
X0225483Y0087920D02*
X0243750Y0087920D01*
X0242554Y0086921D02*
X0225255Y0086921D01*
X0224504Y0085923D02*
X0242183Y0085923D01*
X0242204Y0084924D02*
X0152483Y0084924D01*
X0152483Y0084473D02*
X0152483Y0085527D01*
X0152080Y0086501D01*
X0151334Y0087247D01*
X0150360Y0087650D01*
X0149306Y0087650D01*
X0148332Y0087247D01*
X0147587Y0086501D01*
X0147183Y0085527D01*
X0147183Y0084473D01*
X0147587Y0083499D01*
X0148332Y0082753D01*
X0149306Y0082350D01*
X0150360Y0082350D01*
X0151334Y0082753D01*
X0152080Y0083499D01*
X0152483Y0084473D01*
X0152257Y0083926D02*
X0242660Y0083926D01*
X0244120Y0082927D02*
X0151508Y0082927D01*
X0151860Y0080150D02*
X0150806Y0080150D01*
X0149832Y0079747D01*
X0149087Y0079001D01*
X0148683Y0078027D01*
X0148683Y0076973D01*
X0149087Y0075999D01*
X0149832Y0075253D01*
X0150806Y0074850D01*
X0151860Y0074850D01*
X0152834Y0075253D01*
X0153580Y0075999D01*
X0153983Y0076973D01*
X0153983Y0078027D01*
X0153580Y0079001D01*
X0152834Y0079747D01*
X0151860Y0080150D01*
X0152388Y0079932D02*
X0207058Y0079932D01*
X0206683Y0078933D02*
X0158884Y0078933D01*
X0159334Y0078747D02*
X0158360Y0079150D01*
X0157306Y0079150D01*
X0156332Y0078747D01*
X0155587Y0078001D01*
X0155183Y0077027D01*
X0155183Y0075973D01*
X0155587Y0074999D01*
X0156332Y0074253D01*
X0157306Y0073850D01*
X0158360Y0073850D01*
X0159334Y0074253D01*
X0160080Y0074999D01*
X0160483Y0075973D01*
X0160483Y0077027D01*
X0160080Y0078001D01*
X0159334Y0078747D01*
X0160107Y0077934D02*
X0206699Y0077934D01*
X0207150Y0076936D02*
X0180269Y0076936D01*
X0174705Y0076936D02*
X0160483Y0076936D01*
X0160469Y0075937D02*
X0172713Y0075937D01*
X0171714Y0074939D02*
X0160020Y0074939D01*
X0158579Y0073940D02*
X0170756Y0073940D01*
X0170343Y0072942D02*
X0147023Y0072942D01*
X0146834Y0072753D02*
X0147580Y0073499D01*
X0147983Y0074473D01*
X0147983Y0075527D01*
X0147580Y0076501D01*
X0146834Y0077247D01*
X0145860Y0077650D01*
X0144806Y0077650D01*
X0144083Y0077351D01*
X0143360Y0077650D01*
X0142306Y0077650D01*
X0141583Y0077351D01*
X0140860Y0077650D01*
X0139806Y0077650D01*
X0138832Y0077247D01*
X0138087Y0076501D01*
X0137683Y0075527D01*
X0137683Y0075150D01*
X0137306Y0075150D01*
X0136332Y0074747D01*
X0135587Y0074001D01*
X0135183Y0073027D01*
X0135183Y0071973D01*
X0135483Y0071250D01*
X0135183Y0070527D01*
X0135183Y0069473D01*
X0135587Y0068499D01*
X0136332Y0067753D01*
X0137306Y0067350D01*
X0138360Y0067350D01*
X0139083Y0067649D01*
X0139806Y0067350D01*
X0140860Y0067350D01*
X0141583Y0067649D01*
X0142306Y0067350D01*
X0143360Y0067350D01*
X0144334Y0067753D01*
X0145080Y0068499D01*
X0145483Y0069473D01*
X0145483Y0070527D01*
X0145184Y0071250D01*
X0145483Y0071973D01*
X0145483Y0072350D01*
X0145860Y0072350D01*
X0146834Y0072753D01*
X0147763Y0073940D02*
X0157088Y0073940D01*
X0155647Y0074939D02*
X0152075Y0074939D01*
X0150591Y0074939D02*
X0147983Y0074939D01*
X0147813Y0075937D02*
X0149148Y0075937D01*
X0148699Y0076936D02*
X0147145Y0076936D01*
X0148683Y0077934D02*
X0137260Y0077934D01*
X0137483Y0078933D02*
X0149059Y0078933D01*
X0150279Y0079932D02*
X0137316Y0079932D01*
X0136651Y0080930D02*
X0208275Y0080930D01*
X0215144Y0075937D02*
X0253648Y0075937D01*
X0257518Y0075937D02*
X0287606Y0075937D01*
X0287606Y0076936D02*
X0258114Y0076936D01*
X0264833Y0082500D02*
X0265833Y0062500D01*
X0267333Y0061000D01*
X0267333Y0043000D01*
X0268833Y0041500D01*
X0265084Y0039991D02*
X0353001Y0039991D01*
X0353820Y0038993D02*
X0265483Y0038993D01*
X0265483Y0037994D02*
X0354818Y0037994D01*
X0356239Y0036996D02*
X0265077Y0036996D01*
X0251575Y0040990D02*
X0243571Y0040990D01*
X0240096Y0040990D02*
X0220248Y0040990D01*
X0221584Y0039991D02*
X0250876Y0039991D01*
X0218419Y0040990D02*
X0145591Y0040990D01*
X0146291Y0039991D02*
X0217083Y0039991D01*
X0216683Y0038993D02*
X0146483Y0038993D01*
X0146285Y0037994D02*
X0216683Y0037994D01*
X0217090Y0036996D02*
X0145577Y0036996D01*
X0142090Y0036996D02*
X0099928Y0036996D01*
X0091739Y0036996D02*
X0086833Y0036996D01*
X0086833Y0037994D02*
X0090318Y0037994D01*
X0089320Y0038993D02*
X0086833Y0038993D01*
X0086833Y0039991D02*
X0088501Y0039991D01*
X0088087Y0040990D02*
X0086833Y0040990D01*
X0086833Y0041988D02*
X0087673Y0041988D01*
X0087333Y0042987D02*
X0086833Y0042987D01*
X0086833Y0043985D02*
X0087333Y0043985D01*
X0087333Y0044984D02*
X0086833Y0044984D01*
X0086833Y0045982D02*
X0087333Y0045982D01*
X0087661Y0046981D02*
X0086833Y0046981D01*
X0086833Y0047979D02*
X0088074Y0047979D01*
X0088488Y0048978D02*
X0086833Y0048978D01*
X0086833Y0049976D02*
X0089289Y0049976D01*
X0090287Y0050975D02*
X0086833Y0050975D01*
X0086833Y0051973D02*
X0091664Y0051973D01*
X0094074Y0052972D02*
X0086833Y0052972D01*
X0110833Y0059000D02*
X0131583Y0079750D01*
X0131583Y0080750D01*
X0132833Y0082000D01*
X0127334Y0084753D02*
X0126360Y0084350D01*
X0125306Y0084350D01*
X0124332Y0084753D01*
X0123587Y0085499D01*
X0123183Y0086473D01*
X0123183Y0087527D01*
X0123587Y0088501D01*
X0124332Y0089247D01*
X0125306Y0089650D01*
X0126360Y0089650D01*
X0127334Y0089247D01*
X0128080Y0088501D01*
X0128483Y0087527D01*
X0128483Y0086473D01*
X0128080Y0085499D01*
X0127334Y0084753D01*
X0127505Y0084924D02*
X0147183Y0084924D01*
X0147347Y0085923D02*
X0128255Y0085923D01*
X0128483Y0086921D02*
X0148007Y0086921D01*
X0145833Y0086500D02*
X0153333Y0094000D01*
X0153333Y0101500D01*
X0150833Y0104000D01*
X0144269Y0100145D02*
X0142689Y0100800D01*
X0140978Y0100800D01*
X0139398Y0100145D01*
X0138188Y0098936D01*
X0137533Y0097355D01*
X0137533Y0095645D01*
X0138188Y0094064D01*
X0139398Y0092855D01*
X0140978Y0092200D01*
X0142689Y0092200D01*
X0144269Y0092855D01*
X0145479Y0094064D01*
X0146133Y0095645D01*
X0146133Y0097355D01*
X0145479Y0098936D01*
X0144269Y0100145D01*
X0144513Y0099902D02*
X0221815Y0099902D01*
X0221747Y0099874D02*
X0220960Y0099086D01*
X0220533Y0098057D01*
X0220533Y0096943D01*
X0220960Y0095914D01*
X0221747Y0095126D01*
X0222776Y0094700D01*
X0223890Y0094700D01*
X0224919Y0095126D01*
X0225707Y0095914D01*
X0225833Y0096219D01*
X0225960Y0095914D01*
X0226747Y0095126D01*
X0227776Y0094700D01*
X0228890Y0094700D01*
X0229919Y0095126D01*
X0230707Y0095914D01*
X0230833Y0096219D01*
X0230960Y0095914D01*
X0231747Y0095126D01*
X0232776Y0094700D01*
X0233890Y0094700D01*
X0234919Y0095126D01*
X0235707Y0095914D01*
X0235833Y0096219D01*
X0235960Y0095914D01*
X0236747Y0095126D01*
X0237776Y0094700D01*
X0238890Y0094700D01*
X0239919Y0095126D01*
X0240707Y0095914D01*
X0241133Y0096943D01*
X0241133Y0098057D01*
X0240707Y0099086D01*
X0239919Y0099874D01*
X0239615Y0100000D01*
X0239919Y0100126D01*
X0240707Y0100914D01*
X0240833Y0101219D01*
X0240960Y0100914D01*
X0241747Y0100126D01*
X0242776Y0099700D01*
X0243890Y0099700D01*
X0244919Y0100126D01*
X0245707Y0100914D01*
X0246133Y0101943D01*
X0246133Y0103057D01*
X0245707Y0104086D01*
X0244919Y0104874D01*
X0243890Y0105300D01*
X0242776Y0105300D01*
X0241747Y0104874D01*
X0240960Y0104086D01*
X0240833Y0103781D01*
X0240707Y0104086D01*
X0239919Y0104874D01*
X0238890Y0105300D01*
X0237776Y0105300D01*
X0236747Y0104874D01*
X0235960Y0104086D01*
X0235833Y0103781D01*
X0235707Y0104086D01*
X0234919Y0104874D01*
X0233890Y0105300D01*
X0232776Y0105300D01*
X0231747Y0104874D01*
X0230960Y0104086D01*
X0230833Y0103781D01*
X0230707Y0104086D01*
X0229919Y0104874D01*
X0228890Y0105300D01*
X0227776Y0105300D01*
X0226747Y0104874D01*
X0225960Y0104086D01*
X0225833Y0103781D01*
X0225707Y0104086D01*
X0224919Y0104874D01*
X0223890Y0105300D01*
X0222776Y0105300D01*
X0221747Y0104874D01*
X0220960Y0104086D01*
X0220533Y0103057D01*
X0220533Y0101943D01*
X0220960Y0100914D01*
X0221747Y0100126D01*
X0222052Y0100000D01*
X0221747Y0099874D01*
X0220973Y0100900D02*
X0104333Y0100900D01*
X0104333Y0099902D02*
X0129154Y0099902D01*
X0129398Y0100145D02*
X0128188Y0098936D01*
X0127533Y0097355D01*
X0127533Y0095645D01*
X0128188Y0094064D01*
X0129398Y0092855D01*
X0130978Y0092200D01*
X0132689Y0092200D01*
X0134269Y0092855D01*
X0135479Y0094064D01*
X0136133Y0095645D01*
X0136133Y0097355D01*
X0135479Y0098936D01*
X0134269Y0100145D01*
X0132689Y0100800D01*
X0130978Y0100800D01*
X0129398Y0100145D01*
X0128175Y0098903D02*
X0104333Y0098903D01*
X0104333Y0098809D02*
X0103039Y0095685D01*
X0100648Y0093294D01*
X0097524Y0092000D01*
X0094143Y0092000D01*
X0091018Y0093294D01*
X0088627Y0095685D01*
X0087333Y0098809D01*
X0087333Y0102191D01*
X0088627Y0105315D01*
X0091018Y0107706D01*
X0094143Y0109000D01*
X0097524Y0109000D01*
X0100648Y0107706D01*
X0103039Y0105315D01*
X0104333Y0102191D01*
X0104333Y0098809D01*
X0103959Y0097905D02*
X0127761Y0097905D01*
X0127533Y0096906D02*
X0103545Y0096906D01*
X0103131Y0095908D02*
X0127533Y0095908D01*
X0127838Y0094909D02*
X0102263Y0094909D01*
X0101265Y0093911D02*
X0128342Y0093911D01*
X0129340Y0092912D02*
X0112669Y0092912D01*
X0112334Y0093247D02*
X0111360Y0093650D01*
X0110306Y0093650D01*
X0109332Y0093247D01*
X0108587Y0092501D01*
X0108183Y0091527D01*
X0108183Y0090473D01*
X0108587Y0089499D01*
X0109332Y0088753D01*
X0110306Y0088350D01*
X0111360Y0088350D01*
X0112334Y0088753D01*
X0113080Y0089499D01*
X0113483Y0090473D01*
X0113483Y0091527D01*
X0113080Y0092501D01*
X0112334Y0093247D01*
X0113323Y0091914D02*
X0156683Y0091914D01*
X0156683Y0092027D02*
X0156683Y0090973D01*
X0157087Y0089999D01*
X0157832Y0089253D01*
X0158806Y0088850D01*
X0159860Y0088850D01*
X0160834Y0089253D01*
X0161580Y0089999D01*
X0161983Y0090973D01*
X0161983Y0092027D01*
X0161580Y0093001D01*
X0160834Y0093747D01*
X0159860Y0094150D01*
X0158806Y0094150D01*
X0157832Y0093747D01*
X0157087Y0093001D01*
X0156683Y0092027D01*
X0157050Y0092912D02*
X0144327Y0092912D01*
X0145325Y0093911D02*
X0158228Y0093911D01*
X0160438Y0093911D02*
X0164175Y0093911D01*
X0164087Y0093999D02*
X0164832Y0093253D01*
X0165806Y0092850D01*
X0166860Y0092850D01*
X0167834Y0093253D01*
X0168580Y0093999D01*
X0168983Y0094973D01*
X0168983Y0096027D01*
X0168580Y0097001D01*
X0167834Y0097747D01*
X0166860Y0098150D01*
X0165806Y0098150D01*
X0164832Y0097747D01*
X0164087Y0097001D01*
X0163683Y0096027D01*
X0163683Y0094973D01*
X0164087Y0093999D01*
X0163710Y0094909D02*
X0145829Y0094909D01*
X0146133Y0095908D02*
X0163683Y0095908D01*
X0164047Y0096906D02*
X0146133Y0096906D01*
X0145906Y0097905D02*
X0165214Y0097905D01*
X0167453Y0097905D02*
X0176047Y0097905D01*
X0176087Y0098001D02*
X0175683Y0097027D01*
X0175683Y0095973D01*
X0176087Y0094999D01*
X0176832Y0094253D01*
X0177806Y0093850D01*
X0178860Y0093850D01*
X0179834Y0094253D01*
X0180580Y0094999D01*
X0180983Y0095973D01*
X0180983Y0097027D01*
X0180580Y0098001D01*
X0179834Y0098747D01*
X0178860Y0099150D01*
X0177806Y0099150D01*
X0176832Y0098747D01*
X0176087Y0098001D01*
X0175683Y0096906D02*
X0168619Y0096906D01*
X0168983Y0095908D02*
X0175710Y0095908D01*
X0176176Y0094909D02*
X0168957Y0094909D01*
X0168492Y0093911D02*
X0177660Y0093911D01*
X0179007Y0093911D02*
X0185683Y0093911D01*
X0185683Y0093473D02*
X0186087Y0092499D01*
X0186832Y0091753D01*
X0187806Y0091350D01*
X0188860Y0091350D01*
X0189834Y0091753D01*
X0190580Y0092499D01*
X0190983Y0093473D01*
X0190983Y0094527D01*
X0190580Y0095501D01*
X0189834Y0096247D01*
X0188860Y0096650D01*
X0187806Y0096650D01*
X0186832Y0096247D01*
X0186087Y0095501D01*
X0185683Y0094527D01*
X0185683Y0093473D01*
X0185916Y0092912D02*
X0167011Y0092912D01*
X0165656Y0092912D02*
X0161617Y0092912D01*
X0161983Y0091914D02*
X0186672Y0091914D01*
X0189995Y0091914D02*
X0193683Y0091914D01*
X0193683Y0092027D02*
X0193683Y0090973D01*
X0194087Y0089999D01*
X0194832Y0089253D01*
X0195806Y0088850D01*
X0196860Y0088850D01*
X0197834Y0089253D01*
X0198580Y0089999D01*
X0198983Y0090973D01*
X0198983Y0092027D01*
X0198580Y0093001D01*
X0197834Y0093747D01*
X0196860Y0094150D01*
X0195806Y0094150D01*
X0194832Y0093747D01*
X0194087Y0093001D01*
X0193683Y0092027D01*
X0194050Y0092912D02*
X0190751Y0092912D01*
X0190983Y0093911D02*
X0195228Y0093911D01*
X0197438Y0093911D02*
X0200496Y0093911D01*
X0200832Y0094247D02*
X0200087Y0093501D01*
X0199683Y0092527D01*
X0199683Y0091473D01*
X0200087Y0090499D01*
X0200832Y0089753D01*
X0201806Y0089350D01*
X0202860Y0089350D01*
X0203834Y0089753D01*
X0204580Y0090499D01*
X0204983Y0091473D01*
X0204983Y0092527D01*
X0204580Y0093501D01*
X0203834Y0094247D01*
X0202860Y0094650D01*
X0201806Y0094650D01*
X0200832Y0094247D01*
X0199843Y0092912D02*
X0198617Y0092912D01*
X0198983Y0091914D02*
X0199683Y0091914D01*
X0199914Y0090915D02*
X0198959Y0090915D01*
X0198498Y0089917D02*
X0200669Y0089917D01*
X0203998Y0089917D02*
X0216052Y0089917D01*
X0215683Y0088918D02*
X0197025Y0088918D01*
X0195642Y0088918D02*
X0160025Y0088918D01*
X0158642Y0088918D02*
X0127663Y0088918D01*
X0128321Y0087920D02*
X0215705Y0087920D01*
X0216165Y0086921D02*
X0151660Y0086921D01*
X0152320Y0085923D02*
X0217631Y0085923D01*
X0219036Y0085923D02*
X0221163Y0085923D01*
X0217239Y0090915D02*
X0204752Y0090915D01*
X0204983Y0091914D02*
X0369034Y0091914D01*
X0369034Y0092912D02*
X0364226Y0092912D01*
X0365148Y0093294D02*
X0367539Y0095685D01*
X0368833Y0098809D01*
X0368833Y0102191D01*
X0367539Y0105315D01*
X0365148Y0107706D01*
X0362024Y0109000D01*
X0358643Y0109000D01*
X0355518Y0107706D01*
X0353127Y0105315D01*
X0351833Y0102191D01*
X0351833Y0098809D01*
X0353127Y0095685D01*
X0355518Y0093294D01*
X0358643Y0092000D01*
X0362024Y0092000D01*
X0365148Y0093294D01*
X0365765Y0093911D02*
X0369034Y0093911D01*
X0369034Y0094909D02*
X0366763Y0094909D01*
X0367631Y0095908D02*
X0369034Y0095908D01*
X0369034Y0096906D02*
X0368045Y0096906D01*
X0368459Y0097905D02*
X0369034Y0097905D01*
X0369034Y0098903D02*
X0368833Y0098903D01*
X0368833Y0099902D02*
X0369034Y0099902D01*
X0369034Y0100900D02*
X0368833Y0100900D01*
X0368833Y0101899D02*
X0369034Y0101899D01*
X0369034Y0102897D02*
X0368541Y0102897D01*
X0368127Y0103896D02*
X0369034Y0103896D01*
X0369034Y0104894D02*
X0367713Y0104894D01*
X0366961Y0105893D02*
X0369034Y0105893D01*
X0369034Y0106891D02*
X0365963Y0106891D01*
X0364704Y0107890D02*
X0369034Y0107890D01*
X0369034Y0108888D02*
X0362294Y0108888D01*
X0358373Y0108888D02*
X0097794Y0108888D01*
X0100204Y0107890D02*
X0304678Y0107890D01*
X0304332Y0107747D02*
X0303587Y0107001D01*
X0303183Y0106027D01*
X0303183Y0104973D01*
X0303587Y0103999D01*
X0304332Y0103253D01*
X0305306Y0102850D01*
X0306360Y0102850D01*
X0307334Y0103253D01*
X0308080Y0103999D01*
X0308483Y0104973D01*
X0308483Y0106027D01*
X0308080Y0107001D01*
X0307334Y0107747D01*
X0306360Y0108150D01*
X0305306Y0108150D01*
X0304332Y0107747D01*
X0303541Y0106891D02*
X0101463Y0106891D01*
X0102461Y0105893D02*
X0116478Y0105893D01*
X0116832Y0106247D02*
X0116087Y0105501D01*
X0115683Y0104527D01*
X0115683Y0103473D01*
X0116087Y0102499D01*
X0116832Y0101753D01*
X0117806Y0101350D01*
X0118860Y0101350D01*
X0119834Y0101753D01*
X0120580Y0102499D01*
X0120983Y0103473D01*
X0120983Y0104527D01*
X0120580Y0105501D01*
X0119834Y0106247D01*
X0118860Y0106650D01*
X0117806Y0106650D01*
X0116832Y0106247D01*
X0115835Y0104894D02*
X0103213Y0104894D01*
X0103627Y0103896D02*
X0115683Y0103896D01*
X0115922Y0102897D02*
X0104041Y0102897D01*
X0104333Y0101899D02*
X0116687Y0101899D01*
X0119980Y0101899D02*
X0220552Y0101899D01*
X0220533Y0102897D02*
X0120745Y0102897D01*
X0120983Y0103896D02*
X0220881Y0103896D01*
X0221797Y0104894D02*
X0120831Y0104894D01*
X0120188Y0105893D02*
X0248478Y0105893D01*
X0248832Y0106247D02*
X0248087Y0105501D01*
X0247683Y0104527D01*
X0247683Y0103473D01*
X0248087Y0102499D01*
X0248832Y0101753D01*
X0249806Y0101350D01*
X0250860Y0101350D01*
X0251834Y0101753D01*
X0252580Y0102499D01*
X0252983Y0103473D01*
X0252983Y0104527D01*
X0252580Y0105501D01*
X0251834Y0106247D01*
X0250860Y0106650D01*
X0249806Y0106650D01*
X0248832Y0106247D01*
X0247835Y0104894D02*
X0244870Y0104894D01*
X0245786Y0103896D02*
X0247683Y0103896D01*
X0247922Y0102897D02*
X0246133Y0102897D01*
X0246115Y0101899D02*
X0248687Y0101899D01*
X0245693Y0100900D02*
X0272486Y0100900D01*
X0272832Y0101247D02*
X0272087Y0100501D01*
X0271683Y0099527D01*
X0271683Y0098473D01*
X0272087Y0097499D01*
X0272832Y0096753D01*
X0273806Y0096350D01*
X0274860Y0096350D01*
X0275834Y0096753D01*
X0276580Y0097499D01*
X0276983Y0098473D01*
X0276983Y0099527D01*
X0276580Y0100501D01*
X0275834Y0101247D01*
X0274860Y0101650D01*
X0273806Y0101650D01*
X0272832Y0101247D01*
X0271839Y0099902D02*
X0244377Y0099902D01*
X0244105Y0099364D02*
X0243597Y0099500D01*
X0243333Y0099500D01*
X0243070Y0099500D01*
X0242561Y0099364D01*
X0242105Y0099100D01*
X0241733Y0098728D01*
X0241470Y0098272D01*
X0241333Y0097763D01*
X0241333Y0097500D01*
X0241333Y0097237D01*
X0241470Y0096728D01*
X0241733Y0096272D01*
X0242105Y0095900D01*
X0242561Y0095636D01*
X0243070Y0095500D01*
X0243333Y0095500D01*
X0243333Y0097500D01*
X0243333Y0097500D01*
X0241333Y0097500D01*
X0243333Y0097500D01*
X0243333Y0097500D01*
X0243333Y0099500D01*
X0243333Y0097500D01*
X0243333Y0097500D01*
X0243333Y0094000D01*
X0243833Y0093500D01*
X0243597Y0095500D02*
X0244105Y0095636D01*
X0244561Y0095900D01*
X0244934Y0096272D01*
X0245197Y0096728D01*
X0245333Y0097237D01*
X0245333Y0097500D01*
X0245333Y0097763D01*
X0245197Y0098272D01*
X0244934Y0098728D01*
X0244561Y0099100D01*
X0244105Y0099364D01*
X0244759Y0098903D02*
X0271683Y0098903D01*
X0271919Y0097905D02*
X0245295Y0097905D01*
X0245333Y0097500D02*
X0243333Y0097500D01*
X0243333Y0095500D01*
X0243597Y0095500D01*
X0243333Y0095908D02*
X0243333Y0095908D01*
X0243333Y0096906D02*
X0243333Y0096906D01*
X0243333Y0097500D02*
X0243333Y0097500D01*
X0245333Y0097500D01*
X0245245Y0096906D02*
X0272679Y0096906D01*
X0275987Y0096906D02*
X0352622Y0096906D01*
X0353035Y0095908D02*
X0244569Y0095908D01*
X0243333Y0097905D02*
X0243333Y0097905D01*
X0243333Y0098903D02*
X0243333Y0098903D01*
X0241908Y0098903D02*
X0240783Y0098903D01*
X0241133Y0097905D02*
X0241371Y0097905D01*
X0241422Y0096906D02*
X0241118Y0096906D01*
X0240701Y0095908D02*
X0242097Y0095908D01*
X0239395Y0094909D02*
X0353903Y0094909D01*
X0354902Y0093911D02*
X0204170Y0093911D01*
X0204824Y0092912D02*
X0356440Y0092912D01*
X0352208Y0097905D02*
X0276748Y0097905D01*
X0276983Y0098903D02*
X0351833Y0098903D01*
X0351833Y0099902D02*
X0285985Y0099902D01*
X0285860Y0099850D02*
X0286834Y0100253D01*
X0287580Y0100999D01*
X0287983Y0101973D01*
X0287983Y0103027D01*
X0287580Y0104001D01*
X0286834Y0104747D01*
X0285860Y0105150D01*
X0284806Y0105150D01*
X0283832Y0104747D01*
X0283087Y0104001D01*
X0282683Y0103027D01*
X0282683Y0101973D01*
X0283087Y0100999D01*
X0283832Y0100253D01*
X0284806Y0099850D01*
X0285860Y0099850D01*
X0284681Y0099902D02*
X0276828Y0099902D01*
X0276181Y0100900D02*
X0283185Y0100900D01*
X0282714Y0101899D02*
X0251980Y0101899D01*
X0252745Y0102897D02*
X0282683Y0102897D01*
X0283043Y0103896D02*
X0252983Y0103896D01*
X0252831Y0104894D02*
X0284189Y0104894D01*
X0286478Y0104894D02*
X0303216Y0104894D01*
X0303183Y0105893D02*
X0252188Y0105893D01*
X0241797Y0104894D02*
X0239870Y0104894D01*
X0240786Y0103896D02*
X0240881Y0103896D01*
X0236797Y0104894D02*
X0234870Y0104894D01*
X0235786Y0103896D02*
X0235881Y0103896D01*
X0231797Y0104894D02*
X0229870Y0104894D01*
X0230786Y0103896D02*
X0230881Y0103896D01*
X0226797Y0104894D02*
X0224870Y0104894D01*
X0225786Y0103896D02*
X0225881Y0103896D01*
X0220884Y0098903D02*
X0179456Y0098903D01*
X0180620Y0097905D02*
X0220533Y0097905D01*
X0220549Y0096906D02*
X0180983Y0096906D01*
X0180956Y0095908D02*
X0186493Y0095908D01*
X0185842Y0094909D02*
X0180490Y0094909D01*
X0177210Y0098903D02*
X0145492Y0098903D01*
X0139154Y0099902D02*
X0134513Y0099902D01*
X0135492Y0098903D02*
X0138175Y0098903D01*
X0137761Y0097905D02*
X0135906Y0097905D01*
X0136133Y0096906D02*
X0137533Y0096906D01*
X0137533Y0095908D02*
X0136133Y0095908D01*
X0135829Y0094909D02*
X0137838Y0094909D01*
X0138342Y0093911D02*
X0135325Y0093911D01*
X0134327Y0092912D02*
X0139340Y0092912D01*
X0144333Y0086500D02*
X0145833Y0086500D01*
X0147410Y0083926D02*
X0114818Y0083926D01*
X0114983Y0082927D02*
X0148159Y0082927D01*
X0153608Y0078933D02*
X0156782Y0078933D01*
X0155559Y0077934D02*
X0153983Y0077934D01*
X0153968Y0076936D02*
X0155183Y0076936D01*
X0155198Y0075937D02*
X0153518Y0075937D01*
X0156832Y0071247D02*
X0156087Y0070501D01*
X0155683Y0069527D01*
X0155683Y0068473D01*
X0156087Y0067499D01*
X0156832Y0066753D01*
X0157806Y0066350D01*
X0158860Y0066350D01*
X0159834Y0066753D01*
X0160580Y0067499D01*
X0160983Y0068473D01*
X0160983Y0069527D01*
X0160580Y0070501D01*
X0159834Y0071247D01*
X0158860Y0071650D01*
X0157806Y0071650D01*
X0156832Y0071247D01*
X0156531Y0070945D02*
X0145310Y0070945D01*
X0145471Y0071943D02*
X0169929Y0071943D01*
X0169581Y0070945D02*
X0160136Y0070945D01*
X0160810Y0069946D02*
X0169581Y0069946D01*
X0169581Y0068948D02*
X0160983Y0068948D01*
X0160766Y0067949D02*
X0169585Y0067949D01*
X0169999Y0066951D02*
X0160032Y0066951D01*
X0156635Y0066951D02*
X0086833Y0066951D01*
X0086833Y0067949D02*
X0136136Y0067949D01*
X0135401Y0068948D02*
X0093097Y0068948D01*
X0092860Y0068850D02*
X0093834Y0069253D01*
X0094580Y0069999D01*
X0094983Y0070973D01*
X0094983Y0072027D01*
X0094580Y0073001D01*
X0093834Y0073747D01*
X0092860Y0074150D01*
X0091806Y0074150D01*
X0090832Y0073747D01*
X0090087Y0073001D01*
X0089683Y0072027D01*
X0089683Y0070973D01*
X0090087Y0069999D01*
X0090832Y0069253D01*
X0091806Y0068850D01*
X0092860Y0068850D01*
X0091570Y0068948D02*
X0086833Y0068948D01*
X0086833Y0069946D02*
X0090139Y0069946D01*
X0089695Y0070945D02*
X0086833Y0070945D01*
X0086833Y0071943D02*
X0089683Y0071943D01*
X0090062Y0072942D02*
X0086833Y0072942D01*
X0086833Y0073940D02*
X0091300Y0073940D01*
X0093366Y0073940D02*
X0127062Y0073940D01*
X0127087Y0074001D02*
X0126683Y0073027D01*
X0126683Y0071973D01*
X0127087Y0070999D01*
X0127832Y0070253D01*
X0128806Y0069850D01*
X0129860Y0069850D01*
X0130834Y0070253D01*
X0131580Y0070999D01*
X0131983Y0071973D01*
X0131983Y0073027D01*
X0131580Y0074001D01*
X0130834Y0074747D01*
X0129860Y0075150D01*
X0128806Y0075150D01*
X0127832Y0074747D01*
X0127087Y0074001D01*
X0126683Y0072942D02*
X0094604Y0072942D01*
X0094983Y0071943D02*
X0126696Y0071943D01*
X0127141Y0070945D02*
X0094972Y0070945D01*
X0094527Y0069946D02*
X0128573Y0069946D01*
X0130093Y0069946D02*
X0135183Y0069946D01*
X0135356Y0070945D02*
X0131526Y0070945D01*
X0131971Y0071943D02*
X0135196Y0071943D01*
X0135183Y0072942D02*
X0131983Y0072942D01*
X0131605Y0073940D02*
X0135562Y0073940D01*
X0136797Y0074939D02*
X0130370Y0074939D01*
X0128297Y0074939D02*
X0086833Y0074939D01*
X0086833Y0075937D02*
X0137853Y0075937D01*
X0138522Y0076936D02*
X0136517Y0076936D01*
X0133150Y0076936D02*
X0086833Y0076936D01*
X0086833Y0077934D02*
X0101151Y0077934D01*
X0100407Y0078933D02*
X0086833Y0078933D01*
X0086833Y0079932D02*
X0100183Y0079932D01*
X0100350Y0080930D02*
X0086833Y0080930D01*
X0086833Y0081929D02*
X0101014Y0081929D01*
X0108513Y0082927D02*
X0086833Y0082927D01*
X0086833Y0083926D02*
X0109848Y0083926D01*
X0110510Y0084924D02*
X0086833Y0084924D01*
X0086833Y0085923D02*
X0123411Y0085923D01*
X0123183Y0086921D02*
X0086833Y0086921D01*
X0086833Y0087920D02*
X0123346Y0087920D01*
X0124004Y0088918D02*
X0112499Y0088918D01*
X0113253Y0089917D02*
X0157169Y0089917D01*
X0156707Y0090915D02*
X0113483Y0090915D01*
X0109168Y0088918D02*
X0086833Y0088918D01*
X0086833Y0089917D02*
X0108414Y0089917D01*
X0108183Y0090915D02*
X0086833Y0090915D01*
X0086833Y0091914D02*
X0108343Y0091914D01*
X0108998Y0092912D02*
X0099726Y0092912D01*
X0091940Y0092912D02*
X0086833Y0092912D01*
X0086833Y0093911D02*
X0090402Y0093911D01*
X0089403Y0094909D02*
X0086833Y0094909D01*
X0086833Y0095908D02*
X0088535Y0095908D01*
X0088122Y0096906D02*
X0086833Y0096906D01*
X0086833Y0097905D02*
X0087708Y0097905D01*
X0087333Y0098903D02*
X0086833Y0098903D01*
X0086833Y0099902D02*
X0087333Y0099902D01*
X0087333Y0100900D02*
X0086833Y0100900D01*
X0086833Y0101899D02*
X0087333Y0101899D01*
X0087626Y0102897D02*
X0086833Y0102897D01*
X0086833Y0103896D02*
X0088040Y0103896D01*
X0088453Y0104894D02*
X0086833Y0104894D01*
X0086833Y0105893D02*
X0089205Y0105893D01*
X0090204Y0106891D02*
X0086833Y0106891D01*
X0086833Y0107890D02*
X0091462Y0107890D01*
X0093873Y0108888D02*
X0086833Y0108888D01*
X0114157Y0084924D02*
X0124162Y0084924D01*
X0132351Y0079932D02*
X0112759Y0079932D01*
X0112014Y0078933D02*
X0132183Y0078933D01*
X0132406Y0077934D02*
X0109515Y0077934D01*
X0144530Y0067949D02*
X0155900Y0067949D01*
X0155683Y0068948D02*
X0145266Y0068948D01*
X0145483Y0069946D02*
X0155857Y0069946D01*
X0159509Y0051973D02*
X0144441Y0051973D01*
X0145440Y0050975D02*
X0159883Y0050975D01*
X0158576Y0049976D02*
X0145876Y0049976D01*
X0146133Y0048978D02*
X0158183Y0048978D01*
X0158183Y0047979D02*
X0146133Y0047979D01*
X0145858Y0046981D02*
X0148066Y0046981D01*
X0147372Y0045982D02*
X0145397Y0045982D01*
X0144398Y0044984D02*
X0147183Y0044984D01*
X0151600Y0046981D02*
X0158605Y0046981D01*
X0163062Y0046981D02*
X0170105Y0046981D01*
X0169388Y0047979D02*
X0163483Y0047979D01*
X0163483Y0048978D02*
X0169183Y0048978D01*
X0169369Y0049976D02*
X0163090Y0049976D01*
X0218451Y0035997D02*
X0086833Y0035997D01*
X0204866Y0073940D02*
X0205800Y0073940D01*
X0231833Y0077500D02*
X0239333Y0086000D01*
X0245917Y0087920D02*
X0248250Y0087920D01*
X0250417Y0087920D02*
X0326505Y0087920D01*
X0325847Y0086921D02*
X0251613Y0086921D01*
X0247160Y0083926D02*
X0247007Y0083926D01*
X0248013Y0082927D02*
X0245546Y0082927D01*
X0264833Y0082500D02*
X0266333Y0086000D01*
X0278833Y0081000D01*
X0293833Y0066000D01*
X0293833Y0064000D01*
X0305333Y0064000D01*
X0317333Y0064500D01*
X0323833Y0060500D01*
X0325806Y0068850D02*
X0326860Y0068850D01*
X0327834Y0069253D01*
X0328580Y0069999D01*
X0328983Y0070973D01*
X0328983Y0072027D01*
X0328580Y0073001D01*
X0327834Y0073747D01*
X0326860Y0074150D01*
X0325806Y0074150D01*
X0324832Y0073747D01*
X0324087Y0073001D01*
X0323683Y0072027D01*
X0323683Y0070973D01*
X0324087Y0069999D01*
X0324832Y0069253D01*
X0325806Y0068850D01*
X0325570Y0068948D02*
X0311055Y0068948D01*
X0311468Y0069946D02*
X0324139Y0069946D01*
X0323695Y0070945D02*
X0311550Y0070945D01*
X0311393Y0071943D02*
X0323683Y0071943D01*
X0324062Y0072942D02*
X0310943Y0072942D01*
X0309866Y0073940D02*
X0325300Y0073940D01*
X0327366Y0073940D02*
X0369034Y0073940D01*
X0369034Y0072942D02*
X0328604Y0072942D01*
X0328983Y0071943D02*
X0369034Y0071943D01*
X0369034Y0070945D02*
X0328972Y0070945D01*
X0328527Y0069946D02*
X0369034Y0069946D01*
X0369034Y0068948D02*
X0327097Y0068948D01*
X0310126Y0067949D02*
X0369034Y0067949D01*
X0369034Y0066951D02*
X0289308Y0066951D01*
X0289483Y0065952D02*
X0369034Y0065952D01*
X0369034Y0064954D02*
X0289268Y0064954D01*
X0288536Y0063955D02*
X0369034Y0063955D01*
X0369034Y0074939D02*
X0299886Y0074939D01*
X0300061Y0075937D02*
X0369034Y0075937D01*
X0369034Y0076936D02*
X0300061Y0076936D01*
X0299138Y0077934D02*
X0369034Y0077934D01*
X0369034Y0078933D02*
X0299943Y0078933D01*
X0300061Y0079932D02*
X0369034Y0079932D01*
X0369034Y0080930D02*
X0300061Y0080930D01*
X0299081Y0081929D02*
X0369034Y0081929D01*
X0369034Y0082927D02*
X0300000Y0082927D01*
X0279833Y0082000D02*
X0278833Y0081000D01*
X0279833Y0082000D02*
X0279833Y0090000D01*
X0285333Y0095500D01*
X0296833Y0095500D01*
X0317833Y0095500D01*
X0318833Y0096000D01*
X0306475Y0102897D02*
X0352126Y0102897D01*
X0351833Y0101899D02*
X0287953Y0101899D01*
X0287983Y0102897D02*
X0305192Y0102897D01*
X0303690Y0103896D02*
X0287624Y0103896D01*
X0287481Y0100900D02*
X0351833Y0100900D01*
X0352540Y0103896D02*
X0307977Y0103896D01*
X0308451Y0104894D02*
X0352953Y0104894D01*
X0353705Y0105893D02*
X0308483Y0105893D01*
X0308125Y0106891D02*
X0354704Y0106891D01*
X0355962Y0107890D02*
X0306989Y0107890D01*
X0330161Y0087920D02*
X0335912Y0087920D01*
X0336665Y0086921D02*
X0330820Y0086921D01*
X0306084Y0073940D02*
X0298887Y0073940D01*
X0296654Y0073940D02*
X0294950Y0073940D01*
X0292717Y0073940D02*
X0291013Y0073940D01*
X0304557Y0071943D02*
X0272983Y0071943D01*
X0272812Y0072942D02*
X0305007Y0072942D01*
X0304400Y0070945D02*
X0272765Y0070945D01*
X0272027Y0069946D02*
X0304482Y0069946D01*
X0285130Y0063955D02*
X0284036Y0063955D01*
X0237271Y0094909D02*
X0234395Y0094909D01*
X0235701Y0095908D02*
X0235966Y0095908D01*
X0232271Y0094909D02*
X0229395Y0094909D01*
X0230701Y0095908D02*
X0230966Y0095908D01*
X0227271Y0094909D02*
X0224395Y0094909D01*
X0225701Y0095908D02*
X0225966Y0095908D01*
X0222271Y0094909D02*
X0190825Y0094909D01*
X0190173Y0095908D02*
X0220966Y0095908D01*
X0239852Y0099902D02*
X0242289Y0099902D01*
X0240973Y0100900D02*
X0240693Y0100900D01*
X0194169Y0089917D02*
X0161498Y0089917D01*
X0161959Y0090915D02*
X0193707Y0090915D01*
M02*
