G75*
%MOIN*%
%OFA0B0*%
%FSLAX25Y25*%
%IPPOS*%
%LPD*%
%AMOC8*
5,1,8,0,0,1.08239X$1,22.5*
%
%ADD10C,0.01700*%
%ADD11C,0.00500*%
%ADD12C,0.00100*%
%ADD13C,0.00300*%
%ADD14C,0.01000*%
%ADD15C,0.00800*%
%ADD16C,0.03200*%
%ADD17C,0.00600*%
%ADD18C,0.00200*%
%ADD19C,0.00400*%
%ADD20R,0.02800X0.01600*%
%ADD21C,0.01600*%
D10*
X0234759Y0059350D02*
X0241298Y0059350D01*
X0238029Y0059350D02*
X0238029Y0069158D01*
X0241298Y0065889D01*
X0253912Y0069158D02*
X0257182Y0065889D01*
X0253912Y0069158D02*
X0253912Y0059350D01*
X0250643Y0059350D02*
X0257182Y0059350D01*
X0261232Y0062619D02*
X0261232Y0069158D01*
X0267771Y0069158D02*
X0267771Y0062619D01*
X0264501Y0059350D01*
X0261232Y0062619D01*
X0246593Y0060985D02*
X0246593Y0059350D01*
X0244958Y0059350D01*
X0244958Y0060985D01*
X0246593Y0060985D01*
X0243063Y0076600D02*
X0243063Y0083139D01*
X0238159Y0083139D01*
X0236524Y0081504D01*
X0236524Y0076600D01*
X0248618Y0083139D02*
X0251887Y0079869D01*
X0251887Y0076600D02*
X0251887Y0083139D01*
X0248618Y0083139D02*
X0246983Y0083139D01*
X0255937Y0083139D02*
X0255937Y0076600D01*
X0260842Y0076600D01*
X0262476Y0078235D01*
X0262476Y0083139D01*
X0266527Y0081504D02*
X0268161Y0083139D01*
X0273065Y0083139D01*
X0276855Y0083139D02*
X0280125Y0083139D01*
X0278490Y0084774D02*
X0278490Y0078235D01*
X0276855Y0076600D01*
X0273065Y0076600D02*
X0268161Y0076600D01*
X0266527Y0078235D01*
X0266527Y0081504D01*
X0273065Y0086408D02*
X0273065Y0076600D01*
X0284175Y0078235D02*
X0285810Y0076600D01*
X0290714Y0076600D01*
X0294764Y0078235D02*
X0294764Y0081504D01*
X0296399Y0083139D01*
X0299668Y0083139D01*
X0301303Y0081504D01*
X0301303Y0078235D01*
X0299668Y0076600D01*
X0296399Y0076600D01*
X0294764Y0078235D01*
X0290714Y0081504D02*
X0289079Y0079869D01*
X0285810Y0079869D01*
X0284175Y0078235D01*
X0289079Y0083139D02*
X0290714Y0081504D01*
X0289079Y0083139D02*
X0284175Y0083139D01*
X0305223Y0083139D02*
X0306858Y0083139D01*
X0310127Y0079869D01*
X0317447Y0081504D02*
X0320716Y0081504D01*
X0310127Y0083139D02*
X0310127Y0076600D01*
X0320716Y0076600D02*
X0320716Y0086408D01*
X0314177Y0086408D01*
X0331305Y0086408D02*
X0331305Y0076600D01*
X0324766Y0076600D01*
X0335355Y0076600D02*
X0335355Y0081504D01*
X0336990Y0083139D01*
X0340260Y0083139D01*
X0345944Y0084774D02*
X0347579Y0086408D01*
X0350849Y0086408D01*
X0352483Y0084774D01*
X0352483Y0083139D01*
X0350849Y0081504D01*
X0347579Y0081504D01*
X0345944Y0079869D01*
X0345944Y0078235D01*
X0347579Y0076600D01*
X0350849Y0076600D01*
X0352483Y0078235D01*
X0341894Y0078235D02*
X0340260Y0076600D01*
X0335355Y0076600D01*
X0340260Y0079869D02*
X0341894Y0078235D01*
X0340260Y0079869D02*
X0335355Y0079869D01*
D11*
X0212329Y0102996D02*
X0212329Y0040004D01*
X0210361Y0040004D01*
X0204455Y0040004D02*
X0157211Y0040004D01*
X0151306Y0040004D02*
X0149337Y0040004D01*
X0149337Y0102996D01*
X0121739Y0103193D02*
X0121739Y0096413D01*
X0116818Y0096201D02*
X0114849Y0096201D01*
X0109928Y0096413D02*
X0109928Y0103193D01*
X0113865Y0103193D01*
X0117802Y0103193D02*
X0121739Y0103193D01*
X0119284Y0099106D02*
X0119286Y0099165D01*
X0119292Y0099223D01*
X0119302Y0099281D01*
X0119315Y0099338D01*
X0119333Y0099395D01*
X0119354Y0099450D01*
X0119379Y0099503D01*
X0119407Y0099554D01*
X0119438Y0099604D01*
X0119473Y0099651D01*
X0119511Y0099696D01*
X0119552Y0099739D01*
X0119596Y0099778D01*
X0119642Y0099814D01*
X0119690Y0099848D01*
X0119741Y0099878D01*
X0119794Y0099904D01*
X0119848Y0099927D01*
X0119903Y0099946D01*
X0119960Y0099962D01*
X0120018Y0099974D01*
X0120076Y0099982D01*
X0120135Y0099986D01*
X0120193Y0099986D01*
X0120252Y0099982D01*
X0120310Y0099974D01*
X0120368Y0099962D01*
X0120425Y0099946D01*
X0120480Y0099927D01*
X0120534Y0099904D01*
X0120587Y0099878D01*
X0120638Y0099848D01*
X0120686Y0099814D01*
X0120732Y0099778D01*
X0120776Y0099739D01*
X0120817Y0099696D01*
X0120855Y0099651D01*
X0120890Y0099604D01*
X0120921Y0099554D01*
X0120949Y0099503D01*
X0120974Y0099450D01*
X0120995Y0099395D01*
X0121013Y0099338D01*
X0121026Y0099281D01*
X0121036Y0099223D01*
X0121042Y0099165D01*
X0121044Y0099106D01*
X0121042Y0099047D01*
X0121036Y0098989D01*
X0121026Y0098931D01*
X0121013Y0098874D01*
X0120995Y0098817D01*
X0120974Y0098762D01*
X0120949Y0098709D01*
X0120921Y0098658D01*
X0120890Y0098608D01*
X0120855Y0098561D01*
X0120817Y0098516D01*
X0120776Y0098473D01*
X0120732Y0098434D01*
X0120686Y0098398D01*
X0120638Y0098364D01*
X0120587Y0098334D01*
X0120534Y0098308D01*
X0120480Y0098285D01*
X0120425Y0098266D01*
X0120368Y0098250D01*
X0120310Y0098238D01*
X0120252Y0098230D01*
X0120193Y0098226D01*
X0120135Y0098226D01*
X0120076Y0098230D01*
X0120018Y0098238D01*
X0119960Y0098250D01*
X0119903Y0098266D01*
X0119848Y0098285D01*
X0119794Y0098308D01*
X0119741Y0098334D01*
X0119690Y0098364D01*
X0119642Y0098398D01*
X0119596Y0098434D01*
X0119552Y0098473D01*
X0119511Y0098516D01*
X0119473Y0098561D01*
X0119438Y0098608D01*
X0119407Y0098658D01*
X0119379Y0098709D01*
X0119354Y0098762D01*
X0119333Y0098817D01*
X0119315Y0098874D01*
X0119302Y0098931D01*
X0119292Y0098989D01*
X0119286Y0099047D01*
X0119284Y0099106D01*
X0113664Y0049000D02*
X0113666Y0049112D01*
X0113672Y0049225D01*
X0113682Y0049337D01*
X0113696Y0049448D01*
X0113714Y0049560D01*
X0113736Y0049670D01*
X0113761Y0049779D01*
X0113791Y0049888D01*
X0113824Y0049995D01*
X0113862Y0050101D01*
X0113903Y0050206D01*
X0113947Y0050309D01*
X0113995Y0050411D01*
X0114047Y0050511D01*
X0114103Y0050609D01*
X0114162Y0050705D01*
X0114224Y0050798D01*
X0114289Y0050890D01*
X0114358Y0050979D01*
X0114430Y0051066D01*
X0114505Y0051150D01*
X0114582Y0051231D01*
X0114663Y0051309D01*
X0114746Y0051385D01*
X0114832Y0051457D01*
X0114921Y0051527D01*
X0115011Y0051593D01*
X0115105Y0051656D01*
X0115200Y0051716D01*
X0115297Y0051772D01*
X0115397Y0051825D01*
X0115498Y0051874D01*
X0115601Y0051920D01*
X0115705Y0051962D01*
X0115811Y0052000D01*
X0115918Y0052034D01*
X0116026Y0052065D01*
X0116136Y0052091D01*
X0116246Y0052114D01*
X0116357Y0052133D01*
X0116468Y0052148D01*
X0116580Y0052159D01*
X0116692Y0052166D01*
X0116805Y0052169D01*
X0116917Y0052168D01*
X0117030Y0052163D01*
X0117142Y0052154D01*
X0117254Y0052141D01*
X0117365Y0052124D01*
X0117475Y0052103D01*
X0117585Y0052078D01*
X0117694Y0052050D01*
X0117802Y0052017D01*
X0117908Y0051981D01*
X0118013Y0051941D01*
X0118117Y0051897D01*
X0118219Y0051850D01*
X0118319Y0051799D01*
X0118417Y0051744D01*
X0118514Y0051686D01*
X0118608Y0051625D01*
X0118700Y0051560D01*
X0118790Y0051493D01*
X0118877Y0051422D01*
X0118962Y0051347D01*
X0119044Y0051270D01*
X0119123Y0051191D01*
X0119199Y0051108D01*
X0119273Y0051023D01*
X0119343Y0050935D01*
X0119410Y0050844D01*
X0119474Y0050752D01*
X0119534Y0050657D01*
X0119591Y0050560D01*
X0119645Y0050461D01*
X0119695Y0050360D01*
X0119742Y0050258D01*
X0119784Y0050154D01*
X0119824Y0050049D01*
X0119859Y0049942D01*
X0119890Y0049834D01*
X0119918Y0049725D01*
X0119942Y0049615D01*
X0119962Y0049504D01*
X0119978Y0049393D01*
X0119990Y0049281D01*
X0119998Y0049169D01*
X0120002Y0049056D01*
X0120002Y0048944D01*
X0119998Y0048831D01*
X0119990Y0048719D01*
X0119978Y0048607D01*
X0119962Y0048496D01*
X0119942Y0048385D01*
X0119918Y0048275D01*
X0119890Y0048166D01*
X0119859Y0048058D01*
X0119824Y0047951D01*
X0119784Y0047846D01*
X0119742Y0047742D01*
X0119695Y0047640D01*
X0119645Y0047539D01*
X0119591Y0047440D01*
X0119534Y0047343D01*
X0119474Y0047248D01*
X0119410Y0047156D01*
X0119343Y0047065D01*
X0119273Y0046977D01*
X0119199Y0046892D01*
X0119123Y0046809D01*
X0119044Y0046730D01*
X0118962Y0046653D01*
X0118877Y0046578D01*
X0118790Y0046507D01*
X0118700Y0046440D01*
X0118608Y0046375D01*
X0118514Y0046314D01*
X0118418Y0046256D01*
X0118319Y0046201D01*
X0118219Y0046150D01*
X0118117Y0046103D01*
X0118013Y0046059D01*
X0117908Y0046019D01*
X0117802Y0045983D01*
X0117694Y0045950D01*
X0117585Y0045922D01*
X0117475Y0045897D01*
X0117365Y0045876D01*
X0117254Y0045859D01*
X0117142Y0045846D01*
X0117030Y0045837D01*
X0116917Y0045832D01*
X0116805Y0045831D01*
X0116692Y0045834D01*
X0116580Y0045841D01*
X0116468Y0045852D01*
X0116357Y0045867D01*
X0116246Y0045886D01*
X0116136Y0045909D01*
X0116026Y0045935D01*
X0115918Y0045966D01*
X0115811Y0046000D01*
X0115705Y0046038D01*
X0115601Y0046080D01*
X0115498Y0046126D01*
X0115397Y0046175D01*
X0115297Y0046228D01*
X0115200Y0046284D01*
X0115105Y0046344D01*
X0115011Y0046407D01*
X0114921Y0046473D01*
X0114832Y0046543D01*
X0114746Y0046615D01*
X0114663Y0046691D01*
X0114582Y0046769D01*
X0114505Y0046850D01*
X0114430Y0046934D01*
X0114358Y0047021D01*
X0114289Y0047110D01*
X0114224Y0047202D01*
X0114162Y0047295D01*
X0114103Y0047391D01*
X0114047Y0047489D01*
X0113995Y0047589D01*
X0113947Y0047691D01*
X0113903Y0047794D01*
X0113862Y0047899D01*
X0113824Y0048005D01*
X0113791Y0048112D01*
X0113761Y0048221D01*
X0113736Y0048330D01*
X0113714Y0048440D01*
X0113696Y0048552D01*
X0113682Y0048663D01*
X0113672Y0048775D01*
X0113666Y0048888D01*
X0113664Y0049000D01*
D12*
X0123614Y0098369D02*
X0123364Y0098619D01*
X0123364Y0099120D01*
X0123614Y0099370D01*
X0124865Y0099370D01*
X0124615Y0099842D02*
X0124865Y0100092D01*
X0124865Y0100593D01*
X0124615Y0100843D01*
X0124615Y0101315D02*
X0124865Y0101566D01*
X0124865Y0102066D01*
X0124615Y0102316D01*
X0124364Y0102316D01*
X0123364Y0101315D01*
X0123364Y0102316D01*
X0123614Y0100843D02*
X0123864Y0100843D01*
X0124114Y0100593D01*
X0124114Y0100092D01*
X0124364Y0099842D01*
X0124615Y0099842D01*
X0125115Y0100343D02*
X0123113Y0100343D01*
X0123364Y0100092D02*
X0123364Y0100593D01*
X0123614Y0100843D01*
X0123364Y0100092D02*
X0123614Y0099842D01*
X0123614Y0098369D02*
X0124865Y0098369D01*
D13*
X0110202Y0058138D02*
X0110686Y0057655D01*
X0110686Y0056687D01*
X0110202Y0056203D01*
X0110202Y0055192D02*
X0110686Y0054708D01*
X0110686Y0053741D01*
X0110202Y0053257D01*
X0109718Y0053257D01*
X0109235Y0053741D01*
X0109235Y0054708D01*
X0108751Y0055192D01*
X0108267Y0055192D01*
X0107783Y0054708D01*
X0107783Y0053741D01*
X0108267Y0053257D01*
X0107783Y0056203D02*
X0109718Y0058138D01*
X0110202Y0058138D01*
X0107783Y0058138D02*
X0107783Y0056203D01*
X0237355Y0105650D02*
X0239290Y0105650D01*
X0238323Y0105650D02*
X0238323Y0108552D01*
X0239290Y0107585D01*
X0240302Y0108069D02*
X0240302Y0107101D01*
X0240786Y0106617D01*
X0242237Y0106617D01*
X0242237Y0105650D02*
X0242237Y0108552D01*
X0240786Y0108552D01*
X0240302Y0108069D01*
X0243248Y0108552D02*
X0244216Y0108552D01*
X0243732Y0108552D02*
X0243732Y0106134D01*
X0244216Y0105650D01*
X0244700Y0105650D01*
X0245183Y0106134D01*
D14*
X0246731Y0098980D02*
X0246731Y0095980D01*
D15*
X0111322Y0054268D02*
X0111322Y0043732D01*
X0116322Y0040732D02*
X0117345Y0040732D01*
X0122345Y0043732D02*
X0122345Y0054268D01*
X0117345Y0057268D02*
X0116322Y0057268D01*
X0109101Y0055965D02*
X0107526Y0055965D01*
X0109101Y0055965D02*
X0109101Y0064626D01*
X0125928Y0061295D02*
X0125928Y0038657D01*
X0147581Y0038657D01*
X0147581Y0061295D01*
X0125928Y0061295D01*
X0091778Y0055965D02*
X0089022Y0055965D01*
X0089022Y0088642D01*
X0091778Y0088642D01*
X0107920Y0088642D02*
X0109101Y0088642D01*
X0109101Y0080374D01*
X0126085Y0083705D02*
X0147739Y0083705D01*
X0147739Y0106343D01*
X0126085Y0106343D01*
X0126085Y0083705D01*
X0126085Y0106343D02*
X0126085Y0109295D01*
X0147739Y0109295D01*
X0147739Y0106343D01*
X0219896Y0080449D02*
X0219896Y0074937D01*
X0221077Y0072181D02*
X0223833Y0072181D01*
X0221471Y0069819D01*
X0226196Y0069819D01*
X0223833Y0072181D01*
X0226589Y0072181D01*
X0227770Y0074937D02*
X0227770Y0080449D01*
X0219896Y0080449D01*
X0219896Y0067063D02*
X0219896Y0061551D01*
X0227770Y0061551D01*
X0227770Y0067063D01*
X0226247Y0056343D02*
X0225459Y0056343D01*
X0220853Y0056343D02*
X0218491Y0056343D01*
X0218491Y0049256D01*
X0230833Y0046500D02*
X0230835Y0046544D01*
X0230841Y0046588D01*
X0230851Y0046631D01*
X0230864Y0046673D01*
X0230881Y0046714D01*
X0230902Y0046753D01*
X0230926Y0046790D01*
X0230953Y0046825D01*
X0230983Y0046857D01*
X0231016Y0046887D01*
X0231052Y0046913D01*
X0231089Y0046937D01*
X0231129Y0046956D01*
X0231170Y0046973D01*
X0231213Y0046985D01*
X0231256Y0046994D01*
X0231300Y0046999D01*
X0231344Y0047000D01*
X0231388Y0046997D01*
X0231432Y0046990D01*
X0231475Y0046979D01*
X0231517Y0046965D01*
X0231557Y0046947D01*
X0231596Y0046925D01*
X0231632Y0046901D01*
X0231666Y0046873D01*
X0231698Y0046842D01*
X0231727Y0046808D01*
X0231753Y0046772D01*
X0231775Y0046734D01*
X0231794Y0046694D01*
X0231809Y0046652D01*
X0231821Y0046610D01*
X0231829Y0046566D01*
X0231833Y0046522D01*
X0231833Y0046478D01*
X0231829Y0046434D01*
X0231821Y0046390D01*
X0231809Y0046348D01*
X0231794Y0046306D01*
X0231775Y0046266D01*
X0231753Y0046228D01*
X0231727Y0046192D01*
X0231698Y0046158D01*
X0231666Y0046127D01*
X0231632Y0046099D01*
X0231596Y0046075D01*
X0231557Y0046053D01*
X0231517Y0046035D01*
X0231475Y0046021D01*
X0231432Y0046010D01*
X0231388Y0046003D01*
X0231344Y0046000D01*
X0231300Y0046001D01*
X0231256Y0046006D01*
X0231213Y0046015D01*
X0231170Y0046027D01*
X0231129Y0046044D01*
X0231089Y0046063D01*
X0231052Y0046087D01*
X0231016Y0046113D01*
X0230983Y0046143D01*
X0230953Y0046175D01*
X0230926Y0046210D01*
X0230902Y0046247D01*
X0230881Y0046286D01*
X0230864Y0046327D01*
X0230851Y0046369D01*
X0230841Y0046412D01*
X0230835Y0046456D01*
X0230833Y0046500D01*
X0238176Y0043744D02*
X0238176Y0036657D01*
X0235814Y0036657D01*
X0231207Y0036657D02*
X0230420Y0036657D01*
X0226286Y0036657D02*
X0225459Y0036657D01*
X0220853Y0036657D02*
X0218491Y0036657D01*
X0218491Y0043744D01*
X0238176Y0049256D02*
X0238176Y0056343D01*
X0235814Y0056343D01*
X0231207Y0056343D02*
X0230459Y0056343D01*
X0306597Y0040933D02*
X0306597Y0031878D01*
X0327070Y0031878D01*
X0327070Y0041327D01*
X0327070Y0041326D02*
X0327367Y0041515D01*
X0327661Y0041710D01*
X0327949Y0041912D01*
X0328234Y0042120D01*
X0328513Y0042335D01*
X0328787Y0042556D01*
X0329057Y0042783D01*
X0329321Y0043016D01*
X0329580Y0043255D01*
X0329834Y0043500D01*
X0306597Y0040934D02*
X0306235Y0041213D01*
X0305879Y0041500D01*
X0305530Y0041797D01*
X0305188Y0042101D01*
X0304854Y0042414D01*
X0304527Y0042734D01*
X0304208Y0043062D01*
X0303897Y0043398D01*
X0303594Y0043741D01*
X0303300Y0044092D01*
X0303014Y0044449D01*
X0302736Y0044813D01*
X0302468Y0045184D01*
X0302208Y0045561D01*
X0301958Y0045944D01*
X0301717Y0046333D01*
X0301485Y0046727D01*
X0301262Y0047127D01*
X0301050Y0047533D01*
X0300847Y0047943D01*
X0300654Y0048358D01*
X0300471Y0048777D01*
X0300298Y0049201D01*
X0300333Y0062000D02*
X0300494Y0062388D01*
X0300663Y0062772D01*
X0300842Y0063151D01*
X0301030Y0063527D01*
X0301226Y0063897D01*
X0301432Y0064263D01*
X0301646Y0064624D01*
X0301868Y0064980D01*
X0302098Y0065331D01*
X0302337Y0065676D01*
X0302584Y0066015D01*
X0302839Y0066348D01*
X0303102Y0066675D01*
X0303372Y0066996D01*
X0303650Y0067311D01*
X0303935Y0067619D01*
X0304227Y0067920D01*
X0304527Y0068214D01*
X0304833Y0068501D01*
X0311834Y0072500D02*
X0312244Y0072617D01*
X0312657Y0072725D01*
X0313073Y0072822D01*
X0313491Y0072909D01*
X0313911Y0072986D01*
X0314333Y0073053D01*
X0314756Y0073110D01*
X0315180Y0073156D01*
X0315606Y0073192D01*
X0316032Y0073218D01*
X0316459Y0073233D01*
X0316885Y0073238D01*
X0317312Y0073233D01*
X0317739Y0073217D01*
X0318165Y0073191D01*
X0318591Y0073155D01*
X0319015Y0073108D01*
X0319438Y0073051D01*
X0319860Y0072984D01*
X0320280Y0072906D01*
X0320697Y0072819D01*
X0321113Y0072721D01*
X0321526Y0072613D01*
X0321937Y0072496D01*
X0322344Y0072368D01*
X0322748Y0072231D01*
X0323149Y0072083D01*
X0323546Y0071926D01*
X0323939Y0071760D01*
X0324328Y0071584D01*
X0324713Y0071399D01*
X0325093Y0071204D01*
X0325468Y0071000D01*
X0325838Y0070788D01*
X0326203Y0070566D01*
X0326562Y0070335D01*
X0326916Y0070096D01*
X0327264Y0069849D01*
X0327606Y0069593D01*
X0327941Y0069328D01*
X0328270Y0069056D01*
X0328592Y0068776D01*
X0328907Y0068488D01*
X0329215Y0068193D01*
X0329516Y0067890D01*
X0329810Y0067580D01*
X0330096Y0067263D01*
X0330374Y0066939D01*
X0330644Y0066608D01*
X0330906Y0066271D01*
X0331160Y0065928D01*
X0331406Y0065579D01*
X0331643Y0065223D01*
X0331871Y0064863D01*
X0332090Y0064496D01*
X0332301Y0064125D01*
X0332502Y0063748D01*
X0332694Y0063367D01*
X0332877Y0062981D01*
X0333051Y0062591D01*
X0333215Y0062197D01*
X0333369Y0061799D01*
X0335495Y0091780D02*
X0335495Y0097291D01*
X0318172Y0097291D01*
X0318172Y0091780D01*
X0313448Y0091780D01*
X0313448Y0098079D01*
X0335495Y0091780D02*
X0340219Y0091780D01*
X0340219Y0098079D01*
X0340219Y0108709D02*
X0313448Y0108709D01*
X0147581Y0038657D02*
X0147581Y0035705D01*
X0125928Y0035705D01*
X0125928Y0038657D01*
D16*
X0146517Y0107327D02*
X0146519Y0107397D01*
X0146525Y0107468D01*
X0146535Y0107537D01*
X0146549Y0107606D01*
X0146567Y0107675D01*
X0146588Y0107742D01*
X0146613Y0107808D01*
X0146642Y0107872D01*
X0146675Y0107934D01*
X0146711Y0107995D01*
X0146751Y0108053D01*
X0146793Y0108109D01*
X0146839Y0108163D01*
X0146888Y0108214D01*
X0146939Y0108262D01*
X0146994Y0108307D01*
X0147050Y0108349D01*
X0147109Y0108387D01*
X0147170Y0108422D01*
X0147233Y0108454D01*
X0147298Y0108482D01*
X0147364Y0108507D01*
X0147431Y0108527D01*
X0147500Y0108544D01*
X0147569Y0108557D01*
X0147639Y0108566D01*
X0147709Y0108571D01*
X0147780Y0108572D01*
X0147850Y0108569D01*
X0147920Y0108562D01*
X0147990Y0108551D01*
X0148059Y0108536D01*
X0148127Y0108517D01*
X0148193Y0108495D01*
X0148259Y0108469D01*
X0148323Y0108439D01*
X0148385Y0108405D01*
X0148445Y0108368D01*
X0148502Y0108328D01*
X0148558Y0108284D01*
X0148611Y0108238D01*
X0148661Y0108188D01*
X0148708Y0108136D01*
X0148752Y0108081D01*
X0148793Y0108024D01*
X0148831Y0107965D01*
X0148866Y0107903D01*
X0148896Y0107840D01*
X0148924Y0107775D01*
X0148947Y0107708D01*
X0148967Y0107641D01*
X0148983Y0107572D01*
X0148995Y0107503D01*
X0149003Y0107433D01*
X0149007Y0107362D01*
X0149007Y0107292D01*
X0149003Y0107221D01*
X0148995Y0107151D01*
X0148983Y0107082D01*
X0148967Y0107013D01*
X0148947Y0106946D01*
X0148924Y0106879D01*
X0148896Y0106814D01*
X0148866Y0106751D01*
X0148831Y0106689D01*
X0148793Y0106630D01*
X0148752Y0106573D01*
X0148708Y0106518D01*
X0148661Y0106466D01*
X0148611Y0106416D01*
X0148558Y0106370D01*
X0148502Y0106326D01*
X0148445Y0106286D01*
X0148384Y0106249D01*
X0148323Y0106215D01*
X0148259Y0106185D01*
X0148193Y0106159D01*
X0148127Y0106137D01*
X0148059Y0106118D01*
X0147990Y0106103D01*
X0147920Y0106092D01*
X0147850Y0106085D01*
X0147780Y0106082D01*
X0147709Y0106083D01*
X0147639Y0106088D01*
X0147569Y0106097D01*
X0147500Y0106110D01*
X0147431Y0106127D01*
X0147364Y0106147D01*
X0147298Y0106172D01*
X0147233Y0106200D01*
X0147170Y0106232D01*
X0147109Y0106267D01*
X0147050Y0106305D01*
X0146994Y0106347D01*
X0146939Y0106392D01*
X0146888Y0106440D01*
X0146839Y0106491D01*
X0146793Y0106545D01*
X0146751Y0106601D01*
X0146711Y0106659D01*
X0146675Y0106720D01*
X0146642Y0106782D01*
X0146613Y0106846D01*
X0146588Y0106912D01*
X0146567Y0106979D01*
X0146549Y0107048D01*
X0146535Y0107117D01*
X0146525Y0107186D01*
X0146519Y0107257D01*
X0146517Y0107327D01*
D17*
X0145770Y0102084D02*
X0145770Y0100350D01*
X0147071Y0101651D01*
X0144469Y0101651D01*
X0144902Y0099138D02*
X0147071Y0099138D01*
X0147071Y0097403D02*
X0144902Y0097403D01*
X0144469Y0097837D01*
X0144469Y0098704D01*
X0144902Y0099138D01*
D18*
X0218433Y0072778D02*
X0218433Y0071310D01*
X0219901Y0072778D01*
X0220268Y0072778D01*
X0220635Y0072411D01*
X0220635Y0071677D01*
X0220268Y0071310D01*
X0220268Y0070568D02*
X0218800Y0070568D01*
X0218433Y0070201D01*
X0218433Y0069100D01*
X0220635Y0069100D01*
X0220635Y0070201D01*
X0220268Y0070568D01*
X0232683Y0071278D02*
X0232683Y0069810D01*
X0234151Y0071278D01*
X0234518Y0071278D01*
X0234885Y0070911D01*
X0234885Y0070177D01*
X0234518Y0069810D01*
X0234518Y0069068D02*
X0233784Y0069068D01*
X0233417Y0068701D01*
X0233417Y0067600D01*
X0232683Y0067600D02*
X0234885Y0067600D01*
X0234885Y0068701D01*
X0234518Y0069068D01*
X0233417Y0068334D02*
X0232683Y0069068D01*
X0232683Y0072020D02*
X0232683Y0073488D01*
X0232683Y0072754D02*
X0234885Y0072754D01*
X0234151Y0072020D01*
X0246150Y0056858D02*
X0246517Y0056858D01*
X0246884Y0056491D01*
X0246884Y0055390D01*
X0246150Y0055390D01*
X0245783Y0055757D01*
X0245783Y0056491D01*
X0246150Y0056858D01*
X0247618Y0056124D02*
X0246884Y0055390D01*
X0247618Y0056124D02*
X0247985Y0056858D01*
X0247985Y0053914D02*
X0245783Y0053914D01*
X0245783Y0053180D02*
X0245783Y0054648D01*
X0247251Y0053180D02*
X0247985Y0053914D01*
X0247618Y0052438D02*
X0247985Y0052071D01*
X0247985Y0051337D01*
X0247618Y0050970D01*
X0246150Y0050970D01*
X0245783Y0051337D01*
X0245783Y0052071D01*
X0246150Y0052438D01*
X0230635Y0046988D02*
X0230268Y0046988D01*
X0228800Y0045520D01*
X0228433Y0045520D01*
X0228800Y0044778D02*
X0229167Y0044778D01*
X0229534Y0044411D01*
X0229534Y0043677D01*
X0229901Y0043310D01*
X0230268Y0043310D01*
X0230635Y0043677D01*
X0230635Y0044411D01*
X0230268Y0044778D01*
X0230635Y0045520D02*
X0230635Y0046988D01*
X0228800Y0044778D02*
X0228433Y0044411D01*
X0228433Y0043677D01*
X0228800Y0043310D01*
X0228800Y0042568D02*
X0230635Y0042568D01*
X0230635Y0041100D02*
X0228800Y0041100D01*
X0228433Y0041467D01*
X0228433Y0042201D01*
X0228800Y0042568D01*
X0228066Y0044044D02*
X0231002Y0044044D01*
X0321795Y0101478D02*
X0321795Y0104280D01*
X0323196Y0102879D01*
X0321328Y0102879D01*
X0324091Y0102879D02*
X0324091Y0103813D01*
X0324558Y0104280D01*
X0325959Y0104280D01*
X0325959Y0101478D01*
X0325959Y0102412D02*
X0324558Y0102412D01*
X0324091Y0102879D01*
X0326853Y0104280D02*
X0327787Y0104280D01*
X0327320Y0104280D02*
X0327320Y0101945D01*
X0327787Y0101478D01*
X0328254Y0101478D01*
X0328721Y0101945D01*
D19*
X0120637Y0061165D02*
X0120637Y0058096D01*
X0118335Y0058096D01*
X0119103Y0059631D01*
X0119103Y0060398D01*
X0118335Y0061165D01*
X0116801Y0061165D01*
X0116033Y0060398D01*
X0116033Y0058863D01*
X0116801Y0058096D01*
X0118335Y0056561D02*
X0117568Y0055794D01*
X0117568Y0053492D01*
X0116033Y0053492D02*
X0120637Y0053492D01*
X0120637Y0055794D01*
X0119870Y0056561D01*
X0118335Y0056561D01*
X0120637Y0051957D02*
X0120637Y0050423D01*
X0120637Y0051190D02*
X0116801Y0051190D01*
X0116033Y0050423D01*
X0116033Y0049656D01*
X0116801Y0048888D01*
D20*
X0229833Y0070000D03*
D21*
X0243213Y0054000D02*
X0243453Y0054000D01*
M02*
