G75*
%MOIN*%
%OFA0B0*%
%FSLAX25Y25*%
%IPPOS*%
%LPD*%
%AMOC8*
5,1,8,0,0,1.08239X$1,22.5*
%
%ADD10C,0.00000*%
D10*
X0084833Y0033500D02*
X0084833Y0111461D01*
X0371034Y0111461D01*
X0371034Y0034000D01*
X0084833Y0033500D01*
X0089333Y0044500D02*
X0089335Y0044661D01*
X0089341Y0044821D01*
X0089351Y0044982D01*
X0089365Y0045142D01*
X0089383Y0045302D01*
X0089404Y0045461D01*
X0089430Y0045620D01*
X0089460Y0045778D01*
X0089493Y0045935D01*
X0089531Y0046092D01*
X0089572Y0046247D01*
X0089617Y0046401D01*
X0089666Y0046554D01*
X0089719Y0046706D01*
X0089775Y0046857D01*
X0089836Y0047006D01*
X0089899Y0047154D01*
X0089967Y0047300D01*
X0090038Y0047444D01*
X0090112Y0047586D01*
X0090190Y0047727D01*
X0090272Y0047865D01*
X0090357Y0048002D01*
X0090445Y0048136D01*
X0090537Y0048268D01*
X0090632Y0048398D01*
X0090730Y0048526D01*
X0090831Y0048651D01*
X0090935Y0048773D01*
X0091042Y0048893D01*
X0091152Y0049010D01*
X0091265Y0049125D01*
X0091381Y0049236D01*
X0091500Y0049345D01*
X0091621Y0049450D01*
X0091745Y0049553D01*
X0091871Y0049653D01*
X0091999Y0049749D01*
X0092130Y0049842D01*
X0092264Y0049932D01*
X0092399Y0050019D01*
X0092537Y0050102D01*
X0092676Y0050182D01*
X0092818Y0050258D01*
X0092961Y0050331D01*
X0093106Y0050400D01*
X0093253Y0050466D01*
X0093401Y0050528D01*
X0093551Y0050586D01*
X0093702Y0050641D01*
X0093855Y0050692D01*
X0094009Y0050739D01*
X0094164Y0050782D01*
X0094320Y0050821D01*
X0094476Y0050857D01*
X0094634Y0050888D01*
X0094792Y0050916D01*
X0094951Y0050940D01*
X0095111Y0050960D01*
X0095271Y0050976D01*
X0095431Y0050988D01*
X0095592Y0050996D01*
X0095753Y0051000D01*
X0095913Y0051000D01*
X0096074Y0050996D01*
X0096235Y0050988D01*
X0096395Y0050976D01*
X0096555Y0050960D01*
X0096715Y0050940D01*
X0096874Y0050916D01*
X0097032Y0050888D01*
X0097190Y0050857D01*
X0097346Y0050821D01*
X0097502Y0050782D01*
X0097657Y0050739D01*
X0097811Y0050692D01*
X0097964Y0050641D01*
X0098115Y0050586D01*
X0098265Y0050528D01*
X0098413Y0050466D01*
X0098560Y0050400D01*
X0098705Y0050331D01*
X0098848Y0050258D01*
X0098990Y0050182D01*
X0099129Y0050102D01*
X0099267Y0050019D01*
X0099402Y0049932D01*
X0099536Y0049842D01*
X0099667Y0049749D01*
X0099795Y0049653D01*
X0099921Y0049553D01*
X0100045Y0049450D01*
X0100166Y0049345D01*
X0100285Y0049236D01*
X0100401Y0049125D01*
X0100514Y0049010D01*
X0100624Y0048893D01*
X0100731Y0048773D01*
X0100835Y0048651D01*
X0100936Y0048526D01*
X0101034Y0048398D01*
X0101129Y0048268D01*
X0101221Y0048136D01*
X0101309Y0048002D01*
X0101394Y0047865D01*
X0101476Y0047727D01*
X0101554Y0047586D01*
X0101628Y0047444D01*
X0101699Y0047300D01*
X0101767Y0047154D01*
X0101830Y0047006D01*
X0101891Y0046857D01*
X0101947Y0046706D01*
X0102000Y0046554D01*
X0102049Y0046401D01*
X0102094Y0046247D01*
X0102135Y0046092D01*
X0102173Y0045935D01*
X0102206Y0045778D01*
X0102236Y0045620D01*
X0102262Y0045461D01*
X0102283Y0045302D01*
X0102301Y0045142D01*
X0102315Y0044982D01*
X0102325Y0044821D01*
X0102331Y0044661D01*
X0102333Y0044500D01*
X0102331Y0044339D01*
X0102325Y0044179D01*
X0102315Y0044018D01*
X0102301Y0043858D01*
X0102283Y0043698D01*
X0102262Y0043539D01*
X0102236Y0043380D01*
X0102206Y0043222D01*
X0102173Y0043065D01*
X0102135Y0042908D01*
X0102094Y0042753D01*
X0102049Y0042599D01*
X0102000Y0042446D01*
X0101947Y0042294D01*
X0101891Y0042143D01*
X0101830Y0041994D01*
X0101767Y0041846D01*
X0101699Y0041700D01*
X0101628Y0041556D01*
X0101554Y0041414D01*
X0101476Y0041273D01*
X0101394Y0041135D01*
X0101309Y0040998D01*
X0101221Y0040864D01*
X0101129Y0040732D01*
X0101034Y0040602D01*
X0100936Y0040474D01*
X0100835Y0040349D01*
X0100731Y0040227D01*
X0100624Y0040107D01*
X0100514Y0039990D01*
X0100401Y0039875D01*
X0100285Y0039764D01*
X0100166Y0039655D01*
X0100045Y0039550D01*
X0099921Y0039447D01*
X0099795Y0039347D01*
X0099667Y0039251D01*
X0099536Y0039158D01*
X0099402Y0039068D01*
X0099267Y0038981D01*
X0099129Y0038898D01*
X0098990Y0038818D01*
X0098848Y0038742D01*
X0098705Y0038669D01*
X0098560Y0038600D01*
X0098413Y0038534D01*
X0098265Y0038472D01*
X0098115Y0038414D01*
X0097964Y0038359D01*
X0097811Y0038308D01*
X0097657Y0038261D01*
X0097502Y0038218D01*
X0097346Y0038179D01*
X0097190Y0038143D01*
X0097032Y0038112D01*
X0096874Y0038084D01*
X0096715Y0038060D01*
X0096555Y0038040D01*
X0096395Y0038024D01*
X0096235Y0038012D01*
X0096074Y0038004D01*
X0095913Y0038000D01*
X0095753Y0038000D01*
X0095592Y0038004D01*
X0095431Y0038012D01*
X0095271Y0038024D01*
X0095111Y0038040D01*
X0094951Y0038060D01*
X0094792Y0038084D01*
X0094634Y0038112D01*
X0094476Y0038143D01*
X0094320Y0038179D01*
X0094164Y0038218D01*
X0094009Y0038261D01*
X0093855Y0038308D01*
X0093702Y0038359D01*
X0093551Y0038414D01*
X0093401Y0038472D01*
X0093253Y0038534D01*
X0093106Y0038600D01*
X0092961Y0038669D01*
X0092818Y0038742D01*
X0092676Y0038818D01*
X0092537Y0038898D01*
X0092399Y0038981D01*
X0092264Y0039068D01*
X0092130Y0039158D01*
X0091999Y0039251D01*
X0091871Y0039347D01*
X0091745Y0039447D01*
X0091621Y0039550D01*
X0091500Y0039655D01*
X0091381Y0039764D01*
X0091265Y0039875D01*
X0091152Y0039990D01*
X0091042Y0040107D01*
X0090935Y0040227D01*
X0090831Y0040349D01*
X0090730Y0040474D01*
X0090632Y0040602D01*
X0090537Y0040732D01*
X0090445Y0040864D01*
X0090357Y0040998D01*
X0090272Y0041135D01*
X0090190Y0041273D01*
X0090112Y0041414D01*
X0090038Y0041556D01*
X0089967Y0041700D01*
X0089899Y0041846D01*
X0089836Y0041994D01*
X0089775Y0042143D01*
X0089719Y0042294D01*
X0089666Y0042446D01*
X0089617Y0042599D01*
X0089572Y0042753D01*
X0089531Y0042908D01*
X0089493Y0043065D01*
X0089460Y0043222D01*
X0089430Y0043380D01*
X0089404Y0043539D01*
X0089383Y0043698D01*
X0089365Y0043858D01*
X0089351Y0044018D01*
X0089341Y0044179D01*
X0089335Y0044339D01*
X0089333Y0044500D01*
X0171581Y0069531D02*
X0171583Y0069684D01*
X0171589Y0069838D01*
X0171599Y0069991D01*
X0171613Y0070143D01*
X0171631Y0070296D01*
X0171653Y0070447D01*
X0171678Y0070598D01*
X0171708Y0070749D01*
X0171742Y0070899D01*
X0171779Y0071047D01*
X0171820Y0071195D01*
X0171865Y0071341D01*
X0171914Y0071487D01*
X0171967Y0071631D01*
X0172023Y0071773D01*
X0172083Y0071914D01*
X0172147Y0072054D01*
X0172214Y0072192D01*
X0172285Y0072328D01*
X0172360Y0072462D01*
X0172437Y0072594D01*
X0172519Y0072724D01*
X0172603Y0072852D01*
X0172691Y0072978D01*
X0172782Y0073101D01*
X0172876Y0073222D01*
X0172974Y0073340D01*
X0173074Y0073456D01*
X0173178Y0073569D01*
X0173284Y0073680D01*
X0173393Y0073788D01*
X0173505Y0073893D01*
X0173619Y0073994D01*
X0173737Y0074093D01*
X0173856Y0074189D01*
X0173978Y0074282D01*
X0174103Y0074371D01*
X0174230Y0074458D01*
X0174359Y0074540D01*
X0174490Y0074620D01*
X0174623Y0074696D01*
X0174758Y0074769D01*
X0174895Y0074838D01*
X0175034Y0074903D01*
X0175174Y0074965D01*
X0175316Y0075023D01*
X0175459Y0075078D01*
X0175604Y0075129D01*
X0175750Y0075176D01*
X0175897Y0075219D01*
X0176045Y0075258D01*
X0176194Y0075294D01*
X0176344Y0075325D01*
X0176495Y0075353D01*
X0176646Y0075377D01*
X0176799Y0075397D01*
X0176951Y0075413D01*
X0177104Y0075425D01*
X0177257Y0075433D01*
X0177410Y0075437D01*
X0177564Y0075437D01*
X0177717Y0075433D01*
X0177870Y0075425D01*
X0178023Y0075413D01*
X0178175Y0075397D01*
X0178328Y0075377D01*
X0178479Y0075353D01*
X0178630Y0075325D01*
X0178780Y0075294D01*
X0178929Y0075258D01*
X0179077Y0075219D01*
X0179224Y0075176D01*
X0179370Y0075129D01*
X0179515Y0075078D01*
X0179658Y0075023D01*
X0179800Y0074965D01*
X0179940Y0074903D01*
X0180079Y0074838D01*
X0180216Y0074769D01*
X0180351Y0074696D01*
X0180484Y0074620D01*
X0180615Y0074540D01*
X0180744Y0074458D01*
X0180871Y0074371D01*
X0180996Y0074282D01*
X0181118Y0074189D01*
X0181237Y0074093D01*
X0181355Y0073994D01*
X0181469Y0073893D01*
X0181581Y0073788D01*
X0181690Y0073680D01*
X0181796Y0073569D01*
X0181900Y0073456D01*
X0182000Y0073340D01*
X0182098Y0073222D01*
X0182192Y0073101D01*
X0182283Y0072978D01*
X0182371Y0072852D01*
X0182455Y0072724D01*
X0182537Y0072594D01*
X0182614Y0072462D01*
X0182689Y0072328D01*
X0182760Y0072192D01*
X0182827Y0072054D01*
X0182891Y0071914D01*
X0182951Y0071773D01*
X0183007Y0071631D01*
X0183060Y0071487D01*
X0183109Y0071341D01*
X0183154Y0071195D01*
X0183195Y0071047D01*
X0183232Y0070899D01*
X0183266Y0070749D01*
X0183296Y0070598D01*
X0183321Y0070447D01*
X0183343Y0070296D01*
X0183361Y0070143D01*
X0183375Y0069991D01*
X0183385Y0069838D01*
X0183391Y0069684D01*
X0183393Y0069531D01*
X0183391Y0069378D01*
X0183385Y0069224D01*
X0183375Y0069071D01*
X0183361Y0068919D01*
X0183343Y0068766D01*
X0183321Y0068615D01*
X0183296Y0068464D01*
X0183266Y0068313D01*
X0183232Y0068163D01*
X0183195Y0068015D01*
X0183154Y0067867D01*
X0183109Y0067721D01*
X0183060Y0067575D01*
X0183007Y0067431D01*
X0182951Y0067289D01*
X0182891Y0067148D01*
X0182827Y0067008D01*
X0182760Y0066870D01*
X0182689Y0066734D01*
X0182614Y0066600D01*
X0182537Y0066468D01*
X0182455Y0066338D01*
X0182371Y0066210D01*
X0182283Y0066084D01*
X0182192Y0065961D01*
X0182098Y0065840D01*
X0182000Y0065722D01*
X0181900Y0065606D01*
X0181796Y0065493D01*
X0181690Y0065382D01*
X0181581Y0065274D01*
X0181469Y0065169D01*
X0181355Y0065068D01*
X0181237Y0064969D01*
X0181118Y0064873D01*
X0180996Y0064780D01*
X0180871Y0064691D01*
X0180744Y0064604D01*
X0180615Y0064522D01*
X0180484Y0064442D01*
X0180351Y0064366D01*
X0180216Y0064293D01*
X0180079Y0064224D01*
X0179940Y0064159D01*
X0179800Y0064097D01*
X0179658Y0064039D01*
X0179515Y0063984D01*
X0179370Y0063933D01*
X0179224Y0063886D01*
X0179077Y0063843D01*
X0178929Y0063804D01*
X0178780Y0063768D01*
X0178630Y0063737D01*
X0178479Y0063709D01*
X0178328Y0063685D01*
X0178175Y0063665D01*
X0178023Y0063649D01*
X0177870Y0063637D01*
X0177717Y0063629D01*
X0177564Y0063625D01*
X0177410Y0063625D01*
X0177257Y0063629D01*
X0177104Y0063637D01*
X0176951Y0063649D01*
X0176799Y0063665D01*
X0176646Y0063685D01*
X0176495Y0063709D01*
X0176344Y0063737D01*
X0176194Y0063768D01*
X0176045Y0063804D01*
X0175897Y0063843D01*
X0175750Y0063886D01*
X0175604Y0063933D01*
X0175459Y0063984D01*
X0175316Y0064039D01*
X0175174Y0064097D01*
X0175034Y0064159D01*
X0174895Y0064224D01*
X0174758Y0064293D01*
X0174623Y0064366D01*
X0174490Y0064442D01*
X0174359Y0064522D01*
X0174230Y0064604D01*
X0174103Y0064691D01*
X0173978Y0064780D01*
X0173856Y0064873D01*
X0173737Y0064969D01*
X0173619Y0065068D01*
X0173505Y0065169D01*
X0173393Y0065274D01*
X0173284Y0065382D01*
X0173178Y0065493D01*
X0173074Y0065606D01*
X0172974Y0065722D01*
X0172876Y0065840D01*
X0172782Y0065961D01*
X0172691Y0066084D01*
X0172603Y0066210D01*
X0172519Y0066338D01*
X0172437Y0066468D01*
X0172360Y0066600D01*
X0172285Y0066734D01*
X0172214Y0066870D01*
X0172147Y0067008D01*
X0172083Y0067148D01*
X0172023Y0067289D01*
X0171967Y0067431D01*
X0171914Y0067575D01*
X0171865Y0067721D01*
X0171820Y0067867D01*
X0171779Y0068015D01*
X0171742Y0068163D01*
X0171708Y0068313D01*
X0171678Y0068464D01*
X0171653Y0068615D01*
X0171631Y0068766D01*
X0171613Y0068919D01*
X0171599Y0069071D01*
X0171589Y0069224D01*
X0171583Y0069378D01*
X0171581Y0069531D01*
X0089333Y0100500D02*
X0089335Y0100661D01*
X0089341Y0100821D01*
X0089351Y0100982D01*
X0089365Y0101142D01*
X0089383Y0101302D01*
X0089404Y0101461D01*
X0089430Y0101620D01*
X0089460Y0101778D01*
X0089493Y0101935D01*
X0089531Y0102092D01*
X0089572Y0102247D01*
X0089617Y0102401D01*
X0089666Y0102554D01*
X0089719Y0102706D01*
X0089775Y0102857D01*
X0089836Y0103006D01*
X0089899Y0103154D01*
X0089967Y0103300D01*
X0090038Y0103444D01*
X0090112Y0103586D01*
X0090190Y0103727D01*
X0090272Y0103865D01*
X0090357Y0104002D01*
X0090445Y0104136D01*
X0090537Y0104268D01*
X0090632Y0104398D01*
X0090730Y0104526D01*
X0090831Y0104651D01*
X0090935Y0104773D01*
X0091042Y0104893D01*
X0091152Y0105010D01*
X0091265Y0105125D01*
X0091381Y0105236D01*
X0091500Y0105345D01*
X0091621Y0105450D01*
X0091745Y0105553D01*
X0091871Y0105653D01*
X0091999Y0105749D01*
X0092130Y0105842D01*
X0092264Y0105932D01*
X0092399Y0106019D01*
X0092537Y0106102D01*
X0092676Y0106182D01*
X0092818Y0106258D01*
X0092961Y0106331D01*
X0093106Y0106400D01*
X0093253Y0106466D01*
X0093401Y0106528D01*
X0093551Y0106586D01*
X0093702Y0106641D01*
X0093855Y0106692D01*
X0094009Y0106739D01*
X0094164Y0106782D01*
X0094320Y0106821D01*
X0094476Y0106857D01*
X0094634Y0106888D01*
X0094792Y0106916D01*
X0094951Y0106940D01*
X0095111Y0106960D01*
X0095271Y0106976D01*
X0095431Y0106988D01*
X0095592Y0106996D01*
X0095753Y0107000D01*
X0095913Y0107000D01*
X0096074Y0106996D01*
X0096235Y0106988D01*
X0096395Y0106976D01*
X0096555Y0106960D01*
X0096715Y0106940D01*
X0096874Y0106916D01*
X0097032Y0106888D01*
X0097190Y0106857D01*
X0097346Y0106821D01*
X0097502Y0106782D01*
X0097657Y0106739D01*
X0097811Y0106692D01*
X0097964Y0106641D01*
X0098115Y0106586D01*
X0098265Y0106528D01*
X0098413Y0106466D01*
X0098560Y0106400D01*
X0098705Y0106331D01*
X0098848Y0106258D01*
X0098990Y0106182D01*
X0099129Y0106102D01*
X0099267Y0106019D01*
X0099402Y0105932D01*
X0099536Y0105842D01*
X0099667Y0105749D01*
X0099795Y0105653D01*
X0099921Y0105553D01*
X0100045Y0105450D01*
X0100166Y0105345D01*
X0100285Y0105236D01*
X0100401Y0105125D01*
X0100514Y0105010D01*
X0100624Y0104893D01*
X0100731Y0104773D01*
X0100835Y0104651D01*
X0100936Y0104526D01*
X0101034Y0104398D01*
X0101129Y0104268D01*
X0101221Y0104136D01*
X0101309Y0104002D01*
X0101394Y0103865D01*
X0101476Y0103727D01*
X0101554Y0103586D01*
X0101628Y0103444D01*
X0101699Y0103300D01*
X0101767Y0103154D01*
X0101830Y0103006D01*
X0101891Y0102857D01*
X0101947Y0102706D01*
X0102000Y0102554D01*
X0102049Y0102401D01*
X0102094Y0102247D01*
X0102135Y0102092D01*
X0102173Y0101935D01*
X0102206Y0101778D01*
X0102236Y0101620D01*
X0102262Y0101461D01*
X0102283Y0101302D01*
X0102301Y0101142D01*
X0102315Y0100982D01*
X0102325Y0100821D01*
X0102331Y0100661D01*
X0102333Y0100500D01*
X0102331Y0100339D01*
X0102325Y0100179D01*
X0102315Y0100018D01*
X0102301Y0099858D01*
X0102283Y0099698D01*
X0102262Y0099539D01*
X0102236Y0099380D01*
X0102206Y0099222D01*
X0102173Y0099065D01*
X0102135Y0098908D01*
X0102094Y0098753D01*
X0102049Y0098599D01*
X0102000Y0098446D01*
X0101947Y0098294D01*
X0101891Y0098143D01*
X0101830Y0097994D01*
X0101767Y0097846D01*
X0101699Y0097700D01*
X0101628Y0097556D01*
X0101554Y0097414D01*
X0101476Y0097273D01*
X0101394Y0097135D01*
X0101309Y0096998D01*
X0101221Y0096864D01*
X0101129Y0096732D01*
X0101034Y0096602D01*
X0100936Y0096474D01*
X0100835Y0096349D01*
X0100731Y0096227D01*
X0100624Y0096107D01*
X0100514Y0095990D01*
X0100401Y0095875D01*
X0100285Y0095764D01*
X0100166Y0095655D01*
X0100045Y0095550D01*
X0099921Y0095447D01*
X0099795Y0095347D01*
X0099667Y0095251D01*
X0099536Y0095158D01*
X0099402Y0095068D01*
X0099267Y0094981D01*
X0099129Y0094898D01*
X0098990Y0094818D01*
X0098848Y0094742D01*
X0098705Y0094669D01*
X0098560Y0094600D01*
X0098413Y0094534D01*
X0098265Y0094472D01*
X0098115Y0094414D01*
X0097964Y0094359D01*
X0097811Y0094308D01*
X0097657Y0094261D01*
X0097502Y0094218D01*
X0097346Y0094179D01*
X0097190Y0094143D01*
X0097032Y0094112D01*
X0096874Y0094084D01*
X0096715Y0094060D01*
X0096555Y0094040D01*
X0096395Y0094024D01*
X0096235Y0094012D01*
X0096074Y0094004D01*
X0095913Y0094000D01*
X0095753Y0094000D01*
X0095592Y0094004D01*
X0095431Y0094012D01*
X0095271Y0094024D01*
X0095111Y0094040D01*
X0094951Y0094060D01*
X0094792Y0094084D01*
X0094634Y0094112D01*
X0094476Y0094143D01*
X0094320Y0094179D01*
X0094164Y0094218D01*
X0094009Y0094261D01*
X0093855Y0094308D01*
X0093702Y0094359D01*
X0093551Y0094414D01*
X0093401Y0094472D01*
X0093253Y0094534D01*
X0093106Y0094600D01*
X0092961Y0094669D01*
X0092818Y0094742D01*
X0092676Y0094818D01*
X0092537Y0094898D01*
X0092399Y0094981D01*
X0092264Y0095068D01*
X0092130Y0095158D01*
X0091999Y0095251D01*
X0091871Y0095347D01*
X0091745Y0095447D01*
X0091621Y0095550D01*
X0091500Y0095655D01*
X0091381Y0095764D01*
X0091265Y0095875D01*
X0091152Y0095990D01*
X0091042Y0096107D01*
X0090935Y0096227D01*
X0090831Y0096349D01*
X0090730Y0096474D01*
X0090632Y0096602D01*
X0090537Y0096732D01*
X0090445Y0096864D01*
X0090357Y0096998D01*
X0090272Y0097135D01*
X0090190Y0097273D01*
X0090112Y0097414D01*
X0090038Y0097556D01*
X0089967Y0097700D01*
X0089899Y0097846D01*
X0089836Y0097994D01*
X0089775Y0098143D01*
X0089719Y0098294D01*
X0089666Y0098446D01*
X0089617Y0098599D01*
X0089572Y0098753D01*
X0089531Y0098908D01*
X0089493Y0099065D01*
X0089460Y0099222D01*
X0089430Y0099380D01*
X0089404Y0099539D01*
X0089383Y0099698D01*
X0089365Y0099858D01*
X0089351Y0100018D01*
X0089341Y0100179D01*
X0089335Y0100339D01*
X0089333Y0100500D01*
X0306400Y0070854D02*
X0306402Y0070933D01*
X0306408Y0071012D01*
X0306418Y0071091D01*
X0306432Y0071169D01*
X0306449Y0071246D01*
X0306471Y0071322D01*
X0306496Y0071397D01*
X0306526Y0071470D01*
X0306558Y0071542D01*
X0306595Y0071613D01*
X0306635Y0071681D01*
X0306678Y0071747D01*
X0306724Y0071811D01*
X0306774Y0071873D01*
X0306827Y0071932D01*
X0306882Y0071988D01*
X0306941Y0072042D01*
X0307002Y0072092D01*
X0307065Y0072140D01*
X0307131Y0072184D01*
X0307199Y0072225D01*
X0307269Y0072262D01*
X0307340Y0072296D01*
X0307414Y0072326D01*
X0307488Y0072352D01*
X0307564Y0072374D01*
X0307641Y0072393D01*
X0307719Y0072408D01*
X0307797Y0072419D01*
X0307876Y0072426D01*
X0307955Y0072429D01*
X0308034Y0072428D01*
X0308113Y0072423D01*
X0308192Y0072414D01*
X0308270Y0072401D01*
X0308347Y0072384D01*
X0308424Y0072364D01*
X0308499Y0072339D01*
X0308573Y0072311D01*
X0308646Y0072279D01*
X0308716Y0072244D01*
X0308785Y0072205D01*
X0308852Y0072162D01*
X0308917Y0072116D01*
X0308979Y0072068D01*
X0309039Y0072016D01*
X0309096Y0071961D01*
X0309150Y0071903D01*
X0309201Y0071843D01*
X0309249Y0071780D01*
X0309294Y0071715D01*
X0309336Y0071647D01*
X0309374Y0071578D01*
X0309408Y0071507D01*
X0309439Y0071434D01*
X0309467Y0071359D01*
X0309490Y0071284D01*
X0309510Y0071207D01*
X0309526Y0071130D01*
X0309538Y0071051D01*
X0309546Y0070973D01*
X0309550Y0070894D01*
X0309550Y0070814D01*
X0309546Y0070735D01*
X0309538Y0070657D01*
X0309526Y0070578D01*
X0309510Y0070501D01*
X0309490Y0070424D01*
X0309467Y0070349D01*
X0309439Y0070274D01*
X0309408Y0070201D01*
X0309374Y0070130D01*
X0309336Y0070061D01*
X0309294Y0069993D01*
X0309249Y0069928D01*
X0309201Y0069865D01*
X0309150Y0069805D01*
X0309096Y0069747D01*
X0309039Y0069692D01*
X0308979Y0069640D01*
X0308917Y0069592D01*
X0308852Y0069546D01*
X0308785Y0069503D01*
X0308716Y0069464D01*
X0308646Y0069429D01*
X0308573Y0069397D01*
X0308499Y0069369D01*
X0308424Y0069344D01*
X0308347Y0069324D01*
X0308270Y0069307D01*
X0308192Y0069294D01*
X0308113Y0069285D01*
X0308034Y0069280D01*
X0307955Y0069279D01*
X0307876Y0069282D01*
X0307797Y0069289D01*
X0307719Y0069300D01*
X0307641Y0069315D01*
X0307564Y0069334D01*
X0307488Y0069356D01*
X0307414Y0069382D01*
X0307340Y0069412D01*
X0307269Y0069446D01*
X0307199Y0069483D01*
X0307131Y0069524D01*
X0307065Y0069568D01*
X0307002Y0069616D01*
X0306941Y0069666D01*
X0306882Y0069720D01*
X0306827Y0069776D01*
X0306774Y0069835D01*
X0306724Y0069897D01*
X0306678Y0069961D01*
X0306635Y0070027D01*
X0306595Y0070095D01*
X0306558Y0070166D01*
X0306526Y0070238D01*
X0306496Y0070311D01*
X0306471Y0070386D01*
X0306449Y0070462D01*
X0306432Y0070539D01*
X0306418Y0070617D01*
X0306408Y0070696D01*
X0306402Y0070775D01*
X0306400Y0070854D01*
X0330613Y0046642D02*
X0330615Y0046721D01*
X0330621Y0046800D01*
X0330631Y0046879D01*
X0330645Y0046957D01*
X0330662Y0047034D01*
X0330684Y0047110D01*
X0330709Y0047185D01*
X0330739Y0047258D01*
X0330771Y0047330D01*
X0330808Y0047401D01*
X0330848Y0047469D01*
X0330891Y0047535D01*
X0330937Y0047599D01*
X0330987Y0047661D01*
X0331040Y0047720D01*
X0331095Y0047776D01*
X0331154Y0047830D01*
X0331215Y0047880D01*
X0331278Y0047928D01*
X0331344Y0047972D01*
X0331412Y0048013D01*
X0331482Y0048050D01*
X0331553Y0048084D01*
X0331627Y0048114D01*
X0331701Y0048140D01*
X0331777Y0048162D01*
X0331854Y0048181D01*
X0331932Y0048196D01*
X0332010Y0048207D01*
X0332089Y0048214D01*
X0332168Y0048217D01*
X0332247Y0048216D01*
X0332326Y0048211D01*
X0332405Y0048202D01*
X0332483Y0048189D01*
X0332560Y0048172D01*
X0332637Y0048152D01*
X0332712Y0048127D01*
X0332786Y0048099D01*
X0332859Y0048067D01*
X0332929Y0048032D01*
X0332998Y0047993D01*
X0333065Y0047950D01*
X0333130Y0047904D01*
X0333192Y0047856D01*
X0333252Y0047804D01*
X0333309Y0047749D01*
X0333363Y0047691D01*
X0333414Y0047631D01*
X0333462Y0047568D01*
X0333507Y0047503D01*
X0333549Y0047435D01*
X0333587Y0047366D01*
X0333621Y0047295D01*
X0333652Y0047222D01*
X0333680Y0047147D01*
X0333703Y0047072D01*
X0333723Y0046995D01*
X0333739Y0046918D01*
X0333751Y0046839D01*
X0333759Y0046761D01*
X0333763Y0046682D01*
X0333763Y0046602D01*
X0333759Y0046523D01*
X0333751Y0046445D01*
X0333739Y0046366D01*
X0333723Y0046289D01*
X0333703Y0046212D01*
X0333680Y0046137D01*
X0333652Y0046062D01*
X0333621Y0045989D01*
X0333587Y0045918D01*
X0333549Y0045849D01*
X0333507Y0045781D01*
X0333462Y0045716D01*
X0333414Y0045653D01*
X0333363Y0045593D01*
X0333309Y0045535D01*
X0333252Y0045480D01*
X0333192Y0045428D01*
X0333130Y0045380D01*
X0333065Y0045334D01*
X0332998Y0045291D01*
X0332929Y0045252D01*
X0332859Y0045217D01*
X0332786Y0045185D01*
X0332712Y0045157D01*
X0332637Y0045132D01*
X0332560Y0045112D01*
X0332483Y0045095D01*
X0332405Y0045082D01*
X0332326Y0045073D01*
X0332247Y0045068D01*
X0332168Y0045067D01*
X0332089Y0045070D01*
X0332010Y0045077D01*
X0331932Y0045088D01*
X0331854Y0045103D01*
X0331777Y0045122D01*
X0331701Y0045144D01*
X0331627Y0045170D01*
X0331553Y0045200D01*
X0331482Y0045234D01*
X0331412Y0045271D01*
X0331344Y0045312D01*
X0331278Y0045356D01*
X0331215Y0045404D01*
X0331154Y0045454D01*
X0331095Y0045508D01*
X0331040Y0045564D01*
X0330987Y0045623D01*
X0330937Y0045685D01*
X0330891Y0045749D01*
X0330848Y0045815D01*
X0330808Y0045883D01*
X0330771Y0045954D01*
X0330739Y0046026D01*
X0330709Y0046099D01*
X0330684Y0046174D01*
X0330662Y0046250D01*
X0330645Y0046327D01*
X0330631Y0046405D01*
X0330621Y0046484D01*
X0330615Y0046563D01*
X0330613Y0046642D01*
X0353833Y0044500D02*
X0353835Y0044661D01*
X0353841Y0044821D01*
X0353851Y0044982D01*
X0353865Y0045142D01*
X0353883Y0045302D01*
X0353904Y0045461D01*
X0353930Y0045620D01*
X0353960Y0045778D01*
X0353993Y0045935D01*
X0354031Y0046092D01*
X0354072Y0046247D01*
X0354117Y0046401D01*
X0354166Y0046554D01*
X0354219Y0046706D01*
X0354275Y0046857D01*
X0354336Y0047006D01*
X0354399Y0047154D01*
X0354467Y0047300D01*
X0354538Y0047444D01*
X0354612Y0047586D01*
X0354690Y0047727D01*
X0354772Y0047865D01*
X0354857Y0048002D01*
X0354945Y0048136D01*
X0355037Y0048268D01*
X0355132Y0048398D01*
X0355230Y0048526D01*
X0355331Y0048651D01*
X0355435Y0048773D01*
X0355542Y0048893D01*
X0355652Y0049010D01*
X0355765Y0049125D01*
X0355881Y0049236D01*
X0356000Y0049345D01*
X0356121Y0049450D01*
X0356245Y0049553D01*
X0356371Y0049653D01*
X0356499Y0049749D01*
X0356630Y0049842D01*
X0356764Y0049932D01*
X0356899Y0050019D01*
X0357037Y0050102D01*
X0357176Y0050182D01*
X0357318Y0050258D01*
X0357461Y0050331D01*
X0357606Y0050400D01*
X0357753Y0050466D01*
X0357901Y0050528D01*
X0358051Y0050586D01*
X0358202Y0050641D01*
X0358355Y0050692D01*
X0358509Y0050739D01*
X0358664Y0050782D01*
X0358820Y0050821D01*
X0358976Y0050857D01*
X0359134Y0050888D01*
X0359292Y0050916D01*
X0359451Y0050940D01*
X0359611Y0050960D01*
X0359771Y0050976D01*
X0359931Y0050988D01*
X0360092Y0050996D01*
X0360253Y0051000D01*
X0360413Y0051000D01*
X0360574Y0050996D01*
X0360735Y0050988D01*
X0360895Y0050976D01*
X0361055Y0050960D01*
X0361215Y0050940D01*
X0361374Y0050916D01*
X0361532Y0050888D01*
X0361690Y0050857D01*
X0361846Y0050821D01*
X0362002Y0050782D01*
X0362157Y0050739D01*
X0362311Y0050692D01*
X0362464Y0050641D01*
X0362615Y0050586D01*
X0362765Y0050528D01*
X0362913Y0050466D01*
X0363060Y0050400D01*
X0363205Y0050331D01*
X0363348Y0050258D01*
X0363490Y0050182D01*
X0363629Y0050102D01*
X0363767Y0050019D01*
X0363902Y0049932D01*
X0364036Y0049842D01*
X0364167Y0049749D01*
X0364295Y0049653D01*
X0364421Y0049553D01*
X0364545Y0049450D01*
X0364666Y0049345D01*
X0364785Y0049236D01*
X0364901Y0049125D01*
X0365014Y0049010D01*
X0365124Y0048893D01*
X0365231Y0048773D01*
X0365335Y0048651D01*
X0365436Y0048526D01*
X0365534Y0048398D01*
X0365629Y0048268D01*
X0365721Y0048136D01*
X0365809Y0048002D01*
X0365894Y0047865D01*
X0365976Y0047727D01*
X0366054Y0047586D01*
X0366128Y0047444D01*
X0366199Y0047300D01*
X0366267Y0047154D01*
X0366330Y0047006D01*
X0366391Y0046857D01*
X0366447Y0046706D01*
X0366500Y0046554D01*
X0366549Y0046401D01*
X0366594Y0046247D01*
X0366635Y0046092D01*
X0366673Y0045935D01*
X0366706Y0045778D01*
X0366736Y0045620D01*
X0366762Y0045461D01*
X0366783Y0045302D01*
X0366801Y0045142D01*
X0366815Y0044982D01*
X0366825Y0044821D01*
X0366831Y0044661D01*
X0366833Y0044500D01*
X0366831Y0044339D01*
X0366825Y0044179D01*
X0366815Y0044018D01*
X0366801Y0043858D01*
X0366783Y0043698D01*
X0366762Y0043539D01*
X0366736Y0043380D01*
X0366706Y0043222D01*
X0366673Y0043065D01*
X0366635Y0042908D01*
X0366594Y0042753D01*
X0366549Y0042599D01*
X0366500Y0042446D01*
X0366447Y0042294D01*
X0366391Y0042143D01*
X0366330Y0041994D01*
X0366267Y0041846D01*
X0366199Y0041700D01*
X0366128Y0041556D01*
X0366054Y0041414D01*
X0365976Y0041273D01*
X0365894Y0041135D01*
X0365809Y0040998D01*
X0365721Y0040864D01*
X0365629Y0040732D01*
X0365534Y0040602D01*
X0365436Y0040474D01*
X0365335Y0040349D01*
X0365231Y0040227D01*
X0365124Y0040107D01*
X0365014Y0039990D01*
X0364901Y0039875D01*
X0364785Y0039764D01*
X0364666Y0039655D01*
X0364545Y0039550D01*
X0364421Y0039447D01*
X0364295Y0039347D01*
X0364167Y0039251D01*
X0364036Y0039158D01*
X0363902Y0039068D01*
X0363767Y0038981D01*
X0363629Y0038898D01*
X0363490Y0038818D01*
X0363348Y0038742D01*
X0363205Y0038669D01*
X0363060Y0038600D01*
X0362913Y0038534D01*
X0362765Y0038472D01*
X0362615Y0038414D01*
X0362464Y0038359D01*
X0362311Y0038308D01*
X0362157Y0038261D01*
X0362002Y0038218D01*
X0361846Y0038179D01*
X0361690Y0038143D01*
X0361532Y0038112D01*
X0361374Y0038084D01*
X0361215Y0038060D01*
X0361055Y0038040D01*
X0360895Y0038024D01*
X0360735Y0038012D01*
X0360574Y0038004D01*
X0360413Y0038000D01*
X0360253Y0038000D01*
X0360092Y0038004D01*
X0359931Y0038012D01*
X0359771Y0038024D01*
X0359611Y0038040D01*
X0359451Y0038060D01*
X0359292Y0038084D01*
X0359134Y0038112D01*
X0358976Y0038143D01*
X0358820Y0038179D01*
X0358664Y0038218D01*
X0358509Y0038261D01*
X0358355Y0038308D01*
X0358202Y0038359D01*
X0358051Y0038414D01*
X0357901Y0038472D01*
X0357753Y0038534D01*
X0357606Y0038600D01*
X0357461Y0038669D01*
X0357318Y0038742D01*
X0357176Y0038818D01*
X0357037Y0038898D01*
X0356899Y0038981D01*
X0356764Y0039068D01*
X0356630Y0039158D01*
X0356499Y0039251D01*
X0356371Y0039347D01*
X0356245Y0039447D01*
X0356121Y0039550D01*
X0356000Y0039655D01*
X0355881Y0039764D01*
X0355765Y0039875D01*
X0355652Y0039990D01*
X0355542Y0040107D01*
X0355435Y0040227D01*
X0355331Y0040349D01*
X0355230Y0040474D01*
X0355132Y0040602D01*
X0355037Y0040732D01*
X0354945Y0040864D01*
X0354857Y0040998D01*
X0354772Y0041135D01*
X0354690Y0041273D01*
X0354612Y0041414D01*
X0354538Y0041556D01*
X0354467Y0041700D01*
X0354399Y0041846D01*
X0354336Y0041994D01*
X0354275Y0042143D01*
X0354219Y0042294D01*
X0354166Y0042446D01*
X0354117Y0042599D01*
X0354072Y0042753D01*
X0354031Y0042908D01*
X0353993Y0043065D01*
X0353960Y0043222D01*
X0353930Y0043380D01*
X0353904Y0043539D01*
X0353883Y0043698D01*
X0353865Y0043858D01*
X0353851Y0044018D01*
X0353841Y0044179D01*
X0353835Y0044339D01*
X0353833Y0044500D01*
X0353833Y0100500D02*
X0353835Y0100661D01*
X0353841Y0100821D01*
X0353851Y0100982D01*
X0353865Y0101142D01*
X0353883Y0101302D01*
X0353904Y0101461D01*
X0353930Y0101620D01*
X0353960Y0101778D01*
X0353993Y0101935D01*
X0354031Y0102092D01*
X0354072Y0102247D01*
X0354117Y0102401D01*
X0354166Y0102554D01*
X0354219Y0102706D01*
X0354275Y0102857D01*
X0354336Y0103006D01*
X0354399Y0103154D01*
X0354467Y0103300D01*
X0354538Y0103444D01*
X0354612Y0103586D01*
X0354690Y0103727D01*
X0354772Y0103865D01*
X0354857Y0104002D01*
X0354945Y0104136D01*
X0355037Y0104268D01*
X0355132Y0104398D01*
X0355230Y0104526D01*
X0355331Y0104651D01*
X0355435Y0104773D01*
X0355542Y0104893D01*
X0355652Y0105010D01*
X0355765Y0105125D01*
X0355881Y0105236D01*
X0356000Y0105345D01*
X0356121Y0105450D01*
X0356245Y0105553D01*
X0356371Y0105653D01*
X0356499Y0105749D01*
X0356630Y0105842D01*
X0356764Y0105932D01*
X0356899Y0106019D01*
X0357037Y0106102D01*
X0357176Y0106182D01*
X0357318Y0106258D01*
X0357461Y0106331D01*
X0357606Y0106400D01*
X0357753Y0106466D01*
X0357901Y0106528D01*
X0358051Y0106586D01*
X0358202Y0106641D01*
X0358355Y0106692D01*
X0358509Y0106739D01*
X0358664Y0106782D01*
X0358820Y0106821D01*
X0358976Y0106857D01*
X0359134Y0106888D01*
X0359292Y0106916D01*
X0359451Y0106940D01*
X0359611Y0106960D01*
X0359771Y0106976D01*
X0359931Y0106988D01*
X0360092Y0106996D01*
X0360253Y0107000D01*
X0360413Y0107000D01*
X0360574Y0106996D01*
X0360735Y0106988D01*
X0360895Y0106976D01*
X0361055Y0106960D01*
X0361215Y0106940D01*
X0361374Y0106916D01*
X0361532Y0106888D01*
X0361690Y0106857D01*
X0361846Y0106821D01*
X0362002Y0106782D01*
X0362157Y0106739D01*
X0362311Y0106692D01*
X0362464Y0106641D01*
X0362615Y0106586D01*
X0362765Y0106528D01*
X0362913Y0106466D01*
X0363060Y0106400D01*
X0363205Y0106331D01*
X0363348Y0106258D01*
X0363490Y0106182D01*
X0363629Y0106102D01*
X0363767Y0106019D01*
X0363902Y0105932D01*
X0364036Y0105842D01*
X0364167Y0105749D01*
X0364295Y0105653D01*
X0364421Y0105553D01*
X0364545Y0105450D01*
X0364666Y0105345D01*
X0364785Y0105236D01*
X0364901Y0105125D01*
X0365014Y0105010D01*
X0365124Y0104893D01*
X0365231Y0104773D01*
X0365335Y0104651D01*
X0365436Y0104526D01*
X0365534Y0104398D01*
X0365629Y0104268D01*
X0365721Y0104136D01*
X0365809Y0104002D01*
X0365894Y0103865D01*
X0365976Y0103727D01*
X0366054Y0103586D01*
X0366128Y0103444D01*
X0366199Y0103300D01*
X0366267Y0103154D01*
X0366330Y0103006D01*
X0366391Y0102857D01*
X0366447Y0102706D01*
X0366500Y0102554D01*
X0366549Y0102401D01*
X0366594Y0102247D01*
X0366635Y0102092D01*
X0366673Y0101935D01*
X0366706Y0101778D01*
X0366736Y0101620D01*
X0366762Y0101461D01*
X0366783Y0101302D01*
X0366801Y0101142D01*
X0366815Y0100982D01*
X0366825Y0100821D01*
X0366831Y0100661D01*
X0366833Y0100500D01*
X0366831Y0100339D01*
X0366825Y0100179D01*
X0366815Y0100018D01*
X0366801Y0099858D01*
X0366783Y0099698D01*
X0366762Y0099539D01*
X0366736Y0099380D01*
X0366706Y0099222D01*
X0366673Y0099065D01*
X0366635Y0098908D01*
X0366594Y0098753D01*
X0366549Y0098599D01*
X0366500Y0098446D01*
X0366447Y0098294D01*
X0366391Y0098143D01*
X0366330Y0097994D01*
X0366267Y0097846D01*
X0366199Y0097700D01*
X0366128Y0097556D01*
X0366054Y0097414D01*
X0365976Y0097273D01*
X0365894Y0097135D01*
X0365809Y0096998D01*
X0365721Y0096864D01*
X0365629Y0096732D01*
X0365534Y0096602D01*
X0365436Y0096474D01*
X0365335Y0096349D01*
X0365231Y0096227D01*
X0365124Y0096107D01*
X0365014Y0095990D01*
X0364901Y0095875D01*
X0364785Y0095764D01*
X0364666Y0095655D01*
X0364545Y0095550D01*
X0364421Y0095447D01*
X0364295Y0095347D01*
X0364167Y0095251D01*
X0364036Y0095158D01*
X0363902Y0095068D01*
X0363767Y0094981D01*
X0363629Y0094898D01*
X0363490Y0094818D01*
X0363348Y0094742D01*
X0363205Y0094669D01*
X0363060Y0094600D01*
X0362913Y0094534D01*
X0362765Y0094472D01*
X0362615Y0094414D01*
X0362464Y0094359D01*
X0362311Y0094308D01*
X0362157Y0094261D01*
X0362002Y0094218D01*
X0361846Y0094179D01*
X0361690Y0094143D01*
X0361532Y0094112D01*
X0361374Y0094084D01*
X0361215Y0094060D01*
X0361055Y0094040D01*
X0360895Y0094024D01*
X0360735Y0094012D01*
X0360574Y0094004D01*
X0360413Y0094000D01*
X0360253Y0094000D01*
X0360092Y0094004D01*
X0359931Y0094012D01*
X0359771Y0094024D01*
X0359611Y0094040D01*
X0359451Y0094060D01*
X0359292Y0094084D01*
X0359134Y0094112D01*
X0358976Y0094143D01*
X0358820Y0094179D01*
X0358664Y0094218D01*
X0358509Y0094261D01*
X0358355Y0094308D01*
X0358202Y0094359D01*
X0358051Y0094414D01*
X0357901Y0094472D01*
X0357753Y0094534D01*
X0357606Y0094600D01*
X0357461Y0094669D01*
X0357318Y0094742D01*
X0357176Y0094818D01*
X0357037Y0094898D01*
X0356899Y0094981D01*
X0356764Y0095068D01*
X0356630Y0095158D01*
X0356499Y0095251D01*
X0356371Y0095347D01*
X0356245Y0095447D01*
X0356121Y0095550D01*
X0356000Y0095655D01*
X0355881Y0095764D01*
X0355765Y0095875D01*
X0355652Y0095990D01*
X0355542Y0096107D01*
X0355435Y0096227D01*
X0355331Y0096349D01*
X0355230Y0096474D01*
X0355132Y0096602D01*
X0355037Y0096732D01*
X0354945Y0096864D01*
X0354857Y0096998D01*
X0354772Y0097135D01*
X0354690Y0097273D01*
X0354612Y0097414D01*
X0354538Y0097556D01*
X0354467Y0097700D01*
X0354399Y0097846D01*
X0354336Y0097994D01*
X0354275Y0098143D01*
X0354219Y0098294D01*
X0354166Y0098446D01*
X0354117Y0098599D01*
X0354072Y0098753D01*
X0354031Y0098908D01*
X0353993Y0099065D01*
X0353960Y0099222D01*
X0353930Y0099380D01*
X0353904Y0099539D01*
X0353883Y0099698D01*
X0353865Y0099858D01*
X0353851Y0100018D01*
X0353841Y0100179D01*
X0353835Y0100339D01*
X0353833Y0100500D01*
M02*
