%
M48
M72
T01C0.0118
T02C0.0150
T03C0.0200
T04C0.0315
T05C0.0400
T06C0.1181
T07C0.1300
%
T01
X21043Y5856
X21437Y5856
X21830Y5856
X21830Y6250
X21437Y6250
X21043Y6250
X21043Y6644
X21437Y6644
X21830Y6644
T02
X4587Y2300
X6437Y2150
X7037Y2750
X8137Y3100
X8087Y3700
X7137Y4150
X7887Y5150
X8487Y5750
X7837Y5900
X7187Y6000
X6587Y5750
X6337Y5750
X6087Y5750
X6087Y5500
X6337Y5500
X6337Y5250
X6087Y5250
X5837Y5250
X5837Y5500
X4987Y5500
X5537Y6150
X7037Y6750
X7987Y7400
X8687Y7800
X9887Y7900
X10887Y7650
X11687Y7400
X12287Y7450
X13187Y7650
X13887Y7100
X14337Y7050
X16537Y6800
X16987Y6800
X17637Y6500
X17037Y6350
X17612Y6025
X18537Y6500
X18837Y6350
X19937Y6350
X19087Y5450
X20237Y4800
X20737Y4850
X21437Y4650
X22587Y4650
X24437Y4300
X26387Y3900
X24687Y5400
X27787Y5600
X24887Y6850
X25887Y7150
X23937Y7850
X22887Y7900
X21737Y7800
X20587Y8500
X19487Y8150
X17087Y8650
X22637Y8800
X15237Y6000
X16337Y5550
X17037Y4750
X15437Y4150
X17037Y4000
X17037Y3450
X15887Y3350
X16237Y2550
X17387Y2150
X18337Y2100
X18937Y2400
X19087Y3450
X18787Y4350
X13987Y2100
X13537Y2900
X12287Y2950
X11187Y3100
X11037Y3450
X10687Y4050
X11737Y4500
X12137Y4400
X12337Y4100
X12637Y3900
X12737Y5100
X12437Y5100
X12437Y5400
X12737Y5400
X13387Y5650
X12987Y6100
X11687Y5650
X11637Y5250
X10087Y6650
X5337Y6900
X4637Y6950
X3287Y6550
X3087Y6350
X2837Y6250
X2587Y6250
X2337Y6250
X1287Y5400
X2937Y4650
X3137Y4150
X937Y4350
X4387Y3100
X9237Y3150
X16037Y1950
X3137Y7350
X3887Y8650
X7137Y8650
T03
X14387Y8500
X14887Y8500
X15387Y8500
X15887Y8500
X16387Y8500
X16387Y8000
X15887Y8000
X15387Y8000
X14887Y8000
X14387Y8000
T04
X22851Y5335
X25272Y2914
T05
X6237Y3100
X5237Y3100
X5237Y7900
X6237Y7900
T06
X9802Y5203
T07
X1637Y2700
X1637Y8300
X28087Y8300
X28087Y2700
M30
