G75*
%MOIN*%
%OFA0B0*%
%FSLAX25Y25*%
%IPPOS*%
%LPD*%
%AMOC8*
5,1,8,0,0,1.08239X$1,22.5*
%
%ADD10C,0.03000*%
%ADD11C,0.06000*%
%ADD12C,0.01981*%
%ADD13C,0.02300*%
%ADD14C,0.01000*%
D10*
X0143867Y0080000D03*
X0148867Y0080000D03*
X0153867Y0080000D03*
X0158867Y0080000D03*
X0163867Y0080000D03*
X0163867Y0085000D03*
X0158867Y0085000D03*
X0153867Y0085000D03*
X0148867Y0085000D03*
X0143867Y0085000D03*
D11*
X0062367Y0079000D03*
X0052367Y0079000D03*
X0052367Y0031000D03*
X0062367Y0031000D03*
D12*
X0210430Y0058563D03*
X0214367Y0058563D03*
X0218304Y0058563D03*
X0218304Y0062500D03*
X0214367Y0062500D03*
X0210430Y0062500D03*
X0210430Y0066437D03*
X0214367Y0066437D03*
X0218304Y0066437D03*
D13*
X0199367Y0063500D03*
X0188367Y0063500D03*
X0185367Y0065000D03*
X0176367Y0065000D03*
X0170367Y0063500D03*
X0176117Y0060250D03*
X0163367Y0055500D03*
X0152367Y0060000D03*
X0133867Y0056500D03*
X0127367Y0054000D03*
X0124367Y0054000D03*
X0124367Y0051000D03*
X0127367Y0051000D03*
X0116367Y0052500D03*
X0116867Y0056500D03*
X0129867Y0061000D03*
X0138867Y0071000D03*
X0143367Y0070500D03*
X0131867Y0076500D03*
X0122867Y0074500D03*
X0116867Y0074000D03*
X0108867Y0076500D03*
X0098867Y0079000D03*
X0086867Y0078000D03*
X0079867Y0074000D03*
X0070367Y0067500D03*
X0055367Y0061500D03*
X0060867Y0057500D03*
X0063367Y0057500D03*
X0065867Y0057500D03*
X0063367Y0055000D03*
X0060867Y0055000D03*
X0058367Y0055000D03*
X0058367Y0052500D03*
X0060867Y0052500D03*
X0063367Y0052500D03*
X0049867Y0055000D03*
X0030867Y0063500D03*
X0028367Y0062500D03*
X0025867Y0062500D03*
X0023367Y0062500D03*
X0032867Y0065500D03*
X0046367Y0069500D03*
X0053367Y0069000D03*
X0071867Y0060000D03*
X0078367Y0059000D03*
X0084867Y0057500D03*
X0078867Y0051500D03*
X0071367Y0041500D03*
X0080867Y0037000D03*
X0081367Y0031000D03*
X0092367Y0031500D03*
X0110367Y0034500D03*
X0111867Y0031000D03*
X0122867Y0029500D03*
X0135367Y0029000D03*
X0139867Y0021000D03*
X0160367Y0019500D03*
X0173867Y0021500D03*
X0183367Y0021000D03*
X0189367Y0024000D03*
X0190867Y0034500D03*
X0170367Y0034500D03*
X0158867Y0033500D03*
X0170367Y0040000D03*
X0154367Y0041500D03*
X0170367Y0047500D03*
X0187867Y0043500D03*
X0202367Y0048000D03*
X0207367Y0048500D03*
X0214367Y0046500D03*
X0225867Y0046500D03*
X0244367Y0043000D03*
X0263867Y0039000D03*
X0246867Y0054000D03*
X0277867Y0056000D03*
X0248867Y0068500D03*
X0258867Y0071500D03*
X0239367Y0078500D03*
X0228867Y0079000D03*
X0217367Y0078000D03*
X0205867Y0085000D03*
X0194867Y0081500D03*
X0170867Y0086500D03*
X0169867Y0068000D03*
X0165367Y0068000D03*
X0190867Y0054500D03*
X0126367Y0039000D03*
X0123367Y0041000D03*
X0121367Y0044000D03*
X0117367Y0045000D03*
X0106867Y0040500D03*
X0070367Y0027500D03*
X0064367Y0021500D03*
X0045867Y0023000D03*
X0043867Y0031000D03*
X0031367Y0041500D03*
X0029367Y0046500D03*
X0012867Y0054000D03*
X0009367Y0043500D03*
X0031367Y0073500D03*
X0038867Y0086500D03*
X0071367Y0086500D03*
X0100867Y0066500D03*
X0162367Y0025500D03*
X0226367Y0088000D03*
D14*
X0007367Y0041752D02*
X0007367Y0018000D01*
X0158120Y0018000D01*
X0157717Y0018973D01*
X0157717Y0020027D01*
X0158121Y0021001D01*
X0158866Y0021747D01*
X0159840Y0022150D01*
X0160895Y0022150D01*
X0161869Y0021747D01*
X0162614Y0021001D01*
X0163017Y0020027D01*
X0163017Y0018973D01*
X0162614Y0018000D01*
X0289568Y0018000D01*
X0289568Y0091961D01*
X0007367Y0091961D01*
X0007367Y0045248D01*
X0007866Y0045747D01*
X0008840Y0046150D01*
X0009895Y0046150D01*
X0010869Y0045747D01*
X0011614Y0045001D01*
X0012017Y0044027D01*
X0012017Y0042973D01*
X0011614Y0041999D01*
X0010869Y0041253D01*
X0009895Y0040850D01*
X0008840Y0040850D01*
X0007866Y0041253D01*
X0007367Y0041752D01*
X0007367Y0040963D02*
X0008568Y0040963D01*
X0007367Y0039964D02*
X0029155Y0039964D01*
X0029121Y0039999D02*
X0029866Y0039253D01*
X0030840Y0038850D01*
X0031895Y0038850D01*
X0032869Y0039253D01*
X0033614Y0039999D01*
X0034017Y0040973D01*
X0034017Y0042027D01*
X0033614Y0043001D01*
X0032869Y0043747D01*
X0031895Y0044150D01*
X0030840Y0044150D01*
X0029866Y0043747D01*
X0029121Y0043001D01*
X0028717Y0042027D01*
X0028717Y0040973D01*
X0029121Y0039999D01*
X0028722Y0040963D02*
X0010167Y0040963D01*
X0011576Y0041961D02*
X0028717Y0041961D01*
X0029104Y0042960D02*
X0012012Y0042960D01*
X0012017Y0043958D02*
X0030378Y0043958D01*
X0032357Y0043958D02*
X0114931Y0043958D01*
X0115121Y0043499D02*
X0115866Y0042753D01*
X0116840Y0042350D01*
X0117895Y0042350D01*
X0118869Y0042753D01*
X0118972Y0042857D01*
X0119121Y0042499D01*
X0119866Y0041753D01*
X0120717Y0041401D01*
X0120717Y0040473D01*
X0121121Y0039499D01*
X0121866Y0038753D01*
X0122840Y0038350D01*
X0123768Y0038350D01*
X0124121Y0037499D01*
X0124866Y0036753D01*
X0125840Y0036350D01*
X0126895Y0036350D01*
X0127869Y0036753D01*
X0128614Y0037499D01*
X0129017Y0038473D01*
X0129017Y0039527D01*
X0128614Y0040501D01*
X0127869Y0041247D01*
X0126895Y0041650D01*
X0125967Y0041650D01*
X0125614Y0042501D01*
X0124869Y0043247D01*
X0124017Y0043599D01*
X0124017Y0044527D01*
X0123614Y0045501D01*
X0122869Y0046247D01*
X0121895Y0046650D01*
X0120840Y0046650D01*
X0119866Y0046247D01*
X0119762Y0046143D01*
X0119614Y0046501D01*
X0118869Y0047247D01*
X0117895Y0047650D01*
X0116840Y0047650D01*
X0115866Y0047247D01*
X0115121Y0046501D01*
X0114717Y0045527D01*
X0114717Y0044473D01*
X0115121Y0043499D01*
X0115660Y0042960D02*
X0107854Y0042960D01*
X0107395Y0043150D02*
X0106340Y0043150D01*
X0105366Y0042747D01*
X0104621Y0042001D01*
X0104217Y0041027D01*
X0104217Y0039973D01*
X0104621Y0038999D01*
X0105366Y0038253D01*
X0106340Y0037850D01*
X0107395Y0037850D01*
X0108369Y0038253D01*
X0109114Y0038999D01*
X0109517Y0039973D01*
X0109517Y0041027D01*
X0109114Y0042001D01*
X0108369Y0042747D01*
X0107395Y0043150D01*
X0105881Y0042960D02*
X0033631Y0042960D01*
X0034017Y0041961D02*
X0104604Y0041961D01*
X0104217Y0040963D02*
X0034013Y0040963D01*
X0033579Y0039964D02*
X0104221Y0039964D01*
X0104654Y0038966D02*
X0082649Y0038966D01*
X0082369Y0039247D02*
X0081395Y0039650D01*
X0080340Y0039650D01*
X0079366Y0039247D01*
X0078621Y0038501D01*
X0078217Y0037527D01*
X0078217Y0036473D01*
X0078621Y0035499D01*
X0079366Y0034753D01*
X0080340Y0034350D01*
X0081395Y0034350D01*
X0082369Y0034753D01*
X0083114Y0035499D01*
X0083517Y0036473D01*
X0083517Y0037527D01*
X0083114Y0038501D01*
X0082369Y0039247D01*
X0083335Y0037967D02*
X0106057Y0037967D01*
X0107678Y0037967D02*
X0123927Y0037967D01*
X0124651Y0036969D02*
X0111332Y0036969D01*
X0110895Y0037150D02*
X0111869Y0036747D01*
X0112614Y0036001D01*
X0113017Y0035027D01*
X0113017Y0033973D01*
X0112812Y0033477D01*
X0113369Y0033247D01*
X0114114Y0032501D01*
X0114517Y0031527D01*
X0114517Y0030473D01*
X0114114Y0029499D01*
X0113369Y0028753D01*
X0112395Y0028350D01*
X0111340Y0028350D01*
X0110366Y0028753D01*
X0109621Y0029499D01*
X0109217Y0030473D01*
X0109217Y0031527D01*
X0109423Y0032023D01*
X0108866Y0032253D01*
X0108121Y0032999D01*
X0107717Y0033973D01*
X0107717Y0035027D01*
X0108121Y0036001D01*
X0108866Y0036747D01*
X0109840Y0037150D01*
X0110895Y0037150D01*
X0109403Y0036969D02*
X0083517Y0036969D01*
X0083309Y0035970D02*
X0108108Y0035970D01*
X0107717Y0034972D02*
X0082587Y0034972D01*
X0079148Y0034972D02*
X0064015Y0034972D01*
X0064803Y0034645D02*
X0063223Y0035300D01*
X0061512Y0035300D01*
X0059932Y0034645D01*
X0058722Y0033436D01*
X0058067Y0031855D01*
X0058067Y0030145D01*
X0058722Y0028564D01*
X0059932Y0027355D01*
X0061512Y0026700D01*
X0063223Y0026700D01*
X0064803Y0027355D01*
X0066013Y0028564D01*
X0066667Y0030145D01*
X0066667Y0031855D01*
X0066013Y0033436D01*
X0064803Y0034645D01*
X0065475Y0033973D02*
X0091414Y0033973D01*
X0091840Y0034150D02*
X0090866Y0033747D01*
X0090121Y0033001D01*
X0089717Y0032027D01*
X0089717Y0030973D01*
X0090121Y0029999D01*
X0090866Y0029253D01*
X0091840Y0028850D01*
X0092895Y0028850D01*
X0093869Y0029253D01*
X0094614Y0029999D01*
X0095017Y0030973D01*
X0095017Y0032027D01*
X0094614Y0033001D01*
X0093869Y0033747D01*
X0092895Y0034150D01*
X0091840Y0034150D01*
X0093321Y0033973D02*
X0107717Y0033973D01*
X0108145Y0032975D02*
X0094625Y0032975D01*
X0095017Y0031976D02*
X0109403Y0031976D01*
X0109217Y0030978D02*
X0095017Y0030978D01*
X0094594Y0029979D02*
X0109422Y0029979D01*
X0110139Y0028981D02*
X0093210Y0028981D01*
X0091525Y0028981D02*
X0066185Y0028981D01*
X0066599Y0029979D02*
X0090141Y0029979D01*
X0089717Y0030978D02*
X0066667Y0030978D01*
X0066617Y0031976D02*
X0089717Y0031976D01*
X0090110Y0032975D02*
X0066204Y0032975D01*
X0060720Y0034972D02*
X0054015Y0034972D01*
X0054803Y0034645D02*
X0053223Y0035300D01*
X0051512Y0035300D01*
X0049932Y0034645D01*
X0048722Y0033436D01*
X0048067Y0031855D01*
X0048067Y0030145D01*
X0048722Y0028564D01*
X0049932Y0027355D01*
X0051512Y0026700D01*
X0053223Y0026700D01*
X0054803Y0027355D01*
X0056013Y0028564D01*
X0056667Y0030145D01*
X0056667Y0031855D01*
X0056013Y0033436D01*
X0054803Y0034645D01*
X0055475Y0033973D02*
X0059260Y0033973D01*
X0058531Y0032975D02*
X0056204Y0032975D01*
X0056617Y0031976D02*
X0058118Y0031976D01*
X0058067Y0030978D02*
X0056667Y0030978D01*
X0056599Y0029979D02*
X0058136Y0029979D01*
X0058550Y0028981D02*
X0056185Y0028981D01*
X0055431Y0027982D02*
X0059304Y0027982D01*
X0060827Y0026984D02*
X0053907Y0026984D01*
X0050827Y0026984D02*
X0024867Y0026984D01*
X0024867Y0027982D02*
X0049304Y0027982D01*
X0048550Y0028981D02*
X0024747Y0028981D01*
X0024867Y0028691D02*
X0023573Y0031815D01*
X0021182Y0034206D01*
X0018058Y0035500D01*
X0014677Y0035500D01*
X0011553Y0034206D01*
X0009161Y0031815D01*
X0007867Y0028691D01*
X0007867Y0025309D01*
X0009161Y0022185D01*
X0011553Y0019794D01*
X0014677Y0018500D01*
X0018058Y0018500D01*
X0021182Y0019794D01*
X0023573Y0022185D01*
X0024867Y0025309D01*
X0024867Y0028691D01*
X0024334Y0029979D02*
X0048136Y0029979D01*
X0048067Y0030978D02*
X0023920Y0030978D01*
X0023412Y0031976D02*
X0048118Y0031976D01*
X0048531Y0032975D02*
X0022414Y0032975D01*
X0021415Y0033973D02*
X0049260Y0033973D01*
X0050720Y0034972D02*
X0019334Y0034972D01*
X0013401Y0034972D02*
X0007367Y0034972D01*
X0007367Y0035970D02*
X0078426Y0035970D01*
X0078217Y0036969D02*
X0007367Y0036969D01*
X0007367Y0037967D02*
X0078400Y0037967D01*
X0079086Y0038966D02*
X0032174Y0038966D01*
X0030561Y0038966D02*
X0007367Y0038966D01*
X0007367Y0033973D02*
X0011320Y0033973D01*
X0010321Y0032975D02*
X0007367Y0032975D01*
X0007367Y0031976D02*
X0009323Y0031976D01*
X0008815Y0030978D02*
X0007367Y0030978D01*
X0007367Y0029979D02*
X0008401Y0029979D01*
X0007988Y0028981D02*
X0007367Y0028981D01*
X0007367Y0027982D02*
X0007867Y0027982D01*
X0007867Y0026984D02*
X0007367Y0026984D01*
X0007367Y0025985D02*
X0007867Y0025985D01*
X0008001Y0024987D02*
X0007367Y0024987D01*
X0007367Y0023988D02*
X0008415Y0023988D01*
X0008828Y0022990D02*
X0007367Y0022990D01*
X0007367Y0021991D02*
X0009356Y0021991D01*
X0010354Y0020993D02*
X0007367Y0020993D01*
X0007367Y0019994D02*
X0011353Y0019994D01*
X0013480Y0018996D02*
X0007367Y0018996D01*
X0019255Y0018996D02*
X0157717Y0018996D01*
X0157717Y0019994D02*
X0021382Y0019994D01*
X0022381Y0020993D02*
X0044127Y0020993D01*
X0044366Y0020753D02*
X0045340Y0020350D01*
X0046395Y0020350D01*
X0047369Y0020753D01*
X0048114Y0021499D01*
X0048517Y0022473D01*
X0048517Y0023527D01*
X0048114Y0024501D01*
X0047369Y0025247D01*
X0046395Y0025650D01*
X0045340Y0025650D01*
X0044366Y0025247D01*
X0043621Y0024501D01*
X0043217Y0023527D01*
X0043217Y0022473D01*
X0043621Y0021499D01*
X0044366Y0020753D01*
X0043417Y0021991D02*
X0023379Y0021991D01*
X0023907Y0022990D02*
X0043217Y0022990D01*
X0043408Y0023988D02*
X0024320Y0023988D01*
X0024734Y0024987D02*
X0044106Y0024987D01*
X0046367Y0027500D02*
X0046367Y0029000D01*
X0043867Y0031000D01*
X0046367Y0029000D02*
X0046367Y0036500D01*
X0056867Y0047000D01*
X0057367Y0047000D01*
X0058867Y0048500D01*
X0052367Y0055000D01*
X0049867Y0055000D01*
X0053866Y0059253D02*
X0054840Y0058850D01*
X0055895Y0058850D01*
X0056869Y0059253D01*
X0057614Y0059999D01*
X0058017Y0060973D01*
X0058017Y0062027D01*
X0057614Y0063001D01*
X0056869Y0063747D01*
X0055895Y0064150D01*
X0054840Y0064150D01*
X0053866Y0063747D01*
X0053121Y0063001D01*
X0052717Y0062027D01*
X0052717Y0060973D01*
X0053121Y0059999D01*
X0053866Y0059253D01*
X0054633Y0058936D02*
X0007367Y0058936D01*
X0007367Y0059934D02*
X0022636Y0059934D01*
X0022840Y0059850D02*
X0023895Y0059850D01*
X0024617Y0060149D01*
X0025340Y0059850D01*
X0026395Y0059850D01*
X0027117Y0060149D01*
X0027840Y0059850D01*
X0028895Y0059850D01*
X0029869Y0060253D01*
X0030465Y0060850D01*
X0031395Y0060850D01*
X0032369Y0061253D01*
X0033114Y0061999D01*
X0033481Y0062886D01*
X0034369Y0063253D01*
X0035114Y0063999D01*
X0035517Y0064973D01*
X0035517Y0066027D01*
X0035114Y0067001D01*
X0034369Y0067747D01*
X0033395Y0068150D01*
X0032340Y0068150D01*
X0031366Y0067747D01*
X0030621Y0067001D01*
X0030253Y0066114D01*
X0029366Y0065747D01*
X0028770Y0065150D01*
X0027840Y0065150D01*
X0027117Y0064851D01*
X0026395Y0065150D01*
X0025340Y0065150D01*
X0024617Y0064851D01*
X0023895Y0065150D01*
X0022840Y0065150D01*
X0021866Y0064747D01*
X0021121Y0064001D01*
X0020717Y0063027D01*
X0020717Y0061973D01*
X0021121Y0060999D01*
X0021866Y0060253D01*
X0022840Y0059850D01*
X0024099Y0059934D02*
X0025136Y0059934D01*
X0026599Y0059934D02*
X0027636Y0059934D01*
X0029099Y0059934D02*
X0053185Y0059934D01*
X0052734Y0060933D02*
X0031595Y0060933D01*
X0033047Y0061932D02*
X0052717Y0061932D01*
X0053091Y0062930D02*
X0033588Y0062930D01*
X0035044Y0063929D02*
X0054306Y0063929D01*
X0056429Y0063929D02*
X0100151Y0063929D01*
X0100340Y0063850D02*
X0101395Y0063850D01*
X0102369Y0064253D01*
X0103114Y0064999D01*
X0103517Y0065973D01*
X0103517Y0067027D01*
X0103114Y0068001D01*
X0102369Y0068747D01*
X0101395Y0069150D01*
X0100340Y0069150D01*
X0099366Y0068747D01*
X0098621Y0068001D01*
X0098217Y0067027D01*
X0098217Y0065973D01*
X0098621Y0064999D01*
X0099366Y0064253D01*
X0100340Y0063850D01*
X0101584Y0063929D02*
X0167717Y0063929D01*
X0167717Y0064027D02*
X0167717Y0062973D01*
X0168121Y0061999D01*
X0168866Y0061253D01*
X0169840Y0060850D01*
X0170895Y0060850D01*
X0171869Y0061253D01*
X0172614Y0061999D01*
X0173017Y0062973D01*
X0173017Y0064027D01*
X0172614Y0065001D01*
X0171869Y0065747D01*
X0171510Y0065895D01*
X0172114Y0066499D01*
X0172517Y0067473D01*
X0172517Y0068527D01*
X0172114Y0069501D01*
X0171369Y0070247D01*
X0170395Y0070650D01*
X0169340Y0070650D01*
X0168366Y0070247D01*
X0167621Y0069501D01*
X0167217Y0068527D01*
X0167217Y0067473D01*
X0167621Y0066499D01*
X0168366Y0065753D01*
X0168725Y0065605D01*
X0168121Y0065001D01*
X0167717Y0064027D01*
X0168090Y0064927D02*
X0103042Y0064927D01*
X0103498Y0065926D02*
X0168194Y0065926D01*
X0167445Y0066924D02*
X0103517Y0066924D01*
X0103147Y0067923D02*
X0142665Y0067923D01*
X0142840Y0067850D02*
X0143895Y0067850D01*
X0144869Y0068253D01*
X0145614Y0068999D01*
X0146017Y0069973D01*
X0146017Y0071027D01*
X0145614Y0072001D01*
X0144869Y0072747D01*
X0143895Y0073150D01*
X0142840Y0073150D01*
X0141866Y0072747D01*
X0141262Y0072143D01*
X0141114Y0072501D01*
X0140369Y0073247D01*
X0139395Y0073650D01*
X0138340Y0073650D01*
X0137366Y0073247D01*
X0136621Y0072501D01*
X0136217Y0071527D01*
X0136217Y0070473D01*
X0136621Y0069499D01*
X0137366Y0068753D01*
X0138340Y0068350D01*
X0139395Y0068350D01*
X0140369Y0068753D01*
X0140972Y0069357D01*
X0141121Y0068999D01*
X0141866Y0068253D01*
X0142840Y0067850D01*
X0144070Y0067923D02*
X0167217Y0067923D01*
X0167381Y0068921D02*
X0145536Y0068921D01*
X0145995Y0069920D02*
X0168039Y0069920D01*
X0165367Y0068000D02*
X0158867Y0080000D01*
X0156867Y0080000D01*
X0156867Y0079737D01*
X0157004Y0079228D01*
X0157267Y0078772D01*
X0157639Y0078400D01*
X0158095Y0078136D01*
X0158604Y0078000D01*
X0158867Y0078000D01*
X0158867Y0080000D01*
X0158867Y0080000D01*
X0156867Y0080000D01*
X0156867Y0080263D01*
X0157004Y0080772D01*
X0157267Y0081228D01*
X0157639Y0081600D01*
X0158095Y0081864D01*
X0158604Y0082000D01*
X0158867Y0082000D01*
X0158867Y0080000D01*
X0158867Y0080000D01*
X0158867Y0080000D01*
X0158867Y0076000D01*
X0159367Y0075500D01*
X0166867Y0075500D01*
X0170867Y0079500D01*
X0170867Y0086500D01*
X0166667Y0085557D02*
X0166241Y0086586D01*
X0165454Y0087374D01*
X0164424Y0087800D01*
X0163310Y0087800D01*
X0162281Y0087374D01*
X0161494Y0086586D01*
X0161367Y0086281D01*
X0161241Y0086586D01*
X0160454Y0087374D01*
X0159424Y0087800D01*
X0158310Y0087800D01*
X0157281Y0087374D01*
X0156494Y0086586D01*
X0156367Y0086281D01*
X0156241Y0086586D01*
X0155454Y0087374D01*
X0154424Y0087800D01*
X0153310Y0087800D01*
X0152281Y0087374D01*
X0151494Y0086586D01*
X0151367Y0086281D01*
X0151241Y0086586D01*
X0150454Y0087374D01*
X0149424Y0087800D01*
X0148310Y0087800D01*
X0147281Y0087374D01*
X0146494Y0086586D01*
X0146367Y0086281D01*
X0146241Y0086586D01*
X0145454Y0087374D01*
X0144424Y0087800D01*
X0143310Y0087800D01*
X0142281Y0087374D01*
X0141494Y0086586D01*
X0141067Y0085557D01*
X0141067Y0084443D01*
X0141494Y0083414D01*
X0142281Y0082626D01*
X0142586Y0082500D01*
X0142281Y0082374D01*
X0141494Y0081586D01*
X0141067Y0080557D01*
X0141067Y0079443D01*
X0141494Y0078414D01*
X0142281Y0077626D01*
X0143310Y0077200D01*
X0144424Y0077200D01*
X0145454Y0077626D01*
X0146241Y0078414D01*
X0146367Y0078719D01*
X0146494Y0078414D01*
X0147281Y0077626D01*
X0148310Y0077200D01*
X0149424Y0077200D01*
X0150454Y0077626D01*
X0151241Y0078414D01*
X0151667Y0079443D01*
X0151667Y0080557D01*
X0151241Y0081586D01*
X0150454Y0082374D01*
X0150149Y0082500D01*
X0150454Y0082626D01*
X0151241Y0083414D01*
X0151367Y0083719D01*
X0151494Y0083414D01*
X0152281Y0082626D01*
X0153310Y0082200D01*
X0154424Y0082200D01*
X0155454Y0082626D01*
X0156241Y0083414D01*
X0156367Y0083719D01*
X0156494Y0083414D01*
X0157281Y0082626D01*
X0158310Y0082200D01*
X0159424Y0082200D01*
X0160454Y0082626D01*
X0161241Y0083414D01*
X0161367Y0083719D01*
X0161494Y0083414D01*
X0162281Y0082626D01*
X0162586Y0082500D01*
X0162281Y0082374D01*
X0161494Y0081586D01*
X0161067Y0080557D01*
X0161067Y0079443D01*
X0161494Y0078414D01*
X0162281Y0077626D01*
X0163310Y0077200D01*
X0164424Y0077200D01*
X0165454Y0077626D01*
X0166241Y0078414D01*
X0166667Y0079443D01*
X0166667Y0080557D01*
X0166241Y0081586D01*
X0165454Y0082374D01*
X0165149Y0082500D01*
X0165454Y0082626D01*
X0166241Y0083414D01*
X0166667Y0084443D01*
X0166667Y0085557D01*
X0166527Y0085896D02*
X0272867Y0085896D01*
X0273280Y0086894D02*
X0165933Y0086894D01*
X0166667Y0084897D02*
X0272453Y0084897D01*
X0272367Y0084691D02*
X0272367Y0081309D01*
X0273661Y0078185D01*
X0276053Y0075794D01*
X0279177Y0074500D01*
X0282558Y0074500D01*
X0285682Y0075794D01*
X0288073Y0078185D01*
X0289367Y0081309D01*
X0289367Y0084691D01*
X0288073Y0087815D01*
X0285682Y0090206D01*
X0282558Y0091500D01*
X0279177Y0091500D01*
X0276053Y0090206D01*
X0273661Y0087815D01*
X0272367Y0084691D01*
X0272367Y0083899D02*
X0166442Y0083899D01*
X0165727Y0082900D02*
X0272367Y0082900D01*
X0272367Y0081902D02*
X0165925Y0081902D01*
X0166524Y0080903D02*
X0227023Y0080903D01*
X0227366Y0081247D02*
X0226621Y0080501D01*
X0226217Y0079527D01*
X0226217Y0078473D01*
X0226621Y0077499D01*
X0227366Y0076753D01*
X0228340Y0076350D01*
X0229395Y0076350D01*
X0230369Y0076753D01*
X0231114Y0077499D01*
X0231517Y0078473D01*
X0231517Y0079527D01*
X0231114Y0080501D01*
X0230369Y0081247D01*
X0229395Y0081650D01*
X0228340Y0081650D01*
X0227366Y0081247D01*
X0226374Y0079905D02*
X0219210Y0079905D01*
X0218869Y0080247D02*
X0219614Y0079501D01*
X0220017Y0078527D01*
X0220017Y0077473D01*
X0219614Y0076499D01*
X0218869Y0075753D01*
X0217895Y0075350D01*
X0216840Y0075350D01*
X0215866Y0075753D01*
X0215121Y0076499D01*
X0214717Y0077473D01*
X0214717Y0078527D01*
X0215121Y0079501D01*
X0215866Y0080247D01*
X0216840Y0080650D01*
X0217895Y0080650D01*
X0218869Y0080247D01*
X0219860Y0078906D02*
X0226217Y0078906D01*
X0226452Y0077908D02*
X0220017Y0077908D01*
X0219784Y0076909D02*
X0227211Y0076909D01*
X0230524Y0076909D02*
X0237211Y0076909D01*
X0237121Y0076999D02*
X0237866Y0076253D01*
X0238840Y0075850D01*
X0239895Y0075850D01*
X0240869Y0076253D01*
X0241614Y0076999D01*
X0242017Y0077973D01*
X0242017Y0079027D01*
X0241614Y0080001D01*
X0240869Y0080747D01*
X0239895Y0081150D01*
X0238840Y0081150D01*
X0237866Y0080747D01*
X0237121Y0080001D01*
X0236717Y0079027D01*
X0236717Y0077973D01*
X0237121Y0076999D01*
X0236744Y0077908D02*
X0231283Y0077908D01*
X0231517Y0078906D02*
X0236717Y0078906D01*
X0237081Y0079905D02*
X0231361Y0079905D01*
X0230712Y0080903D02*
X0238245Y0080903D01*
X0240490Y0080903D02*
X0272536Y0080903D01*
X0272949Y0079905D02*
X0241654Y0079905D01*
X0242017Y0078906D02*
X0273363Y0078906D01*
X0273939Y0077908D02*
X0241990Y0077908D01*
X0241524Y0076909D02*
X0274937Y0076909D01*
X0275936Y0075911D02*
X0240041Y0075911D01*
X0238694Y0075911D02*
X0219026Y0075911D01*
X0215709Y0075911D02*
X0134492Y0075911D01*
X0134517Y0075973D02*
X0134114Y0074999D01*
X0133369Y0074253D01*
X0132395Y0073850D01*
X0131340Y0073850D01*
X0130366Y0074253D01*
X0129621Y0074999D01*
X0129217Y0075973D01*
X0129217Y0077027D01*
X0129621Y0078001D01*
X0130366Y0078747D01*
X0131340Y0079150D01*
X0132395Y0079150D01*
X0133369Y0078747D01*
X0134114Y0078001D01*
X0134517Y0077027D01*
X0134517Y0075973D01*
X0134517Y0076909D02*
X0214951Y0076909D01*
X0214717Y0077908D02*
X0165735Y0077908D01*
X0166445Y0078906D02*
X0214874Y0078906D01*
X0215525Y0079905D02*
X0166667Y0079905D01*
X0162000Y0077908D02*
X0150735Y0077908D01*
X0151445Y0078906D02*
X0152190Y0078906D01*
X0152267Y0078772D02*
X0152639Y0078400D01*
X0153095Y0078136D01*
X0153604Y0078000D01*
X0153867Y0078000D01*
X0153867Y0080000D01*
X0151867Y0080000D01*
X0151867Y0079737D01*
X0152004Y0079228D01*
X0152267Y0078772D01*
X0151867Y0079905D02*
X0151667Y0079905D01*
X0151867Y0080000D02*
X0153867Y0080000D01*
X0153867Y0080000D01*
X0153867Y0080000D01*
X0153867Y0082000D01*
X0153604Y0082000D01*
X0153095Y0081864D01*
X0152639Y0081600D01*
X0152267Y0081228D01*
X0152004Y0080772D01*
X0151867Y0080263D01*
X0151867Y0080000D01*
X0152080Y0080903D02*
X0151524Y0080903D01*
X0150925Y0081902D02*
X0153238Y0081902D01*
X0153867Y0081902D02*
X0153867Y0081902D01*
X0153867Y0082000D02*
X0154131Y0082000D01*
X0154639Y0081864D01*
X0155095Y0081600D01*
X0155468Y0081228D01*
X0155731Y0080772D01*
X0155867Y0080263D01*
X0155867Y0080000D01*
X0153868Y0080000D01*
X0155867Y0080000D01*
X0155867Y0079737D01*
X0155731Y0079228D01*
X0155468Y0078772D01*
X0155095Y0078400D01*
X0154639Y0078136D01*
X0154131Y0078000D01*
X0153867Y0078000D01*
X0153867Y0080000D01*
X0153867Y0080000D01*
X0153867Y0082000D01*
X0154497Y0081902D02*
X0158238Y0081902D01*
X0158867Y0081902D02*
X0158867Y0081902D01*
X0158867Y0082000D02*
X0159131Y0082000D01*
X0159639Y0081864D01*
X0160095Y0081600D01*
X0160468Y0081228D01*
X0160731Y0080772D01*
X0160867Y0080263D01*
X0160867Y0080000D01*
X0158868Y0080000D01*
X0160867Y0080000D01*
X0160867Y0079737D01*
X0160731Y0079228D01*
X0160468Y0078772D01*
X0160095Y0078400D01*
X0159639Y0078136D01*
X0159131Y0078000D01*
X0158867Y0078000D01*
X0158867Y0080000D01*
X0158867Y0082000D01*
X0159497Y0081902D02*
X0161809Y0081902D01*
X0162007Y0082900D02*
X0160727Y0082900D01*
X0157007Y0082900D02*
X0155727Y0082900D01*
X0152007Y0082900D02*
X0150727Y0082900D01*
X0153867Y0080903D02*
X0153867Y0080903D01*
X0153868Y0080000D02*
X0153868Y0080000D01*
X0153867Y0079905D02*
X0153867Y0079905D01*
X0153867Y0078906D02*
X0153867Y0078906D01*
X0155545Y0078906D02*
X0157190Y0078906D01*
X0156867Y0079905D02*
X0155867Y0079905D01*
X0155655Y0080903D02*
X0157080Y0080903D01*
X0158867Y0080903D02*
X0158867Y0080903D01*
X0158868Y0080000D02*
X0158868Y0080000D01*
X0158867Y0079905D02*
X0158867Y0079905D01*
X0158867Y0078906D02*
X0158867Y0078906D01*
X0160545Y0078906D02*
X0161290Y0078906D01*
X0161067Y0079905D02*
X0160867Y0079905D01*
X0160655Y0080903D02*
X0161211Y0080903D01*
X0160933Y0086894D02*
X0161802Y0086894D01*
X0156802Y0086894D02*
X0155933Y0086894D01*
X0151802Y0086894D02*
X0150933Y0086894D01*
X0146802Y0086894D02*
X0145933Y0086894D01*
X0141802Y0086894D02*
X0074017Y0086894D01*
X0074017Y0087027D02*
X0073614Y0088001D01*
X0072869Y0088747D01*
X0071895Y0089150D01*
X0070840Y0089150D01*
X0069866Y0088747D01*
X0069121Y0088001D01*
X0068717Y0087027D01*
X0068717Y0085973D01*
X0069121Y0084999D01*
X0069866Y0084253D01*
X0070840Y0083850D01*
X0071895Y0083850D01*
X0072869Y0084253D01*
X0073614Y0084999D01*
X0074017Y0085973D01*
X0074017Y0087027D01*
X0073659Y0087893D02*
X0273739Y0087893D01*
X0274738Y0088891D02*
X0072519Y0088891D01*
X0070216Y0088891D02*
X0022497Y0088891D01*
X0023495Y0087893D02*
X0069076Y0087893D01*
X0068717Y0086894D02*
X0023955Y0086894D01*
X0023573Y0087815D02*
X0021182Y0090206D01*
X0018058Y0091500D01*
X0014677Y0091500D01*
X0011553Y0090206D01*
X0009161Y0087815D01*
X0007867Y0084691D01*
X0007867Y0081309D01*
X0009161Y0078185D01*
X0011553Y0075794D01*
X0014677Y0074500D01*
X0018058Y0074500D01*
X0021182Y0075794D01*
X0023573Y0078185D01*
X0024867Y0081309D01*
X0024867Y0084691D01*
X0023573Y0087815D01*
X0021498Y0089890D02*
X0275736Y0089890D01*
X0277700Y0090888D02*
X0019535Y0090888D01*
X0013200Y0090888D02*
X0007367Y0090888D01*
X0007367Y0089890D02*
X0011236Y0089890D01*
X0010238Y0088891D02*
X0007367Y0088891D01*
X0007367Y0087893D02*
X0009239Y0087893D01*
X0008780Y0086894D02*
X0007367Y0086894D01*
X0007367Y0085896D02*
X0008367Y0085896D01*
X0007953Y0084897D02*
X0007367Y0084897D01*
X0007367Y0083899D02*
X0007867Y0083899D01*
X0007867Y0082900D02*
X0007367Y0082900D01*
X0007367Y0081902D02*
X0007867Y0081902D01*
X0008036Y0080903D02*
X0007367Y0080903D01*
X0007367Y0079905D02*
X0008449Y0079905D01*
X0008863Y0078906D02*
X0007367Y0078906D01*
X0007367Y0077908D02*
X0009439Y0077908D01*
X0010437Y0076909D02*
X0007367Y0076909D01*
X0007367Y0075911D02*
X0011436Y0075911D01*
X0013682Y0074912D02*
X0007367Y0074912D01*
X0007367Y0073914D02*
X0028717Y0073914D01*
X0028717Y0074027D02*
X0028717Y0072973D01*
X0029121Y0071999D01*
X0029866Y0071253D01*
X0030840Y0070850D01*
X0031895Y0070850D01*
X0032869Y0071253D01*
X0033614Y0071999D01*
X0034017Y0072973D01*
X0034017Y0074027D01*
X0033614Y0075001D01*
X0032869Y0075747D01*
X0031895Y0076150D01*
X0030840Y0076150D01*
X0029866Y0075747D01*
X0029121Y0075001D01*
X0028717Y0074027D01*
X0029084Y0074912D02*
X0019053Y0074912D01*
X0021299Y0075911D02*
X0030263Y0075911D01*
X0032472Y0075911D02*
X0049376Y0075911D01*
X0049932Y0075355D02*
X0051512Y0074700D01*
X0053223Y0074700D01*
X0054803Y0075355D01*
X0056013Y0076564D01*
X0056667Y0078145D01*
X0056667Y0079855D01*
X0056013Y0081436D01*
X0054803Y0082645D01*
X0053223Y0083300D01*
X0051512Y0083300D01*
X0049932Y0082645D01*
X0048722Y0081436D01*
X0048067Y0079855D01*
X0048067Y0078145D01*
X0048722Y0076564D01*
X0049932Y0075355D01*
X0051000Y0074912D02*
X0033651Y0074912D01*
X0034017Y0073914D02*
X0077217Y0073914D01*
X0077217Y0073473D02*
X0077621Y0072499D01*
X0078366Y0071753D01*
X0079340Y0071350D01*
X0080395Y0071350D01*
X0081369Y0071753D01*
X0082114Y0072499D01*
X0082517Y0073473D01*
X0082517Y0074527D01*
X0082114Y0075501D01*
X0081369Y0076247D01*
X0080395Y0076650D01*
X0079340Y0076650D01*
X0078366Y0076247D01*
X0077621Y0075501D01*
X0077217Y0074527D01*
X0077217Y0073473D01*
X0077448Y0072915D02*
X0033994Y0072915D01*
X0033532Y0071917D02*
X0078203Y0071917D01*
X0081532Y0071917D02*
X0115203Y0071917D01*
X0115366Y0071753D02*
X0116340Y0071350D01*
X0117395Y0071350D01*
X0118369Y0071753D01*
X0119114Y0072499D01*
X0119517Y0073473D01*
X0119517Y0074527D01*
X0119114Y0075501D01*
X0118369Y0076247D01*
X0117395Y0076650D01*
X0116340Y0076650D01*
X0115366Y0076247D01*
X0114621Y0075501D01*
X0114217Y0074527D01*
X0114217Y0073473D01*
X0114621Y0072499D01*
X0115366Y0071753D01*
X0114448Y0072915D02*
X0082286Y0072915D01*
X0082517Y0073914D02*
X0114217Y0073914D01*
X0114377Y0074912D02*
X0082358Y0074912D01*
X0081704Y0075911D02*
X0115030Y0075911D01*
X0118704Y0075911D02*
X0120583Y0075911D01*
X0120621Y0076001D02*
X0120217Y0075027D01*
X0120217Y0073973D01*
X0120621Y0072999D01*
X0121366Y0072253D01*
X0122340Y0071850D01*
X0123395Y0071850D01*
X0124369Y0072253D01*
X0125114Y0072999D01*
X0125517Y0073973D01*
X0125517Y0075027D01*
X0125114Y0076001D01*
X0124369Y0076747D01*
X0123395Y0077150D01*
X0122340Y0077150D01*
X0121366Y0076747D01*
X0120621Y0076001D01*
X0120217Y0074912D02*
X0119358Y0074912D01*
X0119517Y0073914D02*
X0120242Y0073914D01*
X0120705Y0072915D02*
X0119286Y0072915D01*
X0118532Y0071917D02*
X0122179Y0071917D01*
X0123555Y0071917D02*
X0136379Y0071917D01*
X0136217Y0070918D02*
X0055197Y0070918D01*
X0054869Y0071247D02*
X0053895Y0071650D01*
X0052840Y0071650D01*
X0051866Y0071247D01*
X0051121Y0070501D01*
X0050717Y0069527D01*
X0050717Y0068473D01*
X0051121Y0067499D01*
X0051866Y0066753D01*
X0052840Y0066350D01*
X0053895Y0066350D01*
X0054869Y0066753D01*
X0055614Y0067499D01*
X0056017Y0068473D01*
X0056017Y0069527D01*
X0055614Y0070501D01*
X0054869Y0071247D01*
X0055855Y0069920D02*
X0136447Y0069920D01*
X0137199Y0068921D02*
X0101947Y0068921D01*
X0099788Y0068921D02*
X0056017Y0068921D01*
X0055789Y0067923D02*
X0098588Y0067923D01*
X0098217Y0066924D02*
X0055039Y0066924D01*
X0051696Y0066924D02*
X0035146Y0066924D01*
X0035517Y0065926D02*
X0098237Y0065926D01*
X0098693Y0064927D02*
X0035498Y0064927D01*
X0029799Y0065926D02*
X0007367Y0065926D01*
X0007367Y0066924D02*
X0030589Y0066924D01*
X0031791Y0067923D02*
X0007367Y0067923D01*
X0007367Y0068921D02*
X0050717Y0068921D01*
X0050880Y0069920D02*
X0007367Y0069920D01*
X0007367Y0070918D02*
X0030676Y0070918D01*
X0032059Y0070918D02*
X0051538Y0070918D01*
X0046367Y0069500D02*
X0038867Y0077000D01*
X0038867Y0086500D01*
X0049188Y0081902D02*
X0024867Y0081902D01*
X0024867Y0082900D02*
X0050547Y0082900D01*
X0054188Y0082900D02*
X0060547Y0082900D01*
X0059932Y0082645D02*
X0061512Y0083300D01*
X0063223Y0083300D01*
X0064803Y0082645D01*
X0066013Y0081436D01*
X0066667Y0079855D01*
X0066667Y0078145D01*
X0066013Y0076564D01*
X0064803Y0075355D01*
X0063223Y0074700D01*
X0061512Y0074700D01*
X0059932Y0075355D01*
X0058722Y0076564D01*
X0058067Y0078145D01*
X0058067Y0079855D01*
X0058722Y0081436D01*
X0059932Y0082645D01*
X0059188Y0081902D02*
X0055547Y0081902D01*
X0056233Y0080903D02*
X0058502Y0080903D01*
X0058088Y0079905D02*
X0056647Y0079905D01*
X0056667Y0078906D02*
X0058067Y0078906D01*
X0058166Y0077908D02*
X0056569Y0077908D01*
X0056156Y0076909D02*
X0058579Y0076909D01*
X0059376Y0075911D02*
X0055359Y0075911D01*
X0053735Y0074912D02*
X0061000Y0074912D01*
X0063735Y0074912D02*
X0077377Y0074912D01*
X0078030Y0075911D02*
X0065359Y0075911D01*
X0066156Y0076909D02*
X0097211Y0076909D01*
X0097366Y0076753D02*
X0098340Y0076350D01*
X0099395Y0076350D01*
X0100369Y0076753D01*
X0101114Y0077499D01*
X0101517Y0078473D01*
X0101517Y0079527D01*
X0101114Y0080501D01*
X0100369Y0081247D01*
X0099395Y0081650D01*
X0098340Y0081650D01*
X0097366Y0081247D01*
X0096621Y0080501D01*
X0096217Y0079527D01*
X0096217Y0078473D01*
X0096621Y0077499D01*
X0097366Y0076753D01*
X0096452Y0077908D02*
X0066569Y0077908D01*
X0066667Y0078906D02*
X0096217Y0078906D01*
X0096374Y0079905D02*
X0066647Y0079905D01*
X0066233Y0080903D02*
X0097023Y0080903D01*
X0100712Y0080903D02*
X0141211Y0080903D01*
X0141067Y0079905D02*
X0101361Y0079905D01*
X0101517Y0078906D02*
X0130752Y0078906D01*
X0129582Y0077908D02*
X0101283Y0077908D01*
X0100524Y0076909D02*
X0121759Y0076909D01*
X0123976Y0076909D02*
X0129217Y0076909D01*
X0129243Y0075911D02*
X0125151Y0075911D01*
X0125517Y0074912D02*
X0129708Y0074912D01*
X0131187Y0073914D02*
X0125493Y0073914D01*
X0125030Y0072915D02*
X0137035Y0072915D01*
X0134027Y0074912D02*
X0278182Y0074912D01*
X0283553Y0074912D02*
X0289568Y0074912D01*
X0289568Y0073914D02*
X0132548Y0073914D01*
X0140700Y0072915D02*
X0142273Y0072915D01*
X0144462Y0072915D02*
X0289568Y0072915D01*
X0289568Y0071917D02*
X0145649Y0071917D01*
X0146017Y0070918D02*
X0289568Y0070918D01*
X0289568Y0069920D02*
X0171695Y0069920D01*
X0172354Y0068921D02*
X0289568Y0068921D01*
X0289568Y0067923D02*
X0218519Y0067923D01*
X0218501Y0067928D02*
X0218880Y0067826D01*
X0219220Y0067630D01*
X0219497Y0067352D01*
X0219693Y0067012D01*
X0219795Y0066633D01*
X0219795Y0066437D01*
X0218305Y0066437D01*
X0218305Y0066437D01*
X0219795Y0066437D01*
X0219795Y0066241D01*
X0219693Y0065862D01*
X0219497Y0065522D01*
X0219220Y0065244D01*
X0218880Y0065048D01*
X0218501Y0064946D01*
X0218305Y0064946D01*
X0218305Y0066437D01*
X0218304Y0066437D01*
X0216814Y0066437D01*
X0216814Y0066241D01*
X0216915Y0065862D01*
X0217112Y0065522D01*
X0217389Y0065244D01*
X0217729Y0065048D01*
X0218108Y0064946D01*
X0218304Y0064946D01*
X0218304Y0066437D01*
X0218304Y0066437D01*
X0216814Y0066437D01*
X0216814Y0066633D01*
X0216915Y0067012D01*
X0217112Y0067352D01*
X0217389Y0067630D01*
X0217729Y0067826D01*
X0218108Y0067928D01*
X0218304Y0067928D01*
X0218304Y0066437D01*
X0218305Y0066437D01*
X0218305Y0067928D01*
X0218501Y0067928D01*
X0218305Y0067923D02*
X0218304Y0067923D01*
X0218090Y0067923D02*
X0214582Y0067923D01*
X0214564Y0067928D02*
X0214943Y0067826D01*
X0215283Y0067630D01*
X0215560Y0067352D01*
X0215756Y0067012D01*
X0215858Y0066633D01*
X0215858Y0066437D01*
X0214368Y0066437D01*
X0214368Y0066437D01*
X0215858Y0066437D01*
X0215858Y0066241D01*
X0215756Y0065862D01*
X0215560Y0065522D01*
X0215283Y0065244D01*
X0214943Y0065048D01*
X0214564Y0064946D01*
X0214367Y0064946D01*
X0214367Y0066437D01*
X0212877Y0066437D01*
X0212877Y0066241D01*
X0212978Y0065862D01*
X0213175Y0065522D01*
X0213452Y0065244D01*
X0213792Y0065048D01*
X0214171Y0064946D01*
X0214367Y0064946D01*
X0214367Y0066437D01*
X0214367Y0066437D01*
X0212877Y0066437D01*
X0212877Y0066633D01*
X0212978Y0067012D01*
X0213175Y0067352D01*
X0213452Y0067630D01*
X0213792Y0067826D01*
X0214171Y0067928D01*
X0214367Y0067928D01*
X0214367Y0066437D01*
X0214367Y0066437D01*
X0214367Y0066437D01*
X0218304Y0066437D01*
X0218304Y0062500D01*
X0216814Y0062500D01*
X0218304Y0062500D01*
X0218304Y0062500D01*
X0218305Y0062500D01*
X0219795Y0062500D01*
X0219795Y0062696D01*
X0219693Y0063075D01*
X0219497Y0063415D01*
X0219220Y0063693D01*
X0218880Y0063889D01*
X0218501Y0063991D01*
X0218305Y0063991D01*
X0218305Y0062500D01*
X0218305Y0062500D01*
X0219795Y0062500D01*
X0219795Y0062304D01*
X0219693Y0061925D01*
X0219497Y0061585D01*
X0219220Y0061307D01*
X0218880Y0061111D01*
X0218501Y0061009D01*
X0218305Y0061009D01*
X0218305Y0062500D01*
X0218304Y0062500D01*
X0218304Y0061009D01*
X0218108Y0061009D01*
X0217729Y0061111D01*
X0217389Y0061307D01*
X0217112Y0061585D01*
X0216915Y0061925D01*
X0216814Y0062304D01*
X0216814Y0062500D01*
X0216814Y0062696D01*
X0216915Y0063075D01*
X0217112Y0063415D01*
X0217389Y0063693D01*
X0217729Y0063889D01*
X0218108Y0063991D01*
X0218304Y0063991D01*
X0218304Y0062500D01*
X0218304Y0058563D01*
X0216814Y0058563D01*
X0218304Y0058563D01*
X0218304Y0058563D01*
X0218304Y0060054D01*
X0218108Y0060054D01*
X0217729Y0059952D01*
X0217389Y0059756D01*
X0217112Y0059478D01*
X0216915Y0059138D01*
X0216814Y0058759D01*
X0216814Y0058563D01*
X0216814Y0058367D01*
X0216915Y0057988D01*
X0217112Y0057648D01*
X0217389Y0057370D01*
X0217729Y0057174D01*
X0218108Y0057072D01*
X0218304Y0057072D01*
X0218304Y0058563D01*
X0218305Y0058563D01*
X0219795Y0058563D01*
X0219795Y0058759D01*
X0219693Y0059138D01*
X0219497Y0059478D01*
X0219220Y0059756D01*
X0218880Y0059952D01*
X0218501Y0060054D01*
X0218305Y0060054D01*
X0218305Y0058563D01*
X0218305Y0058563D01*
X0219795Y0058563D01*
X0219795Y0058367D01*
X0219693Y0057988D01*
X0219497Y0057648D01*
X0219220Y0057370D01*
X0218880Y0057174D01*
X0218501Y0057072D01*
X0218305Y0057072D01*
X0218305Y0058563D01*
X0218304Y0058563D01*
X0218304Y0058936D02*
X0218305Y0058936D01*
X0218304Y0059934D02*
X0218305Y0059934D01*
X0218910Y0059934D02*
X0289568Y0059934D01*
X0289568Y0058936D02*
X0219748Y0058936D01*
X0219664Y0057937D02*
X0276057Y0057937D01*
X0276366Y0058247D02*
X0275621Y0057501D01*
X0275217Y0056527D01*
X0275217Y0055473D01*
X0275621Y0054499D01*
X0276366Y0053753D01*
X0277340Y0053350D01*
X0278395Y0053350D01*
X0279369Y0053753D01*
X0280114Y0054499D01*
X0280517Y0055473D01*
X0280517Y0056527D01*
X0280114Y0057501D01*
X0279369Y0058247D01*
X0278395Y0058650D01*
X0277340Y0058650D01*
X0276366Y0058247D01*
X0275388Y0056939D02*
X0165640Y0056939D01*
X0165614Y0057001D02*
X0164869Y0057747D01*
X0163895Y0058150D01*
X0162840Y0058150D01*
X0161866Y0057747D01*
X0161121Y0057001D01*
X0160717Y0056027D01*
X0160717Y0054973D01*
X0161121Y0053999D01*
X0161866Y0053253D01*
X0162840Y0052850D01*
X0163895Y0052850D01*
X0164869Y0053253D01*
X0165614Y0053999D01*
X0166017Y0054973D01*
X0166017Y0056027D01*
X0165614Y0057001D01*
X0166017Y0055940D02*
X0226040Y0055940D01*
X0226484Y0056385D02*
X0225479Y0055379D01*
X0224934Y0054065D01*
X0224934Y0052643D01*
X0225479Y0051329D01*
X0226484Y0050324D01*
X0227798Y0049780D01*
X0229220Y0049780D01*
X0230534Y0050324D01*
X0231540Y0051329D01*
X0232084Y0052643D01*
X0232084Y0054065D01*
X0231540Y0055379D01*
X0230534Y0056385D01*
X0229220Y0056929D01*
X0227798Y0056929D01*
X0226484Y0056385D01*
X0225297Y0054942D02*
X0166005Y0054942D01*
X0165559Y0053943D02*
X0224934Y0053943D01*
X0224934Y0052945D02*
X0164124Y0052945D01*
X0162611Y0052945D02*
X0119017Y0052945D01*
X0119017Y0053027D02*
X0118614Y0054001D01*
X0118364Y0054251D01*
X0118369Y0054253D01*
X0119114Y0054999D01*
X0119517Y0055973D01*
X0119517Y0057027D01*
X0119114Y0058001D01*
X0118369Y0058747D01*
X0117395Y0059150D01*
X0116340Y0059150D01*
X0115366Y0058747D01*
X0114621Y0058001D01*
X0114217Y0057027D01*
X0114217Y0055973D01*
X0114621Y0054999D01*
X0114871Y0054749D01*
X0114866Y0054747D01*
X0114121Y0054001D01*
X0113717Y0053027D01*
X0113717Y0051973D01*
X0114121Y0050999D01*
X0114866Y0050253D01*
X0115840Y0049850D01*
X0116895Y0049850D01*
X0117869Y0050253D01*
X0118614Y0050999D01*
X0119017Y0051973D01*
X0119017Y0053027D01*
X0118638Y0053943D02*
X0133115Y0053943D01*
X0133340Y0053850D02*
X0132366Y0054253D01*
X0131621Y0054999D01*
X0131217Y0055973D01*
X0131217Y0057027D01*
X0131621Y0058001D01*
X0132366Y0058747D01*
X0133340Y0059150D01*
X0134395Y0059150D01*
X0135369Y0058747D01*
X0136114Y0058001D01*
X0136517Y0057027D01*
X0136517Y0055973D01*
X0136114Y0054999D01*
X0135369Y0054253D01*
X0134395Y0053850D01*
X0133340Y0053850D01*
X0134620Y0053943D02*
X0161176Y0053943D01*
X0160730Y0054942D02*
X0136057Y0054942D01*
X0136504Y0055940D02*
X0160717Y0055940D01*
X0161095Y0056939D02*
X0136517Y0056939D01*
X0136140Y0057937D02*
X0150682Y0057937D01*
X0150866Y0057753D02*
X0151840Y0057350D01*
X0152895Y0057350D01*
X0153869Y0057753D01*
X0154614Y0058499D01*
X0155017Y0059473D01*
X0155017Y0060527D01*
X0154614Y0061501D01*
X0153869Y0062247D01*
X0152895Y0062650D01*
X0151840Y0062650D01*
X0150866Y0062247D01*
X0150121Y0061501D01*
X0149717Y0060527D01*
X0149717Y0059473D01*
X0150121Y0058499D01*
X0150866Y0057753D01*
X0149940Y0058936D02*
X0134911Y0058936D01*
X0132824Y0058936D02*
X0131551Y0058936D01*
X0131369Y0058753D02*
X0132114Y0059499D01*
X0132517Y0060473D01*
X0132517Y0061527D01*
X0132114Y0062501D01*
X0131369Y0063247D01*
X0130395Y0063650D01*
X0129340Y0063650D01*
X0128366Y0063247D01*
X0127621Y0062501D01*
X0127217Y0061527D01*
X0127217Y0060473D01*
X0127621Y0059499D01*
X0128366Y0058753D01*
X0129340Y0058350D01*
X0130395Y0058350D01*
X0131369Y0058753D01*
X0131595Y0057937D02*
X0119140Y0057937D01*
X0119517Y0056939D02*
X0131217Y0056939D01*
X0131231Y0055940D02*
X0119504Y0055940D01*
X0119057Y0054942D02*
X0131678Y0054942D01*
X0128184Y0058936D02*
X0117911Y0058936D01*
X0115824Y0058936D02*
X0102010Y0058936D01*
X0102499Y0058733D02*
X0099593Y0059937D01*
X0096448Y0059937D01*
X0093543Y0058733D01*
X0091319Y0056510D01*
X0090115Y0053604D01*
X0090115Y0050459D01*
X0091319Y0047553D01*
X0093543Y0045330D01*
X0096448Y0044126D01*
X0099593Y0044126D01*
X0102499Y0045330D01*
X0104723Y0047553D01*
X0105926Y0050459D01*
X0105926Y0053604D01*
X0104723Y0056510D01*
X0102499Y0058733D01*
X0103295Y0057937D02*
X0114595Y0057937D01*
X0114217Y0056939D02*
X0104294Y0056939D01*
X0104959Y0055940D02*
X0114231Y0055940D01*
X0114678Y0054942D02*
X0105372Y0054942D01*
X0105786Y0053943D02*
X0114097Y0053943D01*
X0113717Y0052945D02*
X0105926Y0052945D01*
X0105926Y0051946D02*
X0113728Y0051946D01*
X0114172Y0050948D02*
X0105926Y0050948D01*
X0105715Y0049949D02*
X0115600Y0049949D01*
X0117134Y0049949D02*
X0200569Y0049949D01*
X0200866Y0050247D02*
X0200121Y0049501D01*
X0199717Y0048527D01*
X0199717Y0047473D01*
X0200121Y0046499D01*
X0200866Y0045753D01*
X0201840Y0045350D01*
X0202895Y0045350D01*
X0203869Y0045753D01*
X0204614Y0046499D01*
X0204971Y0047361D01*
X0205121Y0046999D01*
X0205866Y0046253D01*
X0206840Y0045850D01*
X0207895Y0045850D01*
X0208869Y0046253D01*
X0209614Y0046999D01*
X0210017Y0047973D01*
X0210017Y0049027D01*
X0209614Y0050001D01*
X0208869Y0050747D01*
X0207895Y0051150D01*
X0206840Y0051150D01*
X0205866Y0050747D01*
X0205121Y0050001D01*
X0204764Y0049139D01*
X0204614Y0049501D01*
X0203869Y0050247D01*
X0202895Y0050650D01*
X0201840Y0050650D01*
X0200866Y0050247D01*
X0199893Y0048951D02*
X0105302Y0048951D01*
X0104888Y0047952D02*
X0199717Y0047952D01*
X0199932Y0046954D02*
X0119161Y0046954D01*
X0115574Y0046954D02*
X0104123Y0046954D01*
X0103125Y0045955D02*
X0114895Y0045955D01*
X0114717Y0044957D02*
X0101599Y0044957D01*
X0094443Y0044957D02*
X0011632Y0044957D01*
X0010364Y0045955D02*
X0092917Y0045955D01*
X0091919Y0046954D02*
X0007367Y0046954D01*
X0007367Y0047952D02*
X0091154Y0047952D01*
X0090740Y0048951D02*
X0079638Y0048951D01*
X0079395Y0048850D02*
X0080369Y0049253D01*
X0081114Y0049999D01*
X0081517Y0050973D01*
X0081517Y0052027D01*
X0081114Y0053001D01*
X0080369Y0053747D01*
X0079395Y0054150D01*
X0078340Y0054150D01*
X0077366Y0053747D01*
X0076621Y0053001D01*
X0076217Y0052027D01*
X0076217Y0050973D01*
X0076621Y0049999D01*
X0077366Y0049253D01*
X0078340Y0048850D01*
X0079395Y0048850D01*
X0078097Y0048951D02*
X0007367Y0048951D01*
X0007367Y0049949D02*
X0076670Y0049949D01*
X0076228Y0050948D02*
X0007367Y0050948D01*
X0007367Y0051946D02*
X0076217Y0051946D01*
X0076598Y0052945D02*
X0007367Y0052945D01*
X0007367Y0053943D02*
X0077842Y0053943D01*
X0079893Y0053943D02*
X0090256Y0053943D01*
X0090115Y0052945D02*
X0081137Y0052945D01*
X0081517Y0051946D02*
X0090115Y0051946D01*
X0090115Y0050948D02*
X0081507Y0050948D01*
X0081064Y0049949D02*
X0090327Y0049949D01*
X0090670Y0054942D02*
X0085617Y0054942D01*
X0085395Y0054850D02*
X0086369Y0055253D01*
X0087114Y0055999D01*
X0087517Y0056973D01*
X0087517Y0058027D01*
X0087114Y0059001D01*
X0086369Y0059747D01*
X0085395Y0060150D01*
X0084340Y0060150D01*
X0083366Y0059747D01*
X0082621Y0059001D01*
X0082217Y0058027D01*
X0082217Y0056973D01*
X0082621Y0055999D01*
X0083366Y0055253D01*
X0084340Y0054850D01*
X0085395Y0054850D01*
X0084118Y0054942D02*
X0007367Y0054942D01*
X0007367Y0055940D02*
X0082679Y0055940D01*
X0082231Y0056939D02*
X0007367Y0056939D01*
X0007367Y0057937D02*
X0070182Y0057937D01*
X0070366Y0057753D02*
X0071340Y0057350D01*
X0072395Y0057350D01*
X0073369Y0057753D01*
X0074114Y0058499D01*
X0074517Y0059473D01*
X0074517Y0060527D01*
X0074114Y0061501D01*
X0073369Y0062247D01*
X0072395Y0062650D01*
X0071340Y0062650D01*
X0070366Y0062247D01*
X0069621Y0061501D01*
X0069217Y0060527D01*
X0069217Y0059473D01*
X0069621Y0058499D01*
X0070366Y0057753D01*
X0069440Y0058936D02*
X0056102Y0058936D01*
X0057550Y0059934D02*
X0069217Y0059934D01*
X0069386Y0060933D02*
X0058001Y0060933D01*
X0058017Y0061932D02*
X0070051Y0061932D01*
X0073684Y0061932D02*
X0127385Y0061932D01*
X0127217Y0060933D02*
X0074349Y0060933D01*
X0074517Y0059934D02*
X0083820Y0059934D01*
X0082594Y0058936D02*
X0074295Y0058936D01*
X0073553Y0057937D02*
X0082217Y0057937D01*
X0085915Y0059934D02*
X0096442Y0059934D01*
X0094032Y0058936D02*
X0087141Y0058936D01*
X0087517Y0057937D02*
X0092747Y0057937D01*
X0091748Y0056939D02*
X0087503Y0056939D01*
X0087056Y0055940D02*
X0091083Y0055940D01*
X0099600Y0059934D02*
X0127440Y0059934D01*
X0132294Y0059934D02*
X0149717Y0059934D01*
X0149886Y0060933D02*
X0132517Y0060933D01*
X0132350Y0061932D02*
X0150551Y0061932D01*
X0154184Y0061932D02*
X0168188Y0061932D01*
X0167735Y0062930D02*
X0131685Y0062930D01*
X0128050Y0062930D02*
X0057643Y0062930D01*
X0050945Y0067923D02*
X0033944Y0067923D01*
X0027302Y0064927D02*
X0026933Y0064927D01*
X0024802Y0064927D02*
X0024433Y0064927D01*
X0022302Y0064927D02*
X0007367Y0064927D01*
X0007367Y0063929D02*
X0021091Y0063929D01*
X0020717Y0062930D02*
X0007367Y0062930D01*
X0007367Y0061932D02*
X0020735Y0061932D01*
X0021187Y0060933D02*
X0007367Y0060933D01*
X0007367Y0071917D02*
X0029203Y0071917D01*
X0028741Y0072915D02*
X0007367Y0072915D01*
X0022297Y0076909D02*
X0048579Y0076909D01*
X0048166Y0077908D02*
X0023296Y0077908D01*
X0023872Y0078906D02*
X0048067Y0078906D01*
X0048088Y0079905D02*
X0024286Y0079905D01*
X0024699Y0080903D02*
X0048502Y0080903D01*
X0064188Y0082900D02*
X0142007Y0082900D01*
X0141809Y0081902D02*
X0065547Y0081902D01*
X0070723Y0083899D02*
X0024867Y0083899D01*
X0024782Y0084897D02*
X0069222Y0084897D01*
X0068749Y0085896D02*
X0024368Y0085896D01*
X0007367Y0091887D02*
X0289568Y0091887D01*
X0289568Y0090888D02*
X0284035Y0090888D01*
X0285998Y0089890D02*
X0289568Y0089890D01*
X0289568Y0088891D02*
X0286997Y0088891D01*
X0287995Y0087893D02*
X0289568Y0087893D01*
X0289568Y0086894D02*
X0288455Y0086894D01*
X0288868Y0085896D02*
X0289568Y0085896D01*
X0289568Y0084897D02*
X0289282Y0084897D01*
X0289367Y0083899D02*
X0289568Y0083899D01*
X0289568Y0082900D02*
X0289367Y0082900D01*
X0289367Y0081902D02*
X0289568Y0081902D01*
X0289568Y0080903D02*
X0289199Y0080903D01*
X0289568Y0079905D02*
X0288786Y0079905D01*
X0288372Y0078906D02*
X0289568Y0078906D01*
X0289568Y0077908D02*
X0287796Y0077908D01*
X0286797Y0076909D02*
X0289568Y0076909D01*
X0289568Y0075911D02*
X0285799Y0075911D01*
X0289568Y0066924D02*
X0219717Y0066924D01*
X0219711Y0065926D02*
X0289568Y0065926D01*
X0289568Y0064927D02*
X0201645Y0064927D01*
X0201614Y0065001D02*
X0200869Y0065747D01*
X0199895Y0066150D01*
X0198840Y0066150D01*
X0197866Y0065747D01*
X0197121Y0065001D01*
X0196717Y0064027D01*
X0196717Y0062973D01*
X0197121Y0061999D01*
X0197866Y0061253D01*
X0198840Y0060850D01*
X0199895Y0060850D01*
X0200869Y0061253D01*
X0201614Y0061999D01*
X0202017Y0062973D01*
X0202017Y0064027D01*
X0201614Y0065001D01*
X0202017Y0063929D02*
X0210003Y0063929D01*
X0209855Y0063889D02*
X0209515Y0063693D01*
X0209238Y0063415D01*
X0209041Y0063075D01*
X0208940Y0062696D01*
X0208940Y0062500D01*
X0208940Y0062304D01*
X0209041Y0061925D01*
X0209238Y0061585D01*
X0209515Y0061307D01*
X0209855Y0061111D01*
X0210234Y0061009D01*
X0210430Y0061009D01*
X0210430Y0062500D01*
X0208940Y0062500D01*
X0210430Y0062500D01*
X0210430Y0062500D01*
X0210430Y0062500D01*
X0210430Y0063991D01*
X0210234Y0063991D01*
X0209855Y0063889D01*
X0210430Y0063929D02*
X0210430Y0063929D01*
X0210430Y0063991D02*
X0210627Y0063991D01*
X0211006Y0063889D01*
X0211346Y0063693D01*
X0211623Y0063415D01*
X0211819Y0063075D01*
X0211921Y0062696D01*
X0211921Y0062500D01*
X0210431Y0062500D01*
X0210431Y0062500D01*
X0211921Y0062500D01*
X0211921Y0062304D01*
X0211819Y0061925D01*
X0211623Y0061585D01*
X0211346Y0061307D01*
X0211006Y0061111D01*
X0210627Y0061009D01*
X0210430Y0061009D01*
X0210430Y0062500D01*
X0210430Y0062500D01*
X0214367Y0062500D01*
X0212877Y0062500D01*
X0212877Y0062304D01*
X0212978Y0061925D01*
X0213175Y0061585D01*
X0213452Y0061307D01*
X0213792Y0061111D01*
X0214171Y0061009D01*
X0214367Y0061009D01*
X0214367Y0062500D01*
X0214367Y0062500D01*
X0212877Y0062500D01*
X0212877Y0062696D01*
X0212978Y0063075D01*
X0213175Y0063415D01*
X0213452Y0063693D01*
X0213792Y0063889D01*
X0214171Y0063991D01*
X0214367Y0063991D01*
X0214367Y0062500D01*
X0214367Y0062500D01*
X0214367Y0062500D01*
X0214367Y0059500D01*
X0213867Y0059000D01*
X0213930Y0059000D01*
X0214367Y0058563D01*
X0212877Y0058563D01*
X0214367Y0058563D01*
X0214367Y0058563D01*
X0214367Y0060054D01*
X0214171Y0060054D01*
X0213792Y0059952D01*
X0213452Y0059756D01*
X0213175Y0059478D01*
X0212978Y0059138D01*
X0212877Y0058759D01*
X0212877Y0058563D01*
X0212877Y0058367D01*
X0212978Y0057988D01*
X0213175Y0057648D01*
X0213452Y0057370D01*
X0213792Y0057174D01*
X0214171Y0057072D01*
X0214367Y0057072D01*
X0214367Y0058563D01*
X0214367Y0058563D01*
X0214367Y0058563D01*
X0210430Y0058563D01*
X0208940Y0058563D01*
X0210430Y0058563D01*
X0210430Y0058563D01*
X0210430Y0060054D01*
X0210234Y0060054D01*
X0209855Y0059952D01*
X0209515Y0059756D01*
X0209238Y0059478D01*
X0209041Y0059138D01*
X0208940Y0058759D01*
X0208940Y0058563D01*
X0208940Y0058367D01*
X0209041Y0057988D01*
X0209238Y0057648D01*
X0209515Y0057370D01*
X0209855Y0057174D01*
X0210234Y0057072D01*
X0210430Y0057072D01*
X0210430Y0058563D01*
X0210430Y0058563D01*
X0210430Y0058563D01*
X0210430Y0057072D01*
X0210627Y0057072D01*
X0211006Y0057174D01*
X0211346Y0057370D01*
X0211623Y0057648D01*
X0211819Y0057988D01*
X0211921Y0058367D01*
X0211921Y0058563D01*
X0211921Y0058759D01*
X0211819Y0059138D01*
X0211623Y0059478D01*
X0211346Y0059756D01*
X0211006Y0059952D01*
X0210627Y0060054D01*
X0210430Y0060054D01*
X0210430Y0058563D01*
X0210431Y0058563D02*
X0211921Y0058563D01*
X0210431Y0058563D01*
X0210431Y0058563D01*
X0210430Y0058936D02*
X0210430Y0058936D01*
X0210430Y0059934D02*
X0210430Y0059934D01*
X0209825Y0059934D02*
X0178767Y0059934D01*
X0178767Y0059723D02*
X0178767Y0060777D01*
X0178364Y0061751D01*
X0177619Y0062497D01*
X0177433Y0062573D01*
X0177869Y0062753D01*
X0178614Y0063499D01*
X0179017Y0064473D01*
X0179017Y0065527D01*
X0178614Y0066501D01*
X0177869Y0067247D01*
X0176895Y0067650D01*
X0175840Y0067650D01*
X0174866Y0067247D01*
X0174121Y0066501D01*
X0173717Y0065527D01*
X0173717Y0064473D01*
X0174121Y0063499D01*
X0174866Y0062753D01*
X0175051Y0062677D01*
X0174616Y0062497D01*
X0173871Y0061751D01*
X0173467Y0060777D01*
X0173467Y0059723D01*
X0173871Y0058749D01*
X0174616Y0058003D01*
X0175590Y0057600D01*
X0176645Y0057600D01*
X0177619Y0058003D01*
X0178364Y0058749D01*
X0178767Y0059723D01*
X0178441Y0058936D02*
X0208987Y0058936D01*
X0209070Y0057937D02*
X0177459Y0057937D01*
X0174776Y0057937D02*
X0164408Y0057937D01*
X0162327Y0057937D02*
X0154053Y0057937D01*
X0154795Y0058936D02*
X0173793Y0058936D01*
X0173467Y0059934D02*
X0155017Y0059934D01*
X0154849Y0060933D02*
X0169640Y0060933D01*
X0171095Y0060933D02*
X0173532Y0060933D01*
X0174051Y0061932D02*
X0172547Y0061932D01*
X0173000Y0062930D02*
X0174690Y0062930D01*
X0173943Y0063929D02*
X0173017Y0063929D01*
X0172645Y0064927D02*
X0173717Y0064927D01*
X0173882Y0065926D02*
X0171541Y0065926D01*
X0172290Y0066924D02*
X0174544Y0066924D01*
X0172517Y0067923D02*
X0210216Y0067923D01*
X0210234Y0067928D02*
X0209855Y0067826D01*
X0209515Y0067630D01*
X0209238Y0067352D01*
X0209041Y0067012D01*
X0208940Y0066633D01*
X0208940Y0066437D01*
X0208940Y0066241D01*
X0209041Y0065862D01*
X0209238Y0065522D01*
X0209515Y0065244D01*
X0209855Y0065048D01*
X0210234Y0064946D01*
X0210430Y0064946D01*
X0210430Y0066437D01*
X0208940Y0066437D01*
X0210430Y0066437D01*
X0210430Y0066437D01*
X0210430Y0066437D01*
X0210430Y0067928D01*
X0210234Y0067928D01*
X0210430Y0067923D02*
X0210430Y0067923D01*
X0210430Y0067928D02*
X0210430Y0066437D01*
X0210430Y0066437D01*
X0214367Y0066437D01*
X0214367Y0067928D01*
X0214564Y0067928D01*
X0214367Y0067923D02*
X0214367Y0067923D01*
X0214153Y0067923D02*
X0210645Y0067923D01*
X0210627Y0067928D02*
X0211006Y0067826D01*
X0211346Y0067630D01*
X0211623Y0067352D01*
X0211819Y0067012D01*
X0211921Y0066633D01*
X0211921Y0066437D01*
X0210431Y0066437D01*
X0210431Y0066437D01*
X0211921Y0066437D01*
X0211921Y0066241D01*
X0211819Y0065862D01*
X0211623Y0065522D01*
X0211346Y0065244D01*
X0211006Y0065048D01*
X0210627Y0064946D01*
X0210430Y0064946D01*
X0210430Y0066437D01*
X0206367Y0070500D01*
X0205867Y0085000D01*
X0198367Y0085000D01*
X0194867Y0081500D01*
X0190867Y0077500D01*
X0190867Y0054500D01*
X0176867Y0054000D01*
X0170367Y0047500D01*
X0164367Y0047500D01*
X0158867Y0042000D01*
X0158867Y0033500D01*
X0156867Y0031500D01*
X0139867Y0031500D01*
X0139867Y0038500D01*
X0127367Y0051000D01*
X0119006Y0051946D02*
X0225223Y0051946D01*
X0225860Y0050948D02*
X0208382Y0050948D01*
X0209635Y0049949D02*
X0227388Y0049949D01*
X0226875Y0048951D02*
X0289568Y0048951D01*
X0289568Y0049949D02*
X0229630Y0049949D01*
X0231158Y0050948D02*
X0289568Y0050948D01*
X0289568Y0051946D02*
X0231795Y0051946D01*
X0232084Y0052945D02*
X0289568Y0052945D01*
X0289568Y0053943D02*
X0279559Y0053943D01*
X0280298Y0054942D02*
X0289568Y0054942D01*
X0289568Y0055940D02*
X0280517Y0055940D01*
X0280347Y0056939D02*
X0289568Y0056939D01*
X0289568Y0057937D02*
X0279678Y0057937D01*
X0275217Y0055940D02*
X0230979Y0055940D01*
X0231721Y0054942D02*
X0275437Y0054942D01*
X0276176Y0053943D02*
X0232084Y0053943D01*
X0227369Y0048747D02*
X0226395Y0049150D01*
X0225340Y0049150D01*
X0224366Y0048747D01*
X0223621Y0048001D01*
X0223217Y0047027D01*
X0223217Y0045973D01*
X0223621Y0044999D01*
X0224366Y0044253D01*
X0225340Y0043850D01*
X0226395Y0043850D01*
X0227369Y0044253D01*
X0228114Y0044999D01*
X0228517Y0045973D01*
X0228517Y0047027D01*
X0228114Y0048001D01*
X0227369Y0048747D01*
X0228134Y0047952D02*
X0289568Y0047952D01*
X0289568Y0046954D02*
X0228517Y0046954D01*
X0228510Y0045955D02*
X0289568Y0045955D01*
X0289568Y0044957D02*
X0246158Y0044957D01*
X0245869Y0045247D02*
X0244895Y0045650D01*
X0243840Y0045650D01*
X0242866Y0045247D01*
X0242121Y0044501D01*
X0241717Y0043527D01*
X0241717Y0042473D01*
X0242121Y0041499D01*
X0242866Y0040753D01*
X0243840Y0040350D01*
X0244895Y0040350D01*
X0245869Y0040753D01*
X0246614Y0041499D01*
X0247017Y0042473D01*
X0247017Y0043527D01*
X0246614Y0044501D01*
X0245869Y0045247D01*
X0246839Y0043958D02*
X0289568Y0043958D01*
X0289568Y0042960D02*
X0247017Y0042960D01*
X0246806Y0041961D02*
X0289568Y0041961D01*
X0289568Y0040963D02*
X0246078Y0040963D01*
X0242657Y0040963D02*
X0188667Y0040963D01*
X0188395Y0040850D02*
X0189369Y0041253D01*
X0190114Y0041999D01*
X0190517Y0042973D01*
X0190517Y0044027D01*
X0190114Y0045001D01*
X0189369Y0045747D01*
X0188395Y0046150D01*
X0187340Y0046150D01*
X0186366Y0045747D01*
X0185621Y0045001D01*
X0185217Y0044027D01*
X0185217Y0042973D01*
X0185621Y0041999D01*
X0186366Y0041253D01*
X0187340Y0040850D01*
X0188395Y0040850D01*
X0187068Y0040963D02*
X0172837Y0040963D01*
X0173017Y0040527D02*
X0172614Y0041501D01*
X0171869Y0042247D01*
X0170895Y0042650D01*
X0169840Y0042650D01*
X0168866Y0042247D01*
X0168121Y0041501D01*
X0167717Y0040527D01*
X0167717Y0039473D01*
X0168121Y0038499D01*
X0168866Y0037753D01*
X0169840Y0037350D01*
X0170895Y0037350D01*
X0171869Y0037753D01*
X0172614Y0038499D01*
X0173017Y0039473D01*
X0173017Y0040527D01*
X0173017Y0039964D02*
X0289568Y0039964D01*
X0289568Y0038966D02*
X0172807Y0038966D01*
X0172082Y0037967D02*
X0289568Y0037967D01*
X0289568Y0036969D02*
X0171332Y0036969D01*
X0170895Y0037150D02*
X0169840Y0037150D01*
X0168866Y0036747D01*
X0168121Y0036001D01*
X0167717Y0035027D01*
X0167717Y0033973D01*
X0168121Y0032999D01*
X0168866Y0032253D01*
X0169840Y0031850D01*
X0170895Y0031850D01*
X0171869Y0032253D01*
X0172614Y0032999D01*
X0173017Y0033973D01*
X0173017Y0035027D01*
X0172614Y0036001D01*
X0171869Y0036747D01*
X0170895Y0037150D01*
X0169403Y0036969D02*
X0128084Y0036969D01*
X0128808Y0037967D02*
X0168653Y0037967D01*
X0167927Y0038966D02*
X0155174Y0038966D01*
X0154895Y0038850D02*
X0155869Y0039253D01*
X0156614Y0039999D01*
X0157017Y0040973D01*
X0157017Y0042027D01*
X0156614Y0043001D01*
X0155869Y0043747D01*
X0154895Y0044150D01*
X0153840Y0044150D01*
X0152866Y0043747D01*
X0152121Y0043001D01*
X0151717Y0042027D01*
X0151717Y0040973D01*
X0152121Y0039999D01*
X0152866Y0039253D01*
X0153840Y0038850D01*
X0154895Y0038850D01*
X0153561Y0038966D02*
X0129017Y0038966D01*
X0128836Y0039964D02*
X0152155Y0039964D01*
X0151722Y0040963D02*
X0128152Y0040963D01*
X0125838Y0041961D02*
X0151717Y0041961D01*
X0152104Y0042960D02*
X0125155Y0042960D01*
X0124017Y0043958D02*
X0153378Y0043958D01*
X0155357Y0043958D02*
X0185217Y0043958D01*
X0185223Y0042960D02*
X0156631Y0042960D01*
X0157017Y0041961D02*
X0168581Y0041961D01*
X0167898Y0040963D02*
X0157013Y0040963D01*
X0156579Y0039964D02*
X0167717Y0039964D01*
X0172154Y0041961D02*
X0185658Y0041961D01*
X0190076Y0041961D02*
X0241929Y0041961D01*
X0241717Y0042960D02*
X0190512Y0042960D01*
X0190517Y0043958D02*
X0213579Y0043958D01*
X0213840Y0043850D02*
X0214895Y0043850D01*
X0215869Y0044253D01*
X0216614Y0044999D01*
X0217017Y0045973D01*
X0217017Y0047027D01*
X0216614Y0048001D01*
X0215869Y0048747D01*
X0214895Y0049150D01*
X0213840Y0049150D01*
X0212866Y0048747D01*
X0212121Y0048001D01*
X0211717Y0047027D01*
X0211717Y0045973D01*
X0212121Y0044999D01*
X0212866Y0044253D01*
X0213840Y0043850D01*
X0215156Y0043958D02*
X0225079Y0043958D01*
X0226656Y0043958D02*
X0241896Y0043958D01*
X0242577Y0044957D02*
X0228072Y0044957D01*
X0223663Y0044957D02*
X0216572Y0044957D01*
X0217010Y0045955D02*
X0223225Y0045955D01*
X0223217Y0046954D02*
X0217017Y0046954D01*
X0216634Y0047952D02*
X0223601Y0047952D01*
X0224860Y0048951D02*
X0215375Y0048951D01*
X0213360Y0048951D02*
X0210017Y0048951D01*
X0210009Y0047952D02*
X0212101Y0047952D01*
X0211717Y0046954D02*
X0209569Y0046954D01*
X0208149Y0045955D02*
X0211725Y0045955D01*
X0212163Y0044957D02*
X0190132Y0044957D01*
X0188864Y0045955D02*
X0200664Y0045955D01*
X0204070Y0045955D02*
X0206586Y0045955D01*
X0205166Y0046954D02*
X0204802Y0046954D01*
X0205099Y0049949D02*
X0204166Y0049949D01*
X0206352Y0050948D02*
X0118563Y0050948D01*
X0123160Y0045955D02*
X0186870Y0045955D01*
X0185603Y0044957D02*
X0123839Y0044957D01*
X0120717Y0040963D02*
X0109517Y0040963D01*
X0109514Y0039964D02*
X0120928Y0039964D01*
X0121654Y0038966D02*
X0109081Y0038966D01*
X0109130Y0041961D02*
X0119658Y0041961D01*
X0112627Y0035970D02*
X0168108Y0035970D01*
X0167717Y0034972D02*
X0113017Y0034972D01*
X0113017Y0033973D02*
X0167717Y0033973D01*
X0168145Y0032975D02*
X0113640Y0032975D01*
X0114331Y0031976D02*
X0169536Y0031976D01*
X0171199Y0031976D02*
X0250501Y0031976D01*
X0250697Y0032172D02*
X0249691Y0031167D01*
X0249147Y0029853D01*
X0249147Y0028431D01*
X0249691Y0027117D01*
X0250697Y0026111D01*
X0252011Y0025567D01*
X0253433Y0025567D01*
X0254747Y0026111D01*
X0255752Y0027117D01*
X0256297Y0028431D01*
X0256297Y0029853D01*
X0255752Y0031167D01*
X0254747Y0032172D01*
X0253433Y0032717D01*
X0252011Y0032717D01*
X0250697Y0032172D01*
X0249613Y0030978D02*
X0137137Y0030978D01*
X0136869Y0031247D02*
X0135895Y0031650D01*
X0134840Y0031650D01*
X0133866Y0031247D01*
X0133121Y0030501D01*
X0132717Y0029527D01*
X0132717Y0028473D01*
X0133121Y0027499D01*
X0133866Y0026753D01*
X0134840Y0026350D01*
X0135895Y0026350D01*
X0136869Y0026753D01*
X0137614Y0027499D01*
X0138017Y0028473D01*
X0138017Y0029527D01*
X0137614Y0030501D01*
X0136869Y0031247D01*
X0137830Y0029979D02*
X0249199Y0029979D01*
X0249147Y0028981D02*
X0138017Y0028981D01*
X0137814Y0027982D02*
X0161435Y0027982D01*
X0161840Y0028150D02*
X0160866Y0027747D01*
X0160121Y0027001D01*
X0159717Y0026027D01*
X0159717Y0024973D01*
X0160121Y0023999D01*
X0160866Y0023253D01*
X0161840Y0022850D01*
X0162895Y0022850D01*
X0163869Y0023253D01*
X0164614Y0023999D01*
X0165017Y0024973D01*
X0165017Y0026027D01*
X0164614Y0027001D01*
X0163869Y0027747D01*
X0162895Y0028150D01*
X0161840Y0028150D01*
X0163300Y0027982D02*
X0249333Y0027982D01*
X0249824Y0026984D02*
X0164621Y0026984D01*
X0165017Y0025985D02*
X0187605Y0025985D01*
X0187866Y0026247D02*
X0187121Y0025501D01*
X0186717Y0024527D01*
X0186717Y0023473D01*
X0187121Y0022499D01*
X0187866Y0021753D01*
X0188840Y0021350D01*
X0189895Y0021350D01*
X0190869Y0021753D01*
X0191614Y0022499D01*
X0192017Y0023473D01*
X0192017Y0024527D01*
X0191614Y0025501D01*
X0190869Y0026247D01*
X0189895Y0026650D01*
X0188840Y0026650D01*
X0187866Y0026247D01*
X0186908Y0024987D02*
X0165017Y0024987D01*
X0164603Y0023988D02*
X0172949Y0023988D01*
X0173340Y0024150D02*
X0172366Y0023747D01*
X0171621Y0023001D01*
X0171217Y0022027D01*
X0171217Y0020973D01*
X0171621Y0019999D01*
X0172366Y0019253D01*
X0173340Y0018850D01*
X0174395Y0018850D01*
X0175369Y0019253D01*
X0176114Y0019999D01*
X0176517Y0020973D01*
X0176517Y0022027D01*
X0176114Y0023001D01*
X0175369Y0023747D01*
X0174395Y0024150D01*
X0173340Y0024150D01*
X0174785Y0023988D02*
X0186717Y0023988D01*
X0186918Y0022990D02*
X0185126Y0022990D01*
X0184869Y0023247D02*
X0183895Y0023650D01*
X0182840Y0023650D01*
X0181866Y0023247D01*
X0181121Y0022501D01*
X0180717Y0021527D01*
X0180717Y0020473D01*
X0181121Y0019499D01*
X0181866Y0018753D01*
X0182840Y0018350D01*
X0183895Y0018350D01*
X0184869Y0018753D01*
X0185614Y0019499D01*
X0186017Y0020473D01*
X0186017Y0021527D01*
X0185614Y0022501D01*
X0184869Y0023247D01*
X0185825Y0021991D02*
X0187629Y0021991D01*
X0186017Y0020993D02*
X0274854Y0020993D01*
X0273856Y0021991D02*
X0191106Y0021991D01*
X0191817Y0022990D02*
X0273328Y0022990D01*
X0273661Y0022185D02*
X0276053Y0019794D01*
X0279177Y0018500D01*
X0282558Y0018500D01*
X0285682Y0019794D01*
X0288073Y0022185D01*
X0289367Y0025309D01*
X0289367Y0028691D01*
X0288073Y0031815D01*
X0285682Y0034206D01*
X0282558Y0035500D01*
X0279177Y0035500D01*
X0276053Y0034206D01*
X0273661Y0031815D01*
X0272367Y0028691D01*
X0272367Y0025309D01*
X0273661Y0022185D01*
X0275853Y0019994D02*
X0185819Y0019994D01*
X0185111Y0018996D02*
X0277980Y0018996D01*
X0283755Y0018996D02*
X0289568Y0018996D01*
X0289568Y0019994D02*
X0285882Y0019994D01*
X0286881Y0020993D02*
X0289568Y0020993D01*
X0289568Y0021991D02*
X0287879Y0021991D01*
X0288407Y0022990D02*
X0289568Y0022990D01*
X0289568Y0023988D02*
X0288820Y0023988D01*
X0289234Y0024987D02*
X0289568Y0024987D01*
X0289568Y0025985D02*
X0289367Y0025985D01*
X0289367Y0026984D02*
X0289568Y0026984D01*
X0289568Y0027982D02*
X0289367Y0027982D01*
X0289247Y0028981D02*
X0289568Y0028981D01*
X0289568Y0029979D02*
X0288834Y0029979D01*
X0288420Y0030978D02*
X0289568Y0030978D01*
X0289568Y0031976D02*
X0287912Y0031976D01*
X0286914Y0032975D02*
X0289568Y0032975D01*
X0289568Y0033973D02*
X0285915Y0033973D01*
X0283834Y0034972D02*
X0289568Y0034972D01*
X0289568Y0035970D02*
X0172627Y0035970D01*
X0173017Y0034972D02*
X0277901Y0034972D01*
X0275820Y0033973D02*
X0173017Y0033973D01*
X0172590Y0032975D02*
X0274821Y0032975D01*
X0273823Y0031976D02*
X0254943Y0031976D01*
X0255831Y0030978D02*
X0273315Y0030978D01*
X0272901Y0029979D02*
X0256244Y0029979D01*
X0256297Y0028981D02*
X0272488Y0028981D01*
X0272367Y0027982D02*
X0256111Y0027982D01*
X0255619Y0026984D02*
X0272367Y0026984D01*
X0272367Y0025985D02*
X0254442Y0025985D01*
X0251001Y0025985D02*
X0191130Y0025985D01*
X0191827Y0024987D02*
X0272501Y0024987D01*
X0272915Y0023988D02*
X0192017Y0023988D01*
X0181609Y0022990D02*
X0176119Y0022990D01*
X0176517Y0021991D02*
X0180910Y0021991D01*
X0180717Y0020993D02*
X0176517Y0020993D01*
X0176109Y0019994D02*
X0180916Y0019994D01*
X0181624Y0018996D02*
X0174746Y0018996D01*
X0172989Y0018996D02*
X0163017Y0018996D01*
X0163017Y0019994D02*
X0171626Y0019994D01*
X0171217Y0020993D02*
X0162618Y0020993D01*
X0161278Y0021991D02*
X0171217Y0021991D01*
X0171616Y0022990D02*
X0163232Y0022990D01*
X0161503Y0022990D02*
X0048517Y0022990D01*
X0048327Y0023988D02*
X0160132Y0023988D01*
X0159717Y0024987D02*
X0047628Y0024987D01*
X0046367Y0027500D02*
X0052367Y0021500D01*
X0064367Y0021500D01*
X0070367Y0027500D01*
X0073367Y0031000D01*
X0081367Y0031000D01*
X0065431Y0027982D02*
X0132921Y0027982D01*
X0132717Y0028981D02*
X0113596Y0028981D01*
X0114313Y0029979D02*
X0132905Y0029979D01*
X0133597Y0030978D02*
X0114517Y0030978D01*
X0133636Y0026984D02*
X0063907Y0026984D01*
X0048318Y0021991D02*
X0159457Y0021991D01*
X0158117Y0020993D02*
X0047608Y0020993D01*
X0024867Y0025985D02*
X0159717Y0025985D01*
X0160114Y0026984D02*
X0137099Y0026984D01*
X0139867Y0031500D02*
X0139867Y0021000D01*
X0174867Y0047500D02*
X0188867Y0033500D01*
X0189867Y0033500D01*
X0190867Y0034500D01*
X0174867Y0047500D02*
X0170367Y0047500D01*
X0178703Y0060933D02*
X0198640Y0060933D01*
X0200095Y0060933D02*
X0289568Y0060933D01*
X0289568Y0061932D02*
X0219695Y0061932D01*
X0219732Y0062930D02*
X0289568Y0062930D01*
X0289568Y0063929D02*
X0218732Y0063929D01*
X0218305Y0063929D02*
X0218304Y0063929D01*
X0217877Y0063929D02*
X0214795Y0063929D01*
X0214943Y0063889D02*
X0214564Y0063991D01*
X0214367Y0063991D01*
X0214367Y0062500D01*
X0218304Y0062500D01*
X0218304Y0062930D02*
X0218305Y0062930D01*
X0218304Y0061932D02*
X0218305Y0061932D01*
X0216914Y0061932D02*
X0215758Y0061932D01*
X0215756Y0061925D02*
X0215858Y0062304D01*
X0215858Y0062500D01*
X0215858Y0062696D01*
X0215756Y0063075D01*
X0215560Y0063415D01*
X0215283Y0063693D01*
X0214943Y0063889D01*
X0214367Y0063929D02*
X0214367Y0063929D01*
X0213940Y0063929D02*
X0210858Y0063929D01*
X0210430Y0063991D02*
X0210430Y0062500D01*
X0210430Y0062930D02*
X0210430Y0062930D01*
X0210430Y0061932D02*
X0210430Y0061932D01*
X0209040Y0061932D02*
X0201547Y0061932D01*
X0202000Y0062930D02*
X0209003Y0062930D01*
X0211858Y0062930D02*
X0212940Y0062930D01*
X0212977Y0061932D02*
X0211821Y0061932D01*
X0214367Y0061932D02*
X0214367Y0061932D01*
X0214367Y0062500D02*
X0214367Y0061009D01*
X0214564Y0061009D01*
X0214943Y0061111D01*
X0215283Y0061307D01*
X0215560Y0061585D01*
X0215756Y0061925D01*
X0215858Y0062500D02*
X0214368Y0062500D01*
X0215858Y0062500D01*
X0215795Y0062930D02*
X0216877Y0062930D01*
X0214367Y0062930D02*
X0214367Y0062930D01*
X0214368Y0062500D02*
X0214368Y0062500D01*
X0214367Y0060054D02*
X0214564Y0060054D01*
X0214943Y0059952D01*
X0215283Y0059756D01*
X0215560Y0059478D01*
X0215756Y0059138D01*
X0215858Y0058759D01*
X0215858Y0058563D01*
X0214368Y0058563D01*
X0214368Y0058563D01*
X0215858Y0058563D01*
X0215858Y0058367D01*
X0215756Y0057988D01*
X0215560Y0057648D01*
X0215283Y0057370D01*
X0214943Y0057174D01*
X0214564Y0057072D01*
X0214367Y0057072D01*
X0214367Y0058563D01*
X0214367Y0060054D01*
X0214367Y0059934D02*
X0214367Y0059934D01*
X0213762Y0059934D02*
X0211036Y0059934D01*
X0211874Y0058936D02*
X0212924Y0058936D01*
X0213007Y0057937D02*
X0211790Y0057937D01*
X0210430Y0057937D02*
X0210430Y0057937D01*
X0214367Y0057937D02*
X0214367Y0057937D01*
X0214367Y0058936D02*
X0214367Y0058936D01*
X0214973Y0059934D02*
X0217699Y0059934D01*
X0216861Y0058936D02*
X0215811Y0058936D01*
X0215727Y0057937D02*
X0216944Y0057937D01*
X0218304Y0057937D02*
X0218305Y0057937D01*
X0218304Y0065926D02*
X0218305Y0065926D01*
X0218304Y0066924D02*
X0218305Y0066924D01*
X0216892Y0066924D02*
X0215780Y0066924D01*
X0215774Y0065926D02*
X0216898Y0065926D01*
X0214367Y0065926D02*
X0214367Y0065926D01*
X0214367Y0066924D02*
X0214367Y0066924D01*
X0212955Y0066924D02*
X0211843Y0066924D01*
X0211837Y0065926D02*
X0212961Y0065926D01*
X0210430Y0065926D02*
X0210430Y0065926D01*
X0210430Y0066924D02*
X0210430Y0066924D01*
X0210430Y0067928D02*
X0210627Y0067928D01*
X0209018Y0066924D02*
X0187191Y0066924D01*
X0186869Y0067247D02*
X0185895Y0067650D01*
X0184840Y0067650D01*
X0183866Y0067247D01*
X0183121Y0066501D01*
X0182717Y0065527D01*
X0182717Y0064473D01*
X0183121Y0063499D01*
X0183866Y0062753D01*
X0184840Y0062350D01*
X0185895Y0062350D01*
X0186869Y0062753D01*
X0187614Y0063499D01*
X0188017Y0064473D01*
X0188017Y0065527D01*
X0187614Y0066501D01*
X0186869Y0067247D01*
X0187852Y0065926D02*
X0198299Y0065926D01*
X0197090Y0064927D02*
X0188017Y0064927D01*
X0187792Y0063929D02*
X0196717Y0063929D01*
X0196735Y0062930D02*
X0187045Y0062930D01*
X0183690Y0062930D02*
X0178045Y0062930D01*
X0178184Y0061932D02*
X0197188Y0061932D01*
X0200436Y0065926D02*
X0209024Y0065926D01*
X0183544Y0066924D02*
X0178191Y0066924D01*
X0178852Y0065926D02*
X0182882Y0065926D01*
X0182717Y0064927D02*
X0179017Y0064927D01*
X0178792Y0063929D02*
X0182943Y0063929D01*
X0147000Y0077908D02*
X0145735Y0077908D01*
X0142000Y0077908D02*
X0134153Y0077908D01*
X0132983Y0078906D02*
X0141290Y0078906D01*
X0141293Y0083899D02*
X0072012Y0083899D01*
X0073512Y0084897D02*
X0141067Y0084897D01*
X0141208Y0085896D02*
X0073985Y0085896D01*
X0086867Y0078000D02*
X0086867Y0075500D01*
X0088867Y0073500D01*
X0088867Y0071000D01*
X0086367Y0068500D01*
X0071367Y0068500D01*
X0070367Y0067500D01*
X0066867Y0052500D02*
X0063367Y0052500D01*
X0066867Y0052500D02*
X0068867Y0050500D01*
X0068867Y0044000D01*
X0071367Y0041500D01*
X0058867Y0048500D02*
X0058867Y0052000D01*
X0058367Y0052500D01*
X0008370Y0045955D02*
X0007367Y0045955D01*
X0140536Y0068921D02*
X0141199Y0068921D01*
X0246867Y0054000D02*
X0248867Y0054000D01*
X0263867Y0039000D01*
X0246867Y0054000D02*
X0248867Y0068500D01*
X0251367Y0068000D01*
X0252367Y0069000D01*
X0256367Y0069000D01*
X0258867Y0071500D01*
M02*
