G75*
%MOIN*%
%OFA0B0*%
%FSLAX25Y25*%
%IPPOS*%
%LPD*%
%AMOC8*
5,1,8,0,0,1.08239X$1,22.5*
%
%ADD10R,0.02700X0.05200*%
%ADD11C,0.04137*%
%ADD12R,0.06200X0.06200*%
%ADD13R,0.16200X0.06200*%
%ADD14R,0.04137X0.08074*%
%ADD15C,0.12011*%
%ADD16R,0.01578X0.05712*%
%ADD17R,0.07287X0.07680*%
%ADD18R,0.07680X0.07680*%
%ADD19R,0.04137X0.03743*%
%ADD20C,0.13200*%
%ADD21R,0.12798X0.10043*%
%ADD22C,0.03350*%
%ADD23R,0.12011X0.06499*%
%ADD24R,0.21854X0.04137*%
%ADD25R,0.02720X0.06106*%
%ADD26R,0.06106X0.02720*%
%ADD27R,0.05200X0.02720*%
%ADD28R,0.05712X0.04924*%
%ADD29R,0.03743X0.03546*%
%ADD30R,0.03743X0.02956*%
D10*
X0032627Y0077276D03*
X0040108Y0077276D03*
X0036367Y0086724D03*
D11*
X0143867Y0085000D03*
X0148867Y0085000D03*
X0153867Y0085000D03*
X0158867Y0085000D03*
X0163867Y0085000D03*
X0163867Y0080000D03*
X0158867Y0080000D03*
X0153867Y0080000D03*
X0148867Y0080000D03*
X0143867Y0080000D03*
D12*
X0062367Y0079000D03*
X0052367Y0079000D03*
X0052367Y0031000D03*
X0062367Y0031000D03*
D13*
X0281867Y0046000D03*
X0281867Y0056000D03*
X0281867Y0066000D03*
D14*
X0127942Y0083528D03*
X0122037Y0083528D03*
X0116131Y0083528D03*
X0110226Y0083528D03*
X0104320Y0083528D03*
X0098415Y0083528D03*
X0092509Y0083528D03*
X0086604Y0083528D03*
X0080698Y0083528D03*
X0074793Y0083528D03*
X0074793Y0024472D03*
X0080698Y0024472D03*
X0086604Y0024472D03*
X0092509Y0024472D03*
X0098415Y0024472D03*
X0104320Y0024472D03*
X0110226Y0024472D03*
X0116131Y0024472D03*
X0122037Y0024472D03*
X0127942Y0024472D03*
D15*
X0098021Y0052031D03*
D16*
X0242249Y0075067D03*
X0244808Y0075067D03*
X0247367Y0075067D03*
X0249927Y0075067D03*
X0252486Y0075067D03*
D17*
X0263115Y0085500D03*
X0231619Y0085500D03*
D18*
X0242367Y0085500D03*
X0252367Y0085500D03*
D19*
X0034218Y0023429D03*
X0040517Y0023429D03*
X0040517Y0039571D03*
X0034218Y0039571D03*
D20*
X0016367Y0027000D03*
X0016367Y0083000D03*
X0280867Y0083000D03*
X0280867Y0027000D03*
D21*
X0253115Y0038000D03*
X0221619Y0038000D03*
D22*
X0252722Y0029142D03*
X0228509Y0053354D03*
D23*
X0020304Y0041614D03*
X0020304Y0068386D03*
D24*
X0029241Y0058937D03*
X0029241Y0051063D03*
D25*
X0143907Y0036717D03*
X0148867Y0036717D03*
X0153828Y0036717D03*
X0153828Y0021283D03*
X0148867Y0021283D03*
X0143907Y0021283D03*
D26*
X0141151Y0029000D03*
D27*
X0156348Y0029039D03*
D28*
X0144367Y0047594D03*
X0144367Y0059406D03*
D29*
X0150367Y0054783D03*
X0150367Y0050217D03*
D30*
X0163867Y0039059D03*
X0163867Y0033941D03*
M02*
