G75*
%MOIN*%
%OFA0B0*%
%FSLAX25Y25*%
%IPPOS*%
%LPD*%
%AMOC8*
5,1,8,0,0,1.08239X$1,22.5*
%
%ADD10C,0.01700*%
%ADD11C,0.00500*%
%ADD12C,0.00100*%
%ADD13C,0.00300*%
%ADD14C,0.01000*%
%ADD15C,0.00800*%
%ADD16C,0.03200*%
%ADD17C,0.00600*%
%ADD18C,0.00200*%
%ADD19C,0.00400*%
%ADD20R,0.02800X0.01600*%
%ADD21C,0.01600*%
D10*
X0155294Y0041850D02*
X0161832Y0041850D01*
X0155294Y0048389D01*
X0155294Y0050024D01*
X0156928Y0051658D01*
X0160198Y0051658D01*
X0161832Y0050024D01*
X0174447Y0051658D02*
X0174447Y0041850D01*
X0177716Y0041850D02*
X0171177Y0041850D01*
X0167127Y0041850D02*
X0165492Y0041850D01*
X0165492Y0043485D01*
X0167127Y0043485D01*
X0167127Y0041850D01*
X0181766Y0045119D02*
X0181766Y0051658D01*
X0177716Y0048389D02*
X0174447Y0051658D01*
X0181766Y0045119D02*
X0185036Y0041850D01*
X0188305Y0045119D01*
X0188305Y0051658D01*
X0188695Y0059100D02*
X0187061Y0060735D01*
X0187061Y0064004D01*
X0188695Y0065639D01*
X0193600Y0065639D01*
X0197389Y0065639D02*
X0200659Y0065639D01*
X0199024Y0067274D02*
X0199024Y0060735D01*
X0197389Y0059100D01*
X0193600Y0059100D02*
X0188695Y0059100D01*
X0193600Y0059100D02*
X0193600Y0068908D01*
X0183011Y0065639D02*
X0183011Y0060735D01*
X0181376Y0059100D01*
X0176472Y0059100D01*
X0176472Y0065639D01*
X0172421Y0065639D02*
X0172421Y0059100D01*
X0172421Y0062369D02*
X0169152Y0065639D01*
X0167517Y0065639D01*
X0163597Y0065639D02*
X0158693Y0065639D01*
X0157058Y0064004D01*
X0157058Y0059100D01*
X0163597Y0059100D02*
X0163597Y0065639D01*
X0204709Y0065639D02*
X0209613Y0065639D01*
X0211248Y0064004D01*
X0209613Y0062369D01*
X0206344Y0062369D01*
X0204709Y0060735D01*
X0206344Y0059100D01*
X0211248Y0059100D01*
X0215298Y0060735D02*
X0215298Y0064004D01*
X0216933Y0065639D01*
X0220202Y0065639D01*
X0221837Y0064004D01*
X0221837Y0060735D01*
X0220202Y0059100D01*
X0216933Y0059100D01*
X0215298Y0060735D01*
X0225757Y0065639D02*
X0227392Y0065639D01*
X0230661Y0062369D01*
X0230661Y0059100D02*
X0230661Y0065639D01*
X0234711Y0068908D02*
X0241250Y0068908D01*
X0241250Y0059100D01*
X0245300Y0059100D02*
X0251839Y0059100D01*
X0251839Y0068908D01*
X0255889Y0064004D02*
X0257524Y0065639D01*
X0260794Y0065639D01*
X0255889Y0064004D02*
X0255889Y0059100D01*
X0260794Y0059100D01*
X0262428Y0060735D01*
X0260794Y0062369D01*
X0255889Y0062369D01*
X0266479Y0062369D02*
X0266479Y0060735D01*
X0268113Y0059100D01*
X0271383Y0059100D01*
X0273017Y0060735D01*
X0271383Y0064004D02*
X0268113Y0064004D01*
X0266479Y0062369D01*
X0271383Y0064004D02*
X0273017Y0065639D01*
X0273017Y0067274D01*
X0271383Y0068908D01*
X0268113Y0068908D01*
X0266479Y0067274D01*
X0241250Y0064004D02*
X0237981Y0064004D01*
D11*
X0132864Y0085496D02*
X0132864Y0022504D01*
X0130895Y0022504D01*
X0124989Y0022504D02*
X0077745Y0022504D01*
X0071840Y0022504D02*
X0069871Y0022504D01*
X0069871Y0085496D01*
X0042273Y0085693D02*
X0042273Y0078913D01*
X0037352Y0078701D02*
X0035383Y0078701D01*
X0030462Y0078913D02*
X0030462Y0085693D01*
X0034399Y0085693D01*
X0038336Y0085693D02*
X0042273Y0085693D01*
X0039818Y0081606D02*
X0039820Y0081665D01*
X0039826Y0081723D01*
X0039836Y0081781D01*
X0039849Y0081838D01*
X0039867Y0081895D01*
X0039888Y0081950D01*
X0039913Y0082003D01*
X0039941Y0082054D01*
X0039972Y0082104D01*
X0040007Y0082151D01*
X0040045Y0082196D01*
X0040086Y0082239D01*
X0040130Y0082278D01*
X0040176Y0082314D01*
X0040224Y0082348D01*
X0040275Y0082378D01*
X0040328Y0082404D01*
X0040382Y0082427D01*
X0040437Y0082446D01*
X0040494Y0082462D01*
X0040552Y0082474D01*
X0040610Y0082482D01*
X0040669Y0082486D01*
X0040727Y0082486D01*
X0040786Y0082482D01*
X0040844Y0082474D01*
X0040902Y0082462D01*
X0040959Y0082446D01*
X0041014Y0082427D01*
X0041068Y0082404D01*
X0041121Y0082378D01*
X0041172Y0082348D01*
X0041220Y0082314D01*
X0041266Y0082278D01*
X0041310Y0082239D01*
X0041351Y0082196D01*
X0041389Y0082151D01*
X0041424Y0082104D01*
X0041455Y0082054D01*
X0041483Y0082003D01*
X0041508Y0081950D01*
X0041529Y0081895D01*
X0041547Y0081838D01*
X0041560Y0081781D01*
X0041570Y0081723D01*
X0041576Y0081665D01*
X0041578Y0081606D01*
X0041576Y0081547D01*
X0041570Y0081489D01*
X0041560Y0081431D01*
X0041547Y0081374D01*
X0041529Y0081317D01*
X0041508Y0081262D01*
X0041483Y0081209D01*
X0041455Y0081158D01*
X0041424Y0081108D01*
X0041389Y0081061D01*
X0041351Y0081016D01*
X0041310Y0080973D01*
X0041266Y0080934D01*
X0041220Y0080898D01*
X0041172Y0080864D01*
X0041121Y0080834D01*
X0041068Y0080808D01*
X0041014Y0080785D01*
X0040959Y0080766D01*
X0040902Y0080750D01*
X0040844Y0080738D01*
X0040786Y0080730D01*
X0040727Y0080726D01*
X0040669Y0080726D01*
X0040610Y0080730D01*
X0040552Y0080738D01*
X0040494Y0080750D01*
X0040437Y0080766D01*
X0040382Y0080785D01*
X0040328Y0080808D01*
X0040275Y0080834D01*
X0040224Y0080864D01*
X0040176Y0080898D01*
X0040130Y0080934D01*
X0040086Y0080973D01*
X0040045Y0081016D01*
X0040007Y0081061D01*
X0039972Y0081108D01*
X0039941Y0081158D01*
X0039913Y0081209D01*
X0039888Y0081262D01*
X0039867Y0081317D01*
X0039849Y0081374D01*
X0039836Y0081431D01*
X0039826Y0081489D01*
X0039820Y0081547D01*
X0039818Y0081606D01*
X0034198Y0031500D02*
X0034200Y0031612D01*
X0034206Y0031725D01*
X0034216Y0031837D01*
X0034230Y0031948D01*
X0034248Y0032060D01*
X0034270Y0032170D01*
X0034295Y0032279D01*
X0034325Y0032388D01*
X0034358Y0032495D01*
X0034396Y0032601D01*
X0034437Y0032706D01*
X0034481Y0032809D01*
X0034529Y0032911D01*
X0034581Y0033011D01*
X0034637Y0033109D01*
X0034696Y0033205D01*
X0034758Y0033298D01*
X0034823Y0033390D01*
X0034892Y0033479D01*
X0034964Y0033566D01*
X0035039Y0033650D01*
X0035116Y0033731D01*
X0035197Y0033809D01*
X0035280Y0033885D01*
X0035366Y0033957D01*
X0035455Y0034027D01*
X0035545Y0034093D01*
X0035639Y0034156D01*
X0035734Y0034216D01*
X0035831Y0034272D01*
X0035931Y0034325D01*
X0036032Y0034374D01*
X0036135Y0034420D01*
X0036239Y0034462D01*
X0036345Y0034500D01*
X0036452Y0034534D01*
X0036560Y0034565D01*
X0036670Y0034591D01*
X0036780Y0034614D01*
X0036891Y0034633D01*
X0037002Y0034648D01*
X0037114Y0034659D01*
X0037226Y0034666D01*
X0037339Y0034669D01*
X0037451Y0034668D01*
X0037564Y0034663D01*
X0037676Y0034654D01*
X0037788Y0034641D01*
X0037899Y0034624D01*
X0038009Y0034603D01*
X0038119Y0034578D01*
X0038228Y0034550D01*
X0038336Y0034517D01*
X0038442Y0034481D01*
X0038547Y0034441D01*
X0038651Y0034397D01*
X0038753Y0034350D01*
X0038853Y0034299D01*
X0038951Y0034244D01*
X0039048Y0034186D01*
X0039142Y0034125D01*
X0039234Y0034060D01*
X0039324Y0033993D01*
X0039411Y0033922D01*
X0039496Y0033847D01*
X0039578Y0033770D01*
X0039657Y0033691D01*
X0039733Y0033608D01*
X0039807Y0033523D01*
X0039877Y0033435D01*
X0039944Y0033344D01*
X0040008Y0033252D01*
X0040068Y0033157D01*
X0040125Y0033060D01*
X0040179Y0032961D01*
X0040229Y0032860D01*
X0040276Y0032758D01*
X0040318Y0032654D01*
X0040358Y0032549D01*
X0040393Y0032442D01*
X0040424Y0032334D01*
X0040452Y0032225D01*
X0040476Y0032115D01*
X0040496Y0032004D01*
X0040512Y0031893D01*
X0040524Y0031781D01*
X0040532Y0031669D01*
X0040536Y0031556D01*
X0040536Y0031444D01*
X0040532Y0031331D01*
X0040524Y0031219D01*
X0040512Y0031107D01*
X0040496Y0030996D01*
X0040476Y0030885D01*
X0040452Y0030775D01*
X0040424Y0030666D01*
X0040393Y0030558D01*
X0040358Y0030451D01*
X0040318Y0030346D01*
X0040276Y0030242D01*
X0040229Y0030140D01*
X0040179Y0030039D01*
X0040125Y0029940D01*
X0040068Y0029843D01*
X0040008Y0029748D01*
X0039944Y0029656D01*
X0039877Y0029565D01*
X0039807Y0029477D01*
X0039733Y0029392D01*
X0039657Y0029309D01*
X0039578Y0029230D01*
X0039496Y0029153D01*
X0039411Y0029078D01*
X0039324Y0029007D01*
X0039234Y0028940D01*
X0039142Y0028875D01*
X0039048Y0028814D01*
X0038952Y0028756D01*
X0038853Y0028701D01*
X0038753Y0028650D01*
X0038651Y0028603D01*
X0038547Y0028559D01*
X0038442Y0028519D01*
X0038336Y0028483D01*
X0038228Y0028450D01*
X0038119Y0028422D01*
X0038009Y0028397D01*
X0037899Y0028376D01*
X0037788Y0028359D01*
X0037676Y0028346D01*
X0037564Y0028337D01*
X0037451Y0028332D01*
X0037339Y0028331D01*
X0037226Y0028334D01*
X0037114Y0028341D01*
X0037002Y0028352D01*
X0036891Y0028367D01*
X0036780Y0028386D01*
X0036670Y0028409D01*
X0036560Y0028435D01*
X0036452Y0028466D01*
X0036345Y0028500D01*
X0036239Y0028538D01*
X0036135Y0028580D01*
X0036032Y0028626D01*
X0035931Y0028675D01*
X0035831Y0028728D01*
X0035734Y0028784D01*
X0035639Y0028844D01*
X0035545Y0028907D01*
X0035455Y0028973D01*
X0035366Y0029043D01*
X0035280Y0029115D01*
X0035197Y0029191D01*
X0035116Y0029269D01*
X0035039Y0029350D01*
X0034964Y0029434D01*
X0034892Y0029521D01*
X0034823Y0029610D01*
X0034758Y0029702D01*
X0034696Y0029795D01*
X0034637Y0029891D01*
X0034581Y0029989D01*
X0034529Y0030089D01*
X0034481Y0030191D01*
X0034437Y0030294D01*
X0034396Y0030399D01*
X0034358Y0030505D01*
X0034325Y0030612D01*
X0034295Y0030721D01*
X0034270Y0030830D01*
X0034248Y0030940D01*
X0034230Y0031052D01*
X0034216Y0031163D01*
X0034206Y0031275D01*
X0034200Y0031388D01*
X0034198Y0031500D01*
D12*
X0044148Y0080869D02*
X0043898Y0081119D01*
X0043898Y0081620D01*
X0044148Y0081870D01*
X0045399Y0081870D01*
X0045149Y0082342D02*
X0045399Y0082592D01*
X0045399Y0083093D01*
X0045149Y0083343D01*
X0045149Y0083815D02*
X0045399Y0084066D01*
X0045399Y0084566D01*
X0045149Y0084816D01*
X0044899Y0084816D01*
X0043898Y0083815D01*
X0043898Y0084816D01*
X0044148Y0083343D02*
X0044398Y0083343D01*
X0044648Y0083093D01*
X0044648Y0082592D01*
X0044899Y0082342D01*
X0045149Y0082342D01*
X0045649Y0082843D02*
X0043648Y0082843D01*
X0043898Y0083093D02*
X0044148Y0083343D01*
X0043898Y0083093D02*
X0043898Y0082592D01*
X0044148Y0082342D01*
X0044148Y0080869D02*
X0045399Y0080869D01*
D13*
X0030736Y0040638D02*
X0031220Y0040155D01*
X0031220Y0039187D01*
X0030736Y0038703D01*
X0030736Y0037692D02*
X0031220Y0037208D01*
X0031220Y0036241D01*
X0030736Y0035757D01*
X0030252Y0035757D01*
X0029769Y0036241D01*
X0029769Y0037208D01*
X0029285Y0037692D01*
X0028801Y0037692D01*
X0028317Y0037208D01*
X0028317Y0036241D01*
X0028801Y0035757D01*
X0028317Y0038703D02*
X0030252Y0040638D01*
X0030736Y0040638D01*
X0028317Y0040638D02*
X0028317Y0038703D01*
X0157889Y0088150D02*
X0159824Y0088150D01*
X0158857Y0088150D02*
X0158857Y0091052D01*
X0159824Y0090085D01*
X0160836Y0090569D02*
X0160836Y0089601D01*
X0161320Y0089117D01*
X0162771Y0089117D01*
X0162771Y0088150D02*
X0162771Y0091052D01*
X0161320Y0091052D01*
X0160836Y0090569D01*
X0163782Y0091052D02*
X0164750Y0091052D01*
X0164266Y0091052D02*
X0164266Y0088634D01*
X0164750Y0088150D01*
X0165234Y0088150D01*
X0165717Y0088634D01*
D14*
X0167265Y0081480D02*
X0167265Y0078480D01*
D15*
X0046462Y0021157D02*
X0046462Y0018205D01*
X0068115Y0018205D01*
X0068115Y0021157D01*
X0046462Y0021157D01*
X0046462Y0043795D01*
X0068115Y0043795D01*
X0068115Y0021157D01*
X0042879Y0026232D02*
X0042879Y0036768D01*
X0037879Y0039768D02*
X0036856Y0039768D01*
X0029635Y0038465D02*
X0028060Y0038465D01*
X0029635Y0038465D02*
X0029635Y0047126D01*
X0012312Y0038465D02*
X0009556Y0038465D01*
X0009556Y0071142D01*
X0012312Y0071142D01*
X0028454Y0071142D02*
X0029635Y0071142D01*
X0029635Y0062874D01*
X0046619Y0066205D02*
X0068273Y0066205D01*
X0068273Y0088843D01*
X0046619Y0088843D01*
X0046619Y0066205D01*
X0046619Y0088843D02*
X0046619Y0091795D01*
X0068273Y0091795D01*
X0068273Y0088843D01*
X0140430Y0062949D02*
X0140430Y0057437D01*
X0141612Y0054681D02*
X0144367Y0054681D01*
X0142005Y0052319D01*
X0146730Y0052319D01*
X0144367Y0054681D01*
X0147123Y0054681D01*
X0148304Y0057437D02*
X0148304Y0062949D01*
X0140430Y0062949D01*
X0140430Y0049563D02*
X0140430Y0044051D01*
X0148304Y0044051D01*
X0148304Y0049563D01*
X0146781Y0038843D02*
X0145993Y0038843D01*
X0141387Y0038843D02*
X0139025Y0038843D01*
X0139025Y0031756D01*
X0139025Y0026244D02*
X0139025Y0019157D01*
X0141387Y0019157D01*
X0145993Y0019157D02*
X0146820Y0019157D01*
X0150954Y0019157D02*
X0151741Y0019157D01*
X0156348Y0019157D02*
X0158710Y0019157D01*
X0158710Y0026244D01*
X0151367Y0029000D02*
X0151369Y0029044D01*
X0151375Y0029088D01*
X0151385Y0029131D01*
X0151398Y0029173D01*
X0151415Y0029214D01*
X0151436Y0029253D01*
X0151460Y0029290D01*
X0151487Y0029325D01*
X0151517Y0029357D01*
X0151550Y0029387D01*
X0151586Y0029413D01*
X0151623Y0029437D01*
X0151663Y0029456D01*
X0151704Y0029473D01*
X0151747Y0029485D01*
X0151790Y0029494D01*
X0151834Y0029499D01*
X0151878Y0029500D01*
X0151922Y0029497D01*
X0151966Y0029490D01*
X0152009Y0029479D01*
X0152051Y0029465D01*
X0152091Y0029447D01*
X0152130Y0029425D01*
X0152166Y0029401D01*
X0152200Y0029373D01*
X0152232Y0029342D01*
X0152261Y0029308D01*
X0152287Y0029272D01*
X0152309Y0029234D01*
X0152328Y0029194D01*
X0152343Y0029152D01*
X0152355Y0029110D01*
X0152363Y0029066D01*
X0152367Y0029022D01*
X0152367Y0028978D01*
X0152363Y0028934D01*
X0152355Y0028890D01*
X0152343Y0028848D01*
X0152328Y0028806D01*
X0152309Y0028766D01*
X0152287Y0028728D01*
X0152261Y0028692D01*
X0152232Y0028658D01*
X0152200Y0028627D01*
X0152166Y0028599D01*
X0152130Y0028575D01*
X0152091Y0028553D01*
X0152051Y0028535D01*
X0152009Y0028521D01*
X0151966Y0028510D01*
X0151922Y0028503D01*
X0151878Y0028500D01*
X0151834Y0028501D01*
X0151790Y0028506D01*
X0151747Y0028515D01*
X0151704Y0028527D01*
X0151663Y0028544D01*
X0151623Y0028563D01*
X0151586Y0028587D01*
X0151550Y0028613D01*
X0151517Y0028643D01*
X0151487Y0028675D01*
X0151460Y0028710D01*
X0151436Y0028747D01*
X0151415Y0028786D01*
X0151398Y0028827D01*
X0151385Y0028869D01*
X0151375Y0028912D01*
X0151369Y0028956D01*
X0151367Y0029000D01*
X0158710Y0031756D02*
X0158710Y0038843D01*
X0156348Y0038843D01*
X0151741Y0038843D02*
X0150993Y0038843D01*
X0227131Y0023433D02*
X0227131Y0014378D01*
X0247604Y0014378D01*
X0247604Y0023827D01*
X0247604Y0023826D02*
X0247901Y0024015D01*
X0248195Y0024210D01*
X0248483Y0024412D01*
X0248768Y0024620D01*
X0249047Y0024835D01*
X0249321Y0025056D01*
X0249591Y0025283D01*
X0249855Y0025516D01*
X0250114Y0025755D01*
X0250368Y0026000D01*
X0220867Y0044500D02*
X0221028Y0044888D01*
X0221197Y0045272D01*
X0221376Y0045651D01*
X0221564Y0046027D01*
X0221760Y0046397D01*
X0221966Y0046763D01*
X0222180Y0047124D01*
X0222402Y0047480D01*
X0222632Y0047831D01*
X0222871Y0048176D01*
X0223118Y0048515D01*
X0223373Y0048848D01*
X0223636Y0049175D01*
X0223906Y0049496D01*
X0224184Y0049811D01*
X0224469Y0050119D01*
X0224761Y0050420D01*
X0225061Y0050714D01*
X0225367Y0051001D01*
X0220832Y0031701D02*
X0221005Y0031277D01*
X0221188Y0030858D01*
X0221381Y0030443D01*
X0221584Y0030033D01*
X0221796Y0029627D01*
X0222019Y0029227D01*
X0222251Y0028833D01*
X0222492Y0028444D01*
X0222742Y0028061D01*
X0223002Y0027684D01*
X0223270Y0027313D01*
X0223548Y0026949D01*
X0223834Y0026592D01*
X0224128Y0026241D01*
X0224431Y0025898D01*
X0224742Y0025562D01*
X0225061Y0025234D01*
X0225388Y0024914D01*
X0225722Y0024601D01*
X0226064Y0024297D01*
X0226413Y0024000D01*
X0226769Y0023713D01*
X0227131Y0023434D01*
X0232368Y0055000D02*
X0232778Y0055117D01*
X0233191Y0055225D01*
X0233607Y0055322D01*
X0234025Y0055409D01*
X0234445Y0055486D01*
X0234867Y0055553D01*
X0235290Y0055610D01*
X0235714Y0055656D01*
X0236140Y0055692D01*
X0236566Y0055718D01*
X0236993Y0055733D01*
X0237419Y0055738D01*
X0237846Y0055733D01*
X0238273Y0055717D01*
X0238699Y0055691D01*
X0239125Y0055655D01*
X0239549Y0055608D01*
X0239972Y0055551D01*
X0240394Y0055484D01*
X0240814Y0055406D01*
X0241231Y0055319D01*
X0241647Y0055221D01*
X0242060Y0055113D01*
X0242471Y0054996D01*
X0242878Y0054868D01*
X0243282Y0054731D01*
X0243683Y0054583D01*
X0244080Y0054426D01*
X0244473Y0054260D01*
X0244862Y0054084D01*
X0245247Y0053899D01*
X0245627Y0053704D01*
X0246002Y0053500D01*
X0246372Y0053288D01*
X0246737Y0053066D01*
X0247096Y0052835D01*
X0247450Y0052596D01*
X0247798Y0052349D01*
X0248140Y0052093D01*
X0248475Y0051828D01*
X0248804Y0051556D01*
X0249126Y0051276D01*
X0249441Y0050988D01*
X0249749Y0050693D01*
X0250050Y0050390D01*
X0250344Y0050080D01*
X0250630Y0049763D01*
X0250908Y0049439D01*
X0251178Y0049108D01*
X0251440Y0048771D01*
X0251694Y0048428D01*
X0251940Y0048079D01*
X0252177Y0047723D01*
X0252405Y0047363D01*
X0252624Y0046996D01*
X0252835Y0046625D01*
X0253036Y0046248D01*
X0253228Y0045867D01*
X0253411Y0045481D01*
X0253585Y0045091D01*
X0253749Y0044697D01*
X0253903Y0044299D01*
X0256029Y0074280D02*
X0256029Y0079791D01*
X0238706Y0079791D01*
X0238706Y0074280D01*
X0233982Y0074280D01*
X0233982Y0080579D01*
X0256029Y0074280D02*
X0260753Y0074280D01*
X0260753Y0080579D01*
X0260753Y0091209D02*
X0233982Y0091209D01*
X0037879Y0023232D02*
X0036856Y0023232D01*
X0031856Y0026232D02*
X0031856Y0036768D01*
D16*
X0067052Y0089827D02*
X0067054Y0089897D01*
X0067060Y0089968D01*
X0067070Y0090037D01*
X0067084Y0090106D01*
X0067102Y0090175D01*
X0067123Y0090242D01*
X0067148Y0090308D01*
X0067177Y0090372D01*
X0067210Y0090434D01*
X0067246Y0090495D01*
X0067286Y0090553D01*
X0067328Y0090609D01*
X0067374Y0090663D01*
X0067423Y0090714D01*
X0067474Y0090762D01*
X0067529Y0090807D01*
X0067585Y0090849D01*
X0067644Y0090887D01*
X0067705Y0090922D01*
X0067768Y0090954D01*
X0067833Y0090982D01*
X0067899Y0091007D01*
X0067966Y0091027D01*
X0068035Y0091044D01*
X0068104Y0091057D01*
X0068174Y0091066D01*
X0068244Y0091071D01*
X0068315Y0091072D01*
X0068385Y0091069D01*
X0068455Y0091062D01*
X0068525Y0091051D01*
X0068594Y0091036D01*
X0068662Y0091017D01*
X0068728Y0090995D01*
X0068794Y0090969D01*
X0068858Y0090939D01*
X0068920Y0090905D01*
X0068980Y0090868D01*
X0069037Y0090828D01*
X0069093Y0090784D01*
X0069146Y0090738D01*
X0069196Y0090688D01*
X0069243Y0090636D01*
X0069287Y0090581D01*
X0069328Y0090524D01*
X0069366Y0090465D01*
X0069401Y0090403D01*
X0069431Y0090340D01*
X0069459Y0090275D01*
X0069482Y0090208D01*
X0069502Y0090141D01*
X0069518Y0090072D01*
X0069530Y0090003D01*
X0069538Y0089933D01*
X0069542Y0089862D01*
X0069542Y0089792D01*
X0069538Y0089721D01*
X0069530Y0089651D01*
X0069518Y0089582D01*
X0069502Y0089513D01*
X0069482Y0089446D01*
X0069459Y0089379D01*
X0069431Y0089314D01*
X0069401Y0089251D01*
X0069366Y0089189D01*
X0069328Y0089130D01*
X0069287Y0089073D01*
X0069243Y0089018D01*
X0069196Y0088966D01*
X0069146Y0088916D01*
X0069093Y0088870D01*
X0069037Y0088826D01*
X0068980Y0088786D01*
X0068919Y0088749D01*
X0068858Y0088715D01*
X0068794Y0088685D01*
X0068728Y0088659D01*
X0068662Y0088637D01*
X0068594Y0088618D01*
X0068525Y0088603D01*
X0068455Y0088592D01*
X0068385Y0088585D01*
X0068315Y0088582D01*
X0068244Y0088583D01*
X0068174Y0088588D01*
X0068104Y0088597D01*
X0068035Y0088610D01*
X0067966Y0088627D01*
X0067899Y0088647D01*
X0067833Y0088672D01*
X0067768Y0088700D01*
X0067705Y0088732D01*
X0067644Y0088767D01*
X0067585Y0088805D01*
X0067529Y0088847D01*
X0067474Y0088892D01*
X0067423Y0088940D01*
X0067374Y0088991D01*
X0067328Y0089045D01*
X0067286Y0089101D01*
X0067246Y0089159D01*
X0067210Y0089220D01*
X0067177Y0089282D01*
X0067148Y0089346D01*
X0067123Y0089412D01*
X0067102Y0089479D01*
X0067084Y0089548D01*
X0067070Y0089617D01*
X0067060Y0089686D01*
X0067054Y0089757D01*
X0067052Y0089827D01*
D17*
X0066304Y0084584D02*
X0066304Y0082850D01*
X0067605Y0084151D01*
X0065003Y0084151D01*
X0065437Y0081638D02*
X0067605Y0081638D01*
X0065437Y0081638D02*
X0065003Y0081204D01*
X0065003Y0080337D01*
X0065437Y0079903D01*
X0067605Y0079903D01*
D18*
X0138967Y0055278D02*
X0138967Y0053810D01*
X0140435Y0055278D01*
X0140802Y0055278D01*
X0141169Y0054911D01*
X0141169Y0054177D01*
X0140802Y0053810D01*
X0140802Y0053068D02*
X0141169Y0052701D01*
X0141169Y0051600D01*
X0138967Y0051600D01*
X0138967Y0052701D01*
X0139334Y0053068D01*
X0140802Y0053068D01*
X0153217Y0053778D02*
X0153217Y0052310D01*
X0154685Y0053778D01*
X0155052Y0053778D01*
X0155419Y0053411D01*
X0155419Y0052677D01*
X0155052Y0052310D01*
X0155052Y0051568D02*
X0154318Y0051568D01*
X0153951Y0051201D01*
X0153951Y0050100D01*
X0153217Y0050100D02*
X0155419Y0050100D01*
X0155419Y0051201D01*
X0155052Y0051568D01*
X0153951Y0050834D02*
X0153217Y0051568D01*
X0153217Y0054520D02*
X0153217Y0055988D01*
X0153217Y0055254D02*
X0155419Y0055254D01*
X0154685Y0054520D01*
X0166684Y0039358D02*
X0167051Y0039358D01*
X0167418Y0038991D01*
X0167418Y0037890D01*
X0166684Y0037890D01*
X0166317Y0038257D01*
X0166317Y0038991D01*
X0166684Y0039358D01*
X0168152Y0038624D02*
X0167418Y0037890D01*
X0168152Y0038624D02*
X0168519Y0039358D01*
X0166317Y0037148D02*
X0166317Y0035680D01*
X0166317Y0036414D02*
X0168519Y0036414D01*
X0167785Y0035680D01*
X0168152Y0034938D02*
X0168519Y0034571D01*
X0168519Y0033837D01*
X0168152Y0033470D01*
X0166684Y0033470D01*
X0166317Y0033837D01*
X0166317Y0034571D01*
X0166684Y0034938D01*
X0151169Y0029488D02*
X0150802Y0029488D01*
X0149334Y0028020D01*
X0148967Y0028020D01*
X0149334Y0027278D02*
X0149701Y0027278D01*
X0150068Y0026911D01*
X0150068Y0026177D01*
X0150435Y0025810D01*
X0150802Y0025810D01*
X0151169Y0026177D01*
X0151169Y0026911D01*
X0150802Y0027278D01*
X0151169Y0028020D02*
X0151169Y0029488D01*
X0149334Y0027278D02*
X0148967Y0026911D01*
X0148967Y0026177D01*
X0149334Y0025810D01*
X0149334Y0025068D02*
X0151169Y0025068D01*
X0151169Y0023600D02*
X0149334Y0023600D01*
X0148967Y0023967D01*
X0148967Y0024701D01*
X0149334Y0025068D01*
X0148600Y0026544D02*
X0151536Y0026544D01*
X0242329Y0083978D02*
X0242329Y0086780D01*
X0243731Y0085379D01*
X0241862Y0085379D01*
X0244625Y0085379D02*
X0245092Y0084912D01*
X0246493Y0084912D01*
X0246493Y0083978D02*
X0246493Y0086780D01*
X0245092Y0086780D01*
X0244625Y0086313D01*
X0244625Y0085379D01*
X0247387Y0086780D02*
X0248321Y0086780D01*
X0247854Y0086780D02*
X0247854Y0084445D01*
X0248321Y0083978D01*
X0248788Y0083978D01*
X0249255Y0084445D01*
D19*
X0041171Y0043665D02*
X0041171Y0040596D01*
X0038869Y0040596D01*
X0039637Y0042131D01*
X0039637Y0042898D01*
X0038869Y0043665D01*
X0037335Y0043665D01*
X0036567Y0042898D01*
X0036567Y0041363D01*
X0037335Y0040596D01*
X0038869Y0039061D02*
X0038102Y0038294D01*
X0038102Y0035992D01*
X0036567Y0035992D02*
X0041171Y0035992D01*
X0041171Y0038294D01*
X0040404Y0039061D01*
X0038869Y0039061D01*
X0041171Y0034457D02*
X0041171Y0032923D01*
X0041171Y0033690D02*
X0037335Y0033690D01*
X0036567Y0032923D01*
X0036567Y0032156D01*
X0037335Y0031388D01*
D20*
X0150367Y0052500D03*
D21*
X0163747Y0036500D02*
X0163988Y0036500D01*
M02*
