G75*
%MOIN*%
%OFA0B0*%
%FSLAX25Y25*%
%IPPOS*%
%LPD*%
%AMOC8*
5,1,8,0,0,1.08239X$1,22.5*
%
%ADD10R,0.05906X0.01102*%
%ADD11R,0.04724X0.02165*%
%ADD12R,0.04331X0.03937*%
%ADD13R,0.03937X0.02756*%
%ADD14R,0.03898X0.01594*%
%ADD15R,0.06791X0.08799*%
%ADD16R,0.02756X0.03543*%
%ADD17R,0.03543X0.02756*%
%ADD18R,0.03937X0.07087*%
%ADD19C,0.03937*%
%ADD20R,0.05000X0.02500*%
%ADD21R,0.04724X0.01969*%
%ADD22R,0.01969X0.04724*%
%ADD23R,0.06000X0.06000*%
%ADD24C,0.02362*%
%ADD25C,0.01181*%
%ADD26R,0.13583X0.13583*%
%ADD27R,0.03346X0.03543*%
%ADD28R,0.03543X0.03346*%
%ADD29R,0.07480X0.04331*%
%ADD30R,0.16000X0.06000*%
%ADD31R,0.01594X0.03898*%
%ADD32R,0.08799X0.06791*%
%ADD33C,0.01000*%
%ADD34C,0.02300*%
%ADD35C,0.06600*%
%ADD36C,0.02400*%
%ADD37C,0.04000*%
D10*
G36*
X0106687Y0043842D02*
X0110862Y0048017D01*
X0111641Y0047238D01*
X0107466Y0043063D01*
X0106687Y0043842D01*
G37*
G36*
X0108079Y0042450D02*
X0112254Y0046625D01*
X0113033Y0045846D01*
X0108858Y0041671D01*
X0108079Y0042450D01*
G37*
G36*
X0109471Y0041058D02*
X0113646Y0045233D01*
X0114425Y0044454D01*
X0110250Y0040279D01*
X0109471Y0041058D01*
G37*
G36*
X0110863Y0039666D02*
X0115038Y0043841D01*
X0115817Y0043062D01*
X0111642Y0038887D01*
X0110863Y0039666D01*
G37*
G36*
X0112255Y0038275D02*
X0116430Y0042450D01*
X0117209Y0041671D01*
X0113034Y0037496D01*
X0112255Y0038275D01*
G37*
G36*
X0113647Y0036883D02*
X0117822Y0041058D01*
X0118601Y0040279D01*
X0114426Y0036104D01*
X0113647Y0036883D01*
G37*
G36*
X0115039Y0035491D02*
X0119214Y0039666D01*
X0119993Y0038887D01*
X0115818Y0034712D01*
X0115039Y0035491D01*
G37*
G36*
X0116431Y0034099D02*
X0120606Y0038274D01*
X0121385Y0037495D01*
X0117210Y0033320D01*
X0116431Y0034099D01*
G37*
G36*
X0117823Y0032707D02*
X0121998Y0036882D01*
X0122777Y0036103D01*
X0118602Y0031928D01*
X0117823Y0032707D01*
G37*
G36*
X0119215Y0031315D02*
X0123390Y0035490D01*
X0124169Y0034711D01*
X0119994Y0030536D01*
X0119215Y0031315D01*
G37*
G36*
X0131741Y0030536D02*
X0127566Y0034711D01*
X0128345Y0035490D01*
X0132520Y0031315D01*
X0131741Y0030536D01*
G37*
G36*
X0133133Y0031928D02*
X0128958Y0036103D01*
X0129737Y0036882D01*
X0133912Y0032707D01*
X0133133Y0031928D01*
G37*
G36*
X0134525Y0033320D02*
X0130350Y0037495D01*
X0131129Y0038274D01*
X0135304Y0034099D01*
X0134525Y0033320D01*
G37*
G36*
X0135917Y0034712D02*
X0131742Y0038887D01*
X0132521Y0039666D01*
X0136696Y0035491D01*
X0135917Y0034712D01*
G37*
G36*
X0137309Y0036104D02*
X0133134Y0040279D01*
X0133913Y0041058D01*
X0138088Y0036883D01*
X0137309Y0036104D01*
G37*
G36*
X0138701Y0037496D02*
X0134526Y0041671D01*
X0135305Y0042450D01*
X0139480Y0038275D01*
X0138701Y0037496D01*
G37*
G36*
X0140093Y0038887D02*
X0135918Y0043062D01*
X0136697Y0043841D01*
X0140872Y0039666D01*
X0140093Y0038887D01*
G37*
G36*
X0141485Y0040279D02*
X0137310Y0044454D01*
X0138089Y0045233D01*
X0142264Y0041058D01*
X0141485Y0040279D01*
G37*
G36*
X0142877Y0041671D02*
X0138702Y0045846D01*
X0139481Y0046625D01*
X0143656Y0042450D01*
X0142877Y0041671D01*
G37*
G36*
X0144269Y0043063D02*
X0140094Y0047238D01*
X0140873Y0048017D01*
X0145048Y0043842D01*
X0144269Y0043063D01*
G37*
G36*
X0145661Y0044455D02*
X0141486Y0048630D01*
X0142265Y0049409D01*
X0146440Y0045234D01*
X0145661Y0044455D01*
G37*
G36*
X0147053Y0045847D02*
X0142878Y0050022D01*
X0143657Y0050801D01*
X0147832Y0046626D01*
X0147053Y0045847D01*
G37*
G36*
X0147832Y0058374D02*
X0143657Y0054199D01*
X0142878Y0054978D01*
X0147053Y0059153D01*
X0147832Y0058374D01*
G37*
G36*
X0146440Y0059766D02*
X0142265Y0055591D01*
X0141486Y0056370D01*
X0145661Y0060545D01*
X0146440Y0059766D01*
G37*
G36*
X0145048Y0061158D02*
X0140873Y0056983D01*
X0140094Y0057762D01*
X0144269Y0061937D01*
X0145048Y0061158D01*
G37*
G36*
X0143656Y0062550D02*
X0139481Y0058375D01*
X0138702Y0059154D01*
X0142877Y0063329D01*
X0143656Y0062550D01*
G37*
G36*
X0142264Y0063942D02*
X0138089Y0059767D01*
X0137310Y0060546D01*
X0141485Y0064721D01*
X0142264Y0063942D01*
G37*
G36*
X0140872Y0065334D02*
X0136697Y0061159D01*
X0135918Y0061938D01*
X0140093Y0066113D01*
X0140872Y0065334D01*
G37*
G36*
X0139480Y0066725D02*
X0135305Y0062550D01*
X0134526Y0063329D01*
X0138701Y0067504D01*
X0139480Y0066725D01*
G37*
G36*
X0138088Y0068117D02*
X0133913Y0063942D01*
X0133134Y0064721D01*
X0137309Y0068896D01*
X0138088Y0068117D01*
G37*
G36*
X0136696Y0069509D02*
X0132521Y0065334D01*
X0131742Y0066113D01*
X0135917Y0070288D01*
X0136696Y0069509D01*
G37*
G36*
X0135304Y0070901D02*
X0131129Y0066726D01*
X0130350Y0067505D01*
X0134525Y0071680D01*
X0135304Y0070901D01*
G37*
G36*
X0133912Y0072293D02*
X0129737Y0068118D01*
X0128958Y0068897D01*
X0133133Y0073072D01*
X0133912Y0072293D01*
G37*
G36*
X0132520Y0073685D02*
X0128345Y0069510D01*
X0127566Y0070289D01*
X0131741Y0074464D01*
X0132520Y0073685D01*
G37*
G36*
X0119994Y0074464D02*
X0124169Y0070289D01*
X0123390Y0069510D01*
X0119215Y0073685D01*
X0119994Y0074464D01*
G37*
G36*
X0118602Y0073072D02*
X0122777Y0068897D01*
X0121998Y0068118D01*
X0117823Y0072293D01*
X0118602Y0073072D01*
G37*
G36*
X0117210Y0071680D02*
X0121385Y0067505D01*
X0120606Y0066726D01*
X0116431Y0070901D01*
X0117210Y0071680D01*
G37*
G36*
X0115818Y0070288D02*
X0119993Y0066113D01*
X0119214Y0065334D01*
X0115039Y0069509D01*
X0115818Y0070288D01*
G37*
G36*
X0114426Y0068896D02*
X0118601Y0064721D01*
X0117822Y0063942D01*
X0113647Y0068117D01*
X0114426Y0068896D01*
G37*
G36*
X0113034Y0067504D02*
X0117209Y0063329D01*
X0116430Y0062550D01*
X0112255Y0066725D01*
X0113034Y0067504D01*
G37*
G36*
X0111642Y0066113D02*
X0115817Y0061938D01*
X0115038Y0061159D01*
X0110863Y0065334D01*
X0111642Y0066113D01*
G37*
G36*
X0110250Y0064721D02*
X0114425Y0060546D01*
X0113646Y0059767D01*
X0109471Y0063942D01*
X0110250Y0064721D01*
G37*
G36*
X0108858Y0063329D02*
X0113033Y0059154D01*
X0112254Y0058375D01*
X0108079Y0062550D01*
X0108858Y0063329D01*
G37*
G36*
X0107466Y0061937D02*
X0111641Y0057762D01*
X0110862Y0056983D01*
X0106687Y0061158D01*
X0107466Y0061937D01*
G37*
G36*
X0106074Y0060545D02*
X0110249Y0056370D01*
X0109470Y0055591D01*
X0105295Y0059766D01*
X0106074Y0060545D01*
G37*
G36*
X0104682Y0059153D02*
X0108857Y0054978D01*
X0108078Y0054199D01*
X0103903Y0058374D01*
X0104682Y0059153D01*
G37*
G36*
X0103903Y0046626D02*
X0108078Y0050801D01*
X0108857Y0050022D01*
X0104682Y0045847D01*
X0103903Y0046626D01*
G37*
G36*
X0105295Y0045234D02*
X0109470Y0049409D01*
X0110249Y0048630D01*
X0106074Y0044455D01*
X0105295Y0045234D01*
G37*
D11*
X0053486Y0050760D03*
X0043249Y0050760D03*
X0043249Y0054500D03*
X0043249Y0058240D03*
X0053486Y0058240D03*
D12*
X0053214Y0066000D03*
X0046521Y0066000D03*
X0078521Y0054500D03*
X0085214Y0054500D03*
X0052714Y0043000D03*
X0046021Y0043000D03*
D13*
X0019092Y0050760D03*
X0019092Y0054500D03*
X0019092Y0058240D03*
X0009643Y0058240D03*
X0009643Y0054500D03*
X0009643Y0050760D03*
D14*
X0025367Y0050705D03*
X0025367Y0053303D03*
X0025367Y0055902D03*
X0025367Y0058500D03*
X0037119Y0058500D03*
X0037119Y0055902D03*
X0037119Y0053303D03*
X0037119Y0050705D03*
D15*
X0033212Y0054593D03*
D16*
X0067308Y0054500D03*
X0072427Y0054500D03*
G36*
X0091951Y0041587D02*
X0093900Y0043536D01*
X0096403Y0041033D01*
X0094454Y0039084D01*
X0091951Y0041587D01*
G37*
G36*
X0088332Y0037967D02*
X0090281Y0039916D01*
X0092784Y0037413D01*
X0090835Y0035464D01*
X0088332Y0037967D01*
G37*
G36*
X0105951Y0028587D02*
X0107900Y0030536D01*
X0110403Y0028033D01*
X0108454Y0026084D01*
X0105951Y0028587D01*
G37*
G36*
X0102332Y0024967D02*
X0104281Y0026916D01*
X0106784Y0024413D01*
X0104835Y0022464D01*
X0102332Y0024967D01*
G37*
X0144308Y0025000D03*
X0149427Y0025000D03*
X0180308Y0046000D03*
X0185427Y0046000D03*
X0170427Y0050500D03*
X0165308Y0050500D03*
X0191308Y0070000D03*
X0196427Y0070000D03*
X0239308Y0063000D03*
X0244427Y0063000D03*
X0244427Y0054000D03*
X0239308Y0054000D03*
X0251308Y0048500D03*
X0256427Y0048500D03*
X0245927Y0035000D03*
X0240808Y0035000D03*
X0116427Y0084000D03*
X0111308Y0084000D03*
G36*
X0103335Y0078036D02*
X0105284Y0076087D01*
X0102781Y0073584D01*
X0100832Y0075533D01*
X0103335Y0078036D01*
G37*
G36*
X0106954Y0074416D02*
X0108903Y0072467D01*
X0106400Y0069964D01*
X0104451Y0071913D01*
X0106954Y0074416D01*
G37*
G36*
X0099835Y0074536D02*
X0101784Y0072587D01*
X0099281Y0070084D01*
X0097332Y0072033D01*
X0099835Y0074536D01*
G37*
G36*
X0103454Y0070916D02*
X0105403Y0068967D01*
X0102900Y0066464D01*
X0100951Y0068413D01*
X0103454Y0070916D01*
G37*
X0039927Y0032500D03*
X0034808Y0032500D03*
X0034808Y0028000D03*
X0039927Y0028000D03*
X0039927Y0023500D03*
X0034808Y0023500D03*
D17*
X0152367Y0034941D03*
X0152367Y0040059D03*
X0185867Y0054941D03*
X0185867Y0060059D03*
X0207367Y0044059D03*
X0207367Y0038941D03*
X0196867Y0037441D03*
X0191867Y0037441D03*
X0191867Y0042559D03*
X0196867Y0042559D03*
X0221367Y0044059D03*
X0221367Y0038941D03*
X0234867Y0041059D03*
X0234867Y0035941D03*
X0264367Y0053441D03*
X0268867Y0053441D03*
X0268867Y0058559D03*
X0264367Y0058559D03*
X0254367Y0060441D03*
X0254367Y0065559D03*
X0233867Y0064059D03*
X0233867Y0058941D03*
X0137367Y0078941D03*
X0132367Y0078941D03*
X0132367Y0084059D03*
X0137367Y0084059D03*
D18*
G36*
X0099001Y0042376D02*
X0101784Y0039593D01*
X0096775Y0034584D01*
X0093992Y0037367D01*
X0099001Y0042376D01*
G37*
G36*
X0105960Y0035416D02*
X0108743Y0032633D01*
X0103734Y0027624D01*
X0100951Y0030407D01*
X0105960Y0035416D01*
G37*
D19*
X0143867Y0080000D03*
X0148867Y0080000D03*
X0153867Y0080000D03*
X0158867Y0080000D03*
X0163867Y0080000D03*
X0163867Y0085000D03*
X0158867Y0085000D03*
X0153867Y0085000D03*
X0148867Y0085000D03*
X0143867Y0085000D03*
D20*
X0156556Y0070000D03*
X0156556Y0065000D03*
X0156556Y0060000D03*
X0156556Y0055000D03*
X0180178Y0055000D03*
X0180178Y0060000D03*
X0180178Y0065000D03*
X0180178Y0070000D03*
X0165698Y0040382D03*
X0157037Y0040382D03*
X0157037Y0035461D03*
X0165698Y0035461D03*
X0165698Y0030539D03*
X0157037Y0030539D03*
X0157037Y0025618D03*
X0165698Y0025618D03*
D21*
X0176037Y0025126D03*
X0176037Y0028276D03*
X0176037Y0031425D03*
X0176037Y0034575D03*
X0176037Y0037724D03*
X0176037Y0040874D03*
X0184698Y0040874D03*
X0184698Y0037724D03*
X0184698Y0034575D03*
X0184698Y0031425D03*
X0184698Y0028276D03*
X0184698Y0025126D03*
D22*
X0180367Y0024732D03*
X0180367Y0041268D03*
D23*
X0062367Y0031000D03*
X0052367Y0031000D03*
X0052367Y0079000D03*
X0062367Y0079000D03*
D24*
X0210430Y0066437D03*
X0214367Y0066437D03*
X0218304Y0066437D03*
X0218304Y0062500D03*
X0214367Y0062500D03*
X0210430Y0062500D03*
X0210430Y0058563D03*
X0214367Y0058563D03*
X0218304Y0058563D03*
D25*
X0222635Y0059547D02*
X0224801Y0059547D01*
X0222635Y0059547D02*
X0222635Y0059547D01*
X0224801Y0059547D01*
X0224801Y0059547D01*
X0224801Y0061516D02*
X0222635Y0061516D01*
X0222635Y0061516D01*
X0224801Y0061516D01*
X0224801Y0061516D01*
X0224801Y0063484D02*
X0222635Y0063484D01*
X0222635Y0063484D01*
X0224801Y0063484D01*
X0224801Y0063484D01*
X0224801Y0065453D02*
X0222635Y0065453D01*
X0222635Y0065453D01*
X0224801Y0065453D01*
X0224801Y0065453D01*
X0224801Y0067421D02*
X0222635Y0067421D01*
X0222635Y0067421D01*
X0224801Y0067421D01*
X0224801Y0067421D01*
X0224801Y0069390D02*
X0222635Y0069390D01*
X0222635Y0069390D01*
X0224801Y0069390D01*
X0224801Y0069390D01*
X0221257Y0070767D02*
X0221257Y0070767D01*
X0221257Y0072933D01*
X0221257Y0072933D01*
X0221257Y0070767D01*
X0221257Y0071947D02*
X0221257Y0071947D01*
X0219289Y0070767D02*
X0219289Y0070767D01*
X0219289Y0072933D01*
X0219289Y0072933D01*
X0219289Y0070767D01*
X0219289Y0071947D02*
X0219289Y0071947D01*
X0217320Y0070767D02*
X0217320Y0070767D01*
X0217320Y0072933D01*
X0217320Y0072933D01*
X0217320Y0070767D01*
X0217320Y0071947D02*
X0217320Y0071947D01*
X0215352Y0070767D02*
X0215352Y0070767D01*
X0215352Y0072933D01*
X0215352Y0072933D01*
X0215352Y0070767D01*
X0215352Y0071947D02*
X0215352Y0071947D01*
X0213383Y0070767D02*
X0213383Y0070767D01*
X0213383Y0072933D01*
X0213383Y0072933D01*
X0213383Y0070767D01*
X0213383Y0071947D02*
X0213383Y0071947D01*
X0211415Y0070767D02*
X0211415Y0070767D01*
X0211415Y0072933D01*
X0211415Y0072933D01*
X0211415Y0070767D01*
X0211415Y0071947D02*
X0211415Y0071947D01*
X0209446Y0070767D02*
X0209446Y0070767D01*
X0209446Y0072933D01*
X0209446Y0072933D01*
X0209446Y0070767D01*
X0209446Y0071947D02*
X0209446Y0071947D01*
X0207478Y0070767D02*
X0207478Y0070767D01*
X0207478Y0072933D01*
X0207478Y0072933D01*
X0207478Y0070767D01*
X0207478Y0071947D02*
X0207478Y0071947D01*
X0206100Y0069390D02*
X0203934Y0069390D01*
X0203934Y0069390D01*
X0206100Y0069390D01*
X0206100Y0069390D01*
X0206100Y0067421D02*
X0203934Y0067421D01*
X0203934Y0067421D01*
X0206100Y0067421D01*
X0206100Y0067421D01*
X0206100Y0065453D02*
X0203934Y0065453D01*
X0203934Y0065453D01*
X0206100Y0065453D01*
X0206100Y0065453D01*
X0206100Y0063484D02*
X0203934Y0063484D01*
X0203934Y0063484D01*
X0206100Y0063484D01*
X0206100Y0063484D01*
X0206100Y0061516D02*
X0203934Y0061516D01*
X0203934Y0061516D01*
X0206100Y0061516D01*
X0206100Y0061516D01*
X0206100Y0059547D02*
X0203934Y0059547D01*
X0203934Y0059547D01*
X0206100Y0059547D01*
X0206100Y0059547D01*
X0206100Y0057579D02*
X0203934Y0057579D01*
X0203934Y0057579D01*
X0206100Y0057579D01*
X0206100Y0057579D01*
X0206100Y0055610D02*
X0203934Y0055610D01*
X0203934Y0055610D01*
X0206100Y0055610D01*
X0206100Y0055610D01*
X0207478Y0052067D02*
X0207478Y0052067D01*
X0207478Y0054233D01*
X0207478Y0054233D01*
X0207478Y0052067D01*
X0207478Y0053247D02*
X0207478Y0053247D01*
X0209446Y0052067D02*
X0209446Y0052067D01*
X0209446Y0054233D01*
X0209446Y0054233D01*
X0209446Y0052067D01*
X0209446Y0053247D02*
X0209446Y0053247D01*
X0211415Y0052067D02*
X0211415Y0052067D01*
X0211415Y0054233D01*
X0211415Y0054233D01*
X0211415Y0052067D01*
X0211415Y0053247D02*
X0211415Y0053247D01*
X0213383Y0052067D02*
X0213383Y0052067D01*
X0213383Y0054233D01*
X0213383Y0054233D01*
X0213383Y0052067D01*
X0213383Y0053247D02*
X0213383Y0053247D01*
X0215352Y0052067D02*
X0215352Y0052067D01*
X0215352Y0054233D01*
X0215352Y0054233D01*
X0215352Y0052067D01*
X0215352Y0053247D02*
X0215352Y0053247D01*
X0217320Y0052067D02*
X0217320Y0052067D01*
X0217320Y0054233D01*
X0217320Y0054233D01*
X0217320Y0052067D01*
X0217320Y0053247D02*
X0217320Y0053247D01*
X0219289Y0052067D02*
X0219289Y0052067D01*
X0219289Y0054233D01*
X0219289Y0054233D01*
X0219289Y0052067D01*
X0219289Y0053247D02*
X0219289Y0053247D01*
X0221257Y0052067D02*
X0221257Y0052067D01*
X0221257Y0054233D01*
X0221257Y0054233D01*
X0221257Y0052067D01*
X0221257Y0053247D02*
X0221257Y0053247D01*
X0222635Y0055610D02*
X0224801Y0055610D01*
X0222635Y0055610D02*
X0222635Y0055610D01*
X0224801Y0055610D01*
X0224801Y0055610D01*
X0224801Y0057579D02*
X0222635Y0057579D01*
X0222635Y0057579D01*
X0224801Y0057579D01*
X0224801Y0057579D01*
X0103942Y0082622D02*
X0103942Y0085378D01*
X0106698Y0085378D01*
X0106698Y0082622D01*
X0103942Y0082622D01*
X0103942Y0083802D02*
X0106698Y0083802D01*
X0106698Y0084982D02*
X0103942Y0084982D01*
X0097037Y0085378D02*
X0097037Y0082622D01*
X0097037Y0085378D02*
X0099793Y0085378D01*
X0099793Y0082622D01*
X0097037Y0082622D01*
X0097037Y0083802D02*
X0099793Y0083802D01*
X0099793Y0084982D02*
X0097037Y0084982D01*
D26*
X0214367Y0062500D03*
D27*
X0196151Y0061000D03*
X0191584Y0061000D03*
X0191584Y0056500D03*
X0196151Y0056500D03*
X0196151Y0065500D03*
X0191584Y0065500D03*
X0233584Y0082500D03*
X0238151Y0082500D03*
X0239584Y0076500D03*
X0244151Y0076500D03*
X0244151Y0072000D03*
X0239584Y0072000D03*
X0239584Y0067500D03*
X0244151Y0067500D03*
X0244151Y0058500D03*
X0239584Y0058500D03*
X0254084Y0055000D03*
X0258651Y0055000D03*
X0243651Y0047000D03*
X0239084Y0047000D03*
X0251584Y0044000D03*
X0256151Y0044000D03*
X0254084Y0039500D03*
X0258651Y0039500D03*
X0258651Y0035000D03*
X0254084Y0035000D03*
X0245651Y0039500D03*
X0241084Y0039500D03*
X0137151Y0025000D03*
X0132584Y0025000D03*
X0078151Y0041500D03*
X0073584Y0041500D03*
X0072084Y0036000D03*
X0076651Y0036000D03*
X0076651Y0030500D03*
X0072084Y0030500D03*
X0073584Y0047000D03*
X0078151Y0047000D03*
X0076651Y0063000D03*
X0072084Y0063000D03*
X0072084Y0068500D03*
X0076651Y0068500D03*
X0076651Y0074000D03*
X0072084Y0074000D03*
X0072084Y0079500D03*
X0076651Y0079500D03*
D28*
X0170867Y0078217D03*
X0170867Y0082783D03*
X0201367Y0084283D03*
X0209867Y0084783D03*
X0214367Y0085283D03*
X0218867Y0084783D03*
X0223367Y0084783D03*
X0227867Y0084783D03*
X0227867Y0080217D03*
X0223367Y0080217D03*
X0218867Y0080217D03*
X0214367Y0080717D03*
X0209867Y0080217D03*
X0201367Y0079717D03*
X0264367Y0070283D03*
X0264367Y0065717D03*
X0225867Y0043783D03*
X0216867Y0043783D03*
X0212367Y0043783D03*
X0212367Y0039217D03*
X0216867Y0039217D03*
X0225867Y0039217D03*
D29*
X0194651Y0076972D03*
X0180084Y0076972D03*
X0180084Y0086028D03*
X0194651Y0086028D03*
D30*
X0281867Y0066000D03*
X0281867Y0046000D03*
D31*
X0066367Y0049000D03*
X0063769Y0049000D03*
X0061171Y0049000D03*
X0058572Y0049000D03*
X0058572Y0037248D03*
X0061171Y0037248D03*
X0063769Y0037248D03*
X0066367Y0037248D03*
X0066163Y0061000D03*
X0063564Y0061000D03*
X0060966Y0061000D03*
X0058367Y0061000D03*
X0058367Y0072752D03*
X0060966Y0072752D03*
X0063564Y0072752D03*
X0066163Y0072752D03*
D32*
X0062275Y0068844D03*
X0062460Y0041156D03*
D33*
X0007367Y0041752D02*
X0007367Y0018000D01*
X0150822Y0018000D01*
X0150067Y0018754D01*
X0148067Y0020754D01*
X0148067Y0021928D01*
X0147510Y0021928D01*
X0146867Y0022571D01*
X0146225Y0021928D01*
X0142392Y0021928D01*
X0141630Y0022690D01*
X0141630Y0023200D01*
X0140124Y0023200D01*
X0140124Y0022690D01*
X0139363Y0021928D01*
X0134939Y0021928D01*
X0134178Y0022690D01*
X0134178Y0022728D01*
X0132921Y0022728D01*
X0132921Y0024663D01*
X0132247Y0024663D01*
X0132247Y0022728D01*
X0130811Y0022728D01*
X0130628Y0022804D01*
X0130487Y0022945D01*
X0130411Y0023129D01*
X0130411Y0024663D01*
X0132247Y0024663D01*
X0132247Y0025337D01*
X0132247Y0027272D01*
X0130811Y0027272D01*
X0130628Y0027196D01*
X0130487Y0027055D01*
X0130411Y0026871D01*
X0130411Y0025337D01*
X0132247Y0025337D01*
X0132921Y0025337D01*
X0132921Y0027272D01*
X0133348Y0027272D01*
X0133121Y0027499D01*
X0132717Y0028473D01*
X0132717Y0029527D01*
X0132820Y0029776D01*
X0132280Y0029235D01*
X0131203Y0029235D01*
X0126266Y0034172D01*
X0126266Y0035041D01*
X0125469Y0034245D01*
X0125469Y0034172D01*
X0120532Y0029235D01*
X0119455Y0029235D01*
X0118565Y0030125D01*
X0117641Y0029200D01*
X0113815Y0029200D01*
X0113369Y0028753D01*
X0112395Y0028350D01*
X0111704Y0028350D01*
X0111704Y0027493D01*
X0108994Y0024782D01*
X0107917Y0024782D01*
X0105324Y0027375D01*
X0104927Y0026977D01*
X0105752Y0026152D01*
X0104558Y0024958D01*
X0104825Y0024691D01*
X0106019Y0025885D01*
X0107209Y0024695D01*
X0107285Y0024512D01*
X0107285Y0024313D01*
X0107209Y0024129D01*
X0106298Y0023218D01*
X0104825Y0024690D01*
X0104558Y0024423D01*
X0106031Y0022951D01*
X0105120Y0022039D01*
X0104936Y0021963D01*
X0104737Y0021963D01*
X0104553Y0022039D01*
X0103364Y0023229D01*
X0104558Y0024423D01*
X0104291Y0024690D01*
X0103096Y0023496D01*
X0101907Y0024686D01*
X0101831Y0024869D01*
X0101831Y0025068D01*
X0101907Y0025252D01*
X0102818Y0026163D01*
X0104291Y0024691D01*
X0104558Y0024958D01*
X0103085Y0026430D01*
X0103086Y0026432D01*
X0099650Y0029868D01*
X0099650Y0030945D01*
X0102067Y0033363D01*
X0102067Y0038037D01*
X0097313Y0033282D01*
X0096236Y0033282D01*
X0092799Y0036719D01*
X0092298Y0036218D01*
X0090825Y0037690D01*
X0090558Y0037423D01*
X0092031Y0035951D01*
X0091120Y0035039D01*
X0090936Y0034963D01*
X0090737Y0034963D01*
X0090553Y0035039D01*
X0089364Y0036229D01*
X0090558Y0037423D01*
X0090291Y0037690D01*
X0089096Y0036496D01*
X0087907Y0037686D01*
X0087831Y0037869D01*
X0087831Y0038068D01*
X0087907Y0038252D01*
X0088818Y0039163D01*
X0090291Y0037691D01*
X0090558Y0037958D01*
X0091752Y0039152D01*
X0090563Y0040341D01*
X0090379Y0040418D01*
X0090180Y0040418D01*
X0089996Y0040341D01*
X0089085Y0039430D01*
X0090558Y0037958D01*
X0090825Y0037691D01*
X0092019Y0038885D01*
X0092845Y0038059D01*
X0093242Y0038457D01*
X0090650Y0041049D01*
X0090650Y0042126D01*
X0093360Y0044837D01*
X0094437Y0044837D01*
X0097030Y0042244D01*
X0098463Y0043677D01*
X0099188Y0043677D01*
X0099667Y0044156D01*
X0099593Y0044126D01*
X0096448Y0044126D01*
X0093543Y0045330D01*
X0091319Y0047553D01*
X0090923Y0048510D01*
X0087613Y0045200D01*
X0081124Y0045200D01*
X0081124Y0044690D01*
X0080684Y0044250D01*
X0081124Y0043810D01*
X0081124Y0039650D01*
X0081395Y0039650D01*
X0082369Y0039247D01*
X0083114Y0038501D01*
X0083517Y0037527D01*
X0083517Y0036473D01*
X0083114Y0035499D01*
X0082369Y0034753D01*
X0081395Y0034350D01*
X0080340Y0034350D01*
X0079624Y0034647D01*
X0079624Y0033690D01*
X0079184Y0033250D01*
X0079624Y0032810D01*
X0079624Y0028190D01*
X0078863Y0027428D01*
X0074439Y0027428D01*
X0073678Y0028190D01*
X0073678Y0028228D01*
X0072421Y0028228D01*
X0072421Y0030163D01*
X0071747Y0030163D01*
X0071747Y0028228D01*
X0070311Y0028228D01*
X0070128Y0028304D01*
X0069987Y0028445D01*
X0069911Y0028629D01*
X0069911Y0030163D01*
X0071747Y0030163D01*
X0071747Y0030837D01*
X0071747Y0032772D01*
X0070311Y0032772D01*
X0070128Y0032696D01*
X0069987Y0032555D01*
X0069911Y0032371D01*
X0069911Y0030837D01*
X0071747Y0030837D01*
X0072421Y0030837D01*
X0072421Y0032772D01*
X0073678Y0032772D01*
X0073678Y0032810D01*
X0073796Y0032928D01*
X0069872Y0032928D01*
X0069111Y0033690D01*
X0069111Y0035448D01*
X0068465Y0035448D01*
X0068465Y0034761D01*
X0067703Y0033999D01*
X0067192Y0033999D01*
X0066667Y0032740D01*
X0066667Y0027462D01*
X0065906Y0026700D01*
X0058829Y0026700D01*
X0058067Y0027462D01*
X0058067Y0032485D01*
X0057379Y0033999D01*
X0057236Y0033999D01*
X0056475Y0034761D01*
X0056475Y0039735D01*
X0056760Y0040021D01*
X0056760Y0045090D01*
X0057522Y0045851D01*
X0064932Y0045851D01*
X0064270Y0046513D01*
X0064270Y0046551D01*
X0063769Y0046551D01*
X0063769Y0049000D01*
X0063867Y0049098D01*
X0063867Y0053500D01*
X0064867Y0054500D01*
X0067308Y0054500D01*
X0066163Y0055646D01*
X0066163Y0061000D01*
X0067460Y0061000D01*
X0067460Y0063048D01*
X0067384Y0063232D01*
X0067243Y0063373D01*
X0067059Y0063449D01*
X0066163Y0063449D01*
X0066163Y0061000D01*
X0066163Y0061000D01*
X0067460Y0061000D01*
X0067460Y0058952D01*
X0067384Y0058768D01*
X0067243Y0058627D01*
X0067059Y0058551D01*
X0066163Y0058551D01*
X0066163Y0061000D01*
X0066163Y0061000D01*
X0066163Y0061000D01*
X0066367Y0061000D01*
X0068367Y0063000D01*
X0068367Y0064500D01*
X0068867Y0065500D01*
X0069367Y0065783D01*
X0072084Y0068500D01*
X0071084Y0067500D01*
X0070367Y0067500D01*
X0069911Y0067923D02*
X0067975Y0067923D01*
X0067975Y0068921D02*
X0069911Y0068921D01*
X0069911Y0068837D02*
X0071747Y0068837D01*
X0071747Y0070772D01*
X0070311Y0070772D01*
X0070128Y0070696D01*
X0069987Y0070555D01*
X0069911Y0070371D01*
X0069911Y0068837D01*
X0069911Y0068163D02*
X0069911Y0066629D01*
X0069987Y0066445D01*
X0070128Y0066304D01*
X0070311Y0066228D01*
X0071747Y0066228D01*
X0071747Y0068163D01*
X0072421Y0068163D01*
X0072421Y0066228D01*
X0073678Y0066228D01*
X0073678Y0066190D01*
X0073796Y0066072D01*
X0069872Y0066072D01*
X0069111Y0065310D01*
X0069111Y0060690D01*
X0069234Y0060567D01*
X0069217Y0060527D01*
X0069217Y0059473D01*
X0069621Y0058499D01*
X0070366Y0057753D01*
X0070805Y0057572D01*
X0070510Y0057572D01*
X0069749Y0056810D01*
X0069749Y0052190D01*
X0070510Y0051428D01*
X0074343Y0051428D01*
X0075056Y0052141D01*
X0075056Y0051993D01*
X0075817Y0051231D01*
X0076217Y0051231D01*
X0076217Y0050973D01*
X0076591Y0050072D01*
X0075939Y0050072D01*
X0075867Y0050000D01*
X0075796Y0050072D01*
X0071837Y0050072D01*
X0071186Y0050443D01*
X0070830Y0050800D01*
X0070562Y0050800D01*
X0070330Y0050933D01*
X0069843Y0050800D01*
X0068465Y0050800D01*
X0068465Y0051487D01*
X0067724Y0052228D01*
X0068786Y0052228D01*
X0068970Y0052304D01*
X0069110Y0052445D01*
X0069186Y0052629D01*
X0069186Y0054311D01*
X0067497Y0054311D01*
X0067497Y0054689D01*
X0067119Y0054689D01*
X0067119Y0054311D01*
X0065430Y0054311D01*
X0065430Y0052629D01*
X0065507Y0052445D01*
X0065647Y0052304D01*
X0065782Y0052249D01*
X0065032Y0052249D01*
X0064270Y0051487D01*
X0064270Y0051449D01*
X0063769Y0051449D01*
X0062872Y0051449D01*
X0062689Y0051373D01*
X0062548Y0051232D01*
X0062472Y0051048D01*
X0062472Y0049000D01*
X0062472Y0046952D01*
X0062548Y0046768D01*
X0062689Y0046627D01*
X0062872Y0046551D01*
X0063769Y0046551D01*
X0063769Y0049000D01*
X0061171Y0049000D01*
X0062468Y0049000D01*
X0062468Y0051048D01*
X0062392Y0051232D01*
X0062251Y0051373D01*
X0062067Y0051449D01*
X0061171Y0051449D01*
X0061171Y0049000D01*
X0061171Y0049000D01*
X0062468Y0049000D01*
X0062468Y0046952D01*
X0062392Y0046768D01*
X0062251Y0046627D01*
X0062067Y0046551D01*
X0061171Y0046551D01*
X0061171Y0049000D01*
X0061171Y0049000D01*
X0061171Y0049000D01*
X0058572Y0049000D01*
X0058572Y0049000D01*
X0057275Y0049000D01*
X0057275Y0051048D01*
X0057351Y0051232D01*
X0057492Y0051373D01*
X0057675Y0051449D01*
X0058572Y0051449D01*
X0058572Y0049000D01*
X0057275Y0049000D01*
X0057275Y0046952D01*
X0057351Y0046768D01*
X0057492Y0046627D01*
X0057675Y0046551D01*
X0058572Y0046551D01*
X0058572Y0049000D01*
X0058572Y0049000D01*
X0058572Y0049000D01*
X0057072Y0047500D01*
X0055867Y0047500D01*
X0052714Y0044346D01*
X0052714Y0043000D01*
X0048867Y0048000D01*
X0048367Y0050000D01*
X0048367Y0053500D01*
X0047367Y0054500D01*
X0047367Y0055500D01*
X0047867Y0055000D01*
X0049867Y0055000D01*
X0050585Y0055857D02*
X0049824Y0056619D01*
X0049824Y0059861D01*
X0050067Y0060105D01*
X0050067Y0063174D01*
X0049749Y0063493D01*
X0049749Y0068507D01*
X0050510Y0069268D01*
X0050717Y0069268D01*
X0050717Y0069527D01*
X0051121Y0070501D01*
X0051866Y0071247D01*
X0052840Y0071650D01*
X0053895Y0071650D01*
X0054869Y0071247D01*
X0055614Y0070501D01*
X0056017Y0069527D01*
X0056017Y0069169D01*
X0056575Y0068611D01*
X0056575Y0069960D01*
X0056270Y0070265D01*
X0056270Y0075064D01*
X0055906Y0074700D01*
X0054007Y0074700D01*
X0053282Y0074400D01*
X0045773Y0074400D01*
X0043467Y0072095D01*
X0043467Y0060623D01*
X0046150Y0060623D01*
X0046911Y0059861D01*
X0046911Y0056619D01*
X0046150Y0055857D01*
X0046038Y0055857D01*
X0046111Y0055682D01*
X0046111Y0054541D01*
X0043290Y0054541D01*
X0043290Y0054459D01*
X0046111Y0054459D01*
X0046111Y0053318D01*
X0046038Y0053143D01*
X0046150Y0053143D01*
X0046911Y0052381D01*
X0046911Y0049139D01*
X0046150Y0048377D01*
X0041248Y0048377D01*
X0043356Y0046268D01*
X0048725Y0046268D01*
X0049486Y0045507D01*
X0049486Y0040493D01*
X0049309Y0040316D01*
X0054325Y0035300D01*
X0055906Y0035300D01*
X0056667Y0034538D01*
X0056667Y0032639D01*
X0056967Y0031915D01*
X0056967Y0030085D01*
X0056667Y0029361D01*
X0056667Y0027462D01*
X0055906Y0026700D01*
X0054007Y0026700D01*
X0053282Y0026400D01*
X0051204Y0026400D01*
X0050878Y0026535D01*
X0051113Y0026300D01*
X0084622Y0026300D01*
X0089717Y0031396D01*
X0089717Y0032027D01*
X0090121Y0033001D01*
X0090866Y0033747D01*
X0091840Y0034150D01*
X0092895Y0034150D01*
X0093869Y0033747D01*
X0094614Y0033001D01*
X0095017Y0032027D01*
X0095017Y0030973D01*
X0094614Y0029999D01*
X0093869Y0029253D01*
X0092895Y0028850D01*
X0092263Y0028850D01*
X0087167Y0023754D01*
X0086113Y0022700D01*
X0049622Y0022700D01*
X0048321Y0024001D01*
X0048517Y0023527D01*
X0048517Y0022473D01*
X0048114Y0021499D01*
X0047369Y0020753D01*
X0046395Y0020350D01*
X0045340Y0020350D01*
X0044366Y0020753D01*
X0043920Y0021200D01*
X0042604Y0021200D01*
X0042604Y0021190D01*
X0041843Y0020428D01*
X0038010Y0020428D01*
X0037249Y0021190D01*
X0037249Y0029952D01*
X0036725Y0029428D01*
X0036686Y0029428D01*
X0036686Y0028189D01*
X0034997Y0028189D01*
X0034997Y0027811D01*
X0034997Y0025728D01*
X0034997Y0023689D01*
X0034619Y0023689D01*
X0034619Y0023311D01*
X0032930Y0023311D01*
X0032930Y0021629D01*
X0033007Y0021445D01*
X0033147Y0021304D01*
X0033331Y0021228D01*
X0034619Y0021228D01*
X0034619Y0023311D01*
X0034997Y0023311D01*
X0034997Y0021228D01*
X0036286Y0021228D01*
X0036470Y0021304D01*
X0036610Y0021445D01*
X0036686Y0021629D01*
X0036686Y0023311D01*
X0034997Y0023311D01*
X0034997Y0023689D01*
X0036686Y0023689D01*
X0036686Y0025371D01*
X0036610Y0025555D01*
X0036470Y0025696D01*
X0036338Y0025750D01*
X0036470Y0025804D01*
X0036610Y0025945D01*
X0036686Y0026129D01*
X0036686Y0027811D01*
X0034997Y0027811D01*
X0034619Y0027811D01*
X0032930Y0027811D01*
X0032930Y0026129D01*
X0033007Y0025945D01*
X0033147Y0025804D01*
X0033279Y0025750D01*
X0033147Y0025696D01*
X0033007Y0025555D01*
X0032930Y0025371D01*
X0032930Y0023689D01*
X0034619Y0023689D01*
X0034619Y0027811D01*
X0034619Y0028189D01*
X0032930Y0028189D01*
X0032930Y0029428D01*
X0032892Y0029428D01*
X0032130Y0030190D01*
X0032130Y0033191D01*
X0025622Y0039700D01*
X0010622Y0039700D01*
X0009567Y0040754D01*
X0009567Y0040754D01*
X0009472Y0040850D01*
X0008840Y0040850D01*
X0007866Y0041253D01*
X0007367Y0041752D01*
X0007367Y0040963D02*
X0008568Y0040963D01*
X0007367Y0039964D02*
X0010358Y0039964D01*
X0011367Y0041500D02*
X0009367Y0043500D01*
X0012017Y0043396D02*
X0012017Y0044027D01*
X0011614Y0045001D01*
X0010869Y0045747D01*
X0009895Y0046150D01*
X0008840Y0046150D01*
X0007866Y0045747D01*
X0007367Y0045248D01*
X0007367Y0048082D01*
X0012150Y0048082D01*
X0012567Y0048499D01*
X0012567Y0048254D01*
X0014567Y0046254D01*
X0015622Y0045200D01*
X0023613Y0045200D01*
X0025113Y0046700D01*
X0026167Y0047754D01*
X0026167Y0048607D01*
X0027855Y0048607D01*
X0028616Y0049369D01*
X0028616Y0049554D01*
X0029278Y0048893D01*
X0031267Y0048893D01*
X0031267Y0046585D01*
X0031968Y0044894D01*
X0033044Y0043818D01*
X0033219Y0043396D01*
X0032869Y0043747D01*
X0031895Y0044150D01*
X0030840Y0044150D01*
X0029866Y0043747D01*
X0029121Y0043001D01*
X0028717Y0042027D01*
X0028717Y0041696D01*
X0028167Y0042246D01*
X0027113Y0043300D01*
X0012113Y0043300D01*
X0012017Y0043396D01*
X0012017Y0043958D02*
X0030378Y0043958D01*
X0029104Y0042960D02*
X0027453Y0042960D01*
X0028452Y0041961D02*
X0028717Y0041961D01*
X0026367Y0041500D02*
X0011367Y0041500D01*
X0007367Y0038966D02*
X0026356Y0038966D01*
X0027355Y0037967D02*
X0007367Y0037967D01*
X0007367Y0036969D02*
X0028353Y0036969D01*
X0029352Y0035970D02*
X0007367Y0035970D01*
X0007367Y0034972D02*
X0013401Y0034972D01*
X0014677Y0035500D02*
X0011553Y0034206D01*
X0009161Y0031815D01*
X0007867Y0028691D01*
X0007867Y0025309D01*
X0009161Y0022185D01*
X0011553Y0019794D01*
X0014677Y0018500D01*
X0018058Y0018500D01*
X0021182Y0019794D01*
X0023573Y0022185D01*
X0024867Y0025309D01*
X0024867Y0028691D01*
X0023573Y0031815D01*
X0021182Y0034206D01*
X0018058Y0035500D01*
X0014677Y0035500D01*
X0011320Y0033973D02*
X0007367Y0033973D01*
X0007367Y0032975D02*
X0010321Y0032975D01*
X0009323Y0031976D02*
X0007367Y0031976D01*
X0007367Y0030978D02*
X0008815Y0030978D01*
X0008401Y0029979D02*
X0007367Y0029979D01*
X0007367Y0028981D02*
X0007988Y0028981D01*
X0007867Y0027982D02*
X0007367Y0027982D01*
X0007367Y0026984D02*
X0007867Y0026984D01*
X0007867Y0025985D02*
X0007367Y0025985D01*
X0007367Y0024987D02*
X0008001Y0024987D01*
X0008415Y0023988D02*
X0007367Y0023988D01*
X0007367Y0022990D02*
X0008828Y0022990D01*
X0009356Y0021991D02*
X0007367Y0021991D01*
X0007367Y0020993D02*
X0010354Y0020993D01*
X0011353Y0019994D02*
X0007367Y0019994D01*
X0007367Y0018996D02*
X0013480Y0018996D01*
X0019255Y0018996D02*
X0149826Y0018996D01*
X0148828Y0019994D02*
X0021382Y0019994D01*
X0022381Y0020993D02*
X0037446Y0020993D01*
X0037249Y0021991D02*
X0036686Y0021991D01*
X0036686Y0022990D02*
X0037249Y0022990D01*
X0037249Y0023988D02*
X0036686Y0023988D01*
X0036686Y0024987D02*
X0037249Y0024987D01*
X0037249Y0025985D02*
X0036627Y0025985D01*
X0036686Y0026984D02*
X0037249Y0026984D01*
X0037249Y0027982D02*
X0034997Y0027982D01*
X0034808Y0028000D02*
X0034808Y0023500D01*
X0034367Y0023500D01*
X0033867Y0024000D01*
X0033867Y0021500D01*
X0035367Y0020000D01*
X0062867Y0020000D01*
X0064367Y0021500D01*
X0066190Y0026984D02*
X0085305Y0026984D01*
X0086304Y0027982D02*
X0079416Y0027982D01*
X0079624Y0028981D02*
X0087303Y0028981D01*
X0088301Y0029979D02*
X0079624Y0029979D01*
X0079624Y0030978D02*
X0089300Y0030978D01*
X0089717Y0031976D02*
X0079624Y0031976D01*
X0079460Y0032975D02*
X0090110Y0032975D01*
X0091414Y0033973D02*
X0079624Y0033973D01*
X0082587Y0034972D02*
X0090717Y0034972D01*
X0090956Y0034972D02*
X0094546Y0034972D01*
X0093548Y0035970D02*
X0092011Y0035970D01*
X0091547Y0036969D02*
X0091012Y0036969D01*
X0090558Y0037690D02*
X0103558Y0024690D01*
X0104558Y0024690D01*
X0121058Y0024690D01*
X0122867Y0026500D01*
X0122867Y0029500D01*
X0127367Y0025000D01*
X0132584Y0025000D01*
X0132867Y0024717D01*
X0132867Y0022500D01*
X0134367Y0021000D01*
X0139867Y0021000D01*
X0139425Y0021991D02*
X0142329Y0021991D01*
X0141630Y0022990D02*
X0140124Y0022990D01*
X0137151Y0025000D02*
X0144308Y0025000D01*
X0141630Y0026800D02*
X0140124Y0026800D01*
X0140124Y0027310D01*
X0139363Y0028072D01*
X0138167Y0028072D01*
X0138167Y0028246D01*
X0137995Y0028418D01*
X0138017Y0028473D01*
X0138017Y0028604D01*
X0140667Y0031254D01*
X0140667Y0036070D01*
X0139613Y0037124D01*
X0139389Y0037348D01*
X0139389Y0037421D01*
X0139361Y0037448D01*
X0139444Y0037531D01*
X0137003Y0039972D01*
X0137003Y0039972D01*
X0139444Y0037531D01*
X0139527Y0037614D01*
X0139555Y0037587D01*
X0140632Y0037587D01*
X0142023Y0038979D01*
X0142067Y0039023D01*
X0142067Y0031754D01*
X0143122Y0030700D01*
X0145750Y0028072D01*
X0142392Y0028072D01*
X0141630Y0027310D01*
X0141630Y0026800D01*
X0141630Y0026984D02*
X0140124Y0026984D01*
X0139452Y0027982D02*
X0142302Y0027982D01*
X0144841Y0028981D02*
X0138394Y0028981D01*
X0139392Y0029979D02*
X0143843Y0029979D01*
X0142844Y0030978D02*
X0140391Y0030978D01*
X0140667Y0031976D02*
X0142067Y0031976D01*
X0142067Y0032975D02*
X0140667Y0032975D01*
X0140667Y0033973D02*
X0142067Y0033973D01*
X0142067Y0034972D02*
X0140667Y0034972D01*
X0140667Y0035970D02*
X0142067Y0035970D01*
X0142067Y0036969D02*
X0139768Y0036969D01*
X0139008Y0037967D02*
X0139008Y0037967D01*
X0138010Y0038966D02*
X0138010Y0038966D01*
X0137011Y0039964D02*
X0137011Y0039964D01*
X0137003Y0039973D02*
X0127367Y0049608D01*
X0127367Y0051000D01*
X0124367Y0051000D01*
X0127367Y0051000D02*
X0127026Y0054073D01*
X0127099Y0054000D01*
X0127367Y0054000D01*
X0124367Y0054000D01*
X0127026Y0054073D02*
X0126867Y0055500D01*
X0127367Y0056000D01*
X0129367Y0056000D01*
X0133367Y0060000D01*
X0132867Y0062000D01*
X0127867Y0067000D01*
X0126367Y0067000D01*
X0125867Y0067500D01*
X0124867Y0067500D01*
X0125867Y0067500D02*
X0125867Y0079000D01*
X0130367Y0083500D01*
X0131808Y0083500D01*
X0132367Y0084059D01*
X0132178Y0083899D02*
X0128812Y0083899D01*
X0130096Y0083870D02*
X0130096Y0082582D01*
X0130172Y0082398D01*
X0130313Y0082257D01*
X0130496Y0082181D01*
X0132178Y0082181D01*
X0132178Y0083870D01*
X0130096Y0083870D01*
X0130096Y0084248D02*
X0132178Y0084248D01*
X0132178Y0083870D01*
X0132556Y0083870D01*
X0132556Y0082181D01*
X0134239Y0082181D01*
X0134296Y0082205D01*
X0134296Y0082143D01*
X0134938Y0081500D01*
X0134867Y0081429D01*
X0134678Y0081619D01*
X0130057Y0081619D01*
X0129296Y0080857D01*
X0129296Y0078415D01*
X0128243Y0077362D01*
X0128243Y0072805D01*
X0126266Y0070827D01*
X0126266Y0069751D01*
X0127807Y0068210D01*
X0128884Y0068210D01*
X0128911Y0068237D01*
X0128994Y0068154D01*
X0129077Y0068071D01*
X0129049Y0068044D01*
X0129049Y0066967D01*
X0130441Y0065575D01*
X0130441Y0065575D01*
X0131982Y0064034D01*
X0133374Y0062642D01*
X0134766Y0061250D01*
X0135507Y0060509D01*
X0134148Y0059150D01*
X0133340Y0059150D01*
X0132366Y0058747D01*
X0131621Y0058001D01*
X0131217Y0057027D01*
X0131217Y0055973D01*
X0131621Y0054999D01*
X0132366Y0054253D01*
X0133340Y0053850D01*
X0134395Y0053850D01*
X0135369Y0054253D01*
X0136114Y0054999D01*
X0136517Y0055973D01*
X0136517Y0056429D01*
X0138052Y0057964D01*
X0138291Y0057725D01*
X0137067Y0056502D01*
X0137067Y0052754D01*
X0138122Y0051700D01*
X0139122Y0050700D01*
X0141716Y0050700D01*
X0141577Y0050561D01*
X0140185Y0049169D01*
X0138942Y0047926D01*
X0137401Y0046385D01*
X0136009Y0044993D01*
X0134617Y0043601D01*
X0134617Y0042524D01*
X0134644Y0042497D01*
X0134562Y0042414D01*
X0137003Y0039973D01*
X0137003Y0039973D01*
X0134561Y0042414D01*
X0134479Y0042331D01*
X0134451Y0042358D01*
X0133374Y0042358D01*
X0131833Y0040817D01*
X0130441Y0039425D01*
X0129049Y0038033D01*
X0128684Y0037668D01*
X0129017Y0038473D01*
X0129017Y0039527D01*
X0128614Y0040501D01*
X0127869Y0041247D01*
X0126895Y0041650D01*
X0125967Y0041650D01*
X0125614Y0042501D01*
X0124869Y0043247D01*
X0124017Y0043599D01*
X0124017Y0044527D01*
X0123614Y0045501D01*
X0122869Y0046247D01*
X0121895Y0046650D01*
X0120840Y0046650D01*
X0119866Y0046247D01*
X0119762Y0046143D01*
X0119614Y0046501D01*
X0118869Y0047247D01*
X0117895Y0047650D01*
X0116840Y0047650D01*
X0115866Y0047247D01*
X0115121Y0046501D01*
X0114717Y0045527D01*
X0114717Y0045142D01*
X0114500Y0045142D01*
X0114472Y0045115D01*
X0114390Y0045198D01*
X0111948Y0042756D01*
X0114367Y0045176D01*
X0114867Y0049000D01*
X0115367Y0049500D01*
X0119867Y0050000D01*
X0121367Y0051500D01*
X0121367Y0059500D01*
X0119367Y0061500D01*
X0121367Y0061500D01*
X0126867Y0056000D01*
X0127367Y0056000D01*
X0131231Y0055940D02*
X0119504Y0055940D01*
X0119517Y0055973D02*
X0119517Y0057027D01*
X0119114Y0058001D01*
X0118369Y0058747D01*
X0117395Y0059150D01*
X0116340Y0059150D01*
X0115366Y0058747D01*
X0115287Y0058667D01*
X0114836Y0059117D01*
X0115726Y0060007D01*
X0117118Y0061399D01*
X0117118Y0062476D01*
X0117090Y0062503D01*
X0117173Y0062586D01*
X0114732Y0065027D01*
X0114732Y0065027D01*
X0117173Y0062586D01*
X0117256Y0062669D01*
X0117284Y0062642D01*
X0118360Y0062642D01*
X0119901Y0064183D01*
X0120642Y0064923D01*
X0126365Y0059200D01*
X0127920Y0059200D01*
X0128366Y0058753D01*
X0129340Y0058350D01*
X0130395Y0058350D01*
X0131369Y0058753D01*
X0132114Y0059499D01*
X0132517Y0060473D01*
X0132517Y0061527D01*
X0132114Y0062501D01*
X0131369Y0063247D01*
X0130395Y0063650D01*
X0129340Y0063650D01*
X0128366Y0063247D01*
X0127920Y0062800D01*
X0127857Y0062800D01*
X0123188Y0067469D01*
X0124077Y0068359D01*
X0125469Y0069751D01*
X0125469Y0070827D01*
X0124139Y0072158D01*
X0124369Y0072253D01*
X0125114Y0072999D01*
X0125517Y0073973D01*
X0125517Y0075027D01*
X0125114Y0076001D01*
X0124369Y0076747D01*
X0123395Y0077150D01*
X0122340Y0077150D01*
X0121867Y0076954D01*
X0130096Y0085183D01*
X0130096Y0084248D01*
X0130096Y0084897D02*
X0129810Y0084897D01*
X0130096Y0082900D02*
X0127813Y0082900D01*
X0126815Y0081902D02*
X0134537Y0081902D01*
X0132556Y0082900D02*
X0132178Y0082900D01*
X0129342Y0080903D02*
X0125816Y0080903D01*
X0124818Y0079905D02*
X0129296Y0079905D01*
X0129296Y0078906D02*
X0123819Y0078906D01*
X0122821Y0077908D02*
X0128789Y0077908D01*
X0128243Y0076909D02*
X0123976Y0076909D01*
X0125151Y0075911D02*
X0128243Y0075911D01*
X0128243Y0074912D02*
X0125517Y0074912D01*
X0125493Y0073914D02*
X0128243Y0073914D01*
X0128243Y0072915D02*
X0125030Y0072915D01*
X0124380Y0071917D02*
X0127355Y0071917D01*
X0126356Y0070918D02*
X0125379Y0070918D01*
X0125469Y0069920D02*
X0126266Y0069920D01*
X0127095Y0068921D02*
X0124640Y0068921D01*
X0123641Y0067923D02*
X0129049Y0067923D01*
X0128994Y0068154D02*
X0131435Y0070595D01*
X0131435Y0070595D01*
X0128994Y0068154D01*
X0129761Y0068921D02*
X0129761Y0068921D01*
X0130759Y0069920D02*
X0130760Y0069920D01*
X0131435Y0070568D02*
X0127867Y0067000D01*
X0129092Y0066924D02*
X0123733Y0066924D01*
X0124731Y0065926D02*
X0130091Y0065926D01*
X0131089Y0064927D02*
X0125730Y0064927D01*
X0126728Y0063929D02*
X0132088Y0063929D01*
X0131685Y0062930D02*
X0133086Y0062930D01*
X0132350Y0061932D02*
X0134085Y0061932D01*
X0135083Y0060933D02*
X0132517Y0060933D01*
X0132294Y0059934D02*
X0134932Y0059934D01*
X0132824Y0058936D02*
X0131551Y0058936D01*
X0131595Y0057937D02*
X0119140Y0057937D01*
X0119517Y0056939D02*
X0131217Y0056939D01*
X0133867Y0056500D02*
X0134043Y0056500D01*
X0139787Y0062244D01*
X0138395Y0063636D02*
X0141367Y0066500D01*
X0143259Y0066392D01*
X0149759Y0073000D01*
X0164867Y0073000D01*
X0169867Y0068000D01*
X0167445Y0066924D02*
X0164989Y0066924D01*
X0165987Y0065926D02*
X0168194Y0065926D01*
X0168366Y0065753D02*
X0168725Y0065605D01*
X0168121Y0065001D01*
X0167767Y0064146D01*
X0161167Y0070746D01*
X0160713Y0071200D01*
X0164122Y0071200D01*
X0167217Y0068104D01*
X0167217Y0067473D01*
X0167621Y0066499D01*
X0168366Y0065753D01*
X0168090Y0064927D02*
X0166986Y0064927D01*
X0170367Y0063500D02*
X0170867Y0063000D01*
X0170867Y0061500D01*
X0177367Y0055000D01*
X0180178Y0055000D01*
X0180238Y0054941D01*
X0185867Y0054941D01*
X0188939Y0054942D02*
X0189411Y0054942D01*
X0189411Y0054629D02*
X0189487Y0054445D01*
X0189628Y0054304D01*
X0189811Y0054228D01*
X0191247Y0054228D01*
X0191247Y0056163D01*
X0191921Y0056163D01*
X0191921Y0054228D01*
X0193178Y0054228D01*
X0193178Y0054190D01*
X0193939Y0053428D01*
X0196250Y0053428D01*
X0196122Y0053300D01*
X0188939Y0053300D01*
X0188939Y0056857D01*
X0188296Y0057500D01*
X0188939Y0058143D01*
X0188939Y0061975D01*
X0188178Y0062737D01*
X0187768Y0062737D01*
X0187662Y0062956D01*
X0187348Y0063065D01*
X0187264Y0063149D01*
X0187614Y0063499D01*
X0188017Y0064473D01*
X0188017Y0065527D01*
X0187614Y0066501D01*
X0186869Y0067247D01*
X0185895Y0067650D01*
X0184840Y0067650D01*
X0183866Y0067247D01*
X0183693Y0067074D01*
X0183217Y0067550D01*
X0177140Y0067550D01*
X0177139Y0067549D01*
X0176895Y0067650D01*
X0175840Y0067650D01*
X0174866Y0067247D01*
X0174121Y0066501D01*
X0173717Y0065527D01*
X0173717Y0064473D01*
X0174121Y0063499D01*
X0174866Y0062753D01*
X0175051Y0062677D01*
X0174616Y0062497D01*
X0173871Y0061751D01*
X0173663Y0061250D01*
X0172702Y0062211D01*
X0173017Y0062973D01*
X0173017Y0064027D01*
X0172614Y0065001D01*
X0171869Y0065747D01*
X0171510Y0065895D01*
X0172114Y0066499D01*
X0172517Y0067473D01*
X0172517Y0068527D01*
X0172114Y0069501D01*
X0171369Y0070247D01*
X0170395Y0070650D01*
X0169763Y0070650D01*
X0166667Y0073746D01*
X0165613Y0074800D01*
X0150496Y0074800D01*
X0150490Y0074806D01*
X0149752Y0074800D01*
X0149014Y0074800D01*
X0149008Y0074794D01*
X0148999Y0074794D01*
X0148482Y0074268D01*
X0147959Y0073746D01*
X0147959Y0073737D01*
X0145803Y0071545D01*
X0145614Y0072001D01*
X0144869Y0072747D01*
X0144097Y0073066D01*
X0143667Y0073925D01*
X0143667Y0074246D01*
X0143347Y0074566D01*
X0143144Y0074972D01*
X0142840Y0075073D01*
X0142113Y0075800D01*
X0136878Y0075800D01*
X0135824Y0074746D01*
X0134059Y0072981D01*
X0133987Y0072981D01*
X0133960Y0072954D01*
X0133877Y0073037D01*
X0131435Y0070595D01*
X0131435Y0070568D01*
X0131435Y0070595D02*
X0131435Y0070595D01*
X0133877Y0073037D01*
X0133794Y0073120D01*
X0133821Y0073147D01*
X0133821Y0074224D01*
X0133580Y0074465D01*
X0134114Y0074999D01*
X0134517Y0075973D01*
X0134517Y0076263D01*
X0134678Y0076263D01*
X0134867Y0076453D01*
X0135057Y0076263D01*
X0139678Y0076263D01*
X0140439Y0077025D01*
X0140439Y0080857D01*
X0139796Y0081500D01*
X0140439Y0082143D01*
X0140439Y0082259D01*
X0141504Y0082259D01*
X0141097Y0081851D01*
X0140599Y0080650D01*
X0140599Y0079350D01*
X0141097Y0078149D01*
X0142016Y0077229D01*
X0143217Y0076731D01*
X0144518Y0076731D01*
X0145719Y0077229D01*
X0146367Y0077878D01*
X0147016Y0077229D01*
X0148217Y0076731D01*
X0149518Y0076731D01*
X0150719Y0077229D01*
X0151638Y0078149D01*
X0151829Y0078608D01*
X0151950Y0078426D01*
X0152294Y0078083D01*
X0152698Y0077812D01*
X0153147Y0077626D01*
X0153624Y0077531D01*
X0153867Y0077531D01*
X0153867Y0080000D01*
X0153867Y0080000D01*
X0158867Y0080000D01*
X0156399Y0080000D01*
X0158867Y0080000D01*
X0158867Y0080000D01*
X0158867Y0080000D01*
X0158867Y0077531D01*
X0158624Y0077531D01*
X0158147Y0077626D01*
X0157698Y0077812D01*
X0157294Y0078083D01*
X0156950Y0078426D01*
X0156680Y0078831D01*
X0156494Y0079280D01*
X0156399Y0079757D01*
X0156399Y0080000D01*
X0156399Y0080243D01*
X0156494Y0080720D01*
X0156680Y0081169D01*
X0156950Y0081574D01*
X0157294Y0081917D01*
X0157476Y0082039D01*
X0157016Y0082229D01*
X0156367Y0082878D01*
X0155719Y0082229D01*
X0155259Y0082039D01*
X0155441Y0081917D01*
X0155785Y0081574D01*
X0156055Y0081169D01*
X0156241Y0080720D01*
X0156336Y0080243D01*
X0156336Y0080000D01*
X0153868Y0080000D01*
X0153868Y0080000D01*
X0156336Y0080000D01*
X0156336Y0079757D01*
X0156241Y0079280D01*
X0156055Y0078831D01*
X0155785Y0078426D01*
X0155441Y0078083D01*
X0155037Y0077812D01*
X0154587Y0077626D01*
X0154111Y0077531D01*
X0153867Y0077531D01*
X0153867Y0080000D01*
X0153867Y0079905D02*
X0153867Y0079905D01*
X0153867Y0078906D02*
X0153867Y0078906D01*
X0153867Y0077908D02*
X0153867Y0077908D01*
X0152556Y0077908D02*
X0151398Y0077908D01*
X0149947Y0076909D02*
X0162788Y0076909D01*
X0163217Y0076731D02*
X0164518Y0076731D01*
X0165719Y0077229D01*
X0166638Y0078149D01*
X0167136Y0079350D01*
X0167136Y0080650D01*
X0166638Y0081851D01*
X0165990Y0082500D01*
X0166638Y0083149D01*
X0167136Y0084350D01*
X0167136Y0085650D01*
X0166638Y0086851D01*
X0165719Y0087771D01*
X0164518Y0088268D01*
X0163217Y0088268D01*
X0162016Y0087771D01*
X0161367Y0087122D01*
X0160719Y0087771D01*
X0159518Y0088268D01*
X0158217Y0088268D01*
X0157016Y0087771D01*
X0156367Y0087122D01*
X0155719Y0087771D01*
X0154518Y0088268D01*
X0153217Y0088268D01*
X0152016Y0087771D01*
X0151367Y0087122D01*
X0150719Y0087771D01*
X0149518Y0088268D01*
X0148217Y0088268D01*
X0147016Y0087771D01*
X0146367Y0087122D01*
X0145719Y0087771D01*
X0144518Y0088268D01*
X0143217Y0088268D01*
X0142016Y0087771D01*
X0141097Y0086851D01*
X0140685Y0085859D01*
X0140439Y0085859D01*
X0140439Y0085975D01*
X0139678Y0086737D01*
X0138676Y0086737D01*
X0137667Y0087746D01*
X0136613Y0088800D01*
X0128622Y0088800D01*
X0118622Y0078800D01*
X0115122Y0078800D01*
X0112122Y0075800D01*
X0112122Y0075800D01*
X0111067Y0074746D01*
X0111067Y0071754D01*
X0111567Y0071254D01*
X0111567Y0071214D01*
X0113236Y0069546D01*
X0112346Y0068656D01*
X0112346Y0067579D01*
X0112373Y0067552D01*
X0112290Y0067469D01*
X0112207Y0067386D01*
X0112180Y0067413D01*
X0112108Y0067413D01*
X0110667Y0068854D01*
X0110667Y0070746D01*
X0110644Y0070769D01*
X0109843Y0071570D01*
X0110204Y0071930D01*
X0110204Y0073007D01*
X0107494Y0075718D01*
X0106417Y0075718D01*
X0103150Y0072451D01*
X0103150Y0072218D01*
X0102917Y0072218D01*
X0099650Y0068951D01*
X0099650Y0068864D01*
X0099366Y0068747D01*
X0098621Y0068001D01*
X0098217Y0067027D01*
X0098217Y0065973D01*
X0098621Y0064999D01*
X0098820Y0064800D01*
X0079624Y0064800D01*
X0079624Y0065310D01*
X0079184Y0065750D01*
X0079624Y0066190D01*
X0079624Y0070810D01*
X0079184Y0071250D01*
X0079301Y0071366D01*
X0079340Y0071350D01*
X0080395Y0071350D01*
X0081369Y0071753D01*
X0082114Y0072499D01*
X0082517Y0073473D01*
X0082517Y0074527D01*
X0082114Y0075501D01*
X0081369Y0076247D01*
X0080395Y0076650D01*
X0079340Y0076650D01*
X0079301Y0076634D01*
X0079184Y0076750D01*
X0079624Y0077190D01*
X0079624Y0081810D01*
X0078863Y0082572D01*
X0074439Y0082572D01*
X0073678Y0081810D01*
X0073678Y0081772D01*
X0072421Y0081772D01*
X0072421Y0079837D01*
X0071747Y0079837D01*
X0071747Y0081772D01*
X0070311Y0081772D01*
X0070128Y0081696D01*
X0069987Y0081555D01*
X0069911Y0081371D01*
X0069911Y0079837D01*
X0071747Y0079837D01*
X0071747Y0079163D01*
X0072421Y0079163D01*
X0072421Y0077228D01*
X0073678Y0077228D01*
X0073678Y0077190D01*
X0073796Y0077072D01*
X0069872Y0077072D01*
X0069111Y0076310D01*
X0069111Y0074552D01*
X0068260Y0074552D01*
X0068260Y0075239D01*
X0067498Y0076001D01*
X0067057Y0076001D01*
X0066667Y0077013D01*
X0066667Y0082538D01*
X0065906Y0083300D01*
X0058829Y0083300D01*
X0058067Y0082538D01*
X0058067Y0077013D01*
X0057678Y0076001D01*
X0057032Y0076001D01*
X0056667Y0075636D01*
X0056667Y0077361D01*
X0056967Y0078085D01*
X0056967Y0079915D01*
X0056667Y0080639D01*
X0056667Y0082538D01*
X0055906Y0083300D01*
X0054007Y0083300D01*
X0053282Y0083600D01*
X0042952Y0083600D01*
X0041262Y0082900D01*
X0036262Y0077900D01*
X0034968Y0076606D01*
X0034267Y0074915D01*
X0034267Y0067788D01*
X0033395Y0068150D01*
X0032340Y0068150D01*
X0031366Y0067747D01*
X0030621Y0067001D01*
X0030471Y0066639D01*
X0029832Y0066000D01*
X0028870Y0066000D01*
X0027951Y0065619D01*
X0027332Y0065000D01*
X0026757Y0065000D01*
X0026395Y0065150D01*
X0025340Y0065150D01*
X0024978Y0065000D01*
X0024257Y0065000D01*
X0023895Y0065150D01*
X0022840Y0065150D01*
X0021866Y0064747D01*
X0021121Y0064001D01*
X0020717Y0063027D01*
X0020717Y0061973D01*
X0020867Y0061611D01*
X0020867Y0060918D01*
X0016585Y0060918D01*
X0015823Y0060157D01*
X0015823Y0055501D01*
X0013622Y0053300D01*
X0012912Y0052590D01*
X0012912Y0052676D01*
X0012150Y0053438D01*
X0012112Y0053438D01*
X0012112Y0054311D01*
X0009832Y0054311D01*
X0009832Y0054689D01*
X0012112Y0054689D01*
X0012112Y0055562D01*
X0012150Y0055562D01*
X0012912Y0056324D01*
X0012912Y0058963D01*
X0013167Y0059219D01*
X0013167Y0063254D01*
X0017113Y0067200D01*
X0027113Y0067200D01*
X0028167Y0068254D01*
X0030786Y0070873D01*
X0030840Y0070850D01*
X0031895Y0070850D01*
X0032869Y0071253D01*
X0033614Y0071999D01*
X0034017Y0072973D01*
X0034017Y0074027D01*
X0033614Y0075001D01*
X0032869Y0075747D01*
X0031895Y0076150D01*
X0030840Y0076150D01*
X0029866Y0075747D01*
X0029121Y0075001D01*
X0028717Y0074027D01*
X0028717Y0073896D01*
X0025622Y0070800D01*
X0015622Y0070800D01*
X0010622Y0065800D01*
X0009567Y0064746D01*
X0009567Y0060918D01*
X0007367Y0060918D01*
X0007367Y0091961D01*
X0289568Y0091961D01*
X0289568Y0069500D01*
X0282367Y0069500D01*
X0282367Y0066500D01*
X0281367Y0066500D01*
X0281367Y0065500D01*
X0273367Y0065500D01*
X0273367Y0062901D01*
X0273444Y0062717D01*
X0273584Y0062576D01*
X0273768Y0062500D01*
X0281367Y0062500D01*
X0281367Y0065500D01*
X0282367Y0065500D01*
X0282367Y0062500D01*
X0289568Y0062500D01*
X0289568Y0049500D01*
X0282367Y0049500D01*
X0282367Y0046500D01*
X0281367Y0046500D01*
X0281367Y0045500D01*
X0273367Y0045500D01*
X0273367Y0042901D01*
X0273444Y0042717D01*
X0273584Y0042576D01*
X0273768Y0042500D01*
X0281367Y0042500D01*
X0281367Y0045500D01*
X0282367Y0045500D01*
X0282367Y0042500D01*
X0289568Y0042500D01*
X0289568Y0018000D01*
X0162614Y0018000D01*
X0163017Y0018973D01*
X0163017Y0020027D01*
X0162739Y0020700D01*
X0171113Y0020700D01*
X0171267Y0020854D01*
X0171621Y0019999D01*
X0172366Y0019253D01*
X0173340Y0018850D01*
X0174395Y0018850D01*
X0175369Y0019253D01*
X0176114Y0019999D01*
X0176517Y0020973D01*
X0176517Y0022027D01*
X0176215Y0022758D01*
X0176298Y0022842D01*
X0178083Y0022842D01*
X0178083Y0021832D01*
X0178845Y0021070D01*
X0179067Y0021070D01*
X0179067Y0020754D01*
X0180122Y0019700D01*
X0180622Y0019200D01*
X0181420Y0019200D01*
X0181866Y0018753D01*
X0182840Y0018350D01*
X0183895Y0018350D01*
X0184869Y0018753D01*
X0185614Y0019499D01*
X0186017Y0020473D01*
X0186017Y0021527D01*
X0185739Y0022200D01*
X0187420Y0022200D01*
X0187866Y0021753D01*
X0188840Y0021350D01*
X0189895Y0021350D01*
X0190869Y0021753D01*
X0191614Y0022499D01*
X0192017Y0023473D01*
X0192017Y0024527D01*
X0191614Y0025501D01*
X0190869Y0026247D01*
X0189895Y0026650D01*
X0188840Y0026650D01*
X0188360Y0026451D01*
X0188360Y0026649D01*
X0187599Y0027410D01*
X0187560Y0027410D01*
X0187560Y0028276D01*
X0187560Y0029141D01*
X0187599Y0029141D01*
X0188360Y0029902D01*
X0188360Y0032948D01*
X0187599Y0033709D01*
X0187560Y0033709D01*
X0187560Y0034575D01*
X0187560Y0035659D01*
X0187484Y0035842D01*
X0187344Y0035983D01*
X0187160Y0036059D01*
X0184698Y0036059D01*
X0182236Y0036059D01*
X0182053Y0035983D01*
X0181912Y0035842D01*
X0181836Y0035659D01*
X0181836Y0034575D01*
X0184698Y0034575D01*
X0184698Y0036059D01*
X0184698Y0034575D01*
X0184698Y0034575D01*
X0184698Y0034575D01*
X0184698Y0037724D01*
X0184698Y0037724D01*
X0184698Y0036240D01*
X0182236Y0036240D01*
X0182053Y0036316D01*
X0181912Y0036457D01*
X0181836Y0036641D01*
X0181836Y0037606D01*
X0179699Y0037606D01*
X0179699Y0036202D01*
X0179647Y0036150D01*
X0179699Y0036098D01*
X0179699Y0033052D01*
X0179647Y0033000D01*
X0179699Y0032948D01*
X0179699Y0029902D01*
X0179647Y0029850D01*
X0179699Y0029798D01*
X0179699Y0028394D01*
X0181836Y0028394D01*
X0181836Y0029141D01*
X0181797Y0029141D01*
X0181036Y0029902D01*
X0181036Y0032948D01*
X0181797Y0033709D01*
X0181836Y0033709D01*
X0181836Y0034575D01*
X0184698Y0034575D01*
X0184773Y0034500D01*
X0187867Y0034500D01*
X0189867Y0032500D01*
X0189867Y0029000D01*
X0189143Y0028276D01*
X0184698Y0028276D01*
X0187560Y0028276D01*
X0184698Y0028276D01*
X0184698Y0028276D01*
X0187560Y0027982D02*
X0249333Y0027982D01*
X0249147Y0028431D02*
X0249691Y0027117D01*
X0250697Y0026111D01*
X0252011Y0025567D01*
X0253433Y0025567D01*
X0254747Y0026111D01*
X0255752Y0027117D01*
X0256297Y0028431D01*
X0256297Y0029853D01*
X0255752Y0031167D01*
X0254991Y0031928D01*
X0256296Y0031928D01*
X0257057Y0032690D01*
X0257057Y0032728D01*
X0258314Y0032728D01*
X0258314Y0034663D01*
X0258988Y0034663D01*
X0258988Y0035337D01*
X0260824Y0035337D01*
X0260824Y0036871D01*
X0260748Y0037055D01*
X0260607Y0037196D01*
X0260476Y0037250D01*
X0260607Y0037304D01*
X0260748Y0037445D01*
X0260824Y0037629D01*
X0260824Y0039163D01*
X0258988Y0039163D01*
X0258988Y0039837D01*
X0260824Y0039837D01*
X0260824Y0041371D01*
X0260748Y0041555D01*
X0260607Y0041696D01*
X0260424Y0041772D01*
X0259124Y0041772D01*
X0259124Y0046310D01*
X0259104Y0046330D01*
X0259104Y0049054D01*
X0259446Y0049505D01*
X0259851Y0049824D01*
X0259881Y0050078D01*
X0260036Y0050283D01*
X0259966Y0050793D01*
X0260066Y0051641D01*
X0261296Y0051641D01*
X0261296Y0051525D01*
X0262057Y0050763D01*
X0271178Y0050763D01*
X0271939Y0051525D01*
X0271939Y0053967D01*
X0272172Y0054200D01*
X0275920Y0054200D01*
X0276366Y0053753D01*
X0277340Y0053350D01*
X0278395Y0053350D01*
X0279369Y0053753D01*
X0280114Y0054499D01*
X0280517Y0055473D01*
X0280517Y0056527D01*
X0280114Y0057501D01*
X0279369Y0058247D01*
X0278395Y0058650D01*
X0277340Y0058650D01*
X0276366Y0058247D01*
X0275920Y0057800D01*
X0271939Y0057800D01*
X0271939Y0060475D01*
X0271178Y0061237D01*
X0266167Y0061237D01*
X0266167Y0062743D01*
X0266678Y0062743D01*
X0267439Y0063505D01*
X0267439Y0067928D01*
X0266678Y0068690D01*
X0266639Y0068690D01*
X0266639Y0069947D01*
X0264704Y0069947D01*
X0264704Y0070620D01*
X0266639Y0070620D01*
X0266639Y0072056D01*
X0266563Y0072240D01*
X0266422Y0072381D01*
X0266239Y0072457D01*
X0264704Y0072457D01*
X0264704Y0070620D01*
X0264031Y0070620D01*
X0264031Y0072457D01*
X0262496Y0072457D01*
X0262313Y0072381D01*
X0262172Y0072240D01*
X0262096Y0072056D01*
X0262096Y0070620D01*
X0264031Y0070620D01*
X0264031Y0069947D01*
X0262096Y0069947D01*
X0262096Y0068690D01*
X0262057Y0068690D01*
X0261296Y0067928D01*
X0261296Y0063505D01*
X0262057Y0062743D01*
X0262567Y0062743D01*
X0262567Y0061237D01*
X0262057Y0061237D01*
X0261296Y0060475D01*
X0261296Y0057638D01*
X0260863Y0058072D01*
X0256986Y0058072D01*
X0257439Y0058525D01*
X0257439Y0062357D01*
X0256796Y0063000D01*
X0257439Y0063643D01*
X0257439Y0067475D01*
X0256678Y0068237D01*
X0252057Y0068237D01*
X0251296Y0067475D01*
X0251296Y0067319D01*
X0249797Y0067300D01*
X0247122Y0067300D01*
X0246324Y0066502D01*
X0246324Y0067163D01*
X0244488Y0067163D01*
X0244488Y0067837D01*
X0246324Y0067837D01*
X0246324Y0069371D01*
X0246248Y0069555D01*
X0246107Y0069696D01*
X0245976Y0069750D01*
X0246107Y0069804D01*
X0246248Y0069945D01*
X0246324Y0070129D01*
X0246324Y0071663D01*
X0244488Y0071663D01*
X0244488Y0072337D01*
X0246324Y0072337D01*
X0246324Y0073871D01*
X0246248Y0074055D01*
X0246107Y0074196D01*
X0245976Y0074250D01*
X0246107Y0074304D01*
X0246248Y0074445D01*
X0246324Y0074629D01*
X0246324Y0076163D01*
X0244488Y0076163D01*
X0244488Y0076837D01*
X0246324Y0076837D01*
X0246324Y0078371D01*
X0246248Y0078555D01*
X0246107Y0078696D01*
X0245924Y0078772D01*
X0244488Y0078772D01*
X0244488Y0076837D01*
X0243814Y0076837D01*
X0243814Y0078772D01*
X0242557Y0078772D01*
X0242557Y0078810D01*
X0241796Y0079572D01*
X0241792Y0079572D01*
X0241614Y0080001D01*
X0241124Y0080491D01*
X0241124Y0084810D01*
X0240363Y0085572D01*
X0235939Y0085572D01*
X0235867Y0085500D01*
X0235796Y0085572D01*
X0231372Y0085572D01*
X0230611Y0084810D01*
X0230611Y0082757D01*
X0230178Y0083190D01*
X0230139Y0083190D01*
X0230139Y0084447D01*
X0228204Y0084447D01*
X0228204Y0085120D01*
X0230139Y0085120D01*
X0230139Y0086556D01*
X0230063Y0086740D01*
X0229922Y0086881D01*
X0229739Y0086957D01*
X0228204Y0086957D01*
X0228204Y0085120D01*
X0227531Y0085120D01*
X0227531Y0086957D01*
X0225996Y0086957D01*
X0225813Y0086881D01*
X0225672Y0086740D01*
X0225617Y0086608D01*
X0225563Y0086740D01*
X0225422Y0086881D01*
X0225239Y0086957D01*
X0223704Y0086957D01*
X0223704Y0085120D01*
X0225639Y0085120D01*
X0227531Y0085120D01*
X0227531Y0084447D01*
X0223704Y0084447D01*
X0223704Y0085120D01*
X0223031Y0085120D01*
X0223031Y0086957D01*
X0221496Y0086957D01*
X0221313Y0086881D01*
X0221172Y0086740D01*
X0221117Y0086608D01*
X0221063Y0086740D01*
X0220922Y0086881D01*
X0220739Y0086957D01*
X0219204Y0086957D01*
X0219204Y0085120D01*
X0221139Y0085120D01*
X0223031Y0085120D01*
X0223031Y0084447D01*
X0219204Y0084447D01*
X0219204Y0085120D01*
X0218531Y0085120D01*
X0218531Y0086957D01*
X0216996Y0086957D01*
X0216813Y0086881D01*
X0216672Y0086740D01*
X0216639Y0086661D01*
X0216639Y0087056D01*
X0216563Y0087240D01*
X0216422Y0087381D01*
X0216239Y0087457D01*
X0214704Y0087457D01*
X0214704Y0085620D01*
X0216596Y0085620D01*
X0216596Y0085120D01*
X0218531Y0085120D01*
X0218531Y0084447D01*
X0216639Y0084447D01*
X0216639Y0084947D01*
X0214704Y0084947D01*
X0214704Y0085620D01*
X0214031Y0085620D01*
X0214031Y0087457D01*
X0212496Y0087457D01*
X0212313Y0087381D01*
X0212172Y0087240D01*
X0212096Y0087056D01*
X0212096Y0086661D01*
X0212063Y0086740D01*
X0211922Y0086881D01*
X0211739Y0086957D01*
X0210204Y0086957D01*
X0210204Y0085120D01*
X0212139Y0085120D01*
X0212139Y0085620D01*
X0214031Y0085620D01*
X0214031Y0084947D01*
X0212096Y0084947D01*
X0212096Y0084447D01*
X0210204Y0084447D01*
X0210204Y0085120D01*
X0209531Y0085120D01*
X0209531Y0086957D01*
X0207996Y0086957D01*
X0207813Y0086881D01*
X0207672Y0086740D01*
X0207596Y0086556D01*
X0207596Y0085120D01*
X0209531Y0085120D01*
X0209531Y0084447D01*
X0207596Y0084447D01*
X0207596Y0083190D01*
X0207557Y0083190D01*
X0206796Y0082428D01*
X0206796Y0079304D01*
X0206667Y0079400D01*
X0206667Y0082746D01*
X0205667Y0083746D01*
X0204613Y0084800D01*
X0204439Y0084800D01*
X0204439Y0086495D01*
X0203678Y0087257D01*
X0199691Y0087257D01*
X0199691Y0088731D01*
X0198930Y0089493D01*
X0190372Y0089493D01*
X0189611Y0088731D01*
X0189611Y0083324D01*
X0190372Y0082562D01*
X0195571Y0082562D01*
X0195649Y0082483D01*
X0198296Y0082483D01*
X0198296Y0082072D01*
X0199057Y0081310D01*
X0199096Y0081310D01*
X0199096Y0080272D01*
X0198930Y0080438D01*
X0190372Y0080438D01*
X0189611Y0079676D01*
X0189611Y0075802D01*
X0186641Y0078772D01*
X0185124Y0078772D01*
X0185124Y0079676D01*
X0184363Y0080438D01*
X0175805Y0080438D01*
X0175384Y0080017D01*
X0173939Y0080017D01*
X0173939Y0080428D01*
X0173178Y0081190D01*
X0173139Y0081190D01*
X0173139Y0082447D01*
X0171204Y0082447D01*
X0171204Y0083120D01*
X0173139Y0083120D01*
X0173139Y0084556D01*
X0173063Y0084740D01*
X0172922Y0084881D01*
X0172739Y0084957D01*
X0171204Y0084957D01*
X0171204Y0083120D01*
X0170531Y0083120D01*
X0170531Y0084957D01*
X0168996Y0084957D01*
X0168813Y0084881D01*
X0168672Y0084740D01*
X0168596Y0084556D01*
X0168596Y0083120D01*
X0170531Y0083120D01*
X0170531Y0082447D01*
X0168596Y0082447D01*
X0168596Y0081190D01*
X0168557Y0081190D01*
X0167796Y0080428D01*
X0167796Y0076005D01*
X0168557Y0075243D01*
X0173178Y0075243D01*
X0173939Y0076005D01*
X0173939Y0076417D01*
X0175044Y0076417D01*
X0175044Y0074269D01*
X0175805Y0073507D01*
X0184363Y0073507D01*
X0185124Y0074269D01*
X0185124Y0075172D01*
X0185149Y0075172D01*
X0188622Y0071700D01*
X0189430Y0071700D01*
X0189430Y0070189D01*
X0191119Y0070189D01*
X0191119Y0069811D01*
X0189430Y0069811D01*
X0189430Y0068129D01*
X0189507Y0067945D01*
X0189647Y0067804D01*
X0189769Y0067754D01*
X0189628Y0067696D01*
X0189487Y0067555D01*
X0189411Y0067371D01*
X0189411Y0065837D01*
X0191247Y0065837D01*
X0191247Y0067772D01*
X0191119Y0067772D01*
X0191119Y0069811D01*
X0191497Y0069811D01*
X0191497Y0067728D01*
X0191921Y0067728D01*
X0191921Y0065837D01*
X0191247Y0065837D01*
X0191247Y0065163D01*
X0191921Y0065163D01*
X0191921Y0061337D01*
X0191247Y0061337D01*
X0191247Y0063272D01*
X0191247Y0065163D01*
X0189411Y0065163D01*
X0189411Y0063629D01*
X0189487Y0063445D01*
X0189628Y0063304D01*
X0189759Y0063250D01*
X0189628Y0063196D01*
X0189487Y0063055D01*
X0189411Y0062871D01*
X0189411Y0061337D01*
X0191247Y0061337D01*
X0191247Y0060663D01*
X0191921Y0060663D01*
X0191921Y0056837D01*
X0191247Y0056837D01*
X0191247Y0058772D01*
X0191247Y0060663D01*
X0189411Y0060663D01*
X0189411Y0059129D01*
X0189487Y0058945D01*
X0189628Y0058804D01*
X0189759Y0058750D01*
X0189628Y0058696D01*
X0189487Y0058555D01*
X0189411Y0058371D01*
X0189411Y0056837D01*
X0191247Y0056837D01*
X0191247Y0056163D01*
X0189411Y0056163D01*
X0189411Y0054629D01*
X0188939Y0053943D02*
X0193424Y0053943D01*
X0191921Y0054942D02*
X0191247Y0054942D01*
X0191584Y0054717D02*
X0190867Y0054500D01*
X0191584Y0054717D02*
X0191584Y0056500D01*
X0191584Y0061000D01*
X0191584Y0065500D01*
X0188367Y0063500D01*
X0187792Y0063929D02*
X0189411Y0063929D01*
X0189411Y0064927D02*
X0188017Y0064927D01*
X0187852Y0065926D02*
X0189411Y0065926D01*
X0189411Y0066924D02*
X0187191Y0066924D01*
X0189529Y0067923D02*
X0172517Y0067923D01*
X0172354Y0068921D02*
X0177178Y0068921D01*
X0177178Y0068651D02*
X0177255Y0068467D01*
X0177395Y0068326D01*
X0177579Y0068250D01*
X0180053Y0068250D01*
X0180053Y0069875D01*
X0177178Y0069875D01*
X0177178Y0068651D01*
X0177178Y0070125D02*
X0180053Y0070125D01*
X0180053Y0069875D01*
X0180303Y0069875D01*
X0180303Y0068250D01*
X0182778Y0068250D01*
X0182962Y0068326D01*
X0183102Y0068467D01*
X0183178Y0068651D01*
X0183178Y0069875D01*
X0180304Y0069875D01*
X0180304Y0070125D01*
X0183178Y0070125D01*
X0183178Y0071349D01*
X0183102Y0071533D01*
X0182962Y0071674D01*
X0182778Y0071750D01*
X0180303Y0071750D01*
X0180303Y0070125D01*
X0180053Y0070125D01*
X0180053Y0071750D01*
X0177579Y0071750D01*
X0177395Y0071674D01*
X0177255Y0071533D01*
X0177178Y0071349D01*
X0177178Y0070125D01*
X0177178Y0070918D02*
X0169495Y0070918D01*
X0168496Y0071917D02*
X0188405Y0071917D01*
X0187407Y0072915D02*
X0167498Y0072915D01*
X0166499Y0073914D02*
X0175399Y0073914D01*
X0175044Y0074912D02*
X0143174Y0074912D01*
X0143673Y0073914D02*
X0148127Y0073914D01*
X0147151Y0072915D02*
X0144462Y0072915D01*
X0145649Y0071917D02*
X0146169Y0071917D01*
X0143367Y0070500D02*
X0141867Y0073500D01*
X0141367Y0074000D01*
X0137624Y0074000D01*
X0132827Y0069203D01*
X0131758Y0070918D02*
X0131758Y0070918D01*
X0132756Y0071917D02*
X0132757Y0071917D01*
X0133755Y0072915D02*
X0133755Y0072915D01*
X0133821Y0073914D02*
X0134992Y0073914D01*
X0134027Y0074912D02*
X0135990Y0074912D01*
X0134492Y0075911D02*
X0167890Y0075911D01*
X0167796Y0076909D02*
X0164947Y0076909D01*
X0163217Y0076731D02*
X0162016Y0077229D01*
X0161097Y0078149D01*
X0160906Y0078608D01*
X0160785Y0078426D01*
X0160441Y0078083D01*
X0160037Y0077812D01*
X0159587Y0077626D01*
X0159111Y0077531D01*
X0158867Y0077531D01*
X0158867Y0080000D01*
X0158867Y0079905D02*
X0158867Y0079905D01*
X0158867Y0078906D02*
X0158867Y0078906D01*
X0158867Y0077908D02*
X0158867Y0077908D01*
X0157556Y0077908D02*
X0155179Y0077908D01*
X0156086Y0078906D02*
X0156649Y0078906D01*
X0156399Y0079905D02*
X0156336Y0079905D01*
X0156165Y0080903D02*
X0156570Y0080903D01*
X0157278Y0081902D02*
X0155457Y0081902D01*
X0160179Y0077908D02*
X0161337Y0077908D01*
X0166398Y0077908D02*
X0167796Y0077908D01*
X0167796Y0078906D02*
X0166952Y0078906D01*
X0167136Y0079905D02*
X0167796Y0079905D01*
X0168271Y0080903D02*
X0167031Y0080903D01*
X0166588Y0081902D02*
X0168596Y0081902D01*
X0168596Y0083899D02*
X0166949Y0083899D01*
X0167136Y0084897D02*
X0168853Y0084897D01*
X0170531Y0084897D02*
X0171204Y0084897D01*
X0171204Y0083899D02*
X0170531Y0083899D01*
X0170531Y0082900D02*
X0166390Y0082900D01*
X0170867Y0082783D02*
X0170867Y0086500D01*
X0167034Y0085896D02*
X0175044Y0085896D01*
X0175044Y0086894D02*
X0166595Y0086894D01*
X0165425Y0087893D02*
X0175044Y0087893D01*
X0175044Y0088731D02*
X0175044Y0083324D01*
X0175805Y0082562D01*
X0184363Y0082562D01*
X0185124Y0083324D01*
X0185124Y0088731D01*
X0184363Y0089493D01*
X0175805Y0089493D01*
X0175044Y0088731D01*
X0175204Y0088891D02*
X0072519Y0088891D01*
X0072869Y0088747D02*
X0071895Y0089150D01*
X0070840Y0089150D01*
X0069866Y0088747D01*
X0069121Y0088001D01*
X0068717Y0087027D01*
X0068717Y0085973D01*
X0069121Y0084999D01*
X0069866Y0084253D01*
X0070840Y0083850D01*
X0071895Y0083850D01*
X0072869Y0084253D01*
X0073614Y0084999D01*
X0074017Y0085973D01*
X0074017Y0087027D01*
X0073614Y0088001D01*
X0072869Y0088747D01*
X0073659Y0087893D02*
X0127715Y0087893D01*
X0126716Y0086894D02*
X0113402Y0086894D01*
X0113225Y0087072D02*
X0109392Y0087072D01*
X0108630Y0086310D01*
X0108630Y0085800D01*
X0108589Y0085800D01*
X0108589Y0086161D01*
X0107481Y0087268D01*
X0103159Y0087268D01*
X0102052Y0086161D01*
X0102052Y0081839D01*
X0103159Y0080731D01*
X0107481Y0080731D01*
X0108589Y0081839D01*
X0108589Y0082200D01*
X0108630Y0082200D01*
X0108630Y0081690D01*
X0109392Y0080928D01*
X0113225Y0080928D01*
X0113986Y0081690D01*
X0113986Y0086310D01*
X0113225Y0087072D01*
X0113986Y0085896D02*
X0114559Y0085896D01*
X0114549Y0085871D02*
X0114549Y0084189D01*
X0116237Y0084189D01*
X0116237Y0083811D01*
X0114549Y0083811D01*
X0114549Y0082129D01*
X0114625Y0081945D01*
X0114765Y0081804D01*
X0114949Y0081728D01*
X0116237Y0081728D01*
X0116237Y0083811D01*
X0116615Y0083811D01*
X0116615Y0081728D01*
X0117904Y0081728D01*
X0118088Y0081804D01*
X0118228Y0081945D01*
X0118304Y0082129D01*
X0118304Y0083811D01*
X0116616Y0083811D01*
X0116616Y0084189D01*
X0118304Y0084189D01*
X0118304Y0085871D01*
X0118228Y0086055D01*
X0118088Y0086196D01*
X0117904Y0086272D01*
X0116615Y0086272D01*
X0116615Y0084189D01*
X0116237Y0084189D01*
X0116237Y0086272D01*
X0114949Y0086272D01*
X0114765Y0086196D01*
X0114625Y0086055D01*
X0114549Y0085871D01*
X0114549Y0084897D02*
X0113986Y0084897D01*
X0113986Y0083899D02*
X0116237Y0083899D01*
X0116367Y0083941D02*
X0116367Y0079500D01*
X0115867Y0079000D01*
X0112367Y0079000D01*
X0109867Y0076500D01*
X0108867Y0076500D01*
X0103867Y0076500D01*
X0103177Y0075810D01*
X0103058Y0075810D01*
X0099558Y0072310D01*
X0092558Y0072310D01*
X0086867Y0078000D01*
X0086867Y0080000D01*
X0083367Y0083500D01*
X0072867Y0083500D01*
X0072367Y0083000D01*
X0072367Y0079783D01*
X0072084Y0079500D01*
X0071747Y0079163D02*
X0071747Y0077228D01*
X0070311Y0077228D01*
X0070128Y0077304D01*
X0069987Y0077445D01*
X0069911Y0077629D01*
X0069911Y0079163D01*
X0071747Y0079163D01*
X0071747Y0078906D02*
X0072421Y0078906D01*
X0072421Y0077908D02*
X0071747Y0077908D01*
X0069911Y0077908D02*
X0066667Y0077908D01*
X0066667Y0078906D02*
X0069911Y0078906D01*
X0069911Y0079905D02*
X0066667Y0079905D01*
X0066667Y0080903D02*
X0069911Y0080903D01*
X0071747Y0080903D02*
X0072421Y0080903D01*
X0072421Y0079905D02*
X0071747Y0079905D01*
X0076651Y0079500D02*
X0076651Y0074000D01*
X0079867Y0074000D01*
X0082286Y0072915D02*
X0097508Y0072915D01*
X0098096Y0073504D02*
X0096907Y0072314D01*
X0096831Y0072131D01*
X0096831Y0071932D01*
X0096907Y0071748D01*
X0097818Y0070837D01*
X0099291Y0072309D01*
X0099558Y0072042D01*
X0099825Y0072309D01*
X0101019Y0071115D01*
X0102209Y0072305D01*
X0102285Y0072488D01*
X0102285Y0072687D01*
X0102209Y0072871D01*
X0101298Y0073782D01*
X0099825Y0072310D01*
X0099558Y0072577D01*
X0101031Y0074049D01*
X0100120Y0074960D01*
X0099936Y0075037D01*
X0099737Y0075037D01*
X0099553Y0074960D01*
X0098364Y0073771D01*
X0099558Y0072577D01*
X0099291Y0072310D01*
X0098096Y0073504D01*
X0098506Y0073914D02*
X0082517Y0073914D01*
X0082358Y0074912D02*
X0099505Y0074912D01*
X0100168Y0074912D02*
X0100743Y0074912D01*
X0100407Y0075248D02*
X0101318Y0074337D01*
X0102791Y0075809D01*
X0103058Y0075542D01*
X0103325Y0075809D01*
X0104519Y0074615D01*
X0105709Y0075805D01*
X0105785Y0075988D01*
X0105785Y0076187D01*
X0105709Y0076371D01*
X0104798Y0077282D01*
X0103325Y0075810D01*
X0103058Y0076077D01*
X0104531Y0077549D01*
X0103620Y0078460D01*
X0103436Y0078537D01*
X0103237Y0078537D01*
X0103053Y0078460D01*
X0101864Y0077271D01*
X0103058Y0076077D01*
X0102791Y0075810D01*
X0101596Y0077004D01*
X0100407Y0075814D01*
X0100331Y0075631D01*
X0100331Y0075432D01*
X0100407Y0075248D01*
X0100503Y0075911D02*
X0081704Y0075911D01*
X0079343Y0076909D02*
X0097211Y0076909D01*
X0097366Y0076753D02*
X0098340Y0076350D01*
X0099395Y0076350D01*
X0100369Y0076753D01*
X0101114Y0077499D01*
X0101517Y0078473D01*
X0101517Y0079527D01*
X0101114Y0080501D01*
X0100730Y0080885D01*
X0101683Y0081839D01*
X0101683Y0086161D01*
X0100576Y0087268D01*
X0096254Y0087268D01*
X0095146Y0086161D01*
X0095146Y0081839D01*
X0096254Y0080731D01*
X0096615Y0080731D01*
X0096615Y0080486D01*
X0096217Y0079527D01*
X0096217Y0078473D01*
X0096621Y0077499D01*
X0097366Y0076753D01*
X0096452Y0077908D02*
X0079624Y0077908D01*
X0079624Y0078906D02*
X0096217Y0078906D01*
X0096374Y0079905D02*
X0079624Y0079905D01*
X0079624Y0080903D02*
X0096082Y0080903D01*
X0095146Y0081902D02*
X0079533Y0081902D01*
X0073769Y0081902D02*
X0066667Y0081902D01*
X0066306Y0082900D02*
X0095146Y0082900D01*
X0095146Y0083899D02*
X0072012Y0083899D01*
X0070723Y0083899D02*
X0024867Y0083899D01*
X0024867Y0084691D02*
X0023573Y0087815D01*
X0021182Y0090206D01*
X0018058Y0091500D01*
X0014677Y0091500D01*
X0011553Y0090206D01*
X0009161Y0087815D01*
X0007867Y0084691D01*
X0007867Y0081309D01*
X0009161Y0078185D01*
X0011553Y0075794D01*
X0014677Y0074500D01*
X0018058Y0074500D01*
X0021182Y0075794D01*
X0023573Y0078185D01*
X0024867Y0081309D01*
X0024867Y0084691D01*
X0024782Y0084897D02*
X0069222Y0084897D01*
X0068749Y0085896D02*
X0024368Y0085896D01*
X0023955Y0086894D02*
X0068717Y0086894D01*
X0069076Y0087893D02*
X0023495Y0087893D01*
X0022497Y0088891D02*
X0070216Y0088891D01*
X0074017Y0086894D02*
X0095879Y0086894D01*
X0095146Y0085896D02*
X0073985Y0085896D01*
X0073512Y0084897D02*
X0095146Y0084897D01*
X0098415Y0084000D02*
X0098415Y0079453D01*
X0098867Y0079000D01*
X0101283Y0077908D02*
X0102500Y0077908D01*
X0102225Y0076909D02*
X0101691Y0076909D01*
X0101502Y0076909D02*
X0100524Y0076909D01*
X0101517Y0078906D02*
X0118728Y0078906D01*
X0119727Y0079905D02*
X0101361Y0079905D01*
X0100747Y0080903D02*
X0102987Y0080903D01*
X0102052Y0081902D02*
X0101683Y0081902D01*
X0101683Y0082900D02*
X0102052Y0082900D01*
X0102052Y0083899D02*
X0101683Y0083899D01*
X0101683Y0084897D02*
X0102052Y0084897D01*
X0102052Y0085896D02*
X0101683Y0085896D01*
X0100950Y0086894D02*
X0102785Y0086894D01*
X0105320Y0084000D02*
X0111308Y0084000D01*
X0113986Y0082900D02*
X0114549Y0082900D01*
X0114668Y0081902D02*
X0113986Y0081902D01*
X0116237Y0081902D02*
X0116615Y0081902D01*
X0116615Y0082900D02*
X0116237Y0082900D01*
X0116367Y0083941D02*
X0116427Y0084000D01*
X0116616Y0083899D02*
X0123721Y0083899D01*
X0124719Y0084897D02*
X0118304Y0084897D01*
X0118294Y0085896D02*
X0125718Y0085896D01*
X0129367Y0087000D02*
X0119367Y0077000D01*
X0115867Y0077000D01*
X0112867Y0074000D01*
X0112867Y0072500D01*
X0113367Y0072000D01*
X0113367Y0071960D01*
X0117516Y0067811D01*
X0113834Y0065926D02*
X0113834Y0065926D01*
X0114732Y0065027D02*
X0112290Y0067469D01*
X0114732Y0065028D01*
X0114732Y0065027D01*
X0118259Y0061500D01*
X0119367Y0061500D01*
X0118649Y0062930D02*
X0122635Y0062930D01*
X0121637Y0063929D02*
X0119647Y0063929D01*
X0116829Y0062930D02*
X0116829Y0062930D01*
X0117118Y0061932D02*
X0123634Y0061932D01*
X0124632Y0060933D02*
X0116652Y0060933D01*
X0115653Y0059934D02*
X0125631Y0059934D01*
X0127111Y0061000D02*
X0118908Y0069203D01*
X0120272Y0070595D02*
X0116867Y0074000D01*
X0120272Y0070595D02*
X0120300Y0070595D01*
X0121692Y0071987D02*
X0121692Y0073324D01*
X0122867Y0074500D01*
X0130043Y0076617D02*
X0130043Y0071987D01*
X0131867Y0076500D02*
X0133367Y0077941D01*
X0132367Y0078941D01*
X0130043Y0076617D01*
X0132367Y0078941D02*
X0137367Y0078941D01*
X0140439Y0078906D02*
X0140783Y0078906D01*
X0140599Y0079905D02*
X0140439Y0079905D01*
X0140393Y0080903D02*
X0140704Y0080903D01*
X0141147Y0081902D02*
X0140198Y0081902D01*
X0142927Y0084059D02*
X0137367Y0084059D01*
X0137367Y0085500D01*
X0135867Y0087000D01*
X0129367Y0087000D01*
X0122722Y0082900D02*
X0118304Y0082900D01*
X0118185Y0081902D02*
X0121724Y0081902D01*
X0120725Y0080903D02*
X0107653Y0080903D01*
X0108589Y0081902D02*
X0108630Y0081902D01*
X0108589Y0085896D02*
X0108630Y0085896D01*
X0109215Y0086894D02*
X0107855Y0086894D01*
X0116237Y0085896D02*
X0116615Y0085896D01*
X0116615Y0084897D02*
X0116237Y0084897D01*
X0114230Y0077908D02*
X0104172Y0077908D01*
X0104425Y0076909D02*
X0103890Y0076909D01*
X0103426Y0075911D02*
X0103224Y0075911D01*
X0102892Y0075911D02*
X0102689Y0075911D01*
X0103058Y0075542D02*
X0101585Y0074070D01*
X0102496Y0073159D01*
X0102680Y0073082D01*
X0102879Y0073082D01*
X0103063Y0073159D01*
X0104252Y0074348D01*
X0103058Y0075542D01*
X0103688Y0074912D02*
X0104222Y0074912D01*
X0104816Y0074912D02*
X0105611Y0074912D01*
X0105753Y0075911D02*
X0112233Y0075911D01*
X0113231Y0076909D02*
X0105171Y0076909D01*
X0102428Y0074912D02*
X0101893Y0074912D01*
X0101741Y0073914D02*
X0100895Y0073914D01*
X0100431Y0072915D02*
X0099896Y0072915D01*
X0099220Y0072915D02*
X0098685Y0072915D01*
X0098898Y0071917D02*
X0099432Y0071917D01*
X0099558Y0072042D02*
X0098085Y0070570D01*
X0098996Y0069659D01*
X0099180Y0069582D01*
X0099379Y0069582D01*
X0099563Y0069659D01*
X0100752Y0070848D01*
X0099558Y0072042D01*
X0099684Y0071917D02*
X0100218Y0071917D01*
X0100682Y0070918D02*
X0101617Y0070918D01*
X0101821Y0071917D02*
X0102616Y0071917D01*
X0102165Y0072915D02*
X0103614Y0072915D01*
X0103818Y0073914D02*
X0104613Y0073914D01*
X0106677Y0072190D02*
X0108867Y0070000D01*
X0108867Y0068108D01*
X0113340Y0063636D01*
X0111948Y0062244D02*
X0107692Y0066500D01*
X0104867Y0066500D01*
X0103177Y0068190D01*
X0103177Y0068690D01*
X0103058Y0068690D01*
X0100867Y0066500D01*
X0098217Y0066924D02*
X0079624Y0066924D01*
X0079624Y0067923D02*
X0098588Y0067923D01*
X0099650Y0068921D02*
X0079624Y0068921D01*
X0079624Y0069920D02*
X0098735Y0069920D01*
X0098434Y0070918D02*
X0097899Y0070918D01*
X0097737Y0070918D02*
X0079516Y0070918D01*
X0081532Y0071917D02*
X0096837Y0071917D01*
X0099824Y0069920D02*
X0100619Y0069920D01*
X0098237Y0065926D02*
X0079360Y0065926D01*
X0079624Y0064927D02*
X0098693Y0064927D01*
X0102840Y0063000D02*
X0076651Y0063000D01*
X0076651Y0068500D01*
X0072421Y0068837D02*
X0071747Y0068837D01*
X0071747Y0068163D01*
X0069911Y0068163D01*
X0069911Y0066924D02*
X0067975Y0066924D01*
X0067975Y0065926D02*
X0069726Y0065926D01*
X0069111Y0064927D02*
X0067975Y0064927D01*
X0067975Y0064910D02*
X0067975Y0069979D01*
X0068260Y0070265D01*
X0068260Y0070952D01*
X0069849Y0070952D01*
X0069872Y0070928D01*
X0073796Y0070928D01*
X0073678Y0070810D01*
X0073678Y0070772D01*
X0072421Y0070772D01*
X0072421Y0068837D01*
X0072421Y0068921D02*
X0071747Y0068921D01*
X0071747Y0067923D02*
X0072421Y0067923D01*
X0072421Y0066924D02*
X0071747Y0066924D01*
X0071747Y0069920D02*
X0072421Y0069920D01*
X0073786Y0070918D02*
X0068260Y0070918D01*
X0067975Y0069920D02*
X0069911Y0069920D01*
X0070836Y0072752D02*
X0066163Y0072752D01*
X0063564Y0072752D01*
X0063564Y0077803D01*
X0062367Y0079000D01*
X0066707Y0076909D02*
X0069710Y0076909D01*
X0069111Y0075911D02*
X0067589Y0075911D01*
X0068260Y0074912D02*
X0069111Y0074912D01*
X0070836Y0072752D02*
X0072084Y0074000D01*
X0063564Y0072752D02*
X0060966Y0072752D01*
X0058367Y0072752D01*
X0056270Y0072915D02*
X0044288Y0072915D01*
X0043467Y0071917D02*
X0056270Y0071917D01*
X0056270Y0070918D02*
X0055197Y0070918D01*
X0055855Y0069920D02*
X0056575Y0069920D01*
X0056575Y0068921D02*
X0056265Y0068921D01*
X0053367Y0069000D02*
X0053214Y0068846D01*
X0053214Y0066000D01*
X0053214Y0064346D01*
X0051867Y0063000D01*
X0051867Y0059859D01*
X0053486Y0058240D01*
X0057148Y0057751D02*
X0059703Y0057751D01*
X0060465Y0058513D01*
X0060465Y0058551D01*
X0060966Y0058551D01*
X0061863Y0058551D01*
X0062046Y0058627D01*
X0062187Y0058768D01*
X0062263Y0058952D01*
X0062263Y0061000D01*
X0062263Y0063048D01*
X0062187Y0063232D01*
X0062046Y0063373D01*
X0061863Y0063449D01*
X0060966Y0063449D01*
X0060966Y0061000D01*
X0062263Y0061000D01*
X0060966Y0061000D01*
X0060966Y0061000D01*
X0063564Y0061000D01*
X0063564Y0061000D01*
X0062267Y0061000D01*
X0062267Y0063048D01*
X0062343Y0063232D01*
X0062484Y0063373D01*
X0062668Y0063449D01*
X0063564Y0063449D01*
X0063564Y0061000D01*
X0062267Y0061000D01*
X0062267Y0058952D01*
X0062343Y0058768D01*
X0062484Y0058627D01*
X0062668Y0058551D01*
X0063564Y0058551D01*
X0063564Y0061000D01*
X0063564Y0061000D01*
X0063564Y0061000D01*
X0066163Y0061000D01*
X0066163Y0063449D01*
X0065266Y0063449D01*
X0065082Y0063373D01*
X0064942Y0063232D01*
X0064865Y0063048D01*
X0064865Y0061000D01*
X0064865Y0058952D01*
X0064942Y0058768D01*
X0065082Y0058627D01*
X0065266Y0058551D01*
X0066163Y0058551D01*
X0066163Y0061000D01*
X0064865Y0061000D01*
X0066163Y0061000D01*
X0066163Y0061000D01*
X0066163Y0060933D02*
X0066163Y0060933D01*
X0066163Y0059934D02*
X0066163Y0059934D01*
X0066163Y0058936D02*
X0066163Y0058936D01*
X0067453Y0058936D02*
X0069440Y0058936D01*
X0069217Y0059934D02*
X0067460Y0059934D01*
X0067460Y0060933D02*
X0069111Y0060933D01*
X0069111Y0061932D02*
X0067460Y0061932D01*
X0067460Y0062930D02*
X0069111Y0062930D01*
X0069111Y0063929D02*
X0060023Y0063929D01*
X0059803Y0064149D02*
X0067213Y0064149D01*
X0067975Y0064910D01*
X0064785Y0063232D02*
X0064645Y0063373D01*
X0064461Y0063449D01*
X0063564Y0063449D01*
X0063564Y0061000D01*
X0063564Y0058551D01*
X0064461Y0058551D01*
X0064645Y0058627D01*
X0064785Y0058768D01*
X0064862Y0058952D01*
X0064862Y0061000D01*
X0064862Y0063048D01*
X0064785Y0063232D01*
X0064862Y0062930D02*
X0064865Y0062930D01*
X0064862Y0061932D02*
X0064865Y0061932D01*
X0064862Y0061000D02*
X0063564Y0061000D01*
X0063564Y0061000D01*
X0064862Y0061000D01*
X0064862Y0060933D02*
X0064865Y0060933D01*
X0064862Y0059934D02*
X0064865Y0059934D01*
X0064855Y0058936D02*
X0064872Y0058936D01*
X0063564Y0058936D02*
X0063564Y0058936D01*
X0063564Y0059934D02*
X0063564Y0059934D01*
X0063564Y0060933D02*
X0063564Y0060933D01*
X0063564Y0061932D02*
X0063564Y0061932D01*
X0063564Y0062930D02*
X0063564Y0062930D01*
X0062267Y0062930D02*
X0062263Y0062930D01*
X0062263Y0061932D02*
X0062267Y0061932D01*
X0062263Y0060933D02*
X0062267Y0060933D01*
X0062263Y0059934D02*
X0062267Y0059934D01*
X0062257Y0058936D02*
X0062274Y0058936D01*
X0060966Y0058936D02*
X0060966Y0058936D01*
X0060966Y0058551D02*
X0060966Y0061000D01*
X0060966Y0061000D01*
X0060966Y0061000D01*
X0060966Y0063449D01*
X0060465Y0063449D01*
X0060465Y0063487D01*
X0059803Y0064149D01*
X0060966Y0062930D02*
X0060966Y0062930D01*
X0060966Y0061932D02*
X0060966Y0061932D01*
X0060966Y0061000D02*
X0060966Y0058551D01*
X0060867Y0057500D02*
X0063367Y0057500D01*
X0065867Y0057500D01*
X0065831Y0056772D02*
X0065647Y0056696D01*
X0065507Y0056555D01*
X0065430Y0056371D01*
X0065430Y0054689D01*
X0067119Y0054689D01*
X0067119Y0056772D01*
X0065831Y0056772D01*
X0065430Y0055940D02*
X0056470Y0055940D01*
X0056387Y0055857D02*
X0057148Y0056619D01*
X0057148Y0057751D01*
X0057148Y0056939D02*
X0069877Y0056939D01*
X0069110Y0056555D02*
X0068970Y0056696D01*
X0068786Y0056772D01*
X0067497Y0056772D01*
X0067497Y0054689D01*
X0069186Y0054689D01*
X0069186Y0056371D01*
X0069110Y0056555D01*
X0069186Y0055940D02*
X0069749Y0055940D01*
X0069749Y0054942D02*
X0069186Y0054942D01*
X0069186Y0053943D02*
X0069749Y0053943D01*
X0069749Y0052945D02*
X0069186Y0052945D01*
X0069992Y0051946D02*
X0068006Y0051946D01*
X0068465Y0050948D02*
X0076228Y0050948D01*
X0075102Y0051946D02*
X0074861Y0051946D01*
X0078521Y0051846D02*
X0078521Y0054500D01*
X0072427Y0054500D01*
X0072930Y0057572D02*
X0073369Y0057753D01*
X0074114Y0058499D01*
X0074517Y0059473D01*
X0074517Y0059928D01*
X0078863Y0059928D01*
X0079624Y0060690D01*
X0079624Y0061200D01*
X0093022Y0061200D01*
X0088679Y0056857D01*
X0088679Y0057007D01*
X0087918Y0057768D01*
X0087517Y0057768D01*
X0087517Y0058027D01*
X0087114Y0059001D01*
X0086369Y0059747D01*
X0085395Y0060150D01*
X0084340Y0060150D01*
X0083366Y0059747D01*
X0082621Y0059001D01*
X0082217Y0058027D01*
X0082217Y0057476D01*
X0081867Y0057126D01*
X0081225Y0057768D01*
X0075817Y0057768D01*
X0075056Y0057007D01*
X0075056Y0056859D01*
X0074343Y0057572D01*
X0072930Y0057572D01*
X0073553Y0057937D02*
X0082217Y0057937D01*
X0082594Y0058936D02*
X0074295Y0058936D01*
X0074976Y0056939D02*
X0075056Y0056939D01*
X0071867Y0060000D02*
X0071867Y0062783D01*
X0072084Y0063000D01*
X0066163Y0062930D02*
X0066163Y0062930D01*
X0066163Y0061932D02*
X0066163Y0061932D01*
X0060966Y0060933D02*
X0060966Y0060933D01*
X0060966Y0059934D02*
X0060966Y0059934D01*
X0058367Y0061000D02*
X0055867Y0061000D01*
X0055367Y0061500D01*
X0050067Y0061932D02*
X0043467Y0061932D01*
X0043467Y0062930D02*
X0050067Y0062930D01*
X0049749Y0063929D02*
X0049185Y0063929D01*
X0049186Y0063932D02*
X0049186Y0065516D01*
X0047005Y0065516D01*
X0047005Y0063531D01*
X0048786Y0063531D01*
X0048970Y0063608D01*
X0049110Y0063748D01*
X0049186Y0063932D01*
X0049186Y0064927D02*
X0049749Y0064927D01*
X0049749Y0065926D02*
X0047005Y0065926D01*
X0047005Y0065516D02*
X0047005Y0066484D01*
X0046037Y0066484D01*
X0046037Y0065516D01*
X0043856Y0065516D01*
X0043856Y0063932D01*
X0043932Y0063748D01*
X0044072Y0063608D01*
X0044256Y0063531D01*
X0046037Y0063531D01*
X0046037Y0065516D01*
X0047005Y0065516D01*
X0047005Y0064927D02*
X0046037Y0064927D01*
X0046037Y0063929D02*
X0047005Y0063929D01*
X0047367Y0064154D02*
X0047367Y0061500D01*
X0048367Y0060500D01*
X0048367Y0056500D01*
X0047367Y0055500D01*
X0047367Y0054500D02*
X0043249Y0054500D01*
X0046111Y0054942D02*
X0065430Y0054942D01*
X0065430Y0053943D02*
X0046111Y0053943D01*
X0046347Y0052945D02*
X0050388Y0052945D01*
X0050585Y0053143D02*
X0049824Y0052381D01*
X0049824Y0049139D01*
X0050585Y0048377D01*
X0056387Y0048377D01*
X0057148Y0049139D01*
X0057148Y0052381D01*
X0056387Y0053143D01*
X0050585Y0053143D01*
X0049824Y0051946D02*
X0046911Y0051946D01*
X0046911Y0050948D02*
X0049824Y0050948D01*
X0049824Y0049949D02*
X0046911Y0049949D01*
X0046723Y0048951D02*
X0050012Y0048951D01*
X0049038Y0045955D02*
X0064828Y0045955D01*
X0063769Y0046954D02*
X0063769Y0046954D01*
X0063769Y0047952D02*
X0063769Y0047952D01*
X0063769Y0048951D02*
X0063769Y0048951D01*
X0063769Y0049000D02*
X0063769Y0049000D01*
X0063769Y0049000D01*
X0062472Y0049000D01*
X0063769Y0049000D01*
X0063769Y0051449D01*
X0063769Y0049000D01*
X0063769Y0049000D01*
X0063769Y0049949D02*
X0063769Y0049949D01*
X0063769Y0050948D02*
X0063769Y0050948D01*
X0062472Y0050948D02*
X0062468Y0050948D01*
X0062468Y0049949D02*
X0062472Y0049949D01*
X0062468Y0048951D02*
X0062472Y0048951D01*
X0062468Y0047952D02*
X0062472Y0047952D01*
X0062468Y0046954D02*
X0062472Y0046954D01*
X0061171Y0046954D02*
X0061171Y0046954D01*
X0061171Y0046551D02*
X0061171Y0049000D01*
X0061171Y0051449D01*
X0060274Y0051449D01*
X0060090Y0051373D01*
X0059949Y0051232D01*
X0059873Y0051048D01*
X0059873Y0049000D01*
X0059873Y0046952D01*
X0059949Y0046768D01*
X0060090Y0046627D01*
X0060274Y0046551D01*
X0061171Y0046551D01*
X0059873Y0046954D02*
X0059869Y0046954D01*
X0059869Y0046952D02*
X0059869Y0049000D01*
X0059869Y0051048D01*
X0059793Y0051232D01*
X0059653Y0051373D01*
X0059469Y0051449D01*
X0058572Y0051449D01*
X0058572Y0049000D01*
X0058572Y0046551D01*
X0059469Y0046551D01*
X0059653Y0046627D01*
X0059793Y0046768D01*
X0059869Y0046952D01*
X0059869Y0047952D02*
X0059873Y0047952D01*
X0059869Y0048951D02*
X0059873Y0048951D01*
X0059873Y0049000D02*
X0061170Y0049000D01*
X0061170Y0049000D01*
X0059873Y0049000D01*
X0059869Y0049000D02*
X0058572Y0049000D01*
X0058572Y0049000D01*
X0059869Y0049000D01*
X0059869Y0049949D02*
X0059873Y0049949D01*
X0059869Y0050948D02*
X0059873Y0050948D01*
X0061171Y0050948D02*
X0061171Y0050948D01*
X0061171Y0049949D02*
X0061171Y0049949D01*
X0061171Y0048951D02*
X0061171Y0048951D01*
X0061171Y0047952D02*
X0061171Y0047952D01*
X0058572Y0047952D02*
X0058572Y0047952D01*
X0058572Y0046954D02*
X0058572Y0046954D01*
X0057275Y0046954D02*
X0042671Y0046954D01*
X0041672Y0047952D02*
X0057275Y0047952D01*
X0057275Y0048951D02*
X0056960Y0048951D01*
X0057148Y0049949D02*
X0057275Y0049949D01*
X0057275Y0050948D02*
X0057148Y0050948D01*
X0057148Y0051946D02*
X0064729Y0051946D01*
X0065430Y0052945D02*
X0056584Y0052945D01*
X0058367Y0052500D02*
X0060867Y0052500D01*
X0063367Y0052500D01*
X0063367Y0055000D01*
X0060867Y0055000D01*
X0058367Y0055000D01*
X0056387Y0055857D02*
X0050585Y0055857D01*
X0050502Y0055940D02*
X0046233Y0055940D01*
X0046911Y0056939D02*
X0049824Y0056939D01*
X0049824Y0057937D02*
X0046911Y0057937D01*
X0046911Y0058936D02*
X0049824Y0058936D01*
X0049897Y0059934D02*
X0046838Y0059934D01*
X0050067Y0060933D02*
X0043467Y0060933D01*
X0043249Y0058240D02*
X0037379Y0058240D01*
X0037119Y0058500D01*
X0037119Y0055902D01*
X0037119Y0053303D01*
X0037119Y0050705D01*
X0037119Y0046752D01*
X0036867Y0046500D01*
X0037119Y0046000D02*
X0037119Y0050705D01*
X0043194Y0050705D01*
X0043249Y0050760D01*
X0037119Y0046000D02*
X0037119Y0044098D01*
X0046021Y0043000D01*
X0049486Y0042960D02*
X0052230Y0042960D01*
X0052230Y0042516D02*
X0050049Y0042516D01*
X0050049Y0040932D01*
X0050125Y0040748D01*
X0050265Y0040608D01*
X0050449Y0040531D01*
X0052230Y0040531D01*
X0052230Y0042516D01*
X0053198Y0042516D01*
X0053198Y0043484D01*
X0055379Y0043484D01*
X0055379Y0045068D01*
X0055303Y0045252D01*
X0055162Y0045392D01*
X0054979Y0045468D01*
X0053198Y0045468D01*
X0053198Y0043484D01*
X0052230Y0043484D01*
X0052230Y0045468D01*
X0050449Y0045468D01*
X0050265Y0045392D01*
X0050125Y0045252D01*
X0050049Y0045068D01*
X0050049Y0043484D01*
X0052230Y0043484D01*
X0052230Y0042516D01*
X0052230Y0041961D02*
X0053198Y0041961D01*
X0053198Y0042516D02*
X0053198Y0040531D01*
X0054979Y0040531D01*
X0055162Y0040608D01*
X0055303Y0040748D01*
X0055379Y0040932D01*
X0055379Y0042516D01*
X0053198Y0042516D01*
X0053198Y0042960D02*
X0056760Y0042960D01*
X0056760Y0043958D02*
X0055379Y0043958D01*
X0055379Y0044957D02*
X0056760Y0044957D01*
X0053198Y0044957D02*
X0052230Y0044957D01*
X0052230Y0043958D02*
X0053198Y0043958D01*
X0050049Y0043958D02*
X0049486Y0043958D01*
X0049486Y0044957D02*
X0050049Y0044957D01*
X0050049Y0041961D02*
X0049486Y0041961D01*
X0049486Y0040963D02*
X0050049Y0040963D01*
X0049661Y0039964D02*
X0056704Y0039964D01*
X0056760Y0040963D02*
X0055379Y0040963D01*
X0055379Y0041961D02*
X0056760Y0041961D01*
X0056475Y0038966D02*
X0050659Y0038966D01*
X0051658Y0037967D02*
X0056475Y0037967D01*
X0056475Y0036969D02*
X0052656Y0036969D01*
X0053655Y0035970D02*
X0056475Y0035970D01*
X0056475Y0034972D02*
X0056234Y0034972D01*
X0056667Y0033973D02*
X0057391Y0033973D01*
X0057845Y0032975D02*
X0056667Y0032975D01*
X0056942Y0031976D02*
X0058067Y0031976D01*
X0058067Y0030978D02*
X0056967Y0030978D01*
X0056924Y0029979D02*
X0058067Y0029979D01*
X0058067Y0028981D02*
X0056667Y0028981D01*
X0056667Y0027982D02*
X0058067Y0027982D01*
X0058545Y0026984D02*
X0056190Y0026984D01*
X0050367Y0024500D02*
X0046867Y0028000D01*
X0039927Y0028000D01*
X0039927Y0032500D01*
X0042604Y0032975D02*
X0043639Y0032975D01*
X0042641Y0033973D02*
X0042604Y0033973D01*
X0042604Y0034010D02*
X0046814Y0029800D01*
X0042604Y0029800D01*
X0042604Y0030310D01*
X0042604Y0034010D01*
X0042604Y0031976D02*
X0044638Y0031976D01*
X0045636Y0030978D02*
X0042604Y0030978D01*
X0042604Y0029979D02*
X0046635Y0029979D01*
X0037249Y0028981D02*
X0036686Y0028981D01*
X0034619Y0027982D02*
X0024867Y0027982D01*
X0024867Y0026984D02*
X0032930Y0026984D01*
X0032990Y0025985D02*
X0024867Y0025985D01*
X0024734Y0024987D02*
X0032930Y0024987D01*
X0032930Y0023988D02*
X0024320Y0023988D01*
X0023907Y0022990D02*
X0032930Y0022990D01*
X0032930Y0021991D02*
X0023379Y0021991D01*
X0034619Y0021991D02*
X0034997Y0021991D01*
X0034997Y0022990D02*
X0034619Y0022990D01*
X0034619Y0023988D02*
X0034997Y0023988D01*
X0034997Y0024987D02*
X0034619Y0024987D01*
X0034619Y0025985D02*
X0034997Y0025985D01*
X0034997Y0026984D02*
X0034619Y0026984D01*
X0032930Y0028981D02*
X0024747Y0028981D01*
X0024334Y0029979D02*
X0032341Y0029979D01*
X0032130Y0030978D02*
X0023920Y0030978D01*
X0023412Y0031976D02*
X0032130Y0031976D01*
X0032130Y0032975D02*
X0022414Y0032975D01*
X0021415Y0033973D02*
X0031349Y0033973D01*
X0030350Y0034972D02*
X0019334Y0034972D01*
X0026367Y0041500D02*
X0034808Y0033059D01*
X0034808Y0032500D01*
X0039927Y0023500D02*
X0040427Y0023000D01*
X0045867Y0023000D01*
X0048318Y0021991D02*
X0104670Y0021991D01*
X0105003Y0021991D02*
X0134876Y0021991D01*
X0132921Y0022990D02*
X0132247Y0022990D01*
X0132247Y0023988D02*
X0132921Y0023988D01*
X0132247Y0024987D02*
X0109198Y0024987D01*
X0110197Y0025985D02*
X0130411Y0025985D01*
X0130457Y0026984D02*
X0111195Y0026984D01*
X0111704Y0027982D02*
X0132921Y0027982D01*
X0132921Y0026984D02*
X0132247Y0026984D01*
X0132247Y0025985D02*
X0132921Y0025985D01*
X0132717Y0028981D02*
X0113596Y0028981D01*
X0111867Y0031000D02*
X0116895Y0031000D01*
X0120300Y0034405D01*
X0121692Y0033013D02*
X0126367Y0037689D01*
X0126367Y0039000D01*
X0128808Y0037967D02*
X0128983Y0037967D01*
X0129017Y0038966D02*
X0129982Y0038966D01*
X0130441Y0039425D02*
X0130441Y0039425D01*
X0130980Y0039964D02*
X0128836Y0039964D01*
X0128152Y0040963D02*
X0131979Y0040963D01*
X0132977Y0041961D02*
X0125838Y0041961D01*
X0125155Y0042960D02*
X0134617Y0042960D01*
X0134974Y0043958D02*
X0124017Y0043958D01*
X0123839Y0044957D02*
X0135973Y0044957D01*
X0136972Y0045955D02*
X0123160Y0045955D01*
X0119161Y0046954D02*
X0137970Y0046954D01*
X0138942Y0047926D02*
X0138942Y0047926D01*
X0138969Y0047952D02*
X0112766Y0047952D01*
X0112793Y0047926D02*
X0111401Y0049318D01*
X0110009Y0050710D01*
X0108617Y0052102D01*
X0107540Y0052102D01*
X0105926Y0050488D01*
X0105926Y0053604D01*
X0105285Y0055153D01*
X0107540Y0052898D01*
X0108617Y0052898D01*
X0110158Y0054439D01*
X0110898Y0055180D01*
X0113717Y0052361D01*
X0113717Y0051973D01*
X0114121Y0050999D01*
X0114866Y0050253D01*
X0115840Y0049850D01*
X0116895Y0049850D01*
X0117869Y0050253D01*
X0118614Y0050999D01*
X0119017Y0051973D01*
X0119017Y0053027D01*
X0118614Y0054001D01*
X0118364Y0054251D01*
X0118369Y0054253D01*
X0119114Y0054999D01*
X0119517Y0055973D01*
X0119057Y0054942D02*
X0131678Y0054942D01*
X0133115Y0053943D02*
X0118638Y0053943D01*
X0119017Y0052945D02*
X0137067Y0052945D01*
X0137067Y0053943D02*
X0134620Y0053943D01*
X0136057Y0054942D02*
X0137067Y0054942D01*
X0137067Y0055940D02*
X0136504Y0055940D01*
X0137028Y0056939D02*
X0137504Y0056939D01*
X0138026Y0057937D02*
X0138079Y0057937D01*
X0138867Y0055756D02*
X0142571Y0059460D01*
X0141179Y0060852D02*
X0150327Y0070000D01*
X0156556Y0070000D01*
X0159367Y0070000D01*
X0177867Y0051500D01*
X0196867Y0051500D01*
X0202946Y0057579D01*
X0205017Y0057579D01*
X0205017Y0055610D02*
X0205478Y0055610D01*
X0199367Y0049500D01*
X0176867Y0049500D01*
X0161867Y0064500D01*
X0157056Y0064500D01*
X0156556Y0065000D01*
X0150895Y0065000D01*
X0143963Y0058068D01*
X0145355Y0056676D02*
X0150530Y0051500D01*
X0159367Y0051500D01*
X0163367Y0055500D01*
X0166367Y0056500D02*
X0166367Y0051559D01*
X0165308Y0050500D01*
X0167986Y0050632D02*
X0167986Y0048190D01*
X0167225Y0047428D01*
X0164485Y0047428D01*
X0165613Y0046300D01*
X0177630Y0046300D01*
X0177630Y0047700D01*
X0176122Y0047700D01*
X0172304Y0051517D01*
X0172304Y0050689D01*
X0170616Y0050689D01*
X0170616Y0050311D01*
X0172304Y0050311D01*
X0172304Y0048629D01*
X0172228Y0048445D01*
X0172088Y0048304D01*
X0171904Y0048228D01*
X0170615Y0048228D01*
X0170615Y0050311D01*
X0170238Y0050311D01*
X0170238Y0048228D01*
X0168949Y0048228D01*
X0168765Y0048304D01*
X0168625Y0048445D01*
X0168549Y0048629D01*
X0168549Y0050311D01*
X0170237Y0050311D01*
X0170237Y0050689D01*
X0168549Y0050689D01*
X0168549Y0052371D01*
X0168625Y0052555D01*
X0168765Y0052696D01*
X0168949Y0052772D01*
X0170238Y0052772D01*
X0170238Y0050689D01*
X0170615Y0050689D01*
X0170615Y0052772D01*
X0171050Y0052772D01*
X0168167Y0055654D01*
X0168167Y0050813D01*
X0167986Y0050632D01*
X0168167Y0050948D02*
X0168549Y0050948D01*
X0168549Y0051946D02*
X0168167Y0051946D01*
X0168167Y0052945D02*
X0170877Y0052945D01*
X0170615Y0051946D02*
X0170238Y0051946D01*
X0170238Y0050948D02*
X0170615Y0050948D01*
X0170427Y0050500D02*
X0170427Y0047559D01*
X0170367Y0047500D01*
X0170238Y0048951D02*
X0170615Y0048951D01*
X0170615Y0049949D02*
X0170238Y0049949D01*
X0168549Y0049949D02*
X0167986Y0049949D01*
X0167986Y0048951D02*
X0168549Y0048951D01*
X0167749Y0047952D02*
X0175869Y0047952D01*
X0174871Y0048951D02*
X0172304Y0048951D01*
X0172304Y0049949D02*
X0173872Y0049949D01*
X0172874Y0050948D02*
X0172304Y0050948D01*
X0169878Y0053943D02*
X0168167Y0053943D01*
X0168167Y0054942D02*
X0168880Y0054942D01*
X0166367Y0056500D02*
X0162867Y0060000D01*
X0156556Y0060000D01*
X0152367Y0060000D01*
X0156556Y0060000D02*
X0156556Y0055000D01*
X0148867Y0049500D02*
X0145867Y0052500D01*
X0139867Y0052500D01*
X0138867Y0053500D01*
X0138867Y0055756D01*
X0137875Y0051946D02*
X0119006Y0051946D01*
X0118563Y0050948D02*
X0138874Y0050948D01*
X0140966Y0049949D02*
X0117134Y0049949D01*
X0115600Y0049949D02*
X0110769Y0049949D01*
X0111768Y0048951D02*
X0139967Y0048951D01*
X0143963Y0046932D02*
X0146395Y0044500D01*
X0158867Y0044500D01*
X0161367Y0042000D01*
X0161367Y0037000D01*
X0163907Y0034961D01*
X0165698Y0035461D01*
X0169907Y0035461D01*
X0170367Y0034500D01*
X0165698Y0030539D02*
X0167238Y0029000D01*
X0168867Y0029000D01*
X0169592Y0028276D01*
X0171367Y0028276D01*
X0171367Y0023500D01*
X0170367Y0022500D01*
X0153367Y0022500D01*
X0152367Y0023500D01*
X0152367Y0027500D01*
X0145867Y0034000D01*
X0145867Y0042244D01*
X0142571Y0045540D01*
X0141179Y0044148D02*
X0143867Y0041460D01*
X0143867Y0032500D01*
X0149427Y0026941D01*
X0149427Y0025000D01*
X0149867Y0024559D01*
X0149867Y0021500D01*
X0151867Y0019500D01*
X0160367Y0019500D01*
X0163017Y0019994D02*
X0171626Y0019994D01*
X0172989Y0018996D02*
X0163017Y0018996D01*
X0173867Y0021500D02*
X0173867Y0022957D01*
X0176037Y0025126D01*
X0180367Y0024732D02*
X0180867Y0024232D01*
X0180867Y0021500D01*
X0181367Y0021000D01*
X0183367Y0021000D01*
X0185819Y0019994D02*
X0275853Y0019994D01*
X0276053Y0019794D02*
X0279177Y0018500D01*
X0282558Y0018500D01*
X0285682Y0019794D01*
X0288073Y0022185D01*
X0289367Y0025309D01*
X0289367Y0028691D01*
X0288073Y0031815D01*
X0285682Y0034206D01*
X0282558Y0035500D01*
X0279177Y0035500D01*
X0276053Y0034206D01*
X0273661Y0031815D01*
X0272367Y0028691D01*
X0272367Y0025309D01*
X0273661Y0022185D01*
X0276053Y0019794D01*
X0274854Y0020993D02*
X0186017Y0020993D01*
X0185825Y0021991D02*
X0187629Y0021991D01*
X0191106Y0021991D02*
X0273856Y0021991D01*
X0273328Y0022990D02*
X0191817Y0022990D01*
X0192017Y0023988D02*
X0272915Y0023988D01*
X0272501Y0024987D02*
X0191827Y0024987D01*
X0191130Y0025985D02*
X0251001Y0025985D01*
X0249824Y0026984D02*
X0188025Y0026984D01*
X0185824Y0024000D02*
X0184698Y0025126D01*
X0185824Y0024000D02*
X0189367Y0024000D01*
X0187560Y0028981D02*
X0249147Y0028981D01*
X0249147Y0028431D02*
X0249147Y0029853D01*
X0249691Y0031167D01*
X0250697Y0032172D01*
X0251355Y0032445D01*
X0251111Y0032690D01*
X0251111Y0033200D01*
X0248604Y0033200D01*
X0248604Y0032690D01*
X0247843Y0031928D01*
X0244010Y0031928D01*
X0243367Y0032571D01*
X0242725Y0031928D01*
X0238892Y0031928D01*
X0238130Y0032690D01*
X0238130Y0033200D01*
X0235063Y0033200D01*
X0235000Y0033263D01*
X0232557Y0033263D01*
X0231796Y0034025D01*
X0231796Y0037857D01*
X0232438Y0038500D01*
X0231796Y0039143D01*
X0231796Y0042975D01*
X0232557Y0043737D01*
X0233067Y0043737D01*
X0233067Y0044931D01*
X0232958Y0045200D01*
X0228939Y0045200D01*
X0228939Y0041572D01*
X0228178Y0040810D01*
X0228139Y0040810D01*
X0228139Y0039553D01*
X0226204Y0039553D01*
X0226204Y0038880D01*
X0228139Y0038880D01*
X0228139Y0037444D01*
X0228063Y0037260D01*
X0227922Y0037119D01*
X0227739Y0037043D01*
X0226204Y0037043D01*
X0226204Y0038880D01*
X0225531Y0038880D01*
X0225531Y0037043D01*
X0223996Y0037043D01*
X0223813Y0037119D01*
X0223672Y0037260D01*
X0223613Y0037401D01*
X0223563Y0037280D01*
X0223422Y0037139D01*
X0223239Y0037063D01*
X0221556Y0037063D01*
X0221556Y0038752D01*
X0221178Y0038752D01*
X0219139Y0038752D01*
X0219139Y0038880D01*
X0217204Y0038880D01*
X0217204Y0039553D01*
X0219096Y0039553D01*
X0219096Y0039130D01*
X0221178Y0039130D01*
X0221178Y0038752D01*
X0221178Y0037063D01*
X0219496Y0037063D01*
X0219313Y0037139D01*
X0219172Y0037280D01*
X0219122Y0037401D01*
X0219063Y0037260D01*
X0218922Y0037119D01*
X0218739Y0037043D01*
X0217204Y0037043D01*
X0217204Y0038880D01*
X0216531Y0038880D01*
X0216531Y0037043D01*
X0214996Y0037043D01*
X0214813Y0037119D01*
X0214672Y0037260D01*
X0214617Y0037392D01*
X0214563Y0037260D01*
X0214422Y0037119D01*
X0214239Y0037043D01*
X0212704Y0037043D01*
X0212704Y0038880D01*
X0212704Y0039553D01*
X0214639Y0039553D01*
X0216531Y0039553D01*
X0216531Y0038880D01*
X0212704Y0038880D01*
X0212031Y0038880D01*
X0212031Y0037043D01*
X0210496Y0037043D01*
X0210313Y0037119D01*
X0210172Y0037260D01*
X0210096Y0037444D01*
X0210096Y0038880D01*
X0212031Y0038880D01*
X0212031Y0039553D01*
X0210096Y0039553D01*
X0210096Y0040810D01*
X0210057Y0040810D01*
X0209486Y0041381D01*
X0205057Y0041381D01*
X0204296Y0042143D01*
X0204296Y0045975D01*
X0205057Y0046737D01*
X0205383Y0046737D01*
X0205121Y0046999D01*
X0204971Y0047361D01*
X0204614Y0046499D01*
X0203869Y0045753D01*
X0202895Y0045350D01*
X0201840Y0045350D01*
X0200866Y0045753D01*
X0200121Y0046499D01*
X0199717Y0047473D01*
X0199717Y0047700D01*
X0188104Y0047700D01*
X0188104Y0046150D01*
X0188395Y0046150D01*
X0189369Y0045747D01*
X0189878Y0045237D01*
X0194178Y0045237D01*
X0194367Y0045047D01*
X0194557Y0045237D01*
X0199178Y0045237D01*
X0199939Y0044475D01*
X0199939Y0040643D01*
X0199178Y0039881D01*
X0194557Y0039881D01*
X0194367Y0040071D01*
X0194178Y0039881D01*
X0189557Y0039881D01*
X0188796Y0040643D01*
X0188796Y0040759D01*
X0188360Y0040759D01*
X0188360Y0039351D01*
X0187599Y0038590D01*
X0187560Y0038590D01*
X0187560Y0037724D01*
X0184698Y0037724D01*
X0184698Y0036240D01*
X0187160Y0036240D01*
X0187344Y0036316D01*
X0187484Y0036457D01*
X0187560Y0036641D01*
X0187560Y0037724D01*
X0184698Y0037724D01*
X0184698Y0037724D01*
X0184982Y0037441D01*
X0191867Y0037441D01*
X0190867Y0036441D01*
X0190867Y0034500D01*
X0191678Y0035563D02*
X0191678Y0037252D01*
X0189596Y0037252D01*
X0189596Y0035964D01*
X0189672Y0035780D01*
X0189813Y0035639D01*
X0189996Y0035563D01*
X0191678Y0035563D01*
X0192056Y0035563D02*
X0193739Y0035563D01*
X0193922Y0035639D01*
X0194063Y0035780D01*
X0194139Y0035964D01*
X0194139Y0037252D01*
X0192056Y0037252D01*
X0192056Y0035563D01*
X0192056Y0035970D02*
X0191678Y0035970D01*
X0191678Y0036969D02*
X0192056Y0036969D01*
X0192056Y0037252D02*
X0191678Y0037252D01*
X0191678Y0037630D01*
X0189596Y0037630D01*
X0189596Y0038918D01*
X0189672Y0039102D01*
X0189813Y0039243D01*
X0189996Y0039319D01*
X0191678Y0039319D01*
X0191678Y0037630D01*
X0192056Y0037630D01*
X0192056Y0039319D01*
X0193739Y0039319D01*
X0193922Y0039243D01*
X0194063Y0039102D01*
X0194139Y0038918D01*
X0194139Y0037630D01*
X0192056Y0037630D01*
X0192056Y0037252D01*
X0191867Y0037441D02*
X0196867Y0037441D01*
X0196927Y0037500D01*
X0199867Y0037500D01*
X0201308Y0038941D01*
X0207367Y0038941D01*
X0207643Y0039217D01*
X0212367Y0039217D01*
X0216867Y0039217D01*
X0217143Y0038941D01*
X0221367Y0038941D01*
X0221643Y0039217D01*
X0225867Y0039217D01*
X0225531Y0038966D02*
X0221556Y0038966D01*
X0221556Y0039130D02*
X0223639Y0039130D01*
X0223639Y0039553D01*
X0225531Y0039553D01*
X0225531Y0038880D01*
X0223596Y0038880D01*
X0223596Y0038752D01*
X0221556Y0038752D01*
X0221556Y0039130D01*
X0221178Y0039130D01*
X0221178Y0040819D01*
X0219496Y0040819D01*
X0219313Y0040743D01*
X0219172Y0040602D01*
X0219139Y0040523D01*
X0219139Y0040810D01*
X0219178Y0040810D01*
X0219748Y0041381D01*
X0222986Y0041381D01*
X0223557Y0040810D01*
X0223596Y0040810D01*
X0223596Y0040523D01*
X0223563Y0040602D01*
X0223422Y0040743D01*
X0223239Y0040819D01*
X0221556Y0040819D01*
X0221556Y0039130D01*
X0221178Y0038966D02*
X0217204Y0038966D01*
X0216531Y0038966D02*
X0212704Y0038966D01*
X0212031Y0038966D02*
X0207556Y0038966D01*
X0207556Y0039130D02*
X0209639Y0039130D01*
X0209639Y0040418D01*
X0209563Y0040602D01*
X0209422Y0040743D01*
X0209239Y0040819D01*
X0207556Y0040819D01*
X0207556Y0039130D01*
X0207178Y0039130D01*
X0207178Y0038752D01*
X0205096Y0038752D01*
X0205096Y0037464D01*
X0205172Y0037280D01*
X0205313Y0037139D01*
X0205496Y0037063D01*
X0207178Y0037063D01*
X0207178Y0038752D01*
X0207556Y0038752D01*
X0207556Y0037063D01*
X0209239Y0037063D01*
X0209422Y0037139D01*
X0209563Y0037280D01*
X0209639Y0037464D01*
X0209639Y0038752D01*
X0207556Y0038752D01*
X0207556Y0039130D01*
X0207178Y0039130D02*
X0207178Y0040819D01*
X0205496Y0040819D01*
X0205313Y0040743D01*
X0205172Y0040602D01*
X0205096Y0040418D01*
X0205096Y0039130D01*
X0207178Y0039130D01*
X0207178Y0038966D02*
X0199119Y0038966D01*
X0199139Y0038918D02*
X0199063Y0039102D01*
X0198922Y0039243D01*
X0198739Y0039319D01*
X0197056Y0039319D01*
X0197056Y0037630D01*
X0196678Y0037630D01*
X0196678Y0037252D01*
X0194596Y0037252D01*
X0194596Y0035964D01*
X0194672Y0035780D01*
X0194813Y0035639D01*
X0194996Y0035563D01*
X0196678Y0035563D01*
X0196678Y0037252D01*
X0197056Y0037252D01*
X0197056Y0035563D01*
X0198739Y0035563D01*
X0198922Y0035639D01*
X0199063Y0035780D01*
X0199139Y0035964D01*
X0199139Y0037252D01*
X0197056Y0037252D01*
X0197056Y0037630D01*
X0199139Y0037630D01*
X0199139Y0038918D01*
X0199139Y0037967D02*
X0205096Y0037967D01*
X0207178Y0037967D02*
X0207556Y0037967D01*
X0209639Y0037967D02*
X0210096Y0037967D01*
X0212031Y0037967D02*
X0212704Y0037967D01*
X0210096Y0039964D02*
X0209639Y0039964D01*
X0209905Y0040963D02*
X0199939Y0040963D01*
X0199939Y0041961D02*
X0204477Y0041961D01*
X0204296Y0042960D02*
X0199939Y0042960D01*
X0199939Y0043958D02*
X0204296Y0043958D01*
X0204296Y0044957D02*
X0199458Y0044957D01*
X0200664Y0045955D02*
X0188864Y0045955D01*
X0188104Y0046954D02*
X0199932Y0046954D01*
X0202367Y0048000D02*
X0206367Y0052000D01*
X0206367Y0052039D01*
X0207478Y0053150D01*
X0211367Y0053102D02*
X0211415Y0053150D01*
X0211367Y0053102D02*
X0211367Y0050000D01*
X0207367Y0046000D01*
X0207367Y0044059D01*
X0207367Y0048500D01*
X0205166Y0046954D02*
X0204802Y0046954D01*
X0204296Y0045955D02*
X0204070Y0045955D01*
X0196867Y0042559D02*
X0191867Y0042559D01*
X0188867Y0042559D01*
X0185427Y0046000D01*
X0185427Y0045941D01*
X0187867Y0043500D01*
X0185427Y0046000D02*
X0184698Y0045272D01*
X0184698Y0040874D01*
X0188360Y0039964D02*
X0189474Y0039964D01*
X0189615Y0038966D02*
X0187975Y0038966D01*
X0187560Y0037967D02*
X0189596Y0037967D01*
X0189596Y0036969D02*
X0187560Y0036969D01*
X0187356Y0035970D02*
X0189596Y0035970D01*
X0187560Y0034972D02*
X0231796Y0034972D01*
X0231796Y0035970D02*
X0199139Y0035970D01*
X0199139Y0036969D02*
X0231796Y0036969D01*
X0231906Y0037967D02*
X0228139Y0037967D01*
X0226204Y0037967D02*
X0225531Y0037967D01*
X0226204Y0038966D02*
X0231973Y0038966D01*
X0231796Y0039964D02*
X0228139Y0039964D01*
X0228330Y0040963D02*
X0231796Y0040963D01*
X0231796Y0041961D02*
X0228939Y0041961D01*
X0228939Y0042960D02*
X0231796Y0042960D01*
X0233067Y0043958D02*
X0228939Y0043958D01*
X0228939Y0044957D02*
X0233057Y0044957D01*
X0234867Y0045283D02*
X0239084Y0047000D01*
X0229367Y0047000D01*
X0223718Y0052650D01*
X0223718Y0055610D01*
X0223718Y0057579D02*
X0229789Y0057579D01*
X0236867Y0050500D01*
X0247367Y0050500D01*
X0249867Y0053000D01*
X0249867Y0058500D01*
X0251808Y0060441D01*
X0254367Y0060441D01*
X0254084Y0059724D01*
X0254084Y0055000D01*
X0257210Y0053441D02*
X0258651Y0055000D01*
X0258151Y0050776D01*
X0256427Y0048500D01*
X0255927Y0044224D01*
X0256151Y0044000D01*
X0259124Y0043958D02*
X0273367Y0043958D01*
X0273367Y0042960D02*
X0259124Y0042960D01*
X0259124Y0041961D02*
X0289568Y0041961D01*
X0289568Y0040963D02*
X0260824Y0040963D01*
X0260824Y0039964D02*
X0289568Y0039964D01*
X0289568Y0038966D02*
X0260824Y0038966D01*
X0260824Y0037967D02*
X0289568Y0037967D01*
X0289568Y0036969D02*
X0260784Y0036969D01*
X0260824Y0035970D02*
X0289568Y0035970D01*
X0289568Y0034972D02*
X0283834Y0034972D01*
X0285915Y0033973D02*
X0289568Y0033973D01*
X0289568Y0032975D02*
X0286914Y0032975D01*
X0287912Y0031976D02*
X0289568Y0031976D01*
X0289568Y0030978D02*
X0288420Y0030978D01*
X0288834Y0029979D02*
X0289568Y0029979D01*
X0289568Y0028981D02*
X0289247Y0028981D01*
X0289367Y0027982D02*
X0289568Y0027982D01*
X0289568Y0026984D02*
X0289367Y0026984D01*
X0289367Y0025985D02*
X0289568Y0025985D01*
X0289568Y0024987D02*
X0289234Y0024987D01*
X0289568Y0023988D02*
X0288820Y0023988D01*
X0288407Y0022990D02*
X0289568Y0022990D01*
X0289568Y0021991D02*
X0287879Y0021991D01*
X0286881Y0020993D02*
X0289568Y0020993D01*
X0289568Y0019994D02*
X0285882Y0019994D01*
X0283755Y0018996D02*
X0289568Y0018996D01*
X0277980Y0018996D02*
X0185111Y0018996D01*
X0181624Y0018996D02*
X0174746Y0018996D01*
X0176109Y0019994D02*
X0179828Y0019994D01*
X0179067Y0020993D02*
X0176517Y0020993D01*
X0176517Y0021991D02*
X0178083Y0021991D01*
X0165698Y0025618D02*
X0157037Y0025618D01*
X0157419Y0025000D01*
X0162367Y0025500D01*
X0161435Y0027982D02*
X0160261Y0027982D01*
X0160075Y0028168D02*
X0154167Y0028168D01*
X0154167Y0028246D01*
X0153113Y0029300D01*
X0147667Y0034746D01*
X0147667Y0042700D01*
X0150020Y0042700D01*
X0149296Y0041975D01*
X0149296Y0038143D01*
X0150057Y0037381D01*
X0154678Y0037381D01*
X0155059Y0037763D01*
X0155063Y0037759D01*
X0155676Y0037759D01*
X0156283Y0037669D01*
X0156285Y0037671D01*
X0156287Y0037671D01*
X0156406Y0037759D01*
X0156683Y0037759D01*
X0156864Y0037642D01*
X0157405Y0037759D01*
X0157959Y0037759D01*
X0158032Y0037832D01*
X0159567Y0037832D01*
X0159567Y0037633D01*
X0159497Y0037546D01*
X0159534Y0037211D01*
X0157162Y0037211D01*
X0157162Y0035586D01*
X0156912Y0035586D01*
X0156912Y0037211D01*
X0154437Y0037211D01*
X0154254Y0037134D01*
X0154113Y0036994D01*
X0154040Y0036819D01*
X0152556Y0036819D01*
X0152556Y0035130D01*
X0152178Y0035130D01*
X0152178Y0034752D01*
X0150096Y0034752D01*
X0150096Y0033464D01*
X0150172Y0033280D01*
X0150313Y0033139D01*
X0150496Y0033063D01*
X0152178Y0033063D01*
X0152178Y0034752D01*
X0152556Y0034752D01*
X0152556Y0033063D01*
X0154239Y0033063D01*
X0154422Y0033139D01*
X0154563Y0033280D01*
X0154639Y0033464D01*
X0154639Y0033711D01*
X0156912Y0033711D01*
X0156912Y0035336D01*
X0157162Y0035336D01*
X0157162Y0035586D01*
X0160037Y0035586D01*
X0160037Y0035760D01*
X0160164Y0035658D01*
X0160622Y0035200D01*
X0160734Y0035200D01*
X0161898Y0034265D01*
X0161898Y0033672D01*
X0162570Y0033000D01*
X0161898Y0032328D01*
X0161898Y0028751D01*
X0162499Y0028150D01*
X0161840Y0028150D01*
X0160866Y0027747D01*
X0160682Y0027562D01*
X0160075Y0028168D01*
X0159820Y0028865D02*
X0159636Y0028789D01*
X0157162Y0028789D01*
X0157162Y0030414D01*
X0157162Y0030664D01*
X0160037Y0030664D01*
X0160037Y0031889D01*
X0159961Y0032073D01*
X0159820Y0032213D01*
X0159636Y0032289D01*
X0157162Y0032289D01*
X0157162Y0030664D01*
X0156912Y0030664D01*
X0156912Y0030414D01*
X0157162Y0030414D01*
X0160037Y0030414D01*
X0160037Y0029190D01*
X0159961Y0029006D01*
X0159820Y0028865D01*
X0159935Y0028981D02*
X0161898Y0028981D01*
X0161898Y0029979D02*
X0160037Y0029979D01*
X0160037Y0030978D02*
X0161898Y0030978D01*
X0161898Y0031976D02*
X0160001Y0031976D01*
X0158867Y0032370D02*
X0157367Y0030870D01*
X0157367Y0034000D01*
X0157458Y0034000D02*
X0158867Y0034000D01*
X0158867Y0033500D02*
X0158867Y0032370D01*
X0159636Y0033711D02*
X0159820Y0033787D01*
X0159961Y0033927D01*
X0160037Y0034111D01*
X0160037Y0035336D01*
X0157162Y0035336D01*
X0157162Y0033711D01*
X0159636Y0033711D01*
X0159980Y0033973D02*
X0161898Y0033973D01*
X0162545Y0032975D02*
X0149438Y0032975D01*
X0150096Y0033973D02*
X0148440Y0033973D01*
X0147667Y0034972D02*
X0152178Y0034972D01*
X0152178Y0035130D02*
X0150096Y0035130D01*
X0150096Y0036418D01*
X0150172Y0036602D01*
X0150313Y0036743D01*
X0150496Y0036819D01*
X0152178Y0036819D01*
X0152178Y0035130D01*
X0152367Y0034941D02*
X0157017Y0034441D01*
X0157458Y0034000D01*
X0157162Y0033973D02*
X0156912Y0033973D01*
X0157017Y0034441D02*
X0156958Y0034500D01*
X0152867Y0034500D01*
X0151367Y0033000D01*
X0151367Y0031500D01*
X0151435Y0030978D02*
X0154037Y0030978D01*
X0154037Y0030664D02*
X0154037Y0031889D01*
X0154113Y0032073D01*
X0154254Y0032213D01*
X0154437Y0032289D01*
X0156912Y0032289D01*
X0156912Y0030664D01*
X0154037Y0030664D01*
X0154037Y0030414D02*
X0154037Y0029190D01*
X0154113Y0029006D01*
X0154254Y0028865D01*
X0154437Y0028789D01*
X0156912Y0028789D01*
X0156912Y0030414D01*
X0154037Y0030414D01*
X0154037Y0029979D02*
X0152434Y0029979D01*
X0153432Y0028981D02*
X0154138Y0028981D01*
X0156912Y0028981D02*
X0157162Y0028981D01*
X0157162Y0029979D02*
X0156912Y0029979D01*
X0157037Y0030539D02*
X0157367Y0030870D01*
X0157162Y0030978D02*
X0156912Y0030978D01*
X0157037Y0030539D02*
X0157037Y0035461D01*
X0157017Y0034441D01*
X0156912Y0034972D02*
X0157162Y0034972D01*
X0157162Y0035970D02*
X0156912Y0035970D01*
X0156912Y0036969D02*
X0157162Y0036969D01*
X0154102Y0036969D02*
X0147667Y0036969D01*
X0147667Y0037967D02*
X0149471Y0037967D01*
X0149296Y0038966D02*
X0147667Y0038966D01*
X0147667Y0039964D02*
X0149296Y0039964D01*
X0149296Y0040963D02*
X0147667Y0040963D01*
X0147667Y0041961D02*
X0149296Y0041961D01*
X0152367Y0040059D02*
X0155808Y0039559D01*
X0154367Y0041500D01*
X0155808Y0039559D02*
X0157214Y0039559D01*
X0157037Y0040382D01*
X0159580Y0047000D02*
X0164867Y0041500D01*
X0165698Y0040669D01*
X0165698Y0040382D01*
X0169986Y0040382D01*
X0170367Y0040000D01*
X0179699Y0036969D02*
X0181836Y0036969D01*
X0182040Y0035970D02*
X0179699Y0035970D01*
X0179699Y0034972D02*
X0181836Y0034972D01*
X0181836Y0033973D02*
X0179699Y0033973D01*
X0179672Y0032975D02*
X0181063Y0032975D01*
X0181036Y0031976D02*
X0179699Y0031976D01*
X0179699Y0030978D02*
X0181036Y0030978D01*
X0181036Y0029979D02*
X0179699Y0029979D01*
X0179699Y0028981D02*
X0181836Y0028981D01*
X0176037Y0028276D02*
X0171367Y0028276D01*
X0157162Y0031976D02*
X0156912Y0031976D01*
X0154073Y0031976D02*
X0150437Y0031976D01*
X0152178Y0033973D02*
X0152556Y0033973D01*
X0152556Y0035970D02*
X0152178Y0035970D01*
X0150096Y0035970D02*
X0147667Y0035970D01*
X0142067Y0037967D02*
X0141012Y0037967D01*
X0142011Y0038966D02*
X0142067Y0038966D01*
X0138867Y0035324D02*
X0138867Y0032000D01*
X0135867Y0029000D01*
X0135367Y0029000D01*
X0135367Y0028500D01*
X0136367Y0027500D01*
X0136367Y0025783D01*
X0137151Y0025000D01*
X0130411Y0023988D02*
X0107068Y0023988D01*
X0106918Y0024987D02*
X0107713Y0024987D01*
X0106714Y0025985D02*
X0105585Y0025985D01*
X0105716Y0026984D02*
X0104933Y0026984D01*
X0103530Y0025985D02*
X0102996Y0025985D01*
X0102640Y0025985D02*
X0089398Y0025985D01*
X0088400Y0024987D02*
X0101831Y0024987D01*
X0102604Y0023988D02*
X0087401Y0023988D01*
X0086403Y0022990D02*
X0103603Y0022990D01*
X0103588Y0023988D02*
X0104123Y0023988D01*
X0104993Y0023988D02*
X0105528Y0023988D01*
X0105121Y0024987D02*
X0104587Y0024987D01*
X0104529Y0024987D02*
X0103995Y0024987D01*
X0102534Y0026984D02*
X0090397Y0026984D01*
X0091395Y0027982D02*
X0101536Y0027982D01*
X0100537Y0028981D02*
X0093210Y0028981D01*
X0094594Y0029979D02*
X0099650Y0029979D01*
X0099682Y0030978D02*
X0095017Y0030978D01*
X0095017Y0031976D02*
X0100681Y0031976D01*
X0101680Y0032975D02*
X0094625Y0032975D01*
X0095545Y0033973D02*
X0093321Y0033973D01*
X0092367Y0031500D02*
X0085367Y0024500D01*
X0050367Y0024500D01*
X0049332Y0022990D02*
X0048517Y0022990D01*
X0048334Y0023988D02*
X0048326Y0023988D01*
X0047608Y0020993D02*
X0148067Y0020993D01*
X0147447Y0021991D02*
X0146288Y0021991D01*
X0130468Y0022990D02*
X0105992Y0022990D01*
X0108058Y0028310D02*
X0108177Y0028310D01*
X0108058Y0028310D02*
X0104847Y0031520D01*
X0104847Y0033020D01*
X0103867Y0034000D01*
X0103867Y0043027D01*
X0107772Y0046932D01*
X0106380Y0048324D02*
X0097888Y0039832D01*
X0097888Y0038480D01*
X0097007Y0038480D01*
X0094177Y0041310D01*
X0096314Y0042960D02*
X0097745Y0042960D01*
X0099469Y0043958D02*
X0095315Y0043958D01*
X0094443Y0044957D02*
X0081124Y0044957D01*
X0080976Y0043958D02*
X0092482Y0043958D01*
X0091483Y0042960D02*
X0081124Y0042960D01*
X0081124Y0041961D02*
X0090650Y0041961D01*
X0090737Y0040963D02*
X0081124Y0040963D01*
X0081124Y0039964D02*
X0089619Y0039964D01*
X0089550Y0038966D02*
X0089015Y0038966D01*
X0088621Y0038966D02*
X0082649Y0038966D01*
X0083335Y0037967D02*
X0087831Y0037967D01*
X0088624Y0036969D02*
X0083517Y0036969D01*
X0083309Y0035970D02*
X0089622Y0035970D01*
X0089569Y0036969D02*
X0090103Y0036969D01*
X0090558Y0037690D02*
X0083867Y0031000D01*
X0081367Y0031000D01*
X0076651Y0030500D02*
X0076651Y0036000D01*
X0077151Y0037000D01*
X0080867Y0037000D01*
X0075296Y0039072D02*
X0074439Y0039072D01*
X0074367Y0039000D01*
X0074296Y0039072D01*
X0069872Y0039072D01*
X0069849Y0039048D01*
X0068465Y0039048D01*
X0068465Y0039735D01*
X0068160Y0040040D01*
X0068160Y0045090D01*
X0067498Y0045751D01*
X0067703Y0045751D01*
X0068465Y0046513D01*
X0068465Y0047200D01*
X0069606Y0047200D01*
X0070611Y0046626D01*
X0070611Y0044690D01*
X0071372Y0043928D01*
X0075296Y0043928D01*
X0075178Y0043810D01*
X0075178Y0043772D01*
X0073921Y0043772D01*
X0073921Y0041837D01*
X0073247Y0041837D01*
X0073247Y0043772D01*
X0071811Y0043772D01*
X0071628Y0043696D01*
X0071487Y0043555D01*
X0071411Y0043371D01*
X0071411Y0041837D01*
X0073247Y0041837D01*
X0073247Y0041163D01*
X0073921Y0041163D01*
X0073921Y0039228D01*
X0075178Y0039228D01*
X0075178Y0039190D01*
X0075296Y0039072D01*
X0073921Y0039964D02*
X0073247Y0039964D01*
X0073247Y0039228D02*
X0073247Y0041163D01*
X0071411Y0041163D01*
X0071411Y0039629D01*
X0071487Y0039445D01*
X0071628Y0039304D01*
X0071811Y0039228D01*
X0073247Y0039228D01*
X0071411Y0039964D02*
X0068236Y0039964D01*
X0068160Y0040963D02*
X0071411Y0040963D01*
X0071367Y0041500D02*
X0073584Y0041500D01*
X0073247Y0041961D02*
X0073921Y0041961D01*
X0073921Y0040963D02*
X0073247Y0040963D01*
X0073247Y0042960D02*
X0073921Y0042960D01*
X0071411Y0042960D02*
X0068160Y0042960D01*
X0068160Y0043958D02*
X0071342Y0043958D01*
X0070611Y0044957D02*
X0068160Y0044957D01*
X0067907Y0045955D02*
X0070611Y0045955D01*
X0070037Y0046954D02*
X0068465Y0046954D01*
X0070084Y0049000D02*
X0066367Y0049000D01*
X0070084Y0049000D02*
X0073584Y0047000D01*
X0078151Y0047000D02*
X0078151Y0041500D01*
X0071411Y0041961D02*
X0068160Y0041961D01*
X0066367Y0037248D02*
X0063769Y0037248D01*
X0063769Y0032402D01*
X0062367Y0031000D01*
X0066667Y0030978D02*
X0069911Y0030978D01*
X0069911Y0031976D02*
X0066667Y0031976D01*
X0066765Y0032975D02*
X0069826Y0032975D01*
X0069111Y0033973D02*
X0067181Y0033973D01*
X0068465Y0034972D02*
X0069111Y0034972D01*
X0070836Y0037248D02*
X0072084Y0036000D01*
X0070836Y0037248D02*
X0066367Y0037248D01*
X0063769Y0037248D02*
X0061171Y0037248D01*
X0058572Y0037248D01*
X0053198Y0040963D02*
X0052230Y0040963D01*
X0058572Y0048951D02*
X0058572Y0048951D01*
X0058572Y0049949D02*
X0058572Y0049949D01*
X0058572Y0050948D02*
X0058572Y0050948D01*
X0063367Y0055000D02*
X0063367Y0057500D01*
X0059889Y0057937D02*
X0070182Y0057937D01*
X0067497Y0055940D02*
X0067119Y0055940D01*
X0067119Y0054942D02*
X0067497Y0054942D01*
X0078521Y0051846D02*
X0078867Y0051500D01*
X0078151Y0047000D02*
X0086867Y0047000D01*
X0089367Y0049500D01*
X0089367Y0055000D01*
X0094367Y0060000D01*
X0103056Y0060000D01*
X0106380Y0056676D01*
X0105496Y0054942D02*
X0105372Y0054942D01*
X0105786Y0053943D02*
X0106495Y0053943D01*
X0105926Y0052945D02*
X0107493Y0052945D01*
X0107385Y0051946D02*
X0105926Y0051946D01*
X0105926Y0050948D02*
X0106386Y0050948D01*
X0108772Y0051946D02*
X0113728Y0051946D01*
X0114172Y0050948D02*
X0109771Y0050948D01*
X0108664Y0052945D02*
X0113133Y0052945D01*
X0112135Y0053943D02*
X0109662Y0053943D01*
X0110661Y0054942D02*
X0111136Y0054942D01*
X0114908Y0056500D02*
X0110556Y0060852D01*
X0109164Y0059460D02*
X0116124Y0052500D01*
X0116367Y0052500D01*
X0116867Y0056500D02*
X0114908Y0056500D01*
X0115017Y0058936D02*
X0115824Y0058936D01*
X0117911Y0058936D02*
X0128184Y0058936D01*
X0127111Y0061000D02*
X0129867Y0061000D01*
X0128050Y0062930D02*
X0127727Y0062930D01*
X0134219Y0067811D02*
X0137408Y0071000D01*
X0138867Y0071000D01*
X0140324Y0076909D02*
X0142788Y0076909D01*
X0141337Y0077908D02*
X0140439Y0077908D01*
X0144947Y0076909D02*
X0147788Y0076909D01*
X0160995Y0070918D02*
X0164404Y0070918D01*
X0165402Y0069920D02*
X0161993Y0069920D01*
X0162992Y0068921D02*
X0166401Y0068921D01*
X0167217Y0067923D02*
X0163990Y0067923D01*
X0171541Y0065926D02*
X0173882Y0065926D01*
X0173717Y0064927D02*
X0172645Y0064927D01*
X0173017Y0063929D02*
X0173943Y0063929D01*
X0174690Y0062930D02*
X0173000Y0062930D01*
X0172981Y0061932D02*
X0174051Y0061932D01*
X0175867Y0060000D02*
X0176117Y0060250D01*
X0175867Y0060000D02*
X0180178Y0060000D01*
X0185117Y0062750D02*
X0185367Y0065000D01*
X0185367Y0062500D01*
X0186367Y0061500D01*
X0185867Y0060059D01*
X0188939Y0059934D02*
X0189411Y0059934D01*
X0189496Y0058936D02*
X0188939Y0058936D01*
X0188734Y0057937D02*
X0189411Y0057937D01*
X0189411Y0056939D02*
X0188857Y0056939D01*
X0188939Y0055940D02*
X0189411Y0055940D01*
X0191247Y0055940D02*
X0191921Y0055940D01*
X0191921Y0056939D02*
X0191247Y0056939D01*
X0191247Y0057937D02*
X0191921Y0057937D01*
X0191921Y0058936D02*
X0191247Y0058936D01*
X0191247Y0059934D02*
X0191921Y0059934D01*
X0191247Y0060933D02*
X0188939Y0060933D01*
X0188939Y0061932D02*
X0189411Y0061932D01*
X0189435Y0062930D02*
X0187675Y0062930D01*
X0185367Y0062500D02*
X0185117Y0062750D01*
X0182867Y0065000D01*
X0180178Y0065000D01*
X0176367Y0065000D01*
X0174544Y0066924D02*
X0172290Y0066924D01*
X0171695Y0069920D02*
X0180053Y0069920D01*
X0180178Y0070000D02*
X0191308Y0070000D01*
X0191584Y0069724D01*
X0191584Y0065500D01*
X0191247Y0065926D02*
X0191921Y0065926D01*
X0191921Y0066924D02*
X0191247Y0066924D01*
X0191119Y0067923D02*
X0191497Y0067923D01*
X0191497Y0068921D02*
X0191119Y0068921D01*
X0191497Y0069811D02*
X0191497Y0070189D01*
X0193186Y0070189D01*
X0193186Y0071700D01*
X0193749Y0071700D01*
X0193749Y0068381D01*
X0193178Y0067810D01*
X0193178Y0067772D01*
X0192890Y0067772D01*
X0192970Y0067804D01*
X0193110Y0067945D01*
X0193186Y0068129D01*
X0193186Y0069811D01*
X0191497Y0069811D01*
X0191497Y0069920D02*
X0193749Y0069920D01*
X0193749Y0070918D02*
X0193186Y0070918D01*
X0191119Y0069920D02*
X0180304Y0069920D01*
X0180303Y0070918D02*
X0180053Y0070918D01*
X0183178Y0070918D02*
X0189430Y0070918D01*
X0189430Y0068921D02*
X0183178Y0068921D01*
X0180303Y0068921D02*
X0180053Y0068921D01*
X0184769Y0073914D02*
X0186408Y0073914D01*
X0185410Y0074912D02*
X0185124Y0074912D01*
X0185895Y0076972D02*
X0180084Y0076972D01*
X0178840Y0078217D01*
X0170867Y0078217D01*
X0173464Y0080903D02*
X0199096Y0080903D01*
X0198084Y0081500D02*
X0201367Y0079717D01*
X0201031Y0079380D02*
X0201704Y0079380D01*
X0201704Y0077543D01*
X0203186Y0077543D01*
X0203191Y0077507D01*
X0203685Y0077137D01*
X0204022Y0076800D01*
X0201495Y0076800D01*
X0200884Y0076887D01*
X0200767Y0076800D01*
X0200622Y0076800D01*
X0200185Y0076363D01*
X0199691Y0075993D01*
X0199691Y0077543D01*
X0201031Y0077543D01*
X0201031Y0079380D01*
X0201031Y0078906D02*
X0201704Y0078906D01*
X0201704Y0077908D02*
X0201031Y0077908D01*
X0199691Y0076909D02*
X0203913Y0076909D01*
X0204867Y0078500D02*
X0204867Y0082000D01*
X0203867Y0083000D01*
X0202651Y0083000D01*
X0201367Y0084283D01*
X0196395Y0084283D01*
X0194651Y0086028D01*
X0189611Y0085896D02*
X0185124Y0085896D01*
X0185124Y0086894D02*
X0189611Y0086894D01*
X0189611Y0087893D02*
X0185124Y0087893D01*
X0184964Y0088891D02*
X0189771Y0088891D01*
X0189611Y0084897D02*
X0185124Y0084897D01*
X0185124Y0083899D02*
X0189611Y0083899D01*
X0190034Y0082900D02*
X0184701Y0082900D01*
X0181367Y0081500D02*
X0181367Y0086500D01*
X0175044Y0084897D02*
X0172882Y0084897D01*
X0173139Y0083899D02*
X0175044Y0083899D01*
X0175467Y0082900D02*
X0171204Y0082900D01*
X0170867Y0082783D02*
X0172584Y0082783D01*
X0173867Y0081500D01*
X0181367Y0081500D01*
X0194867Y0081500D01*
X0194867Y0076500D01*
X0193867Y0076500D01*
X0189611Y0076909D02*
X0188504Y0076909D01*
X0189502Y0075911D02*
X0189611Y0075911D01*
X0189611Y0077908D02*
X0187505Y0077908D01*
X0185895Y0076972D02*
X0189367Y0073500D01*
X0199367Y0073500D01*
X0201367Y0075000D01*
X0208367Y0075000D01*
X0209446Y0073921D01*
X0209446Y0071850D01*
X0207478Y0071850D02*
X0201218Y0071850D01*
X0199867Y0070500D01*
X0196927Y0070500D01*
X0196427Y0070000D01*
X0193749Y0068921D02*
X0193186Y0068921D01*
X0193088Y0067923D02*
X0193290Y0067923D01*
X0196151Y0065500D02*
X0196151Y0062031D01*
X0196667Y0061516D01*
X0196151Y0061000D01*
X0196867Y0061000D01*
X0199367Y0063500D01*
X0198367Y0065500D02*
X0196151Y0065500D01*
X0198367Y0065500D02*
X0201367Y0068500D01*
X0201367Y0069000D01*
X0201757Y0069390D01*
X0205017Y0069390D01*
X0211415Y0071850D02*
X0211415Y0074953D01*
X0209367Y0077000D01*
X0206867Y0077000D01*
X0204867Y0078500D01*
X0206667Y0079905D02*
X0206796Y0079905D01*
X0206796Y0080903D02*
X0206667Y0080903D01*
X0206667Y0081902D02*
X0206796Y0081902D01*
X0206513Y0082900D02*
X0207268Y0082900D01*
X0207596Y0083899D02*
X0205514Y0083899D01*
X0205867Y0085000D02*
X0206584Y0084783D01*
X0209867Y0084783D01*
X0213867Y0084783D01*
X0214367Y0085283D01*
X0214867Y0084783D01*
X0218867Y0084783D01*
X0223367Y0084783D01*
X0225367Y0084783D01*
X0226367Y0088000D01*
X0225846Y0086894D02*
X0225389Y0086894D01*
X0223704Y0086894D02*
X0223031Y0086894D01*
X0223031Y0085896D02*
X0223704Y0085896D01*
X0223704Y0084897D02*
X0227531Y0084897D01*
X0227867Y0084783D02*
X0225367Y0084783D01*
X0223031Y0084897D02*
X0219204Y0084897D01*
X0218531Y0084897D02*
X0216639Y0084897D01*
X0218531Y0085896D02*
X0219204Y0085896D01*
X0219204Y0086894D02*
X0218531Y0086894D01*
X0216846Y0086894D02*
X0216639Y0086894D01*
X0214704Y0086894D02*
X0214031Y0086894D01*
X0214031Y0085896D02*
X0214704Y0085896D01*
X0212096Y0086894D02*
X0211889Y0086894D01*
X0210204Y0086894D02*
X0209531Y0086894D01*
X0209531Y0085896D02*
X0210204Y0085896D01*
X0210204Y0084897D02*
X0212096Y0084897D01*
X0209531Y0084897D02*
X0204439Y0084897D01*
X0204439Y0085896D02*
X0207596Y0085896D01*
X0207846Y0086894D02*
X0204040Y0086894D01*
X0199691Y0087893D02*
X0273739Y0087893D01*
X0273661Y0087815D02*
X0272367Y0084691D01*
X0272367Y0081309D01*
X0273661Y0078185D01*
X0276053Y0075794D01*
X0279177Y0074500D01*
X0282558Y0074500D01*
X0285682Y0075794D01*
X0288073Y0078185D01*
X0289367Y0081309D01*
X0289367Y0084691D01*
X0288073Y0087815D01*
X0285682Y0090206D01*
X0282558Y0091500D01*
X0279177Y0091500D01*
X0276053Y0090206D01*
X0273661Y0087815D01*
X0273280Y0086894D02*
X0229889Y0086894D01*
X0230139Y0085896D02*
X0272867Y0085896D01*
X0272453Y0084897D02*
X0241037Y0084897D01*
X0241124Y0083899D02*
X0272367Y0083899D01*
X0272367Y0082900D02*
X0241124Y0082900D01*
X0241124Y0081902D02*
X0272367Y0081902D01*
X0272536Y0080903D02*
X0241124Y0080903D01*
X0241654Y0079905D02*
X0272949Y0079905D01*
X0273363Y0078906D02*
X0242461Y0078906D01*
X0243814Y0077908D02*
X0244488Y0077908D01*
X0244488Y0076909D02*
X0243814Y0076909D01*
X0244151Y0076500D02*
X0244151Y0072000D01*
X0244151Y0067500D01*
X0246867Y0067500D01*
X0248867Y0068500D01*
X0246324Y0068921D02*
X0262096Y0068921D01*
X0262096Y0069920D02*
X0246223Y0069920D01*
X0246324Y0070918D02*
X0262096Y0070918D01*
X0262096Y0071917D02*
X0244488Y0071917D01*
X0244488Y0071663D02*
X0244488Y0069728D01*
X0244488Y0067837D01*
X0243814Y0067837D01*
X0243814Y0071663D01*
X0244488Y0071663D01*
X0244488Y0072337D02*
X0243814Y0072337D01*
X0243814Y0076163D01*
X0244488Y0076163D01*
X0244488Y0074228D01*
X0244488Y0072337D01*
X0244488Y0072915D02*
X0243814Y0072915D01*
X0243814Y0073914D02*
X0244488Y0073914D01*
X0244488Y0074912D02*
X0243814Y0074912D01*
X0243814Y0075911D02*
X0244488Y0075911D01*
X0244151Y0076500D02*
X0244151Y0083217D01*
X0241367Y0086000D01*
X0228084Y0086000D01*
X0227867Y0084783D01*
X0228204Y0084897D02*
X0230698Y0084897D01*
X0230611Y0083899D02*
X0230139Y0083899D01*
X0230467Y0082900D02*
X0230611Y0082900D01*
X0232367Y0081283D02*
X0233584Y0082500D01*
X0232367Y0081283D02*
X0232367Y0077500D01*
X0224257Y0069390D01*
X0223718Y0069390D01*
X0223718Y0067421D02*
X0225789Y0067421D01*
X0235367Y0077000D01*
X0235367Y0079000D01*
X0237367Y0080500D01*
X0237367Y0081217D01*
X0238151Y0082500D01*
X0239367Y0078500D02*
X0239584Y0078283D01*
X0239584Y0076500D01*
X0238867Y0075783D01*
X0238867Y0075500D01*
X0236367Y0075000D01*
X0226867Y0065500D01*
X0223765Y0065500D01*
X0223718Y0065453D01*
X0223734Y0063500D02*
X0227867Y0063500D01*
X0236367Y0072000D01*
X0239584Y0072000D01*
X0243814Y0070918D02*
X0244488Y0070918D01*
X0244488Y0069920D02*
X0243814Y0069920D01*
X0243814Y0068921D02*
X0244488Y0068921D01*
X0244488Y0067923D02*
X0243814Y0067923D01*
X0246324Y0067923D02*
X0251743Y0067923D01*
X0249808Y0065500D02*
X0254367Y0065559D01*
X0256992Y0067923D02*
X0261296Y0067923D01*
X0261296Y0066924D02*
X0257439Y0066924D01*
X0257439Y0065926D02*
X0261296Y0065926D01*
X0261296Y0064927D02*
X0257439Y0064927D01*
X0257439Y0063929D02*
X0261296Y0063929D01*
X0261871Y0062930D02*
X0256866Y0062930D01*
X0257439Y0061932D02*
X0262567Y0061932D01*
X0261753Y0060933D02*
X0257439Y0060933D01*
X0257439Y0059934D02*
X0261296Y0059934D01*
X0261296Y0058936D02*
X0257439Y0058936D01*
X0260997Y0057937D02*
X0261296Y0057937D01*
X0264367Y0058559D02*
X0264367Y0065717D01*
X0267439Y0065926D02*
X0281367Y0065926D01*
X0281867Y0066000D02*
X0277867Y0070000D01*
X0264651Y0070000D01*
X0264367Y0070283D01*
X0263151Y0071500D01*
X0258867Y0071500D01*
X0264031Y0071917D02*
X0264704Y0071917D01*
X0264704Y0070918D02*
X0264031Y0070918D01*
X0266639Y0070918D02*
X0289568Y0070918D01*
X0289568Y0069920D02*
X0266639Y0069920D01*
X0266639Y0068921D02*
X0273367Y0068921D01*
X0273367Y0069099D02*
X0273367Y0066500D01*
X0281367Y0066500D01*
X0281367Y0069500D01*
X0273768Y0069500D01*
X0273584Y0069424D01*
X0273444Y0069283D01*
X0273367Y0069099D01*
X0273367Y0067923D02*
X0267439Y0067923D01*
X0267439Y0066924D02*
X0273367Y0066924D01*
X0273367Y0064927D02*
X0267439Y0064927D01*
X0267439Y0063929D02*
X0273367Y0063929D01*
X0273367Y0062930D02*
X0266864Y0062930D01*
X0266167Y0061932D02*
X0289568Y0061932D01*
X0289568Y0060933D02*
X0271482Y0060933D01*
X0271939Y0059934D02*
X0289568Y0059934D01*
X0289568Y0058936D02*
X0271939Y0058936D01*
X0271939Y0057937D02*
X0276057Y0057937D01*
X0277867Y0056000D02*
X0271427Y0056000D01*
X0268867Y0053441D01*
X0271939Y0052945D02*
X0289568Y0052945D01*
X0289568Y0053943D02*
X0279559Y0053943D01*
X0280298Y0054942D02*
X0289568Y0054942D01*
X0289568Y0055940D02*
X0280517Y0055940D01*
X0280347Y0056939D02*
X0289568Y0056939D01*
X0289568Y0057937D02*
X0279678Y0057937D01*
X0276176Y0053943D02*
X0271939Y0053943D01*
X0271939Y0051946D02*
X0289568Y0051946D01*
X0289568Y0050948D02*
X0271362Y0050948D01*
X0273444Y0049283D02*
X0273584Y0049424D01*
X0273768Y0049500D01*
X0281367Y0049500D01*
X0281367Y0046500D01*
X0273367Y0046500D01*
X0273367Y0049099D01*
X0273444Y0049283D01*
X0273367Y0048951D02*
X0259104Y0048951D01*
X0259104Y0047952D02*
X0273367Y0047952D01*
X0273367Y0046954D02*
X0259104Y0046954D01*
X0259124Y0045955D02*
X0281367Y0045955D01*
X0281867Y0046000D02*
X0274867Y0039000D01*
X0263867Y0039000D01*
X0259151Y0039000D01*
X0258651Y0039500D01*
X0258651Y0035000D01*
X0258988Y0034972D02*
X0277901Y0034972D01*
X0275820Y0033973D02*
X0260824Y0033973D01*
X0260824Y0034663D02*
X0258988Y0034663D01*
X0258988Y0032728D01*
X0260424Y0032728D01*
X0260607Y0032804D01*
X0260748Y0032945D01*
X0260824Y0033129D01*
X0260824Y0034663D01*
X0258988Y0035337D02*
X0258314Y0035337D01*
X0258314Y0039163D01*
X0258988Y0039163D01*
X0258988Y0037228D01*
X0258988Y0035337D01*
X0258988Y0035970D02*
X0258314Y0035970D01*
X0258314Y0036969D02*
X0258988Y0036969D01*
X0258988Y0037967D02*
X0258314Y0037967D01*
X0258314Y0038966D02*
X0258988Y0038966D01*
X0254084Y0039500D02*
X0254084Y0035000D01*
X0245927Y0035000D01*
X0245651Y0035276D01*
X0245651Y0039500D01*
X0244151Y0043000D01*
X0244367Y0043000D01*
X0250808Y0044776D02*
X0251584Y0044000D01*
X0250808Y0044776D02*
X0251308Y0048500D01*
X0249808Y0047000D01*
X0243651Y0047000D01*
X0234867Y0045283D02*
X0234867Y0041059D01*
X0240808Y0039224D02*
X0240808Y0035000D01*
X0235808Y0035000D01*
X0234867Y0035941D01*
X0231847Y0033973D02*
X0187560Y0033973D01*
X0187560Y0034575D02*
X0184698Y0034575D01*
X0187560Y0034575D01*
X0188334Y0032975D02*
X0238130Y0032975D01*
X0238844Y0031976D02*
X0188360Y0031976D01*
X0188360Y0030978D02*
X0249613Y0030978D01*
X0249199Y0029979D02*
X0188360Y0029979D01*
X0184698Y0034575D02*
X0184698Y0034575D01*
X0184698Y0034972D02*
X0184698Y0034972D01*
X0184698Y0035970D02*
X0184698Y0035970D01*
X0184698Y0036969D02*
X0184698Y0036969D01*
X0191678Y0037967D02*
X0192056Y0037967D01*
X0192056Y0038966D02*
X0191678Y0038966D01*
X0194119Y0038966D02*
X0194615Y0038966D01*
X0194596Y0038918D02*
X0194596Y0037630D01*
X0196678Y0037630D01*
X0196678Y0039319D01*
X0194996Y0039319D01*
X0194813Y0039243D01*
X0194672Y0039102D01*
X0194596Y0038918D01*
X0194596Y0037967D02*
X0194139Y0037967D01*
X0194139Y0036969D02*
X0194596Y0036969D01*
X0194596Y0035970D02*
X0194139Y0035970D01*
X0196678Y0035970D02*
X0197056Y0035970D01*
X0197056Y0036969D02*
X0196678Y0036969D01*
X0196678Y0037967D02*
X0197056Y0037967D01*
X0197056Y0038966D02*
X0196678Y0038966D01*
X0194474Y0039964D02*
X0194261Y0039964D01*
X0199261Y0039964D02*
X0205096Y0039964D01*
X0207178Y0039964D02*
X0207556Y0039964D01*
X0212367Y0043783D02*
X0216867Y0043783D01*
X0216867Y0044000D01*
X0214367Y0046500D01*
X0213383Y0047516D02*
X0212367Y0046500D01*
X0212367Y0043783D01*
X0216367Y0044283D02*
X0216867Y0043783D01*
X0216367Y0044283D02*
X0216367Y0047500D01*
X0215352Y0048516D01*
X0215352Y0053150D01*
X0217320Y0053150D02*
X0217320Y0049547D01*
X0221367Y0045500D01*
X0221367Y0044059D01*
X0219330Y0040963D02*
X0223405Y0040963D01*
X0221556Y0039964D02*
X0221178Y0039964D01*
X0221178Y0037967D02*
X0221556Y0037967D01*
X0217204Y0037967D02*
X0216531Y0037967D01*
X0225867Y0043783D02*
X0225867Y0046500D01*
X0224367Y0048000D01*
X0224367Y0048500D01*
X0221867Y0048500D01*
X0219289Y0051079D01*
X0219289Y0053150D01*
X0214867Y0056123D02*
X0214569Y0056123D01*
X0214367Y0055922D01*
X0214166Y0056123D01*
X0213867Y0056123D01*
X0213867Y0056957D01*
X0214146Y0056882D01*
X0214367Y0056882D01*
X0214367Y0058563D01*
X0214367Y0060244D01*
X0214146Y0060244D01*
X0213867Y0060169D01*
X0213867Y0060894D01*
X0214146Y0060819D01*
X0214367Y0060819D01*
X0214367Y0062000D01*
X0214367Y0062000D01*
X0214367Y0060819D01*
X0214589Y0060819D01*
X0214867Y0060894D01*
X0214867Y0060169D01*
X0214589Y0060244D01*
X0214367Y0060244D01*
X0214367Y0058563D01*
X0214367Y0058563D01*
X0214367Y0058563D01*
X0214367Y0056882D01*
X0214589Y0056882D01*
X0214867Y0056957D01*
X0214867Y0056123D01*
X0214386Y0055940D02*
X0214349Y0055940D01*
X0214367Y0056939D02*
X0214367Y0056939D01*
X0213933Y0056939D02*
X0213867Y0056939D01*
X0214802Y0056939D02*
X0214867Y0056939D01*
X0214367Y0057937D02*
X0214367Y0057937D01*
X0214367Y0058936D02*
X0214367Y0058936D01*
X0214367Y0059934D02*
X0214367Y0059934D01*
X0214367Y0060933D02*
X0214367Y0060933D01*
X0214367Y0061932D02*
X0214367Y0061932D01*
X0213867Y0062500D02*
X0212686Y0062500D01*
X0212686Y0062279D01*
X0212761Y0062000D01*
X0212037Y0062000D01*
X0212112Y0062279D01*
X0212112Y0062500D01*
X0212112Y0062721D01*
X0212037Y0063000D01*
X0212761Y0063000D01*
X0212686Y0062721D01*
X0212686Y0062500D01*
X0213867Y0062500D01*
X0213867Y0062500D01*
X0214367Y0063000D02*
X0214367Y0064181D01*
X0214146Y0064181D01*
X0213867Y0064106D01*
X0213867Y0064831D01*
X0214146Y0064756D01*
X0214367Y0064756D01*
X0214367Y0066437D01*
X0214367Y0068118D01*
X0214146Y0068118D01*
X0213867Y0068043D01*
X0213867Y0068877D01*
X0214166Y0068877D01*
X0214367Y0069078D01*
X0214569Y0068877D01*
X0214867Y0068877D01*
X0214867Y0068043D01*
X0214589Y0068118D01*
X0214367Y0068118D01*
X0214367Y0066437D01*
X0214367Y0066437D01*
X0214367Y0066437D01*
X0214367Y0064756D01*
X0214589Y0064756D01*
X0214867Y0064831D01*
X0214867Y0064106D01*
X0214589Y0064181D01*
X0214367Y0064181D01*
X0214367Y0063000D01*
X0214367Y0063000D01*
X0214867Y0062500D02*
X0216049Y0062500D01*
X0216049Y0062721D01*
X0215974Y0063000D01*
X0216698Y0063000D01*
X0216623Y0062721D01*
X0216623Y0062500D01*
X0216623Y0062279D01*
X0216698Y0062000D01*
X0215974Y0062000D01*
X0216049Y0062279D01*
X0216049Y0062500D01*
X0214867Y0062500D01*
X0214867Y0062500D01*
X0215993Y0062930D02*
X0216679Y0062930D01*
X0216623Y0062500D02*
X0218304Y0062500D01*
X0216623Y0062500D01*
X0218304Y0062500D02*
X0218304Y0062500D01*
X0218305Y0062500D02*
X0219986Y0062500D01*
X0219986Y0062721D01*
X0219911Y0063000D01*
X0220745Y0063000D01*
X0220745Y0062701D01*
X0220946Y0062500D01*
X0220745Y0062299D01*
X0220745Y0062000D01*
X0219911Y0062000D01*
X0219986Y0062279D01*
X0219986Y0062500D01*
X0218305Y0062500D01*
X0218305Y0062500D01*
X0219930Y0062930D02*
X0220745Y0062930D01*
X0223718Y0063484D02*
X0223734Y0063500D01*
X0223718Y0061516D02*
X0223734Y0061500D01*
X0228867Y0061500D01*
X0231927Y0064559D01*
X0233867Y0064059D01*
X0234427Y0063000D01*
X0239308Y0063000D01*
X0239084Y0063276D01*
X0239584Y0067500D01*
X0243651Y0062724D02*
X0244427Y0063000D01*
X0245367Y0063000D01*
X0247867Y0065500D01*
X0249808Y0065500D01*
X0246746Y0066924D02*
X0246324Y0066924D01*
X0248613Y0063700D02*
X0249076Y0063700D01*
X0249086Y0063690D01*
X0249820Y0063700D01*
X0250554Y0063700D01*
X0250564Y0063710D01*
X0251296Y0063719D01*
X0251296Y0063643D01*
X0251938Y0063000D01*
X0251296Y0062357D01*
X0251296Y0062241D01*
X0251063Y0062241D01*
X0249122Y0060300D01*
X0248067Y0059246D01*
X0248067Y0053746D01*
X0246622Y0052300D01*
X0246304Y0052300D01*
X0246304Y0053811D01*
X0244616Y0053811D01*
X0244616Y0054189D01*
X0246304Y0054189D01*
X0246304Y0055428D01*
X0246363Y0055428D01*
X0247124Y0056190D01*
X0247124Y0060810D01*
X0247104Y0060830D01*
X0247104Y0062191D01*
X0248613Y0063700D01*
X0247843Y0062930D02*
X0251868Y0062930D01*
X0250753Y0061932D02*
X0247104Y0061932D01*
X0247104Y0060933D02*
X0249755Y0060933D01*
X0248756Y0059934D02*
X0247124Y0059934D01*
X0247124Y0058936D02*
X0248067Y0058936D01*
X0248067Y0057937D02*
X0247124Y0057937D01*
X0247124Y0056939D02*
X0248067Y0056939D01*
X0248067Y0055940D02*
X0246875Y0055940D01*
X0246304Y0054942D02*
X0248067Y0054942D01*
X0248067Y0053943D02*
X0244616Y0053943D01*
X0244427Y0054000D02*
X0244927Y0055000D01*
X0246867Y0054000D01*
X0247267Y0052945D02*
X0246304Y0052945D01*
X0244237Y0053811D02*
X0242549Y0053811D01*
X0242549Y0052300D01*
X0241986Y0052300D01*
X0241986Y0055428D01*
X0242549Y0055428D01*
X0242549Y0054189D01*
X0244237Y0054189D01*
X0244237Y0053811D01*
X0244237Y0053943D02*
X0241986Y0053943D01*
X0241986Y0052945D02*
X0242549Y0052945D01*
X0239308Y0054000D02*
X0239084Y0054276D01*
X0239584Y0058500D01*
X0238525Y0057941D01*
X0233867Y0058941D01*
X0231927Y0058941D01*
X0231367Y0059500D01*
X0223765Y0059500D01*
X0223718Y0059547D01*
X0214367Y0063929D02*
X0214367Y0063929D01*
X0214367Y0064927D02*
X0214367Y0064927D01*
X0214367Y0065926D02*
X0214367Y0065926D01*
X0214367Y0066924D02*
X0214367Y0066924D01*
X0214367Y0067923D02*
X0214367Y0067923D01*
X0214210Y0068921D02*
X0214525Y0068921D01*
X0215352Y0071850D02*
X0215352Y0077016D01*
X0214367Y0078000D01*
X0217367Y0078000D01*
X0217320Y0077953D01*
X0217320Y0071850D01*
X0217320Y0075953D01*
X0218867Y0077500D01*
X0218867Y0080217D01*
X0214367Y0080717D02*
X0214367Y0078000D01*
X0213367Y0076000D02*
X0213367Y0071866D01*
X0213383Y0071850D01*
X0219289Y0071850D02*
X0219289Y0073921D01*
X0223367Y0078000D01*
X0223367Y0080217D01*
X0226367Y0077000D02*
X0227867Y0078500D01*
X0228867Y0079000D01*
X0227867Y0078500D02*
X0227867Y0080217D01*
X0226367Y0077000D02*
X0225907Y0076500D01*
X0221257Y0071850D01*
X0213367Y0076000D02*
X0209867Y0079500D01*
X0209867Y0080217D01*
X0198466Y0081902D02*
X0173139Y0081902D01*
X0184896Y0079905D02*
X0189839Y0079905D01*
X0189611Y0078906D02*
X0185124Y0078906D01*
X0194867Y0081500D02*
X0198084Y0081500D01*
X0199531Y0088891D02*
X0274738Y0088891D01*
X0275736Y0089890D02*
X0021498Y0089890D01*
X0019535Y0090888D02*
X0277700Y0090888D01*
X0284035Y0090888D02*
X0289568Y0090888D01*
X0289568Y0089890D02*
X0285998Y0089890D01*
X0286997Y0088891D02*
X0289568Y0088891D01*
X0289568Y0087893D02*
X0287995Y0087893D01*
X0288455Y0086894D02*
X0289568Y0086894D01*
X0289568Y0085896D02*
X0288868Y0085896D01*
X0289282Y0084897D02*
X0289568Y0084897D01*
X0289568Y0083899D02*
X0289367Y0083899D01*
X0289367Y0082900D02*
X0289568Y0082900D01*
X0289568Y0081902D02*
X0289367Y0081902D01*
X0289199Y0080903D02*
X0289568Y0080903D01*
X0289568Y0079905D02*
X0288786Y0079905D01*
X0288372Y0078906D02*
X0289568Y0078906D01*
X0289568Y0077908D02*
X0287796Y0077908D01*
X0286797Y0076909D02*
X0289568Y0076909D01*
X0289568Y0075911D02*
X0285799Y0075911D01*
X0283553Y0074912D02*
X0289568Y0074912D01*
X0289568Y0073914D02*
X0246307Y0073914D01*
X0246324Y0074912D02*
X0278182Y0074912D01*
X0275936Y0075911D02*
X0246324Y0075911D01*
X0246324Y0076909D02*
X0274937Y0076909D01*
X0273939Y0077908D02*
X0246324Y0077908D01*
X0239367Y0078500D02*
X0239367Y0077000D01*
X0246324Y0072915D02*
X0289568Y0072915D01*
X0289568Y0071917D02*
X0266639Y0071917D01*
X0281367Y0068921D02*
X0282367Y0068921D01*
X0282367Y0067923D02*
X0281367Y0067923D01*
X0281367Y0066924D02*
X0282367Y0066924D01*
X0282367Y0064927D02*
X0281367Y0064927D01*
X0281367Y0063929D02*
X0282367Y0063929D01*
X0282367Y0062930D02*
X0281367Y0062930D01*
X0268867Y0058559D02*
X0264367Y0058559D01*
X0264367Y0053441D02*
X0257210Y0053441D01*
X0259984Y0050948D02*
X0261872Y0050948D01*
X0259866Y0049949D02*
X0289568Y0049949D01*
X0282367Y0048951D02*
X0281367Y0048951D01*
X0281367Y0047952D02*
X0282367Y0047952D01*
X0282367Y0046954D02*
X0281367Y0046954D01*
X0281367Y0044957D02*
X0282367Y0044957D01*
X0282367Y0043958D02*
X0281367Y0043958D01*
X0281367Y0042960D02*
X0282367Y0042960D01*
X0273367Y0044957D02*
X0259124Y0044957D01*
X0241084Y0039500D02*
X0240808Y0039224D01*
X0248604Y0032975D02*
X0251111Y0032975D01*
X0250501Y0031976D02*
X0247891Y0031976D01*
X0243962Y0031976D02*
X0242773Y0031976D01*
X0255831Y0030978D02*
X0273315Y0030978D01*
X0272901Y0029979D02*
X0256244Y0029979D01*
X0256297Y0028981D02*
X0272488Y0028981D01*
X0272367Y0027982D02*
X0256111Y0027982D01*
X0255619Y0026984D02*
X0272367Y0026984D01*
X0272367Y0025985D02*
X0254442Y0025985D01*
X0256344Y0031976D02*
X0273823Y0031976D01*
X0274821Y0032975D02*
X0260760Y0032975D01*
X0258988Y0032975D02*
X0258314Y0032975D01*
X0258314Y0033973D02*
X0258988Y0033973D01*
X0213383Y0047516D02*
X0213383Y0053150D01*
X0205017Y0059547D02*
X0201415Y0059547D01*
X0198367Y0056500D01*
X0196151Y0056500D01*
X0196667Y0061516D02*
X0205017Y0061516D01*
X0207789Y0062500D02*
X0207990Y0062701D01*
X0207990Y0063000D01*
X0208824Y0063000D01*
X0208749Y0062721D01*
X0208749Y0062500D01*
X0208749Y0062279D01*
X0208824Y0062000D01*
X0207990Y0062000D01*
X0207990Y0062299D01*
X0207789Y0062500D01*
X0207990Y0062930D02*
X0208805Y0062930D01*
X0208749Y0062500D02*
X0210430Y0062500D01*
X0208749Y0062500D01*
X0210430Y0062500D02*
X0210430Y0062500D01*
X0210431Y0062500D02*
X0212112Y0062500D01*
X0210431Y0062500D01*
X0210431Y0062500D01*
X0212056Y0062930D02*
X0212742Y0062930D01*
X0191921Y0062930D02*
X0191247Y0062930D01*
X0191247Y0061932D02*
X0191921Y0061932D01*
X0191921Y0063929D02*
X0191247Y0063929D01*
X0191247Y0064927D02*
X0191921Y0064927D01*
X0175044Y0075911D02*
X0173845Y0075911D01*
X0162310Y0087893D02*
X0160425Y0087893D01*
X0157310Y0087893D02*
X0155425Y0087893D01*
X0152310Y0087893D02*
X0150425Y0087893D01*
X0147310Y0087893D02*
X0145425Y0087893D01*
X0142310Y0087893D02*
X0137520Y0087893D01*
X0138519Y0086894D02*
X0141139Y0086894D01*
X0140701Y0085896D02*
X0140439Y0085896D01*
X0142927Y0084059D02*
X0143867Y0085000D01*
X0111234Y0074912D02*
X0108299Y0074912D01*
X0109298Y0073914D02*
X0111067Y0073914D01*
X0111067Y0072915D02*
X0110204Y0072915D01*
X0110190Y0071917D02*
X0111067Y0071917D01*
X0110495Y0070918D02*
X0111863Y0070918D01*
X0112862Y0069920D02*
X0110667Y0069920D01*
X0110667Y0068921D02*
X0112611Y0068921D01*
X0112346Y0067923D02*
X0111598Y0067923D01*
X0112835Y0066924D02*
X0112835Y0066924D01*
X0114832Y0064927D02*
X0114832Y0064927D01*
X0115831Y0063929D02*
X0115831Y0063929D01*
X0107772Y0058068D02*
X0102840Y0063000D01*
X0092755Y0060933D02*
X0079624Y0060933D01*
X0078869Y0059934D02*
X0083820Y0059934D01*
X0085915Y0059934D02*
X0091756Y0059934D01*
X0090758Y0058936D02*
X0087141Y0058936D01*
X0087517Y0057937D02*
X0089759Y0057937D01*
X0088761Y0056939D02*
X0088679Y0056939D01*
X0084867Y0057500D02*
X0084867Y0054846D01*
X0085214Y0054500D01*
X0090365Y0047952D02*
X0091154Y0047952D01*
X0091919Y0046954D02*
X0089367Y0046954D01*
X0088368Y0045955D02*
X0092917Y0045955D01*
X0091735Y0039964D02*
X0090940Y0039964D01*
X0091566Y0038966D02*
X0092734Y0038966D01*
X0091102Y0037967D02*
X0090567Y0037967D01*
X0090548Y0037967D02*
X0090014Y0037967D01*
X0098003Y0033973D02*
X0102067Y0033973D01*
X0102067Y0034972D02*
X0099002Y0034972D01*
X0100000Y0035970D02*
X0102067Y0035970D01*
X0102067Y0036969D02*
X0100999Y0036969D01*
X0101997Y0037967D02*
X0102067Y0037967D01*
X0106867Y0039500D02*
X0106867Y0040500D01*
X0106867Y0039500D02*
X0107867Y0038500D01*
X0110476Y0038500D01*
X0113340Y0041364D01*
X0114732Y0039973D02*
X0117867Y0043108D01*
X0117367Y0045000D01*
X0114895Y0045955D02*
X0114334Y0045955D01*
X0114334Y0046385D02*
X0112793Y0047926D01*
X0112793Y0047926D01*
X0113765Y0046954D02*
X0115574Y0046954D01*
X0114334Y0046385D02*
X0114334Y0045308D01*
X0114306Y0045281D01*
X0114389Y0045198D01*
X0111948Y0042757D01*
X0111948Y0042756D01*
X0112151Y0042960D02*
X0112152Y0042960D01*
X0113150Y0043958D02*
X0113150Y0043958D01*
X0114148Y0044957D02*
X0114149Y0044957D01*
X0120367Y0042824D02*
X0116124Y0038581D01*
X0117516Y0037189D02*
X0121327Y0041000D01*
X0123367Y0041000D01*
X0120367Y0042824D02*
X0121367Y0044000D01*
X0135014Y0041961D02*
X0135014Y0041961D01*
X0136013Y0040963D02*
X0136013Y0040963D01*
X0135611Y0038581D02*
X0138867Y0035324D01*
X0129460Y0030978D02*
X0122274Y0030978D01*
X0121276Y0029979D02*
X0130459Y0029979D01*
X0128462Y0031976D02*
X0123273Y0031976D01*
X0124271Y0032975D02*
X0127463Y0032975D01*
X0126465Y0033973D02*
X0125270Y0033973D01*
X0126196Y0034972D02*
X0126266Y0034972D01*
X0118908Y0035797D02*
X0116111Y0033000D01*
X0113867Y0033000D01*
X0111367Y0034500D01*
X0110367Y0034500D01*
X0118420Y0029979D02*
X0118711Y0029979D01*
X0147043Y0048324D02*
X0148367Y0047000D01*
X0159580Y0047000D01*
X0159867Y0049500D02*
X0148867Y0049500D01*
X0147043Y0048324D02*
X0145355Y0048324D01*
X0159867Y0049500D02*
X0164867Y0044500D01*
X0178808Y0044500D01*
X0180308Y0046000D01*
X0180367Y0046941D01*
X0180367Y0041268D01*
X0177630Y0046954D02*
X0164959Y0046954D01*
X0161018Y0034972D02*
X0160037Y0034972D01*
X0241986Y0054942D02*
X0242549Y0054942D01*
X0244151Y0058500D02*
X0243651Y0062724D01*
X0228204Y0085896D02*
X0227531Y0085896D01*
X0227531Y0086894D02*
X0228204Y0086894D01*
X0221346Y0086894D02*
X0220889Y0086894D01*
X0289568Y0091887D02*
X0007367Y0091887D01*
X0007367Y0090888D02*
X0013200Y0090888D01*
X0011236Y0089890D02*
X0007367Y0089890D01*
X0007367Y0088891D02*
X0010238Y0088891D01*
X0009239Y0087893D02*
X0007367Y0087893D01*
X0007367Y0086894D02*
X0008780Y0086894D01*
X0008367Y0085896D02*
X0007367Y0085896D01*
X0007367Y0084897D02*
X0007953Y0084897D01*
X0007867Y0083899D02*
X0007367Y0083899D01*
X0007367Y0082900D02*
X0007867Y0082900D01*
X0007867Y0081902D02*
X0007367Y0081902D01*
X0007367Y0080903D02*
X0008036Y0080903D01*
X0008449Y0079905D02*
X0007367Y0079905D01*
X0007367Y0078906D02*
X0008863Y0078906D01*
X0009439Y0077908D02*
X0007367Y0077908D01*
X0007367Y0076909D02*
X0010437Y0076909D01*
X0011436Y0075911D02*
X0007367Y0075911D01*
X0007367Y0074912D02*
X0013682Y0074912D01*
X0019053Y0074912D02*
X0029084Y0074912D01*
X0028717Y0073914D02*
X0007367Y0073914D01*
X0007367Y0072915D02*
X0027737Y0072915D01*
X0026738Y0071917D02*
X0007367Y0071917D01*
X0007367Y0070918D02*
X0025740Y0070918D01*
X0026367Y0069000D02*
X0016367Y0069000D01*
X0011367Y0064000D01*
X0011367Y0059965D01*
X0009643Y0058240D01*
X0012912Y0057937D02*
X0015823Y0057937D01*
X0015823Y0056939D02*
X0012912Y0056939D01*
X0012528Y0055940D02*
X0015823Y0055940D01*
X0015264Y0054942D02*
X0012112Y0054942D01*
X0012367Y0054500D02*
X0012867Y0054000D01*
X0012367Y0054500D02*
X0009643Y0054500D01*
X0012112Y0053943D02*
X0014265Y0053943D01*
X0013267Y0052945D02*
X0012643Y0052945D01*
X0014367Y0051500D02*
X0014367Y0049000D01*
X0016367Y0047000D01*
X0022867Y0047000D01*
X0024367Y0048500D01*
X0024367Y0049705D01*
X0025367Y0050705D01*
X0025367Y0053303D02*
X0025367Y0055902D01*
X0025367Y0058000D01*
X0025367Y0058500D01*
X0025867Y0059000D01*
X0028367Y0061500D01*
X0028367Y0062500D01*
X0022302Y0064927D02*
X0014840Y0064927D01*
X0013842Y0063929D02*
X0021091Y0063929D01*
X0020717Y0062930D02*
X0013167Y0062930D01*
X0013167Y0061932D02*
X0020735Y0061932D01*
X0020867Y0060933D02*
X0013167Y0060933D01*
X0013167Y0059934D02*
X0015823Y0059934D01*
X0015823Y0058936D02*
X0012912Y0058936D01*
X0009567Y0060933D02*
X0007367Y0060933D01*
X0007367Y0061932D02*
X0009567Y0061932D01*
X0009567Y0062930D02*
X0007367Y0062930D01*
X0007367Y0063929D02*
X0009567Y0063929D01*
X0009749Y0064927D02*
X0007367Y0064927D01*
X0007367Y0065926D02*
X0010747Y0065926D01*
X0011746Y0066924D02*
X0007367Y0066924D01*
X0007367Y0067923D02*
X0012744Y0067923D01*
X0013743Y0068921D02*
X0007367Y0068921D01*
X0007367Y0069920D02*
X0014741Y0069920D01*
X0016837Y0066924D02*
X0030589Y0066924D01*
X0031791Y0067923D02*
X0027836Y0067923D01*
X0028834Y0068921D02*
X0034267Y0068921D01*
X0034267Y0067923D02*
X0033944Y0067923D01*
X0034267Y0069920D02*
X0029833Y0069920D01*
X0032059Y0070918D02*
X0034267Y0070918D01*
X0034267Y0071917D02*
X0033532Y0071917D01*
X0033994Y0072915D02*
X0034267Y0072915D01*
X0034267Y0073914D02*
X0034017Y0073914D01*
X0034267Y0074912D02*
X0033651Y0074912D01*
X0034680Y0075911D02*
X0032472Y0075911D01*
X0030263Y0075911D02*
X0021299Y0075911D01*
X0022297Y0076909D02*
X0035271Y0076909D01*
X0036270Y0077908D02*
X0023296Y0077908D01*
X0023872Y0078906D02*
X0037268Y0078906D01*
X0038267Y0079905D02*
X0024286Y0079905D01*
X0024699Y0080903D02*
X0039265Y0080903D01*
X0040264Y0081902D02*
X0024867Y0081902D01*
X0024867Y0082900D02*
X0041263Y0082900D01*
X0056306Y0082900D02*
X0058429Y0082900D01*
X0058067Y0081902D02*
X0056667Y0081902D01*
X0056667Y0080903D02*
X0058067Y0080903D01*
X0058067Y0079905D02*
X0056967Y0079905D01*
X0056967Y0078906D02*
X0058067Y0078906D01*
X0058067Y0077908D02*
X0056894Y0077908D01*
X0056667Y0076909D02*
X0058028Y0076909D01*
X0056942Y0075911D02*
X0056667Y0075911D01*
X0056270Y0074912D02*
X0056118Y0074912D01*
X0056270Y0073914D02*
X0045286Y0073914D01*
X0043467Y0070918D02*
X0051538Y0070918D01*
X0050880Y0069920D02*
X0043467Y0069920D01*
X0043467Y0068921D02*
X0050163Y0068921D01*
X0049749Y0067923D02*
X0049186Y0067923D01*
X0049186Y0068068D02*
X0049186Y0066484D01*
X0047005Y0066484D01*
X0047005Y0068468D01*
X0048786Y0068468D01*
X0048970Y0068392D01*
X0049110Y0068252D01*
X0049186Y0068068D01*
X0049186Y0066924D02*
X0049749Y0066924D01*
X0047005Y0066924D02*
X0046037Y0066924D01*
X0046037Y0066484D02*
X0046037Y0068468D01*
X0044256Y0068468D01*
X0044072Y0068392D01*
X0043932Y0068252D01*
X0043856Y0068068D01*
X0043856Y0066484D01*
X0046037Y0066484D01*
X0046367Y0066154D02*
X0046521Y0066000D01*
X0047367Y0064154D01*
X0046037Y0065926D02*
X0043467Y0065926D01*
X0043467Y0066924D02*
X0043856Y0066924D01*
X0043856Y0067923D02*
X0043467Y0067923D01*
X0046037Y0067923D02*
X0047005Y0067923D01*
X0046367Y0069500D02*
X0046367Y0066154D01*
X0043856Y0064927D02*
X0043467Y0064927D01*
X0043467Y0063929D02*
X0043857Y0063929D01*
X0028690Y0065926D02*
X0015839Y0065926D01*
X0026367Y0069000D02*
X0030867Y0073500D01*
X0031367Y0073500D01*
X0025367Y0058500D02*
X0019352Y0058500D01*
X0019092Y0058240D01*
X0019092Y0054500D02*
X0017367Y0054500D01*
X0014367Y0051500D01*
X0012869Y0047952D02*
X0007367Y0047952D01*
X0007367Y0046954D02*
X0013868Y0046954D01*
X0014867Y0045955D02*
X0010364Y0045955D01*
X0011632Y0044957D02*
X0031942Y0044957D01*
X0031528Y0045955D02*
X0024368Y0045955D01*
X0025367Y0046954D02*
X0031267Y0046954D01*
X0031267Y0047952D02*
X0026167Y0047952D01*
X0028198Y0048951D02*
X0029220Y0048951D01*
X0032357Y0043958D02*
X0032904Y0043958D01*
X0008370Y0045955D02*
X0007367Y0045955D01*
X0066667Y0029979D02*
X0069911Y0029979D01*
X0069911Y0028981D02*
X0066667Y0028981D01*
X0066667Y0027982D02*
X0073885Y0027982D01*
X0072421Y0028981D02*
X0071747Y0028981D01*
X0071747Y0029979D02*
X0072421Y0029979D01*
X0072084Y0030500D02*
X0069867Y0028283D01*
X0070367Y0027500D01*
X0071747Y0030978D02*
X0072421Y0030978D01*
X0072421Y0031976D02*
X0071747Y0031976D01*
X0044127Y0020993D02*
X0042407Y0020993D01*
D34*
X0045867Y0023000D03*
X0064367Y0021500D03*
X0070367Y0027500D03*
X0081367Y0031000D03*
X0080867Y0037000D03*
X0071367Y0041500D03*
X0078867Y0051500D03*
X0084867Y0057500D03*
X0078367Y0059000D03*
X0071867Y0060000D03*
X0065867Y0057500D03*
X0063367Y0057500D03*
X0060867Y0057500D03*
X0060867Y0055000D03*
X0058367Y0055000D03*
X0058367Y0052500D03*
X0060867Y0052500D03*
X0063367Y0052500D03*
X0063367Y0055000D03*
X0055367Y0061500D03*
X0049867Y0055000D03*
X0030867Y0063500D03*
X0028367Y0062500D03*
X0025867Y0062500D03*
X0023367Y0062500D03*
X0032867Y0065500D03*
X0046367Y0069500D03*
X0053367Y0069000D03*
X0070367Y0067500D03*
X0079867Y0074000D03*
X0086867Y0078000D03*
X0098867Y0079000D03*
X0108867Y0076500D03*
X0116867Y0074000D03*
X0122867Y0074500D03*
X0131867Y0076500D03*
X0138867Y0071000D03*
X0143367Y0070500D03*
X0165367Y0068000D03*
X0169867Y0068000D03*
X0176367Y0065000D03*
X0170367Y0063500D03*
X0176117Y0060250D03*
X0185367Y0065000D03*
X0188367Y0063500D03*
X0199367Y0063500D03*
X0190867Y0054500D03*
X0202367Y0048000D03*
X0207367Y0048500D03*
X0214367Y0046500D03*
X0225867Y0046500D03*
X0244367Y0043000D03*
X0263867Y0039000D03*
X0246867Y0054000D03*
X0277867Y0056000D03*
X0248867Y0068500D03*
X0258867Y0071500D03*
X0239367Y0078500D03*
X0228867Y0079000D03*
X0217367Y0078000D03*
X0205867Y0085000D03*
X0194867Y0081500D03*
X0170867Y0086500D03*
X0226367Y0088000D03*
X0152367Y0060000D03*
X0163367Y0055500D03*
X0170367Y0047500D03*
X0154367Y0041500D03*
X0170367Y0040000D03*
X0170367Y0034500D03*
X0158867Y0033500D03*
X0162367Y0025500D03*
X0173867Y0021500D03*
X0183367Y0021000D03*
X0189367Y0024000D03*
X0190867Y0034500D03*
X0187867Y0043500D03*
X0139867Y0021000D03*
X0135367Y0029000D03*
X0122867Y0029500D03*
X0111867Y0031000D03*
X0110367Y0034500D03*
X0106867Y0040500D03*
X0117367Y0045000D03*
X0121367Y0044000D03*
X0123367Y0041000D03*
X0126367Y0039000D03*
X0127367Y0051000D03*
X0124367Y0051000D03*
X0124367Y0054000D03*
X0127367Y0054000D03*
X0133867Y0056500D03*
X0129867Y0061000D03*
X0116867Y0056500D03*
X0116367Y0052500D03*
X0100867Y0066500D03*
X0071367Y0086500D03*
X0038867Y0086500D03*
X0031367Y0073500D03*
X0012867Y0054000D03*
X0029367Y0046500D03*
X0031367Y0041500D03*
X0009367Y0043500D03*
X0043867Y0031000D03*
X0092367Y0031500D03*
X0160367Y0019500D03*
D35*
X0052367Y0031000D02*
X0052119Y0031000D01*
X0037119Y0046000D01*
X0036867Y0046500D02*
X0035867Y0047500D01*
X0035867Y0056000D01*
X0037119Y0058500D02*
X0038867Y0060248D01*
X0038867Y0074000D01*
X0043867Y0079000D01*
X0052367Y0079000D01*
D36*
X0032867Y0065500D02*
X0030867Y0063500D01*
X0029867Y0062500D01*
X0028367Y0062500D01*
X0025867Y0062500D01*
X0025367Y0062000D01*
X0025367Y0058000D01*
X0025867Y0057500D01*
X0025867Y0054000D01*
X0024867Y0054000D01*
X0024867Y0060500D01*
X0025867Y0061500D01*
X0027867Y0061500D01*
X0025867Y0059500D01*
X0025867Y0059000D01*
X0023367Y0059000D01*
X0023367Y0062500D01*
X0025867Y0062500D01*
X0028367Y0062500D02*
X0029367Y0063500D01*
X0030867Y0063500D01*
D37*
X0059867Y0072500D02*
X0062367Y0079000D01*
X0064867Y0072500D01*
X0062367Y0072500D01*
X0059867Y0072500D01*
X0062367Y0072500D02*
X0062367Y0072000D01*
X0062367Y0072500D02*
X0062367Y0079000D01*
X0062367Y0037000D02*
X0059867Y0037000D01*
X0059867Y0036500D02*
X0062367Y0031000D01*
X0064867Y0037000D01*
X0062367Y0037000D01*
X0062367Y0031000D01*
M02*
