G75*
%MOIN*%
%OFA0B0*%
%FSLAX25Y25*%
%IPPOS*%
%LPD*%
%AMOC8*
5,1,8,0,0,1.08239X$1,22.5*
%
%ADD10C,0.00000*%
D10*
X0005367Y0016000D02*
X0005367Y0093961D01*
X0291568Y0093961D01*
X0291568Y0016000D01*
X0005367Y0016000D01*
X0009867Y0027000D02*
X0009869Y0027161D01*
X0009875Y0027321D01*
X0009885Y0027482D01*
X0009899Y0027642D01*
X0009917Y0027802D01*
X0009938Y0027961D01*
X0009964Y0028120D01*
X0009994Y0028278D01*
X0010027Y0028435D01*
X0010065Y0028592D01*
X0010106Y0028747D01*
X0010151Y0028901D01*
X0010200Y0029054D01*
X0010253Y0029206D01*
X0010309Y0029357D01*
X0010370Y0029506D01*
X0010433Y0029654D01*
X0010501Y0029800D01*
X0010572Y0029944D01*
X0010646Y0030086D01*
X0010724Y0030227D01*
X0010806Y0030365D01*
X0010891Y0030502D01*
X0010979Y0030636D01*
X0011071Y0030768D01*
X0011166Y0030898D01*
X0011264Y0031026D01*
X0011365Y0031151D01*
X0011469Y0031273D01*
X0011576Y0031393D01*
X0011686Y0031510D01*
X0011799Y0031625D01*
X0011915Y0031736D01*
X0012034Y0031845D01*
X0012155Y0031950D01*
X0012279Y0032053D01*
X0012405Y0032153D01*
X0012533Y0032249D01*
X0012664Y0032342D01*
X0012798Y0032432D01*
X0012933Y0032519D01*
X0013071Y0032602D01*
X0013210Y0032682D01*
X0013352Y0032758D01*
X0013495Y0032831D01*
X0013640Y0032900D01*
X0013787Y0032966D01*
X0013935Y0033028D01*
X0014085Y0033086D01*
X0014236Y0033141D01*
X0014389Y0033192D01*
X0014543Y0033239D01*
X0014698Y0033282D01*
X0014854Y0033321D01*
X0015010Y0033357D01*
X0015168Y0033388D01*
X0015326Y0033416D01*
X0015485Y0033440D01*
X0015645Y0033460D01*
X0015805Y0033476D01*
X0015965Y0033488D01*
X0016126Y0033496D01*
X0016287Y0033500D01*
X0016447Y0033500D01*
X0016608Y0033496D01*
X0016769Y0033488D01*
X0016929Y0033476D01*
X0017089Y0033460D01*
X0017249Y0033440D01*
X0017408Y0033416D01*
X0017566Y0033388D01*
X0017724Y0033357D01*
X0017880Y0033321D01*
X0018036Y0033282D01*
X0018191Y0033239D01*
X0018345Y0033192D01*
X0018498Y0033141D01*
X0018649Y0033086D01*
X0018799Y0033028D01*
X0018947Y0032966D01*
X0019094Y0032900D01*
X0019239Y0032831D01*
X0019382Y0032758D01*
X0019524Y0032682D01*
X0019663Y0032602D01*
X0019801Y0032519D01*
X0019936Y0032432D01*
X0020070Y0032342D01*
X0020201Y0032249D01*
X0020329Y0032153D01*
X0020455Y0032053D01*
X0020579Y0031950D01*
X0020700Y0031845D01*
X0020819Y0031736D01*
X0020935Y0031625D01*
X0021048Y0031510D01*
X0021158Y0031393D01*
X0021265Y0031273D01*
X0021369Y0031151D01*
X0021470Y0031026D01*
X0021568Y0030898D01*
X0021663Y0030768D01*
X0021755Y0030636D01*
X0021843Y0030502D01*
X0021928Y0030365D01*
X0022010Y0030227D01*
X0022088Y0030086D01*
X0022162Y0029944D01*
X0022233Y0029800D01*
X0022301Y0029654D01*
X0022364Y0029506D01*
X0022425Y0029357D01*
X0022481Y0029206D01*
X0022534Y0029054D01*
X0022583Y0028901D01*
X0022628Y0028747D01*
X0022669Y0028592D01*
X0022707Y0028435D01*
X0022740Y0028278D01*
X0022770Y0028120D01*
X0022796Y0027961D01*
X0022817Y0027802D01*
X0022835Y0027642D01*
X0022849Y0027482D01*
X0022859Y0027321D01*
X0022865Y0027161D01*
X0022867Y0027000D01*
X0022865Y0026839D01*
X0022859Y0026679D01*
X0022849Y0026518D01*
X0022835Y0026358D01*
X0022817Y0026198D01*
X0022796Y0026039D01*
X0022770Y0025880D01*
X0022740Y0025722D01*
X0022707Y0025565D01*
X0022669Y0025408D01*
X0022628Y0025253D01*
X0022583Y0025099D01*
X0022534Y0024946D01*
X0022481Y0024794D01*
X0022425Y0024643D01*
X0022364Y0024494D01*
X0022301Y0024346D01*
X0022233Y0024200D01*
X0022162Y0024056D01*
X0022088Y0023914D01*
X0022010Y0023773D01*
X0021928Y0023635D01*
X0021843Y0023498D01*
X0021755Y0023364D01*
X0021663Y0023232D01*
X0021568Y0023102D01*
X0021470Y0022974D01*
X0021369Y0022849D01*
X0021265Y0022727D01*
X0021158Y0022607D01*
X0021048Y0022490D01*
X0020935Y0022375D01*
X0020819Y0022264D01*
X0020700Y0022155D01*
X0020579Y0022050D01*
X0020455Y0021947D01*
X0020329Y0021847D01*
X0020201Y0021751D01*
X0020070Y0021658D01*
X0019936Y0021568D01*
X0019801Y0021481D01*
X0019663Y0021398D01*
X0019524Y0021318D01*
X0019382Y0021242D01*
X0019239Y0021169D01*
X0019094Y0021100D01*
X0018947Y0021034D01*
X0018799Y0020972D01*
X0018649Y0020914D01*
X0018498Y0020859D01*
X0018345Y0020808D01*
X0018191Y0020761D01*
X0018036Y0020718D01*
X0017880Y0020679D01*
X0017724Y0020643D01*
X0017566Y0020612D01*
X0017408Y0020584D01*
X0017249Y0020560D01*
X0017089Y0020540D01*
X0016929Y0020524D01*
X0016769Y0020512D01*
X0016608Y0020504D01*
X0016447Y0020500D01*
X0016287Y0020500D01*
X0016126Y0020504D01*
X0015965Y0020512D01*
X0015805Y0020524D01*
X0015645Y0020540D01*
X0015485Y0020560D01*
X0015326Y0020584D01*
X0015168Y0020612D01*
X0015010Y0020643D01*
X0014854Y0020679D01*
X0014698Y0020718D01*
X0014543Y0020761D01*
X0014389Y0020808D01*
X0014236Y0020859D01*
X0014085Y0020914D01*
X0013935Y0020972D01*
X0013787Y0021034D01*
X0013640Y0021100D01*
X0013495Y0021169D01*
X0013352Y0021242D01*
X0013210Y0021318D01*
X0013071Y0021398D01*
X0012933Y0021481D01*
X0012798Y0021568D01*
X0012664Y0021658D01*
X0012533Y0021751D01*
X0012405Y0021847D01*
X0012279Y0021947D01*
X0012155Y0022050D01*
X0012034Y0022155D01*
X0011915Y0022264D01*
X0011799Y0022375D01*
X0011686Y0022490D01*
X0011576Y0022607D01*
X0011469Y0022727D01*
X0011365Y0022849D01*
X0011264Y0022974D01*
X0011166Y0023102D01*
X0011071Y0023232D01*
X0010979Y0023364D01*
X0010891Y0023498D01*
X0010806Y0023635D01*
X0010724Y0023773D01*
X0010646Y0023914D01*
X0010572Y0024056D01*
X0010501Y0024200D01*
X0010433Y0024346D01*
X0010370Y0024494D01*
X0010309Y0024643D01*
X0010253Y0024794D01*
X0010200Y0024946D01*
X0010151Y0025099D01*
X0010106Y0025253D01*
X0010065Y0025408D01*
X0010027Y0025565D01*
X0009994Y0025722D01*
X0009964Y0025880D01*
X0009938Y0026039D01*
X0009917Y0026198D01*
X0009899Y0026358D01*
X0009885Y0026518D01*
X0009875Y0026679D01*
X0009869Y0026839D01*
X0009867Y0027000D01*
X0092115Y0052031D02*
X0092117Y0052184D01*
X0092123Y0052338D01*
X0092133Y0052491D01*
X0092147Y0052643D01*
X0092165Y0052796D01*
X0092187Y0052947D01*
X0092212Y0053098D01*
X0092242Y0053249D01*
X0092276Y0053399D01*
X0092313Y0053547D01*
X0092354Y0053695D01*
X0092399Y0053841D01*
X0092448Y0053987D01*
X0092501Y0054131D01*
X0092557Y0054273D01*
X0092617Y0054414D01*
X0092681Y0054554D01*
X0092748Y0054692D01*
X0092819Y0054828D01*
X0092894Y0054962D01*
X0092971Y0055094D01*
X0093053Y0055224D01*
X0093137Y0055352D01*
X0093225Y0055478D01*
X0093316Y0055601D01*
X0093410Y0055722D01*
X0093508Y0055840D01*
X0093608Y0055956D01*
X0093712Y0056069D01*
X0093818Y0056180D01*
X0093927Y0056288D01*
X0094039Y0056393D01*
X0094153Y0056494D01*
X0094271Y0056593D01*
X0094390Y0056689D01*
X0094512Y0056782D01*
X0094637Y0056871D01*
X0094764Y0056958D01*
X0094893Y0057040D01*
X0095024Y0057120D01*
X0095157Y0057196D01*
X0095292Y0057269D01*
X0095429Y0057338D01*
X0095568Y0057403D01*
X0095708Y0057465D01*
X0095850Y0057523D01*
X0095993Y0057578D01*
X0096138Y0057629D01*
X0096284Y0057676D01*
X0096431Y0057719D01*
X0096579Y0057758D01*
X0096728Y0057794D01*
X0096878Y0057825D01*
X0097029Y0057853D01*
X0097180Y0057877D01*
X0097333Y0057897D01*
X0097485Y0057913D01*
X0097638Y0057925D01*
X0097791Y0057933D01*
X0097944Y0057937D01*
X0098098Y0057937D01*
X0098251Y0057933D01*
X0098404Y0057925D01*
X0098557Y0057913D01*
X0098709Y0057897D01*
X0098862Y0057877D01*
X0099013Y0057853D01*
X0099164Y0057825D01*
X0099314Y0057794D01*
X0099463Y0057758D01*
X0099611Y0057719D01*
X0099758Y0057676D01*
X0099904Y0057629D01*
X0100049Y0057578D01*
X0100192Y0057523D01*
X0100334Y0057465D01*
X0100474Y0057403D01*
X0100613Y0057338D01*
X0100750Y0057269D01*
X0100885Y0057196D01*
X0101018Y0057120D01*
X0101149Y0057040D01*
X0101278Y0056958D01*
X0101405Y0056871D01*
X0101530Y0056782D01*
X0101652Y0056689D01*
X0101771Y0056593D01*
X0101889Y0056494D01*
X0102003Y0056393D01*
X0102115Y0056288D01*
X0102224Y0056180D01*
X0102330Y0056069D01*
X0102434Y0055956D01*
X0102534Y0055840D01*
X0102632Y0055722D01*
X0102726Y0055601D01*
X0102817Y0055478D01*
X0102905Y0055352D01*
X0102989Y0055224D01*
X0103071Y0055094D01*
X0103148Y0054962D01*
X0103223Y0054828D01*
X0103294Y0054692D01*
X0103361Y0054554D01*
X0103425Y0054414D01*
X0103485Y0054273D01*
X0103541Y0054131D01*
X0103594Y0053987D01*
X0103643Y0053841D01*
X0103688Y0053695D01*
X0103729Y0053547D01*
X0103766Y0053399D01*
X0103800Y0053249D01*
X0103830Y0053098D01*
X0103855Y0052947D01*
X0103877Y0052796D01*
X0103895Y0052643D01*
X0103909Y0052491D01*
X0103919Y0052338D01*
X0103925Y0052184D01*
X0103927Y0052031D01*
X0103925Y0051878D01*
X0103919Y0051724D01*
X0103909Y0051571D01*
X0103895Y0051419D01*
X0103877Y0051266D01*
X0103855Y0051115D01*
X0103830Y0050964D01*
X0103800Y0050813D01*
X0103766Y0050663D01*
X0103729Y0050515D01*
X0103688Y0050367D01*
X0103643Y0050221D01*
X0103594Y0050075D01*
X0103541Y0049931D01*
X0103485Y0049789D01*
X0103425Y0049648D01*
X0103361Y0049508D01*
X0103294Y0049370D01*
X0103223Y0049234D01*
X0103148Y0049100D01*
X0103071Y0048968D01*
X0102989Y0048838D01*
X0102905Y0048710D01*
X0102817Y0048584D01*
X0102726Y0048461D01*
X0102632Y0048340D01*
X0102534Y0048222D01*
X0102434Y0048106D01*
X0102330Y0047993D01*
X0102224Y0047882D01*
X0102115Y0047774D01*
X0102003Y0047669D01*
X0101889Y0047568D01*
X0101771Y0047469D01*
X0101652Y0047373D01*
X0101530Y0047280D01*
X0101405Y0047191D01*
X0101278Y0047104D01*
X0101149Y0047022D01*
X0101018Y0046942D01*
X0100885Y0046866D01*
X0100750Y0046793D01*
X0100613Y0046724D01*
X0100474Y0046659D01*
X0100334Y0046597D01*
X0100192Y0046539D01*
X0100049Y0046484D01*
X0099904Y0046433D01*
X0099758Y0046386D01*
X0099611Y0046343D01*
X0099463Y0046304D01*
X0099314Y0046268D01*
X0099164Y0046237D01*
X0099013Y0046209D01*
X0098862Y0046185D01*
X0098709Y0046165D01*
X0098557Y0046149D01*
X0098404Y0046137D01*
X0098251Y0046129D01*
X0098098Y0046125D01*
X0097944Y0046125D01*
X0097791Y0046129D01*
X0097638Y0046137D01*
X0097485Y0046149D01*
X0097333Y0046165D01*
X0097180Y0046185D01*
X0097029Y0046209D01*
X0096878Y0046237D01*
X0096728Y0046268D01*
X0096579Y0046304D01*
X0096431Y0046343D01*
X0096284Y0046386D01*
X0096138Y0046433D01*
X0095993Y0046484D01*
X0095850Y0046539D01*
X0095708Y0046597D01*
X0095568Y0046659D01*
X0095429Y0046724D01*
X0095292Y0046793D01*
X0095157Y0046866D01*
X0095024Y0046942D01*
X0094893Y0047022D01*
X0094764Y0047104D01*
X0094637Y0047191D01*
X0094512Y0047280D01*
X0094390Y0047373D01*
X0094271Y0047469D01*
X0094153Y0047568D01*
X0094039Y0047669D01*
X0093927Y0047774D01*
X0093818Y0047882D01*
X0093712Y0047993D01*
X0093608Y0048106D01*
X0093508Y0048222D01*
X0093410Y0048340D01*
X0093316Y0048461D01*
X0093225Y0048584D01*
X0093137Y0048710D01*
X0093053Y0048838D01*
X0092971Y0048968D01*
X0092894Y0049100D01*
X0092819Y0049234D01*
X0092748Y0049370D01*
X0092681Y0049508D01*
X0092617Y0049648D01*
X0092557Y0049789D01*
X0092501Y0049931D01*
X0092448Y0050075D01*
X0092399Y0050221D01*
X0092354Y0050367D01*
X0092313Y0050515D01*
X0092276Y0050663D01*
X0092242Y0050813D01*
X0092212Y0050964D01*
X0092187Y0051115D01*
X0092165Y0051266D01*
X0092147Y0051419D01*
X0092133Y0051571D01*
X0092123Y0051724D01*
X0092117Y0051878D01*
X0092115Y0052031D01*
X0009867Y0083000D02*
X0009869Y0083161D01*
X0009875Y0083321D01*
X0009885Y0083482D01*
X0009899Y0083642D01*
X0009917Y0083802D01*
X0009938Y0083961D01*
X0009964Y0084120D01*
X0009994Y0084278D01*
X0010027Y0084435D01*
X0010065Y0084592D01*
X0010106Y0084747D01*
X0010151Y0084901D01*
X0010200Y0085054D01*
X0010253Y0085206D01*
X0010309Y0085357D01*
X0010370Y0085506D01*
X0010433Y0085654D01*
X0010501Y0085800D01*
X0010572Y0085944D01*
X0010646Y0086086D01*
X0010724Y0086227D01*
X0010806Y0086365D01*
X0010891Y0086502D01*
X0010979Y0086636D01*
X0011071Y0086768D01*
X0011166Y0086898D01*
X0011264Y0087026D01*
X0011365Y0087151D01*
X0011469Y0087273D01*
X0011576Y0087393D01*
X0011686Y0087510D01*
X0011799Y0087625D01*
X0011915Y0087736D01*
X0012034Y0087845D01*
X0012155Y0087950D01*
X0012279Y0088053D01*
X0012405Y0088153D01*
X0012533Y0088249D01*
X0012664Y0088342D01*
X0012798Y0088432D01*
X0012933Y0088519D01*
X0013071Y0088602D01*
X0013210Y0088682D01*
X0013352Y0088758D01*
X0013495Y0088831D01*
X0013640Y0088900D01*
X0013787Y0088966D01*
X0013935Y0089028D01*
X0014085Y0089086D01*
X0014236Y0089141D01*
X0014389Y0089192D01*
X0014543Y0089239D01*
X0014698Y0089282D01*
X0014854Y0089321D01*
X0015010Y0089357D01*
X0015168Y0089388D01*
X0015326Y0089416D01*
X0015485Y0089440D01*
X0015645Y0089460D01*
X0015805Y0089476D01*
X0015965Y0089488D01*
X0016126Y0089496D01*
X0016287Y0089500D01*
X0016447Y0089500D01*
X0016608Y0089496D01*
X0016769Y0089488D01*
X0016929Y0089476D01*
X0017089Y0089460D01*
X0017249Y0089440D01*
X0017408Y0089416D01*
X0017566Y0089388D01*
X0017724Y0089357D01*
X0017880Y0089321D01*
X0018036Y0089282D01*
X0018191Y0089239D01*
X0018345Y0089192D01*
X0018498Y0089141D01*
X0018649Y0089086D01*
X0018799Y0089028D01*
X0018947Y0088966D01*
X0019094Y0088900D01*
X0019239Y0088831D01*
X0019382Y0088758D01*
X0019524Y0088682D01*
X0019663Y0088602D01*
X0019801Y0088519D01*
X0019936Y0088432D01*
X0020070Y0088342D01*
X0020201Y0088249D01*
X0020329Y0088153D01*
X0020455Y0088053D01*
X0020579Y0087950D01*
X0020700Y0087845D01*
X0020819Y0087736D01*
X0020935Y0087625D01*
X0021048Y0087510D01*
X0021158Y0087393D01*
X0021265Y0087273D01*
X0021369Y0087151D01*
X0021470Y0087026D01*
X0021568Y0086898D01*
X0021663Y0086768D01*
X0021755Y0086636D01*
X0021843Y0086502D01*
X0021928Y0086365D01*
X0022010Y0086227D01*
X0022088Y0086086D01*
X0022162Y0085944D01*
X0022233Y0085800D01*
X0022301Y0085654D01*
X0022364Y0085506D01*
X0022425Y0085357D01*
X0022481Y0085206D01*
X0022534Y0085054D01*
X0022583Y0084901D01*
X0022628Y0084747D01*
X0022669Y0084592D01*
X0022707Y0084435D01*
X0022740Y0084278D01*
X0022770Y0084120D01*
X0022796Y0083961D01*
X0022817Y0083802D01*
X0022835Y0083642D01*
X0022849Y0083482D01*
X0022859Y0083321D01*
X0022865Y0083161D01*
X0022867Y0083000D01*
X0022865Y0082839D01*
X0022859Y0082679D01*
X0022849Y0082518D01*
X0022835Y0082358D01*
X0022817Y0082198D01*
X0022796Y0082039D01*
X0022770Y0081880D01*
X0022740Y0081722D01*
X0022707Y0081565D01*
X0022669Y0081408D01*
X0022628Y0081253D01*
X0022583Y0081099D01*
X0022534Y0080946D01*
X0022481Y0080794D01*
X0022425Y0080643D01*
X0022364Y0080494D01*
X0022301Y0080346D01*
X0022233Y0080200D01*
X0022162Y0080056D01*
X0022088Y0079914D01*
X0022010Y0079773D01*
X0021928Y0079635D01*
X0021843Y0079498D01*
X0021755Y0079364D01*
X0021663Y0079232D01*
X0021568Y0079102D01*
X0021470Y0078974D01*
X0021369Y0078849D01*
X0021265Y0078727D01*
X0021158Y0078607D01*
X0021048Y0078490D01*
X0020935Y0078375D01*
X0020819Y0078264D01*
X0020700Y0078155D01*
X0020579Y0078050D01*
X0020455Y0077947D01*
X0020329Y0077847D01*
X0020201Y0077751D01*
X0020070Y0077658D01*
X0019936Y0077568D01*
X0019801Y0077481D01*
X0019663Y0077398D01*
X0019524Y0077318D01*
X0019382Y0077242D01*
X0019239Y0077169D01*
X0019094Y0077100D01*
X0018947Y0077034D01*
X0018799Y0076972D01*
X0018649Y0076914D01*
X0018498Y0076859D01*
X0018345Y0076808D01*
X0018191Y0076761D01*
X0018036Y0076718D01*
X0017880Y0076679D01*
X0017724Y0076643D01*
X0017566Y0076612D01*
X0017408Y0076584D01*
X0017249Y0076560D01*
X0017089Y0076540D01*
X0016929Y0076524D01*
X0016769Y0076512D01*
X0016608Y0076504D01*
X0016447Y0076500D01*
X0016287Y0076500D01*
X0016126Y0076504D01*
X0015965Y0076512D01*
X0015805Y0076524D01*
X0015645Y0076540D01*
X0015485Y0076560D01*
X0015326Y0076584D01*
X0015168Y0076612D01*
X0015010Y0076643D01*
X0014854Y0076679D01*
X0014698Y0076718D01*
X0014543Y0076761D01*
X0014389Y0076808D01*
X0014236Y0076859D01*
X0014085Y0076914D01*
X0013935Y0076972D01*
X0013787Y0077034D01*
X0013640Y0077100D01*
X0013495Y0077169D01*
X0013352Y0077242D01*
X0013210Y0077318D01*
X0013071Y0077398D01*
X0012933Y0077481D01*
X0012798Y0077568D01*
X0012664Y0077658D01*
X0012533Y0077751D01*
X0012405Y0077847D01*
X0012279Y0077947D01*
X0012155Y0078050D01*
X0012034Y0078155D01*
X0011915Y0078264D01*
X0011799Y0078375D01*
X0011686Y0078490D01*
X0011576Y0078607D01*
X0011469Y0078727D01*
X0011365Y0078849D01*
X0011264Y0078974D01*
X0011166Y0079102D01*
X0011071Y0079232D01*
X0010979Y0079364D01*
X0010891Y0079498D01*
X0010806Y0079635D01*
X0010724Y0079773D01*
X0010646Y0079914D01*
X0010572Y0080056D01*
X0010501Y0080200D01*
X0010433Y0080346D01*
X0010370Y0080494D01*
X0010309Y0080643D01*
X0010253Y0080794D01*
X0010200Y0080946D01*
X0010151Y0081099D01*
X0010106Y0081253D01*
X0010065Y0081408D01*
X0010027Y0081565D01*
X0009994Y0081722D01*
X0009964Y0081880D01*
X0009938Y0082039D01*
X0009917Y0082198D01*
X0009899Y0082358D01*
X0009885Y0082518D01*
X0009875Y0082679D01*
X0009869Y0082839D01*
X0009867Y0083000D01*
X0226934Y0053354D02*
X0226936Y0053433D01*
X0226942Y0053512D01*
X0226952Y0053591D01*
X0226966Y0053669D01*
X0226983Y0053746D01*
X0227005Y0053822D01*
X0227030Y0053897D01*
X0227060Y0053970D01*
X0227092Y0054042D01*
X0227129Y0054113D01*
X0227169Y0054181D01*
X0227212Y0054247D01*
X0227258Y0054311D01*
X0227308Y0054373D01*
X0227361Y0054432D01*
X0227416Y0054488D01*
X0227475Y0054542D01*
X0227536Y0054592D01*
X0227599Y0054640D01*
X0227665Y0054684D01*
X0227733Y0054725D01*
X0227803Y0054762D01*
X0227874Y0054796D01*
X0227948Y0054826D01*
X0228022Y0054852D01*
X0228098Y0054874D01*
X0228175Y0054893D01*
X0228253Y0054908D01*
X0228331Y0054919D01*
X0228410Y0054926D01*
X0228489Y0054929D01*
X0228568Y0054928D01*
X0228647Y0054923D01*
X0228726Y0054914D01*
X0228804Y0054901D01*
X0228881Y0054884D01*
X0228958Y0054864D01*
X0229033Y0054839D01*
X0229107Y0054811D01*
X0229180Y0054779D01*
X0229250Y0054744D01*
X0229319Y0054705D01*
X0229386Y0054662D01*
X0229451Y0054616D01*
X0229513Y0054568D01*
X0229573Y0054516D01*
X0229630Y0054461D01*
X0229684Y0054403D01*
X0229735Y0054343D01*
X0229783Y0054280D01*
X0229828Y0054215D01*
X0229870Y0054147D01*
X0229908Y0054078D01*
X0229942Y0054007D01*
X0229973Y0053934D01*
X0230001Y0053859D01*
X0230024Y0053784D01*
X0230044Y0053707D01*
X0230060Y0053630D01*
X0230072Y0053551D01*
X0230080Y0053473D01*
X0230084Y0053394D01*
X0230084Y0053314D01*
X0230080Y0053235D01*
X0230072Y0053157D01*
X0230060Y0053078D01*
X0230044Y0053001D01*
X0230024Y0052924D01*
X0230001Y0052849D01*
X0229973Y0052774D01*
X0229942Y0052701D01*
X0229908Y0052630D01*
X0229870Y0052561D01*
X0229828Y0052493D01*
X0229783Y0052428D01*
X0229735Y0052365D01*
X0229684Y0052305D01*
X0229630Y0052247D01*
X0229573Y0052192D01*
X0229513Y0052140D01*
X0229451Y0052092D01*
X0229386Y0052046D01*
X0229319Y0052003D01*
X0229250Y0051964D01*
X0229180Y0051929D01*
X0229107Y0051897D01*
X0229033Y0051869D01*
X0228958Y0051844D01*
X0228881Y0051824D01*
X0228804Y0051807D01*
X0228726Y0051794D01*
X0228647Y0051785D01*
X0228568Y0051780D01*
X0228489Y0051779D01*
X0228410Y0051782D01*
X0228331Y0051789D01*
X0228253Y0051800D01*
X0228175Y0051815D01*
X0228098Y0051834D01*
X0228022Y0051856D01*
X0227948Y0051882D01*
X0227874Y0051912D01*
X0227803Y0051946D01*
X0227733Y0051983D01*
X0227665Y0052024D01*
X0227599Y0052068D01*
X0227536Y0052116D01*
X0227475Y0052166D01*
X0227416Y0052220D01*
X0227361Y0052276D01*
X0227308Y0052335D01*
X0227258Y0052397D01*
X0227212Y0052461D01*
X0227169Y0052527D01*
X0227129Y0052595D01*
X0227092Y0052666D01*
X0227060Y0052738D01*
X0227030Y0052811D01*
X0227005Y0052886D01*
X0226983Y0052962D01*
X0226966Y0053039D01*
X0226952Y0053117D01*
X0226942Y0053196D01*
X0226936Y0053275D01*
X0226934Y0053354D01*
X0251147Y0029142D02*
X0251149Y0029221D01*
X0251155Y0029300D01*
X0251165Y0029379D01*
X0251179Y0029457D01*
X0251196Y0029534D01*
X0251218Y0029610D01*
X0251243Y0029685D01*
X0251273Y0029758D01*
X0251305Y0029830D01*
X0251342Y0029901D01*
X0251382Y0029969D01*
X0251425Y0030035D01*
X0251471Y0030099D01*
X0251521Y0030161D01*
X0251574Y0030220D01*
X0251629Y0030276D01*
X0251688Y0030330D01*
X0251749Y0030380D01*
X0251812Y0030428D01*
X0251878Y0030472D01*
X0251946Y0030513D01*
X0252016Y0030550D01*
X0252087Y0030584D01*
X0252161Y0030614D01*
X0252235Y0030640D01*
X0252311Y0030662D01*
X0252388Y0030681D01*
X0252466Y0030696D01*
X0252544Y0030707D01*
X0252623Y0030714D01*
X0252702Y0030717D01*
X0252781Y0030716D01*
X0252860Y0030711D01*
X0252939Y0030702D01*
X0253017Y0030689D01*
X0253094Y0030672D01*
X0253171Y0030652D01*
X0253246Y0030627D01*
X0253320Y0030599D01*
X0253393Y0030567D01*
X0253463Y0030532D01*
X0253532Y0030493D01*
X0253599Y0030450D01*
X0253664Y0030404D01*
X0253726Y0030356D01*
X0253786Y0030304D01*
X0253843Y0030249D01*
X0253897Y0030191D01*
X0253948Y0030131D01*
X0253996Y0030068D01*
X0254041Y0030003D01*
X0254083Y0029935D01*
X0254121Y0029866D01*
X0254155Y0029795D01*
X0254186Y0029722D01*
X0254214Y0029647D01*
X0254237Y0029572D01*
X0254257Y0029495D01*
X0254273Y0029418D01*
X0254285Y0029339D01*
X0254293Y0029261D01*
X0254297Y0029182D01*
X0254297Y0029102D01*
X0254293Y0029023D01*
X0254285Y0028945D01*
X0254273Y0028866D01*
X0254257Y0028789D01*
X0254237Y0028712D01*
X0254214Y0028637D01*
X0254186Y0028562D01*
X0254155Y0028489D01*
X0254121Y0028418D01*
X0254083Y0028349D01*
X0254041Y0028281D01*
X0253996Y0028216D01*
X0253948Y0028153D01*
X0253897Y0028093D01*
X0253843Y0028035D01*
X0253786Y0027980D01*
X0253726Y0027928D01*
X0253664Y0027880D01*
X0253599Y0027834D01*
X0253532Y0027791D01*
X0253463Y0027752D01*
X0253393Y0027717D01*
X0253320Y0027685D01*
X0253246Y0027657D01*
X0253171Y0027632D01*
X0253094Y0027612D01*
X0253017Y0027595D01*
X0252939Y0027582D01*
X0252860Y0027573D01*
X0252781Y0027568D01*
X0252702Y0027567D01*
X0252623Y0027570D01*
X0252544Y0027577D01*
X0252466Y0027588D01*
X0252388Y0027603D01*
X0252311Y0027622D01*
X0252235Y0027644D01*
X0252161Y0027670D01*
X0252087Y0027700D01*
X0252016Y0027734D01*
X0251946Y0027771D01*
X0251878Y0027812D01*
X0251812Y0027856D01*
X0251749Y0027904D01*
X0251688Y0027954D01*
X0251629Y0028008D01*
X0251574Y0028064D01*
X0251521Y0028123D01*
X0251471Y0028185D01*
X0251425Y0028249D01*
X0251382Y0028315D01*
X0251342Y0028383D01*
X0251305Y0028454D01*
X0251273Y0028526D01*
X0251243Y0028599D01*
X0251218Y0028674D01*
X0251196Y0028750D01*
X0251179Y0028827D01*
X0251165Y0028905D01*
X0251155Y0028984D01*
X0251149Y0029063D01*
X0251147Y0029142D01*
X0274367Y0027000D02*
X0274369Y0027161D01*
X0274375Y0027321D01*
X0274385Y0027482D01*
X0274399Y0027642D01*
X0274417Y0027802D01*
X0274438Y0027961D01*
X0274464Y0028120D01*
X0274494Y0028278D01*
X0274527Y0028435D01*
X0274565Y0028592D01*
X0274606Y0028747D01*
X0274651Y0028901D01*
X0274700Y0029054D01*
X0274753Y0029206D01*
X0274809Y0029357D01*
X0274870Y0029506D01*
X0274933Y0029654D01*
X0275001Y0029800D01*
X0275072Y0029944D01*
X0275146Y0030086D01*
X0275224Y0030227D01*
X0275306Y0030365D01*
X0275391Y0030502D01*
X0275479Y0030636D01*
X0275571Y0030768D01*
X0275666Y0030898D01*
X0275764Y0031026D01*
X0275865Y0031151D01*
X0275969Y0031273D01*
X0276076Y0031393D01*
X0276186Y0031510D01*
X0276299Y0031625D01*
X0276415Y0031736D01*
X0276534Y0031845D01*
X0276655Y0031950D01*
X0276779Y0032053D01*
X0276905Y0032153D01*
X0277033Y0032249D01*
X0277164Y0032342D01*
X0277298Y0032432D01*
X0277433Y0032519D01*
X0277571Y0032602D01*
X0277710Y0032682D01*
X0277852Y0032758D01*
X0277995Y0032831D01*
X0278140Y0032900D01*
X0278287Y0032966D01*
X0278435Y0033028D01*
X0278585Y0033086D01*
X0278736Y0033141D01*
X0278889Y0033192D01*
X0279043Y0033239D01*
X0279198Y0033282D01*
X0279354Y0033321D01*
X0279510Y0033357D01*
X0279668Y0033388D01*
X0279826Y0033416D01*
X0279985Y0033440D01*
X0280145Y0033460D01*
X0280305Y0033476D01*
X0280465Y0033488D01*
X0280626Y0033496D01*
X0280787Y0033500D01*
X0280947Y0033500D01*
X0281108Y0033496D01*
X0281269Y0033488D01*
X0281429Y0033476D01*
X0281589Y0033460D01*
X0281749Y0033440D01*
X0281908Y0033416D01*
X0282066Y0033388D01*
X0282224Y0033357D01*
X0282380Y0033321D01*
X0282536Y0033282D01*
X0282691Y0033239D01*
X0282845Y0033192D01*
X0282998Y0033141D01*
X0283149Y0033086D01*
X0283299Y0033028D01*
X0283447Y0032966D01*
X0283594Y0032900D01*
X0283739Y0032831D01*
X0283882Y0032758D01*
X0284024Y0032682D01*
X0284163Y0032602D01*
X0284301Y0032519D01*
X0284436Y0032432D01*
X0284570Y0032342D01*
X0284701Y0032249D01*
X0284829Y0032153D01*
X0284955Y0032053D01*
X0285079Y0031950D01*
X0285200Y0031845D01*
X0285319Y0031736D01*
X0285435Y0031625D01*
X0285548Y0031510D01*
X0285658Y0031393D01*
X0285765Y0031273D01*
X0285869Y0031151D01*
X0285970Y0031026D01*
X0286068Y0030898D01*
X0286163Y0030768D01*
X0286255Y0030636D01*
X0286343Y0030502D01*
X0286428Y0030365D01*
X0286510Y0030227D01*
X0286588Y0030086D01*
X0286662Y0029944D01*
X0286733Y0029800D01*
X0286801Y0029654D01*
X0286864Y0029506D01*
X0286925Y0029357D01*
X0286981Y0029206D01*
X0287034Y0029054D01*
X0287083Y0028901D01*
X0287128Y0028747D01*
X0287169Y0028592D01*
X0287207Y0028435D01*
X0287240Y0028278D01*
X0287270Y0028120D01*
X0287296Y0027961D01*
X0287317Y0027802D01*
X0287335Y0027642D01*
X0287349Y0027482D01*
X0287359Y0027321D01*
X0287365Y0027161D01*
X0287367Y0027000D01*
X0287365Y0026839D01*
X0287359Y0026679D01*
X0287349Y0026518D01*
X0287335Y0026358D01*
X0287317Y0026198D01*
X0287296Y0026039D01*
X0287270Y0025880D01*
X0287240Y0025722D01*
X0287207Y0025565D01*
X0287169Y0025408D01*
X0287128Y0025253D01*
X0287083Y0025099D01*
X0287034Y0024946D01*
X0286981Y0024794D01*
X0286925Y0024643D01*
X0286864Y0024494D01*
X0286801Y0024346D01*
X0286733Y0024200D01*
X0286662Y0024056D01*
X0286588Y0023914D01*
X0286510Y0023773D01*
X0286428Y0023635D01*
X0286343Y0023498D01*
X0286255Y0023364D01*
X0286163Y0023232D01*
X0286068Y0023102D01*
X0285970Y0022974D01*
X0285869Y0022849D01*
X0285765Y0022727D01*
X0285658Y0022607D01*
X0285548Y0022490D01*
X0285435Y0022375D01*
X0285319Y0022264D01*
X0285200Y0022155D01*
X0285079Y0022050D01*
X0284955Y0021947D01*
X0284829Y0021847D01*
X0284701Y0021751D01*
X0284570Y0021658D01*
X0284436Y0021568D01*
X0284301Y0021481D01*
X0284163Y0021398D01*
X0284024Y0021318D01*
X0283882Y0021242D01*
X0283739Y0021169D01*
X0283594Y0021100D01*
X0283447Y0021034D01*
X0283299Y0020972D01*
X0283149Y0020914D01*
X0282998Y0020859D01*
X0282845Y0020808D01*
X0282691Y0020761D01*
X0282536Y0020718D01*
X0282380Y0020679D01*
X0282224Y0020643D01*
X0282066Y0020612D01*
X0281908Y0020584D01*
X0281749Y0020560D01*
X0281589Y0020540D01*
X0281429Y0020524D01*
X0281269Y0020512D01*
X0281108Y0020504D01*
X0280947Y0020500D01*
X0280787Y0020500D01*
X0280626Y0020504D01*
X0280465Y0020512D01*
X0280305Y0020524D01*
X0280145Y0020540D01*
X0279985Y0020560D01*
X0279826Y0020584D01*
X0279668Y0020612D01*
X0279510Y0020643D01*
X0279354Y0020679D01*
X0279198Y0020718D01*
X0279043Y0020761D01*
X0278889Y0020808D01*
X0278736Y0020859D01*
X0278585Y0020914D01*
X0278435Y0020972D01*
X0278287Y0021034D01*
X0278140Y0021100D01*
X0277995Y0021169D01*
X0277852Y0021242D01*
X0277710Y0021318D01*
X0277571Y0021398D01*
X0277433Y0021481D01*
X0277298Y0021568D01*
X0277164Y0021658D01*
X0277033Y0021751D01*
X0276905Y0021847D01*
X0276779Y0021947D01*
X0276655Y0022050D01*
X0276534Y0022155D01*
X0276415Y0022264D01*
X0276299Y0022375D01*
X0276186Y0022490D01*
X0276076Y0022607D01*
X0275969Y0022727D01*
X0275865Y0022849D01*
X0275764Y0022974D01*
X0275666Y0023102D01*
X0275571Y0023232D01*
X0275479Y0023364D01*
X0275391Y0023498D01*
X0275306Y0023635D01*
X0275224Y0023773D01*
X0275146Y0023914D01*
X0275072Y0024056D01*
X0275001Y0024200D01*
X0274933Y0024346D01*
X0274870Y0024494D01*
X0274809Y0024643D01*
X0274753Y0024794D01*
X0274700Y0024946D01*
X0274651Y0025099D01*
X0274606Y0025253D01*
X0274565Y0025408D01*
X0274527Y0025565D01*
X0274494Y0025722D01*
X0274464Y0025880D01*
X0274438Y0026039D01*
X0274417Y0026198D01*
X0274399Y0026358D01*
X0274385Y0026518D01*
X0274375Y0026679D01*
X0274369Y0026839D01*
X0274367Y0027000D01*
X0274367Y0083000D02*
X0274369Y0083161D01*
X0274375Y0083321D01*
X0274385Y0083482D01*
X0274399Y0083642D01*
X0274417Y0083802D01*
X0274438Y0083961D01*
X0274464Y0084120D01*
X0274494Y0084278D01*
X0274527Y0084435D01*
X0274565Y0084592D01*
X0274606Y0084747D01*
X0274651Y0084901D01*
X0274700Y0085054D01*
X0274753Y0085206D01*
X0274809Y0085357D01*
X0274870Y0085506D01*
X0274933Y0085654D01*
X0275001Y0085800D01*
X0275072Y0085944D01*
X0275146Y0086086D01*
X0275224Y0086227D01*
X0275306Y0086365D01*
X0275391Y0086502D01*
X0275479Y0086636D01*
X0275571Y0086768D01*
X0275666Y0086898D01*
X0275764Y0087026D01*
X0275865Y0087151D01*
X0275969Y0087273D01*
X0276076Y0087393D01*
X0276186Y0087510D01*
X0276299Y0087625D01*
X0276415Y0087736D01*
X0276534Y0087845D01*
X0276655Y0087950D01*
X0276779Y0088053D01*
X0276905Y0088153D01*
X0277033Y0088249D01*
X0277164Y0088342D01*
X0277298Y0088432D01*
X0277433Y0088519D01*
X0277571Y0088602D01*
X0277710Y0088682D01*
X0277852Y0088758D01*
X0277995Y0088831D01*
X0278140Y0088900D01*
X0278287Y0088966D01*
X0278435Y0089028D01*
X0278585Y0089086D01*
X0278736Y0089141D01*
X0278889Y0089192D01*
X0279043Y0089239D01*
X0279198Y0089282D01*
X0279354Y0089321D01*
X0279510Y0089357D01*
X0279668Y0089388D01*
X0279826Y0089416D01*
X0279985Y0089440D01*
X0280145Y0089460D01*
X0280305Y0089476D01*
X0280465Y0089488D01*
X0280626Y0089496D01*
X0280787Y0089500D01*
X0280947Y0089500D01*
X0281108Y0089496D01*
X0281269Y0089488D01*
X0281429Y0089476D01*
X0281589Y0089460D01*
X0281749Y0089440D01*
X0281908Y0089416D01*
X0282066Y0089388D01*
X0282224Y0089357D01*
X0282380Y0089321D01*
X0282536Y0089282D01*
X0282691Y0089239D01*
X0282845Y0089192D01*
X0282998Y0089141D01*
X0283149Y0089086D01*
X0283299Y0089028D01*
X0283447Y0088966D01*
X0283594Y0088900D01*
X0283739Y0088831D01*
X0283882Y0088758D01*
X0284024Y0088682D01*
X0284163Y0088602D01*
X0284301Y0088519D01*
X0284436Y0088432D01*
X0284570Y0088342D01*
X0284701Y0088249D01*
X0284829Y0088153D01*
X0284955Y0088053D01*
X0285079Y0087950D01*
X0285200Y0087845D01*
X0285319Y0087736D01*
X0285435Y0087625D01*
X0285548Y0087510D01*
X0285658Y0087393D01*
X0285765Y0087273D01*
X0285869Y0087151D01*
X0285970Y0087026D01*
X0286068Y0086898D01*
X0286163Y0086768D01*
X0286255Y0086636D01*
X0286343Y0086502D01*
X0286428Y0086365D01*
X0286510Y0086227D01*
X0286588Y0086086D01*
X0286662Y0085944D01*
X0286733Y0085800D01*
X0286801Y0085654D01*
X0286864Y0085506D01*
X0286925Y0085357D01*
X0286981Y0085206D01*
X0287034Y0085054D01*
X0287083Y0084901D01*
X0287128Y0084747D01*
X0287169Y0084592D01*
X0287207Y0084435D01*
X0287240Y0084278D01*
X0287270Y0084120D01*
X0287296Y0083961D01*
X0287317Y0083802D01*
X0287335Y0083642D01*
X0287349Y0083482D01*
X0287359Y0083321D01*
X0287365Y0083161D01*
X0287367Y0083000D01*
X0287365Y0082839D01*
X0287359Y0082679D01*
X0287349Y0082518D01*
X0287335Y0082358D01*
X0287317Y0082198D01*
X0287296Y0082039D01*
X0287270Y0081880D01*
X0287240Y0081722D01*
X0287207Y0081565D01*
X0287169Y0081408D01*
X0287128Y0081253D01*
X0287083Y0081099D01*
X0287034Y0080946D01*
X0286981Y0080794D01*
X0286925Y0080643D01*
X0286864Y0080494D01*
X0286801Y0080346D01*
X0286733Y0080200D01*
X0286662Y0080056D01*
X0286588Y0079914D01*
X0286510Y0079773D01*
X0286428Y0079635D01*
X0286343Y0079498D01*
X0286255Y0079364D01*
X0286163Y0079232D01*
X0286068Y0079102D01*
X0285970Y0078974D01*
X0285869Y0078849D01*
X0285765Y0078727D01*
X0285658Y0078607D01*
X0285548Y0078490D01*
X0285435Y0078375D01*
X0285319Y0078264D01*
X0285200Y0078155D01*
X0285079Y0078050D01*
X0284955Y0077947D01*
X0284829Y0077847D01*
X0284701Y0077751D01*
X0284570Y0077658D01*
X0284436Y0077568D01*
X0284301Y0077481D01*
X0284163Y0077398D01*
X0284024Y0077318D01*
X0283882Y0077242D01*
X0283739Y0077169D01*
X0283594Y0077100D01*
X0283447Y0077034D01*
X0283299Y0076972D01*
X0283149Y0076914D01*
X0282998Y0076859D01*
X0282845Y0076808D01*
X0282691Y0076761D01*
X0282536Y0076718D01*
X0282380Y0076679D01*
X0282224Y0076643D01*
X0282066Y0076612D01*
X0281908Y0076584D01*
X0281749Y0076560D01*
X0281589Y0076540D01*
X0281429Y0076524D01*
X0281269Y0076512D01*
X0281108Y0076504D01*
X0280947Y0076500D01*
X0280787Y0076500D01*
X0280626Y0076504D01*
X0280465Y0076512D01*
X0280305Y0076524D01*
X0280145Y0076540D01*
X0279985Y0076560D01*
X0279826Y0076584D01*
X0279668Y0076612D01*
X0279510Y0076643D01*
X0279354Y0076679D01*
X0279198Y0076718D01*
X0279043Y0076761D01*
X0278889Y0076808D01*
X0278736Y0076859D01*
X0278585Y0076914D01*
X0278435Y0076972D01*
X0278287Y0077034D01*
X0278140Y0077100D01*
X0277995Y0077169D01*
X0277852Y0077242D01*
X0277710Y0077318D01*
X0277571Y0077398D01*
X0277433Y0077481D01*
X0277298Y0077568D01*
X0277164Y0077658D01*
X0277033Y0077751D01*
X0276905Y0077847D01*
X0276779Y0077947D01*
X0276655Y0078050D01*
X0276534Y0078155D01*
X0276415Y0078264D01*
X0276299Y0078375D01*
X0276186Y0078490D01*
X0276076Y0078607D01*
X0275969Y0078727D01*
X0275865Y0078849D01*
X0275764Y0078974D01*
X0275666Y0079102D01*
X0275571Y0079232D01*
X0275479Y0079364D01*
X0275391Y0079498D01*
X0275306Y0079635D01*
X0275224Y0079773D01*
X0275146Y0079914D01*
X0275072Y0080056D01*
X0275001Y0080200D01*
X0274933Y0080346D01*
X0274870Y0080494D01*
X0274809Y0080643D01*
X0274753Y0080794D01*
X0274700Y0080946D01*
X0274651Y0081099D01*
X0274606Y0081253D01*
X0274565Y0081408D01*
X0274527Y0081565D01*
X0274494Y0081722D01*
X0274464Y0081880D01*
X0274438Y0082039D01*
X0274417Y0082198D01*
X0274399Y0082358D01*
X0274385Y0082518D01*
X0274375Y0082679D01*
X0274369Y0082839D01*
X0274367Y0083000D01*
M02*
