G75*
%MOIN*%
%OFA0B0*%
%FSLAX25Y25*%
%IPPOS*%
%LPD*%
%AMOC8*
5,1,8,0,0,1.08239X$1,22.5*
%
%ADD10R,0.05906X0.01102*%
%ADD11R,0.04724X0.02165*%
%ADD12R,0.04331X0.03937*%
%ADD13R,0.03937X0.02756*%
%ADD14R,0.01594X0.03898*%
%ADD15R,0.02756X0.03543*%
%ADD16R,0.03543X0.02756*%
%ADD17R,0.03937X0.07087*%
%ADD18R,0.05000X0.02500*%
%ADD19R,0.01969X0.04724*%
%ADD20R,0.04724X0.01969*%
%ADD21R,0.03900X0.01600*%
%ADD22R,0.06800X0.03900*%
%ADD23C,0.01102*%
%ADD24R,0.05709X0.05709*%
%ADD25R,0.03346X0.03543*%
%ADD26R,0.03543X0.03346*%
%ADD27R,0.07480X0.04331*%
%ADD28C,0.01181*%
D10*
G36*
X0183369Y0044126D02*
X0187544Y0048301D01*
X0188323Y0047522D01*
X0184148Y0043347D01*
X0183369Y0044126D01*
G37*
G36*
X0184761Y0042734D02*
X0188936Y0046909D01*
X0189715Y0046130D01*
X0185540Y0041955D01*
X0184761Y0042734D01*
G37*
G36*
X0186153Y0041342D02*
X0190328Y0045517D01*
X0191107Y0044738D01*
X0186932Y0040563D01*
X0186153Y0041342D01*
G37*
G36*
X0187545Y0039950D02*
X0191720Y0044125D01*
X0192499Y0043346D01*
X0188324Y0039171D01*
X0187545Y0039950D01*
G37*
G36*
X0188937Y0038558D02*
X0193112Y0042733D01*
X0193891Y0041954D01*
X0189716Y0037779D01*
X0188937Y0038558D01*
G37*
G36*
X0190329Y0037166D02*
X0194504Y0041341D01*
X0195283Y0040562D01*
X0191108Y0036387D01*
X0190329Y0037166D01*
G37*
G36*
X0191721Y0035775D02*
X0195896Y0039950D01*
X0196675Y0039171D01*
X0192500Y0034996D01*
X0191721Y0035775D01*
G37*
G36*
X0193113Y0034383D02*
X0197288Y0038558D01*
X0198067Y0037779D01*
X0193892Y0033604D01*
X0193113Y0034383D01*
G37*
G36*
X0194505Y0032991D02*
X0198680Y0037166D01*
X0199459Y0036387D01*
X0195284Y0032212D01*
X0194505Y0032991D01*
G37*
G36*
X0195897Y0031599D02*
X0200072Y0035774D01*
X0200851Y0034995D01*
X0196676Y0030820D01*
X0195897Y0031599D01*
G37*
G36*
X0197289Y0030207D02*
X0201464Y0034382D01*
X0202243Y0033603D01*
X0198068Y0029428D01*
X0197289Y0030207D01*
G37*
G36*
X0198680Y0028815D02*
X0202855Y0032990D01*
X0203634Y0032211D01*
X0199459Y0028036D01*
X0198680Y0028815D01*
G37*
G36*
X0211207Y0028036D02*
X0207032Y0032211D01*
X0207811Y0032990D01*
X0211986Y0028815D01*
X0211207Y0028036D01*
G37*
G36*
X0212599Y0029428D02*
X0208424Y0033603D01*
X0209203Y0034382D01*
X0213378Y0030207D01*
X0212599Y0029428D01*
G37*
G36*
X0213991Y0030820D02*
X0209816Y0034995D01*
X0210595Y0035774D01*
X0214770Y0031599D01*
X0213991Y0030820D01*
G37*
G36*
X0215383Y0032212D02*
X0211208Y0036387D01*
X0211987Y0037166D01*
X0216162Y0032991D01*
X0215383Y0032212D01*
G37*
G36*
X0216775Y0033604D02*
X0212600Y0037779D01*
X0213379Y0038558D01*
X0217554Y0034383D01*
X0216775Y0033604D01*
G37*
G36*
X0218167Y0034996D02*
X0213992Y0039171D01*
X0214771Y0039950D01*
X0218946Y0035775D01*
X0218167Y0034996D01*
G37*
G36*
X0219559Y0036387D02*
X0215384Y0040562D01*
X0216163Y0041341D01*
X0220338Y0037166D01*
X0219559Y0036387D01*
G37*
G36*
X0220951Y0037779D02*
X0216776Y0041954D01*
X0217555Y0042733D01*
X0221730Y0038558D01*
X0220951Y0037779D01*
G37*
G36*
X0222343Y0039171D02*
X0218168Y0043346D01*
X0218947Y0044125D01*
X0223122Y0039950D01*
X0222343Y0039171D01*
G37*
G36*
X0223735Y0040563D02*
X0219560Y0044738D01*
X0220339Y0045517D01*
X0224514Y0041342D01*
X0223735Y0040563D01*
G37*
G36*
X0225127Y0041955D02*
X0220952Y0046130D01*
X0221731Y0046909D01*
X0225906Y0042734D01*
X0225127Y0041955D01*
G37*
G36*
X0226519Y0043347D02*
X0222344Y0047522D01*
X0223123Y0048301D01*
X0227298Y0044126D01*
X0226519Y0043347D01*
G37*
G36*
X0227298Y0055874D02*
X0223123Y0051699D01*
X0222344Y0052478D01*
X0226519Y0056653D01*
X0227298Y0055874D01*
G37*
G36*
X0225906Y0057266D02*
X0221731Y0053091D01*
X0220952Y0053870D01*
X0225127Y0058045D01*
X0225906Y0057266D01*
G37*
G36*
X0224514Y0058658D02*
X0220339Y0054483D01*
X0219560Y0055262D01*
X0223735Y0059437D01*
X0224514Y0058658D01*
G37*
G36*
X0223122Y0060050D02*
X0218947Y0055875D01*
X0218168Y0056654D01*
X0222343Y0060829D01*
X0223122Y0060050D01*
G37*
G36*
X0221730Y0061442D02*
X0217555Y0057267D01*
X0216776Y0058046D01*
X0220951Y0062221D01*
X0221730Y0061442D01*
G37*
G36*
X0220338Y0062834D02*
X0216163Y0058659D01*
X0215384Y0059438D01*
X0219559Y0063613D01*
X0220338Y0062834D01*
G37*
G36*
X0218946Y0064225D02*
X0214771Y0060050D01*
X0213992Y0060829D01*
X0218167Y0065004D01*
X0218946Y0064225D01*
G37*
G36*
X0217554Y0065617D02*
X0213379Y0061442D01*
X0212600Y0062221D01*
X0216775Y0066396D01*
X0217554Y0065617D01*
G37*
G36*
X0216162Y0067009D02*
X0211987Y0062834D01*
X0211208Y0063613D01*
X0215383Y0067788D01*
X0216162Y0067009D01*
G37*
G36*
X0214770Y0068401D02*
X0210595Y0064226D01*
X0209816Y0065005D01*
X0213991Y0069180D01*
X0214770Y0068401D01*
G37*
G36*
X0213378Y0069793D02*
X0209203Y0065618D01*
X0208424Y0066397D01*
X0212599Y0070572D01*
X0213378Y0069793D01*
G37*
G36*
X0211986Y0071185D02*
X0207811Y0067010D01*
X0207032Y0067789D01*
X0211207Y0071964D01*
X0211986Y0071185D01*
G37*
G36*
X0199459Y0071964D02*
X0203634Y0067789D01*
X0202855Y0067010D01*
X0198680Y0071185D01*
X0199459Y0071964D01*
G37*
G36*
X0198068Y0070572D02*
X0202243Y0066397D01*
X0201464Y0065618D01*
X0197289Y0069793D01*
X0198068Y0070572D01*
G37*
G36*
X0196676Y0069180D02*
X0200851Y0065005D01*
X0200072Y0064226D01*
X0195897Y0068401D01*
X0196676Y0069180D01*
G37*
G36*
X0195284Y0067788D02*
X0199459Y0063613D01*
X0198680Y0062834D01*
X0194505Y0067009D01*
X0195284Y0067788D01*
G37*
G36*
X0193892Y0066396D02*
X0198067Y0062221D01*
X0197288Y0061442D01*
X0193113Y0065617D01*
X0193892Y0066396D01*
G37*
G36*
X0192500Y0065004D02*
X0196675Y0060829D01*
X0195896Y0060050D01*
X0191721Y0064225D01*
X0192500Y0065004D01*
G37*
G36*
X0191108Y0063613D02*
X0195283Y0059438D01*
X0194504Y0058659D01*
X0190329Y0062834D01*
X0191108Y0063613D01*
G37*
G36*
X0189716Y0062221D02*
X0193891Y0058046D01*
X0193112Y0057267D01*
X0188937Y0061442D01*
X0189716Y0062221D01*
G37*
G36*
X0188324Y0060829D02*
X0192499Y0056654D01*
X0191720Y0055875D01*
X0187545Y0060050D01*
X0188324Y0060829D01*
G37*
G36*
X0186932Y0059437D02*
X0191107Y0055262D01*
X0190328Y0054483D01*
X0186153Y0058658D01*
X0186932Y0059437D01*
G37*
G36*
X0185540Y0058045D02*
X0189715Y0053870D01*
X0188936Y0053091D01*
X0184761Y0057266D01*
X0185540Y0058045D01*
G37*
G36*
X0184148Y0056653D02*
X0188323Y0052478D01*
X0187544Y0051699D01*
X0183369Y0055874D01*
X0184148Y0056653D01*
G37*
D11*
X0167952Y0069760D03*
X0157715Y0069760D03*
X0157715Y0073500D03*
X0157715Y0077240D03*
X0167952Y0077240D03*
D12*
X0166680Y0084000D03*
X0159987Y0084000D03*
X0162487Y0063500D03*
X0169180Y0063500D03*
X0157680Y0031000D03*
X0150987Y0031000D03*
D13*
X0116109Y0020260D03*
X0125558Y0020260D03*
X0125558Y0024000D03*
X0116109Y0024000D03*
X0116109Y0027740D03*
X0125558Y0027740D03*
D14*
X0117333Y0038748D03*
X0114735Y0038748D03*
X0112136Y0038748D03*
X0109538Y0038748D03*
X0109538Y0050500D03*
X0112136Y0050500D03*
X0114735Y0050500D03*
X0117333Y0050500D03*
D15*
X0151774Y0037500D03*
X0156892Y0037500D03*
G36*
X0169298Y0036467D02*
X0171247Y0038416D01*
X0173750Y0035913D01*
X0171801Y0033964D01*
X0169298Y0036467D01*
G37*
G36*
X0172917Y0040087D02*
X0174866Y0042036D01*
X0177369Y0039533D01*
X0175420Y0037584D01*
X0172917Y0040087D01*
G37*
G36*
X0187417Y0027587D02*
X0189366Y0029536D01*
X0191869Y0027033D01*
X0189920Y0025084D01*
X0187417Y0027587D01*
G37*
G36*
X0183798Y0023967D02*
X0185747Y0025916D01*
X0188250Y0023413D01*
X0186301Y0021464D01*
X0183798Y0023967D01*
G37*
X0156892Y0024500D03*
X0151774Y0024500D03*
X0151774Y0020000D03*
X0156892Y0020000D03*
X0251274Y0021500D03*
X0256392Y0021500D03*
X0265774Y0021500D03*
X0270892Y0021500D03*
X0278274Y0020500D03*
X0283392Y0020500D03*
X0323774Y0023000D03*
X0328892Y0023000D03*
X0346774Y0035000D03*
X0351892Y0035000D03*
X0335392Y0036500D03*
X0330274Y0036500D03*
X0323392Y0044500D03*
X0318274Y0044500D03*
X0318274Y0053500D03*
X0323392Y0053500D03*
X0275892Y0066000D03*
X0270774Y0066000D03*
X0254392Y0066000D03*
X0249274Y0066000D03*
X0249274Y0061500D03*
X0254392Y0061500D03*
X0195892Y0081500D03*
X0190774Y0081500D03*
G36*
X0182801Y0075536D02*
X0184750Y0073587D01*
X0182247Y0071084D01*
X0180298Y0073033D01*
X0182801Y0075536D01*
G37*
G36*
X0179301Y0072036D02*
X0181250Y0070087D01*
X0178747Y0067584D01*
X0176798Y0069533D01*
X0179301Y0072036D01*
G37*
G36*
X0186420Y0071916D02*
X0188369Y0069967D01*
X0185866Y0067464D01*
X0183917Y0069413D01*
X0186420Y0071916D01*
G37*
G36*
X0182920Y0068416D02*
X0184869Y0066467D01*
X0182366Y0063964D01*
X0180417Y0065913D01*
X0182920Y0068416D01*
G37*
D16*
X0214333Y0076441D03*
X0220833Y0076441D03*
X0220833Y0081559D03*
X0214333Y0081559D03*
X0233333Y0056559D03*
X0233333Y0051441D03*
X0229833Y0038059D03*
X0229833Y0032941D03*
X0225333Y0029059D03*
X0225333Y0023941D03*
X0299833Y0031441D03*
X0299833Y0036559D03*
X0318333Y0030559D03*
X0318333Y0025441D03*
X0341333Y0032941D03*
X0341333Y0038059D03*
X0331333Y0048441D03*
X0331333Y0053559D03*
X0312833Y0054059D03*
X0312833Y0048941D03*
D17*
G36*
X0186926Y0033916D02*
X0189709Y0031133D01*
X0184700Y0026124D01*
X0181917Y0028907D01*
X0186926Y0033916D01*
G37*
G36*
X0179966Y0040876D02*
X0182749Y0038093D01*
X0177740Y0033084D01*
X0174957Y0035867D01*
X0179966Y0040876D01*
G37*
D18*
X0235003Y0038882D03*
X0243664Y0038882D03*
X0256022Y0040000D03*
X0256022Y0035000D03*
X0243664Y0033961D03*
X0235003Y0033961D03*
X0235003Y0029039D03*
X0243664Y0029039D03*
X0256022Y0030000D03*
X0256022Y0025000D03*
X0243664Y0024118D03*
X0235003Y0024118D03*
X0279644Y0025000D03*
X0279644Y0030000D03*
X0279644Y0035000D03*
X0279644Y0040000D03*
D19*
X0253707Y0047169D03*
X0250558Y0047169D03*
X0247408Y0047169D03*
X0244259Y0047169D03*
X0241109Y0047169D03*
X0237959Y0047169D03*
X0237959Y0055831D03*
X0241109Y0055831D03*
X0244259Y0055831D03*
X0247408Y0055831D03*
X0250558Y0055831D03*
X0253707Y0055831D03*
D20*
X0254101Y0051500D03*
X0237566Y0051500D03*
D21*
X0144333Y0051900D03*
X0144333Y0049300D03*
X0144333Y0046700D03*
X0132333Y0046700D03*
X0132333Y0049300D03*
X0132333Y0051900D03*
X0132333Y0054500D03*
X0144333Y0054500D03*
D22*
X0140183Y0053050D03*
X0140183Y0048140D03*
D23*
X0282900Y0049079D02*
X0285066Y0049079D01*
X0285066Y0047110D02*
X0282900Y0047110D01*
X0286444Y0045732D02*
X0286444Y0043567D01*
X0288412Y0043567D02*
X0288412Y0045732D01*
X0290381Y0045732D02*
X0290381Y0043567D01*
X0292349Y0043567D02*
X0292349Y0045732D01*
X0294318Y0045732D02*
X0294318Y0043567D01*
X0296286Y0043567D02*
X0296286Y0045732D01*
X0298255Y0045732D02*
X0298255Y0043567D01*
X0300223Y0043567D02*
X0300223Y0045732D01*
X0301601Y0047110D02*
X0303766Y0047110D01*
X0303766Y0049079D02*
X0301601Y0049079D01*
X0301601Y0051047D02*
X0303766Y0051047D01*
X0303766Y0053016D02*
X0301601Y0053016D01*
X0301601Y0054984D02*
X0303766Y0054984D01*
X0303766Y0056953D02*
X0301601Y0056953D01*
X0301601Y0058921D02*
X0303766Y0058921D01*
X0303766Y0060890D02*
X0301601Y0060890D01*
X0300223Y0062268D02*
X0300223Y0064433D01*
X0298255Y0064433D02*
X0298255Y0062268D01*
X0296286Y0062268D02*
X0296286Y0064433D01*
X0294318Y0064433D02*
X0294318Y0062268D01*
X0292349Y0062268D02*
X0292349Y0064433D01*
X0290381Y0064433D02*
X0290381Y0062268D01*
X0288412Y0062268D02*
X0288412Y0064433D01*
X0286444Y0064433D02*
X0286444Y0062268D01*
X0285066Y0060890D02*
X0282900Y0060890D01*
X0282900Y0058921D02*
X0285066Y0058921D01*
X0285066Y0056953D02*
X0282900Y0056953D01*
X0282900Y0054984D02*
X0285066Y0054984D01*
X0285066Y0053016D02*
X0282900Y0053016D01*
X0282900Y0051047D02*
X0285066Y0051047D01*
D24*
X0289888Y0050555D03*
X0296778Y0050555D03*
X0296778Y0057445D03*
X0289888Y0057445D03*
D25*
X0275617Y0057000D03*
X0271050Y0057000D03*
X0271050Y0052500D03*
X0275617Y0052500D03*
X0275617Y0061500D03*
X0271050Y0061500D03*
X0312550Y0074500D03*
X0317117Y0074500D03*
X0318550Y0067000D03*
X0323117Y0067000D03*
X0323117Y0062500D03*
X0318550Y0062500D03*
X0318550Y0058000D03*
X0323117Y0058000D03*
X0323117Y0049000D03*
X0318550Y0049000D03*
X0331050Y0041500D03*
X0335617Y0041500D03*
X0323117Y0036500D03*
X0318550Y0036500D03*
X0331050Y0032000D03*
X0335617Y0032000D03*
X0336050Y0027500D03*
X0340617Y0027500D03*
X0328617Y0027500D03*
X0324050Y0027500D03*
X0336050Y0023000D03*
X0340617Y0023000D03*
X0207617Y0024000D03*
X0203050Y0024000D03*
X0157117Y0042500D03*
X0152550Y0042500D03*
X0152550Y0048000D03*
X0157117Y0048000D03*
X0157117Y0053500D03*
X0152550Y0053500D03*
X0152550Y0059000D03*
X0157117Y0059000D03*
X0143117Y0078500D03*
X0138550Y0078500D03*
X0139550Y0084500D03*
X0144117Y0084500D03*
X0143117Y0026500D03*
X0138550Y0026500D03*
X0138550Y0021000D03*
X0143117Y0021000D03*
D26*
X0289833Y0031717D03*
X0294833Y0031717D03*
X0304833Y0031717D03*
X0304833Y0036283D03*
X0294833Y0036283D03*
X0289833Y0036283D03*
X0346333Y0029283D03*
X0346333Y0024717D03*
X0306833Y0072717D03*
X0302333Y0072717D03*
X0297833Y0072717D03*
X0293333Y0072717D03*
X0288833Y0072717D03*
X0288833Y0077283D03*
X0293333Y0077283D03*
X0297833Y0077283D03*
X0302333Y0077283D03*
X0306833Y0077283D03*
X0280833Y0077217D03*
X0280833Y0081783D03*
X0252833Y0080283D03*
X0252833Y0075717D03*
D27*
X0259550Y0073472D03*
X0274117Y0073472D03*
X0274117Y0082528D03*
X0259550Y0082528D03*
D28*
X0183408Y0082878D02*
X0183408Y0080122D01*
X0183408Y0082878D02*
X0186164Y0082878D01*
X0186164Y0080122D01*
X0183408Y0080122D01*
X0183408Y0081302D02*
X0186164Y0081302D01*
X0186164Y0082482D02*
X0183408Y0082482D01*
X0176503Y0082878D02*
X0176503Y0080122D01*
X0176503Y0082878D02*
X0179259Y0082878D01*
X0179259Y0080122D01*
X0176503Y0080122D01*
X0176503Y0081302D02*
X0179259Y0081302D01*
X0179259Y0082482D02*
X0176503Y0082482D01*
M02*
