G75*
%MOIN*%
%OFA0B0*%
%FSLAX25Y25*%
%IPPOS*%
%LPD*%
%AMOC8*
5,1,8,0,0,1.08239X$1,22.5*
%
%ADD10C,0.03000*%
%ADD11C,0.06000*%
%ADD12C,0.01981*%
%ADD13C,0.02300*%
%ADD14C,0.01000*%
D10*
X0153333Y0074000D03*
X0225833Y0075000D03*
X0230833Y0075000D03*
X0235833Y0075000D03*
X0240833Y0075000D03*
X0245833Y0075000D03*
X0245833Y0080000D03*
X0240833Y0080000D03*
X0235833Y0080000D03*
X0230833Y0080000D03*
X0225833Y0080000D03*
D11*
X0141333Y0072500D03*
X0131333Y0072500D03*
X0129833Y0033500D03*
X0139833Y0033500D03*
D12*
X0289396Y0050063D03*
X0293333Y0050063D03*
X0297270Y0050063D03*
X0297270Y0054000D03*
X0293333Y0054000D03*
X0289396Y0054000D03*
X0289396Y0057937D03*
X0293333Y0057937D03*
X0297270Y0057937D03*
D13*
X0279333Y0058000D03*
X0267833Y0052500D03*
X0258833Y0056000D03*
X0260833Y0059000D03*
X0242333Y0059000D03*
X0237833Y0059000D03*
X0233833Y0062000D03*
X0227833Y0061000D03*
X0230833Y0056500D03*
X0210833Y0055500D03*
X0208333Y0051500D03*
X0205833Y0051500D03*
X0203333Y0051500D03*
X0203333Y0049000D03*
X0205833Y0049000D03*
X0208333Y0049000D03*
X0208333Y0046500D03*
X0205833Y0046500D03*
X0203333Y0046500D03*
X0195833Y0044000D03*
X0190833Y0049000D03*
X0198833Y0055500D03*
X0207833Y0060000D03*
X0204833Y0061500D03*
X0185333Y0062500D03*
X0177333Y0064500D03*
X0173333Y0064000D03*
X0156833Y0065500D03*
X0154333Y0064500D03*
X0154333Y0067000D03*
X0135833Y0061000D03*
X0133333Y0061000D03*
X0133333Y0058500D03*
X0135833Y0058500D03*
X0127833Y0055000D03*
X0148333Y0059500D03*
X0148833Y0055000D03*
X0149833Y0048000D03*
X0132333Y0044500D03*
X0130833Y0041500D03*
X0128333Y0041500D03*
X0128333Y0039000D03*
X0130833Y0039000D03*
X0148833Y0042000D03*
X0149333Y0038000D03*
X0145833Y0031500D03*
X0148333Y0026000D03*
X0163333Y0028500D03*
X0172833Y0028500D03*
X0191833Y0032000D03*
X0188833Y0035500D03*
X0204333Y0037000D03*
X0210333Y0039500D03*
X0224333Y0038000D03*
X0227833Y0039000D03*
X0232833Y0045000D03*
X0218833Y0048000D03*
X0258333Y0045000D03*
X0266333Y0043000D03*
X0276833Y0039000D03*
X0273333Y0037000D03*
X0263333Y0036000D03*
X0276333Y0034000D03*
X0263333Y0029000D03*
X0270333Y0027000D03*
X0274833Y0027000D03*
X0259833Y0021000D03*
X0248333Y0021000D03*
X0230833Y0030000D03*
X0240333Y0030500D03*
X0218333Y0030500D03*
X0207333Y0028500D03*
X0203333Y0028000D03*
X0165333Y0034500D03*
X0164333Y0042000D03*
X0130833Y0026500D03*
X0120833Y0021500D03*
X0147833Y0019500D03*
X0102833Y0050500D03*
X0099333Y0050500D03*
X0099333Y0056000D03*
X0102833Y0056000D03*
X0118333Y0064000D03*
X0115833Y0065500D03*
X0118333Y0067000D03*
X0120833Y0065500D03*
X0127833Y0065500D03*
X0130833Y0066000D03*
X0128833Y0068000D03*
X0120833Y0068500D03*
X0118333Y0070000D03*
X0115833Y0068500D03*
X0120833Y0071500D03*
X0120833Y0078500D03*
X0148833Y0081000D03*
X0167833Y0074500D03*
X0170333Y0074500D03*
X0172833Y0074500D03*
X0175333Y0074500D03*
X0175333Y0072000D03*
X0172833Y0072000D03*
X0192833Y0072500D03*
X0200833Y0075500D03*
X0206833Y0075500D03*
X0220833Y0074000D03*
X0225833Y0068000D03*
X0262333Y0068000D03*
X0266833Y0068000D03*
X0281333Y0075000D03*
X0295333Y0070500D03*
X0316333Y0068000D03*
X0333333Y0064000D03*
X0325833Y0045000D03*
X0305833Y0038500D03*
X0308833Y0032500D03*
X0324333Y0032000D03*
X0350833Y0022500D03*
X0352833Y0027000D03*
X0328333Y0019000D03*
X0286833Y0019000D03*
X0350833Y0044000D03*
X0263333Y0048000D03*
X0252833Y0083000D03*
X0213583Y0086250D03*
X0178333Y0086000D03*
X0307333Y0083000D03*
D14*
X0087820Y0089461D02*
X0087346Y0016000D01*
X0372034Y0016000D01*
X0372034Y0089461D01*
X0087820Y0089461D01*
X0087817Y0088888D02*
X0212505Y0088888D01*
X0213016Y0089100D02*
X0211969Y0088666D01*
X0211167Y0087864D01*
X0210733Y0086817D01*
X0210733Y0085683D01*
X0211167Y0084636D01*
X0211969Y0083834D01*
X0213016Y0083400D01*
X0214150Y0083400D01*
X0215198Y0083834D01*
X0215999Y0084636D01*
X0216433Y0085683D01*
X0216433Y0086817D01*
X0215999Y0087864D01*
X0215198Y0088666D01*
X0214150Y0089100D01*
X0213016Y0089100D01*
X0214661Y0088888D02*
X0372034Y0088888D01*
X0372034Y0087890D02*
X0363997Y0087890D01*
X0362524Y0088500D02*
X0359143Y0088500D01*
X0356018Y0087206D01*
X0353627Y0084815D01*
X0352333Y0081691D01*
X0352333Y0078309D01*
X0353627Y0075185D01*
X0356018Y0072794D01*
X0359143Y0071500D01*
X0362524Y0071500D01*
X0365648Y0072794D01*
X0368039Y0075185D01*
X0369333Y0078309D01*
X0369333Y0081691D01*
X0368039Y0084815D01*
X0365648Y0087206D01*
X0362524Y0088500D01*
X0365963Y0086891D02*
X0372034Y0086891D01*
X0372034Y0085893D02*
X0366961Y0085893D01*
X0367960Y0084894D02*
X0372034Y0084894D01*
X0372034Y0083896D02*
X0368420Y0083896D01*
X0368834Y0082897D02*
X0372034Y0082897D01*
X0372034Y0081899D02*
X0369247Y0081899D01*
X0369333Y0080900D02*
X0372034Y0080900D01*
X0372034Y0079902D02*
X0369333Y0079902D01*
X0369333Y0078903D02*
X0372034Y0078903D01*
X0372034Y0077905D02*
X0369166Y0077905D01*
X0368752Y0076906D02*
X0372034Y0076906D01*
X0372034Y0075908D02*
X0368339Y0075908D01*
X0367763Y0074909D02*
X0372034Y0074909D01*
X0372034Y0073911D02*
X0366765Y0073911D01*
X0365766Y0072912D02*
X0372034Y0072912D01*
X0372034Y0071914D02*
X0363523Y0071914D01*
X0358144Y0071914D02*
X0241744Y0071914D01*
X0241470Y0071800D02*
X0242646Y0072287D01*
X0243546Y0073187D01*
X0243974Y0074220D01*
X0244233Y0073772D01*
X0244605Y0073400D01*
X0245061Y0073136D01*
X0245570Y0073000D01*
X0245833Y0073000D01*
X0245833Y0075000D01*
X0245833Y0075000D01*
X0245833Y0073000D01*
X0246097Y0073000D01*
X0246605Y0073136D01*
X0247061Y0073400D01*
X0247434Y0073772D01*
X0247697Y0074228D01*
X0247833Y0074737D01*
X0247833Y0075000D01*
X0247833Y0075263D01*
X0247697Y0075772D01*
X0247434Y0076228D01*
X0247061Y0076600D01*
X0246613Y0076859D01*
X0247646Y0077287D01*
X0248546Y0078187D01*
X0249033Y0079363D01*
X0249033Y0080637D01*
X0248546Y0081813D01*
X0247646Y0082713D01*
X0246470Y0083200D01*
X0245197Y0083200D01*
X0244021Y0082713D01*
X0243333Y0082025D01*
X0242646Y0082713D01*
X0241470Y0083200D01*
X0240197Y0083200D01*
X0239021Y0082713D01*
X0238333Y0082025D01*
X0237646Y0082713D01*
X0236470Y0083200D01*
X0235197Y0083200D01*
X0234021Y0082713D01*
X0233333Y0082025D01*
X0232646Y0082713D01*
X0231470Y0083200D01*
X0230197Y0083200D01*
X0229021Y0082713D01*
X0228333Y0082025D01*
X0227646Y0082713D01*
X0226470Y0083200D01*
X0225197Y0083200D01*
X0224021Y0082713D01*
X0223120Y0081813D01*
X0222633Y0080637D01*
X0222633Y0079363D01*
X0223120Y0078187D01*
X0223808Y0077500D01*
X0223120Y0076813D01*
X0222633Y0075637D01*
X0222633Y0074363D01*
X0223120Y0073187D01*
X0224021Y0072287D01*
X0225197Y0071800D01*
X0226470Y0071800D01*
X0227646Y0072287D01*
X0228333Y0072975D01*
X0229021Y0072287D01*
X0230197Y0071800D01*
X0231470Y0071800D01*
X0232646Y0072287D01*
X0233333Y0072975D01*
X0234021Y0072287D01*
X0235197Y0071800D01*
X0236470Y0071800D01*
X0237646Y0072287D01*
X0238333Y0072975D01*
X0239021Y0072287D01*
X0240197Y0071800D01*
X0241470Y0071800D01*
X0239922Y0071914D02*
X0236744Y0071914D01*
X0234922Y0071914D02*
X0231744Y0071914D01*
X0229922Y0071914D02*
X0226744Y0071914D01*
X0226400Y0070850D02*
X0225266Y0070850D01*
X0224219Y0070416D01*
X0223417Y0069614D01*
X0222983Y0068567D01*
X0222983Y0067433D01*
X0223417Y0066386D01*
X0224219Y0065584D01*
X0225266Y0065150D01*
X0226400Y0065150D01*
X0227448Y0065584D01*
X0228249Y0066386D01*
X0228683Y0067433D01*
X0228683Y0068567D01*
X0228249Y0069614D01*
X0227448Y0070416D01*
X0226400Y0070850D01*
X0227947Y0069917D02*
X0264719Y0069917D01*
X0264417Y0069614D02*
X0265219Y0070416D01*
X0266266Y0070850D01*
X0267400Y0070850D01*
X0268448Y0070416D01*
X0269249Y0069614D01*
X0269683Y0068567D01*
X0269683Y0067433D01*
X0269249Y0066386D01*
X0268448Y0065584D01*
X0267400Y0065150D01*
X0266266Y0065150D01*
X0265219Y0065584D01*
X0264417Y0066386D01*
X0263983Y0067433D01*
X0263983Y0068567D01*
X0264417Y0069614D01*
X0264129Y0068918D02*
X0228538Y0068918D01*
X0228683Y0067920D02*
X0263983Y0067920D01*
X0264195Y0066921D02*
X0228471Y0066921D01*
X0227786Y0065923D02*
X0264880Y0065923D01*
X0268786Y0065923D02*
X0331225Y0065923D01*
X0330917Y0065614D02*
X0331719Y0066416D01*
X0332766Y0066850D01*
X0333900Y0066850D01*
X0334948Y0066416D01*
X0335749Y0065614D01*
X0336183Y0064567D01*
X0336183Y0063433D01*
X0335749Y0062386D01*
X0334948Y0061584D01*
X0333900Y0061150D01*
X0332766Y0061150D01*
X0331719Y0061584D01*
X0330917Y0062386D01*
X0330483Y0063433D01*
X0330483Y0064567D01*
X0330917Y0065614D01*
X0330631Y0064924D02*
X0176035Y0064924D01*
X0176183Y0064567D02*
X0175749Y0065614D01*
X0174948Y0066416D01*
X0173900Y0066850D01*
X0172766Y0066850D01*
X0171719Y0066416D01*
X0170917Y0065614D01*
X0170483Y0064567D01*
X0170483Y0063433D01*
X0170917Y0062386D01*
X0171719Y0061584D01*
X0172766Y0061150D01*
X0173900Y0061150D01*
X0174948Y0061584D01*
X0175749Y0062386D01*
X0176183Y0063433D01*
X0176183Y0064567D01*
X0176183Y0063926D02*
X0203242Y0063926D01*
X0203219Y0063916D02*
X0202417Y0063114D01*
X0201983Y0062067D01*
X0201983Y0060933D01*
X0202417Y0059886D01*
X0203219Y0059084D01*
X0204266Y0058650D01*
X0205308Y0058650D01*
X0205417Y0058386D01*
X0206219Y0057584D01*
X0207266Y0057150D01*
X0208400Y0057150D01*
X0208490Y0057187D01*
X0208417Y0057114D01*
X0207983Y0056067D01*
X0207983Y0054933D01*
X0208225Y0054350D01*
X0207766Y0054350D01*
X0207083Y0054067D01*
X0206400Y0054350D01*
X0205266Y0054350D01*
X0204583Y0054067D01*
X0203900Y0054350D01*
X0202766Y0054350D01*
X0201719Y0053916D01*
X0200917Y0053114D01*
X0200483Y0052067D01*
X0200483Y0050933D01*
X0200766Y0050250D01*
X0200483Y0049567D01*
X0200483Y0048433D01*
X0200766Y0047750D01*
X0200483Y0047067D01*
X0200483Y0045933D01*
X0200917Y0044886D01*
X0201719Y0044084D01*
X0202766Y0043650D01*
X0203900Y0043650D01*
X0204583Y0043933D01*
X0205266Y0043650D01*
X0206400Y0043650D01*
X0207083Y0043933D01*
X0207766Y0043650D01*
X0208900Y0043650D01*
X0209948Y0044084D01*
X0210749Y0044886D01*
X0211183Y0045933D01*
X0211183Y0047067D01*
X0210900Y0047750D01*
X0211183Y0048433D01*
X0211183Y0049567D01*
X0210900Y0050250D01*
X0211183Y0050933D01*
X0211183Y0052067D01*
X0210942Y0052650D01*
X0211400Y0052650D01*
X0212448Y0053084D01*
X0213249Y0053886D01*
X0213683Y0054933D01*
X0213683Y0056067D01*
X0213249Y0057114D01*
X0212448Y0057916D01*
X0211400Y0058350D01*
X0210266Y0058350D01*
X0210177Y0058313D01*
X0210249Y0058386D01*
X0210683Y0059433D01*
X0210683Y0060567D01*
X0210249Y0061614D01*
X0209448Y0062416D01*
X0208400Y0062850D01*
X0207359Y0062850D01*
X0207249Y0063114D01*
X0206448Y0063916D01*
X0205400Y0064350D01*
X0204266Y0064350D01*
X0203219Y0063916D01*
X0202340Y0062927D02*
X0175974Y0062927D01*
X0175292Y0061929D02*
X0201983Y0061929D01*
X0201985Y0060930D02*
X0150826Y0060930D01*
X0150749Y0061114D02*
X0149948Y0061916D01*
X0148900Y0062350D01*
X0147766Y0062350D01*
X0146719Y0061916D01*
X0145917Y0061114D01*
X0145483Y0060067D01*
X0145483Y0058933D01*
X0145917Y0057886D01*
X0146719Y0057084D01*
X0146838Y0057035D01*
X0146417Y0056614D01*
X0145983Y0055567D01*
X0145983Y0054433D01*
X0146417Y0053386D01*
X0147219Y0052584D01*
X0148266Y0052150D01*
X0149400Y0052150D01*
X0150448Y0052584D01*
X0151249Y0053386D01*
X0151683Y0054433D01*
X0151683Y0055567D01*
X0151249Y0056614D01*
X0150448Y0057416D01*
X0150329Y0057465D01*
X0150749Y0057886D01*
X0151183Y0058933D01*
X0203583Y0058933D01*
X0202398Y0059932D02*
X0151183Y0059932D01*
X0151183Y0060067D02*
X0150749Y0061114D01*
X0151183Y0060067D02*
X0151183Y0058933D01*
X0150770Y0057934D02*
X0197263Y0057934D01*
X0197219Y0057916D02*
X0196417Y0057114D01*
X0195983Y0056067D01*
X0195983Y0054933D01*
X0196417Y0053886D01*
X0197219Y0053084D01*
X0198266Y0052650D01*
X0199400Y0052650D01*
X0200448Y0053084D01*
X0201249Y0053886D01*
X0201683Y0054933D01*
X0201683Y0056067D01*
X0201249Y0057114D01*
X0200448Y0057916D01*
X0199400Y0058350D01*
X0198266Y0058350D01*
X0197219Y0057916D01*
X0196343Y0056936D02*
X0180269Y0056936D01*
X0179059Y0057437D02*
X0175914Y0057437D01*
X0173009Y0056233D01*
X0170785Y0054010D01*
X0169581Y0051104D01*
X0169581Y0047959D01*
X0170785Y0045053D01*
X0173009Y0042830D01*
X0175914Y0041626D01*
X0179059Y0041626D01*
X0181965Y0042830D01*
X0184189Y0045053D01*
X0185392Y0047959D01*
X0185392Y0051104D01*
X0184189Y0054010D01*
X0181965Y0056233D01*
X0179059Y0057437D01*
X0182261Y0055937D02*
X0195983Y0055937D01*
X0195983Y0054939D02*
X0183259Y0054939D01*
X0184217Y0053940D02*
X0196394Y0053940D01*
X0197562Y0052942D02*
X0184631Y0052942D01*
X0185045Y0051943D02*
X0200483Y0051943D01*
X0200483Y0050945D02*
X0192919Y0050945D01*
X0193249Y0050614D02*
X0192448Y0051416D01*
X0191400Y0051850D01*
X0190266Y0051850D01*
X0189219Y0051416D01*
X0188417Y0050614D01*
X0187983Y0049567D01*
X0187983Y0048433D01*
X0188417Y0047386D01*
X0189219Y0046584D01*
X0190266Y0046150D01*
X0191400Y0046150D01*
X0192448Y0046584D01*
X0193249Y0047386D01*
X0193683Y0048433D01*
X0193683Y0049567D01*
X0193249Y0050614D01*
X0193526Y0049946D02*
X0200641Y0049946D01*
X0200483Y0048948D02*
X0193683Y0048948D01*
X0193483Y0047949D02*
X0200684Y0047949D01*
X0200483Y0046951D02*
X0192815Y0046951D01*
X0193755Y0045952D02*
X0184561Y0045952D01*
X0184975Y0046951D02*
X0188852Y0046951D01*
X0188184Y0047949D02*
X0185388Y0047949D01*
X0185392Y0048948D02*
X0187983Y0048948D01*
X0188141Y0049946D02*
X0185392Y0049946D01*
X0185392Y0050945D02*
X0188748Y0050945D01*
X0194219Y0046416D02*
X0195266Y0046850D01*
X0196400Y0046850D01*
X0197448Y0046416D01*
X0198249Y0045614D01*
X0198683Y0044567D01*
X0198683Y0043433D01*
X0198249Y0042386D01*
X0197448Y0041584D01*
X0196400Y0041150D01*
X0195266Y0041150D01*
X0194219Y0041584D01*
X0193417Y0042386D01*
X0192983Y0043433D01*
X0192983Y0044567D01*
X0193417Y0045614D01*
X0194219Y0046416D01*
X0193144Y0044954D02*
X0184089Y0044954D01*
X0183091Y0043955D02*
X0192983Y0043955D01*
X0193181Y0042957D02*
X0182092Y0042957D01*
X0179862Y0041958D02*
X0193845Y0041958D01*
X0197822Y0041958D02*
X0263680Y0041958D01*
X0263483Y0042433D02*
X0263917Y0041386D01*
X0264719Y0040584D01*
X0265766Y0040150D01*
X0266900Y0040150D01*
X0267948Y0040584D01*
X0268749Y0041386D01*
X0269183Y0042433D01*
X0269183Y0043567D01*
X0268749Y0044614D01*
X0267948Y0045416D01*
X0266900Y0045850D01*
X0265766Y0045850D01*
X0264719Y0045416D01*
X0263917Y0044614D01*
X0263483Y0043567D01*
X0263483Y0042433D01*
X0263483Y0042957D02*
X0260321Y0042957D01*
X0259948Y0042584D02*
X0260749Y0043386D01*
X0261183Y0044433D01*
X0261183Y0045567D01*
X0260749Y0046614D01*
X0259948Y0047416D01*
X0258900Y0047850D01*
X0257766Y0047850D01*
X0256719Y0047416D01*
X0255917Y0046614D01*
X0255483Y0045567D01*
X0255483Y0044433D01*
X0255917Y0043386D01*
X0256719Y0042584D01*
X0257766Y0042150D01*
X0258900Y0042150D01*
X0259948Y0042584D01*
X0260985Y0043955D02*
X0263644Y0043955D01*
X0264257Y0044954D02*
X0261183Y0044954D01*
X0261719Y0045584D02*
X0262766Y0045150D01*
X0263900Y0045150D01*
X0264948Y0045584D01*
X0265749Y0046386D01*
X0266183Y0047433D01*
X0266183Y0048567D01*
X0265749Y0049614D01*
X0264948Y0050416D01*
X0264351Y0050663D01*
X0264550Y0051143D01*
X0264550Y0052565D01*
X0264006Y0053879D01*
X0263000Y0054885D01*
X0261686Y0055429D01*
X0261682Y0055429D01*
X0261683Y0055433D01*
X0261683Y0056567D01*
X0261249Y0057614D01*
X0260448Y0058416D01*
X0259400Y0058850D01*
X0258266Y0058850D01*
X0257219Y0058416D01*
X0256417Y0057614D01*
X0255983Y0056567D01*
X0255983Y0055433D01*
X0256417Y0054386D01*
X0257219Y0053584D01*
X0257734Y0053371D01*
X0257400Y0052565D01*
X0257400Y0051143D01*
X0257944Y0049829D01*
X0258950Y0048824D01*
X0260264Y0048280D01*
X0260483Y0048280D01*
X0260483Y0047433D01*
X0260917Y0046386D01*
X0261719Y0045584D01*
X0261350Y0045952D02*
X0261024Y0045952D01*
X0260683Y0046951D02*
X0260413Y0046951D01*
X0260483Y0047949D02*
X0221683Y0047949D01*
X0221683Y0047433D02*
X0221683Y0048567D01*
X0221249Y0049614D01*
X0220448Y0050416D01*
X0219400Y0050850D01*
X0218266Y0050850D01*
X0217219Y0050416D01*
X0216417Y0049614D01*
X0215983Y0048567D01*
X0215983Y0047433D01*
X0216417Y0046386D01*
X0217219Y0045584D01*
X0218266Y0045150D01*
X0219400Y0045150D01*
X0220448Y0045584D01*
X0221249Y0046386D01*
X0221683Y0047433D01*
X0221484Y0046951D02*
X0230754Y0046951D01*
X0230417Y0046614D02*
X0229983Y0045567D01*
X0229983Y0044433D01*
X0230417Y0043386D01*
X0231219Y0042584D01*
X0232266Y0042150D01*
X0233400Y0042150D01*
X0234448Y0042584D01*
X0235249Y0043386D01*
X0235683Y0044433D01*
X0235683Y0045567D01*
X0235249Y0046614D01*
X0234448Y0047416D01*
X0233400Y0047850D01*
X0232266Y0047850D01*
X0231219Y0047416D01*
X0230417Y0046614D01*
X0230143Y0045952D02*
X0220816Y0045952D01*
X0216850Y0045952D02*
X0211183Y0045952D01*
X0211183Y0046951D02*
X0216183Y0046951D01*
X0215983Y0047949D02*
X0210983Y0047949D01*
X0211183Y0048948D02*
X0216141Y0048948D01*
X0216749Y0049946D02*
X0211026Y0049946D01*
X0211183Y0050945D02*
X0257482Y0050945D01*
X0257400Y0051943D02*
X0211183Y0051943D01*
X0212105Y0052942D02*
X0257556Y0052942D01*
X0256862Y0053940D02*
X0213272Y0053940D01*
X0213683Y0054939D02*
X0256188Y0054939D01*
X0255983Y0055937D02*
X0213683Y0055937D01*
X0213323Y0056936D02*
X0240367Y0056936D01*
X0240719Y0056584D02*
X0241766Y0056150D01*
X0242900Y0056150D01*
X0243948Y0056584D01*
X0244749Y0057386D01*
X0245183Y0058433D01*
X0245183Y0059567D01*
X0244749Y0060614D01*
X0243948Y0061416D01*
X0242900Y0061850D01*
X0241766Y0061850D01*
X0240719Y0061416D01*
X0239917Y0060614D01*
X0239483Y0059567D01*
X0239483Y0058433D01*
X0239917Y0057386D01*
X0240719Y0056584D01*
X0239690Y0057934D02*
X0212403Y0057934D01*
X0210476Y0058933D02*
X0225870Y0058933D01*
X0225833Y0059000D02*
X0228333Y0056500D01*
X0230833Y0056500D01*
X0229448Y0058584D02*
X0230249Y0059386D01*
X0230683Y0060433D01*
X0230683Y0061567D01*
X0230249Y0062614D01*
X0229448Y0063416D01*
X0228400Y0063850D01*
X0227266Y0063850D01*
X0226219Y0063416D01*
X0225417Y0062614D01*
X0224983Y0061567D01*
X0224983Y0060433D01*
X0225417Y0059386D01*
X0226219Y0058584D01*
X0227266Y0058150D01*
X0228400Y0058150D01*
X0229448Y0058584D01*
X0229797Y0058933D02*
X0239483Y0058933D01*
X0239634Y0059932D02*
X0235795Y0059932D01*
X0235448Y0059584D02*
X0236249Y0060386D01*
X0236683Y0061433D01*
X0236683Y0062567D01*
X0236249Y0063614D01*
X0235448Y0064416D01*
X0234400Y0064850D01*
X0233266Y0064850D01*
X0232219Y0064416D01*
X0231417Y0063614D01*
X0230983Y0062567D01*
X0230983Y0061433D01*
X0231417Y0060386D01*
X0232219Y0059584D01*
X0233266Y0059150D01*
X0234400Y0059150D01*
X0235448Y0059584D01*
X0236475Y0060930D02*
X0240233Y0060930D01*
X0240333Y0062000D02*
X0238333Y0060000D01*
X0237833Y0059000D01*
X0238333Y0043500D01*
X0233833Y0039000D01*
X0227833Y0039000D01*
X0227183Y0038567D02*
X0226749Y0039614D01*
X0225948Y0040416D01*
X0224900Y0040850D01*
X0223766Y0040850D01*
X0222719Y0040416D01*
X0221917Y0039614D01*
X0221483Y0038567D01*
X0221483Y0037433D01*
X0221917Y0036386D01*
X0222719Y0035584D01*
X0223766Y0035150D01*
X0224900Y0035150D01*
X0225948Y0035584D01*
X0226749Y0036386D01*
X0227183Y0037433D01*
X0227183Y0038567D01*
X0227019Y0038963D02*
X0271266Y0038963D01*
X0270917Y0038614D02*
X0270483Y0037567D01*
X0270483Y0036433D01*
X0270917Y0035386D01*
X0271719Y0034584D01*
X0272766Y0034150D01*
X0273900Y0034150D01*
X0274948Y0034584D01*
X0275749Y0035386D01*
X0276095Y0036221D01*
X0276266Y0036150D01*
X0277400Y0036150D01*
X0278448Y0036584D01*
X0279249Y0037386D01*
X0279683Y0038433D01*
X0279683Y0039567D01*
X0279249Y0040614D01*
X0278448Y0041416D01*
X0277400Y0041850D01*
X0276266Y0041850D01*
X0275219Y0041416D01*
X0274417Y0040614D01*
X0274071Y0039779D01*
X0273900Y0039850D01*
X0272766Y0039850D01*
X0271719Y0039416D01*
X0270917Y0038614D01*
X0270648Y0037964D02*
X0265400Y0037964D01*
X0265749Y0037614D02*
X0264948Y0038416D01*
X0263900Y0038850D01*
X0262766Y0038850D01*
X0261719Y0038416D01*
X0260917Y0037614D01*
X0260483Y0036567D01*
X0260483Y0035433D01*
X0260917Y0034386D01*
X0261719Y0033584D01*
X0262766Y0033150D01*
X0263900Y0033150D01*
X0264948Y0033584D01*
X0265749Y0034386D01*
X0266183Y0035433D01*
X0266183Y0036567D01*
X0265749Y0037614D01*
X0266018Y0036966D02*
X0270483Y0036966D01*
X0270676Y0035967D02*
X0266183Y0035967D01*
X0265991Y0034969D02*
X0271334Y0034969D01*
X0275333Y0034969D02*
X0307346Y0034969D01*
X0307219Y0034916D02*
X0306417Y0034114D01*
X0305983Y0033067D01*
X0305983Y0031933D01*
X0306417Y0030886D01*
X0307219Y0030084D01*
X0308266Y0029650D01*
X0309400Y0029650D01*
X0310448Y0030084D01*
X0311249Y0030886D01*
X0311683Y0031933D01*
X0311683Y0033067D01*
X0311249Y0034114D01*
X0310448Y0034916D01*
X0309400Y0035350D01*
X0308266Y0035350D01*
X0307219Y0034916D01*
X0306358Y0033970D02*
X0265334Y0033970D01*
X0263900Y0031850D02*
X0262766Y0031850D01*
X0261719Y0031416D01*
X0260917Y0030614D01*
X0260483Y0029567D01*
X0260483Y0028433D01*
X0260917Y0027386D01*
X0261719Y0026584D01*
X0262766Y0026150D01*
X0263900Y0026150D01*
X0264948Y0026584D01*
X0265749Y0027386D01*
X0266183Y0028433D01*
X0266183Y0029567D01*
X0265749Y0030614D01*
X0264948Y0031416D01*
X0263900Y0031850D01*
X0265389Y0030975D02*
X0283893Y0030975D01*
X0284477Y0031217D02*
X0283163Y0030672D01*
X0282157Y0029667D01*
X0281613Y0028353D01*
X0281613Y0026931D01*
X0282157Y0025617D01*
X0283163Y0024611D01*
X0284477Y0024067D01*
X0285899Y0024067D01*
X0287213Y0024611D01*
X0288218Y0025617D01*
X0288762Y0026931D01*
X0288762Y0028353D01*
X0288218Y0029667D01*
X0287213Y0030672D01*
X0285899Y0031217D01*
X0284477Y0031217D01*
X0286483Y0030975D02*
X0306380Y0030975D01*
X0305983Y0031973D02*
X0242808Y0031973D01*
X0242749Y0032114D02*
X0241948Y0032916D01*
X0240900Y0033350D01*
X0239766Y0033350D01*
X0238719Y0032916D01*
X0237917Y0032114D01*
X0237483Y0031067D01*
X0237483Y0029933D01*
X0237917Y0028886D01*
X0238719Y0028084D01*
X0239766Y0027650D01*
X0240900Y0027650D01*
X0241948Y0028084D01*
X0242749Y0028886D01*
X0243183Y0029933D01*
X0243183Y0031067D01*
X0242749Y0032114D01*
X0243183Y0030975D02*
X0261278Y0030975D01*
X0260653Y0029976D02*
X0243183Y0029976D01*
X0242788Y0028978D02*
X0260483Y0028978D01*
X0260671Y0027979D02*
X0241695Y0027979D01*
X0238972Y0027979D02*
X0232843Y0027979D01*
X0232448Y0027584D02*
X0233249Y0028386D01*
X0233683Y0029433D01*
X0233683Y0030567D01*
X0233249Y0031614D01*
X0232448Y0032416D01*
X0231400Y0032850D01*
X0230266Y0032850D01*
X0229219Y0032416D01*
X0228417Y0031614D01*
X0227983Y0030567D01*
X0227983Y0029433D01*
X0228417Y0028386D01*
X0229219Y0027584D01*
X0230266Y0027150D01*
X0231400Y0027150D01*
X0232448Y0027584D01*
X0233495Y0028978D02*
X0237879Y0028978D01*
X0237483Y0029976D02*
X0233683Y0029976D01*
X0233514Y0030975D02*
X0237483Y0030975D01*
X0237859Y0031973D02*
X0232891Y0031973D01*
X0228776Y0031973D02*
X0220808Y0031973D01*
X0220749Y0032114D02*
X0219948Y0032916D01*
X0218900Y0033350D01*
X0217766Y0033350D01*
X0216719Y0032916D01*
X0215917Y0032114D01*
X0215483Y0031067D01*
X0215483Y0029933D01*
X0215917Y0028886D01*
X0216719Y0028084D01*
X0217766Y0027650D01*
X0218900Y0027650D01*
X0219948Y0028084D01*
X0220749Y0028886D01*
X0221183Y0029933D01*
X0221183Y0031067D01*
X0220749Y0032114D01*
X0221183Y0030975D02*
X0228152Y0030975D01*
X0227983Y0029976D02*
X0221183Y0029976D01*
X0220788Y0028978D02*
X0228172Y0028978D01*
X0228824Y0027979D02*
X0219695Y0027979D01*
X0216972Y0027979D02*
X0206183Y0027979D01*
X0206183Y0027433D02*
X0205749Y0026386D01*
X0204948Y0025584D01*
X0203900Y0025150D01*
X0202766Y0025150D01*
X0201719Y0025584D01*
X0200917Y0026386D01*
X0200483Y0027433D01*
X0200483Y0028567D01*
X0200917Y0029614D01*
X0201719Y0030416D01*
X0202766Y0030850D01*
X0203900Y0030850D01*
X0204948Y0030416D01*
X0205749Y0029614D01*
X0206183Y0028567D01*
X0206183Y0027433D01*
X0205996Y0026981D02*
X0261322Y0026981D01*
X0265344Y0026981D02*
X0267483Y0026981D01*
X0267483Y0026433D02*
X0267917Y0025386D01*
X0268719Y0024584D01*
X0269766Y0024150D01*
X0270900Y0024150D01*
X0271948Y0024584D01*
X0272583Y0025220D01*
X0273219Y0024584D01*
X0274266Y0024150D01*
X0275400Y0024150D01*
X0276448Y0024584D01*
X0277249Y0025386D01*
X0277683Y0026433D01*
X0277683Y0027567D01*
X0277249Y0028614D01*
X0276448Y0029416D01*
X0275400Y0029850D01*
X0274266Y0029850D01*
X0273219Y0029416D01*
X0272583Y0028780D01*
X0271948Y0029416D01*
X0270900Y0029850D01*
X0269766Y0029850D01*
X0268719Y0029416D01*
X0267917Y0028614D01*
X0267483Y0027567D01*
X0267483Y0026433D01*
X0267670Y0025982D02*
X0205346Y0025982D01*
X0207333Y0028500D02*
X0209333Y0026500D01*
X0255833Y0026500D01*
X0259833Y0022500D01*
X0259833Y0021000D01*
X0251183Y0020990D02*
X0348374Y0020990D01*
X0348417Y0020886D02*
X0349219Y0020084D01*
X0350266Y0019650D01*
X0351400Y0019650D01*
X0352448Y0020084D01*
X0353249Y0020886D01*
X0353683Y0021933D01*
X0353683Y0023067D01*
X0353249Y0024114D01*
X0353214Y0024150D01*
X0353400Y0024150D01*
X0354448Y0024584D01*
X0355249Y0025386D01*
X0355683Y0026433D01*
X0355683Y0027567D01*
X0355249Y0028614D01*
X0354448Y0029416D01*
X0353400Y0029850D01*
X0352266Y0029850D01*
X0351219Y0029416D01*
X0350417Y0028614D01*
X0349983Y0027567D01*
X0349983Y0026433D01*
X0350417Y0025386D01*
X0350453Y0025350D01*
X0350266Y0025350D01*
X0349219Y0024916D01*
X0348417Y0024114D01*
X0347983Y0023067D01*
X0347983Y0021933D01*
X0348417Y0020886D01*
X0347983Y0021988D02*
X0251009Y0021988D01*
X0251183Y0021567D02*
X0250749Y0022614D01*
X0249948Y0023416D01*
X0248900Y0023850D01*
X0247766Y0023850D01*
X0246719Y0023416D01*
X0245917Y0022614D01*
X0245483Y0021567D01*
X0245483Y0020433D01*
X0245917Y0019386D01*
X0246719Y0018584D01*
X0247766Y0018150D01*
X0248900Y0018150D01*
X0249948Y0018584D01*
X0250749Y0019386D01*
X0251183Y0020433D01*
X0251183Y0021567D01*
X0251000Y0019991D02*
X0349443Y0019991D01*
X0352224Y0019991D02*
X0372034Y0019991D01*
X0372034Y0018993D02*
X0250356Y0018993D01*
X0246310Y0018993D02*
X0150683Y0018993D01*
X0150683Y0018933D02*
X0150249Y0017886D01*
X0149448Y0017084D01*
X0148400Y0016650D01*
X0147266Y0016650D01*
X0146219Y0017084D01*
X0145417Y0017886D01*
X0144983Y0018933D01*
X0144983Y0020067D01*
X0145417Y0021114D01*
X0146219Y0021916D01*
X0147266Y0022350D01*
X0148400Y0022350D01*
X0149448Y0021916D01*
X0150249Y0021114D01*
X0150683Y0020067D01*
X0150683Y0018933D01*
X0150294Y0017994D02*
X0372034Y0017994D01*
X0372034Y0016996D02*
X0149234Y0016996D01*
X0146432Y0016996D02*
X0087353Y0016996D01*
X0087359Y0017994D02*
X0093243Y0017994D01*
X0092518Y0018294D02*
X0095643Y0017000D01*
X0099024Y0017000D01*
X0102148Y0018294D01*
X0104539Y0020685D01*
X0105833Y0023809D01*
X0105833Y0027191D01*
X0104539Y0030315D01*
X0102148Y0032706D01*
X0099024Y0034000D01*
X0095643Y0034000D01*
X0092518Y0032706D01*
X0090127Y0030315D01*
X0088833Y0027191D01*
X0088833Y0023809D01*
X0090127Y0020685D01*
X0092518Y0018294D01*
X0091820Y0018993D02*
X0087366Y0018993D01*
X0087372Y0019991D02*
X0090821Y0019991D01*
X0090001Y0020990D02*
X0087378Y0020990D01*
X0087385Y0021988D02*
X0089588Y0021988D01*
X0089174Y0022987D02*
X0087391Y0022987D01*
X0087398Y0023985D02*
X0088833Y0023985D01*
X0088833Y0024984D02*
X0087404Y0024984D01*
X0087411Y0025982D02*
X0088833Y0025982D01*
X0088833Y0026981D02*
X0087417Y0026981D01*
X0087424Y0027979D02*
X0089160Y0027979D01*
X0089573Y0028978D02*
X0087430Y0028978D01*
X0087436Y0029976D02*
X0089987Y0029976D01*
X0090787Y0030975D02*
X0087443Y0030975D01*
X0087449Y0031973D02*
X0091786Y0031973D01*
X0093160Y0032972D02*
X0087456Y0032972D01*
X0087462Y0033970D02*
X0095571Y0033970D01*
X0099096Y0033970D02*
X0125133Y0033970D01*
X0125133Y0034435D02*
X0125133Y0032565D01*
X0125849Y0030838D01*
X0127171Y0029516D01*
X0128898Y0028800D01*
X0129103Y0028800D01*
X0128417Y0028114D01*
X0127983Y0027067D01*
X0127983Y0025933D01*
X0128417Y0024886D01*
X0129219Y0024084D01*
X0130266Y0023650D01*
X0131400Y0023650D01*
X0132448Y0024084D01*
X0133249Y0024886D01*
X0133683Y0025933D01*
X0133683Y0027067D01*
X0133249Y0028114D01*
X0132448Y0028916D01*
X0131748Y0029206D01*
X0132496Y0029516D01*
X0133818Y0030838D01*
X0134533Y0032565D01*
X0134533Y0034435D01*
X0133818Y0036162D01*
X0132922Y0037058D01*
X0133249Y0037386D01*
X0133683Y0038433D01*
X0133683Y0039567D01*
X0133400Y0040250D01*
X0133683Y0040933D01*
X0133683Y0041974D01*
X0133948Y0042084D01*
X0134749Y0042886D01*
X0135183Y0043933D01*
X0135183Y0045067D01*
X0134749Y0046114D01*
X0133948Y0046916D01*
X0132900Y0047350D01*
X0131766Y0047350D01*
X0130719Y0046916D01*
X0129917Y0046114D01*
X0129483Y0045067D01*
X0129483Y0044108D01*
X0128900Y0044350D01*
X0127766Y0044350D01*
X0126719Y0043916D01*
X0125917Y0043114D01*
X0125483Y0042067D01*
X0125483Y0040933D01*
X0125766Y0040250D01*
X0125483Y0039567D01*
X0125483Y0038433D01*
X0125917Y0037386D01*
X0126495Y0036808D01*
X0125849Y0036162D01*
X0125133Y0034435D01*
X0125354Y0034969D02*
X0087469Y0034969D01*
X0087475Y0035967D02*
X0125768Y0035967D01*
X0126337Y0036966D02*
X0087482Y0036966D01*
X0087488Y0037964D02*
X0125678Y0037964D01*
X0125483Y0038963D02*
X0087494Y0038963D01*
X0087501Y0039961D02*
X0125647Y0039961D01*
X0125483Y0040960D02*
X0087507Y0040960D01*
X0087514Y0041958D02*
X0125483Y0041958D01*
X0125852Y0042957D02*
X0087520Y0042957D01*
X0087527Y0043955D02*
X0126814Y0043955D01*
X0129483Y0044954D02*
X0087533Y0044954D01*
X0087540Y0045952D02*
X0129850Y0045952D01*
X0130803Y0046951D02*
X0087546Y0046951D01*
X0087552Y0047949D02*
X0098044Y0047949D01*
X0097719Y0048084D02*
X0098766Y0047650D01*
X0099900Y0047650D01*
X0100948Y0048084D01*
X0101083Y0048220D01*
X0101219Y0048084D01*
X0102266Y0047650D01*
X0103400Y0047650D01*
X0104448Y0048084D01*
X0105249Y0048886D01*
X0105683Y0049933D01*
X0105683Y0051067D01*
X0105249Y0052114D01*
X0104448Y0052916D01*
X0103642Y0053250D01*
X0104448Y0053584D01*
X0105249Y0054386D01*
X0105683Y0055433D01*
X0105683Y0056567D01*
X0105249Y0057614D01*
X0104448Y0058416D01*
X0103400Y0058850D01*
X0102266Y0058850D01*
X0101219Y0058416D01*
X0101083Y0058280D01*
X0100948Y0058416D01*
X0099900Y0058850D01*
X0098766Y0058850D01*
X0097719Y0058416D01*
X0096917Y0057614D01*
X0096483Y0056567D01*
X0096483Y0055433D01*
X0096917Y0054386D01*
X0097719Y0053584D01*
X0098525Y0053250D01*
X0097719Y0052916D01*
X0096917Y0052114D01*
X0096483Y0051067D01*
X0096483Y0049933D01*
X0096917Y0048886D01*
X0097719Y0048084D01*
X0096891Y0048948D02*
X0087559Y0048948D01*
X0087565Y0049946D02*
X0096483Y0049946D01*
X0096483Y0050945D02*
X0087572Y0050945D01*
X0087578Y0051943D02*
X0096846Y0051943D01*
X0097781Y0052942D02*
X0087585Y0052942D01*
X0087591Y0053940D02*
X0097362Y0053940D01*
X0096688Y0054939D02*
X0087598Y0054939D01*
X0087604Y0055937D02*
X0096483Y0055937D01*
X0096636Y0056936D02*
X0087610Y0056936D01*
X0087617Y0057934D02*
X0097237Y0057934D01*
X0104929Y0057934D02*
X0130483Y0057934D01*
X0130483Y0057933D02*
X0130917Y0056886D01*
X0131719Y0056084D01*
X0132766Y0055650D01*
X0133900Y0055650D01*
X0134583Y0055933D01*
X0135266Y0055650D01*
X0136400Y0055650D01*
X0137448Y0056084D01*
X0138249Y0056886D01*
X0138683Y0057933D01*
X0138683Y0059067D01*
X0138400Y0059750D01*
X0138683Y0060433D01*
X0138683Y0061567D01*
X0138249Y0062614D01*
X0137448Y0063416D01*
X0136400Y0063850D01*
X0135266Y0063850D01*
X0134583Y0063567D01*
X0133900Y0063850D01*
X0132766Y0063850D01*
X0132677Y0063813D01*
X0133249Y0064386D01*
X0133683Y0065433D01*
X0133683Y0066567D01*
X0133249Y0067614D01*
X0132831Y0068033D01*
X0133996Y0068516D01*
X0135318Y0069838D01*
X0136033Y0071565D01*
X0136033Y0073435D01*
X0135318Y0075162D01*
X0133996Y0076484D01*
X0132268Y0077200D01*
X0130398Y0077200D01*
X0128671Y0076484D01*
X0127349Y0075162D01*
X0126633Y0073435D01*
X0126633Y0071565D01*
X0127141Y0070339D01*
X0126417Y0069614D01*
X0125983Y0068567D01*
X0125983Y0067680D01*
X0125417Y0067114D01*
X0124983Y0066067D01*
X0124983Y0064933D01*
X0125417Y0063886D01*
X0126219Y0063084D01*
X0127266Y0062650D01*
X0128400Y0062650D01*
X0129448Y0063084D01*
X0129734Y0063370D01*
X0130266Y0063150D01*
X0131400Y0063150D01*
X0131490Y0063187D01*
X0130917Y0062614D01*
X0130483Y0061567D01*
X0130483Y0060433D01*
X0130766Y0059750D01*
X0130483Y0059067D01*
X0130483Y0057933D01*
X0130483Y0058933D02*
X0087623Y0058933D01*
X0087630Y0059932D02*
X0130691Y0059932D01*
X0130483Y0060930D02*
X0087636Y0060930D01*
X0087643Y0061929D02*
X0116374Y0061929D01*
X0116719Y0061584D02*
X0117766Y0061150D01*
X0118900Y0061150D01*
X0119948Y0061584D01*
X0120749Y0062386D01*
X0120859Y0062650D01*
X0121400Y0062650D01*
X0122448Y0063084D01*
X0123249Y0063886D01*
X0123683Y0064933D01*
X0123683Y0066067D01*
X0123297Y0067000D01*
X0123683Y0067933D01*
X0123683Y0069067D01*
X0123297Y0070000D01*
X0123683Y0070933D01*
X0123683Y0072067D01*
X0123249Y0073114D01*
X0122448Y0073916D01*
X0121400Y0074350D01*
X0120266Y0074350D01*
X0119219Y0073916D01*
X0118417Y0073114D01*
X0118308Y0072850D01*
X0117766Y0072850D01*
X0116719Y0072416D01*
X0115917Y0071614D01*
X0115808Y0071350D01*
X0115266Y0071350D01*
X0114219Y0070916D01*
X0113417Y0070114D01*
X0112983Y0069067D01*
X0112983Y0067933D01*
X0113370Y0067000D01*
X0112983Y0066067D01*
X0112983Y0064933D01*
X0113417Y0063886D01*
X0114219Y0063084D01*
X0115266Y0062650D01*
X0115808Y0062650D01*
X0115917Y0062386D01*
X0116719Y0061584D01*
X0114598Y0062927D02*
X0087649Y0062927D01*
X0087656Y0063926D02*
X0113401Y0063926D01*
X0112987Y0064924D02*
X0087662Y0064924D01*
X0087668Y0065923D02*
X0112983Y0065923D01*
X0113337Y0066921D02*
X0087675Y0066921D01*
X0087681Y0067920D02*
X0112989Y0067920D01*
X0112983Y0068918D02*
X0087688Y0068918D01*
X0087694Y0069917D02*
X0113335Y0069917D01*
X0114218Y0070915D02*
X0087701Y0070915D01*
X0087707Y0071914D02*
X0093937Y0071914D01*
X0093018Y0072294D02*
X0096143Y0071000D01*
X0099524Y0071000D01*
X0102648Y0072294D01*
X0105039Y0074685D01*
X0106333Y0077809D01*
X0106333Y0081191D01*
X0105039Y0084315D01*
X0102648Y0086706D01*
X0099524Y0088000D01*
X0096143Y0088000D01*
X0093018Y0086706D01*
X0090627Y0084315D01*
X0089333Y0081191D01*
X0089333Y0077809D01*
X0090627Y0074685D01*
X0093018Y0072294D01*
X0092400Y0072912D02*
X0087714Y0072912D01*
X0087720Y0073911D02*
X0091402Y0073911D01*
X0090535Y0074909D02*
X0087727Y0074909D01*
X0087733Y0075908D02*
X0090121Y0075908D01*
X0089707Y0076906D02*
X0087739Y0076906D01*
X0087746Y0077905D02*
X0089333Y0077905D01*
X0089333Y0078903D02*
X0087752Y0078903D01*
X0087759Y0079902D02*
X0089333Y0079902D01*
X0089333Y0080900D02*
X0087765Y0080900D01*
X0087772Y0081899D02*
X0089627Y0081899D01*
X0090040Y0082897D02*
X0087778Y0082897D01*
X0087785Y0083896D02*
X0090454Y0083896D01*
X0091207Y0084894D02*
X0087791Y0084894D01*
X0087797Y0085893D02*
X0092205Y0085893D01*
X0093466Y0086891D02*
X0087804Y0086891D01*
X0087810Y0087890D02*
X0095877Y0087890D01*
X0099790Y0087890D02*
X0176193Y0087890D01*
X0175917Y0087614D02*
X0175483Y0086567D01*
X0175483Y0085433D01*
X0175917Y0084386D01*
X0176719Y0083584D01*
X0177766Y0083150D01*
X0178900Y0083150D01*
X0179948Y0083584D01*
X0180749Y0084386D01*
X0181183Y0085433D01*
X0181183Y0086567D01*
X0180749Y0087614D01*
X0179948Y0088416D01*
X0178900Y0088850D01*
X0177766Y0088850D01*
X0176719Y0088416D01*
X0175917Y0087614D01*
X0175618Y0086891D02*
X0102201Y0086891D01*
X0103461Y0085893D02*
X0175483Y0085893D01*
X0175706Y0084894D02*
X0104460Y0084894D01*
X0105213Y0083896D02*
X0176407Y0083896D01*
X0180260Y0083896D02*
X0211907Y0083896D01*
X0211060Y0084894D02*
X0180960Y0084894D01*
X0181183Y0085893D02*
X0210733Y0085893D01*
X0210764Y0086891D02*
X0181049Y0086891D01*
X0180474Y0087890D02*
X0211193Y0087890D01*
X0215974Y0087890D02*
X0357670Y0087890D01*
X0355704Y0086891D02*
X0216402Y0086891D01*
X0216433Y0085893D02*
X0354705Y0085893D01*
X0353707Y0084894D02*
X0309470Y0084894D01*
X0309749Y0084614D02*
X0308948Y0085416D01*
X0307900Y0085850D01*
X0306766Y0085850D01*
X0305719Y0085416D01*
X0304917Y0084614D01*
X0304483Y0083567D01*
X0304483Y0082433D01*
X0304917Y0081386D01*
X0305719Y0080584D01*
X0306766Y0080150D01*
X0307900Y0080150D01*
X0308948Y0080584D01*
X0309749Y0081386D01*
X0310183Y0082433D01*
X0310183Y0083567D01*
X0309749Y0084614D01*
X0310047Y0083896D02*
X0353247Y0083896D01*
X0352833Y0082897D02*
X0310183Y0082897D01*
X0309962Y0081899D02*
X0352420Y0081899D01*
X0352333Y0080900D02*
X0309264Y0080900D01*
X0305403Y0080900D02*
X0254764Y0080900D01*
X0254448Y0080584D02*
X0255249Y0081386D01*
X0255683Y0082433D01*
X0255683Y0083567D01*
X0255249Y0084614D01*
X0254448Y0085416D01*
X0253400Y0085850D01*
X0252266Y0085850D01*
X0251219Y0085416D01*
X0250417Y0084614D01*
X0249983Y0083567D01*
X0249983Y0082433D01*
X0250417Y0081386D01*
X0251219Y0080584D01*
X0252266Y0080150D01*
X0253400Y0080150D01*
X0254448Y0080584D01*
X0255462Y0081899D02*
X0304705Y0081899D01*
X0304483Y0082897D02*
X0255683Y0082897D01*
X0255547Y0083896D02*
X0304620Y0083896D01*
X0305197Y0084894D02*
X0254970Y0084894D01*
X0250697Y0084894D02*
X0216107Y0084894D01*
X0215260Y0083896D02*
X0250120Y0083896D01*
X0249983Y0082897D02*
X0247201Y0082897D01*
X0248460Y0081899D02*
X0250205Y0081899D01*
X0250903Y0080900D02*
X0248924Y0080900D01*
X0249033Y0079902D02*
X0352333Y0079902D01*
X0352333Y0078903D02*
X0248843Y0078903D01*
X0248264Y0077905D02*
X0352501Y0077905D01*
X0352914Y0076906D02*
X0283458Y0076906D01*
X0283749Y0076614D02*
X0282948Y0077416D01*
X0281900Y0077850D01*
X0280766Y0077850D01*
X0279719Y0077416D01*
X0278917Y0076614D01*
X0278483Y0075567D01*
X0278483Y0074433D01*
X0278917Y0073386D01*
X0279719Y0072584D01*
X0280766Y0072150D01*
X0281900Y0072150D01*
X0282948Y0072584D01*
X0283749Y0073386D01*
X0284183Y0074433D01*
X0284183Y0075567D01*
X0283749Y0076614D01*
X0284042Y0075908D02*
X0353328Y0075908D01*
X0353903Y0074909D02*
X0284183Y0074909D01*
X0283967Y0073911D02*
X0354902Y0073911D01*
X0355900Y0072912D02*
X0283276Y0072912D01*
X0279391Y0072912D02*
X0243271Y0072912D01*
X0243846Y0073911D02*
X0244153Y0073911D01*
X0245833Y0073911D02*
X0245833Y0073911D01*
X0245833Y0074909D02*
X0245833Y0074909D01*
X0245833Y0075000D02*
X0245833Y0075000D01*
X0247833Y0075000D01*
X0245833Y0075000D01*
X0247833Y0074909D02*
X0278483Y0074909D01*
X0278625Y0075908D02*
X0247619Y0075908D01*
X0246726Y0076906D02*
X0279209Y0076906D01*
X0278700Y0073911D02*
X0247514Y0073911D01*
X0238396Y0072912D02*
X0238271Y0072912D01*
X0233396Y0072912D02*
X0233271Y0072912D01*
X0228396Y0072912D02*
X0228271Y0072912D01*
X0224922Y0071914D02*
X0195675Y0071914D01*
X0195683Y0071933D02*
X0195249Y0070886D01*
X0194448Y0070084D01*
X0193400Y0069650D01*
X0192266Y0069650D01*
X0191219Y0070084D01*
X0190417Y0070886D01*
X0189983Y0071933D01*
X0189983Y0073067D01*
X0190417Y0074114D01*
X0191219Y0074916D01*
X0192266Y0075350D01*
X0193400Y0075350D01*
X0194448Y0074916D01*
X0195249Y0074114D01*
X0195683Y0073067D01*
X0195683Y0071933D01*
X0195683Y0072912D02*
X0199633Y0072912D01*
X0199219Y0073084D02*
X0200266Y0072650D01*
X0201400Y0072650D01*
X0202448Y0073084D01*
X0203249Y0073886D01*
X0203683Y0074933D01*
X0203683Y0076067D01*
X0203249Y0077114D01*
X0202448Y0077916D01*
X0201400Y0078350D01*
X0200266Y0078350D01*
X0199219Y0077916D01*
X0198417Y0077114D01*
X0197983Y0076067D01*
X0197983Y0074933D01*
X0198417Y0073886D01*
X0199219Y0073084D01*
X0198407Y0073911D02*
X0195334Y0073911D01*
X0194455Y0074909D02*
X0197993Y0074909D01*
X0197983Y0075908D02*
X0155951Y0075908D01*
X0156046Y0075813D02*
X0155146Y0076713D01*
X0153970Y0077200D01*
X0152697Y0077200D01*
X0151521Y0076713D01*
X0150620Y0075813D01*
X0150133Y0074637D01*
X0150133Y0073363D01*
X0150620Y0072187D01*
X0151521Y0071287D01*
X0152697Y0070800D01*
X0153970Y0070800D01*
X0155146Y0071287D01*
X0156046Y0072187D01*
X0156533Y0073363D01*
X0156533Y0074637D01*
X0156046Y0075813D01*
X0156420Y0074909D02*
X0191212Y0074909D01*
X0190333Y0073911D02*
X0156533Y0073911D01*
X0156346Y0072912D02*
X0189983Y0072912D01*
X0189991Y0071914D02*
X0155772Y0071914D01*
X0154248Y0070915D02*
X0190405Y0070915D01*
X0191623Y0069917D02*
X0145350Y0069917D01*
X0145318Y0069838D02*
X0146033Y0071565D01*
X0146033Y0073435D01*
X0145318Y0075162D01*
X0143996Y0076484D01*
X0142268Y0077200D01*
X0140398Y0077200D01*
X0138671Y0076484D01*
X0137349Y0075162D01*
X0136633Y0073435D01*
X0136633Y0071565D01*
X0137349Y0069838D01*
X0138671Y0068516D01*
X0140398Y0067800D01*
X0142268Y0067800D01*
X0143996Y0068516D01*
X0145318Y0069838D01*
X0145764Y0070915D02*
X0152419Y0070915D01*
X0152719Y0069416D02*
X0153766Y0069850D01*
X0154900Y0069850D01*
X0155948Y0069416D01*
X0156749Y0068614D01*
X0156859Y0068350D01*
X0157400Y0068350D01*
X0158448Y0067916D01*
X0159249Y0067114D01*
X0159683Y0066067D01*
X0159683Y0064933D01*
X0159249Y0063886D01*
X0158448Y0063084D01*
X0157400Y0062650D01*
X0156514Y0062650D01*
X0155948Y0062084D01*
X0154900Y0061650D01*
X0153766Y0061650D01*
X0152719Y0062084D01*
X0151917Y0062886D01*
X0151483Y0063933D01*
X0151483Y0065067D01*
X0151766Y0065750D01*
X0151483Y0066433D01*
X0151483Y0067567D01*
X0151917Y0068614D01*
X0152719Y0069416D01*
X0152221Y0068918D02*
X0144398Y0068918D01*
X0142557Y0067920D02*
X0151629Y0067920D01*
X0151483Y0066921D02*
X0133537Y0066921D01*
X0133683Y0065923D02*
X0151695Y0065923D01*
X0151483Y0064924D02*
X0133472Y0064924D01*
X0132789Y0063926D02*
X0151486Y0063926D01*
X0151900Y0062927D02*
X0137937Y0062927D01*
X0138534Y0061929D02*
X0146749Y0061929D01*
X0145841Y0060930D02*
X0138683Y0060930D01*
X0138476Y0059932D02*
X0145483Y0059932D01*
X0145483Y0058933D02*
X0138683Y0058933D01*
X0138683Y0057934D02*
X0145897Y0057934D01*
X0146739Y0056936D02*
X0138270Y0056936D01*
X0137094Y0055937D02*
X0146137Y0055937D01*
X0145983Y0054939D02*
X0130683Y0054939D01*
X0130683Y0054433D02*
X0130683Y0055567D01*
X0130249Y0056614D01*
X0129448Y0057416D01*
X0128400Y0057850D01*
X0127266Y0057850D01*
X0126219Y0057416D01*
X0125417Y0056614D01*
X0124983Y0055567D01*
X0124983Y0054433D01*
X0125417Y0053386D01*
X0126219Y0052584D01*
X0127266Y0052150D01*
X0128400Y0052150D01*
X0129448Y0052584D01*
X0130249Y0053386D01*
X0130683Y0054433D01*
X0130479Y0053940D02*
X0146187Y0053940D01*
X0146861Y0052942D02*
X0129806Y0052942D01*
X0125861Y0052942D02*
X0104385Y0052942D01*
X0104804Y0053940D02*
X0125187Y0053940D01*
X0124983Y0054939D02*
X0105479Y0054939D01*
X0105683Y0055937D02*
X0125137Y0055937D01*
X0125739Y0056936D02*
X0105530Y0056936D01*
X0105320Y0051943D02*
X0169929Y0051943D01*
X0169581Y0050945D02*
X0105683Y0050945D01*
X0105683Y0049946D02*
X0147749Y0049946D01*
X0147417Y0049614D02*
X0146983Y0048567D01*
X0146983Y0047433D01*
X0147417Y0046386D01*
X0148219Y0045584D01*
X0149266Y0045150D01*
X0150400Y0045150D01*
X0151448Y0045584D01*
X0152249Y0046386D01*
X0152683Y0047433D01*
X0152683Y0048567D01*
X0152249Y0049614D01*
X0151448Y0050416D01*
X0150400Y0050850D01*
X0149266Y0050850D01*
X0148219Y0050416D01*
X0147417Y0049614D01*
X0147141Y0048948D02*
X0105275Y0048948D01*
X0104123Y0047949D02*
X0146983Y0047949D01*
X0147183Y0046951D02*
X0133864Y0046951D01*
X0134817Y0045952D02*
X0147850Y0045952D01*
X0148266Y0044850D02*
X0147219Y0044416D01*
X0146417Y0043614D01*
X0145983Y0042567D01*
X0145983Y0041433D01*
X0146417Y0040386D01*
X0147053Y0039750D01*
X0146917Y0039614D01*
X0146483Y0038567D01*
X0146483Y0037433D01*
X0146917Y0036386D01*
X0147719Y0035584D01*
X0148766Y0035150D01*
X0149900Y0035150D01*
X0150948Y0035584D01*
X0151749Y0036386D01*
X0152183Y0037433D01*
X0152183Y0038567D01*
X0151749Y0039614D01*
X0151114Y0040250D01*
X0151249Y0040386D01*
X0151683Y0041433D01*
X0151683Y0042567D01*
X0151249Y0043614D01*
X0150448Y0044416D01*
X0149400Y0044850D01*
X0148266Y0044850D01*
X0146758Y0043955D02*
X0135183Y0043955D01*
X0135183Y0044954D02*
X0170884Y0044954D01*
X0170413Y0045952D02*
X0151816Y0045952D01*
X0152484Y0046951D02*
X0169999Y0046951D01*
X0169585Y0047949D02*
X0152683Y0047949D01*
X0152526Y0048948D02*
X0169581Y0048948D01*
X0169581Y0049946D02*
X0151917Y0049946D01*
X0150806Y0052942D02*
X0170343Y0052942D01*
X0170756Y0053940D02*
X0151479Y0053940D01*
X0151683Y0054939D02*
X0171714Y0054939D01*
X0172713Y0055937D02*
X0151530Y0055937D01*
X0150928Y0056936D02*
X0174705Y0056936D01*
X0177333Y0063000D02*
X0168333Y0054000D01*
X0168333Y0037000D01*
X0165333Y0034500D01*
X0163900Y0031350D02*
X0162766Y0031350D01*
X0161719Y0030916D01*
X0160917Y0030114D01*
X0160483Y0029067D01*
X0160483Y0027933D01*
X0160917Y0026886D01*
X0161719Y0026084D01*
X0162766Y0025650D01*
X0163900Y0025650D01*
X0164948Y0026084D01*
X0165749Y0026886D01*
X0166183Y0027933D01*
X0166183Y0029067D01*
X0165749Y0030114D01*
X0164948Y0030916D01*
X0163900Y0031350D01*
X0164806Y0030975D02*
X0171360Y0030975D01*
X0171219Y0030916D02*
X0170417Y0030114D01*
X0169983Y0029067D01*
X0169983Y0027933D01*
X0170417Y0026886D01*
X0171219Y0026084D01*
X0172266Y0025650D01*
X0173400Y0025650D01*
X0174448Y0026084D01*
X0175249Y0026886D01*
X0175683Y0027933D01*
X0175683Y0029067D01*
X0175249Y0030114D01*
X0174448Y0030916D01*
X0173400Y0031350D01*
X0172266Y0031350D01*
X0171219Y0030916D01*
X0170360Y0029976D02*
X0165807Y0029976D01*
X0166183Y0028978D02*
X0169983Y0028978D01*
X0169983Y0027979D02*
X0166183Y0027979D01*
X0165789Y0026981D02*
X0170378Y0026981D01*
X0171465Y0025982D02*
X0164702Y0025982D01*
X0161965Y0025982D02*
X0151183Y0025982D01*
X0151183Y0025433D02*
X0150749Y0024386D01*
X0149948Y0023584D01*
X0148900Y0023150D01*
X0147766Y0023150D01*
X0146719Y0023584D01*
X0145917Y0024386D01*
X0145483Y0025433D01*
X0145483Y0026567D01*
X0145917Y0027614D01*
X0146719Y0028416D01*
X0147766Y0028850D01*
X0148900Y0028850D01*
X0149948Y0028416D01*
X0150749Y0027614D01*
X0151183Y0026567D01*
X0151183Y0025433D01*
X0150997Y0024984D02*
X0268319Y0024984D01*
X0272347Y0024984D02*
X0272819Y0024984D01*
X0276847Y0024984D02*
X0282790Y0024984D01*
X0282006Y0025982D02*
X0277497Y0025982D01*
X0277683Y0026981D02*
X0281613Y0026981D01*
X0281613Y0027979D02*
X0277513Y0027979D01*
X0276886Y0028978D02*
X0281872Y0028978D01*
X0282467Y0029976D02*
X0266014Y0029976D01*
X0266183Y0028978D02*
X0268280Y0028978D01*
X0267654Y0027979D02*
X0265995Y0027979D01*
X0272386Y0028978D02*
X0272780Y0028978D01*
X0276333Y0029500D02*
X0286833Y0019000D01*
X0289333Y0021500D01*
X0293333Y0021500D01*
X0305833Y0034000D01*
X0305833Y0038500D01*
X0305833Y0039000D02*
X0281333Y0039000D01*
X0276333Y0034000D01*
X0278333Y0034000D01*
X0280833Y0036500D01*
X0280833Y0056500D01*
X0279333Y0058000D01*
X0286706Y0057934D02*
X0260929Y0057934D01*
X0260833Y0059000D02*
X0257833Y0062000D01*
X0240333Y0062000D01*
X0236683Y0061929D02*
X0331374Y0061929D01*
X0330693Y0062927D02*
X0236534Y0062927D01*
X0235938Y0063926D02*
X0330483Y0063926D01*
X0335292Y0061929D02*
X0372034Y0061929D01*
X0372034Y0062927D02*
X0335974Y0062927D01*
X0336183Y0063926D02*
X0372034Y0063926D01*
X0372034Y0064924D02*
X0336035Y0064924D01*
X0335441Y0065923D02*
X0372034Y0065923D01*
X0372034Y0066921D02*
X0269471Y0066921D01*
X0269683Y0067920D02*
X0372034Y0067920D01*
X0372034Y0068918D02*
X0269538Y0068918D01*
X0268947Y0069917D02*
X0372034Y0069917D01*
X0372034Y0070915D02*
X0195262Y0070915D01*
X0194044Y0069917D02*
X0223719Y0069917D01*
X0223129Y0068918D02*
X0156446Y0068918D01*
X0158439Y0067920D02*
X0222983Y0067920D01*
X0223195Y0066921D02*
X0159330Y0066921D01*
X0159683Y0065923D02*
X0171225Y0065923D01*
X0170631Y0064924D02*
X0159680Y0064924D01*
X0159266Y0063926D02*
X0170483Y0063926D01*
X0170693Y0062927D02*
X0158069Y0062927D01*
X0155573Y0061929D02*
X0171374Y0061929D01*
X0177333Y0063000D02*
X0177333Y0064500D01*
X0177333Y0073000D01*
X0175333Y0074500D01*
X0170333Y0074500D02*
X0163833Y0081000D01*
X0148833Y0081000D01*
X0151988Y0076906D02*
X0142977Y0076906D01*
X0144572Y0075908D02*
X0150716Y0075908D01*
X0150246Y0074909D02*
X0145423Y0074909D01*
X0145836Y0073911D02*
X0150133Y0073911D01*
X0150320Y0072912D02*
X0146033Y0072912D01*
X0146033Y0071914D02*
X0150894Y0071914D01*
X0140110Y0067920D02*
X0132944Y0067920D01*
X0134398Y0068918D02*
X0138268Y0068918D01*
X0137316Y0069917D02*
X0135350Y0069917D01*
X0135764Y0070915D02*
X0136903Y0070915D01*
X0136633Y0071914D02*
X0136033Y0071914D01*
X0136033Y0072912D02*
X0136633Y0072912D01*
X0136830Y0073911D02*
X0135836Y0073911D01*
X0135423Y0074909D02*
X0137244Y0074909D01*
X0138094Y0075908D02*
X0134572Y0075908D01*
X0132977Y0076906D02*
X0139689Y0076906D01*
X0129689Y0076906D02*
X0123258Y0076906D01*
X0123249Y0076886D02*
X0123683Y0077933D01*
X0123683Y0079067D01*
X0123249Y0080114D01*
X0122448Y0080916D01*
X0121400Y0081350D01*
X0120266Y0081350D01*
X0119219Y0080916D01*
X0118417Y0080114D01*
X0117983Y0079067D01*
X0117983Y0077933D01*
X0118417Y0076886D01*
X0119219Y0076084D01*
X0120266Y0075650D01*
X0121400Y0075650D01*
X0122448Y0076084D01*
X0123249Y0076886D01*
X0123672Y0077905D02*
X0199208Y0077905D01*
X0198331Y0076906D02*
X0154679Y0076906D01*
X0128094Y0075908D02*
X0122022Y0075908D01*
X0122453Y0073911D02*
X0126830Y0073911D01*
X0126633Y0072912D02*
X0123333Y0072912D01*
X0123683Y0071914D02*
X0126633Y0071914D01*
X0126903Y0070915D02*
X0123676Y0070915D01*
X0123331Y0069917D02*
X0126719Y0069917D01*
X0126129Y0068918D02*
X0123683Y0068918D01*
X0123678Y0067920D02*
X0125983Y0067920D01*
X0125337Y0066921D02*
X0123329Y0066921D01*
X0123683Y0065923D02*
X0124983Y0065923D01*
X0124987Y0064924D02*
X0123680Y0064924D01*
X0123266Y0063926D02*
X0125401Y0063926D01*
X0126598Y0062927D02*
X0122069Y0062927D01*
X0120292Y0061929D02*
X0130633Y0061929D01*
X0131230Y0062927D02*
X0129069Y0062927D01*
X0129928Y0056936D02*
X0130896Y0056936D01*
X0130530Y0055937D02*
X0132072Y0055937D01*
X0149918Y0061929D02*
X0153094Y0061929D01*
X0175441Y0065923D02*
X0223880Y0065923D01*
X0220833Y0066500D02*
X0225833Y0059000D01*
X0225191Y0059932D02*
X0210683Y0059932D01*
X0210533Y0060930D02*
X0224983Y0060930D01*
X0225133Y0061929D02*
X0209935Y0061929D01*
X0207327Y0062927D02*
X0225730Y0062927D01*
X0229937Y0062927D02*
X0231133Y0062927D01*
X0230983Y0061929D02*
X0230534Y0061929D01*
X0230683Y0060930D02*
X0231192Y0060930D01*
X0231871Y0059932D02*
X0230476Y0059932D01*
X0231728Y0063926D02*
X0206425Y0063926D01*
X0220833Y0066500D02*
X0220833Y0069000D01*
X0191833Y0069000D01*
X0185333Y0062500D01*
X0200403Y0057934D02*
X0205868Y0057934D01*
X0208343Y0056936D02*
X0201323Y0056936D01*
X0201683Y0055937D02*
X0207983Y0055937D01*
X0207983Y0054939D02*
X0201683Y0054939D01*
X0201778Y0053940D02*
X0201272Y0053940D01*
X0200846Y0052942D02*
X0200105Y0052942D01*
X0200483Y0045952D02*
X0197911Y0045952D01*
X0198523Y0044954D02*
X0200889Y0044954D01*
X0202029Y0043955D02*
X0198683Y0043955D01*
X0198486Y0042957D02*
X0230846Y0042957D01*
X0230181Y0043955D02*
X0209637Y0043955D01*
X0210778Y0044954D02*
X0229983Y0044954D01*
X0234821Y0042957D02*
X0256346Y0042957D01*
X0255681Y0043955D02*
X0235485Y0043955D01*
X0235683Y0044954D02*
X0255483Y0044954D01*
X0255643Y0045952D02*
X0235524Y0045952D01*
X0234913Y0046951D02*
X0256254Y0046951D01*
X0258826Y0048948D02*
X0221526Y0048948D01*
X0220917Y0049946D02*
X0257896Y0049946D01*
X0264468Y0050945D02*
X0265393Y0050945D01*
X0265417Y0050886D02*
X0266219Y0050084D01*
X0267266Y0049650D01*
X0268400Y0049650D01*
X0269448Y0050084D01*
X0270249Y0050886D01*
X0270683Y0051933D01*
X0270683Y0053067D01*
X0270249Y0054114D01*
X0269448Y0054916D01*
X0268400Y0055350D01*
X0267266Y0055350D01*
X0266219Y0054916D01*
X0265417Y0054114D01*
X0264983Y0053067D01*
X0264983Y0051933D01*
X0265417Y0050886D01*
X0265417Y0049946D02*
X0266551Y0049946D01*
X0266026Y0048948D02*
X0286946Y0048948D01*
X0287115Y0048539D02*
X0287872Y0047782D01*
X0288861Y0047372D01*
X0289932Y0047372D01*
X0290920Y0047782D01*
X0291365Y0048226D01*
X0291809Y0047782D01*
X0292798Y0047372D01*
X0293869Y0047372D01*
X0294857Y0047782D01*
X0295302Y0048226D01*
X0295746Y0047782D01*
X0296735Y0047372D01*
X0297806Y0047372D01*
X0298794Y0047782D01*
X0299551Y0048539D01*
X0299961Y0049528D01*
X0299961Y0050598D01*
X0299551Y0051587D01*
X0299107Y0052031D01*
X0299551Y0052476D01*
X0299961Y0053465D01*
X0299961Y0054535D01*
X0299551Y0055524D01*
X0299107Y0055969D01*
X0299551Y0056413D01*
X0299961Y0057402D01*
X0299961Y0058472D01*
X0299551Y0059461D01*
X0298794Y0060218D01*
X0297806Y0060628D01*
X0296735Y0060628D01*
X0295746Y0060218D01*
X0295302Y0059773D01*
X0294857Y0060218D01*
X0293869Y0060628D01*
X0292798Y0060628D01*
X0291809Y0060218D01*
X0291365Y0059773D01*
X0290920Y0060218D01*
X0289932Y0060628D01*
X0288861Y0060628D01*
X0287872Y0060218D01*
X0287115Y0059461D01*
X0286706Y0058472D01*
X0286706Y0057402D01*
X0287115Y0056413D01*
X0287560Y0055969D01*
X0287115Y0055524D01*
X0286706Y0054535D01*
X0286706Y0053465D01*
X0287115Y0052476D01*
X0287560Y0052031D01*
X0287115Y0051587D01*
X0286706Y0050598D01*
X0286706Y0049528D01*
X0287115Y0048539D01*
X0287705Y0047949D02*
X0266183Y0047949D01*
X0265984Y0046951D02*
X0323754Y0046951D01*
X0323417Y0046614D02*
X0322983Y0045567D01*
X0322983Y0044433D01*
X0323417Y0043386D01*
X0324219Y0042584D01*
X0325266Y0042150D01*
X0326400Y0042150D01*
X0327448Y0042584D01*
X0328249Y0043386D01*
X0328683Y0044433D01*
X0328683Y0045567D01*
X0328249Y0046614D01*
X0327448Y0047416D01*
X0326400Y0047850D01*
X0325266Y0047850D01*
X0324219Y0047416D01*
X0323417Y0046614D01*
X0323143Y0045952D02*
X0265316Y0045952D01*
X0268410Y0044954D02*
X0322983Y0044954D01*
X0323181Y0043955D02*
X0269022Y0043955D01*
X0269183Y0042957D02*
X0323846Y0042957D01*
X0327821Y0042957D02*
X0348181Y0042957D01*
X0347983Y0043433D02*
X0348417Y0042386D01*
X0349219Y0041584D01*
X0350266Y0041150D01*
X0351400Y0041150D01*
X0352448Y0041584D01*
X0353249Y0042386D01*
X0353683Y0043433D01*
X0353683Y0044567D01*
X0353249Y0045614D01*
X0352448Y0046416D01*
X0351400Y0046850D01*
X0350266Y0046850D01*
X0349219Y0046416D01*
X0348417Y0045614D01*
X0347983Y0044567D01*
X0347983Y0043433D01*
X0347983Y0043955D02*
X0328485Y0043955D01*
X0328683Y0044954D02*
X0348144Y0044954D01*
X0348755Y0045952D02*
X0328524Y0045952D01*
X0327913Y0046951D02*
X0372034Y0046951D01*
X0372034Y0047949D02*
X0298962Y0047949D01*
X0299721Y0048948D02*
X0372034Y0048948D01*
X0372034Y0049946D02*
X0299961Y0049946D01*
X0299817Y0050945D02*
X0372034Y0050945D01*
X0372034Y0051943D02*
X0299195Y0051943D01*
X0299744Y0052942D02*
X0372034Y0052942D01*
X0372034Y0053940D02*
X0299961Y0053940D01*
X0299794Y0054939D02*
X0372034Y0054939D01*
X0372034Y0055937D02*
X0299138Y0055937D01*
X0299768Y0056936D02*
X0372034Y0056936D01*
X0372034Y0057934D02*
X0299961Y0057934D01*
X0299770Y0058933D02*
X0372034Y0058933D01*
X0372034Y0059932D02*
X0299081Y0059932D01*
X0295460Y0059932D02*
X0295144Y0059932D01*
X0291523Y0059932D02*
X0291207Y0059932D01*
X0287586Y0059932D02*
X0245032Y0059932D01*
X0245183Y0058933D02*
X0286897Y0058933D01*
X0286899Y0056936D02*
X0261530Y0056936D01*
X0261683Y0055937D02*
X0287529Y0055937D01*
X0286873Y0054939D02*
X0269393Y0054939D01*
X0270321Y0053940D02*
X0286706Y0053940D01*
X0286922Y0052942D02*
X0270683Y0052942D01*
X0270683Y0051943D02*
X0287472Y0051943D01*
X0286849Y0050945D02*
X0270274Y0050945D01*
X0269116Y0049946D02*
X0286706Y0049946D01*
X0291088Y0047949D02*
X0291642Y0047949D01*
X0295025Y0047949D02*
X0295579Y0047949D01*
X0279520Y0039961D02*
X0372034Y0039961D01*
X0372034Y0038963D02*
X0279683Y0038963D01*
X0279489Y0037964D02*
X0372034Y0037964D01*
X0372034Y0036966D02*
X0278830Y0036966D01*
X0275990Y0035967D02*
X0372034Y0035967D01*
X0372034Y0034969D02*
X0310321Y0034969D01*
X0311309Y0033970D02*
X0322273Y0033970D01*
X0321917Y0033614D02*
X0321483Y0032567D01*
X0321483Y0031433D01*
X0321917Y0030386D01*
X0322719Y0029584D01*
X0323766Y0029150D01*
X0324900Y0029150D01*
X0325948Y0029584D01*
X0326749Y0030386D01*
X0327183Y0031433D01*
X0327183Y0032567D01*
X0326749Y0033614D01*
X0325948Y0034416D01*
X0324900Y0034850D01*
X0323766Y0034850D01*
X0322719Y0034416D01*
X0321917Y0033614D01*
X0321651Y0032972D02*
X0311683Y0032972D01*
X0311683Y0031973D02*
X0321483Y0031973D01*
X0321673Y0030975D02*
X0311286Y0030975D01*
X0310188Y0029976D02*
X0322327Y0029976D01*
X0326340Y0029976D02*
X0372034Y0029976D01*
X0372034Y0028978D02*
X0354886Y0028978D01*
X0355513Y0027979D02*
X0372034Y0027979D01*
X0372034Y0026981D02*
X0355683Y0026981D01*
X0355497Y0025982D02*
X0372034Y0025982D01*
X0372034Y0024984D02*
X0354847Y0024984D01*
X0353303Y0023985D02*
X0372034Y0023985D01*
X0372034Y0022987D02*
X0353683Y0022987D01*
X0353683Y0021988D02*
X0372034Y0021988D01*
X0372034Y0020990D02*
X0353292Y0020990D01*
X0347983Y0022987D02*
X0250377Y0022987D01*
X0246289Y0022987D02*
X0123302Y0022987D01*
X0123249Y0023114D02*
X0122448Y0023916D01*
X0121400Y0024350D01*
X0120266Y0024350D01*
X0119219Y0023916D01*
X0118417Y0023114D01*
X0117983Y0022067D01*
X0117983Y0020933D01*
X0118417Y0019886D01*
X0119219Y0019084D01*
X0120266Y0018650D01*
X0121400Y0018650D01*
X0122448Y0019084D01*
X0123249Y0019886D01*
X0123683Y0020933D01*
X0123683Y0022067D01*
X0123249Y0023114D01*
X0123683Y0021988D02*
X0146393Y0021988D01*
X0145366Y0020990D02*
X0123683Y0020990D01*
X0123293Y0019991D02*
X0144983Y0019991D01*
X0144983Y0018993D02*
X0122227Y0018993D01*
X0119439Y0018993D02*
X0102847Y0018993D01*
X0103845Y0019991D02*
X0118374Y0019991D01*
X0117983Y0020990D02*
X0104665Y0020990D01*
X0105079Y0021988D02*
X0117983Y0021988D01*
X0118364Y0022987D02*
X0105493Y0022987D01*
X0105833Y0023985D02*
X0119386Y0023985D01*
X0122281Y0023985D02*
X0129457Y0023985D01*
X0128377Y0024984D02*
X0105833Y0024984D01*
X0105833Y0025982D02*
X0127983Y0025982D01*
X0127983Y0026981D02*
X0105833Y0026981D01*
X0105507Y0027979D02*
X0128361Y0027979D01*
X0128469Y0028978D02*
X0105093Y0028978D01*
X0104680Y0029976D02*
X0126710Y0029976D01*
X0125792Y0030975D02*
X0103879Y0030975D01*
X0102881Y0031973D02*
X0125378Y0031973D01*
X0125133Y0032972D02*
X0101507Y0032972D01*
X0132299Y0028978D02*
X0138469Y0028978D01*
X0138898Y0028800D02*
X0140768Y0028800D01*
X0142496Y0029516D01*
X0143256Y0030276D01*
X0143417Y0029886D01*
X0144219Y0029084D01*
X0145266Y0028650D01*
X0146400Y0028650D01*
X0147448Y0029084D01*
X0148249Y0029886D01*
X0148683Y0030933D01*
X0148683Y0032067D01*
X0148249Y0033114D01*
X0147448Y0033916D01*
X0146400Y0034350D01*
X0145266Y0034350D01*
X0144533Y0034046D01*
X0144533Y0034435D01*
X0143818Y0036162D01*
X0142496Y0037484D01*
X0140768Y0038200D01*
X0138898Y0038200D01*
X0137171Y0037484D01*
X0135849Y0036162D01*
X0135133Y0034435D01*
X0135133Y0032565D01*
X0135849Y0030838D01*
X0137171Y0029516D01*
X0138898Y0028800D01*
X0141197Y0028978D02*
X0144475Y0028978D01*
X0143380Y0029976D02*
X0142956Y0029976D01*
X0146282Y0027979D02*
X0133305Y0027979D01*
X0133683Y0026981D02*
X0145655Y0026981D01*
X0145483Y0025982D02*
X0133683Y0025982D01*
X0133290Y0024984D02*
X0145670Y0024984D01*
X0146318Y0023985D02*
X0132209Y0023985D01*
X0132956Y0029976D02*
X0136710Y0029976D01*
X0135792Y0030975D02*
X0133875Y0030975D01*
X0134288Y0031973D02*
X0135378Y0031973D01*
X0135133Y0032972D02*
X0134533Y0032972D01*
X0134533Y0033970D02*
X0135133Y0033970D01*
X0135354Y0034969D02*
X0134312Y0034969D01*
X0133899Y0035967D02*
X0135768Y0035967D01*
X0136652Y0036966D02*
X0133014Y0036966D01*
X0133489Y0037964D02*
X0138329Y0037964D01*
X0141337Y0037964D02*
X0146483Y0037964D01*
X0146647Y0038963D02*
X0133683Y0038963D01*
X0133520Y0039961D02*
X0146842Y0039961D01*
X0146179Y0040960D02*
X0133683Y0040960D01*
X0133683Y0041958D02*
X0145983Y0041958D01*
X0146145Y0042957D02*
X0134779Y0042957D01*
X0143014Y0036966D02*
X0146677Y0036966D01*
X0147336Y0035967D02*
X0143899Y0035967D01*
X0144312Y0034969D02*
X0185983Y0034969D01*
X0185983Y0034933D02*
X0186417Y0033886D01*
X0187219Y0033084D01*
X0188266Y0032650D01*
X0189018Y0032650D01*
X0188983Y0032567D01*
X0188983Y0031433D01*
X0189417Y0030386D01*
X0190219Y0029584D01*
X0191266Y0029150D01*
X0192400Y0029150D01*
X0193448Y0029584D01*
X0194249Y0030386D01*
X0194683Y0031433D01*
X0194683Y0032567D01*
X0194249Y0033614D01*
X0193448Y0034416D01*
X0192400Y0034850D01*
X0191649Y0034850D01*
X0191683Y0034933D01*
X0191683Y0036067D01*
X0191249Y0037114D01*
X0190448Y0037916D01*
X0189400Y0038350D01*
X0188266Y0038350D01*
X0187219Y0037916D01*
X0186417Y0037114D01*
X0185983Y0036067D01*
X0185983Y0034933D01*
X0185983Y0035967D02*
X0151331Y0035967D01*
X0151990Y0036966D02*
X0186356Y0036966D01*
X0187335Y0037964D02*
X0152183Y0037964D01*
X0152019Y0038963D02*
X0202266Y0038963D01*
X0201917Y0038614D02*
X0202719Y0039416D01*
X0203766Y0039850D01*
X0204900Y0039850D01*
X0205948Y0039416D01*
X0206749Y0038614D01*
X0207183Y0037567D01*
X0207183Y0036433D01*
X0206749Y0035386D01*
X0205948Y0034584D01*
X0204900Y0034150D01*
X0203766Y0034150D01*
X0202719Y0034584D01*
X0201917Y0035386D01*
X0201483Y0036433D01*
X0201483Y0037567D01*
X0201917Y0038614D01*
X0201648Y0037964D02*
X0190331Y0037964D01*
X0191311Y0036966D02*
X0201483Y0036966D01*
X0201676Y0035967D02*
X0191683Y0035967D01*
X0191683Y0034969D02*
X0202334Y0034969D01*
X0206333Y0034969D02*
X0260676Y0034969D01*
X0260483Y0035967D02*
X0226331Y0035967D01*
X0226990Y0036966D02*
X0260649Y0036966D01*
X0261267Y0037964D02*
X0227183Y0037964D01*
X0222336Y0035967D02*
X0206990Y0035967D01*
X0207333Y0035500D02*
X0210333Y0039500D01*
X0207019Y0037964D02*
X0221483Y0037964D01*
X0221647Y0038963D02*
X0206401Y0038963D01*
X0207183Y0036966D02*
X0221677Y0036966D01*
X0222264Y0039961D02*
X0166325Y0039961D01*
X0165948Y0039584D02*
X0166749Y0040386D01*
X0167183Y0041433D01*
X0167183Y0042567D01*
X0166749Y0043614D01*
X0165948Y0044416D01*
X0164900Y0044850D01*
X0163766Y0044850D01*
X0162719Y0044416D01*
X0161917Y0043614D01*
X0161483Y0042567D01*
X0161483Y0041433D01*
X0161917Y0040386D01*
X0162719Y0039584D01*
X0163766Y0039150D01*
X0164900Y0039150D01*
X0165948Y0039584D01*
X0166987Y0040960D02*
X0264343Y0040960D01*
X0268324Y0040960D02*
X0274763Y0040960D01*
X0274147Y0039961D02*
X0226403Y0039961D01*
X0207333Y0035500D02*
X0207333Y0028500D01*
X0206013Y0028978D02*
X0215879Y0028978D01*
X0215483Y0029976D02*
X0205388Y0029976D01*
X0201279Y0029976D02*
X0193840Y0029976D01*
X0194493Y0030975D02*
X0215483Y0030975D01*
X0215859Y0031973D02*
X0194683Y0031973D01*
X0194516Y0032972D02*
X0216853Y0032972D01*
X0219813Y0032972D02*
X0238853Y0032972D01*
X0241813Y0032972D02*
X0305983Y0032972D01*
X0307479Y0029976D02*
X0287909Y0029976D01*
X0288504Y0028978D02*
X0350780Y0028978D01*
X0350154Y0027979D02*
X0288762Y0027979D01*
X0288762Y0026981D02*
X0349983Y0026981D01*
X0350170Y0025982D02*
X0288370Y0025982D01*
X0287585Y0024984D02*
X0349382Y0024984D01*
X0348364Y0023985D02*
X0150349Y0023985D01*
X0149274Y0021988D02*
X0245658Y0021988D01*
X0245483Y0020990D02*
X0150301Y0020990D01*
X0150683Y0019991D02*
X0245666Y0019991D01*
X0276333Y0029500D02*
X0276333Y0034000D01*
X0275833Y0034000D01*
X0261333Y0033970D02*
X0193894Y0033970D01*
X0188983Y0031973D02*
X0148683Y0031973D01*
X0148683Y0030975D02*
X0161860Y0030975D01*
X0160860Y0029976D02*
X0148287Y0029976D01*
X0147191Y0028978D02*
X0160483Y0028978D01*
X0160483Y0027979D02*
X0150385Y0027979D01*
X0151012Y0026981D02*
X0160878Y0026981D01*
X0174202Y0025982D02*
X0201321Y0025982D01*
X0200671Y0026981D02*
X0175289Y0026981D01*
X0175683Y0027979D02*
X0200483Y0027979D01*
X0200653Y0028978D02*
X0175683Y0028978D01*
X0175307Y0029976D02*
X0189827Y0029976D01*
X0189173Y0030975D02*
X0174306Y0030975D01*
X0186382Y0033970D02*
X0147317Y0033970D01*
X0148309Y0032972D02*
X0187490Y0032972D01*
X0175112Y0041958D02*
X0167183Y0041958D01*
X0167022Y0042957D02*
X0172881Y0042957D01*
X0171883Y0043955D02*
X0166408Y0043955D01*
X0162258Y0043955D02*
X0150908Y0043955D01*
X0151522Y0042957D02*
X0161645Y0042957D01*
X0161483Y0041958D02*
X0151683Y0041958D01*
X0151487Y0040960D02*
X0161679Y0040960D01*
X0162342Y0039961D02*
X0151403Y0039961D01*
X0101544Y0047949D02*
X0100623Y0047949D01*
X0101730Y0071914D02*
X0116216Y0071914D01*
X0118333Y0072912D02*
X0103266Y0072912D01*
X0104265Y0073911D02*
X0119214Y0073911D01*
X0119644Y0075908D02*
X0105546Y0075908D01*
X0105959Y0076906D02*
X0118409Y0076906D01*
X0117995Y0077905D02*
X0106333Y0077905D01*
X0106333Y0078903D02*
X0117983Y0078903D01*
X0118329Y0079902D02*
X0106333Y0079902D01*
X0106333Y0080900D02*
X0119203Y0080900D01*
X0122464Y0080900D02*
X0222743Y0080900D01*
X0222633Y0079902D02*
X0123338Y0079902D01*
X0123683Y0078903D02*
X0222824Y0078903D01*
X0223403Y0077905D02*
X0208459Y0077905D01*
X0208448Y0077916D02*
X0207400Y0078350D01*
X0206266Y0078350D01*
X0205219Y0077916D01*
X0204417Y0077114D01*
X0203983Y0076067D01*
X0203983Y0074933D01*
X0204417Y0073886D01*
X0205219Y0073084D01*
X0206266Y0072650D01*
X0207400Y0072650D01*
X0208448Y0073084D01*
X0209249Y0073886D01*
X0209683Y0074933D01*
X0209683Y0076067D01*
X0209249Y0077114D01*
X0208448Y0077916D01*
X0209336Y0076906D02*
X0223214Y0076906D01*
X0222746Y0075908D02*
X0209683Y0075908D01*
X0209673Y0074909D02*
X0222633Y0074909D01*
X0222821Y0073911D02*
X0209260Y0073911D01*
X0208033Y0072912D02*
X0223396Y0072912D01*
X0220833Y0074000D02*
X0220833Y0069000D01*
X0205633Y0072912D02*
X0202033Y0072912D01*
X0203260Y0073911D02*
X0204407Y0073911D01*
X0203993Y0074909D02*
X0203673Y0074909D01*
X0203683Y0075908D02*
X0203983Y0075908D01*
X0204331Y0076906D02*
X0203336Y0076906D01*
X0202459Y0077905D02*
X0205208Y0077905D01*
X0223207Y0081899D02*
X0106040Y0081899D01*
X0105626Y0082897D02*
X0224466Y0082897D01*
X0227201Y0082897D02*
X0229466Y0082897D01*
X0232201Y0082897D02*
X0234466Y0082897D01*
X0237201Y0082897D02*
X0239466Y0082897D01*
X0242201Y0082897D02*
X0244466Y0082897D01*
X0244434Y0060930D02*
X0372034Y0060930D01*
X0372034Y0045952D02*
X0352911Y0045952D01*
X0353523Y0044954D02*
X0372034Y0044954D01*
X0372034Y0043955D02*
X0353683Y0043955D01*
X0353486Y0042957D02*
X0372034Y0042957D01*
X0372034Y0041958D02*
X0352822Y0041958D01*
X0348845Y0041958D02*
X0268987Y0041958D01*
X0278904Y0040960D02*
X0372034Y0040960D01*
X0372034Y0033970D02*
X0326394Y0033970D01*
X0327016Y0032972D02*
X0372034Y0032972D01*
X0372034Y0031973D02*
X0327183Y0031973D01*
X0326993Y0030975D02*
X0372034Y0030975D01*
X0266274Y0054939D02*
X0262869Y0054939D01*
X0263944Y0053940D02*
X0265345Y0053940D01*
X0264983Y0052942D02*
X0264394Y0052942D01*
X0264550Y0051943D02*
X0264983Y0051943D01*
X0256136Y0056936D02*
X0244300Y0056936D01*
X0244977Y0057934D02*
X0256737Y0057934D01*
X0145372Y0017994D02*
X0101424Y0017994D01*
X0105132Y0074909D02*
X0127244Y0074909D01*
M02*
