%
M48
M72
T01C0.0118
T02C0.0150
T03C0.0200
T04C0.0315
T05C0.0400
T06C0.1181
T07C0.1300
%
T01
X28940Y5006
X29333Y5006
X29727Y5006
X29727Y5400
X29333Y5400
X28940Y5400
X28940Y5794
X29333Y5794
X29727Y5794
T02
X27933Y5800
X26783Y5250
X25883Y5600
X26083Y5900
X24233Y5900
X23783Y5900
X23383Y6200
X22783Y6100
X23083Y5650
X21083Y5550
X20833Y5150
X20583Y5150
X20333Y5150
X20333Y4900
X20583Y4900
X20833Y4900
X20833Y4650
X20583Y4650
X20333Y4650
X19583Y4400
X19083Y4900
X19883Y5550
X20783Y6000
X20483Y6150
X18533Y6250
X17733Y6450
X17333Y6400
X15683Y6550
X15433Y6450
X15433Y6700
X13583Y6100
X13333Y6100
X13333Y5850
X13583Y5850
X12783Y5500
X14833Y5950
X14883Y5500
X14983Y4800
X13233Y4450
X13083Y4150
X12833Y4150
X12833Y3900
X13083Y3900
X14883Y4200
X14933Y3800
X14583Y3150
X14833Y2600
X16333Y2850
X17283Y2850
X19183Y3200
X18883Y3550
X20433Y3700
X21033Y3950
X22433Y3800
X22783Y3900
X23283Y4500
X21883Y4800
X25833Y4500
X26633Y4300
X27683Y3900
X27333Y3700
X26333Y3600
X27633Y3400
X26333Y2900
X27033Y2700
X27483Y2700
X25983Y2100
X24833Y2100
X23083Y3000
X24033Y3050
X21833Y3050
X20733Y2850
X20333Y2800
X16533Y3450
X16433Y4200
X13083Y2650
X12083Y2150
X14783Y1950
X10283Y5050
X9933Y5050
X9933Y5600
X10283Y5600
X11833Y6400
X11583Y6550
X11833Y6700
X12083Y6550
X12783Y6550
X13083Y6600
X12883Y6800
X12083Y6850
X11833Y7000
X11583Y6850
X12083Y7150
X12083Y7850
X14883Y8100
X16783Y7450
X17033Y7450
X17283Y7450
X17533Y7450
X17533Y7200
X17283Y7200
X19283Y7250
X20083Y7550
X20683Y7550
X22083Y7400
X22583Y6800
X26233Y6800
X26683Y6800
X28133Y7500
X29533Y7050
X31633Y6800
X33333Y6400
X32583Y4500
X30583Y3850
X30883Y3250
X32433Y3200
X35083Y2250
X35283Y2700
X32833Y1900
X28683Y1900
X35083Y4400
X26333Y4800
X25283Y8300
X21358Y8625
X17833Y8600
X30733Y8300
T03
X24583Y8000
X24083Y8000
X23583Y8000
X23083Y8000
X22583Y8000
X22583Y7500
X23083Y7500
X23583Y7500
X24083Y7500
X24583Y7500
X15333Y7400
T04
X26098Y5185
X28519Y2764
T05
X13983Y3350
X12983Y3350
X13133Y7250
X14133Y7250
T06
X17749Y4953
T07
X9733Y2550
X9783Y7950
X36083Y8000
M30
