G75*
%MOIN*%
%OFA0B0*%
%FSLAX25Y25*%
%IPPOS*%
%LPD*%
%AMOC8*
5,1,8,0,0,1.08239X$1,22.5*
%
%ADD10R,0.02700X0.05200*%
%ADD11R,0.18310X0.04137*%
%ADD12R,0.13586X0.06499*%
%ADD13C,0.04137*%
%ADD14R,0.06200X0.06200*%
%ADD15R,0.03743X0.02956*%
%ADD16R,0.16200X0.06200*%
%ADD17R,0.04137X0.08074*%
%ADD18C,0.12011*%
%ADD19R,0.01578X0.05712*%
%ADD20R,0.07287X0.07680*%
%ADD21R,0.07680X0.07680*%
%ADD22R,0.04137X0.07287*%
%ADD23R,0.03743X0.04137*%
%ADD24C,0.13200*%
%ADD25R,0.12798X0.10043*%
%ADD26C,0.03350*%
D10*
X0116833Y0074276D03*
X0113093Y0083724D03*
X0120573Y0083724D03*
D11*
X0114900Y0057937D03*
X0114900Y0050063D03*
D12*
X0094428Y0040614D03*
X0094428Y0067386D03*
D13*
X0225833Y0075000D03*
X0230833Y0075000D03*
X0235833Y0075000D03*
X0240833Y0075000D03*
X0245833Y0075000D03*
X0245833Y0080000D03*
X0240833Y0080000D03*
X0235833Y0080000D03*
X0230833Y0080000D03*
X0225833Y0080000D03*
D14*
X0141333Y0072500D03*
X0131333Y0072500D03*
X0129833Y0033500D03*
X0139833Y0033500D03*
D15*
X0312833Y0031059D03*
X0312833Y0025941D03*
D16*
X0363333Y0024500D03*
X0363333Y0044500D03*
D17*
X0207408Y0021972D03*
X0201503Y0021972D03*
X0195597Y0021972D03*
X0189692Y0021972D03*
X0183786Y0021972D03*
X0177881Y0021972D03*
X0171975Y0021972D03*
X0166070Y0021972D03*
X0160164Y0021972D03*
X0154259Y0021972D03*
X0154259Y0081028D03*
X0160164Y0081028D03*
X0166070Y0081028D03*
X0171975Y0081028D03*
X0177881Y0081028D03*
X0183786Y0081028D03*
X0189692Y0081028D03*
X0195597Y0081028D03*
X0201503Y0081028D03*
X0207408Y0081028D03*
D18*
X0177487Y0049531D03*
D19*
X0324715Y0071067D03*
X0327274Y0071067D03*
X0329833Y0071067D03*
X0332392Y0071067D03*
X0334951Y0071067D03*
D20*
X0345581Y0081500D03*
X0314085Y0081500D03*
D21*
X0324833Y0081500D03*
X0334833Y0081500D03*
D22*
X0301345Y0082000D03*
X0290322Y0082000D03*
D23*
X0291262Y0025150D03*
X0307404Y0025150D03*
X0307404Y0018850D03*
X0291262Y0018850D03*
D24*
X0097333Y0025500D03*
X0097833Y0079500D03*
X0360833Y0080000D03*
D25*
X0285581Y0036500D03*
X0254085Y0036500D03*
D26*
X0285188Y0027642D03*
X0260975Y0051854D03*
M02*
